<svg viewBox="0 0 1434 400" xmlns="http://www.w3.org/2000/svg"><g><g><g><g><g><line x1="61.91500186920166" y1="377.8999996185303" x2="56.91500186920166" y2="377.8999996185303" style="visibility: inherit;" fill="rgb(0, 0, 0)" stroke="rgb(204, 204, 204)" stroke-width="1px"></line><line x1="61.91500186920166" y1="330.66249966621393" x2="56.91500186920166" y2="330.66249966621393" style="visibility: inherit;" fill="rgb(0, 0, 0)" stroke="rgb(204, 204, 204)" stroke-width="1px"></line><line x1="61.91500186920166" y1="283.4249997138976" x2="56.91500186920166" y2="283.4249997138976" style="visibility: inherit;" fill="rgb(0, 0, 0)" stroke="rgb(204, 204, 204)" stroke-width="1px"></line><line x1="61.91500186920166" y1="236.18749976158125" x2="56.91500186920166" y2="236.18749976158125" style="visibility: inherit;" fill="rgb(0, 0, 0)" stroke="rgb(204, 204, 204)" stroke-width="1px"></line><line x1="61.91500186920166" y1="188.94999980926488" x2="56.91500186920166" y2="188.94999980926488" style="visibility: inherit;" fill="rgb(0, 0, 0)" stroke="rgb(204, 204, 204)" stroke-width="1px"></line><line x1="61.91500186920166" y1="141.7124998569485" x2="56.91500186920166" y2="141.7124998569485" style="visibility: inherit;" fill="rgb(0, 0, 0)" stroke="rgb(204, 204, 204)" stroke-width="1px"></line><line x1="61.91500186920166" y1="94.47499990463218" x2="56.91500186920166" y2="94.47499990463218" style="visibility: inherit;" fill="rgb(0, 0, 0)" stroke="rgb(204, 204, 204)" stroke-width="1px"></line><line x1="61.91500186920166" y1="47.23749995231582" x2="56.91500186920166" y2="47.23749995231582" style="visibility: inherit;" fill="rgb(0, 0, 0)" stroke="rgb(204, 204, 204)" stroke-width="1px"></line></g><g transform="translate(51.91500186920166, 0)"><text style="text-anchor: end; visibility: hidden; font-family: Roboto, sans-serif; font-size: 12px; font-weight: 200;" x="0" y="377.8999996185303" dx="0em" dy="0.3em" fill="rgb(50, 49, 63)" stroke="none" stroke-width="1px">0.245</text><text style="text-anchor: end; visibility: inherit; font-family: Roboto, sans-serif; font-size: 12px; font-weight: 200;" x="0" y="330.66249966621393" dx="0em" dy="0.3em" fill="rgb(50, 49, 63)" stroke="none" stroke-width="1px">0.25</text><text style="text-anchor: end; visibility: inherit; font-family: Roboto, sans-serif; font-size: 12px; font-weight: 200;" x="0" y="283.4249997138976" dx="0em" dy="0.3em" fill="rgb(50, 49, 63)" stroke="none" stroke-width="1px">0.255</text><text style="text-anchor: end; visibility: inherit; font-family: Roboto, sans-serif; font-size: 12px; font-weight: 200;" x="0" y="236.18749976158125" dx="0em" dy="0.3em" fill="rgb(50, 49, 63)" stroke="none" stroke-width="1px">0.26</text><text style="text-anchor: end; visibility: inherit; font-family: Roboto, sans-serif; font-size: 12px; font-weight: 200;" x="0" y="188.94999980926488" dx="0em" dy="0.3em" fill="rgb(50, 49, 63)" stroke="none" stroke-width="1px">0.265</text><text style="text-anchor: end; visibility: inherit; font-family: Roboto, sans-serif; font-size: 12px; font-weight: 200;" x="0" y="141.7124998569485" dx="0em" dy="0.3em" fill="rgb(50, 49, 63)" stroke="none" stroke-width="1px">0.27</text><text style="text-anchor: end; visibility: inherit; font-family: Roboto, sans-serif; font-size: 12px; font-weight: 200;" x="0" y="94.47499990463218" dx="0em" dy="0.3em" fill="rgb(50, 49, 63)" stroke="none" stroke-width="1px">0.275</text><text style="text-anchor: end; visibility: inherit; font-family: Roboto, sans-serif; font-size: 12px; font-weight: 200;" x="0" y="47.23749995231582" dx="0em" dy="0.3em" fill="rgb(50, 49, 63)" stroke="none" stroke-width="1px">0.28</text></g><line x1="61.91500186920166" y1="0" x2="61.91500186920166" y2="377.8999996185303" fill="rgb(0, 0, 0)" stroke="rgb(204, 204, 204)" stroke-width="1px"></line></g></g><g transform="translate(61, 0)" clip-path="url(#clip_0)"><clipPath id="clip_0"><rect width="1372" height="377"></rect></clipPath><g><g><g><line x1="0" y1="0" x2="0" y2="377.8999996185303" fill="rgb(0, 0, 0)" stroke="rgb(60, 60, 60)" stroke-width="1px" opacity="0.25"></line><line x1="114.34041651089986" y1="0" x2="114.34041651089986" y2="377.8999996185303" fill="rgb(0, 0, 0)" stroke="rgb(60, 60, 60)" stroke-width="1px" opacity="0.25"></line><line x1="228.6808330217997" y1="0" x2="228.6808330217997" y2="377.8999996185303" fill="rgb(0, 0, 0)" stroke="rgb(60, 60, 60)" stroke-width="1px" opacity="0.25"></line><line x1="343.0212495326996" y1="0" x2="343.0212495326996" y2="377.8999996185303" fill="rgb(0, 0, 0)" stroke="rgb(60, 60, 60)" stroke-width="1px" opacity="0.25"></line><line x1="457.3616660435994" y1="0" x2="457.3616660435994" y2="377.8999996185303" fill="rgb(0, 0, 0)" stroke="rgb(60, 60, 60)" stroke-width="1px" opacity="0.25"></line><line x1="571.7020825544994" y1="0" x2="571.7020825544994" y2="377.8999996185303" fill="rgb(0, 0, 0)" stroke="rgb(60, 60, 60)" stroke-width="1px" opacity="0.25"></line><line x1="686.0424990653992" y1="0" x2="686.0424990653992" y2="377.8999996185303" fill="rgb(0, 0, 0)" stroke="rgb(60, 60, 60)" stroke-width="1px" opacity="0.25"></line><line x1="800.3829155762991" y1="0" x2="800.3829155762991" y2="377.8999996185303" fill="rgb(0, 0, 0)" stroke="rgb(60, 60, 60)" stroke-width="1px" opacity="0.25"></line><line x1="914.7233320871989" y1="0" x2="914.7233320871989" y2="377.8999996185303" fill="rgb(0, 0, 0)" stroke="rgb(60, 60, 60)" stroke-width="1px" opacity="0.25"></line><line x1="1029.0637485980988" y1="0" x2="1029.0637485980988" y2="377.8999996185303" fill="rgb(0, 0, 0)" stroke="rgb(60, 60, 60)" stroke-width="1px" opacity="0.25"></line><line x1="1143.4041651089988" y1="0" x2="1143.4041651089988" y2="377.8999996185303" fill="rgb(0, 0, 0)" stroke="rgb(60, 60, 60)" stroke-width="1px" opacity="0.25"></line><line x1="1257.7445816198983" y1="0" x2="1257.7445816198983" y2="377.8999996185303" fill="rgb(0, 0, 0)" stroke="rgb(60, 60, 60)" stroke-width="1px" opacity="0.25"></line><line x1="1372.0849981307983" y1="0" x2="1372.0849981307983" y2="377.8999996185303" fill="rgb(0, 0, 0)" stroke="rgb(60, 60, 60)" stroke-width="1px" opacity="0.25"></line></g><g><line x1="0" y1="377.8999996185303" x2="1372.0849981307983" y2="377.8999996185303" fill="rgb(0, 0, 0)" stroke="rgb(60, 60, 60)" stroke-width="1px" opacity="0.25"></line><line x1="0" y1="330.66249966621393" x2="1372.0849981307983" y2="330.66249966621393" fill="rgb(0, 0, 0)" stroke="rgb(60, 60, 60)" stroke-width="1px" opacity="0.25"></line><line x1="0" y1="283.4249997138976" x2="1372.0849981307983" y2="283.4249997138976" fill="rgb(0, 0, 0)" stroke="rgb(60, 60, 60)" stroke-width="1px" opacity="0.25"></line><line x1="0" y1="236.18749976158125" x2="1372.0849981307983" y2="236.18749976158125" fill="rgb(0, 0, 0)" stroke="rgb(60, 60, 60)" stroke-width="1px" opacity="0.25"></line><line x1="0" y1="188.94999980926488" x2="1372.0849981307983" y2="188.94999980926488" fill="rgb(0, 0, 0)" stroke="rgb(60, 60, 60)" stroke-width="1px" opacity="0.25"></line><line x1="0" y1="141.7124998569485" x2="1372.0849981307983" y2="141.7124998569485" fill="rgb(0, 0, 0)" stroke="rgb(60, 60, 60)" stroke-width="1px" opacity="0.25"></line><line x1="0" y1="94.47499990463218" x2="1372.0849981307983" y2="94.47499990463218" fill="rgb(0, 0, 0)" stroke="rgb(60, 60, 60)" stroke-width="1px" opacity="0.25"></line><line x1="0" y1="47.23749995231582" x2="1372.0849981307983" y2="47.23749995231582" fill="rgb(0, 0, 0)" stroke="rgb(60, 60, 60)" stroke-width="1px" opacity="0.25"></line></g></g></g><g><g><line x1="0" y1="2692.537497282029" x2="1372.0849981307983" y2="2692.537497282029" fill="rgb(0, 0, 0)" stroke="rgb(153, 153, 153)" stroke-width="1.5px"></line></g></g><g><g><line x1="114.34041651089986" y1="0" x2="114.34041651089986" y2="377.8999996185303" fill="rgb(0, 0, 0)" stroke="rgb(153, 153, 153)" stroke-width="1.5px"></line></g></g><g><g><g><g><g><path style="fill: none;" stroke="rgb(255, 112, 67)" stroke-width="2px" d="M114.34041651089986,225.83950925023845L137.20849981307984,278.2249603949824L160.0765831152598,240.70517899236015L182.94466641743978,220.32745923808807L205.81274971961975,179.0598667453226L228.6808330217997,270.35824550815187L251.54891632397968,195.30432327344317L274.4169996261597,238.94206630011487L297.28508292833965,201.3062832320175L320.1531662305196,171.20075390938484L343.0212495326996,249.04969685567428L365.88933283487955,197.96841977520376L388.7574161370595,160.7439921276382L411.6254994392395,161.36285538179902L434.49358274141946,122.37756750151203L457.3616660435994,213.4270494869627L480.2297493457794,244.86406394559472L503.09783264795936,181.1270614732793L525.9659159501394,158.79195439283518L548.8339992523194,150.39422217327154L571.7020825544994,310.049397891706L594.5701658566793,246.994045982777L617.4382491588593,263.1132094498869L640.3063324610392,186.58955737590634L663.1744157632193,244.96824019856993L686.0424990653992,172.18704962336363L708.9105823675792,268.5078500093598L731.7786656697591,203.87633954865993L754.6467489719391,183.65938909289827L777.514832274119,207.1970280016048L800.3829155762991,206.32335526381542L823.250998878479,216.64243545717045L846.119082180659,204.36624949508388L868.9871654828389,243.17021438370594L891.855248785019,164.01287401153593L914.7233320871989,132.1887180722528L937.5914153893789,240.6609744742058L960.4594986915588,146.79507341169835L983.3275819937388,257.46657498119015L1006.1956652959187,211.38772894561288L1029.0637485980988,223.87789856245934L1051.931831900279,247.80296050925747L1074.7999152024586,198.53350555823414L1097.6679985046387,209.47116744830953L1120.5360818068186,259.4746426466474L1143.4041651089988,224.13496050561167L1166.2722484111785,223.5132816770461L1189.1403317133586,197.683765202885L1212.0084150155385,233.5938827183201L1234.8764983177186,212.64995095125573" fill="none"></path></g><g><path style="fill: none;" stroke="rgb(0, 153, 136)" stroke-width="2px" d="M114.34041651089986,231.70801098202836L137.20849981307984,232.58900421327004L160.0765831152598,170.84711776415008L182.94466641743978,215.30081425331406L205.81274971961975,227.60205882760278L228.6808330217997,181.5482714042277L251.54891632397968,95.03721380176995L274.4169996261597,250.2688405729247L297.28508292833965,216.4152186027083L320.1531662305196,142.6488585432851L343.0212495326996,258.8563425073675L365.88933283487955,319.94923905619595L388.7574161370595,207.07595830220117L411.6254994392395,184.47984747443815L434.49358274141946,220.56087035624063L457.3616660435994,276.8610961533286L480.2297493457794,236.0662386031182L503.09783264795936,209.1586386893839L525.9659159501394,144.12816133553304L548.8339992523194,213.8631819622562L571.7020825544994,68.7791669032081L594.5701658566793,252.38643408272614L617.4382491588593,223.10530494579996L640.3063324610392,259.76549148265656L663.1744157632193,173.95382256233506L686.0424990653992,231.59707735048178L708.9105823675792,225.1122463814953L731.7786656697591,213.38903923249876L754.6467489719391,260.71659251657616L777.514832274119,237.7099709406027L800.3829155762991,180.5281887973921L823.250998878479,143.65964975458508L846.119082180659,194.6986932189846L868.9871654828389,214.09969021225396L891.855248785019,224.823086890129L914.7233320871989,151.93462293010225L937.5914153893789,242.65017779115132L960.4594986915588,301.4036135670852L983.3275819937388,265.4760394903408L1006.1956652959187,196.84416091539293L1029.0637485980988,182.23808713338786L1051.931831900279,231.30679162935357L1074.7999152024586,147.83430192448617L1097.6679985046387,107.24526286326193L1120.5360818068186,209.03587964533745L1143.4041651089988,60.94652046667484L1166.2722484111785,195.10216503118318L1189.1403317133586,227.84391666896954L1212.0084150155385,100.31923138505346L1234.8764983177186,164.63089259337534" fill="none"></path></g><g><path style="fill: none;" stroke="rgb(204, 51, 17)" stroke-width="2px" d="M114.34041651089986,235.243809319495L137.20849981307984,230.98778704929705L160.0765831152598,216.33159604288767L182.94466641743978,184.43592451372427L205.81274971961975,313.6451679639935L228.6808330217997,268.2961188141237L251.54891632397968,186.29561140805197L274.4169996261597,192.10639386454477L297.28508292833965,211.54568266971853L320.1531662305196,176.0790181230293L343.0212495326996,220.81511672498823L365.88933283487955,133.4610761457527L388.7574161370595,150.93706491850452L411.6254994392395,303.16137666796146L434.49358274141946,141.3528496447854L457.3616660435994,228.03115236688444L480.2297493457794,190.70254846634373L503.09783264795936,188.12686100089184L525.9659159501394,247.1291935542043L548.8339992523194,217.49668073156715L571.7020825544994,234.44362307366922L594.5701658566793,234.85582316652247L617.4382491588593,197.18653476300875L640.3063324610392,213.71902455273374L663.1744157632193,142.14740474180172L686.0424990653992,241.7365238968147L708.9105823675792,207.077647646844L731.7786656697591,160.7068265454957L754.6467489719391,230.78731815167987L777.514832274119,230.01585076478239L800.3829155762991,144.5457110197553L823.250998878479,223.93111291870883L846.119082180659,228.18995076331151L868.9871654828389,184.98411685032625L891.855248785019,213.96454264082666L914.7233320871989,134.08613366360396L937.5914153893789,181.1110126991723L960.4594986915588,262.1491567737055L983.3275819937388,184.2016687232503L1006.1956652959187,136.61423792161582L1029.0637485980988,140.65120850312536L1051.931831900279,245.01779430809327L1074.7999152024586,168.08757329006897L1097.6679985046387,212.94727560839578L1120.5360818068186,176.25076816171816L1143.4041651089988,135.19265440466495L1166.2722484111785,241.9696534575268L1189.1403317133586,204.141566657586L1212.0084150155385,237.46276350786692L1234.8764983177186,190.3199119047402" fill="none"></path></g></g></g></g></g><g><g opacity="0.0289999"><span fill="rgb(0, 0, 0)" stroke="none" stroke-width="1px">Alt + Scroll to Zoom</span></g></g></g><g transform="translate(61, 377)" clip-path="url(#clip_1)"><clipPath id="clip_1"><rect width="1372" height="22"></rect></clipPath><g><g><line x1="0" y1="0" x2="0" y2="5" style="visibility: inherit;" fill="rgb(0, 0, 0)" stroke="rgb(204, 204, 204)" stroke-width="1px"></line><line x1="114.34041651089986" y1="0" x2="114.34041651089986" y2="5" style="visibility: inherit;" fill="rgb(0, 0, 0)" stroke="rgb(204, 204, 204)" stroke-width="1px"></line><line x1="228.6808330217997" y1="0" x2="228.6808330217997" y2="5" style="visibility: inherit;" fill="rgb(0, 0, 0)" stroke="rgb(204, 204, 204)" stroke-width="1px"></line><line x1="343.0212495326996" y1="0" x2="343.0212495326996" y2="5" style="visibility: inherit;" fill="rgb(0, 0, 0)" stroke="rgb(204, 204, 204)" stroke-width="1px"></line><line x1="457.3616660435994" y1="0" x2="457.3616660435994" y2="5" style="visibility: inherit;" fill="rgb(0, 0, 0)" stroke="rgb(204, 204, 204)" stroke-width="1px"></line><line x1="571.7020825544994" y1="0" x2="571.7020825544994" y2="5" style="visibility: inherit;" fill="rgb(0, 0, 0)" stroke="rgb(204, 204, 204)" stroke-width="1px"></line><line x1="686.0424990653992" y1="0" x2="686.0424990653992" y2="5" style="visibility: inherit;" fill="rgb(0, 0, 0)" stroke="rgb(204, 204, 204)" stroke-width="1px"></line><line x1="800.3829155762991" y1="0" x2="800.3829155762991" y2="5" style="visibility: inherit;" fill="rgb(0, 0, 0)" stroke="rgb(204, 204, 204)" stroke-width="1px"></line><line x1="914.7233320871989" y1="0" x2="914.7233320871989" y2="5" style="visibility: inherit;" fill="rgb(0, 0, 0)" stroke="rgb(204, 204, 204)" stroke-width="1px"></line><line x1="1029.0637485980988" y1="0" x2="1029.0637485980988" y2="5" style="visibility: inherit;" fill="rgb(0, 0, 0)" stroke="rgb(204, 204, 204)" stroke-width="1px"></line><line x1="1143.4041651089988" y1="0" x2="1143.4041651089988" y2="5" style="visibility: inherit;" fill="rgb(0, 0, 0)" stroke="rgb(204, 204, 204)" stroke-width="1px"></line><line x1="1257.7445816198983" y1="0" x2="1257.7445816198983" y2="5" style="visibility: inherit;" fill="rgb(0, 0, 0)" stroke="rgb(204, 204, 204)" stroke-width="1px"></line><line x1="1372.0849981307983" y1="0" x2="1372.0849981307983" y2="5" style="visibility: inherit;" fill="rgb(0, 0, 0)" stroke="rgb(204, 204, 204)" stroke-width="1px"></line></g><g transform="translate(0, 8)"><text style="text-anchor: middle; visibility: hidden; font-family: Roboto, sans-serif; font-size: 12px; font-weight: 200;" x="0" y="0" dx="0em" dy="0.95em" fill="rgb(50, 49, 63)" stroke="none" stroke-width="1px">-5</text><text style="text-anchor: middle; visibility: inherit; font-family: Roboto, sans-serif; font-size: 12px; font-weight: 200;" x="114.34041651089986" y="0" dx="0em" dy="0.95em" fill="rgb(50, 49, 63)" stroke="none" stroke-width="1px">0</text><text style="text-anchor: middle; visibility: inherit; font-family: Roboto, sans-serif; font-size: 12px; font-weight: 200;" x="228.6808330217997" y="0" dx="0em" dy="0.95em" fill="rgb(50, 49, 63)" stroke="none" stroke-width="1px">5</text><text style="text-anchor: middle; visibility: inherit; font-family: Roboto, sans-serif; font-size: 12px; font-weight: 200;" x="343.0212495326996" y="0" dx="0em" dy="0.95em" fill="rgb(50, 49, 63)" stroke="none" stroke-width="1px">10</text><text style="text-anchor: middle; visibility: inherit; font-family: Roboto, sans-serif; font-size: 12px; font-weight: 200;" x="457.3616660435994" y="0" dx="0em" dy="0.95em" fill="rgb(50, 49, 63)" stroke="none" stroke-width="1px">15</text><text style="text-anchor: middle; visibility: inherit; font-family: Roboto, sans-serif; font-size: 12px; font-weight: 200;" x="571.7020825544994" y="0" dx="0em" dy="0.95em" fill="rgb(50, 49, 63)" stroke="none" stroke-width="1px">20</text><text style="text-anchor: middle; visibility: inherit; font-family: Roboto, sans-serif; font-size: 12px; font-weight: 200;" x="686.0424990653992" y="0" dx="0em" dy="0.95em" fill="rgb(50, 49, 63)" stroke="none" stroke-width="1px">25</text><text style="text-anchor: middle; visibility: inherit; font-family: Roboto, sans-serif; font-size: 12px; font-weight: 200;" x="800.3829155762991" y="0" dx="0em" dy="0.95em" fill="rgb(50, 49, 63)" stroke="none" stroke-width="1px">30</text><text style="text-anchor: middle; visibility: inherit; font-family: Roboto, sans-serif; font-size: 12px; font-weight: 200;" x="914.7233320871989" y="0" dx="0em" dy="0.95em" fill="rgb(50, 49, 63)" stroke="none" stroke-width="1px">35</text><text style="text-anchor: middle; visibility: inherit; font-family: Roboto, sans-serif; font-size: 12px; font-weight: 200;" x="1029.0637485980988" y="0" dx="0em" dy="0.95em" fill="rgb(50, 49, 63)" stroke="none" stroke-width="1px">40</text><text style="text-anchor: middle; visibility: inherit; font-family: Roboto, sans-serif; font-size: 12px; font-weight: 200;" x="1143.4041651089988" y="0" dx="0em" dy="0.95em" fill="rgb(50, 49, 63)" stroke="none" stroke-width="1px">45</text><text style="text-anchor: middle; visibility: inherit; font-family: Roboto, sans-serif; font-size: 12px; font-weight: 200;" x="1257.7445816198983" y="0" dx="0em" dy="0.95em" fill="rgb(50, 49, 63)" stroke="none" stroke-width="1px">50</text><text style="text-anchor: middle; visibility: hidden; font-family: Roboto, sans-serif; font-size: 12px; font-weight: 200;" x="1372.0849981307983" y="0" dx="0em" dy="0.95em" fill="rgb(50, 49, 63)" stroke="none" stroke-width="1px">55</text></g><line x1="0" y1="0" x2="1372.0849981307983" y2="0" fill="rgb(0, 0, 0)" stroke="rgb(204, 204, 204)" stroke-width="1px"></line></g></g></g></g></svg>