<svg viewBox="0 0 1434 400" xmlns="http://www.w3.org/2000/svg"><g><g><g><g><g><line x1="61.91500186920166" y1="377.8999996185303" x2="56.91500186920166" y2="377.8999996185303" style="visibility: inherit;" fill="rgb(0, 0, 0)" stroke="rgb(204, 204, 204)" stroke-width="1px"></line><line x1="61.91500186920166" y1="340.10999965667725" x2="56.91500186920166" y2="340.10999965667725" style="visibility: inherit;" fill="rgb(0, 0, 0)" stroke="rgb(204, 204, 204)" stroke-width="1px"></line><line x1="61.91500186920166" y1="302.3199996948242" x2="56.91500186920166" y2="302.3199996948242" style="visibility: inherit;" fill="rgb(0, 0, 0)" stroke="rgb(204, 204, 204)" stroke-width="1px"></line><line x1="61.91500186920166" y1="264.5299997329712" x2="56.91500186920166" y2="264.5299997329712" style="visibility: inherit;" fill="rgb(0, 0, 0)" stroke="rgb(204, 204, 204)" stroke-width="1px"></line><line x1="61.91500186920166" y1="226.73999977111816" x2="56.91500186920166" y2="226.73999977111816" style="visibility: inherit;" fill="rgb(0, 0, 0)" stroke="rgb(204, 204, 204)" stroke-width="1px"></line><line x1="61.91500186920166" y1="188.94999980926514" x2="56.91500186920166" y2="188.94999980926514" style="visibility: inherit;" fill="rgb(0, 0, 0)" stroke="rgb(204, 204, 204)" stroke-width="1px"></line><line x1="61.91500186920166" y1="151.1599998474121" x2="56.91500186920166" y2="151.1599998474121" style="visibility: inherit;" fill="rgb(0, 0, 0)" stroke="rgb(204, 204, 204)" stroke-width="1px"></line><line x1="61.91500186920166" y1="113.3699998855591" x2="56.91500186920166" y2="113.3699998855591" style="visibility: inherit;" fill="rgb(0, 0, 0)" stroke="rgb(204, 204, 204)" stroke-width="1px"></line><line x1="61.91500186920166" y1="75.57999992370604" x2="56.91500186920166" y2="75.57999992370604" style="visibility: inherit;" fill="rgb(0, 0, 0)" stroke="rgb(204, 204, 204)" stroke-width="1px"></line><line x1="61.91500186920166" y1="37.78999996185302" x2="56.91500186920166" y2="37.78999996185302" style="visibility: inherit;" fill="rgb(0, 0, 0)" stroke="rgb(204, 204, 204)" stroke-width="1px"></line><line x1="61.91500186920166" y1="0" x2="56.91500186920166" y2="0" style="visibility: inherit;" fill="rgb(0, 0, 0)" stroke="rgb(204, 204, 204)" stroke-width="1px"></line></g><g transform="translate(51.91500186920166, 0)"><text style="text-anchor: end; visibility: hidden; font-family: Roboto, sans-serif; font-size: 12px; font-weight: 200;" x="0" y="377.8999996185303" dx="0em" dy="0.3em" fill="rgb(50, 49, 63)" stroke="none" stroke-width="1px">0.84</text><text style="text-anchor: end; visibility: inherit; font-family: Roboto, sans-serif; font-size: 12px; font-weight: 200;" x="0" y="340.10999965667725" dx="0em" dy="0.3em" fill="rgb(50, 49, 63)" stroke="none" stroke-width="1px">0.845</text><text style="text-anchor: end; visibility: inherit; font-family: Roboto, sans-serif; font-size: 12px; font-weight: 200;" x="0" y="302.3199996948242" dx="0em" dy="0.3em" fill="rgb(50, 49, 63)" stroke="none" stroke-width="1px">0.85</text><text style="text-anchor: end; visibility: inherit; font-family: Roboto, sans-serif; font-size: 12px; font-weight: 200;" x="0" y="264.5299997329712" dx="0em" dy="0.3em" fill="rgb(50, 49, 63)" stroke="none" stroke-width="1px">0.855</text><text style="text-anchor: end; visibility: inherit; font-family: Roboto, sans-serif; font-size: 12px; font-weight: 200;" x="0" y="226.73999977111816" dx="0em" dy="0.3em" fill="rgb(50, 49, 63)" stroke="none" stroke-width="1px">0.86</text><text style="text-anchor: end; visibility: inherit; font-family: Roboto, sans-serif; font-size: 12px; font-weight: 200;" x="0" y="188.94999980926514" dx="0em" dy="0.3em" fill="rgb(50, 49, 63)" stroke="none" stroke-width="1px">0.865</text><text style="text-anchor: end; visibility: inherit; font-family: Roboto, sans-serif; font-size: 12px; font-weight: 200;" x="0" y="151.1599998474121" dx="0em" dy="0.3em" fill="rgb(50, 49, 63)" stroke="none" stroke-width="1px">0.87</text><text style="text-anchor: end; visibility: inherit; font-family: Roboto, sans-serif; font-size: 12px; font-weight: 200;" x="0" y="113.3699998855591" dx="0em" dy="0.3em" fill="rgb(50, 49, 63)" stroke="none" stroke-width="1px">0.875</text><text style="text-anchor: end; visibility: inherit; font-family: Roboto, sans-serif; font-size: 12px; font-weight: 200;" x="0" y="75.57999992370604" dx="0em" dy="0.3em" fill="rgb(50, 49, 63)" stroke="none" stroke-width="1px">0.88</text><text style="text-anchor: end; visibility: inherit; font-family: Roboto, sans-serif; font-size: 12px; font-weight: 200;" x="0" y="37.78999996185302" dx="0em" dy="0.3em" fill="rgb(50, 49, 63)" stroke="none" stroke-width="1px">0.885</text><text style="text-anchor: end; visibility: hidden; font-family: Roboto, sans-serif; font-size: 12px; font-weight: 200;" x="0" y="0" dx="0em" dy="0.3em" fill="rgb(50, 49, 63)" stroke="none" stroke-width="1px">0.89</text></g><line x1="61.91500186920166" y1="0" x2="61.91500186920166" y2="377.8999996185303" fill="rgb(0, 0, 0)" stroke="rgb(204, 204, 204)" stroke-width="1px"></line></g></g><g transform="translate(61, 0)" clip-path="url(#clip_0)"><clipPath id="clip_0"><rect width="1372" height="377"></rect></clipPath><g><g><g><line x1="0" y1="0" x2="0" y2="377.8999996185303" fill="rgb(0, 0, 0)" stroke="rgb(60, 60, 60)" stroke-width="1px" opacity="0.25"></line><line x1="114.34041651089986" y1="0" x2="114.34041651089986" y2="377.8999996185303" fill="rgb(0, 0, 0)" stroke="rgb(60, 60, 60)" stroke-width="1px" opacity="0.25"></line><line x1="228.6808330217997" y1="0" x2="228.6808330217997" y2="377.8999996185303" fill="rgb(0, 0, 0)" stroke="rgb(60, 60, 60)" stroke-width="1px" opacity="0.25"></line><line x1="343.0212495326996" y1="0" x2="343.0212495326996" y2="377.8999996185303" fill="rgb(0, 0, 0)" stroke="rgb(60, 60, 60)" stroke-width="1px" opacity="0.25"></line><line x1="457.3616660435994" y1="0" x2="457.3616660435994" y2="377.8999996185303" fill="rgb(0, 0, 0)" stroke="rgb(60, 60, 60)" stroke-width="1px" opacity="0.25"></line><line x1="571.7020825544994" y1="0" x2="571.7020825544994" y2="377.8999996185303" fill="rgb(0, 0, 0)" stroke="rgb(60, 60, 60)" stroke-width="1px" opacity="0.25"></line><line x1="686.0424990653992" y1="0" x2="686.0424990653992" y2="377.8999996185303" fill="rgb(0, 0, 0)" stroke="rgb(60, 60, 60)" stroke-width="1px" opacity="0.25"></line><line x1="800.3829155762991" y1="0" x2="800.3829155762991" y2="377.8999996185303" fill="rgb(0, 0, 0)" stroke="rgb(60, 60, 60)" stroke-width="1px" opacity="0.25"></line><line x1="914.7233320871989" y1="0" x2="914.7233320871989" y2="377.8999996185303" fill="rgb(0, 0, 0)" stroke="rgb(60, 60, 60)" stroke-width="1px" opacity="0.25"></line><line x1="1029.0637485980988" y1="0" x2="1029.0637485980988" y2="377.8999996185303" fill="rgb(0, 0, 0)" stroke="rgb(60, 60, 60)" stroke-width="1px" opacity="0.25"></line><line x1="1143.4041651089988" y1="0" x2="1143.4041651089988" y2="377.8999996185303" fill="rgb(0, 0, 0)" stroke="rgb(60, 60, 60)" stroke-width="1px" opacity="0.25"></line><line x1="1257.7445816198983" y1="0" x2="1257.7445816198983" y2="377.8999996185303" fill="rgb(0, 0, 0)" stroke="rgb(60, 60, 60)" stroke-width="1px" opacity="0.25"></line><line x1="1372.0849981307983" y1="0" x2="1372.0849981307983" y2="377.8999996185303" fill="rgb(0, 0, 0)" stroke="rgb(60, 60, 60)" stroke-width="1px" opacity="0.25"></line></g><g><line x1="0" y1="377.8999996185303" x2="1372.0849981307983" y2="377.8999996185303" fill="rgb(0, 0, 0)" stroke="rgb(60, 60, 60)" stroke-width="1px" opacity="0.25"></line><line x1="0" y1="340.10999965667725" x2="1372.0849981307983" y2="340.10999965667725" fill="rgb(0, 0, 0)" stroke="rgb(60, 60, 60)" stroke-width="1px" opacity="0.25"></line><line x1="0" y1="302.3199996948242" x2="1372.0849981307983" y2="302.3199996948242" fill="rgb(0, 0, 0)" stroke="rgb(60, 60, 60)" stroke-width="1px" opacity="0.25"></line><line x1="0" y1="264.5299997329712" x2="1372.0849981307983" y2="264.5299997329712" fill="rgb(0, 0, 0)" stroke="rgb(60, 60, 60)" stroke-width="1px" opacity="0.25"></line><line x1="0" y1="226.73999977111816" x2="1372.0849981307983" y2="226.73999977111816" fill="rgb(0, 0, 0)" stroke="rgb(60, 60, 60)" stroke-width="1px" opacity="0.25"></line><line x1="0" y1="188.94999980926514" x2="1372.0849981307983" y2="188.94999980926514" fill="rgb(0, 0, 0)" stroke="rgb(60, 60, 60)" stroke-width="1px" opacity="0.25"></line><line x1="0" y1="151.1599998474121" x2="1372.0849981307983" y2="151.1599998474121" fill="rgb(0, 0, 0)" stroke="rgb(60, 60, 60)" stroke-width="1px" opacity="0.25"></line><line x1="0" y1="113.3699998855591" x2="1372.0849981307983" y2="113.3699998855591" fill="rgb(0, 0, 0)" stroke="rgb(60, 60, 60)" stroke-width="1px" opacity="0.25"></line><line x1="0" y1="75.57999992370604" x2="1372.0849981307983" y2="75.57999992370604" fill="rgb(0, 0, 0)" stroke="rgb(60, 60, 60)" stroke-width="1px" opacity="0.25"></line><line x1="0" y1="37.78999996185302" x2="1372.0849981307983" y2="37.78999996185302" fill="rgb(0, 0, 0)" stroke="rgb(60, 60, 60)" stroke-width="1px" opacity="0.25"></line><line x1="0" y1="0" x2="1372.0849981307983" y2="0" fill="rgb(0, 0, 0)" stroke="rgb(60, 60, 60)" stroke-width="1px" opacity="0.25"></line></g></g></g><g><g><line x1="0" y1="6726.6199932098325" x2="1372.0849981307983" y2="6726.6199932098325" fill="rgb(0, 0, 0)" stroke="rgb(153, 153, 153)" stroke-width="1.5px"></line></g></g><g><g><line x1="114.34041651089986" y1="0" x2="114.34041651089986" y2="377.8999996185303" fill="rgb(0, 0, 0)" stroke="rgb(153, 153, 153)" stroke-width="1.5px"></line></g></g><g><g><g><g><g><path style="fill: none;" stroke="rgb(51, 187, 238)" stroke-width="2px" d="M114.34041651089986,105.11248327135128L137.20849981307984,118.71283387598484L160.0765831152598,97.34104742237697L182.94466641743978,112.88436961223034L205.81274971961975,83.74024632583861L228.6808330217997,126.4847202168639L251.54891632397968,107.05545485657105L274.4169996261597,107.05545485657105L297.28508292833965,101.22654010091175L320.1531662305196,118.71283387598484L343.0212495326996,118.71283387598484L365.88933283487955,120.65580546120461L388.7574161370595,105.11248327135128L411.6254994392395,142.02804240671728L434.49358274141946,103.16951168613151L457.3616660435994,97.34104742237697L480.2297493457794,142.02804240671728L503.09783264795936,151.7429003328161L525.9659159501394,163.40027935222994L548.8339992523194,130.37066338730344L571.7020825544994,161.45730776701018L594.5701658566793,169.2291941078892L617.4382491588593,165.34325093744968L640.3063324610392,161.45730776701018L663.1744157632193,142.02804240671728L686.0424990653992,155.62884350325564L708.9105823675792,167.28622252266945L731.7786656697591,196.43034580906118L754.6467489719391,198.37331739428095L777.514832274119,208.08772482847502L800.3829155762991,178.94405203398804L823.250998878479,227.51699018876786L846.119082180659,169.2291941078892L868.9871654828389,260.54705664559907L891.855248785019,180.8870236192078L914.7233320871989,190.60143105340188L937.5914153893789,208.08772482847502L960.4594986915588,231.4029333592074L983.3275819937388,266.37597140125837L1006.1956652959187,241.11779128530623L1029.0637485980988,246.94625554906077L1051.931831900279,239.17481970008646L1074.7999152024586,250.83219871950027L1097.6679985046387,264.4329998160386L1120.5360818068186,266.37597140125837L1143.4041651089988,268.3184924945734L1166.2722484111785,299.4055873661849L1189.1403317133586,281.91929359111174L1212.0084150155385,305.2345021218442L1234.8764983177186,320.77782431169754" fill="none"></path></g><g><path style="fill: none;" stroke="rgb(0, 119, 187)" stroke-width="2px" d="M114.34041651089986,79.85430315539908L137.20849981307984,103.16951168613151L160.0765831152598,101.22654010091175L182.94466641743978,83.74024632583861L205.81274971961975,103.16951168613151L228.6808330217997,108.99842644179081L251.54891632397968,122.59877704642437L274.4169996261597,95.39807583715721L297.28508292833965,114.82734119745011L320.1531662305196,85.68321791105838L343.0212495326996,110.94139802701058L365.88933283487955,118.71283387598484L388.7574161370595,155.62884350325564L411.6254994392395,93.45510425193744L434.49358274141946,151.7429003328161L457.3616660435994,107.05545485657105L480.2297493457794,130.37066338730344L503.09783264795936,93.45510425193744L525.9659159501394,132.3136349725232L548.8339992523194,128.42769180208367L571.7020825544994,103.16951168613151L594.5701658566793,99.28356851569198L617.4382491588593,132.3136349725232L640.3063324610392,101.22654010091175L663.1744157632193,163.40027935222994L686.0424990653992,116.77031278266988L708.9105823675792,132.3136349725232L731.7786656697591,130.37066338730344L754.6467489719391,163.40027935222994L777.514832274119,124.54174863164414L800.3829155762991,165.34325093744968L823.250998878479,143.97101399193704L846.119082180659,173.11513727832875L868.9871654828389,149.79992874759634L891.855248785019,175.0581088635485L914.7233320871989,177.00108044876828L937.5914153893789,180.8870236192078L960.4594986915588,184.77251629774258L983.3275819937388,186.71548788296235L1006.1956652959187,177.00108044876828L1029.0637485980988,194.4873742238414L1051.931831900279,180.8870236192078L1074.7999152024586,178.94405203398804L1097.6679985046387,192.54440263862165L1120.5360818068186,204.2017816580355L1143.4041651089988,211.97366799891455L1166.2722484111785,237.2318481148667L1189.1403317133586,178.94405203398804L1212.0084150155385,208.08772482847502L1234.8764983177186,235.28887652964693" fill="none"></path></g><g><path style="fill: none;" stroke="rgb(187, 187, 187)" stroke-width="2px" d="M114.34041651089986,97.34104742237697L137.20849981307984,87.62618949627814L160.0765831152598,136.19957814296274L182.94466641743978,128.42769180208367L205.81274971961975,99.28356851569198L228.6808330217997,85.68321791105838L251.54891632397968,101.22654010091175L274.4169996261597,93.45510425193744L297.28508292833965,126.4847202168639L320.1531662305196,110.94139802701058L343.0212495326996,107.05545485657105L365.88933283487955,105.11248327135128L388.7574161370595,105.11248327135128L411.6254994392395,75.9688104768643L434.49358274141946,126.4847202168639L457.3616660435994,95.39807583715721L480.2297493457794,97.34104742237697L503.09783264795936,99.28356851569198L525.9659159501394,142.02804240671728L548.8339992523194,155.62884350325564L571.7020825544994,101.22654010091175L594.5701658566793,142.02804240671728L617.4382491588593,83.74024632583861L640.3063324610392,130.37066338730344L663.1744157632193,130.37066338730344L686.0424990653992,120.65580546120461L708.9105823675792,134.25660655774297L731.7786656697591,122.59877704642437L754.6467489719391,118.71283387598484L777.514832274119,122.59877704642437L800.3829155762991,140.0850708214975L823.250998878479,149.79992874759634L846.119082180659,116.77031278266988L868.9871654828389,95.39807583715721L891.855248785019,153.68587191803587L914.7233320871989,105.11248327135128L937.5914153893789,132.3136349725232L960.4594986915588,147.85695716237657L983.3275819937388,159.51478667369517L1006.1956652959187,153.68587191803587L1029.0637485980988,134.25660655774297L1051.931831900279,161.45730776701018L1074.7999152024586,149.79992874759634L1097.6679985046387,128.42769180208367L1120.5360818068186,159.51478667369517L1143.4041651089988,138.1425497281825L1166.2722484111785,196.43034580906118L1189.1403317133586,142.02804240671728L1212.0084150155385,169.2291941078892L1234.8764983177186,153.68587191803587" fill="none"></path></g><g><path style="fill: none;" stroke="rgb(0, 153, 136)" stroke-width="2px" d="M114.34041651089986,93.28977372289138L137.20849981307984,105.04400850182812L160.0765831152598,138.347974036752L182.94466641743978,110.92112589129648L205.81274971961975,112.88031518508753L228.6808330217997,75.65842155448628L251.54891632397968,142.26590213242932L274.4169996261597,81.53553894395465L297.28508292833965,101.12608040615079L320.1531662305196,116.79824328076485L343.0212495326996,91.33058442910034L365.88933283487955,89.37184562721406L388.7574161370595,116.79824328076485L411.6254994392395,120.71662186834689L434.49358274141946,130.51166735349258L457.3616660435994,99.16689111235975L480.2297493457794,140.30671283863828L503.09783264795936,105.04400850182812L525.9659159501394,128.55247805970154L548.8339992523194,116.79824328076485L571.7020825544994,146.18383022810664L594.5701658566793,114.83950447887857L617.4382491588593,107.00319779561916L640.3063324610392,120.71662186834689L663.1744157632193,122.67536067023318L686.0424990653992,134.4295954491699L708.9105823675792,99.16689111235975L731.7786656697591,91.33058442910034L754.6467489719391,105.04400850182812L777.514832274119,85.45346703963197L800.3829155762991,114.83950447887857L823.250998878479,138.347974036752L846.119082180659,93.28977372289138L868.9871654828389,105.04400850182812L891.855248785019,101.12608040615079L914.7233320871989,114.83950447887857L937.5914153893789,93.28977372289138L960.4594986915588,124.63454996402422L983.3275819937388,71.74049345880896L1006.1956652959187,112.88031518508753L1029.0637485980988,83.49472823774569L1051.931831900279,114.83950447887857L1074.7999152024586,116.79824328076485L1097.6679985046387,144.22509142622036L1120.5360818068186,136.38878474296095L1143.4041651089988,167.7335609840938L1166.2722484111785,140.30671283863828L1189.1403317133586,122.67536067023318L1212.0084150155385,154.02013691136605L1234.8764983177186,126.59373925781526" fill="none"></path></g></g></g></g></g><g><g><span fill="rgb(0, 0, 0)" stroke="none" stroke-width="1px">Alt + Scroll to Zoom</span></g></g></g><g transform="translate(61, 377)" clip-path="url(#clip_1)"><clipPath id="clip_1"><rect width="1372" height="22"></rect></clipPath><g><g><line x1="0" y1="0" x2="0" y2="5" style="visibility: inherit;" fill="rgb(0, 0, 0)" stroke="rgb(204, 204, 204)" stroke-width="1px"></line><line x1="114.34041651089986" y1="0" x2="114.34041651089986" y2="5" style="visibility: inherit;" fill="rgb(0, 0, 0)" stroke="rgb(204, 204, 204)" stroke-width="1px"></line><line x1="228.6808330217997" y1="0" x2="228.6808330217997" y2="5" style="visibility: inherit;" fill="rgb(0, 0, 0)" stroke="rgb(204, 204, 204)" stroke-width="1px"></line><line x1="343.0212495326996" y1="0" x2="343.0212495326996" y2="5" style="visibility: inherit;" fill="rgb(0, 0, 0)" stroke="rgb(204, 204, 204)" stroke-width="1px"></line><line x1="457.3616660435994" y1="0" x2="457.3616660435994" y2="5" style="visibility: inherit;" fill="rgb(0, 0, 0)" stroke="rgb(204, 204, 204)" stroke-width="1px"></line><line x1="571.7020825544994" y1="0" x2="571.7020825544994" y2="5" style="visibility: inherit;" fill="rgb(0, 0, 0)" stroke="rgb(204, 204, 204)" stroke-width="1px"></line><line x1="686.0424990653992" y1="0" x2="686.0424990653992" y2="5" style="visibility: inherit;" fill="rgb(0, 0, 0)" stroke="rgb(204, 204, 204)" stroke-width="1px"></line><line x1="800.3829155762991" y1="0" x2="800.3829155762991" y2="5" style="visibility: inherit;" fill="rgb(0, 0, 0)" stroke="rgb(204, 204, 204)" stroke-width="1px"></line><line x1="914.7233320871989" y1="0" x2="914.7233320871989" y2="5" style="visibility: inherit;" fill="rgb(0, 0, 0)" stroke="rgb(204, 204, 204)" stroke-width="1px"></line><line x1="1029.0637485980988" y1="0" x2="1029.0637485980988" y2="5" style="visibility: inherit;" fill="rgb(0, 0, 0)" stroke="rgb(204, 204, 204)" stroke-width="1px"></line><line x1="1143.4041651089988" y1="0" x2="1143.4041651089988" y2="5" style="visibility: inherit;" fill="rgb(0, 0, 0)" stroke="rgb(204, 204, 204)" stroke-width="1px"></line><line x1="1257.7445816198983" y1="0" x2="1257.7445816198983" y2="5" style="visibility: inherit;" fill="rgb(0, 0, 0)" stroke="rgb(204, 204, 204)" stroke-width="1px"></line><line x1="1372.0849981307983" y1="0" x2="1372.0849981307983" y2="5" style="visibility: inherit;" fill="rgb(0, 0, 0)" stroke="rgb(204, 204, 204)" stroke-width="1px"></line></g><g transform="translate(0, 8)"><text style="text-anchor: middle; visibility: hidden; font-family: Roboto, sans-serif; font-size: 12px; font-weight: 200;" x="0" y="0" dx="0em" dy="0.95em" fill="rgb(50, 49, 63)" stroke="none" stroke-width="1px">-5</text><text style="text-anchor: middle; visibility: inherit; font-family: Roboto, sans-serif; font-size: 12px; font-weight: 200;" x="114.34041651089986" y="0" dx="0em" dy="0.95em" fill="rgb(50, 49, 63)" stroke="none" stroke-width="1px">0</text><text style="text-anchor: middle; visibility: inherit; font-family: Roboto, sans-serif; font-size: 12px; font-weight: 200;" x="228.6808330217997" y="0" dx="0em" dy="0.95em" fill="rgb(50, 49, 63)" stroke="none" stroke-width="1px">5</text><text style="text-anchor: middle; visibility: inherit; font-family: Roboto, sans-serif; font-size: 12px; font-weight: 200;" x="343.0212495326996" y="0" dx="0em" dy="0.95em" fill="rgb(50, 49, 63)" stroke="none" stroke-width="1px">10</text><text style="text-anchor: middle; visibility: inherit; font-family: Roboto, sans-serif; font-size: 12px; font-weight: 200;" x="457.3616660435994" y="0" dx="0em" dy="0.95em" fill="rgb(50, 49, 63)" stroke="none" stroke-width="1px">15</text><text style="text-anchor: middle; visibility: inherit; font-family: Roboto, sans-serif; font-size: 12px; font-weight: 200;" x="571.7020825544994" y="0" dx="0em" dy="0.95em" fill="rgb(50, 49, 63)" stroke="none" stroke-width="1px">20</text><text style="text-anchor: middle; visibility: inherit; font-family: Roboto, sans-serif; font-size: 12px; font-weight: 200;" x="686.0424990653992" y="0" dx="0em" dy="0.95em" fill="rgb(50, 49, 63)" stroke="none" stroke-width="1px">25</text><text style="text-anchor: middle; visibility: inherit; font-family: Roboto, sans-serif; font-size: 12px; font-weight: 200;" x="800.3829155762991" y="0" dx="0em" dy="0.95em" fill="rgb(50, 49, 63)" stroke="none" stroke-width="1px">30</text><text style="text-anchor: middle; visibility: inherit; font-family: Roboto, sans-serif; font-size: 12px; font-weight: 200;" x="914.7233320871989" y="0" dx="0em" dy="0.95em" fill="rgb(50, 49, 63)" stroke="none" stroke-width="1px">35</text><text style="text-anchor: middle; visibility: inherit; font-family: Roboto, sans-serif; font-size: 12px; font-weight: 200;" x="1029.0637485980988" y="0" dx="0em" dy="0.95em" fill="rgb(50, 49, 63)" stroke="none" stroke-width="1px">40</text><text style="text-anchor: middle; visibility: inherit; font-family: Roboto, sans-serif; font-size: 12px; font-weight: 200;" x="1143.4041651089988" y="0" dx="0em" dy="0.95em" fill="rgb(50, 49, 63)" stroke="none" stroke-width="1px">45</text><text style="text-anchor: middle; visibility: inherit; font-family: Roboto, sans-serif; font-size: 12px; font-weight: 200;" x="1257.7445816198983" y="0" dx="0em" dy="0.95em" fill="rgb(50, 49, 63)" stroke="none" stroke-width="1px">50</text><text style="text-anchor: middle; visibility: hidden; font-family: Roboto, sans-serif; font-size: 12px; font-weight: 200;" x="1372.0849981307983" y="0" dx="0em" dy="0.95em" fill="rgb(50, 49, 63)" stroke="none" stroke-width="1px">55</text></g><line x1="0" y1="0" x2="1372.0849981307983" y2="0" fill="rgb(0, 0, 0)" stroke="rgb(204, 204, 204)" stroke-width="1px"></line></g></g></g></g></svg>