<svg viewBox="0 0 1434 400" xmlns="http://www.w3.org/2000/svg"><g><g><g><g><g><line x1="51.53200149536133" y1="377.8999996185303" x2="46.53200149536133" y2="377.8999996185303" style="visibility: inherit;" fill="rgb(0, 0, 0)" stroke="rgb(204, 204, 204)" stroke-width="1px"></line><line x1="51.53200149536133" y1="330.66249966621405" x2="46.53200149536133" y2="330.66249966621405" style="visibility: inherit;" fill="rgb(0, 0, 0)" stroke="rgb(204, 204, 204)" stroke-width="1px"></line><line x1="51.53200149536133" y1="283.4249997138977" x2="46.53200149536133" y2="283.4249997138977" style="visibility: inherit;" fill="rgb(0, 0, 0)" stroke="rgb(204, 204, 204)" stroke-width="1px"></line><line x1="51.53200149536133" y1="236.18749976158134" x2="46.53200149536133" y2="236.18749976158134" style="visibility: inherit;" fill="rgb(0, 0, 0)" stroke="rgb(204, 204, 204)" stroke-width="1px"></line><line x1="51.53200149536133" y1="188.94999980926517" x2="46.53200149536133" y2="188.94999980926517" style="visibility: inherit;" fill="rgb(0, 0, 0)" stroke="rgb(204, 204, 204)" stroke-width="1px"></line><line x1="51.53200149536133" y1="141.71249985694885" x2="46.53200149536133" y2="141.71249985694885" style="visibility: inherit;" fill="rgb(0, 0, 0)" stroke="rgb(204, 204, 204)" stroke-width="1px"></line><line x1="51.53200149536133" y1="94.47499990463253" x2="46.53200149536133" y2="94.47499990463253" style="visibility: inherit;" fill="rgb(0, 0, 0)" stroke="rgb(204, 204, 204)" stroke-width="1px"></line><line x1="51.53200149536133" y1="47.23749995231633" x2="46.53200149536133" y2="47.23749995231633" style="visibility: inherit;" fill="rgb(0, 0, 0)" stroke="rgb(204, 204, 204)" stroke-width="1px"></line><line x1="51.53200149536133" y1="0" x2="46.53200149536133" y2="0" style="visibility: inherit;" fill="rgb(0, 0, 0)" stroke="rgb(204, 204, 204)" stroke-width="1px"></line></g><g transform="translate(41.53200149536133, 0)"><text style="text-anchor: end; visibility: hidden; font-family: Roboto, sans-serif; font-size: 12px; font-weight: 200;" x="0" y="377.8999996185303" dx="0em" dy="0.3em" fill="rgb(50, 49, 63)" stroke="none" stroke-width="1px">0.22</text><text style="text-anchor: end; visibility: inherit; font-family: Roboto, sans-serif; font-size: 12px; font-weight: 200;" x="0" y="330.66249966621405" dx="0em" dy="0.3em" fill="rgb(50, 49, 63)" stroke="none" stroke-width="1px">0.24</text><text style="text-anchor: end; visibility: inherit; font-family: Roboto, sans-serif; font-size: 12px; font-weight: 200;" x="0" y="283.4249997138977" dx="0em" dy="0.3em" fill="rgb(50, 49, 63)" stroke="none" stroke-width="1px">0.26</text><text style="text-anchor: end; visibility: inherit; font-family: Roboto, sans-serif; font-size: 12px; font-weight: 200;" x="0" y="236.18749976158134" dx="0em" dy="0.3em" fill="rgb(50, 49, 63)" stroke="none" stroke-width="1px">0.28</text><text style="text-anchor: end; visibility: inherit; font-family: Roboto, sans-serif; font-size: 12px; font-weight: 200;" x="0" y="188.94999980926517" dx="0em" dy="0.3em" fill="rgb(50, 49, 63)" stroke="none" stroke-width="1px">0.3</text><text style="text-anchor: end; visibility: inherit; font-family: Roboto, sans-serif; font-size: 12px; font-weight: 200;" x="0" y="141.71249985694885" dx="0em" dy="0.3em" fill="rgb(50, 49, 63)" stroke="none" stroke-width="1px">0.32</text><text style="text-anchor: end; visibility: inherit; font-family: Roboto, sans-serif; font-size: 12px; font-weight: 200;" x="0" y="94.47499990463253" dx="0em" dy="0.3em" fill="rgb(50, 49, 63)" stroke="none" stroke-width="1px">0.34</text><text style="text-anchor: end; visibility: inherit; font-family: Roboto, sans-serif; font-size: 12px; font-weight: 200;" x="0" y="47.23749995231633" dx="0em" dy="0.3em" fill="rgb(50, 49, 63)" stroke="none" stroke-width="1px">0.36</text><text style="text-anchor: end; visibility: hidden; font-family: Roboto, sans-serif; font-size: 12px; font-weight: 200;" x="0" y="0" dx="0em" dy="0.3em" fill="rgb(50, 49, 63)" stroke="none" stroke-width="1px">0.38</text></g><line x1="51.53200149536133" y1="0" x2="51.53200149536133" y2="377.8999996185303" fill="rgb(0, 0, 0)" stroke="rgb(204, 204, 204)" stroke-width="1px"></line></g></g><g transform="translate(51, 0)" clip-path="url(#clip_0)"><clipPath id="clip_0"><rect width="1382" height="377"></rect></clipPath><g><g><g><line x1="0" y1="0" x2="0" y2="377.8999996185303" fill="rgb(0, 0, 0)" stroke="rgb(60, 60, 60)" stroke-width="1px" opacity="0.25"></line><line x1="115.20566654205322" y1="0" x2="115.20566654205322" y2="377.8999996185303" fill="rgb(0, 0, 0)" stroke="rgb(60, 60, 60)" stroke-width="1px" opacity="0.25"></line><line x1="230.41133308410645" y1="0" x2="230.41133308410645" y2="377.8999996185303" fill="rgb(0, 0, 0)" stroke="rgb(60, 60, 60)" stroke-width="1px" opacity="0.25"></line><line x1="345.61699962615967" y1="0" x2="345.61699962615967" y2="377.8999996185303" fill="rgb(0, 0, 0)" stroke="rgb(60, 60, 60)" stroke-width="1px" opacity="0.25"></line><line x1="460.8226661682129" y1="0" x2="460.8226661682129" y2="377.8999996185303" fill="rgb(0, 0, 0)" stroke="rgb(60, 60, 60)" stroke-width="1px" opacity="0.25"></line><line x1="576.0283327102661" y1="0" x2="576.0283327102661" y2="377.8999996185303" fill="rgb(0, 0, 0)" stroke="rgb(60, 60, 60)" stroke-width="1px" opacity="0.25"></line><line x1="691.2339992523193" y1="0" x2="691.2339992523193" y2="377.8999996185303" fill="rgb(0, 0, 0)" stroke="rgb(60, 60, 60)" stroke-width="1px" opacity="0.25"></line><line x1="806.4396657943726" y1="0" x2="806.4396657943726" y2="377.8999996185303" fill="rgb(0, 0, 0)" stroke="rgb(60, 60, 60)" stroke-width="1px" opacity="0.25"></line><line x1="921.6453323364258" y1="0" x2="921.6453323364258" y2="377.8999996185303" fill="rgb(0, 0, 0)" stroke="rgb(60, 60, 60)" stroke-width="1px" opacity="0.25"></line><line x1="1036.850998878479" y1="0" x2="1036.850998878479" y2="377.8999996185303" fill="rgb(0, 0, 0)" stroke="rgb(60, 60, 60)" stroke-width="1px" opacity="0.25"></line><line x1="1152.0566654205322" y1="0" x2="1152.0566654205322" y2="377.8999996185303" fill="rgb(0, 0, 0)" stroke="rgb(60, 60, 60)" stroke-width="1px" opacity="0.25"></line><line x1="1267.2623319625854" y1="0" x2="1267.2623319625854" y2="377.8999996185303" fill="rgb(0, 0, 0)" stroke="rgb(60, 60, 60)" stroke-width="1px" opacity="0.25"></line><line x1="1382.4679985046387" y1="0" x2="1382.4679985046387" y2="377.8999996185303" fill="rgb(0, 0, 0)" stroke="rgb(60, 60, 60)" stroke-width="1px" opacity="0.25"></line></g><g><line x1="0" y1="377.8999996185303" x2="1382.4679985046387" y2="377.8999996185303" fill="rgb(0, 0, 0)" stroke="rgb(60, 60, 60)" stroke-width="1px" opacity="0.25"></line><line x1="0" y1="330.66249966621405" x2="1382.4679985046387" y2="330.66249966621405" fill="rgb(0, 0, 0)" stroke="rgb(60, 60, 60)" stroke-width="1px" opacity="0.25"></line><line x1="0" y1="283.4249997138977" x2="1382.4679985046387" y2="283.4249997138977" fill="rgb(0, 0, 0)" stroke="rgb(60, 60, 60)" stroke-width="1px" opacity="0.25"></line><line x1="0" y1="236.18749976158134" x2="1382.4679985046387" y2="236.18749976158134" fill="rgb(0, 0, 0)" stroke="rgb(60, 60, 60)" stroke-width="1px" opacity="0.25"></line><line x1="0" y1="188.94999980926517" x2="1382.4679985046387" y2="188.94999980926517" fill="rgb(0, 0, 0)" stroke="rgb(60, 60, 60)" stroke-width="1px" opacity="0.25"></line><line x1="0" y1="141.71249985694885" x2="1382.4679985046387" y2="141.71249985694885" fill="rgb(0, 0, 0)" stroke="rgb(60, 60, 60)" stroke-width="1px" opacity="0.25"></line><line x1="0" y1="94.47499990463253" x2="1382.4679985046387" y2="94.47499990463253" fill="rgb(0, 0, 0)" stroke="rgb(60, 60, 60)" stroke-width="1px" opacity="0.25"></line><line x1="0" y1="47.23749995231633" x2="1382.4679985046387" y2="47.23749995231633" fill="rgb(0, 0, 0)" stroke="rgb(60, 60, 60)" stroke-width="1px" opacity="0.25"></line><line x1="0" y1="0" x2="1382.4679985046387" y2="0" fill="rgb(0, 0, 0)" stroke="rgb(60, 60, 60)" stroke-width="1px" opacity="0.25"></line></g></g></g><g><g><line x1="0" y1="897.5124990940094" x2="1382.4679985046387" y2="897.5124990940094" fill="rgb(0, 0, 0)" stroke="rgb(153, 153, 153)" stroke-width="1.5px"></line></g></g><g><g><line x1="115.20566654205322" y1="0" x2="115.20566654205322" y2="377.8999996185303" fill="rgb(0, 0, 0)" stroke="rgb(153, 153, 153)" stroke-width="1.5px"></line></g></g><g><g><g><g><g><path style="fill: none;" stroke="rgb(51, 187, 238)" stroke-width="2px" d="M115.20566654205322,269.2437482448023L138.24679985046387,284.2932749955532L161.28793315887452,287.1110314704522L184.32906646728514,274.83681641044893L207.3701997756958,281.4018912499704L230.41133308410645,257.4236149469227L253.45246639251707,275.92721798804286L276.49359970092775,273.0824319988584L299.53473300933837,273.38088288576034L322.57586631774905,264.59896553867054L345.61699962615967,266.7602004517454L368.6581329345703,271.05662621465126L391.69926624298097,262.42717222157796L414.7403995513916,269.3245552302182L437.7815328598022,276.7077656023956L460.8226661682129,260.0588518110348L483.8637994766235,256.01948799128127L506.90493278503413,237.98876067143647L529.9460660934449,245.0482503764294L552.9871994018555,242.38499854699023L576.0283327102661,227.61463599846883L599.0694660186767,223.3364410798336L622.1105993270875,230.46301184501937L645.1517326354981,225.09518963175154L668.1928659439087,220.55718758491935L691.2339992523193,217.00160983725942L714.2751325607301,210.74223598873218L737.3162658691406,200.05065530163066L760.3573991775513,193.16763172245453L783.3985324859619,183.40209345707046L806.4396657943726,192.8268064407613L829.4807991027832,189.35752604860653L852.5219324111939,193.07485854581847L875.5630657196044,151.96310809635514L898.6041990280152,168.00216847165024L921.6453323364258,176.79605200996014L944.6864656448364,168.38015933548598L967.727598953247,141.62889419057464L990.7687322616578,141.5176086122275L1013.8098655700683,137.64182966538903L1036.850998878479,118.53921316966151L1059.8921321868897,150.81104543929754L1082.9332654953002,110.60499488647743L1105.974398803711,134.2185839147517L1129.0155321121215,97.1198012749975L1152.0566654205322,88.40714705826421L1175.0977987289427,70.46229475776386L1198.1389320373535,55.456620578366724L1221.1800653457642,82.87264284023607L1244.221198654175,74.61167714738245" fill="none"></path></g><g><path style="fill: none;" stroke="rgb(0, 119, 187)" stroke-width="2px" d="M115.20566654205322,276.4514779422046L138.24679985046387,297.78761922384854L161.28793315887452,297.73257474423593L184.32906646728514,296.70249684826354L207.3701997756958,305.07341072162205L230.41133308410645,284.6750668848353L253.45246639251707,288.7417417763148L276.49359970092775,285.2386041019431L299.53473300933837,267.6577351826149L322.57586631774905,282.90519681401867L345.61699962615967,271.99949169343705L368.6581329345703,273.2199728085297L391.69926624298097,259.66079997956535L414.7403995513916,273.9233736841927L437.7815328598022,235.1662177200494L460.8226661682129,277.7705745508231L483.8637994766235,243.17772352064344L506.90493278503413,298.24416461357634L529.9460660934449,266.7490789328467L552.9871994018555,258.2183108226593L576.0283327102661,265.67859754416634L599.0694660186767,257.7610615393303L622.1105993270875,266.4202902317337L645.1517326354981,249.3272195780259L668.1928659439087,246.27408108289103L691.2339992523193,235.70525943983597L714.2751325607301,254.19781135141747L737.3162658691406,250.70579519594446L760.3573991775513,221.9913707973314L783.3985324859619,241.37920498025863L806.4396657943726,234.30922726060805L829.4807991027832,231.70306120222492L852.5219324111939,202.22540497184823L875.5630657196044,208.02098332655547L898.6041990280152,203.5983494409573L921.6453323364258,208.6957357326503L944.6864656448364,217.23987782126017L967.727598953247,197.03172603551332L990.7687322616578,197.62651612851363L1013.8098655700683,200.2427478653937L1036.850998878479,211.4628822576242L1059.8921321868897,199.05893960692276L1082.9332654953002,222.1881090588623L1105.974398803711,189.8184355786617L1129.0155321121215,162.0522966395635L1152.0566654205322,160.11201392790028L1175.0977987289427,146.00676044313752L1198.1389320373535,173.0431024965283L1221.1800653457642,167.6343840650317L1244.221198654175,160.38575814940066" fill="none"></path></g><g><path style="fill: none;" stroke="rgb(187, 187, 187)" stroke-width="2px" d="M115.20566654205322,278.0879601755969L138.24679985046387,271.99379015526745L161.28793315887452,260.3031028906456L184.32906646728514,274.24723513009735L207.3701997756958,288.7053504771336L230.41133308410645,283.8985314640093L253.45246639251707,280.7484668199914L276.49359970092775,296.4251627693971L299.53473300933837,266.11487079818005L322.57586631774905,269.67087088200066L345.61699962615967,269.7536487694999L368.6581329345703,283.8486957970455L391.69926624298097,268.643608560433L414.7403995513916,281.80592617704986L437.7815328598022,267.46156003596496L460.8226661682129,287.81527701843663L483.8637994766235,288.23198203033746L506.90493278503413,288.0636106809343L529.9460660934449,263.0665187795332L552.9871994018555,240.91034145251007L576.0283327102661,254.0199374383983L599.0694660186767,253.7389431128057L622.1105993270875,272.27823355950585L645.1517326354981,262.3603727188256L668.1928659439087,267.8555292845476L691.2339992523193,266.0277287703535L714.2751325607301,270.92211214746504L737.3162658691406,265.29124489543483L760.3573991775513,258.86737111231093L783.3985324859619,252.71562259540468L806.4396657943726,240.79229849559155L829.4807991027832,245.46580006065165L852.5219324111939,267.0756151744359L875.5630657196044,260.19245081653946L898.6041990280152,232.97957224797182L921.6453323364258,257.0657554400809L944.6864656448364,235.8967888887181L967.727598953247,243.89287941944622L990.7687322616578,228.36963227509864L1013.8098655700683,259.94003457115497L1036.850998878479,247.63639675862223L1059.8921321868897,229.56139453126298L1082.9332654953002,225.2662357768392L1105.974398803711,249.7004943547337L1129.0155321121215,244.85503158290442L1152.0566654205322,241.35977751686596L1175.0977987289427,224.03118406420205L1198.1389320373535,236.66248434808585L1221.1800653457642,215.30473353288556L1244.221198654175,225.42799052639126" fill="none"></path></g><g><path style="fill: none;" stroke="rgb(0, 153, 136)" stroke-width="2px" d="M115.20566654205322,282.3051275190095L138.24679985046387,282.52537582681987L161.28793315887452,267.0899042145399L184.32906646728514,278.2033283368309L207.3701997756958,281.27863948040306L230.41133308410645,269.7651926245593L253.45246639251707,248.13742822394488L276.49359970092775,286.94533491673354L299.53473300933837,278.48192942417944L322.57586631774905,260.0403394093237L345.61699962615967,289.09221040034424L368.6581329345703,304.3654345375513L391.69926624298097,276.1471143490527L414.7403995513916,270.4980866421119L437.7815328598022,279.5183423625625L460.8226661682129,293.5933988118345L483.8637994766235,283.39468442428193L506.90493278503413,276.6677844458484L529.9460660934449,260.41016510738564L552.9871994018555,277.8439202640664L576.0283327102661,241.57291649930443L599.0694660186767,287.4747332941839L622.1105993270875,280.15445100995237L645.1517326354981,289.3194976441665L668.1928659439087,267.8665804140861L691.2339992523193,282.2773941111228L714.2751325607301,280.6561863688762L737.3162658691406,277.72538458162705L760.3573991775513,289.5572729026464L783.3985324859619,283.80561750865303L806.4396657943726,269.5101719728504L829.4807991027832,260.29303721214865L852.5219324111939,273.05279807824854L875.5630657196044,277.90304732656585L898.6041990280152,280.58389649603464L921.6453323364258,262.36178050602797L944.6864656448364,285.0406692212902L967.727598953247,299.7290281652737L990.7687322616578,290.74713464608755L1013.8098655700683,273.5891650023506L1036.850998878479,269.93764655684936L1059.8921321868897,282.2048226808408L1082.9332654953002,261.3367002546239L1105.974398803711,251.18944048931786L1129.0155321121215,276.6370946848367L1152.0566654205322,239.61475489017113L1175.0977987289427,273.15366603129814L1198.1389320373535,281.33910394074474L1221.1800653457642,249.45793261976576L1244.221198654175,265.5358479218462" fill="none"></path></g></g></g></g></g><g><g opacity="0.0896842"><span fill="rgb(0, 0, 0)" stroke="none" stroke-width="1px">Alt + Scroll to Zoom</span></g></g></g><g transform="translate(51, 377)" clip-path="url(#clip_1)"><clipPath id="clip_1"><rect width="1382" height="22"></rect></clipPath><g><g><line x1="0" y1="0" x2="0" y2="5" style="visibility: inherit;" fill="rgb(0, 0, 0)" stroke="rgb(204, 204, 204)" stroke-width="1px"></line><line x1="115.20566654205322" y1="0" x2="115.20566654205322" y2="5" style="visibility: inherit;" fill="rgb(0, 0, 0)" stroke="rgb(204, 204, 204)" stroke-width="1px"></line><line x1="230.41133308410645" y1="0" x2="230.41133308410645" y2="5" style="visibility: inherit;" fill="rgb(0, 0, 0)" stroke="rgb(204, 204, 204)" stroke-width="1px"></line><line x1="345.61699962615967" y1="0" x2="345.61699962615967" y2="5" style="visibility: inherit;" fill="rgb(0, 0, 0)" stroke="rgb(204, 204, 204)" stroke-width="1px"></line><line x1="460.8226661682129" y1="0" x2="460.8226661682129" y2="5" style="visibility: inherit;" fill="rgb(0, 0, 0)" stroke="rgb(204, 204, 204)" stroke-width="1px"></line><line x1="576.0283327102661" y1="0" x2="576.0283327102661" y2="5" style="visibility: inherit;" fill="rgb(0, 0, 0)" stroke="rgb(204, 204, 204)" stroke-width="1px"></line><line x1="691.2339992523193" y1="0" x2="691.2339992523193" y2="5" style="visibility: inherit;" fill="rgb(0, 0, 0)" stroke="rgb(204, 204, 204)" stroke-width="1px"></line><line x1="806.4396657943726" y1="0" x2="806.4396657943726" y2="5" style="visibility: inherit;" fill="rgb(0, 0, 0)" stroke="rgb(204, 204, 204)" stroke-width="1px"></line><line x1="921.6453323364258" y1="0" x2="921.6453323364258" y2="5" style="visibility: inherit;" fill="rgb(0, 0, 0)" stroke="rgb(204, 204, 204)" stroke-width="1px"></line><line x1="1036.850998878479" y1="0" x2="1036.850998878479" y2="5" style="visibility: inherit;" fill="rgb(0, 0, 0)" stroke="rgb(204, 204, 204)" stroke-width="1px"></line><line x1="1152.0566654205322" y1="0" x2="1152.0566654205322" y2="5" style="visibility: inherit;" fill="rgb(0, 0, 0)" stroke="rgb(204, 204, 204)" stroke-width="1px"></line><line x1="1267.2623319625854" y1="0" x2="1267.2623319625854" y2="5" style="visibility: inherit;" fill="rgb(0, 0, 0)" stroke="rgb(204, 204, 204)" stroke-width="1px"></line><line x1="1382.4679985046387" y1="0" x2="1382.4679985046387" y2="5" style="visibility: inherit;" fill="rgb(0, 0, 0)" stroke="rgb(204, 204, 204)" stroke-width="1px"></line></g><g transform="translate(0, 8)"><text style="text-anchor: middle; visibility: hidden; font-family: Roboto, sans-serif; font-size: 12px; font-weight: 200;" x="0" y="0" dx="0em" dy="0.95em" fill="rgb(50, 49, 63)" stroke="none" stroke-width="1px">-5</text><text style="text-anchor: middle; visibility: inherit; font-family: Roboto, sans-serif; font-size: 12px; font-weight: 200;" x="115.20566654205322" y="0" dx="0em" dy="0.95em" fill="rgb(50, 49, 63)" stroke="none" stroke-width="1px">0</text><text style="text-anchor: middle; visibility: inherit; font-family: Roboto, sans-serif; font-size: 12px; font-weight: 200;" x="230.41133308410645" y="0" dx="0em" dy="0.95em" fill="rgb(50, 49, 63)" stroke="none" stroke-width="1px">5</text><text style="text-anchor: middle; visibility: inherit; font-family: Roboto, sans-serif; font-size: 12px; font-weight: 200;" x="345.61699962615967" y="0" dx="0em" dy="0.95em" fill="rgb(50, 49, 63)" stroke="none" stroke-width="1px">10</text><text style="text-anchor: middle; visibility: inherit; font-family: Roboto, sans-serif; font-size: 12px; font-weight: 200;" x="460.8226661682129" y="0" dx="0em" dy="0.95em" fill="rgb(50, 49, 63)" stroke="none" stroke-width="1px">15</text><text style="text-anchor: middle; visibility: inherit; font-family: Roboto, sans-serif; font-size: 12px; font-weight: 200;" x="576.0283327102661" y="0" dx="0em" dy="0.95em" fill="rgb(50, 49, 63)" stroke="none" stroke-width="1px">20</text><text style="text-anchor: middle; visibility: inherit; font-family: Roboto, sans-serif; font-size: 12px; font-weight: 200;" x="691.2339992523193" y="0" dx="0em" dy="0.95em" fill="rgb(50, 49, 63)" stroke="none" stroke-width="1px">25</text><text style="text-anchor: middle; visibility: inherit; font-family: Roboto, sans-serif; font-size: 12px; font-weight: 200;" x="806.4396657943726" y="0" dx="0em" dy="0.95em" fill="rgb(50, 49, 63)" stroke="none" stroke-width="1px">30</text><text style="text-anchor: middle; visibility: inherit; font-family: Roboto, sans-serif; font-size: 12px; font-weight: 200;" x="921.6453323364258" y="0" dx="0em" dy="0.95em" fill="rgb(50, 49, 63)" stroke="none" stroke-width="1px">35</text><text style="text-anchor: middle; visibility: inherit; font-family: Roboto, sans-serif; font-size: 12px; font-weight: 200;" x="1036.850998878479" y="0" dx="0em" dy="0.95em" fill="rgb(50, 49, 63)" stroke="none" stroke-width="1px">40</text><text style="text-anchor: middle; visibility: inherit; font-family: Roboto, sans-serif; font-size: 12px; font-weight: 200;" x="1152.0566654205322" y="0" dx="0em" dy="0.95em" fill="rgb(50, 49, 63)" stroke="none" stroke-width="1px">45</text><text style="text-anchor: middle; visibility: inherit; font-family: Roboto, sans-serif; font-size: 12px; font-weight: 200;" x="1267.2623319625854" y="0" dx="0em" dy="0.95em" fill="rgb(50, 49, 63)" stroke="none" stroke-width="1px">50</text><text style="text-anchor: middle; visibility: hidden; font-family: Roboto, sans-serif; font-size: 12px; font-weight: 200;" x="1382.4679985046387" y="0" dx="0em" dy="0.95em" fill="rgb(50, 49, 63)" stroke="none" stroke-width="1px">55</text></g><line x1="0" y1="0" x2="1382.4679985046387" y2="0" fill="rgb(0, 0, 0)" stroke="rgb(204, 204, 204)" stroke-width="1px"></line></g></g></g></g></svg>