<svg viewBox="0 0 1434 400" xmlns="http://www.w3.org/2000/svg"><g><g><g><g><g><line x1="61.91500186920166" y1="377.8999996185303" x2="56.91500186920166" y2="377.8999996185303" style="visibility: inherit;" fill="rgb(0, 0, 0)" stroke="rgb(204, 204, 204)" stroke-width="1px"></line><line x1="61.91500186920166" y1="346.4083329836527" x2="56.91500186920166" y2="346.4083329836527" style="visibility: inherit;" fill="rgb(0, 0, 0)" stroke="rgb(204, 204, 204)" stroke-width="1px"></line><line x1="61.91500186920166" y1="314.91666634877527" x2="56.91500186920166" y2="314.91666634877527" style="visibility: inherit;" fill="rgb(0, 0, 0)" stroke="rgb(204, 204, 204)" stroke-width="1px"></line><line x1="61.91500186920166" y1="283.4249997138977" x2="56.91500186920166" y2="283.4249997138977" style="visibility: inherit;" fill="rgb(0, 0, 0)" stroke="rgb(204, 204, 204)" stroke-width="1px"></line><line x1="61.91500186920166" y1="251.9333330790202" x2="56.91500186920166" y2="251.9333330790202" style="visibility: inherit;" fill="rgb(0, 0, 0)" stroke="rgb(204, 204, 204)" stroke-width="1px"></line><line x1="61.91500186920166" y1="220.44166644414264" x2="56.91500186920166" y2="220.44166644414264" style="visibility: inherit;" fill="rgb(0, 0, 0)" stroke="rgb(204, 204, 204)" stroke-width="1px"></line><line x1="61.91500186920166" y1="188.94999980926514" x2="56.91500186920166" y2="188.94999980926514" style="visibility: inherit;" fill="rgb(0, 0, 0)" stroke="rgb(204, 204, 204)" stroke-width="1px"></line><line x1="61.91500186920166" y1="157.4583331743876" x2="56.91500186920166" y2="157.4583331743876" style="visibility: inherit;" fill="rgb(0, 0, 0)" stroke="rgb(204, 204, 204)" stroke-width="1px"></line><line x1="61.91500186920166" y1="125.9666665395101" x2="56.91500186920166" y2="125.9666665395101" style="visibility: inherit;" fill="rgb(0, 0, 0)" stroke="rgb(204, 204, 204)" stroke-width="1px"></line><line x1="61.91500186920166" y1="94.47499990463257" x2="56.91500186920166" y2="94.47499990463257" style="visibility: inherit;" fill="rgb(0, 0, 0)" stroke="rgb(204, 204, 204)" stroke-width="1px"></line><line x1="61.91500186920166" y1="62.98333326975503" x2="56.91500186920166" y2="62.98333326975503" style="visibility: inherit;" fill="rgb(0, 0, 0)" stroke="rgb(204, 204, 204)" stroke-width="1px"></line><line x1="61.91500186920166" y1="31.491666634877536" x2="56.91500186920166" y2="31.491666634877536" style="visibility: inherit;" fill="rgb(0, 0, 0)" stroke="rgb(204, 204, 204)" stroke-width="1px"></line><line x1="61.91500186920166" y1="0" x2="56.91500186920166" y2="0" style="visibility: inherit;" fill="rgb(0, 0, 0)" stroke="rgb(204, 204, 204)" stroke-width="1px"></line></g><g transform="translate(51.91500186920166, 0)"><text style="text-anchor: end; visibility: hidden; font-family: Roboto, sans-serif; font-size: 12px; font-weight: 200;" x="0" y="377.8999996185303" dx="0em" dy="0.3em" fill="rgb(50, 49, 63)" stroke="none" stroke-width="1px">0.864</text><text style="text-anchor: end; visibility: inherit; font-family: Roboto, sans-serif; font-size: 12px; font-weight: 200;" x="0" y="346.4083329836527" dx="0em" dy="0.3em" fill="rgb(50, 49, 63)" stroke="none" stroke-width="1px">0.866</text><text style="text-anchor: end; visibility: inherit; font-family: Roboto, sans-serif; font-size: 12px; font-weight: 200;" x="0" y="314.91666634877527" dx="0em" dy="0.3em" fill="rgb(50, 49, 63)" stroke="none" stroke-width="1px">0.868</text><text style="text-anchor: end; visibility: inherit; font-family: Roboto, sans-serif; font-size: 12px; font-weight: 200;" x="0" y="283.4249997138977" dx="0em" dy="0.3em" fill="rgb(50, 49, 63)" stroke="none" stroke-width="1px">0.87</text><text style="text-anchor: end; visibility: inherit; font-family: Roboto, sans-serif; font-size: 12px; font-weight: 200;" x="0" y="251.9333330790202" dx="0em" dy="0.3em" fill="rgb(50, 49, 63)" stroke="none" stroke-width="1px">0.872</text><text style="text-anchor: end; visibility: inherit; font-family: Roboto, sans-serif; font-size: 12px; font-weight: 200;" x="0" y="220.44166644414264" dx="0em" dy="0.3em" fill="rgb(50, 49, 63)" stroke="none" stroke-width="1px">0.874</text><text style="text-anchor: end; visibility: inherit; font-family: Roboto, sans-serif; font-size: 12px; font-weight: 200;" x="0" y="188.94999980926514" dx="0em" dy="0.3em" fill="rgb(50, 49, 63)" stroke="none" stroke-width="1px">0.876</text><text style="text-anchor: end; visibility: inherit; font-family: Roboto, sans-serif; font-size: 12px; font-weight: 200;" x="0" y="157.4583331743876" dx="0em" dy="0.3em" fill="rgb(50, 49, 63)" stroke="none" stroke-width="1px">0.878</text><text style="text-anchor: end; visibility: inherit; font-family: Roboto, sans-serif; font-size: 12px; font-weight: 200;" x="0" y="125.9666665395101" dx="0em" dy="0.3em" fill="rgb(50, 49, 63)" stroke="none" stroke-width="1px">0.88</text><text style="text-anchor: end; visibility: inherit; font-family: Roboto, sans-serif; font-size: 12px; font-weight: 200;" x="0" y="94.47499990463257" dx="0em" dy="0.3em" fill="rgb(50, 49, 63)" stroke="none" stroke-width="1px">0.882</text><text style="text-anchor: end; visibility: inherit; font-family: Roboto, sans-serif; font-size: 12px; font-weight: 200;" x="0" y="62.98333326975503" dx="0em" dy="0.3em" fill="rgb(50, 49, 63)" stroke="none" stroke-width="1px">0.884</text><text style="text-anchor: end; visibility: inherit; font-family: Roboto, sans-serif; font-size: 12px; font-weight: 200;" x="0" y="31.491666634877536" dx="0em" dy="0.3em" fill="rgb(50, 49, 63)" stroke="none" stroke-width="1px">0.886</text><text style="text-anchor: end; visibility: hidden; font-family: Roboto, sans-serif; font-size: 12px; font-weight: 200;" x="0" y="0" dx="0em" dy="0.3em" fill="rgb(50, 49, 63)" stroke="none" stroke-width="1px">0.888</text></g><line x1="61.91500186920166" y1="0" x2="61.91500186920166" y2="377.8999996185303" fill="rgb(0, 0, 0)" stroke="rgb(204, 204, 204)" stroke-width="1px"></line></g></g><g transform="translate(61, 0)" clip-path="url(#clip_0)"><clipPath id="clip_0"><rect width="1372" height="377"></rect></clipPath><g><g><g><line x1="0" y1="0" x2="0" y2="377.8999996185303" fill="rgb(0, 0, 0)" stroke="rgb(60, 60, 60)" stroke-width="1px" opacity="0.25"></line><line x1="114.34041651089986" y1="0" x2="114.34041651089986" y2="377.8999996185303" fill="rgb(0, 0, 0)" stroke="rgb(60, 60, 60)" stroke-width="1px" opacity="0.25"></line><line x1="228.6808330217997" y1="0" x2="228.6808330217997" y2="377.8999996185303" fill="rgb(0, 0, 0)" stroke="rgb(60, 60, 60)" stroke-width="1px" opacity="0.25"></line><line x1="343.0212495326996" y1="0" x2="343.0212495326996" y2="377.8999996185303" fill="rgb(0, 0, 0)" stroke="rgb(60, 60, 60)" stroke-width="1px" opacity="0.25"></line><line x1="457.3616660435994" y1="0" x2="457.3616660435994" y2="377.8999996185303" fill="rgb(0, 0, 0)" stroke="rgb(60, 60, 60)" stroke-width="1px" opacity="0.25"></line><line x1="571.7020825544994" y1="0" x2="571.7020825544994" y2="377.8999996185303" fill="rgb(0, 0, 0)" stroke="rgb(60, 60, 60)" stroke-width="1px" opacity="0.25"></line><line x1="686.0424990653992" y1="0" x2="686.0424990653992" y2="377.8999996185303" fill="rgb(0, 0, 0)" stroke="rgb(60, 60, 60)" stroke-width="1px" opacity="0.25"></line><line x1="800.3829155762991" y1="0" x2="800.3829155762991" y2="377.8999996185303" fill="rgb(0, 0, 0)" stroke="rgb(60, 60, 60)" stroke-width="1px" opacity="0.25"></line><line x1="914.7233320871989" y1="0" x2="914.7233320871989" y2="377.8999996185303" fill="rgb(0, 0, 0)" stroke="rgb(60, 60, 60)" stroke-width="1px" opacity="0.25"></line><line x1="1029.0637485980988" y1="0" x2="1029.0637485980988" y2="377.8999996185303" fill="rgb(0, 0, 0)" stroke="rgb(60, 60, 60)" stroke-width="1px" opacity="0.25"></line><line x1="1143.4041651089988" y1="0" x2="1143.4041651089988" y2="377.8999996185303" fill="rgb(0, 0, 0)" stroke="rgb(60, 60, 60)" stroke-width="1px" opacity="0.25"></line><line x1="1257.7445816198983" y1="0" x2="1257.7445816198983" y2="377.8999996185303" fill="rgb(0, 0, 0)" stroke="rgb(60, 60, 60)" stroke-width="1px" opacity="0.25"></line><line x1="1372.0849981307983" y1="0" x2="1372.0849981307983" y2="377.8999996185303" fill="rgb(0, 0, 0)" stroke="rgb(60, 60, 60)" stroke-width="1px" opacity="0.25"></line></g><g><line x1="0" y1="377.8999996185303" x2="1372.0849981307983" y2="377.8999996185303" fill="rgb(0, 0, 0)" stroke="rgb(60, 60, 60)" stroke-width="1px" opacity="0.25"></line><line x1="0" y1="346.4083329836527" x2="1372.0849981307983" y2="346.4083329836527" fill="rgb(0, 0, 0)" stroke="rgb(60, 60, 60)" stroke-width="1px" opacity="0.25"></line><line x1="0" y1="314.91666634877527" x2="1372.0849981307983" y2="314.91666634877527" fill="rgb(0, 0, 0)" stroke="rgb(60, 60, 60)" stroke-width="1px" opacity="0.25"></line><line x1="0" y1="283.4249997138977" x2="1372.0849981307983" y2="283.4249997138977" fill="rgb(0, 0, 0)" stroke="rgb(60, 60, 60)" stroke-width="1px" opacity="0.25"></line><line x1="0" y1="251.9333330790202" x2="1372.0849981307983" y2="251.9333330790202" fill="rgb(0, 0, 0)" stroke="rgb(60, 60, 60)" stroke-width="1px" opacity="0.25"></line><line x1="0" y1="220.44166644414264" x2="1372.0849981307983" y2="220.44166644414264" fill="rgb(0, 0, 0)" stroke="rgb(60, 60, 60)" stroke-width="1px" opacity="0.25"></line><line x1="0" y1="188.94999980926514" x2="1372.0849981307983" y2="188.94999980926514" fill="rgb(0, 0, 0)" stroke="rgb(60, 60, 60)" stroke-width="1px" opacity="0.25"></line><line x1="0" y1="157.4583331743876" x2="1372.0849981307983" y2="157.4583331743876" fill="rgb(0, 0, 0)" stroke="rgb(60, 60, 60)" stroke-width="1px" opacity="0.25"></line><line x1="0" y1="125.9666665395101" x2="1372.0849981307983" y2="125.9666665395101" fill="rgb(0, 0, 0)" stroke="rgb(60, 60, 60)" stroke-width="1px" opacity="0.25"></line><line x1="0" y1="94.47499990463257" x2="1372.0849981307983" y2="94.47499990463257" fill="rgb(0, 0, 0)" stroke="rgb(60, 60, 60)" stroke-width="1px" opacity="0.25"></line><line x1="0" y1="62.98333326975503" x2="1372.0849981307983" y2="62.98333326975503" fill="rgb(0, 0, 0)" stroke="rgb(60, 60, 60)" stroke-width="1px" opacity="0.25"></line><line x1="0" y1="31.491666634877536" x2="1372.0849981307983" y2="31.491666634877536" fill="rgb(0, 0, 0)" stroke="rgb(60, 60, 60)" stroke-width="1px" opacity="0.25"></line><line x1="0" y1="0" x2="1372.0849981307983" y2="0" fill="rgb(0, 0, 0)" stroke="rgb(60, 60, 60)" stroke-width="1px" opacity="0.25"></line></g></g></g><g><g><line x1="0" y1="13982.299985885607" x2="1372.0849981307983" y2="13982.299985885607" fill="rgb(0, 0, 0)" stroke="rgb(153, 153, 153)" stroke-width="1.5px"></line></g></g><g><g><line x1="114.34041651089986" y1="0" x2="114.34041651089986" y2="377.8999996185303" fill="rgb(0, 0, 0)" stroke="rgb(153, 153, 153)" stroke-width="1.5px"></line></g></g><g><g><g><g><g><path style="fill: none;" stroke="rgb(204, 51, 17)" stroke-width="2px" d="M114.34041651089986,146.5363896976891L137.20849981307984,220.00129559084522L160.0765831152598,199.59401230532347L182.94466641743978,232.24529015223766L205.81274971961975,68.99077796726992L228.6808330217997,154.69967842181842L251.54891632397968,187.35001774393103L274.4169996261597,211.8380068667159L297.28508292833965,191.4316621059957L320.1531662305196,211.8380068667159L343.0212495326996,207.75730102945278L365.88933283487955,195.5123679432588L388.7574161370595,244.48928471363007L411.6254994392395,162.86202862114618L434.49358274141946,322.03489644404925L457.3616660435994,211.8380068667159L480.2297493457794,195.5123679432588L503.09783264795936,179.18766754460327L525.9659159501394,199.59401230532347L548.8339992523194,191.4316621059957L571.7020825544994,273.057979673678L594.5701658566793,207.75730102945278L617.4382491588593,191.4316621059957L640.3063324610392,171.02437882047394L663.1744157632193,301.6276131585275L686.0424990653992,73.0724223293346L708.9105823675792,183.26837338186635L731.7786656697591,199.59401230532347L754.6467489719391,158.78038425908156L777.514832274119,207.75730102945278L800.3829155762991,207.75730102945278L823.250998878479,191.4316621059957L846.119082180659,171.02437882047394L868.9871654828389,187.35001774393103L891.855248785019,211.8380068667159L914.7233320871989,199.59401230532347L937.5914153893789,146.5363896976891L960.4594986915588,158.78038425908156L983.3275819937388,232.24529015223766L1006.1956652959187,236.32599598950068L1029.0637485980988,252.65163491295783L1051.931831900279,191.4316621059957L1074.7999152024586,228.16364579017298L1097.6679985046387,179.18766754460327L1120.5360818068186,166.94367298321086L1143.4041651089988,215.91965122878054L1166.2722484111785,252.65163491295783L1189.1403317133586,195.5123679432588L1212.0084150155385,199.59401230532347L1234.8764983177186,195.5123679432588" fill="none"></path></g><g><path style="fill: none;" stroke="rgb(238, 51, 119)" stroke-width="2px" d="M114.34041651089986,203.67565666738813L137.20849981307984,187.35001774393103L160.0765831152598,166.94367298321086L182.94466641743978,203.67565666738813L205.81274971961975,224.0820014281083L228.6808330217997,203.67565666738813L251.54891632397968,122.04840057490425L274.4169996261597,220.00129559084522L297.28508292833965,122.04840057490425L320.1531662305196,289.38361859713507L343.0212495326996,215.91965122878054L365.88933283487955,199.59401230532347L388.7574161370595,232.24529015223766L411.6254994392395,199.59401230532347L434.49358274141946,191.4316621059957L457.3616660435994,175.10602318253862L480.2297493457794,195.5123679432588L503.09783264795936,211.8380068667159L525.9659159501394,179.18766754460327L548.8339992523194,191.4316621059957L571.7020825544994,142.45568386042603L594.5701658566793,171.02437882047394L617.4382491588593,207.75730102945278L640.3063324610392,211.8380068667159L663.1744157632193,187.35001774393103L686.0424990653992,220.00129559084522L708.9105823675792,171.02437882047394L731.7786656697591,199.59401230532347L754.6467489719391,183.26837338186635L777.514832274119,195.5123679432588L800.3829155762991,179.18766754460327L823.250998878479,220.00129559084522L846.119082180659,220.00129559084522L868.9871654828389,215.91965122878054L891.855248785019,236.32599598950068L914.7233320871989,228.16364579017298L937.5914153893789,224.0820014281083L960.4594986915588,228.16364579017298L983.3275819937388,203.67565666738813L1006.1956652959187,256.7332792750225L1029.0637485980988,162.86202862114618L1051.931831900279,199.59401230532347L1074.7999152024586,264.89562947435024L1097.6679985046387,236.32599598950068L1120.5360818068186,207.75730102945278L1143.4041651089988,224.0820014281083L1166.2722484111785,232.24529015223766L1189.1403317133586,109.80440601351185L1212.0084150155385,195.5123679432588L1234.8764983177186,228.16364579017298" fill="none"></path></g><g><path style="fill: none;" stroke="rgb(255, 112, 67)" stroke-width="2px" d="M114.34041651089986,232.24529015223766L137.20849981307984,236.32599598950068L160.0765831152598,154.69967842181842L182.94466641743978,256.7332792750225L205.81274971961975,215.91965122878054L228.6808330217997,187.35001774393103L251.54891632397968,240.4076403515654L274.4169996261597,134.2923951362967L297.28508292833965,232.24529015223766L320.1531662305196,203.67565666738813L343.0212495326996,199.59401230532347L365.88933283487955,228.16364579017298L388.7574161370595,162.86202862114618L411.6254994392395,199.59401230532347L434.49358274141946,179.18766754460327L457.3616660435994,293.4652629591998L480.2297493457794,207.75730102945278L503.09783264795936,236.32599598950068L525.9659159501394,191.4316621059957L548.8339992523194,220.00129559084522L571.7020825544994,240.4076403515654L594.5701658566793,171.02437882047394L617.4382491588593,166.94367298321086L640.3063324610392,146.5363896976891L663.1744157632193,207.75730102945278L686.0424990653992,244.48928471363007L708.9105823675792,195.5123679432588L731.7786656697591,162.86202862114618L754.6467489719391,187.35001774393103L777.514832274119,232.24529015223766L800.3829155762991,175.10602318253862L823.250998878479,166.94367298321086L846.119082180659,236.32599598950068L868.9871654828389,228.16364579017298L891.855248785019,199.59401230532347L914.7233320871989,191.4316621059957L937.5914153893789,195.5123679432588L960.4594986915588,158.78038425908156L983.3275819937388,211.8380068667159L1006.1956652959187,203.67565666738813L1029.0637485980988,187.35001774393103L1051.931831900279,248.56999055089315L1074.7999152024586,256.7332792750225L1097.6679985046387,228.16364579017298L1120.5360818068186,228.16364579017298L1143.4041651089988,199.59401230532347L1166.2722484111785,199.59401230532347L1189.1403317133586,146.5363896976891L1212.0084150155385,224.0820014281083L1234.8764983177186,207.75730102945278" fill="none"></path></g><g><path style="fill: none;" stroke="rgb(187, 187, 187)" stroke-width="2px" d="M114.34041651089986,179.18766754460327L137.20849981307984,252.65163491295783L160.0765831152598,187.35001774393103L182.94466641743978,224.0820014281083L205.81274971961975,215.91965122878054L228.6808330217997,215.91965122878054L251.54891632397968,162.86202862114618L274.4169996261597,228.16364579017298L297.28508292833965,203.67565666738813L320.1531662305196,264.89562947435024L343.0212495326996,191.4316621059957L365.88933283487955,191.4316621059957L388.7574161370595,175.10602318253862L411.6254994392395,256.7332792750225L434.49358274141946,252.65163491295783L457.3616660435994,228.16364579017298L480.2297493457794,179.18766754460327L503.09783264795936,183.26837338186635L525.9659159501394,268.9772738364149L548.8339992523194,191.4316621059957L571.7020825544994,232.24529015223766L594.5701658566793,171.02437882047394L617.4382491588593,273.057979673678L640.3063324610392,305.7092575205922L663.1744157632193,191.4316621059957L686.0424990653992,179.18766754460327L708.9105823675792,252.65163491295783L731.7786656697591,285.3019742350704L754.6467489719391,117.96769473764118L777.514832274119,215.91965122878054L800.3829155762991,277.13962403574266L823.250998878479,203.67565666738813L846.119082180659,130.21168929903362L868.9871654828389,260.8139851122856L891.855248785019,207.75730102945278L914.7233320871989,175.10602318253862L937.5914153893789,199.59401230532347L960.4594986915588,228.16364579017298L983.3275819937388,175.10602318253862L1006.1956652959187,150.6180340597538L1029.0637485980988,224.0820014281083L1051.931831900279,187.35001774393103L1074.7999152024586,260.8139851122856L1097.6679985046387,199.59401230532347L1120.5360818068186,240.4076403515654L1143.4041651089988,187.35001774393103L1166.2722484111785,240.4076403515654L1189.1403317133586,211.8380068667159L1212.0084150155385,179.18766754460327L1234.8764983177186,256.7332792750225" fill="none"></path></g></g></g></g></g></g><g transform="translate(61, 377)" clip-path="url(#clip_1)"><clipPath id="clip_1"><rect width="1372" height="22"></rect></clipPath><g><g><line x1="0" y1="0" x2="0" y2="5" style="visibility: inherit;" fill="rgb(0, 0, 0)" stroke="rgb(204, 204, 204)" stroke-width="1px"></line><line x1="114.34041651089986" y1="0" x2="114.34041651089986" y2="5" style="visibility: inherit;" fill="rgb(0, 0, 0)" stroke="rgb(204, 204, 204)" stroke-width="1px"></line><line x1="228.6808330217997" y1="0" x2="228.6808330217997" y2="5" style="visibility: inherit;" fill="rgb(0, 0, 0)" stroke="rgb(204, 204, 204)" stroke-width="1px"></line><line x1="343.0212495326996" y1="0" x2="343.0212495326996" y2="5" style="visibility: inherit;" fill="rgb(0, 0, 0)" stroke="rgb(204, 204, 204)" stroke-width="1px"></line><line x1="457.3616660435994" y1="0" x2="457.3616660435994" y2="5" style="visibility: inherit;" fill="rgb(0, 0, 0)" stroke="rgb(204, 204, 204)" stroke-width="1px"></line><line x1="571.7020825544994" y1="0" x2="571.7020825544994" y2="5" style="visibility: inherit;" fill="rgb(0, 0, 0)" stroke="rgb(204, 204, 204)" stroke-width="1px"></line><line x1="686.0424990653992" y1="0" x2="686.0424990653992" y2="5" style="visibility: inherit;" fill="rgb(0, 0, 0)" stroke="rgb(204, 204, 204)" stroke-width="1px"></line><line x1="800.3829155762991" y1="0" x2="800.3829155762991" y2="5" style="visibility: inherit;" fill="rgb(0, 0, 0)" stroke="rgb(204, 204, 204)" stroke-width="1px"></line><line x1="914.7233320871989" y1="0" x2="914.7233320871989" y2="5" style="visibility: inherit;" fill="rgb(0, 0, 0)" stroke="rgb(204, 204, 204)" stroke-width="1px"></line><line x1="1029.0637485980988" y1="0" x2="1029.0637485980988" y2="5" style="visibility: inherit;" fill="rgb(0, 0, 0)" stroke="rgb(204, 204, 204)" stroke-width="1px"></line><line x1="1143.4041651089988" y1="0" x2="1143.4041651089988" y2="5" style="visibility: inherit;" fill="rgb(0, 0, 0)" stroke="rgb(204, 204, 204)" stroke-width="1px"></line><line x1="1257.7445816198983" y1="0" x2="1257.7445816198983" y2="5" style="visibility: inherit;" fill="rgb(0, 0, 0)" stroke="rgb(204, 204, 204)" stroke-width="1px"></line><line x1="1372.0849981307983" y1="0" x2="1372.0849981307983" y2="5" style="visibility: inherit;" fill="rgb(0, 0, 0)" stroke="rgb(204, 204, 204)" stroke-width="1px"></line></g><g transform="translate(0, 8)"><text style="text-anchor: middle; visibility: hidden; font-family: Roboto, sans-serif; font-size: 12px; font-weight: 200;" x="0" y="0" dx="0em" dy="0.95em" fill="rgb(50, 49, 63)" stroke="none" stroke-width="1px">-5</text><text style="text-anchor: middle; visibility: inherit; font-family: Roboto, sans-serif; font-size: 12px; font-weight: 200;" x="114.34041651089986" y="0" dx="0em" dy="0.95em" fill="rgb(50, 49, 63)" stroke="none" stroke-width="1px">0</text><text style="text-anchor: middle; visibility: inherit; font-family: Roboto, sans-serif; font-size: 12px; font-weight: 200;" x="228.6808330217997" y="0" dx="0em" dy="0.95em" fill="rgb(50, 49, 63)" stroke="none" stroke-width="1px">5</text><text style="text-anchor: middle; visibility: inherit; font-family: Roboto, sans-serif; font-size: 12px; font-weight: 200;" x="343.0212495326996" y="0" dx="0em" dy="0.95em" fill="rgb(50, 49, 63)" stroke="none" stroke-width="1px">10</text><text style="text-anchor: middle; visibility: inherit; font-family: Roboto, sans-serif; font-size: 12px; font-weight: 200;" x="457.3616660435994" y="0" dx="0em" dy="0.95em" fill="rgb(50, 49, 63)" stroke="none" stroke-width="1px">15</text><text style="text-anchor: middle; visibility: inherit; font-family: Roboto, sans-serif; font-size: 12px; font-weight: 200;" x="571.7020825544994" y="0" dx="0em" dy="0.95em" fill="rgb(50, 49, 63)" stroke="none" stroke-width="1px">20</text><text style="text-anchor: middle; visibility: inherit; font-family: Roboto, sans-serif; font-size: 12px; font-weight: 200;" x="686.0424990653992" y="0" dx="0em" dy="0.95em" fill="rgb(50, 49, 63)" stroke="none" stroke-width="1px">25</text><text style="text-anchor: middle; visibility: inherit; font-family: Roboto, sans-serif; font-size: 12px; font-weight: 200;" x="800.3829155762991" y="0" dx="0em" dy="0.95em" fill="rgb(50, 49, 63)" stroke="none" stroke-width="1px">30</text><text style="text-anchor: middle; visibility: inherit; font-family: Roboto, sans-serif; font-size: 12px; font-weight: 200;" x="914.7233320871989" y="0" dx="0em" dy="0.95em" fill="rgb(50, 49, 63)" stroke="none" stroke-width="1px">35</text><text style="text-anchor: middle; visibility: inherit; font-family: Roboto, sans-serif; font-size: 12px; font-weight: 200;" x="1029.0637485980988" y="0" dx="0em" dy="0.95em" fill="rgb(50, 49, 63)" stroke="none" stroke-width="1px">40</text><text style="text-anchor: middle; visibility: inherit; font-family: Roboto, sans-serif; font-size: 12px; font-weight: 200;" x="1143.4041651089988" y="0" dx="0em" dy="0.95em" fill="rgb(50, 49, 63)" stroke="none" stroke-width="1px">45</text><text style="text-anchor: middle; visibility: inherit; font-family: Roboto, sans-serif; font-size: 12px; font-weight: 200;" x="1257.7445816198983" y="0" dx="0em" dy="0.95em" fill="rgb(50, 49, 63)" stroke="none" stroke-width="1px">50</text><text style="text-anchor: middle; visibility: hidden; font-family: Roboto, sans-serif; font-size: 12px; font-weight: 200;" x="1372.0849981307983" y="0" dx="0em" dy="0.95em" fill="rgb(50, 49, 63)" stroke="none" stroke-width="1px">55</text></g><line x1="0" y1="0" x2="1372.0849981307983" y2="0" fill="rgb(0, 0, 0)" stroke="rgb(204, 204, 204)" stroke-width="1px"></line></g></g></g></g></svg>