<svg viewBox="0 0 1434 400" xmlns="http://www.w3.org/2000/svg"><g><g><g><g><g><line x1="61.91500186920166" y1="377.8999996185303" x2="56.91500186920166" y2="377.8999996185303" style="visibility: inherit;" fill="rgb(0, 0, 0)" stroke="rgb(204, 204, 204)" stroke-width="1px"></line><line x1="61.91500186920166" y1="330.66249966621393" x2="56.91500186920166" y2="330.66249966621393" style="visibility: inherit;" fill="rgb(0, 0, 0)" stroke="rgb(204, 204, 204)" stroke-width="1px"></line><line x1="61.91500186920166" y1="283.4249997138976" x2="56.91500186920166" y2="283.4249997138976" style="visibility: inherit;" fill="rgb(0, 0, 0)" stroke="rgb(204, 204, 204)" stroke-width="1px"></line><line x1="61.91500186920166" y1="236.18749976158125" x2="56.91500186920166" y2="236.18749976158125" style="visibility: inherit;" fill="rgb(0, 0, 0)" stroke="rgb(204, 204, 204)" stroke-width="1px"></line><line x1="61.91500186920166" y1="188.94999980926488" x2="56.91500186920166" y2="188.94999980926488" style="visibility: inherit;" fill="rgb(0, 0, 0)" stroke="rgb(204, 204, 204)" stroke-width="1px"></line><line x1="61.91500186920166" y1="141.7124998569485" x2="56.91500186920166" y2="141.7124998569485" style="visibility: inherit;" fill="rgb(0, 0, 0)" stroke="rgb(204, 204, 204)" stroke-width="1px"></line><line x1="61.91500186920166" y1="94.47499990463218" x2="56.91500186920166" y2="94.47499990463218" style="visibility: inherit;" fill="rgb(0, 0, 0)" stroke="rgb(204, 204, 204)" stroke-width="1px"></line><line x1="61.91500186920166" y1="47.23749995231582" x2="56.91500186920166" y2="47.23749995231582" style="visibility: inherit;" fill="rgb(0, 0, 0)" stroke="rgb(204, 204, 204)" stroke-width="1px"></line></g><g transform="translate(51.91500186920166, 0)"><text style="text-anchor: end; visibility: hidden; font-family: Roboto, sans-serif; font-size: 12px; font-weight: 200;" x="0" y="377.8999996185303" dx="0em" dy="0.3em" fill="rgb(50, 49, 63)" stroke="none" stroke-width="1px">0.245</text><text style="text-anchor: end; visibility: inherit; font-family: Roboto, sans-serif; font-size: 12px; font-weight: 200;" x="0" y="330.66249966621393" dx="0em" dy="0.3em" fill="rgb(50, 49, 63)" stroke="none" stroke-width="1px">0.25</text><text style="text-anchor: end; visibility: inherit; font-family: Roboto, sans-serif; font-size: 12px; font-weight: 200;" x="0" y="283.4249997138976" dx="0em" dy="0.3em" fill="rgb(50, 49, 63)" stroke="none" stroke-width="1px">0.255</text><text style="text-anchor: end; visibility: inherit; font-family: Roboto, sans-serif; font-size: 12px; font-weight: 200;" x="0" y="236.18749976158125" dx="0em" dy="0.3em" fill="rgb(50, 49, 63)" stroke="none" stroke-width="1px">0.26</text><text style="text-anchor: end; visibility: inherit; font-family: Roboto, sans-serif; font-size: 12px; font-weight: 200;" x="0" y="188.94999980926488" dx="0em" dy="0.3em" fill="rgb(50, 49, 63)" stroke="none" stroke-width="1px">0.265</text><text style="text-anchor: end; visibility: inherit; font-family: Roboto, sans-serif; font-size: 12px; font-weight: 200;" x="0" y="141.7124998569485" dx="0em" dy="0.3em" fill="rgb(50, 49, 63)" stroke="none" stroke-width="1px">0.27</text><text style="text-anchor: end; visibility: inherit; font-family: Roboto, sans-serif; font-size: 12px; font-weight: 200;" x="0" y="94.47499990463218" dx="0em" dy="0.3em" fill="rgb(50, 49, 63)" stroke="none" stroke-width="1px">0.275</text><text style="text-anchor: end; visibility: inherit; font-family: Roboto, sans-serif; font-size: 12px; font-weight: 200;" x="0" y="47.23749995231582" dx="0em" dy="0.3em" fill="rgb(50, 49, 63)" stroke="none" stroke-width="1px">0.28</text></g><line x1="61.91500186920166" y1="0" x2="61.91500186920166" y2="377.8999996185303" fill="rgb(0, 0, 0)" stroke="rgb(204, 204, 204)" stroke-width="1px"></line></g></g><g transform="translate(61, 0)" clip-path="url(#clip_0)"><clipPath id="clip_0"><rect width="1372" height="377"></rect></clipPath><g><g><g><line x1="0" y1="0" x2="0" y2="377.8999996185303" fill="rgb(0, 0, 0)" stroke="rgb(60, 60, 60)" stroke-width="1px" opacity="0.25"></line><line x1="114.34041651089986" y1="0" x2="114.34041651089986" y2="377.8999996185303" fill="rgb(0, 0, 0)" stroke="rgb(60, 60, 60)" stroke-width="1px" opacity="0.25"></line><line x1="228.6808330217997" y1="0" x2="228.6808330217997" y2="377.8999996185303" fill="rgb(0, 0, 0)" stroke="rgb(60, 60, 60)" stroke-width="1px" opacity="0.25"></line><line x1="343.0212495326996" y1="0" x2="343.0212495326996" y2="377.8999996185303" fill="rgb(0, 0, 0)" stroke="rgb(60, 60, 60)" stroke-width="1px" opacity="0.25"></line><line x1="457.3616660435994" y1="0" x2="457.3616660435994" y2="377.8999996185303" fill="rgb(0, 0, 0)" stroke="rgb(60, 60, 60)" stroke-width="1px" opacity="0.25"></line><line x1="571.7020825544994" y1="0" x2="571.7020825544994" y2="377.8999996185303" fill="rgb(0, 0, 0)" stroke="rgb(60, 60, 60)" stroke-width="1px" opacity="0.25"></line><line x1="686.0424990653992" y1="0" x2="686.0424990653992" y2="377.8999996185303" fill="rgb(0, 0, 0)" stroke="rgb(60, 60, 60)" stroke-width="1px" opacity="0.25"></line><line x1="800.3829155762991" y1="0" x2="800.3829155762991" y2="377.8999996185303" fill="rgb(0, 0, 0)" stroke="rgb(60, 60, 60)" stroke-width="1px" opacity="0.25"></line><line x1="914.7233320871989" y1="0" x2="914.7233320871989" y2="377.8999996185303" fill="rgb(0, 0, 0)" stroke="rgb(60, 60, 60)" stroke-width="1px" opacity="0.25"></line><line x1="1029.0637485980988" y1="0" x2="1029.0637485980988" y2="377.8999996185303" fill="rgb(0, 0, 0)" stroke="rgb(60, 60, 60)" stroke-width="1px" opacity="0.25"></line><line x1="1143.4041651089988" y1="0" x2="1143.4041651089988" y2="377.8999996185303" fill="rgb(0, 0, 0)" stroke="rgb(60, 60, 60)" stroke-width="1px" opacity="0.25"></line><line x1="1257.7445816198983" y1="0" x2="1257.7445816198983" y2="377.8999996185303" fill="rgb(0, 0, 0)" stroke="rgb(60, 60, 60)" stroke-width="1px" opacity="0.25"></line><line x1="1372.0849981307983" y1="0" x2="1372.0849981307983" y2="377.8999996185303" fill="rgb(0, 0, 0)" stroke="rgb(60, 60, 60)" stroke-width="1px" opacity="0.25"></line></g><g><line x1="0" y1="377.8999996185303" x2="1372.0849981307983" y2="377.8999996185303" fill="rgb(0, 0, 0)" stroke="rgb(60, 60, 60)" stroke-width="1px" opacity="0.25"></line><line x1="0" y1="330.66249966621393" x2="1372.0849981307983" y2="330.66249966621393" fill="rgb(0, 0, 0)" stroke="rgb(60, 60, 60)" stroke-width="1px" opacity="0.25"></line><line x1="0" y1="283.4249997138976" x2="1372.0849981307983" y2="283.4249997138976" fill="rgb(0, 0, 0)" stroke="rgb(60, 60, 60)" stroke-width="1px" opacity="0.25"></line><line x1="0" y1="236.18749976158125" x2="1372.0849981307983" y2="236.18749976158125" fill="rgb(0, 0, 0)" stroke="rgb(60, 60, 60)" stroke-width="1px" opacity="0.25"></line><line x1="0" y1="188.94999980926488" x2="1372.0849981307983" y2="188.94999980926488" fill="rgb(0, 0, 0)" stroke="rgb(60, 60, 60)" stroke-width="1px" opacity="0.25"></line><line x1="0" y1="141.7124998569485" x2="1372.0849981307983" y2="141.7124998569485" fill="rgb(0, 0, 0)" stroke="rgb(60, 60, 60)" stroke-width="1px" opacity="0.25"></line><line x1="0" y1="94.47499990463218" x2="1372.0849981307983" y2="94.47499990463218" fill="rgb(0, 0, 0)" stroke="rgb(60, 60, 60)" stroke-width="1px" opacity="0.25"></line><line x1="0" y1="47.23749995231582" x2="1372.0849981307983" y2="47.23749995231582" fill="rgb(0, 0, 0)" stroke="rgb(60, 60, 60)" stroke-width="1px" opacity="0.25"></line></g></g></g><g><g><line x1="0" y1="2692.537497282029" x2="1372.0849981307983" y2="2692.537497282029" fill="rgb(0, 0, 0)" stroke="rgb(153, 153, 153)" stroke-width="1.5px"></line></g></g><g><g><line x1="114.34041651089986" y1="0" x2="114.34041651089986" y2="377.8999996185303" fill="rgb(0, 0, 0)" stroke="rgb(153, 153, 153)" stroke-width="1.5px"></line></g></g><g><g><g><g><g><path style="fill: none;" stroke="rgb(204, 51, 17)" stroke-width="2px" d="M114.34041651089986,235.243809319495L137.20849981307984,230.98778704929705L160.0765831152598,216.33159604288767L182.94466641743978,184.43592451372427L205.81274971961975,313.6451679639935L228.6808330217997,268.2961188141237L251.54891632397968,186.29561140805197L274.4169996261597,192.10639386454477L297.28508292833965,211.54568266971853L320.1531662305196,176.0790181230293L343.0212495326996,220.81511672498823L365.88933283487955,133.4610761457527L388.7574161370595,150.93706491850452L411.6254994392395,303.16137666796146L434.49358274141946,141.3528496447854L457.3616660435994,228.03115236688444L480.2297493457794,190.70254846634373L503.09783264795936,188.12686100089184L525.9659159501394,247.1291935542043L548.8339992523194,217.49668073156715L571.7020825544994,234.44362307366922L594.5701658566793,234.85582316652247L617.4382491588593,197.18653476300875L640.3063324610392,213.71902455273374L663.1744157632193,142.14740474180172L686.0424990653992,241.7365238968147L708.9105823675792,207.077647646844L731.7786656697591,160.7068265454957L754.6467489719391,230.78731815167987L777.514832274119,230.01585076478239L800.3829155762991,144.5457110197553L823.250998878479,223.93111291870883L846.119082180659,228.18995076331151L868.9871654828389,184.98411685032625L891.855248785019,213.96454264082666L914.7233320871989,134.08613366360396L937.5914153893789,181.1110126991723L960.4594986915588,262.1491567737055L983.3275819937388,184.2016687232503L1006.1956652959187,136.61423792161582L1029.0637485980988,140.65120850312536L1051.931831900279,245.01779430809327L1074.7999152024586,168.08757329006897L1097.6679985046387,212.94727560839578L1120.5360818068186,176.25076816171816L1143.4041651089988,135.19265440466495L1166.2722484111785,241.9696534575268L1189.1403317133586,204.141566657586L1212.0084150155385,237.46276350786692L1234.8764983177186,190.3199119047402" fill="none"></path></g><g><path style="fill: none;" stroke="rgb(238, 51, 119)" stroke-width="2px" d="M114.34041651089986,259.84742469783436L137.20849981307984,95.23289622289906L160.0765831152598,204.31416136859627L182.94466641743978,99.51172464577536L205.81274971961975,177.51665041408717L228.6808330217997,229.3240641335389L251.54891632397968,303.28469882688887L274.4169996261597,170.71450420968705L297.28508292833965,286.1282777490745L320.1531662305196,79.66502222423635L343.0212495326996,220.42741212945617L365.88933283487955,269.0442169334619L388.7574161370595,234.02297625760175L411.6254994392395,180.73794909054487L434.49358274141946,212.40584065036518L457.3616660435994,191.11897192080409L480.2297493457794,176.37071163135988L503.09783264795936,202.4595425081971L525.9659159501394,272.7365612078318L548.8339992523194,225.47601859458712L571.7020825544994,311.10411206371987L594.5701658566793,229.83846957728406L617.4382491588593,206.75920618166845L640.3063324610392,220.0504067166621L663.1744157632193,198.87700563561185L686.0424990653992,208.08900197302495L708.9105823675792,190.34694141902565L731.7786656697591,213.62104256344895L754.6467489719391,231.09449731923652L777.514832274119,157.35995325058678L800.3829155762991,252.2431213455251L823.250998878479,185.66801987323646L846.119082180659,194.87241415975677L868.9871654828389,185.52217311907117L891.855248785019,126.70172667230457L914.7233320871989,152.34203654646745L937.5914153893789,166.9441685243059L960.4594986915588,250.7911296250031L983.3275819937388,199.3221479490005L1006.1956652959187,114.8447797390831L1029.0637485980988,252.8208772133768L1051.931831900279,227.18141201153531L1074.7999152024586,177.19680116170923L1097.6679985046387,131.0334878939899L1120.5360818068186,177.45076597301636L1143.4041651089988,227.63331170349534L1166.2722484111785,181.092993022982L1189.1403317133586,258.5618334246322L1212.0084150155385,283.31326645922013L1234.8764983177186,162.04563217494734" fill="none"></path></g><g><path style="fill: none;" stroke="rgb(255, 112, 67)" stroke-width="2px" d="M114.34041651089986,195.23252612612242L137.20849981307984,186.8452115318563L160.0765831152598,260.32832480616315L182.94466641743978,273.33064740723097L205.81274971961975,171.57606997753606L228.6808330217997,216.9653818413936L251.54891632397968,142.71220896739163L274.4169996261597,224.8622233743548L297.28508292833965,218.37851863513026L320.1531662305196,264.2957506998757L343.0212495326996,187.81067199524006L365.88933283487955,164.7322532719458L388.7574161370595,190.47871030116727L411.6254994392395,266.40067412485587L434.49358274141946,192.84351124370448L457.3616660435994,142.56495442602397L480.2297493457794,174.83706825310054L503.09783264795936,158.75253635116889L525.9659159501394,206.14569251887661L548.8339992523194,179.49881479502085L571.7020825544994,242.6451097572228L594.5701658566793,163.13357012493708L617.4382491588593,152.84546125003413L640.3063324610392,253.04387070623184L663.1744157632193,156.00509884702814L686.0424990653992,101.52992837908965L708.9105823675792,275.91618938309944L731.7786656697591,165.46233171509368L754.6467489719391,235.22550808586422L777.514832274119,171.390523624264L800.3829155762991,211.60593596197987L823.250998878479,229.93673312400932L846.119082180659,267.6378375182966L868.9871654828389,242.052431345026L891.855248785019,148.01224622686544L914.7233320871989,201.35583734154085L937.5914153893789,229.28774322371783L960.4594986915588,272.10643565605204L983.3275819937388,225.83613056095277L1006.1956652959187,109.63990889448934L1029.0637485980988,204.721293427521L1051.931831900279,139.10461348260424L1074.7999152024586,200.79976139660562L1097.6679985046387,139.6305627814088L1120.5360818068186,202.6839437882545L1143.4041651089988,252.11360492290729L1166.2722484111785,202.77798397337267L1189.1403317133586,224.95457421483013L1212.0084150155385,141.56092059329535L1234.8764983177186,223.8528399502572" fill="none"></path></g><g><path style="fill: none;" stroke="rgb(187, 187, 187)" stroke-width="2px" d="M114.34041651089986,183.76807026492105L137.20849981307984,151.41937281403568L160.0765831152598,275.5780388970907L182.94466641743978,163.44694355618412L205.81274971961975,251.5645679139839L228.6808330217997,237.27186756322587L251.54891632397968,182.68688969350268L274.4169996261597,169.113850160595L297.28508292833965,194.40249479160644L320.1531662305196,138.8827462195111L343.0212495326996,274.41717757001834L365.88933283487955,206.28703435399433L388.7574161370595,238.83620070249682L411.6254994392395,129.5547482166229L434.49358274141946,157.20256264136208L457.3616660435994,197.2988761817577L480.2297493457794,145.58156084325742L503.09783264795936,204.5022417388326L525.9659159501394,198.14805342222587L548.8339992523194,163.27885376422142L571.7020825544994,230.5327902254918L594.5701658566793,212.74849605542147L617.4382491588593,180.6706568622717L640.3063324610392,154.03644922323718L663.1744157632193,219.94285177440122L686.0424990653992,322.9497966993224L708.9105823675792,146.07597570872895L731.7786656697591,146.2308323009894L754.6467489719391,256.8936055898265L777.514832274119,181.5995148583939L800.3829155762991,175.0386633804796L823.250998878479,223.21426767526322L846.119082180659,229.80946916091528L868.9871654828389,137.8122648308307L891.855248785019,194.36927101363057L914.7233320871989,271.9428507831369L937.5914153893789,198.80267447132684L960.4594986915588,213.53066262505695L983.3275819937388,310.0336306750395L1006.1956652959187,272.92351534830624L1029.0637485980988,221.94134648688237L1051.931831900279,227.50463995319893L1074.7999152024586,245.1197181015447L1097.6679985046387,216.1781472378296L1120.5360818068186,157.94981608837884L1143.4041651089988,220.02056162797192L1166.2722484111785,210.49744431883556L1189.1403317133586,180.0194145024564L1212.0084150155385,288.7115672654192L1234.8764983177186,146.79479185425788" fill="none"></path></g></g></g></g></g><g><g opacity="0.962245"><span fill="rgb(0, 0, 0)" stroke="none" stroke-width="1px">Alt + Scroll to Zoom</span></g></g></g><g transform="translate(61, 377)" clip-path="url(#clip_1)"><clipPath id="clip_1"><rect width="1372" height="22"></rect></clipPath><g><g><line x1="0" y1="0" x2="0" y2="5" style="visibility: inherit;" fill="rgb(0, 0, 0)" stroke="rgb(204, 204, 204)" stroke-width="1px"></line><line x1="114.34041651089986" y1="0" x2="114.34041651089986" y2="5" style="visibility: inherit;" fill="rgb(0, 0, 0)" stroke="rgb(204, 204, 204)" stroke-width="1px"></line><line x1="228.6808330217997" y1="0" x2="228.6808330217997" y2="5" style="visibility: inherit;" fill="rgb(0, 0, 0)" stroke="rgb(204, 204, 204)" stroke-width="1px"></line><line x1="343.0212495326996" y1="0" x2="343.0212495326996" y2="5" style="visibility: inherit;" fill="rgb(0, 0, 0)" stroke="rgb(204, 204, 204)" stroke-width="1px"></line><line x1="457.3616660435994" y1="0" x2="457.3616660435994" y2="5" style="visibility: inherit;" fill="rgb(0, 0, 0)" stroke="rgb(204, 204, 204)" stroke-width="1px"></line><line x1="571.7020825544994" y1="0" x2="571.7020825544994" y2="5" style="visibility: inherit;" fill="rgb(0, 0, 0)" stroke="rgb(204, 204, 204)" stroke-width="1px"></line><line x1="686.0424990653992" y1="0" x2="686.0424990653992" y2="5" style="visibility: inherit;" fill="rgb(0, 0, 0)" stroke="rgb(204, 204, 204)" stroke-width="1px"></line><line x1="800.3829155762991" y1="0" x2="800.3829155762991" y2="5" style="visibility: inherit;" fill="rgb(0, 0, 0)" stroke="rgb(204, 204, 204)" stroke-width="1px"></line><line x1="914.7233320871989" y1="0" x2="914.7233320871989" y2="5" style="visibility: inherit;" fill="rgb(0, 0, 0)" stroke="rgb(204, 204, 204)" stroke-width="1px"></line><line x1="1029.0637485980988" y1="0" x2="1029.0637485980988" y2="5" style="visibility: inherit;" fill="rgb(0, 0, 0)" stroke="rgb(204, 204, 204)" stroke-width="1px"></line><line x1="1143.4041651089988" y1="0" x2="1143.4041651089988" y2="5" style="visibility: inherit;" fill="rgb(0, 0, 0)" stroke="rgb(204, 204, 204)" stroke-width="1px"></line><line x1="1257.7445816198983" y1="0" x2="1257.7445816198983" y2="5" style="visibility: inherit;" fill="rgb(0, 0, 0)" stroke="rgb(204, 204, 204)" stroke-width="1px"></line><line x1="1372.0849981307983" y1="0" x2="1372.0849981307983" y2="5" style="visibility: inherit;" fill="rgb(0, 0, 0)" stroke="rgb(204, 204, 204)" stroke-width="1px"></line></g><g transform="translate(0, 8)"><text style="text-anchor: middle; visibility: hidden; font-family: Roboto, sans-serif; font-size: 12px; font-weight: 200;" x="0" y="0" dx="0em" dy="0.95em" fill="rgb(50, 49, 63)" stroke="none" stroke-width="1px">-5</text><text style="text-anchor: middle; visibility: inherit; font-family: Roboto, sans-serif; font-size: 12px; font-weight: 200;" x="114.34041651089986" y="0" dx="0em" dy="0.95em" fill="rgb(50, 49, 63)" stroke="none" stroke-width="1px">0</text><text style="text-anchor: middle; visibility: inherit; font-family: Roboto, sans-serif; font-size: 12px; font-weight: 200;" x="228.6808330217997" y="0" dx="0em" dy="0.95em" fill="rgb(50, 49, 63)" stroke="none" stroke-width="1px">5</text><text style="text-anchor: middle; visibility: inherit; font-family: Roboto, sans-serif; font-size: 12px; font-weight: 200;" x="343.0212495326996" y="0" dx="0em" dy="0.95em" fill="rgb(50, 49, 63)" stroke="none" stroke-width="1px">10</text><text style="text-anchor: middle; visibility: inherit; font-family: Roboto, sans-serif; font-size: 12px; font-weight: 200;" x="457.3616660435994" y="0" dx="0em" dy="0.95em" fill="rgb(50, 49, 63)" stroke="none" stroke-width="1px">15</text><text style="text-anchor: middle; visibility: inherit; font-family: Roboto, sans-serif; font-size: 12px; font-weight: 200;" x="571.7020825544994" y="0" dx="0em" dy="0.95em" fill="rgb(50, 49, 63)" stroke="none" stroke-width="1px">20</text><text style="text-anchor: middle; visibility: inherit; font-family: Roboto, sans-serif; font-size: 12px; font-weight: 200;" x="686.0424990653992" y="0" dx="0em" dy="0.95em" fill="rgb(50, 49, 63)" stroke="none" stroke-width="1px">25</text><text style="text-anchor: middle; visibility: inherit; font-family: Roboto, sans-serif; font-size: 12px; font-weight: 200;" x="800.3829155762991" y="0" dx="0em" dy="0.95em" fill="rgb(50, 49, 63)" stroke="none" stroke-width="1px">30</text><text style="text-anchor: middle; visibility: inherit; font-family: Roboto, sans-serif; font-size: 12px; font-weight: 200;" x="914.7233320871989" y="0" dx="0em" dy="0.95em" fill="rgb(50, 49, 63)" stroke="none" stroke-width="1px">35</text><text style="text-anchor: middle; visibility: inherit; font-family: Roboto, sans-serif; font-size: 12px; font-weight: 200;" x="1029.0637485980988" y="0" dx="0em" dy="0.95em" fill="rgb(50, 49, 63)" stroke="none" stroke-width="1px">40</text><text style="text-anchor: middle; visibility: inherit; font-family: Roboto, sans-serif; font-size: 12px; font-weight: 200;" x="1143.4041651089988" y="0" dx="0em" dy="0.95em" fill="rgb(50, 49, 63)" stroke="none" stroke-width="1px">45</text><text style="text-anchor: middle; visibility: inherit; font-family: Roboto, sans-serif; font-size: 12px; font-weight: 200;" x="1257.7445816198983" y="0" dx="0em" dy="0.95em" fill="rgb(50, 49, 63)" stroke="none" stroke-width="1px">50</text><text style="text-anchor: middle; visibility: hidden; font-family: Roboto, sans-serif; font-size: 12px; font-weight: 200;" x="1372.0849981307983" y="0" dx="0em" dy="0.95em" fill="rgb(50, 49, 63)" stroke="none" stroke-width="1px">55</text></g><line x1="0" y1="0" x2="1372.0849981307983" y2="0" fill="rgb(0, 0, 0)" stroke="rgb(204, 204, 204)" stroke-width="1px"></line></g></g></g></g></svg>