<svg viewBox="0 0 1434 400" xmlns="http://www.w3.org/2000/svg"><g><g><g><g><g><line x1="61.91500186920166" y1="377.8999996185303" x2="56.91500186920166" y2="377.8999996185303" style="visibility: inherit;" fill="rgb(0, 0, 0)" stroke="rgb(204, 204, 204)" stroke-width="1px"></line><line x1="61.91500186920166" y1="346.4083329836527" x2="56.91500186920166" y2="346.4083329836527" style="visibility: inherit;" fill="rgb(0, 0, 0)" stroke="rgb(204, 204, 204)" stroke-width="1px"></line><line x1="61.91500186920166" y1="314.91666634877527" x2="56.91500186920166" y2="314.91666634877527" style="visibility: inherit;" fill="rgb(0, 0, 0)" stroke="rgb(204, 204, 204)" stroke-width="1px"></line><line x1="61.91500186920166" y1="283.4249997138977" x2="56.91500186920166" y2="283.4249997138977" style="visibility: inherit;" fill="rgb(0, 0, 0)" stroke="rgb(204, 204, 204)" stroke-width="1px"></line><line x1="61.91500186920166" y1="251.9333330790202" x2="56.91500186920166" y2="251.9333330790202" style="visibility: inherit;" fill="rgb(0, 0, 0)" stroke="rgb(204, 204, 204)" stroke-width="1px"></line><line x1="61.91500186920166" y1="220.44166644414264" x2="56.91500186920166" y2="220.44166644414264" style="visibility: inherit;" fill="rgb(0, 0, 0)" stroke="rgb(204, 204, 204)" stroke-width="1px"></line><line x1="61.91500186920166" y1="188.94999980926514" x2="56.91500186920166" y2="188.94999980926514" style="visibility: inherit;" fill="rgb(0, 0, 0)" stroke="rgb(204, 204, 204)" stroke-width="1px"></line><line x1="61.91500186920166" y1="157.4583331743876" x2="56.91500186920166" y2="157.4583331743876" style="visibility: inherit;" fill="rgb(0, 0, 0)" stroke="rgb(204, 204, 204)" stroke-width="1px"></line><line x1="61.91500186920166" y1="125.9666665395101" x2="56.91500186920166" y2="125.9666665395101" style="visibility: inherit;" fill="rgb(0, 0, 0)" stroke="rgb(204, 204, 204)" stroke-width="1px"></line><line x1="61.91500186920166" y1="94.47499990463257" x2="56.91500186920166" y2="94.47499990463257" style="visibility: inherit;" fill="rgb(0, 0, 0)" stroke="rgb(204, 204, 204)" stroke-width="1px"></line><line x1="61.91500186920166" y1="62.98333326975503" x2="56.91500186920166" y2="62.98333326975503" style="visibility: inherit;" fill="rgb(0, 0, 0)" stroke="rgb(204, 204, 204)" stroke-width="1px"></line><line x1="61.91500186920166" y1="31.491666634877536" x2="56.91500186920166" y2="31.491666634877536" style="visibility: inherit;" fill="rgb(0, 0, 0)" stroke="rgb(204, 204, 204)" stroke-width="1px"></line><line x1="61.91500186920166" y1="0" x2="56.91500186920166" y2="0" style="visibility: inherit;" fill="rgb(0, 0, 0)" stroke="rgb(204, 204, 204)" stroke-width="1px"></line></g><g transform="translate(51.91500186920166, 0)"><text style="text-anchor: end; visibility: hidden; font-family: Roboto, sans-serif; font-size: 12px; font-weight: 200;" x="0" y="377.8999996185303" dx="0em" dy="0.3em" fill="rgb(50, 49, 63)" stroke="none" stroke-width="1px">0.864</text><text style="text-anchor: end; visibility: inherit; font-family: Roboto, sans-serif; font-size: 12px; font-weight: 200;" x="0" y="346.4083329836527" dx="0em" dy="0.3em" fill="rgb(50, 49, 63)" stroke="none" stroke-width="1px">0.866</text><text style="text-anchor: end; visibility: inherit; font-family: Roboto, sans-serif; font-size: 12px; font-weight: 200;" x="0" y="314.91666634877527" dx="0em" dy="0.3em" fill="rgb(50, 49, 63)" stroke="none" stroke-width="1px">0.868</text><text style="text-anchor: end; visibility: inherit; font-family: Roboto, sans-serif; font-size: 12px; font-weight: 200;" x="0" y="283.4249997138977" dx="0em" dy="0.3em" fill="rgb(50, 49, 63)" stroke="none" stroke-width="1px">0.87</text><text style="text-anchor: end; visibility: inherit; font-family: Roboto, sans-serif; font-size: 12px; font-weight: 200;" x="0" y="251.9333330790202" dx="0em" dy="0.3em" fill="rgb(50, 49, 63)" stroke="none" stroke-width="1px">0.872</text><text style="text-anchor: end; visibility: inherit; font-family: Roboto, sans-serif; font-size: 12px; font-weight: 200;" x="0" y="220.44166644414264" dx="0em" dy="0.3em" fill="rgb(50, 49, 63)" stroke="none" stroke-width="1px">0.874</text><text style="text-anchor: end; visibility: inherit; font-family: Roboto, sans-serif; font-size: 12px; font-weight: 200;" x="0" y="188.94999980926514" dx="0em" dy="0.3em" fill="rgb(50, 49, 63)" stroke="none" stroke-width="1px">0.876</text><text style="text-anchor: end; visibility: inherit; font-family: Roboto, sans-serif; font-size: 12px; font-weight: 200;" x="0" y="157.4583331743876" dx="0em" dy="0.3em" fill="rgb(50, 49, 63)" stroke="none" stroke-width="1px">0.878</text><text style="text-anchor: end; visibility: inherit; font-family: Roboto, sans-serif; font-size: 12px; font-weight: 200;" x="0" y="125.9666665395101" dx="0em" dy="0.3em" fill="rgb(50, 49, 63)" stroke="none" stroke-width="1px">0.88</text><text style="text-anchor: end; visibility: inherit; font-family: Roboto, sans-serif; font-size: 12px; font-weight: 200;" x="0" y="94.47499990463257" dx="0em" dy="0.3em" fill="rgb(50, 49, 63)" stroke="none" stroke-width="1px">0.882</text><text style="text-anchor: end; visibility: inherit; font-family: Roboto, sans-serif; font-size: 12px; font-weight: 200;" x="0" y="62.98333326975503" dx="0em" dy="0.3em" fill="rgb(50, 49, 63)" stroke="none" stroke-width="1px">0.884</text><text style="text-anchor: end; visibility: inherit; font-family: Roboto, sans-serif; font-size: 12px; font-weight: 200;" x="0" y="31.491666634877536" dx="0em" dy="0.3em" fill="rgb(50, 49, 63)" stroke="none" stroke-width="1px">0.886</text><text style="text-anchor: end; visibility: hidden; font-family: Roboto, sans-serif; font-size: 12px; font-weight: 200;" x="0" y="0" dx="0em" dy="0.3em" fill="rgb(50, 49, 63)" stroke="none" stroke-width="1px">0.888</text></g><line x1="61.91500186920166" y1="0" x2="61.91500186920166" y2="377.8999996185303" fill="rgb(0, 0, 0)" stroke="rgb(204, 204, 204)" stroke-width="1px"></line></g></g><g transform="translate(61, 0)" clip-path="url(#clip_0)"><clipPath id="clip_0"><rect width="1384" height="377"></rect></clipPath><g><g><g><line x1="0" y1="0" x2="0" y2="377.8999996185303" fill="rgb(0, 0, 0)" stroke="rgb(60, 60, 60)" stroke-width="1px" opacity="0.25"></line><line x1="115.34041651089986" y1="0" x2="115.34041651089986" y2="377.8999996185303" fill="rgb(0, 0, 0)" stroke="rgb(60, 60, 60)" stroke-width="1px" opacity="0.25"></line><line x1="230.6808330217997" y1="0" x2="230.6808330217997" y2="377.8999996185303" fill="rgb(0, 0, 0)" stroke="rgb(60, 60, 60)" stroke-width="1px" opacity="0.25"></line><line x1="346.0212495326996" y1="0" x2="346.0212495326996" y2="377.8999996185303" fill="rgb(0, 0, 0)" stroke="rgb(60, 60, 60)" stroke-width="1px" opacity="0.25"></line><line x1="461.3616660435994" y1="0" x2="461.3616660435994" y2="377.8999996185303" fill="rgb(0, 0, 0)" stroke="rgb(60, 60, 60)" stroke-width="1px" opacity="0.25"></line><line x1="576.7020825544994" y1="0" x2="576.7020825544994" y2="377.8999996185303" fill="rgb(0, 0, 0)" stroke="rgb(60, 60, 60)" stroke-width="1px" opacity="0.25"></line><line x1="692.0424990653992" y1="0" x2="692.0424990653992" y2="377.8999996185303" fill="rgb(0, 0, 0)" stroke="rgb(60, 60, 60)" stroke-width="1px" opacity="0.25"></line><line x1="807.3829155762991" y1="0" x2="807.3829155762991" y2="377.8999996185303" fill="rgb(0, 0, 0)" stroke="rgb(60, 60, 60)" stroke-width="1px" opacity="0.25"></line><line x1="922.7233320871989" y1="0" x2="922.7233320871989" y2="377.8999996185303" fill="rgb(0, 0, 0)" stroke="rgb(60, 60, 60)" stroke-width="1px" opacity="0.25"></line><line x1="1038.0637485980988" y1="0" x2="1038.0637485980988" y2="377.8999996185303" fill="rgb(0, 0, 0)" stroke="rgb(60, 60, 60)" stroke-width="1px" opacity="0.25"></line><line x1="1153.4041651089988" y1="0" x2="1153.4041651089988" y2="377.8999996185303" fill="rgb(0, 0, 0)" stroke="rgb(60, 60, 60)" stroke-width="1px" opacity="0.25"></line><line x1="1268.7445816198983" y1="0" x2="1268.7445816198983" y2="377.8999996185303" fill="rgb(0, 0, 0)" stroke="rgb(60, 60, 60)" stroke-width="1px" opacity="0.25"></line><line x1="1384.0849981307983" y1="0" x2="1384.0849981307983" y2="377.8999996185303" fill="rgb(0, 0, 0)" stroke="rgb(60, 60, 60)" stroke-width="1px" opacity="0.25"></line></g><g><line x1="0" y1="377.8999996185303" x2="1384.0849981307983" y2="377.8999996185303" fill="rgb(0, 0, 0)" stroke="rgb(60, 60, 60)" stroke-width="1px" opacity="0.25"></line><line x1="0" y1="346.4083329836527" x2="1384.0849981307983" y2="346.4083329836527" fill="rgb(0, 0, 0)" stroke="rgb(60, 60, 60)" stroke-width="1px" opacity="0.25"></line><line x1="0" y1="314.91666634877527" x2="1384.0849981307983" y2="314.91666634877527" fill="rgb(0, 0, 0)" stroke="rgb(60, 60, 60)" stroke-width="1px" opacity="0.25"></line><line x1="0" y1="283.4249997138977" x2="1384.0849981307983" y2="283.4249997138977" fill="rgb(0, 0, 0)" stroke="rgb(60, 60, 60)" stroke-width="1px" opacity="0.25"></line><line x1="0" y1="251.9333330790202" x2="1384.0849981307983" y2="251.9333330790202" fill="rgb(0, 0, 0)" stroke="rgb(60, 60, 60)" stroke-width="1px" opacity="0.25"></line><line x1="0" y1="220.44166644414264" x2="1384.0849981307983" y2="220.44166644414264" fill="rgb(0, 0, 0)" stroke="rgb(60, 60, 60)" stroke-width="1px" opacity="0.25"></line><line x1="0" y1="188.94999980926514" x2="1384.0849981307983" y2="188.94999980926514" fill="rgb(0, 0, 0)" stroke="rgb(60, 60, 60)" stroke-width="1px" opacity="0.25"></line><line x1="0" y1="157.4583331743876" x2="1384.0849981307983" y2="157.4583331743876" fill="rgb(0, 0, 0)" stroke="rgb(60, 60, 60)" stroke-width="1px" opacity="0.25"></line><line x1="0" y1="125.9666665395101" x2="1384.0849981307983" y2="125.9666665395101" fill="rgb(0, 0, 0)" stroke="rgb(60, 60, 60)" stroke-width="1px" opacity="0.25"></line><line x1="0" y1="94.47499990463257" x2="1384.0849981307983" y2="94.47499990463257" fill="rgb(0, 0, 0)" stroke="rgb(60, 60, 60)" stroke-width="1px" opacity="0.25"></line><line x1="0" y1="62.98333326975503" x2="1384.0849981307983" y2="62.98333326975503" fill="rgb(0, 0, 0)" stroke="rgb(60, 60, 60)" stroke-width="1px" opacity="0.25"></line><line x1="0" y1="31.491666634877536" x2="1384.0849981307983" y2="31.491666634877536" fill="rgb(0, 0, 0)" stroke="rgb(60, 60, 60)" stroke-width="1px" opacity="0.25"></line><line x1="0" y1="0" x2="1384.0849981307983" y2="0" fill="rgb(0, 0, 0)" stroke="rgb(60, 60, 60)" stroke-width="1px" opacity="0.25"></line></g></g></g><g><g><line x1="0" y1="13982.299985885607" x2="1384.0849981307983" y2="13982.299985885607" fill="rgb(0, 0, 0)" stroke="rgb(153, 153, 153)" stroke-width="1.5px"></line></g></g><g><g><line x1="115.34041651089986" y1="0" x2="115.34041651089986" y2="377.8999996185303" fill="rgb(0, 0, 0)" stroke="rgb(153, 153, 153)" stroke-width="1.5px"></line></g></g><g><g><g><g><g><path style="fill: none;" stroke="rgb(204, 51, 17)" stroke-width="2px" d="M115.34041651089986,146.5363896976891L138.40849981307983,220.00129559084522L161.4765831152598,199.59401230532347L184.54466641743977,232.24529015223766L207.61274971961976,68.99077796726992L230.6808330217997,154.69967842181842L253.74891632397967,187.35001774393103L276.81699962615966,211.8380068667159L299.88508292833967,191.4316621059957L322.9531662305196,211.8380068667159L346.0212495326996,207.75730102945278L369.08933283487954,195.5123679432588L392.1574161370595,244.48928471363007L415.2254994392395,162.86202862114618L438.29358274141947,322.03489644404925L461.3616660435994,211.8380068667159L484.4297493457794,195.5123679432588L507.49783264795934,179.18766754460327L530.5659159501394,199.59401230532347L553.6339992523193,191.4316621059957L576.7020825544994,273.057979673678L599.7701658566793,207.75730102945278L622.8382491588593,191.4316621059957L645.9063324610393,171.02437882047394L668.9744157632192,301.6276131585275L692.0424990653992,73.0724223293346L715.1105823675792,183.26837338186635L738.1786656697591,199.59401230532347L761.2467489719392,158.78038425908156L784.314832274119,207.75730102945278L807.3829155762991,207.75730102945278L830.450998878479,191.4316621059957L853.519082180659,171.02437882047394L876.5871654828389,187.35001774393103L899.6552487850189,211.8380068667159L922.7233320871989,199.59401230532347L945.7914153893789,146.5363896976891L968.8594986915588,158.78038425908156L991.9275819937388,232.24529015223766L1014.9956652959187,236.32599598950068L1038.0637485980988,252.65163491295783L1061.1318319002787,191.4316621059957L1084.1999152024587,228.16364579017298L1107.2679985046386,179.18766754460327L1130.3360818068186,166.94367298321086L1153.4041651089988,215.91965122878054L1176.4722484111785,252.65163491295783L1199.5403317133587,195.5123679432588L1222.6084150155384,199.59401230532347L1245.6764983177186,195.5123679432588" fill="none"></path></g><g><path style="fill: none;" stroke="rgb(238, 51, 119)" stroke-width="2px" d="M115.34041651089986,203.67565666738813L138.40849981307983,187.35001774393103L161.4765831152598,166.94367298321086L184.54466641743977,203.67565666738813L207.61274971961976,224.0820014281083L230.6808330217997,203.67565666738813L253.74891632397967,122.04840057490425L276.81699962615966,220.00129559084522L299.88508292833967,122.04840057490425L322.9531662305196,289.38361859713507L346.0212495326996,215.91965122878054L369.08933283487954,199.59401230532347L392.1574161370595,232.24529015223766L415.2254994392395,199.59401230532347L438.29358274141947,191.4316621059957L461.3616660435994,175.10602318253862L484.4297493457794,195.5123679432588L507.49783264795934,211.8380068667159L530.5659159501394,179.18766754460327L553.6339992523193,191.4316621059957L576.7020825544994,142.45568386042603L599.7701658566793,171.02437882047394L622.8382491588593,207.75730102945278L645.9063324610393,211.8380068667159L668.9744157632192,187.35001774393103L692.0424990653992,220.00129559084522L715.1105823675792,171.02437882047394L738.1786656697591,199.59401230532347L761.2467489719392,183.26837338186635L784.314832274119,195.5123679432588L807.3829155762991,179.18766754460327L830.450998878479,220.00129559084522L853.519082180659,220.00129559084522L876.5871654828389,215.91965122878054L899.6552487850189,236.32599598950068L922.7233320871989,228.16364579017298L945.7914153893789,224.0820014281083L968.8594986915588,228.16364579017298L991.9275819937388,203.67565666738813L1014.9956652959187,256.7332792750225L1038.0637485980988,162.86202862114618L1061.1318319002787,199.59401230532347L1084.1999152024587,264.89562947435024L1107.2679985046386,236.32599598950068L1130.3360818068186,207.75730102945278L1153.4041651089988,224.0820014281083L1176.4722484111785,232.24529015223766L1199.5403317133587,109.80440601351185L1222.6084150155384,195.5123679432588L1245.6764983177186,228.16364579017298" fill="none"></path></g><g><path style="fill: none;" stroke="rgb(255, 112, 67)" stroke-width="2px" d="M115.34041651089986,232.24529015223766L138.40849981307983,236.32599598950068L161.4765831152598,154.69967842181842L184.54466641743977,256.7332792750225L207.61274971961976,215.91965122878054L230.6808330217997,187.35001774393103L253.74891632397967,240.4076403515654L276.81699962615966,134.2923951362967L299.88508292833967,232.24529015223766L322.9531662305196,203.67565666738813L346.0212495326996,199.59401230532347L369.08933283487954,228.16364579017298L392.1574161370595,162.86202862114618L415.2254994392395,199.59401230532347L438.29358274141947,179.18766754460327L461.3616660435994,293.4652629591998L484.4297493457794,207.75730102945278L507.49783264795934,236.32599598950068L530.5659159501394,191.4316621059957L553.6339992523193,220.00129559084522L576.7020825544994,240.4076403515654L599.7701658566793,171.02437882047394L622.8382491588593,166.94367298321086L645.9063324610393,146.5363896976891L668.9744157632192,207.75730102945278L692.0424990653992,244.48928471363007L715.1105823675792,195.5123679432588L738.1786656697591,162.86202862114618L761.2467489719392,187.35001774393103L784.314832274119,232.24529015223766L807.3829155762991,175.10602318253862L830.450998878479,166.94367298321086L853.519082180659,236.32599598950068L876.5871654828389,228.16364579017298L899.6552487850189,199.59401230532347L922.7233320871989,191.4316621059957L945.7914153893789,195.5123679432588L968.8594986915588,158.78038425908156L991.9275819937388,211.8380068667159L1014.9956652959187,203.67565666738813L1038.0637485980988,187.35001774393103L1061.1318319002787,248.56999055089315L1084.1999152024587,256.7332792750225L1107.2679985046386,228.16364579017298L1130.3360818068186,228.16364579017298L1153.4041651089988,199.59401230532347L1176.4722484111785,199.59401230532347L1199.5403317133587,146.5363896976891L1222.6084150155384,224.0820014281083L1245.6764983177186,207.75730102945278" fill="none"></path></g><g><path style="fill: none;" stroke="rgb(187, 187, 187)" stroke-width="2px" d="M115.34041651089986,179.18766754460327L138.40849981307983,252.65163491295783L161.4765831152598,187.35001774393103L184.54466641743977,224.0820014281083L207.61274971961976,215.91965122878054L230.6808330217997,215.91965122878054L253.74891632397967,162.86202862114618L276.81699962615966,228.16364579017298L299.88508292833967,203.67565666738813L322.9531662305196,264.89562947435024L346.0212495326996,191.4316621059957L369.08933283487954,191.4316621059957L392.1574161370595,175.10602318253862L415.2254994392395,256.7332792750225L438.29358274141947,252.65163491295783L461.3616660435994,228.16364579017298L484.4297493457794,179.18766754460327L507.49783264795934,183.26837338186635L530.5659159501394,268.9772738364149L553.6339992523193,191.4316621059957L576.7020825544994,232.24529015223766L599.7701658566793,171.02437882047394L622.8382491588593,273.057979673678L645.9063324610393,305.7092575205922L668.9744157632192,191.4316621059957L692.0424990653992,179.18766754460327L715.1105823675792,252.65163491295783L738.1786656697591,285.3019742350704L761.2467489719392,117.96769473764118L784.314832274119,215.91965122878054L807.3829155762991,277.13962403574266L830.450998878479,203.67565666738813L853.519082180659,130.21168929903362L876.5871654828389,260.8139851122856L899.6552487850189,207.75730102945278L922.7233320871989,175.10602318253862L945.7914153893789,199.59401230532347L968.8594986915588,228.16364579017298L991.9275819937388,175.10602318253862L1014.9956652959187,150.6180340597538L1038.0637485980988,224.0820014281083L1061.1318319002787,187.35001774393103L1084.1999152024587,260.8139851122856L1107.2679985046386,199.59401230532347L1130.3360818068186,240.4076403515654L1153.4041651089988,187.35001774393103L1176.4722484111785,240.4076403515654L1199.5403317133587,211.8380068667159L1222.6084150155384,179.18766754460327L1245.6764983177186,256.7332792750225" fill="none"></path></g></g></g></g></g></g><g transform="translate(61, 377)" clip-path="url(#clip_1)"><clipPath id="clip_1"><rect width="1384" height="22"></rect></clipPath><g><g><line x1="0" y1="0" x2="0" y2="5" style="visibility: inherit;" fill="rgb(0, 0, 0)" stroke="rgb(204, 204, 204)" stroke-width="1px"></line><line x1="115.34041651089986" y1="0" x2="115.34041651089986" y2="5" style="visibility: inherit;" fill="rgb(0, 0, 0)" stroke="rgb(204, 204, 204)" stroke-width="1px"></line><line x1="230.6808330217997" y1="0" x2="230.6808330217997" y2="5" style="visibility: inherit;" fill="rgb(0, 0, 0)" stroke="rgb(204, 204, 204)" stroke-width="1px"></line><line x1="346.0212495326996" y1="0" x2="346.0212495326996" y2="5" style="visibility: inherit;" fill="rgb(0, 0, 0)" stroke="rgb(204, 204, 204)" stroke-width="1px"></line><line x1="461.3616660435994" y1="0" x2="461.3616660435994" y2="5" style="visibility: inherit;" fill="rgb(0, 0, 0)" stroke="rgb(204, 204, 204)" stroke-width="1px"></line><line x1="576.7020825544994" y1="0" x2="576.7020825544994" y2="5" style="visibility: inherit;" fill="rgb(0, 0, 0)" stroke="rgb(204, 204, 204)" stroke-width="1px"></line><line x1="692.0424990653992" y1="0" x2="692.0424990653992" y2="5" style="visibility: inherit;" fill="rgb(0, 0, 0)" stroke="rgb(204, 204, 204)" stroke-width="1px"></line><line x1="807.3829155762991" y1="0" x2="807.3829155762991" y2="5" style="visibility: inherit;" fill="rgb(0, 0, 0)" stroke="rgb(204, 204, 204)" stroke-width="1px"></line><line x1="922.7233320871989" y1="0" x2="922.7233320871989" y2="5" style="visibility: inherit;" fill="rgb(0, 0, 0)" stroke="rgb(204, 204, 204)" stroke-width="1px"></line><line x1="1038.0637485980988" y1="0" x2="1038.0637485980988" y2="5" style="visibility: inherit;" fill="rgb(0, 0, 0)" stroke="rgb(204, 204, 204)" stroke-width="1px"></line><line x1="1153.4041651089988" y1="0" x2="1153.4041651089988" y2="5" style="visibility: inherit;" fill="rgb(0, 0, 0)" stroke="rgb(204, 204, 204)" stroke-width="1px"></line><line x1="1268.7445816198983" y1="0" x2="1268.7445816198983" y2="5" style="visibility: inherit;" fill="rgb(0, 0, 0)" stroke="rgb(204, 204, 204)" stroke-width="1px"></line><line x1="1384.0849981307983" y1="0" x2="1384.0849981307983" y2="5" style="visibility: inherit;" fill="rgb(0, 0, 0)" stroke="rgb(204, 204, 204)" stroke-width="1px"></line></g><g transform="translate(0, 8)"><text style="text-anchor: middle; visibility: hidden; font-family: Roboto, sans-serif; font-size: 12px; font-weight: 200;" x="0" y="0" dx="0em" dy="0.95em" fill="rgb(50, 49, 63)" stroke="none" stroke-width="1px">-5</text><text style="text-anchor: middle; visibility: inherit; font-family: Roboto, sans-serif; font-size: 12px; font-weight: 200;" x="115.34041651089986" y="0" dx="0em" dy="0.95em" fill="rgb(50, 49, 63)" stroke="none" stroke-width="1px">0</text><text style="text-anchor: middle; visibility: inherit; font-family: Roboto, sans-serif; font-size: 12px; font-weight: 200;" x="230.6808330217997" y="0" dx="0em" dy="0.95em" fill="rgb(50, 49, 63)" stroke="none" stroke-width="1px">5</text><text style="text-anchor: middle; visibility: inherit; font-family: Roboto, sans-serif; font-size: 12px; font-weight: 200;" x="346.0212495326996" y="0" dx="0em" dy="0.95em" fill="rgb(50, 49, 63)" stroke="none" stroke-width="1px">10</text><text style="text-anchor: middle; visibility: inherit; font-family: Roboto, sans-serif; font-size: 12px; font-weight: 200;" x="461.3616660435994" y="0" dx="0em" dy="0.95em" fill="rgb(50, 49, 63)" stroke="none" stroke-width="1px">15</text><text style="text-anchor: middle; visibility: inherit; font-family: Roboto, sans-serif; font-size: 12px; font-weight: 200;" x="576.7020825544994" y="0" dx="0em" dy="0.95em" fill="rgb(50, 49, 63)" stroke="none" stroke-width="1px">20</text><text style="text-anchor: middle; visibility: inherit; font-family: Roboto, sans-serif; font-size: 12px; font-weight: 200;" x="692.0424990653992" y="0" dx="0em" dy="0.95em" fill="rgb(50, 49, 63)" stroke="none" stroke-width="1px">25</text><text style="text-anchor: middle; visibility: inherit; font-family: Roboto, sans-serif; font-size: 12px; font-weight: 200;" x="807.3829155762991" y="0" dx="0em" dy="0.95em" fill="rgb(50, 49, 63)" stroke="none" stroke-width="1px">30</text><text style="text-anchor: middle; visibility: inherit; font-family: Roboto, sans-serif; font-size: 12px; font-weight: 200;" x="922.7233320871989" y="0" dx="0em" dy="0.95em" fill="rgb(50, 49, 63)" stroke="none" stroke-width="1px">35</text><text style="text-anchor: middle; visibility: inherit; font-family: Roboto, sans-serif; font-size: 12px; font-weight: 200;" x="1038.0637485980988" y="0" dx="0em" dy="0.95em" fill="rgb(50, 49, 63)" stroke="none" stroke-width="1px">40</text><text style="text-anchor: middle; visibility: inherit; font-family: Roboto, sans-serif; font-size: 12px; font-weight: 200;" x="1153.4041651089988" y="0" dx="0em" dy="0.95em" fill="rgb(50, 49, 63)" stroke="none" stroke-width="1px">45</text><text style="text-anchor: middle; visibility: inherit; font-family: Roboto, sans-serif; font-size: 12px; font-weight: 200;" x="1268.7445816198983" y="0" dx="0em" dy="0.95em" fill="rgb(50, 49, 63)" stroke="none" stroke-width="1px">50</text><text style="text-anchor: middle; visibility: hidden; font-family: Roboto, sans-serif; font-size: 12px; font-weight: 200;" x="1384.0849981307983" y="0" dx="0em" dy="0.95em" fill="rgb(50, 49, 63)" stroke="none" stroke-width="1px">55</text></g><line x1="0" y1="0" x2="1384.0849981307983" y2="0" fill="rgb(0, 0, 0)" stroke="rgb(204, 204, 204)" stroke-width="1px"></line></g></g></g></g></svg>