<svg viewBox="0 0 1434 400" xmlns="http://www.w3.org/2000/svg"><g><g><g><g><g><line x1="51.53200149536133" y1="377.8999996185303" x2="46.53200149536133" y2="377.8999996185303" style="visibility: inherit;" fill="rgb(0, 0, 0)" stroke="rgb(204, 204, 204)" stroke-width="1px"></line><line x1="51.53200149536133" y1="335.9111107720269" x2="46.53200149536133" y2="335.9111107720269" style="visibility: inherit;" fill="rgb(0, 0, 0)" stroke="rgb(204, 204, 204)" stroke-width="1px"></line><line x1="51.53200149536133" y1="293.92222192552356" x2="46.53200149536133" y2="293.92222192552356" style="visibility: inherit;" fill="rgb(0, 0, 0)" stroke="rgb(204, 204, 204)" stroke-width="1px"></line><line x1="51.53200149536133" y1="251.93333307902017" x2="46.53200149536133" y2="251.93333307902017" style="visibility: inherit;" fill="rgb(0, 0, 0)" stroke="rgb(204, 204, 204)" stroke-width="1px"></line><line x1="51.53200149536133" y1="209.94444423251682" x2="46.53200149536133" y2="209.94444423251682" style="visibility: inherit;" fill="rgb(0, 0, 0)" stroke="rgb(204, 204, 204)" stroke-width="1px"></line><line x1="51.53200149536133" y1="167.95555538601346" x2="46.53200149536133" y2="167.95555538601346" style="visibility: inherit;" fill="rgb(0, 0, 0)" stroke="rgb(204, 204, 204)" stroke-width="1px"></line><line x1="51.53200149536133" y1="125.9666665395101" x2="46.53200149536133" y2="125.9666665395101" style="visibility: inherit;" fill="rgb(0, 0, 0)" stroke="rgb(204, 204, 204)" stroke-width="1px"></line><line x1="51.53200149536133" y1="83.97777769300677" x2="46.53200149536133" y2="83.97777769300677" style="visibility: inherit;" fill="rgb(0, 0, 0)" stroke="rgb(204, 204, 204)" stroke-width="1px"></line><line x1="51.53200149536133" y1="41.988888846503386" x2="46.53200149536133" y2="41.988888846503386" style="visibility: inherit;" fill="rgb(0, 0, 0)" stroke="rgb(204, 204, 204)" stroke-width="1px"></line><line x1="51.53200149536133" y1="0" x2="46.53200149536133" y2="0" style="visibility: inherit;" fill="rgb(0, 0, 0)" stroke="rgb(204, 204, 204)" stroke-width="1px"></line></g><g transform="translate(41.53200149536133, 0)"><text style="text-anchor: end; visibility: hidden; font-family: Roboto, sans-serif; font-size: 12px; font-weight: 200;" x="0" y="377.8999996185303" dx="0em" dy="0.3em" fill="rgb(50, 49, 63)" stroke="none" stroke-width="1px">-0.1</text><text style="text-anchor: end; visibility: inherit; font-family: Roboto, sans-serif; font-size: 12px; font-weight: 200;" x="0" y="335.9111107720269" dx="0em" dy="0.3em" fill="rgb(50, 49, 63)" stroke="none" stroke-width="1px">0</text><text style="text-anchor: end; visibility: inherit; font-family: Roboto, sans-serif; font-size: 12px; font-weight: 200;" x="0" y="293.92222192552356" dx="0em" dy="0.3em" fill="rgb(50, 49, 63)" stroke="none" stroke-width="1px">0.1</text><text style="text-anchor: end; visibility: inherit; font-family: Roboto, sans-serif; font-size: 12px; font-weight: 200;" x="0" y="251.93333307902017" dx="0em" dy="0.3em" fill="rgb(50, 49, 63)" stroke="none" stroke-width="1px">0.2</text><text style="text-anchor: end; visibility: inherit; font-family: Roboto, sans-serif; font-size: 12px; font-weight: 200;" x="0" y="209.94444423251682" dx="0em" dy="0.3em" fill="rgb(50, 49, 63)" stroke="none" stroke-width="1px">0.3</text><text style="text-anchor: end; visibility: inherit; font-family: Roboto, sans-serif; font-size: 12px; font-weight: 200;" x="0" y="167.95555538601346" dx="0em" dy="0.3em" fill="rgb(50, 49, 63)" stroke="none" stroke-width="1px">0.4</text><text style="text-anchor: end; visibility: inherit; font-family: Roboto, sans-serif; font-size: 12px; font-weight: 200;" x="0" y="125.9666665395101" dx="0em" dy="0.3em" fill="rgb(50, 49, 63)" stroke="none" stroke-width="1px">0.5</text><text style="text-anchor: end; visibility: inherit; font-family: Roboto, sans-serif; font-size: 12px; font-weight: 200;" x="0" y="83.97777769300677" dx="0em" dy="0.3em" fill="rgb(50, 49, 63)" stroke="none" stroke-width="1px">0.6</text><text style="text-anchor: end; visibility: inherit; font-family: Roboto, sans-serif; font-size: 12px; font-weight: 200;" x="0" y="41.988888846503386" dx="0em" dy="0.3em" fill="rgb(50, 49, 63)" stroke="none" stroke-width="1px">0.7</text><text style="text-anchor: end; visibility: hidden; font-family: Roboto, sans-serif; font-size: 12px; font-weight: 200;" x="0" y="0" dx="0em" dy="0.3em" fill="rgb(50, 49, 63)" stroke="none" stroke-width="1px">0.8</text></g><line x1="51.53200149536133" y1="0" x2="51.53200149536133" y2="377.8999996185303" fill="rgb(0, 0, 0)" stroke="rgb(204, 204, 204)" stroke-width="1px"></line></g></g><g transform="translate(51, 0)" clip-path="url(#clip_0)"><clipPath id="clip_0"><rect width="1382" height="377"></rect></clipPath><g><g><g><line x1="0" y1="0" x2="0" y2="377.8999996185303" fill="rgb(0, 0, 0)" stroke="rgb(60, 60, 60)" stroke-width="1px" opacity="0.25"></line><line x1="115.20566654205322" y1="0" x2="115.20566654205322" y2="377.8999996185303" fill="rgb(0, 0, 0)" stroke="rgb(60, 60, 60)" stroke-width="1px" opacity="0.25"></line><line x1="230.41133308410645" y1="0" x2="230.41133308410645" y2="377.8999996185303" fill="rgb(0, 0, 0)" stroke="rgb(60, 60, 60)" stroke-width="1px" opacity="0.25"></line><line x1="345.61699962615967" y1="0" x2="345.61699962615967" y2="377.8999996185303" fill="rgb(0, 0, 0)" stroke="rgb(60, 60, 60)" stroke-width="1px" opacity="0.25"></line><line x1="460.8226661682129" y1="0" x2="460.8226661682129" y2="377.8999996185303" fill="rgb(0, 0, 0)" stroke="rgb(60, 60, 60)" stroke-width="1px" opacity="0.25"></line><line x1="576.0283327102661" y1="0" x2="576.0283327102661" y2="377.8999996185303" fill="rgb(0, 0, 0)" stroke="rgb(60, 60, 60)" stroke-width="1px" opacity="0.25"></line><line x1="691.2339992523193" y1="0" x2="691.2339992523193" y2="377.8999996185303" fill="rgb(0, 0, 0)" stroke="rgb(60, 60, 60)" stroke-width="1px" opacity="0.25"></line><line x1="806.4396657943726" y1="0" x2="806.4396657943726" y2="377.8999996185303" fill="rgb(0, 0, 0)" stroke="rgb(60, 60, 60)" stroke-width="1px" opacity="0.25"></line><line x1="921.6453323364258" y1="0" x2="921.6453323364258" y2="377.8999996185303" fill="rgb(0, 0, 0)" stroke="rgb(60, 60, 60)" stroke-width="1px" opacity="0.25"></line><line x1="1036.850998878479" y1="0" x2="1036.850998878479" y2="377.8999996185303" fill="rgb(0, 0, 0)" stroke="rgb(60, 60, 60)" stroke-width="1px" opacity="0.25"></line><line x1="1152.0566654205322" y1="0" x2="1152.0566654205322" y2="377.8999996185303" fill="rgb(0, 0, 0)" stroke="rgb(60, 60, 60)" stroke-width="1px" opacity="0.25"></line><line x1="1267.2623319625854" y1="0" x2="1267.2623319625854" y2="377.8999996185303" fill="rgb(0, 0, 0)" stroke="rgb(60, 60, 60)" stroke-width="1px" opacity="0.25"></line><line x1="1382.4679985046387" y1="0" x2="1382.4679985046387" y2="377.8999996185303" fill="rgb(0, 0, 0)" stroke="rgb(60, 60, 60)" stroke-width="1px" opacity="0.25"></line></g><g><line x1="0" y1="377.8999996185303" x2="1382.4679985046387" y2="377.8999996185303" fill="rgb(0, 0, 0)" stroke="rgb(60, 60, 60)" stroke-width="1px" opacity="0.25"></line><line x1="0" y1="335.9111107720269" x2="1382.4679985046387" y2="335.9111107720269" fill="rgb(0, 0, 0)" stroke="rgb(60, 60, 60)" stroke-width="1px" opacity="0.25"></line><line x1="0" y1="293.92222192552356" x2="1382.4679985046387" y2="293.92222192552356" fill="rgb(0, 0, 0)" stroke="rgb(60, 60, 60)" stroke-width="1px" opacity="0.25"></line><line x1="0" y1="251.93333307902017" x2="1382.4679985046387" y2="251.93333307902017" fill="rgb(0, 0, 0)" stroke="rgb(60, 60, 60)" stroke-width="1px" opacity="0.25"></line><line x1="0" y1="209.94444423251682" x2="1382.4679985046387" y2="209.94444423251682" fill="rgb(0, 0, 0)" stroke="rgb(60, 60, 60)" stroke-width="1px" opacity="0.25"></line><line x1="0" y1="167.95555538601346" x2="1382.4679985046387" y2="167.95555538601346" fill="rgb(0, 0, 0)" stroke="rgb(60, 60, 60)" stroke-width="1px" opacity="0.25"></line><line x1="0" y1="125.9666665395101" x2="1382.4679985046387" y2="125.9666665395101" fill="rgb(0, 0, 0)" stroke="rgb(60, 60, 60)" stroke-width="1px" opacity="0.25"></line><line x1="0" y1="83.97777769300677" x2="1382.4679985046387" y2="83.97777769300677" fill="rgb(0, 0, 0)" stroke="rgb(60, 60, 60)" stroke-width="1px" opacity="0.25"></line><line x1="0" y1="41.988888846503386" x2="1382.4679985046387" y2="41.988888846503386" fill="rgb(0, 0, 0)" stroke="rgb(60, 60, 60)" stroke-width="1px" opacity="0.25"></line><line x1="0" y1="0" x2="1382.4679985046387" y2="0" fill="rgb(0, 0, 0)" stroke="rgb(60, 60, 60)" stroke-width="1px" opacity="0.25"></line></g></g></g><g><g><line x1="0" y1="335.9111107720269" x2="1382.4679985046387" y2="335.9111107720269" fill="rgb(0, 0, 0)" stroke="rgb(153, 153, 153)" stroke-width="1.5px"></line></g></g><g><g><line x1="115.20566654205322" y1="0" x2="115.20566654205322" y2="377.8999996185303" fill="rgb(0, 0, 0)" stroke="rgb(153, 153, 153)" stroke-width="1.5px"></line></g></g><g><g><g><g><g><path style="fill: none;" stroke="rgb(0, 119, 187)" stroke-width="2px" d="M115.20566654205322,227.37220659549791L138.24679985046387,227.7620572844096L161.28793315887452,232.17440024555845L184.32906646728514,227.90796660689497L207.3701997756958,229.37619480648434L230.41133308410645,227.71754618148674L253.45246639251707,228.59915883909747L276.49359970092775,230.5419302056929L299.53473300933837,232.99923840950572L322.57586631774905,227.38487042348726L345.61699962615967,229.33882900571746L368.6581329345703,229.40949366644435L391.69926624298097,229.14112562784896L414.7403995513916,224.45428293273446L437.7815328598022,228.2100589700271L460.8226661682129,230.02099888616075L483.8637994766235,228.18790978470983L506.90493278503413,224.55636940381814L529.9460660934449,229.5754248513634L552.9871994018555,227.36345954434722L576.0283327102661,227.5824361510515L599.0694660186767,227.44304644752106L622.1105993270875,230.13181989473114L645.1517326354981,228.5937279089123L668.1928659439087,227.68347147435745L691.2339992523193,227.00585656761777L714.2751325607301,227.07937434374142L737.3162658691406,226.04527017637022L760.3573991775513,223.65677461100915L783.3985324859619,227.32155128354074L806.4396657943726,228.92254945839338L829.4807991027832,227.6467688977837L852.5219324111939,229.64834197161403L875.5630657196044,227.89509004661736L898.6041990280152,227.9450696207174L921.6453323364258,228.8721444197166L944.6864656448364,228.59212615991763L967.727598953247,230.05357195360756L990.7687322616578,225.9113989986731L1013.8098655700683,226.56864166038645L1036.850998878479,228.42856005749854L1059.8921321868897,230.440919909715L1082.9332654953002,227.02293771900653L1105.974398803711,225.26641972770034L1129.0155321121215,227.1360111871007L1152.0566654205322,225.85576324843552L1175.0977987289427,227.54633423035077L1198.1389320373535,229.5785908083607L1221.1800653457642,228.31016828219543L1244.221198654175,229.0819359970294" fill="none"></path></g><g><path style="fill: none;" stroke="rgb(51, 187, 238)" stroke-width="2px" d="M115.20566654205322,223.0497117420202L138.24679985046387,227.8543580702288L161.28793315887452,228.38422414587197L184.32906646728514,228.66290344362068L207.3701997756958,226.74384547034512L230.41133308410645,227.79172718180348L253.45246639251707,228.67945902112052L276.49359970092775,226.22825748534999L299.53473300933837,223.87954285791182L322.57586631774905,226.13135167117102L345.61699962615967,224.8597631880084L368.6581329345703,227.62003971143474L391.69926624298097,223.2833668766212L414.7403995513916,228.72328187252225L437.7815328598022,226.64230960047834L460.8226661682129,228.3319795985841L483.8637994766235,227.2764645520729L506.90493278503413,228.56163036069833L529.9460660934449,226.8120824802519L552.9871994018555,227.0296450429218L576.0283327102661,230.74118527790003L599.0694660186767,228.4529742160036L622.1105993270875,228.25931275161392L645.1517326354981,231.86451186974125L668.1928659439087,225.38796494633675L691.2339992523193,226.7444711535462L714.2751325607301,225.46199578268525L737.3162658691406,228.1645342603185L760.3573991775513,229.43400793426153L783.3985324859619,226.5365065711804L806.4396657943726,225.12547832983128L829.4807991027832,232.1067200937006L852.5219324111939,228.8180603638176L875.5630657196044,226.06840794114515L898.6041990280152,226.24140934623614L921.6453323364258,229.1800431229544L944.6864656448364,227.8168295918297L967.727598953247,228.05520237776665L990.7687322616578,229.34571152092903L1013.8098655700683,227.23921137428223L1036.850998878479,226.12167860888275L1059.8921321868897,225.30040683918148L1082.9332654953002,228.68532792954642L1105.974398803711,228.105382170491L1129.0155321121215,230.68701362635292L1152.0566654205322,229.10927835291542L1175.0977987289427,227.0354263556995L1198.1389320373535,223.72990446354817L1221.1800653457642,227.5067409973882L1244.221198654175,230.5810604330867" fill="none"></path></g><g><path style="fill: none;" stroke="rgb(0, 153, 136)" stroke-width="2px" d="M115.20566654205322,226.54091138091584L138.24679985046387,226.5800666356377L161.28793315887452,223.83598279345458L184.32906646728514,225.8117026374174L207.3701997756958,226.35842461849694L230.41133308410645,224.31158962190247L253.45246639251707,220.4666537284599L276.49359970092775,227.36583714051125L299.53473300933837,225.86123171961273L322.57586631774905,222.5827268280828L345.61699962615967,227.74750389315312L368.6581329345703,230.46274373976775L391.69926624298097,225.44615348403462L414.7403995513916,224.44188189168958L437.7815328598022,226.0454829086586L460.8226661682129,228.54771516630694L483.8637994766235,226.7346103862976L506.90493278503413,225.53871705679828L529.9460660934449,222.64847361884935L552.9871994018555,225.74780786892595L576.0283327102661,219.29962942185713L599.0694660186767,227.45995240761349L622.1105993270875,226.15856889041677L645.1517326354981,227.78791051427706L668.1928659439087,223.9740585622628L691.2339992523193,226.53598099729152L714.2751325607301,226.2477662875588L737.3162658691406,225.7267348587145L760.3573991775513,227.8301816713402L783.3985324859619,226.80766515685247L806.4396657943726,224.2662526171542L829.4807991027832,222.62765088191836L852.5219324111939,224.89605281366946L875.5630657196044,225.75831934670362L898.6041990280152,226.2349147546092L921.6453323364258,222.9954274674969L944.6864656448364,227.02722990576572L967.727598953247,229.63849371802948L990.7687322616578,228.04171264795193L1013.8098655700683,224.99140693350984L1036.850998878479,224.34224809875406L1059.8921321868897,226.52307940968586L1082.9332654953002,222.8131909783584L1105.974398803711,221.00923368674842L1129.0155321121215,225.5332610992851L1152.0566654205322,218.95151180245566L1175.0977987289427,224.91398489421158L1198.1389320373535,226.36917385589098L1221.1800653457642,220.70141006549474L1244.221198654175,223.5597061191979" fill="none"></path></g><g><path style="fill: none;" stroke="rgb(51, 187, 238)" stroke-width="2px" d="M115.20566654205322,223.60384181220013L138.24679985046387,227.25477837232444L161.28793315887452,225.36532772812268L184.32906646728514,224.20213260271038L207.3701997756958,223.02026709057867L230.41133308410645,221.58142097411076L253.45246639251707,220.86916824536087L276.49359970092775,221.5209924905531L299.53473300933837,217.170329379364L322.57586631774905,219.58152473125924L345.61699962615967,215.12258088529603L368.6581329345703,219.32911161429072L391.69926624298097,218.95151180245566L414.7403995513916,210.0428341672487L437.7815328598022,211.3305402496704L460.8226661682129,209.61183855103587L483.8637994766235,211.47932771488067L506.90493278503413,207.83362186631717L529.9460660934449,204.80579069245684L552.9871994018555,202.570837784634L576.0283327102661,197.40231913402138L599.0694660186767,196.47160285879207L622.1105993270875,192.81643668022866L645.1517326354981,192.70257485130116L668.1928659439087,192.67045227575917L691.2339992523193,188.59904409086369L714.2751325607301,183.0210282988264L737.3162658691406,186.60191336776083L760.3573991775513,175.50852518577557L783.3985324859619,176.69150441400515L806.4396657943726,174.08610951016726L829.4807991027832,169.55852821704863L852.5219324111939,170.55555439792545L875.5630657196044,160.2236977536049L898.6041990280152,154.48236613242895L921.6453323364258,152.9827536634748L944.6864656448364,141.31269830240768L967.727598953247,146.24286919441144L990.7687322616578,135.78856634764495L1013.8098655700683,136.64457604866865L1036.850998878479,132.419062091354L1059.8921321868897,118.7171505895256L1082.9332654953002,120.06694947281972L1105.974398803711,110.37036149619163L1129.0155321121215,111.96945759411307L1152.0566654205322,97.59856561371951L1175.0977987289427,96.68499305819905L1198.1389320373535,92.39263110768397L1221.1800653457642,89.56058872109696L1244.221198654175,69.71822228414129" fill="none"></path></g></g></g></g></g></g><g transform="translate(51, 377)" clip-path="url(#clip_1)"><clipPath id="clip_1"><rect width="1382" height="22"></rect></clipPath><g><g><line x1="0" y1="0" x2="0" y2="5" style="visibility: inherit;" fill="rgb(0, 0, 0)" stroke="rgb(204, 204, 204)" stroke-width="1px"></line><line x1="115.20566654205322" y1="0" x2="115.20566654205322" y2="5" style="visibility: inherit;" fill="rgb(0, 0, 0)" stroke="rgb(204, 204, 204)" stroke-width="1px"></line><line x1="230.41133308410645" y1="0" x2="230.41133308410645" y2="5" style="visibility: inherit;" fill="rgb(0, 0, 0)" stroke="rgb(204, 204, 204)" stroke-width="1px"></line><line x1="345.61699962615967" y1="0" x2="345.61699962615967" y2="5" style="visibility: inherit;" fill="rgb(0, 0, 0)" stroke="rgb(204, 204, 204)" stroke-width="1px"></line><line x1="460.8226661682129" y1="0" x2="460.8226661682129" y2="5" style="visibility: inherit;" fill="rgb(0, 0, 0)" stroke="rgb(204, 204, 204)" stroke-width="1px"></line><line x1="576.0283327102661" y1="0" x2="576.0283327102661" y2="5" style="visibility: inherit;" fill="rgb(0, 0, 0)" stroke="rgb(204, 204, 204)" stroke-width="1px"></line><line x1="691.2339992523193" y1="0" x2="691.2339992523193" y2="5" style="visibility: inherit;" fill="rgb(0, 0, 0)" stroke="rgb(204, 204, 204)" stroke-width="1px"></line><line x1="806.4396657943726" y1="0" x2="806.4396657943726" y2="5" style="visibility: inherit;" fill="rgb(0, 0, 0)" stroke="rgb(204, 204, 204)" stroke-width="1px"></line><line x1="921.6453323364258" y1="0" x2="921.6453323364258" y2="5" style="visibility: inherit;" fill="rgb(0, 0, 0)" stroke="rgb(204, 204, 204)" stroke-width="1px"></line><line x1="1036.850998878479" y1="0" x2="1036.850998878479" y2="5" style="visibility: inherit;" fill="rgb(0, 0, 0)" stroke="rgb(204, 204, 204)" stroke-width="1px"></line><line x1="1152.0566654205322" y1="0" x2="1152.0566654205322" y2="5" style="visibility: inherit;" fill="rgb(0, 0, 0)" stroke="rgb(204, 204, 204)" stroke-width="1px"></line><line x1="1267.2623319625854" y1="0" x2="1267.2623319625854" y2="5" style="visibility: inherit;" fill="rgb(0, 0, 0)" stroke="rgb(204, 204, 204)" stroke-width="1px"></line><line x1="1382.4679985046387" y1="0" x2="1382.4679985046387" y2="5" style="visibility: inherit;" fill="rgb(0, 0, 0)" stroke="rgb(204, 204, 204)" stroke-width="1px"></line></g><g transform="translate(0, 8)"><text style="text-anchor: middle; visibility: hidden; font-family: Roboto, sans-serif; font-size: 12px; font-weight: 200;" x="0" y="0" dx="0em" dy="0.95em" fill="rgb(50, 49, 63)" stroke="none" stroke-width="1px">-5</text><text style="text-anchor: middle; visibility: inherit; font-family: Roboto, sans-serif; font-size: 12px; font-weight: 200;" x="115.20566654205322" y="0" dx="0em" dy="0.95em" fill="rgb(50, 49, 63)" stroke="none" stroke-width="1px">0</text><text style="text-anchor: middle; visibility: inherit; font-family: Roboto, sans-serif; font-size: 12px; font-weight: 200;" x="230.41133308410645" y="0" dx="0em" dy="0.95em" fill="rgb(50, 49, 63)" stroke="none" stroke-width="1px">5</text><text style="text-anchor: middle; visibility: inherit; font-family: Roboto, sans-serif; font-size: 12px; font-weight: 200;" x="345.61699962615967" y="0" dx="0em" dy="0.95em" fill="rgb(50, 49, 63)" stroke="none" stroke-width="1px">10</text><text style="text-anchor: middle; visibility: inherit; font-family: Roboto, sans-serif; font-size: 12px; font-weight: 200;" x="460.8226661682129" y="0" dx="0em" dy="0.95em" fill="rgb(50, 49, 63)" stroke="none" stroke-width="1px">15</text><text style="text-anchor: middle; visibility: inherit; font-family: Roboto, sans-serif; font-size: 12px; font-weight: 200;" x="576.0283327102661" y="0" dx="0em" dy="0.95em" fill="rgb(50, 49, 63)" stroke="none" stroke-width="1px">20</text><text style="text-anchor: middle; visibility: inherit; font-family: Roboto, sans-serif; font-size: 12px; font-weight: 200;" x="691.2339992523193" y="0" dx="0em" dy="0.95em" fill="rgb(50, 49, 63)" stroke="none" stroke-width="1px">25</text><text style="text-anchor: middle; visibility: inherit; font-family: Roboto, sans-serif; font-size: 12px; font-weight: 200;" x="806.4396657943726" y="0" dx="0em" dy="0.95em" fill="rgb(50, 49, 63)" stroke="none" stroke-width="1px">30</text><text style="text-anchor: middle; visibility: inherit; font-family: Roboto, sans-serif; font-size: 12px; font-weight: 200;" x="921.6453323364258" y="0" dx="0em" dy="0.95em" fill="rgb(50, 49, 63)" stroke="none" stroke-width="1px">35</text><text style="text-anchor: middle; visibility: inherit; font-family: Roboto, sans-serif; font-size: 12px; font-weight: 200;" x="1036.850998878479" y="0" dx="0em" dy="0.95em" fill="rgb(50, 49, 63)" stroke="none" stroke-width="1px">40</text><text style="text-anchor: middle; visibility: inherit; font-family: Roboto, sans-serif; font-size: 12px; font-weight: 200;" x="1152.0566654205322" y="0" dx="0em" dy="0.95em" fill="rgb(50, 49, 63)" stroke="none" stroke-width="1px">45</text><text style="text-anchor: middle; visibility: inherit; font-family: Roboto, sans-serif; font-size: 12px; font-weight: 200;" x="1267.2623319625854" y="0" dx="0em" dy="0.95em" fill="rgb(50, 49, 63)" stroke="none" stroke-width="1px">50</text><text style="text-anchor: middle; visibility: hidden; font-family: Roboto, sans-serif; font-size: 12px; font-weight: 200;" x="1382.4679985046387" y="0" dx="0em" dy="0.95em" fill="rgb(50, 49, 63)" stroke="none" stroke-width="1px">55</text></g><line x1="0" y1="0" x2="1382.4679985046387" y2="0" fill="rgb(0, 0, 0)" stroke="rgb(204, 204, 204)" stroke-width="1px"></line></g></g></g></g></svg>