<svg viewBox="0 0 1434 400" xmlns="http://www.w3.org/2000/svg"><g><g><g><g><g><line x1="51.53200149536133" y1="377.8999996185303" x2="46.53200149536133" y2="377.8999996185303" style="visibility: inherit;" fill="rgb(0, 0, 0)" stroke="rgb(204, 204, 204)" stroke-width="1px"></line><line x1="51.53200149536133" y1="348.8307688786433" x2="46.53200149536133" y2="348.8307688786433" style="visibility: inherit;" fill="rgb(0, 0, 0)" stroke="rgb(204, 204, 204)" stroke-width="1px"></line><line x1="51.53200149536133" y1="319.76153813875635" x2="46.53200149536133" y2="319.76153813875635" style="visibility: inherit;" fill="rgb(0, 0, 0)" stroke="rgb(204, 204, 204)" stroke-width="1px"></line><line x1="51.53200149536133" y1="290.6923073988694" x2="46.53200149536133" y2="290.6923073988694" style="visibility: inherit;" fill="rgb(0, 0, 0)" stroke="rgb(204, 204, 204)" stroke-width="1px"></line><line x1="51.53200149536133" y1="261.6230766589824" x2="46.53200149536133" y2="261.6230766589824" style="visibility: inherit;" fill="rgb(0, 0, 0)" stroke="rgb(204, 204, 204)" stroke-width="1px"></line><line x1="51.53200149536133" y1="232.55384591909572" x2="46.53200149536133" y2="232.55384591909572" style="visibility: inherit;" fill="rgb(0, 0, 0)" stroke="rgb(204, 204, 204)" stroke-width="1px"></line><line x1="51.53200149536133" y1="203.48461517920882" x2="46.53200149536133" y2="203.48461517920882" style="visibility: inherit;" fill="rgb(0, 0, 0)" stroke="rgb(204, 204, 204)" stroke-width="1px"></line><line x1="51.53200149536133" y1="174.4153844393218" x2="46.53200149536133" y2="174.4153844393218" style="visibility: inherit;" fill="rgb(0, 0, 0)" stroke="rgb(204, 204, 204)" stroke-width="1px"></line><line x1="51.53200149536133" y1="145.34615369943484" x2="46.53200149536133" y2="145.34615369943484" style="visibility: inherit;" fill="rgb(0, 0, 0)" stroke="rgb(204, 204, 204)" stroke-width="1px"></line><line x1="51.53200149536133" y1="116.27692295954786" x2="46.53200149536133" y2="116.27692295954786" style="visibility: inherit;" fill="rgb(0, 0, 0)" stroke="rgb(204, 204, 204)" stroke-width="1px"></line><line x1="51.53200149536133" y1="87.2076922196609" x2="46.53200149536133" y2="87.2076922196609" style="visibility: inherit;" fill="rgb(0, 0, 0)" stroke="rgb(204, 204, 204)" stroke-width="1px"></line><line x1="51.53200149536133" y1="58.13846147977393" x2="46.53200149536133" y2="58.13846147977393" style="visibility: inherit;" fill="rgb(0, 0, 0)" stroke="rgb(204, 204, 204)" stroke-width="1px"></line><line x1="51.53200149536133" y1="29.069230739886965" x2="46.53200149536133" y2="29.069230739886965" style="visibility: inherit;" fill="rgb(0, 0, 0)" stroke="rgb(204, 204, 204)" stroke-width="1px"></line><line x1="51.53200149536133" y1="0" x2="46.53200149536133" y2="0" style="visibility: inherit;" fill="rgb(0, 0, 0)" stroke="rgb(204, 204, 204)" stroke-width="1px"></line></g><g transform="translate(41.53200149536133, 0)"><text style="text-anchor: end; visibility: hidden; font-family: Roboto, sans-serif; font-size: 12px; font-weight: 200;" x="0" y="377.8999996185303" dx="0em" dy="0.3em" fill="rgb(50, 49, 63)" stroke="none" stroke-width="1px">0.77</text><text style="text-anchor: end; visibility: inherit; font-family: Roboto, sans-serif; font-size: 12px; font-weight: 200;" x="0" y="348.8307688786433" dx="0em" dy="0.3em" fill="rgb(50, 49, 63)" stroke="none" stroke-width="1px">0.78</text><text style="text-anchor: end; visibility: inherit; font-family: Roboto, sans-serif; font-size: 12px; font-weight: 200;" x="0" y="319.76153813875635" dx="0em" dy="0.3em" fill="rgb(50, 49, 63)" stroke="none" stroke-width="1px">0.79</text><text style="text-anchor: end; visibility: inherit; font-family: Roboto, sans-serif; font-size: 12px; font-weight: 200;" x="0" y="290.6923073988694" dx="0em" dy="0.3em" fill="rgb(50, 49, 63)" stroke="none" stroke-width="1px">0.8</text><text style="text-anchor: end; visibility: inherit; font-family: Roboto, sans-serif; font-size: 12px; font-weight: 200;" x="0" y="261.6230766589824" dx="0em" dy="0.3em" fill="rgb(50, 49, 63)" stroke="none" stroke-width="1px">0.81</text><text style="text-anchor: end; visibility: inherit; font-family: Roboto, sans-serif; font-size: 12px; font-weight: 200;" x="0" y="232.55384591909572" dx="0em" dy="0.3em" fill="rgb(50, 49, 63)" stroke="none" stroke-width="1px">0.82</text><text style="text-anchor: end; visibility: inherit; font-family: Roboto, sans-serif; font-size: 12px; font-weight: 200;" x="0" y="203.48461517920882" dx="0em" dy="0.3em" fill="rgb(50, 49, 63)" stroke="none" stroke-width="1px">0.83</text><text style="text-anchor: end; visibility: inherit; font-family: Roboto, sans-serif; font-size: 12px; font-weight: 200;" x="0" y="174.4153844393218" dx="0em" dy="0.3em" fill="rgb(50, 49, 63)" stroke="none" stroke-width="1px">0.84</text><text style="text-anchor: end; visibility: inherit; font-family: Roboto, sans-serif; font-size: 12px; font-weight: 200;" x="0" y="145.34615369943484" dx="0em" dy="0.3em" fill="rgb(50, 49, 63)" stroke="none" stroke-width="1px">0.85</text><text style="text-anchor: end; visibility: inherit; font-family: Roboto, sans-serif; font-size: 12px; font-weight: 200;" x="0" y="116.27692295954786" dx="0em" dy="0.3em" fill="rgb(50, 49, 63)" stroke="none" stroke-width="1px">0.86</text><text style="text-anchor: end; visibility: inherit; font-family: Roboto, sans-serif; font-size: 12px; font-weight: 200;" x="0" y="87.2076922196609" dx="0em" dy="0.3em" fill="rgb(50, 49, 63)" stroke="none" stroke-width="1px">0.87</text><text style="text-anchor: end; visibility: inherit; font-family: Roboto, sans-serif; font-size: 12px; font-weight: 200;" x="0" y="58.13846147977393" dx="0em" dy="0.3em" fill="rgb(50, 49, 63)" stroke="none" stroke-width="1px">0.88</text><text style="text-anchor: end; visibility: inherit; font-family: Roboto, sans-serif; font-size: 12px; font-weight: 200;" x="0" y="29.069230739886965" dx="0em" dy="0.3em" fill="rgb(50, 49, 63)" stroke="none" stroke-width="1px">0.89</text><text style="text-anchor: end; visibility: hidden; font-family: Roboto, sans-serif; font-size: 12px; font-weight: 200;" x="0" y="0" dx="0em" dy="0.3em" fill="rgb(50, 49, 63)" stroke="none" stroke-width="1px">0.9</text></g><line x1="51.53200149536133" y1="0" x2="51.53200149536133" y2="377.8999996185303" fill="rgb(0, 0, 0)" stroke="rgb(204, 204, 204)" stroke-width="1px"></line></g></g><g transform="translate(51, 0)" clip-path="url(#clip_0)"><clipPath id="clip_0"><rect width="1382" height="377"></rect></clipPath><g><g><g><line x1="0" y1="0" x2="0" y2="377.8999996185303" fill="rgb(0, 0, 0)" stroke="rgb(60, 60, 60)" stroke-width="1px" opacity="0.25"></line><line x1="115.20566654205322" y1="0" x2="115.20566654205322" y2="377.8999996185303" fill="rgb(0, 0, 0)" stroke="rgb(60, 60, 60)" stroke-width="1px" opacity="0.25"></line><line x1="230.41133308410645" y1="0" x2="230.41133308410645" y2="377.8999996185303" fill="rgb(0, 0, 0)" stroke="rgb(60, 60, 60)" stroke-width="1px" opacity="0.25"></line><line x1="345.61699962615967" y1="0" x2="345.61699962615967" y2="377.8999996185303" fill="rgb(0, 0, 0)" stroke="rgb(60, 60, 60)" stroke-width="1px" opacity="0.25"></line><line x1="460.8226661682129" y1="0" x2="460.8226661682129" y2="377.8999996185303" fill="rgb(0, 0, 0)" stroke="rgb(60, 60, 60)" stroke-width="1px" opacity="0.25"></line><line x1="576.0283327102661" y1="0" x2="576.0283327102661" y2="377.8999996185303" fill="rgb(0, 0, 0)" stroke="rgb(60, 60, 60)" stroke-width="1px" opacity="0.25"></line><line x1="691.2339992523193" y1="0" x2="691.2339992523193" y2="377.8999996185303" fill="rgb(0, 0, 0)" stroke="rgb(60, 60, 60)" stroke-width="1px" opacity="0.25"></line><line x1="806.4396657943726" y1="0" x2="806.4396657943726" y2="377.8999996185303" fill="rgb(0, 0, 0)" stroke="rgb(60, 60, 60)" stroke-width="1px" opacity="0.25"></line><line x1="921.6453323364258" y1="0" x2="921.6453323364258" y2="377.8999996185303" fill="rgb(0, 0, 0)" stroke="rgb(60, 60, 60)" stroke-width="1px" opacity="0.25"></line><line x1="1036.850998878479" y1="0" x2="1036.850998878479" y2="377.8999996185303" fill="rgb(0, 0, 0)" stroke="rgb(60, 60, 60)" stroke-width="1px" opacity="0.25"></line><line x1="1152.0566654205322" y1="0" x2="1152.0566654205322" y2="377.8999996185303" fill="rgb(0, 0, 0)" stroke="rgb(60, 60, 60)" stroke-width="1px" opacity="0.25"></line><line x1="1267.2623319625854" y1="0" x2="1267.2623319625854" y2="377.8999996185303" fill="rgb(0, 0, 0)" stroke="rgb(60, 60, 60)" stroke-width="1px" opacity="0.25"></line><line x1="1382.4679985046387" y1="0" x2="1382.4679985046387" y2="377.8999996185303" fill="rgb(0, 0, 0)" stroke="rgb(60, 60, 60)" stroke-width="1px" opacity="0.25"></line></g><g><line x1="0" y1="377.8999996185303" x2="1382.4679985046387" y2="377.8999996185303" fill="rgb(0, 0, 0)" stroke="rgb(60, 60, 60)" stroke-width="1px" opacity="0.25"></line><line x1="0" y1="348.8307688786433" x2="1382.4679985046387" y2="348.8307688786433" fill="rgb(0, 0, 0)" stroke="rgb(60, 60, 60)" stroke-width="1px" opacity="0.25"></line><line x1="0" y1="319.76153813875635" x2="1382.4679985046387" y2="319.76153813875635" fill="rgb(0, 0, 0)" stroke="rgb(60, 60, 60)" stroke-width="1px" opacity="0.25"></line><line x1="0" y1="290.6923073988694" x2="1382.4679985046387" y2="290.6923073988694" fill="rgb(0, 0, 0)" stroke="rgb(60, 60, 60)" stroke-width="1px" opacity="0.25"></line><line x1="0" y1="261.6230766589824" x2="1382.4679985046387" y2="261.6230766589824" fill="rgb(0, 0, 0)" stroke="rgb(60, 60, 60)" stroke-width="1px" opacity="0.25"></line><line x1="0" y1="232.55384591909572" x2="1382.4679985046387" y2="232.55384591909572" fill="rgb(0, 0, 0)" stroke="rgb(60, 60, 60)" stroke-width="1px" opacity="0.25"></line><line x1="0" y1="203.48461517920882" x2="1382.4679985046387" y2="203.48461517920882" fill="rgb(0, 0, 0)" stroke="rgb(60, 60, 60)" stroke-width="1px" opacity="0.25"></line><line x1="0" y1="174.4153844393218" x2="1382.4679985046387" y2="174.4153844393218" fill="rgb(0, 0, 0)" stroke="rgb(60, 60, 60)" stroke-width="1px" opacity="0.25"></line><line x1="0" y1="145.34615369943484" x2="1382.4679985046387" y2="145.34615369943484" fill="rgb(0, 0, 0)" stroke="rgb(60, 60, 60)" stroke-width="1px" opacity="0.25"></line><line x1="0" y1="116.27692295954786" x2="1382.4679985046387" y2="116.27692295954786" fill="rgb(0, 0, 0)" stroke="rgb(60, 60, 60)" stroke-width="1px" opacity="0.25"></line><line x1="0" y1="87.2076922196609" x2="1382.4679985046387" y2="87.2076922196609" fill="rgb(0, 0, 0)" stroke="rgb(60, 60, 60)" stroke-width="1px" opacity="0.25"></line><line x1="0" y1="58.13846147977393" x2="1382.4679985046387" y2="58.13846147977393" fill="rgb(0, 0, 0)" stroke="rgb(60, 60, 60)" stroke-width="1px" opacity="0.25"></line><line x1="0" y1="29.069230739886965" x2="1382.4679985046387" y2="29.069230739886965" fill="rgb(0, 0, 0)" stroke="rgb(60, 60, 60)" stroke-width="1px" opacity="0.25"></line><line x1="0" y1="0" x2="1382.4679985046387" y2="0" fill="rgb(0, 0, 0)" stroke="rgb(60, 60, 60)" stroke-width="1px" opacity="0.25"></line></g></g></g><g><g><line x1="0" y1="2616.230766589825" x2="1382.4679985046387" y2="2616.230766589825" fill="rgb(0, 0, 0)" stroke="rgb(153, 153, 153)" stroke-width="1.5px"></line></g></g><g><g><line x1="115.20566654205322" y1="0" x2="115.20566654205322" y2="377.8999996185303" fill="rgb(0, 0, 0)" stroke="rgb(153, 153, 153)" stroke-width="1.5px"></line></g></g><g><g><g><g><g><path style="fill: none;" stroke="rgb(0, 119, 187)" stroke-width="2px" d="M115.20566654205322,61.27701778828647L138.24679985046387,61.27701778828647L161.28793315887452,53.80422341894306L184.32906646728514,65.0135016060168L207.3701997756958,74.72801299988117L230.41133308410645,65.76079836956285L253.45246639251707,65.0135016060168L276.49359970092775,70.24440568472201L299.53473300933837,63.51890807892464L322.57586631774905,66.50809513310892L345.61699962615967,76.2226065269733L368.6581329345703,77.71720005406543L391.69926624298097,71.73899921181413L414.7403995513916,76.96990329051938L437.7815328598022,61.27701778828647L460.8226661682129,73.98088950245234L483.8637994766235,76.2226065269733L506.90493278503413,82.94810413277068L529.9460660934449,62.7716113153786L552.9871994018555,76.96990329051938L576.0283327102661,77.71720005406543L599.0694660186767,82.20098063534184L622.1105993270875,60.52972102474039L645.1517326354981,68.00251539408384L668.1928659439087,73.23359273890625L691.2339992523193,58.28800400021943L714.2751325607301,76.2226065269733L737.3162658691406,70.9917024482681L760.3573991775513,73.98088950245234L783.3985324859619,71.73899921181413L806.4396657943726,71.73899921181413L829.4807991027832,59.03512749764826L852.5219324111939,69.49710892117596L875.5630657196044,66.50809513310892L898.6041990280152,79.21179358115755L921.6453323364258,64.26620484247073L944.6864656448364,67.25521863053777L967.727598953247,62.02431455183251L990.7687322616578,64.26620484247073L1013.8098655700683,61.27701778828647L1036.850998878479,65.76079836956285L1059.8921321868897,62.7716113153786L1082.9332654953002,73.23359273890625L1105.974398803711,72.48629597536022L1129.0155321121215,64.26620484247073L1152.0566654205322,73.98088950245234L1175.0977987289427,67.25521863053777L1198.1389320373535,64.26620484247073L1221.1800653457642,62.02431455183251L1244.221198654175,65.76079836956285" fill="none"></path></g><g><path style="fill: none;" stroke="rgb(51, 187, 238)" stroke-width="2px" d="M115.20566654205322,89.67377500468525L138.24679985046387,63.51890807892464L161.28793315887452,70.9917024482681L184.32906646728514,68.00251539408384L207.3701997756958,71.73899921181413L230.41133308410645,69.49710892117596L253.45246639251707,72.48629597536022L276.49359970092775,78.4644968176115L299.53473300933837,73.98088950245234L322.57586631774905,70.24440568472201L345.61699962615967,72.48629597536022L368.6581329345703,68.00251539408384L391.69926624298097,85.93729118695492L414.7403995513916,68.74981215762989L437.7815328598022,64.26620484247073L460.8226661682129,73.98088950245234L483.8637994766235,72.48629597536022L506.90493278503413,69.49710892117596L529.9460660934449,79.21179358115755L552.9871994018555,72.48629597536022L576.0283327102661,62.02431455183251L599.0694660186767,65.0135016060168L622.1105993270875,78.4644968176115L645.1517326354981,71.73899921181413L668.1928659439087,74.72801299988117L691.2339992523193,76.2226065269733L714.2751325607301,76.96990329051938L737.3162658691406,72.48629597536022L760.3573991775513,75.47530976342726L783.3985324859619,70.9917024482681L806.4396657943726,72.48629597536022L829.4807991027832,67.25521863053777L852.5219324111939,66.50809513310892L875.5630657196044,87.43188471404704L898.6041990280152,73.23359273890625L921.6453323364258,64.26620484247073L944.6864656448364,68.74981215762989L967.727598953247,83.69540089631676L990.7687322616578,62.7716113153786L1013.8098655700683,74.72801299988117L1036.850998878479,72.48629597536022L1059.8921321868897,74.72801299988117L1082.9332654953002,69.49710892117596L1105.974398803711,72.48629597536022L1129.0155321121215,66.50809513310892L1152.0566654205322,59.03512749764826L1175.0977987289427,74.72801299988117L1198.1389320373535,80.70638710824971L1221.1800653457642,62.7716113153786L1244.221198654175,65.76079836956285" fill="none"></path></g><g><path style="fill: none;" stroke="rgb(0, 153, 136)" stroke-width="2px" d="M115.20566654205322,64.94991294099907L138.24679985046387,69.47077247135934L161.28793315887452,82.27998998479164L184.32906646728514,71.73120223653947L207.3701997756958,72.48473658030527L230.41133308410645,58.16862364545865L253.45246639251707,83.786885406206L276.49359970092775,60.429053410638794L299.53473300933837,67.96387704994498L322.57586631774905,73.99163200171962L345.61699962615967,64.19637859723329L368.6581329345703,63.443017519584714L391.69926624298097,73.99163200171962L414.7403995513916,75.49870068925122L437.7815328598022,79.26602587584571L460.8226661682129,67.2103427061792L483.8637994766235,83.03335106244022L506.90493278503413,69.47077247135934L529.9460660934449,78.51249153207993L552.9871994018555,73.99163200171962L576.0283327102661,85.29378082762035L599.0694660186767,73.23827092407105L622.1105993270875,70.22430681512512L645.1517326354981,75.49870068925122L668.1928659439087,76.25206176689976L691.2339992523193,80.77292129726007L714.2751325607301,67.2103427061792L737.3162658691406,64.19637859723329L760.3573991775513,69.47077247135934L783.3985324859619,61.93594883205315L806.4396657943726,73.23827092407105L829.4807991027832,82.27998998479164L852.5219324111939,64.94991294099907L875.5630657196044,69.47077247135934L898.6041990280152,67.96387704994498L921.6453323364258,73.23827092407105L944.6864656448364,64.94991294099907L967.727598953247,77.00559611066558L990.7687322616578,56.661728224044296L1013.8098655700683,72.48473658030527L1036.850998878479,61.18258775440457L1059.8921321868897,73.23827092407105L1082.9332654953002,73.99163200171962L1105.974398803711,84.54041974997178L1129.0155321121215,81.52645564102586L1152.0566654205322,93.58213881069233L1175.0977987289427,83.03335106244022L1198.1389320373535,76.25206176689976L1221.1800653457642,88.30774493656627L1244.221198654175,77.75913045443136" fill="none"></path></g><g><path style="fill: none;" stroke="rgb(51, 187, 238)" stroke-width="2px" d="M115.20566654205322,76.25206176689976L138.24679985046387,66.45680836241343L161.28793315887452,73.23827092407105L184.32906646728514,77.75913045443136L207.3701997756958,80.0195602196115L230.41133308410645,74.7451663454854L253.45246639251707,75.49870068925122L276.49359970092775,88.30774493656627L299.53473300933837,86.04731517138613L322.57586631774905,79.26602587584571L345.61699962615967,83.786885406206L368.6581329345703,81.52645564102586L391.69926624298097,86.80084951515191L414.7403995513916,107.14471740177319L437.7815328598022,90.56817470174641L460.8226661682129,95.84256857587246L483.8637994766235,104.13075329282724L506.90493278503413,113.17264561966503L529.9460660934449,112.41911127589925L552.9871994018555,117.69350515002532L576.0283327102661,133.51651350628632L599.0694660186767,114.67954104107939L622.1105993270875,133.51651350628632L645.1517326354981,122.21436468038559L668.1928659439087,132.76297916252054L691.2339992523193,145.5721966759528L714.2751325607301,154.61391573667333L737.3162658691406,138.03737303664658L760.3573991775513,166.66959890633987L783.3985324859619,157.62787984561928L806.4396657943726,177.21838665459197L829.4807991027832,172.6975271242317L852.5219324111939,162.14873937597957L875.5630657196044,179.4788164197721L898.6041990280152,189.27406982425848L921.6453323364258,201.32957972780775L944.6864656448364,209.61793771087977L967.727598953247,205.09707818051945L990.7687322616578,223.1805163019606L1013.8098655700683,211.87836747605988L1036.850998878479,206.6039736019338L1059.8921321868897,239.75705900198736L1082.9332654953002,231.46887428503257L1105.974398803711,250.3058467502395L1129.0155321121215,242.01748876716752L1152.0566654205322,278.93807261993277L1175.0977987289427,267.635923794032L1198.1389320373535,278.93807261993277L1221.1800653457642,278.93807261993277L1244.221198654175,310.58408933245477" fill="none"></path></g></g></g></g></g></g><g transform="translate(51, 377)" clip-path="url(#clip_1)"><clipPath id="clip_1"><rect width="1382" height="22"></rect></clipPath><g><g><line x1="0" y1="0" x2="0" y2="5" style="visibility: inherit;" fill="rgb(0, 0, 0)" stroke="rgb(204, 204, 204)" stroke-width="1px"></line><line x1="115.20566654205322" y1="0" x2="115.20566654205322" y2="5" style="visibility: inherit;" fill="rgb(0, 0, 0)" stroke="rgb(204, 204, 204)" stroke-width="1px"></line><line x1="230.41133308410645" y1="0" x2="230.41133308410645" y2="5" style="visibility: inherit;" fill="rgb(0, 0, 0)" stroke="rgb(204, 204, 204)" stroke-width="1px"></line><line x1="345.61699962615967" y1="0" x2="345.61699962615967" y2="5" style="visibility: inherit;" fill="rgb(0, 0, 0)" stroke="rgb(204, 204, 204)" stroke-width="1px"></line><line x1="460.8226661682129" y1="0" x2="460.8226661682129" y2="5" style="visibility: inherit;" fill="rgb(0, 0, 0)" stroke="rgb(204, 204, 204)" stroke-width="1px"></line><line x1="576.0283327102661" y1="0" x2="576.0283327102661" y2="5" style="visibility: inherit;" fill="rgb(0, 0, 0)" stroke="rgb(204, 204, 204)" stroke-width="1px"></line><line x1="691.2339992523193" y1="0" x2="691.2339992523193" y2="5" style="visibility: inherit;" fill="rgb(0, 0, 0)" stroke="rgb(204, 204, 204)" stroke-width="1px"></line><line x1="806.4396657943726" y1="0" x2="806.4396657943726" y2="5" style="visibility: inherit;" fill="rgb(0, 0, 0)" stroke="rgb(204, 204, 204)" stroke-width="1px"></line><line x1="921.6453323364258" y1="0" x2="921.6453323364258" y2="5" style="visibility: inherit;" fill="rgb(0, 0, 0)" stroke="rgb(204, 204, 204)" stroke-width="1px"></line><line x1="1036.850998878479" y1="0" x2="1036.850998878479" y2="5" style="visibility: inherit;" fill="rgb(0, 0, 0)" stroke="rgb(204, 204, 204)" stroke-width="1px"></line><line x1="1152.0566654205322" y1="0" x2="1152.0566654205322" y2="5" style="visibility: inherit;" fill="rgb(0, 0, 0)" stroke="rgb(204, 204, 204)" stroke-width="1px"></line><line x1="1267.2623319625854" y1="0" x2="1267.2623319625854" y2="5" style="visibility: inherit;" fill="rgb(0, 0, 0)" stroke="rgb(204, 204, 204)" stroke-width="1px"></line><line x1="1382.4679985046387" y1="0" x2="1382.4679985046387" y2="5" style="visibility: inherit;" fill="rgb(0, 0, 0)" stroke="rgb(204, 204, 204)" stroke-width="1px"></line></g><g transform="translate(0, 8)"><text style="text-anchor: middle; visibility: hidden; font-family: Roboto, sans-serif; font-size: 12px; font-weight: 200;" x="0" y="0" dx="0em" dy="0.95em" fill="rgb(50, 49, 63)" stroke="none" stroke-width="1px">-5</text><text style="text-anchor: middle; visibility: inherit; font-family: Roboto, sans-serif; font-size: 12px; font-weight: 200;" x="115.20566654205322" y="0" dx="0em" dy="0.95em" fill="rgb(50, 49, 63)" stroke="none" stroke-width="1px">0</text><text style="text-anchor: middle; visibility: inherit; font-family: Roboto, sans-serif; font-size: 12px; font-weight: 200;" x="230.41133308410645" y="0" dx="0em" dy="0.95em" fill="rgb(50, 49, 63)" stroke="none" stroke-width="1px">5</text><text style="text-anchor: middle; visibility: inherit; font-family: Roboto, sans-serif; font-size: 12px; font-weight: 200;" x="345.61699962615967" y="0" dx="0em" dy="0.95em" fill="rgb(50, 49, 63)" stroke="none" stroke-width="1px">10</text><text style="text-anchor: middle; visibility: inherit; font-family: Roboto, sans-serif; font-size: 12px; font-weight: 200;" x="460.8226661682129" y="0" dx="0em" dy="0.95em" fill="rgb(50, 49, 63)" stroke="none" stroke-width="1px">15</text><text style="text-anchor: middle; visibility: inherit; font-family: Roboto, sans-serif; font-size: 12px; font-weight: 200;" x="576.0283327102661" y="0" dx="0em" dy="0.95em" fill="rgb(50, 49, 63)" stroke="none" stroke-width="1px">20</text><text style="text-anchor: middle; visibility: inherit; font-family: Roboto, sans-serif; font-size: 12px; font-weight: 200;" x="691.2339992523193" y="0" dx="0em" dy="0.95em" fill="rgb(50, 49, 63)" stroke="none" stroke-width="1px">25</text><text style="text-anchor: middle; visibility: inherit; font-family: Roboto, sans-serif; font-size: 12px; font-weight: 200;" x="806.4396657943726" y="0" dx="0em" dy="0.95em" fill="rgb(50, 49, 63)" stroke="none" stroke-width="1px">30</text><text style="text-anchor: middle; visibility: inherit; font-family: Roboto, sans-serif; font-size: 12px; font-weight: 200;" x="921.6453323364258" y="0" dx="0em" dy="0.95em" fill="rgb(50, 49, 63)" stroke="none" stroke-width="1px">35</text><text style="text-anchor: middle; visibility: inherit; font-family: Roboto, sans-serif; font-size: 12px; font-weight: 200;" x="1036.850998878479" y="0" dx="0em" dy="0.95em" fill="rgb(50, 49, 63)" stroke="none" stroke-width="1px">40</text><text style="text-anchor: middle; visibility: inherit; font-family: Roboto, sans-serif; font-size: 12px; font-weight: 200;" x="1152.0566654205322" y="0" dx="0em" dy="0.95em" fill="rgb(50, 49, 63)" stroke="none" stroke-width="1px">45</text><text style="text-anchor: middle; visibility: inherit; font-family: Roboto, sans-serif; font-size: 12px; font-weight: 200;" x="1267.2623319625854" y="0" dx="0em" dy="0.95em" fill="rgb(50, 49, 63)" stroke="none" stroke-width="1px">50</text><text style="text-anchor: middle; visibility: hidden; font-family: Roboto, sans-serif; font-size: 12px; font-weight: 200;" x="1382.4679985046387" y="0" dx="0em" dy="0.95em" fill="rgb(50, 49, 63)" stroke="none" stroke-width="1px">55</text></g><line x1="0" y1="0" x2="1382.4679985046387" y2="0" fill="rgb(0, 0, 0)" stroke="rgb(204, 204, 204)" stroke-width="1px"></line></g></g></g></g></svg>