<svg viewBox="0 0 1434 400" xmlns="http://www.w3.org/2000/svg"><g><g><g><g><g><line x1="61.91500186920166" y1="377.8999996185303" x2="56.91500186920166" y2="377.8999996185303" style="visibility: inherit;" fill="rgb(0, 0, 0)" stroke="rgb(204, 204, 204)" stroke-width="1px"></line><line x1="61.91500186920166" y1="346.4083329836527" x2="56.91500186920166" y2="346.4083329836527" style="visibility: inherit;" fill="rgb(0, 0, 0)" stroke="rgb(204, 204, 204)" stroke-width="1px"></line><line x1="61.91500186920166" y1="314.91666634877515" x2="56.91500186920166" y2="314.91666634877515" style="visibility: inherit;" fill="rgb(0, 0, 0)" stroke="rgb(204, 204, 204)" stroke-width="1px"></line><line x1="61.91500186920166" y1="283.42499971389765" x2="56.91500186920166" y2="283.42499971389765" style="visibility: inherit;" fill="rgb(0, 0, 0)" stroke="rgb(204, 204, 204)" stroke-width="1px"></line><line x1="61.91500186920166" y1="251.93333307902003" x2="56.91500186920166" y2="251.93333307902003" style="visibility: inherit;" fill="rgb(0, 0, 0)" stroke="rgb(204, 204, 204)" stroke-width="1px"></line><line x1="61.91500186920166" y1="220.4416664441425" x2="56.91500186920166" y2="220.4416664441425" style="visibility: inherit;" fill="rgb(0, 0, 0)" stroke="rgb(204, 204, 204)" stroke-width="1px"></line><line x1="61.91500186920166" y1="188.94999980926497" x2="56.91500186920166" y2="188.94999980926497" style="visibility: inherit;" fill="rgb(0, 0, 0)" stroke="rgb(204, 204, 204)" stroke-width="1px"></line><line x1="61.91500186920166" y1="157.45833317438738" x2="56.91500186920166" y2="157.45833317438738" style="visibility: inherit;" fill="rgb(0, 0, 0)" stroke="rgb(204, 204, 204)" stroke-width="1px"></line><line x1="61.91500186920166" y1="125.96666653950986" x2="56.91500186920166" y2="125.96666653950986" style="visibility: inherit;" fill="rgb(0, 0, 0)" stroke="rgb(204, 204, 204)" stroke-width="1px"></line><line x1="61.91500186920166" y1="94.47499990463231" x2="56.91500186920166" y2="94.47499990463231" style="visibility: inherit;" fill="rgb(0, 0, 0)" stroke="rgb(204, 204, 204)" stroke-width="1px"></line><line x1="61.91500186920166" y1="62.983333269755114" x2="56.91500186920166" y2="62.983333269755114" style="visibility: inherit;" fill="rgb(0, 0, 0)" stroke="rgb(204, 204, 204)" stroke-width="1px"></line><line x1="61.91500186920166" y1="31.491666634877536" x2="56.91500186920166" y2="31.491666634877536" style="visibility: inherit;" fill="rgb(0, 0, 0)" stroke="rgb(204, 204, 204)" stroke-width="1px"></line><line x1="61.91500186920166" y1="0" x2="56.91500186920166" y2="0" style="visibility: inherit;" fill="rgb(0, 0, 0)" stroke="rgb(204, 204, 204)" stroke-width="1px"></line></g><g transform="translate(51.91500186920166, 0)"><text style="text-anchor: end; visibility: hidden; font-family: Roboto, sans-serif; font-size: 12px; font-weight: 200;" x="0" y="377.8999996185303" dx="0em" dy="0.3em" fill="rgb(50, 49, 63)" stroke="none" stroke-width="1px">0.235</text><text style="text-anchor: end; visibility: inherit; font-family: Roboto, sans-serif; font-size: 12px; font-weight: 200;" x="0" y="346.4083329836527" dx="0em" dy="0.3em" fill="rgb(50, 49, 63)" stroke="none" stroke-width="1px">0.24</text><text style="text-anchor: end; visibility: inherit; font-family: Roboto, sans-serif; font-size: 12px; font-weight: 200;" x="0" y="314.91666634877515" dx="0em" dy="0.3em" fill="rgb(50, 49, 63)" stroke="none" stroke-width="1px">0.245</text><text style="text-anchor: end; visibility: inherit; font-family: Roboto, sans-serif; font-size: 12px; font-weight: 200;" x="0" y="283.42499971389765" dx="0em" dy="0.3em" fill="rgb(50, 49, 63)" stroke="none" stroke-width="1px">0.25</text><text style="text-anchor: end; visibility: inherit; font-family: Roboto, sans-serif; font-size: 12px; font-weight: 200;" x="0" y="251.93333307902003" dx="0em" dy="0.3em" fill="rgb(50, 49, 63)" stroke="none" stroke-width="1px">0.255</text><text style="text-anchor: end; visibility: inherit; font-family: Roboto, sans-serif; font-size: 12px; font-weight: 200;" x="0" y="220.4416664441425" dx="0em" dy="0.3em" fill="rgb(50, 49, 63)" stroke="none" stroke-width="1px">0.26</text><text style="text-anchor: end; visibility: inherit; font-family: Roboto, sans-serif; font-size: 12px; font-weight: 200;" x="0" y="188.94999980926497" dx="0em" dy="0.3em" fill="rgb(50, 49, 63)" stroke="none" stroke-width="1px">0.265</text><text style="text-anchor: end; visibility: inherit; font-family: Roboto, sans-serif; font-size: 12px; font-weight: 200;" x="0" y="157.45833317438738" dx="0em" dy="0.3em" fill="rgb(50, 49, 63)" stroke="none" stroke-width="1px">0.27</text><text style="text-anchor: end; visibility: inherit; font-family: Roboto, sans-serif; font-size: 12px; font-weight: 200;" x="0" y="125.96666653950986" dx="0em" dy="0.3em" fill="rgb(50, 49, 63)" stroke="none" stroke-width="1px">0.275</text><text style="text-anchor: end; visibility: inherit; font-family: Roboto, sans-serif; font-size: 12px; font-weight: 200;" x="0" y="94.47499990463231" dx="0em" dy="0.3em" fill="rgb(50, 49, 63)" stroke="none" stroke-width="1px">0.28</text><text style="text-anchor: end; visibility: inherit; font-family: Roboto, sans-serif; font-size: 12px; font-weight: 200;" x="0" y="62.983333269755114" dx="0em" dy="0.3em" fill="rgb(50, 49, 63)" stroke="none" stroke-width="1px">0.285</text><text style="text-anchor: end; visibility: inherit; font-family: Roboto, sans-serif; font-size: 12px; font-weight: 200;" x="0" y="31.491666634877536" dx="0em" dy="0.3em" fill="rgb(50, 49, 63)" stroke="none" stroke-width="1px">0.29</text><text style="text-anchor: end; visibility: hidden; font-family: Roboto, sans-serif; font-size: 12px; font-weight: 200;" x="0" y="0" dx="0em" dy="0.3em" fill="rgb(50, 49, 63)" stroke="none" stroke-width="1px">0.295</text></g><line x1="61.91500186920166" y1="0" x2="61.91500186920166" y2="377.8999996185303" fill="rgb(0, 0, 0)" stroke="rgb(204, 204, 204)" stroke-width="1px"></line></g></g><g transform="translate(61, 0)" clip-path="url(#clip_0)"><clipPath id="clip_0"><rect width="1372" height="377"></rect></clipPath><g><g><g><line x1="0" y1="0" x2="0" y2="377.8999996185303" fill="rgb(0, 0, 0)" stroke="rgb(60, 60, 60)" stroke-width="1px" opacity="0.25"></line><line x1="114.34041651089986" y1="0" x2="114.34041651089986" y2="377.8999996185303" fill="rgb(0, 0, 0)" stroke="rgb(60, 60, 60)" stroke-width="1px" opacity="0.25"></line><line x1="228.6808330217997" y1="0" x2="228.6808330217997" y2="377.8999996185303" fill="rgb(0, 0, 0)" stroke="rgb(60, 60, 60)" stroke-width="1px" opacity="0.25"></line><line x1="343.0212495326996" y1="0" x2="343.0212495326996" y2="377.8999996185303" fill="rgb(0, 0, 0)" stroke="rgb(60, 60, 60)" stroke-width="1px" opacity="0.25"></line><line x1="457.3616660435994" y1="0" x2="457.3616660435994" y2="377.8999996185303" fill="rgb(0, 0, 0)" stroke="rgb(60, 60, 60)" stroke-width="1px" opacity="0.25"></line><line x1="571.7020825544994" y1="0" x2="571.7020825544994" y2="377.8999996185303" fill="rgb(0, 0, 0)" stroke="rgb(60, 60, 60)" stroke-width="1px" opacity="0.25"></line><line x1="686.0424990653992" y1="0" x2="686.0424990653992" y2="377.8999996185303" fill="rgb(0, 0, 0)" stroke="rgb(60, 60, 60)" stroke-width="1px" opacity="0.25"></line><line x1="800.3829155762991" y1="0" x2="800.3829155762991" y2="377.8999996185303" fill="rgb(0, 0, 0)" stroke="rgb(60, 60, 60)" stroke-width="1px" opacity="0.25"></line><line x1="914.7233320871989" y1="0" x2="914.7233320871989" y2="377.8999996185303" fill="rgb(0, 0, 0)" stroke="rgb(60, 60, 60)" stroke-width="1px" opacity="0.25"></line><line x1="1029.0637485980988" y1="0" x2="1029.0637485980988" y2="377.8999996185303" fill="rgb(0, 0, 0)" stroke="rgb(60, 60, 60)" stroke-width="1px" opacity="0.25"></line><line x1="1143.4041651089988" y1="0" x2="1143.4041651089988" y2="377.8999996185303" fill="rgb(0, 0, 0)" stroke="rgb(60, 60, 60)" stroke-width="1px" opacity="0.25"></line><line x1="1257.7445816198983" y1="0" x2="1257.7445816198983" y2="377.8999996185303" fill="rgb(0, 0, 0)" stroke="rgb(60, 60, 60)" stroke-width="1px" opacity="0.25"></line><line x1="1372.0849981307983" y1="0" x2="1372.0849981307983" y2="377.8999996185303" fill="rgb(0, 0, 0)" stroke="rgb(60, 60, 60)" stroke-width="1px" opacity="0.25"></line></g><g><line x1="0" y1="377.8999996185303" x2="1372.0849981307983" y2="377.8999996185303" fill="rgb(0, 0, 0)" stroke="rgb(60, 60, 60)" stroke-width="1px" opacity="0.25"></line><line x1="0" y1="346.4083329836527" x2="1372.0849981307983" y2="346.4083329836527" fill="rgb(0, 0, 0)" stroke="rgb(60, 60, 60)" stroke-width="1px" opacity="0.25"></line><line x1="0" y1="314.91666634877515" x2="1372.0849981307983" y2="314.91666634877515" fill="rgb(0, 0, 0)" stroke="rgb(60, 60, 60)" stroke-width="1px" opacity="0.25"></line><line x1="0" y1="283.42499971389765" x2="1372.0849981307983" y2="283.42499971389765" fill="rgb(0, 0, 0)" stroke="rgb(60, 60, 60)" stroke-width="1px" opacity="0.25"></line><line x1="0" y1="251.93333307902003" x2="1372.0849981307983" y2="251.93333307902003" fill="rgb(0, 0, 0)" stroke="rgb(60, 60, 60)" stroke-width="1px" opacity="0.25"></line><line x1="0" y1="220.4416664441425" x2="1372.0849981307983" y2="220.4416664441425" fill="rgb(0, 0, 0)" stroke="rgb(60, 60, 60)" stroke-width="1px" opacity="0.25"></line><line x1="0" y1="188.94999980926497" x2="1372.0849981307983" y2="188.94999980926497" fill="rgb(0, 0, 0)" stroke="rgb(60, 60, 60)" stroke-width="1px" opacity="0.25"></line><line x1="0" y1="157.45833317438738" x2="1372.0849981307983" y2="157.45833317438738" fill="rgb(0, 0, 0)" stroke="rgb(60, 60, 60)" stroke-width="1px" opacity="0.25"></line><line x1="0" y1="125.96666653950986" x2="1372.0849981307983" y2="125.96666653950986" fill="rgb(0, 0, 0)" stroke="rgb(60, 60, 60)" stroke-width="1px" opacity="0.25"></line><line x1="0" y1="94.47499990463231" x2="1372.0849981307983" y2="94.47499990463231" fill="rgb(0, 0, 0)" stroke="rgb(60, 60, 60)" stroke-width="1px" opacity="0.25"></line><line x1="0" y1="62.983333269755114" x2="1372.0849981307983" y2="62.983333269755114" fill="rgb(0, 0, 0)" stroke="rgb(60, 60, 60)" stroke-width="1px" opacity="0.25"></line><line x1="0" y1="31.491666634877536" x2="1372.0849981307983" y2="31.491666634877536" fill="rgb(0, 0, 0)" stroke="rgb(60, 60, 60)" stroke-width="1px" opacity="0.25"></line><line x1="0" y1="0" x2="1372.0849981307983" y2="0" fill="rgb(0, 0, 0)" stroke="rgb(60, 60, 60)" stroke-width="1px" opacity="0.25"></line></g></g></g><g><g><line x1="0" y1="1858.0083314577737" x2="1372.0849981307983" y2="1858.0083314577737" fill="rgb(0, 0, 0)" stroke="rgb(153, 153, 153)" stroke-width="1.5px"></line></g></g><g><g><line x1="114.34041651089986" y1="0" x2="114.34041651089986" y2="377.8999996185303" fill="rgb(0, 0, 0)" stroke="rgb(153, 153, 153)" stroke-width="1.5px"></line></g></g><g><g><g><g><g><path style="fill: none;" stroke="rgb(187, 187, 187)" stroke-width="2px" d="M114.34041651089986,222.65364176208996L137.20849981307984,317.8679214070251L160.0765831152598,211.45216055029087L182.94466641743978,197.4536877248277L205.81274971961975,206.9984849568805L228.6808330217997,218.44548425677252L251.54891632397968,290.2233918190914L274.4169996261597,195.47959465718756L297.28508292833965,234.5102132853908L320.1531662305196,251.9472532788771L343.0212495326996,196.60413507443886L365.88933283487955,209.28735924297L388.7574161370595,197.58376726232646L411.6254994392395,263.1733238404775L434.49358274141946,264.78308158014494L457.3616660435994,195.41483644587865L480.2297493457794,260.26389695558436L503.09783264795936,272.7367038636016L525.9659159501394,203.31195953628034L548.8339992523194,186.7045754673894L571.7020825544994,257.6917758843785L594.5701658566793,258.2815448696903L617.4382491588593,228.18511923763302L640.3063324610392,237.2484532464761L663.1744157632193,265.62043340811323L686.0424990653992,263.98139369463655L708.9105823675792,235.67022994014175L731.7786656697591,227.92627409735766L754.6467489719391,296.8280724052394L777.514832274119,242.90794550495443L800.3829155762991,165.07965010429976L823.250998878479,283.44574111201246L846.119082180659,238.77430686888232L868.9871654828389,235.07163882169502L891.855248785019,279.03289134747075L914.7233320871989,290.90250836551354L937.5914153893789,213.88669388558534L960.4594986915588,270.9176550931823L983.3275819937388,217.9966816966577L1006.1956652959187,270.9459985421899L1029.0637485980988,275.54082826575774L1051.931831900279,202.5506282172399L1074.7999152024586,192.53356530503282L1097.6679985046387,246.37035120293766L1120.5360818068186,257.79839230183774L1143.4041651089988,218.26660142959165L1166.2722484111785,320.01733090760007L1189.1403317133586,223.2920263321236L1212.0084150155385,225.2038013529389L1234.8764983177186,261.5004972341441" fill="none"></path></g><g><path style="fill: none;" stroke="rgb(204, 51, 17)" stroke-width="2px" d="M114.34041651089986,129.6677954060227L137.20849981307984,210.0646454836373L160.0765831152598,106.01115155247604L182.94466641743978,107.42194203420873L205.81274971961975,169.1357665917615L228.6808330217997,110.66473292862261L251.54891632397968,164.6950426406129L274.4169996261597,66.58616480264953L297.28508292833965,97.2473946602968L320.1531662305196,150.2442008607889L343.0212495326996,106.27393849691799L365.88933283487955,107.88463476138693L388.7574161370595,111.62221593119291L411.6254994392395,123.28470052552737L434.49358274141946,99.02909014361333L457.3616660435994,62.491381093362776L480.2297493457794,149.30717769889299L503.09783264795936,133.3092716361471L525.9659159501394,126.63842505148779L548.8339992523194,150.01726556376724L571.7020825544994,132.35103781373547L594.5701658566793,143.6749026596604L617.4382491588593,128.99768869769568L640.3063324610392,153.84569593436603L663.1744157632193,141.21728161424707L686.0424990653992,73.26921220972935L708.9105823675792,130.1453168250658L731.7786656697591,183.368119797778L754.6467489719391,146.4467418086422L777.514832274119,79.48562508546436L800.3829155762991,167.92713435228876L823.250998878479,176.0391796222519L846.119082180659,187.64047239952342L868.9871654828389,144.04017651243473L891.855248785019,117.90639029760192L914.7233320871989,132.02874839687345L937.5914153893789,91.79475326808634L960.4594986915588,81.84770430607699L983.3275819937388,136.0779198008035L1006.1956652959187,132.08543529488878L1029.0637485980988,162.68096841642554L1051.931831900279,97.42852994700144L1074.7999152024586,136.35609855199135L1097.6679985046387,147.83519540009735L1120.5360818068186,104.92884475129577L1143.4041651089988,126.91397593323123L1166.2722484111785,56.130998513065634L1189.1403317133586,116.84717120654048L1212.0084150155385,67.16786247466786L1234.8764983177186,88.93469278775618" fill="none"></path></g><g><path style="fill: none;" stroke="rgb(255, 112, 67)" stroke-width="2px" d="M114.34041651089986,194.98987241572394L137.20849981307984,193.65641637764128L160.0765831152598,170.94092519511747L182.94466641743978,127.0979267943406L205.81274971961975,139.17035902200448L228.6808330217997,143.82394039815105L251.54891632397968,135.98312879584407L274.4169996261597,121.37836894856122L297.28508292833965,167.4610629358249L320.1531662305196,158.15896821746028L343.0212495326996,155.39238480736734L365.88933283487955,189.1117038784778L388.7574161370595,178.25372274405643L411.6254994392395,178.98520897440667L434.49358274141946,185.65943424835163L457.3616660435994,161.80288461206877L480.2297493457794,134.0920013206635L503.09783264795936,215.59049181037088L525.9659159501394,124.41337045190558L548.8339992523194,133.78172502126168L571.7020825544994,136.39927069286395L594.5701658566793,191.822538915357L617.4382491588593,151.09675679054277L640.3063324610392,129.5063691401512L663.1744157632193,201.68061572617668L686.0424990653992,117.92196980930811L708.9105823675792,164.71268690688257L731.7786656697591,173.79535452663816L754.6467489719391,128.0383286455222L777.514832274119,166.8938185457509L800.3829155762991,222.85824016883404L823.250998878479,190.25820577608604L846.119082180659,171.9316319756637L868.9871654828389,154.7543756472543L891.855248785019,184.03146912753365L914.7233320871989,211.4529113701321L937.5914153893789,167.4047514477302L960.4594986915588,147.505585489783L983.3275819937388,125.56944530248991L1006.1956652959187,150.39868204312873L1029.0637485980988,127.7117220145729L1051.931831900279,160.0568530712122L1074.7999152024586,131.58670321533L1097.6679985046387,124.76681889218005L1120.5360818068186,165.5552944737397L1143.4041651089988,104.83630620586013L1166.2722484111785,115.05890604961287L1189.1403317133586,167.679926919553L1212.0084150155385,137.01663230734226L1234.8764983177186,164.15032284577677" fill="none"></path></g><g><path style="fill: none;" stroke="rgb(0, 153, 136)" stroke-width="2px" d="M114.34041651089986,174.3520874389345L137.20849981307984,204.00196297040083L160.0765831152598,170.15669387091853L182.94466641743978,132.99993386154682L205.81274971961975,195.88391114170756L228.6808330217997,193.8505033066077L251.54891632397968,162.7834553247579L274.4169996261597,141.4641136370622L297.28508292833965,203.9550367303219L320.1531662305196,171.82801883756943L343.0212495326996,187.66487404436447L365.88933283487955,180.12758136288795L388.7574161370595,185.37149483922738L411.6254994392395,157.40326804722932L434.49358274141946,167.99039092391516L457.3616660435994,149.21144816913198L480.2297493457794,207.1529661392203L503.09783264795936,180.0297870785635L525.9659159501394,222.34730726685476L548.8339992523194,178.70646710833788L571.7020825544994,127.56174575128064L594.5701658566793,223.06527874006227L617.4382491588593,171.26396543182076L640.3063324610392,174.57057601274195L663.1744157632193,196.30249320321155L686.0424990653992,143.45885425033705L708.9105823675792,225.19516692476438L731.7786656697591,156.2451284420815L754.6467489719391,201.90886495792057L777.514832274119,168.27776721815846L800.3829155762991,217.43882255459945L823.250998878479,193.474905681016L846.119082180659,208.8744083302755L868.9871654828389,172.4748501308173L891.855248785019,172.12966070879673L914.7233320871989,69.20446129409306L937.5914153893789,182.4346630301281L960.4594986915588,203.5017292511595L983.3275819937388,238.30316741848995L1006.1956652959187,188.77852757391744L1029.0637485980988,220.09109364386015L1051.931831900279,208.3311901751219L1074.7999152024586,167.7730285798696L1097.6679985046387,187.52822483325465L1120.5360818068186,176.9168880166881L1143.4041651089988,171.32140314967737L1166.2722484111785,166.27026266758216L1189.1403317133586,235.5318913843891L1212.0084150155385,196.9780433553877L1234.8764983177186,188.90278825764645" fill="none"></path></g></g></g></g></g><g><g><span fill="rgb(0, 0, 0)" stroke="none" stroke-width="1px">Alt + Scroll to Zoom</span></g></g></g><g transform="translate(61, 377)" clip-path="url(#clip_1)"><clipPath id="clip_1"><rect width="1372" height="22"></rect></clipPath><g><g><line x1="0" y1="0" x2="0" y2="5" style="visibility: inherit;" fill="rgb(0, 0, 0)" stroke="rgb(204, 204, 204)" stroke-width="1px"></line><line x1="114.34041651089986" y1="0" x2="114.34041651089986" y2="5" style="visibility: inherit;" fill="rgb(0, 0, 0)" stroke="rgb(204, 204, 204)" stroke-width="1px"></line><line x1="228.6808330217997" y1="0" x2="228.6808330217997" y2="5" style="visibility: inherit;" fill="rgb(0, 0, 0)" stroke="rgb(204, 204, 204)" stroke-width="1px"></line><line x1="343.0212495326996" y1="0" x2="343.0212495326996" y2="5" style="visibility: inherit;" fill="rgb(0, 0, 0)" stroke="rgb(204, 204, 204)" stroke-width="1px"></line><line x1="457.3616660435994" y1="0" x2="457.3616660435994" y2="5" style="visibility: inherit;" fill="rgb(0, 0, 0)" stroke="rgb(204, 204, 204)" stroke-width="1px"></line><line x1="571.7020825544994" y1="0" x2="571.7020825544994" y2="5" style="visibility: inherit;" fill="rgb(0, 0, 0)" stroke="rgb(204, 204, 204)" stroke-width="1px"></line><line x1="686.0424990653992" y1="0" x2="686.0424990653992" y2="5" style="visibility: inherit;" fill="rgb(0, 0, 0)" stroke="rgb(204, 204, 204)" stroke-width="1px"></line><line x1="800.3829155762991" y1="0" x2="800.3829155762991" y2="5" style="visibility: inherit;" fill="rgb(0, 0, 0)" stroke="rgb(204, 204, 204)" stroke-width="1px"></line><line x1="914.7233320871989" y1="0" x2="914.7233320871989" y2="5" style="visibility: inherit;" fill="rgb(0, 0, 0)" stroke="rgb(204, 204, 204)" stroke-width="1px"></line><line x1="1029.0637485980988" y1="0" x2="1029.0637485980988" y2="5" style="visibility: inherit;" fill="rgb(0, 0, 0)" stroke="rgb(204, 204, 204)" stroke-width="1px"></line><line x1="1143.4041651089988" y1="0" x2="1143.4041651089988" y2="5" style="visibility: inherit;" fill="rgb(0, 0, 0)" stroke="rgb(204, 204, 204)" stroke-width="1px"></line><line x1="1257.7445816198983" y1="0" x2="1257.7445816198983" y2="5" style="visibility: inherit;" fill="rgb(0, 0, 0)" stroke="rgb(204, 204, 204)" stroke-width="1px"></line><line x1="1372.0849981307983" y1="0" x2="1372.0849981307983" y2="5" style="visibility: inherit;" fill="rgb(0, 0, 0)" stroke="rgb(204, 204, 204)" stroke-width="1px"></line></g><g transform="translate(0, 8)"><text style="text-anchor: middle; visibility: hidden; font-family: Roboto, sans-serif; font-size: 12px; font-weight: 200;" x="0" y="0" dx="0em" dy="0.95em" fill="rgb(50, 49, 63)" stroke="none" stroke-width="1px">-5</text><text style="text-anchor: middle; visibility: inherit; font-family: Roboto, sans-serif; font-size: 12px; font-weight: 200;" x="114.34041651089986" y="0" dx="0em" dy="0.95em" fill="rgb(50, 49, 63)" stroke="none" stroke-width="1px">0</text><text style="text-anchor: middle; visibility: inherit; font-family: Roboto, sans-serif; font-size: 12px; font-weight: 200;" x="228.6808330217997" y="0" dx="0em" dy="0.95em" fill="rgb(50, 49, 63)" stroke="none" stroke-width="1px">5</text><text style="text-anchor: middle; visibility: inherit; font-family: Roboto, sans-serif; font-size: 12px; font-weight: 200;" x="343.0212495326996" y="0" dx="0em" dy="0.95em" fill="rgb(50, 49, 63)" stroke="none" stroke-width="1px">10</text><text style="text-anchor: middle; visibility: inherit; font-family: Roboto, sans-serif; font-size: 12px; font-weight: 200;" x="457.3616660435994" y="0" dx="0em" dy="0.95em" fill="rgb(50, 49, 63)" stroke="none" stroke-width="1px">15</text><text style="text-anchor: middle; visibility: inherit; font-family: Roboto, sans-serif; font-size: 12px; font-weight: 200;" x="571.7020825544994" y="0" dx="0em" dy="0.95em" fill="rgb(50, 49, 63)" stroke="none" stroke-width="1px">20</text><text style="text-anchor: middle; visibility: inherit; font-family: Roboto, sans-serif; font-size: 12px; font-weight: 200;" x="686.0424990653992" y="0" dx="0em" dy="0.95em" fill="rgb(50, 49, 63)" stroke="none" stroke-width="1px">25</text><text style="text-anchor: middle; visibility: inherit; font-family: Roboto, sans-serif; font-size: 12px; font-weight: 200;" x="800.3829155762991" y="0" dx="0em" dy="0.95em" fill="rgb(50, 49, 63)" stroke="none" stroke-width="1px">30</text><text style="text-anchor: middle; visibility: inherit; font-family: Roboto, sans-serif; font-size: 12px; font-weight: 200;" x="914.7233320871989" y="0" dx="0em" dy="0.95em" fill="rgb(50, 49, 63)" stroke="none" stroke-width="1px">35</text><text style="text-anchor: middle; visibility: inherit; font-family: Roboto, sans-serif; font-size: 12px; font-weight: 200;" x="1029.0637485980988" y="0" dx="0em" dy="0.95em" fill="rgb(50, 49, 63)" stroke="none" stroke-width="1px">40</text><text style="text-anchor: middle; visibility: inherit; font-family: Roboto, sans-serif; font-size: 12px; font-weight: 200;" x="1143.4041651089988" y="0" dx="0em" dy="0.95em" fill="rgb(50, 49, 63)" stroke="none" stroke-width="1px">45</text><text style="text-anchor: middle; visibility: inherit; font-family: Roboto, sans-serif; font-size: 12px; font-weight: 200;" x="1257.7445816198983" y="0" dx="0em" dy="0.95em" fill="rgb(50, 49, 63)" stroke="none" stroke-width="1px">50</text><text style="text-anchor: middle; visibility: hidden; font-family: Roboto, sans-serif; font-size: 12px; font-weight: 200;" x="1372.0849981307983" y="0" dx="0em" dy="0.95em" fill="rgb(50, 49, 63)" stroke="none" stroke-width="1px">55</text></g><line x1="0" y1="0" x2="1372.0849981307983" y2="0" fill="rgb(0, 0, 0)" stroke="rgb(204, 204, 204)" stroke-width="1px"></line></g></g></g></g></svg>