<svg viewBox="0 0 1434 400" xmlns="http://www.w3.org/2000/svg"><g><g><g><g><g><line x1="61.91500186920166" y1="377.8999996185303" x2="56.91500186920166" y2="377.8999996185303" style="visibility: inherit;" fill="rgb(0, 0, 0)" stroke="rgb(204, 204, 204)" stroke-width="1px"></line><line x1="61.91500186920166" y1="352.70666631062824" x2="56.91500186920166" y2="352.70666631062824" style="visibility: inherit;" fill="rgb(0, 0, 0)" stroke="rgb(204, 204, 204)" stroke-width="1px"></line><line x1="61.91500186920166" y1="327.51333300272626" x2="56.91500186920166" y2="327.51333300272626" style="visibility: inherit;" fill="rgb(0, 0, 0)" stroke="rgb(204, 204, 204)" stroke-width="1px"></line><line x1="61.91500186920166" y1="302.3199996948242" x2="56.91500186920166" y2="302.3199996948242" style="visibility: inherit;" fill="rgb(0, 0, 0)" stroke="rgb(204, 204, 204)" stroke-width="1px"></line><line x1="61.91500186920166" y1="277.12666638692224" x2="56.91500186920166" y2="277.12666638692224" style="visibility: inherit;" fill="rgb(0, 0, 0)" stroke="rgb(204, 204, 204)" stroke-width="1px"></line><line x1="61.91500186920166" y1="251.9333330790202" x2="56.91500186920166" y2="251.9333330790202" style="visibility: inherit;" fill="rgb(0, 0, 0)" stroke="rgb(204, 204, 204)" stroke-width="1px"></line><line x1="61.91500186920166" y1="226.73999977111816" x2="56.91500186920166" y2="226.73999977111816" style="visibility: inherit;" fill="rgb(0, 0, 0)" stroke="rgb(204, 204, 204)" stroke-width="1px"></line><line x1="61.91500186920166" y1="201.54666646321616" x2="56.91500186920166" y2="201.54666646321616" style="visibility: inherit;" fill="rgb(0, 0, 0)" stroke="rgb(204, 204, 204)" stroke-width="1px"></line><line x1="61.91500186920166" y1="176.35333315531412" x2="56.91500186920166" y2="176.35333315531412" style="visibility: inherit;" fill="rgb(0, 0, 0)" stroke="rgb(204, 204, 204)" stroke-width="1px"></line><line x1="61.91500186920166" y1="151.1599998474121" x2="56.91500186920166" y2="151.1599998474121" style="visibility: inherit;" fill="rgb(0, 0, 0)" stroke="rgb(204, 204, 204)" stroke-width="1px"></line><line x1="61.91500186920166" y1="125.9666665395101" x2="56.91500186920166" y2="125.9666665395101" style="visibility: inherit;" fill="rgb(0, 0, 0)" stroke="rgb(204, 204, 204)" stroke-width="1px"></line><line x1="61.91500186920166" y1="100.77333323160809" x2="56.91500186920166" y2="100.77333323160809" style="visibility: inherit;" fill="rgb(0, 0, 0)" stroke="rgb(204, 204, 204)" stroke-width="1px"></line><line x1="61.91500186920166" y1="75.57999992370604" x2="56.91500186920166" y2="75.57999992370604" style="visibility: inherit;" fill="rgb(0, 0, 0)" stroke="rgb(204, 204, 204)" stroke-width="1px"></line><line x1="61.91500186920166" y1="50.386666615804025" x2="56.91500186920166" y2="50.386666615804025" style="visibility: inherit;" fill="rgb(0, 0, 0)" stroke="rgb(204, 204, 204)" stroke-width="1px"></line><line x1="61.91500186920166" y1="25.193333307902012" x2="56.91500186920166" y2="25.193333307902012" style="visibility: inherit;" fill="rgb(0, 0, 0)" stroke="rgb(204, 204, 204)" stroke-width="1px"></line><line x1="61.91500186920166" y1="0" x2="56.91500186920166" y2="0" style="visibility: inherit;" fill="rgb(0, 0, 0)" stroke="rgb(204, 204, 204)" stroke-width="1px"></line></g><g transform="translate(51.91500186920166, 0)"><text style="text-anchor: end; visibility: hidden; font-family: Roboto, sans-serif; font-size: 12px; font-weight: 200;" x="0" y="377.8999996185303" dx="0em" dy="0.3em" fill="rgb(50, 49, 63)" stroke="none" stroke-width="1px">0.858</text><text style="text-anchor: end; visibility: inherit; font-family: Roboto, sans-serif; font-size: 12px; font-weight: 200;" x="0" y="352.70666631062824" dx="0em" dy="0.3em" fill="rgb(50, 49, 63)" stroke="none" stroke-width="1px">0.86</text><text style="text-anchor: end; visibility: inherit; font-family: Roboto, sans-serif; font-size: 12px; font-weight: 200;" x="0" y="327.51333300272626" dx="0em" dy="0.3em" fill="rgb(50, 49, 63)" stroke="none" stroke-width="1px">0.862</text><text style="text-anchor: end; visibility: inherit; font-family: Roboto, sans-serif; font-size: 12px; font-weight: 200;" x="0" y="302.3199996948242" dx="0em" dy="0.3em" fill="rgb(50, 49, 63)" stroke="none" stroke-width="1px">0.864</text><text style="text-anchor: end; visibility: inherit; font-family: Roboto, sans-serif; font-size: 12px; font-weight: 200;" x="0" y="277.12666638692224" dx="0em" dy="0.3em" fill="rgb(50, 49, 63)" stroke="none" stroke-width="1px">0.866</text><text style="text-anchor: end; visibility: inherit; font-family: Roboto, sans-serif; font-size: 12px; font-weight: 200;" x="0" y="251.9333330790202" dx="0em" dy="0.3em" fill="rgb(50, 49, 63)" stroke="none" stroke-width="1px">0.868</text><text style="text-anchor: end; visibility: inherit; font-family: Roboto, sans-serif; font-size: 12px; font-weight: 200;" x="0" y="226.73999977111816" dx="0em" dy="0.3em" fill="rgb(50, 49, 63)" stroke="none" stroke-width="1px">0.87</text><text style="text-anchor: end; visibility: inherit; font-family: Roboto, sans-serif; font-size: 12px; font-weight: 200;" x="0" y="201.54666646321616" dx="0em" dy="0.3em" fill="rgb(50, 49, 63)" stroke="none" stroke-width="1px">0.872</text><text style="text-anchor: end; visibility: inherit; font-family: Roboto, sans-serif; font-size: 12px; font-weight: 200;" x="0" y="176.35333315531412" dx="0em" dy="0.3em" fill="rgb(50, 49, 63)" stroke="none" stroke-width="1px">0.874</text><text style="text-anchor: end; visibility: inherit; font-family: Roboto, sans-serif; font-size: 12px; font-weight: 200;" x="0" y="151.1599998474121" dx="0em" dy="0.3em" fill="rgb(50, 49, 63)" stroke="none" stroke-width="1px">0.876</text><text style="text-anchor: end; visibility: inherit; font-family: Roboto, sans-serif; font-size: 12px; font-weight: 200;" x="0" y="125.9666665395101" dx="0em" dy="0.3em" fill="rgb(50, 49, 63)" stroke="none" stroke-width="1px">0.878</text><text style="text-anchor: end; visibility: inherit; font-family: Roboto, sans-serif; font-size: 12px; font-weight: 200;" x="0" y="100.77333323160809" dx="0em" dy="0.3em" fill="rgb(50, 49, 63)" stroke="none" stroke-width="1px">0.88</text><text style="text-anchor: end; visibility: inherit; font-family: Roboto, sans-serif; font-size: 12px; font-weight: 200;" x="0" y="75.57999992370604" dx="0em" dy="0.3em" fill="rgb(50, 49, 63)" stroke="none" stroke-width="1px">0.882</text><text style="text-anchor: end; visibility: inherit; font-family: Roboto, sans-serif; font-size: 12px; font-weight: 200;" x="0" y="50.386666615804025" dx="0em" dy="0.3em" fill="rgb(50, 49, 63)" stroke="none" stroke-width="1px">0.884</text><text style="text-anchor: end; visibility: inherit; font-family: Roboto, sans-serif; font-size: 12px; font-weight: 200;" x="0" y="25.193333307902012" dx="0em" dy="0.3em" fill="rgb(50, 49, 63)" stroke="none" stroke-width="1px">0.886</text><text style="text-anchor: end; visibility: hidden; font-family: Roboto, sans-serif; font-size: 12px; font-weight: 200;" x="0" y="0" dx="0em" dy="0.3em" fill="rgb(50, 49, 63)" stroke="none" stroke-width="1px">0.888</text></g><line x1="61.91500186920166" y1="0" x2="61.91500186920166" y2="377.8999996185303" fill="rgb(0, 0, 0)" stroke="rgb(204, 204, 204)" stroke-width="1px"></line></g></g><g transform="translate(61, 0)" clip-path="url(#clip_0)"><clipPath id="clip_0"><rect width="1372" height="377"></rect></clipPath><g><g><g><line x1="0" y1="0" x2="0" y2="377.8999996185303" fill="rgb(0, 0, 0)" stroke="rgb(60, 60, 60)" stroke-width="1px" opacity="0.25"></line><line x1="114.34041651089986" y1="0" x2="114.34041651089986" y2="377.8999996185303" fill="rgb(0, 0, 0)" stroke="rgb(60, 60, 60)" stroke-width="1px" opacity="0.25"></line><line x1="228.6808330217997" y1="0" x2="228.6808330217997" y2="377.8999996185303" fill="rgb(0, 0, 0)" stroke="rgb(60, 60, 60)" stroke-width="1px" opacity="0.25"></line><line x1="343.0212495326996" y1="0" x2="343.0212495326996" y2="377.8999996185303" fill="rgb(0, 0, 0)" stroke="rgb(60, 60, 60)" stroke-width="1px" opacity="0.25"></line><line x1="457.3616660435994" y1="0" x2="457.3616660435994" y2="377.8999996185303" fill="rgb(0, 0, 0)" stroke="rgb(60, 60, 60)" stroke-width="1px" opacity="0.25"></line><line x1="571.7020825544994" y1="0" x2="571.7020825544994" y2="377.8999996185303" fill="rgb(0, 0, 0)" stroke="rgb(60, 60, 60)" stroke-width="1px" opacity="0.25"></line><line x1="686.0424990653992" y1="0" x2="686.0424990653992" y2="377.8999996185303" fill="rgb(0, 0, 0)" stroke="rgb(60, 60, 60)" stroke-width="1px" opacity="0.25"></line><line x1="800.3829155762991" y1="0" x2="800.3829155762991" y2="377.8999996185303" fill="rgb(0, 0, 0)" stroke="rgb(60, 60, 60)" stroke-width="1px" opacity="0.25"></line><line x1="914.7233320871989" y1="0" x2="914.7233320871989" y2="377.8999996185303" fill="rgb(0, 0, 0)" stroke="rgb(60, 60, 60)" stroke-width="1px" opacity="0.25"></line><line x1="1029.0637485980988" y1="0" x2="1029.0637485980988" y2="377.8999996185303" fill="rgb(0, 0, 0)" stroke="rgb(60, 60, 60)" stroke-width="1px" opacity="0.25"></line><line x1="1143.4041651089988" y1="0" x2="1143.4041651089988" y2="377.8999996185303" fill="rgb(0, 0, 0)" stroke="rgb(60, 60, 60)" stroke-width="1px" opacity="0.25"></line><line x1="1257.7445816198983" y1="0" x2="1257.7445816198983" y2="377.8999996185303" fill="rgb(0, 0, 0)" stroke="rgb(60, 60, 60)" stroke-width="1px" opacity="0.25"></line><line x1="1372.0849981307983" y1="0" x2="1372.0849981307983" y2="377.8999996185303" fill="rgb(0, 0, 0)" stroke="rgb(60, 60, 60)" stroke-width="1px" opacity="0.25"></line></g><g><line x1="0" y1="377.8999996185303" x2="1372.0849981307983" y2="377.8999996185303" fill="rgb(0, 0, 0)" stroke="rgb(60, 60, 60)" stroke-width="1px" opacity="0.25"></line><line x1="0" y1="352.70666631062824" x2="1372.0849981307983" y2="352.70666631062824" fill="rgb(0, 0, 0)" stroke="rgb(60, 60, 60)" stroke-width="1px" opacity="0.25"></line><line x1="0" y1="327.51333300272626" x2="1372.0849981307983" y2="327.51333300272626" fill="rgb(0, 0, 0)" stroke="rgb(60, 60, 60)" stroke-width="1px" opacity="0.25"></line><line x1="0" y1="302.3199996948242" x2="1372.0849981307983" y2="302.3199996948242" fill="rgb(0, 0, 0)" stroke="rgb(60, 60, 60)" stroke-width="1px" opacity="0.25"></line><line x1="0" y1="277.12666638692224" x2="1372.0849981307983" y2="277.12666638692224" fill="rgb(0, 0, 0)" stroke="rgb(60, 60, 60)" stroke-width="1px" opacity="0.25"></line><line x1="0" y1="251.9333330790202" x2="1372.0849981307983" y2="251.9333330790202" fill="rgb(0, 0, 0)" stroke="rgb(60, 60, 60)" stroke-width="1px" opacity="0.25"></line><line x1="0" y1="226.73999977111816" x2="1372.0849981307983" y2="226.73999977111816" fill="rgb(0, 0, 0)" stroke="rgb(60, 60, 60)" stroke-width="1px" opacity="0.25"></line><line x1="0" y1="201.54666646321616" x2="1372.0849981307983" y2="201.54666646321616" fill="rgb(0, 0, 0)" stroke="rgb(60, 60, 60)" stroke-width="1px" opacity="0.25"></line><line x1="0" y1="176.35333315531412" x2="1372.0849981307983" y2="176.35333315531412" fill="rgb(0, 0, 0)" stroke="rgb(60, 60, 60)" stroke-width="1px" opacity="0.25"></line><line x1="0" y1="151.1599998474121" x2="1372.0849981307983" y2="151.1599998474121" fill="rgb(0, 0, 0)" stroke="rgb(60, 60, 60)" stroke-width="1px" opacity="0.25"></line><line x1="0" y1="125.9666665395101" x2="1372.0849981307983" y2="125.9666665395101" fill="rgb(0, 0, 0)" stroke="rgb(60, 60, 60)" stroke-width="1px" opacity="0.25"></line><line x1="0" y1="100.77333323160809" x2="1372.0849981307983" y2="100.77333323160809" fill="rgb(0, 0, 0)" stroke="rgb(60, 60, 60)" stroke-width="1px" opacity="0.25"></line><line x1="0" y1="75.57999992370604" x2="1372.0849981307983" y2="75.57999992370604" fill="rgb(0, 0, 0)" stroke="rgb(60, 60, 60)" stroke-width="1px" opacity="0.25"></line><line x1="0" y1="50.386666615804025" x2="1372.0849981307983" y2="50.386666615804025" fill="rgb(0, 0, 0)" stroke="rgb(60, 60, 60)" stroke-width="1px" opacity="0.25"></line><line x1="0" y1="25.193333307902012" x2="1372.0849981307983" y2="25.193333307902012" fill="rgb(0, 0, 0)" stroke="rgb(60, 60, 60)" stroke-width="1px" opacity="0.25"></line><line x1="0" y1="0" x2="1372.0849981307983" y2="0" fill="rgb(0, 0, 0)" stroke="rgb(60, 60, 60)" stroke-width="1px" opacity="0.25"></line></g></g></g><g><g><line x1="0" y1="11185.839988708485" x2="1372.0849981307983" y2="11185.839988708485" fill="rgb(0, 0, 0)" stroke="rgb(153, 153, 153)" stroke-width="1.5px"></line></g></g><g><g><line x1="114.34041651089986" y1="0" x2="114.34041651089986" y2="377.8999996185303" fill="rgb(0, 0, 0)" stroke="rgb(153, 153, 153)" stroke-width="1.5px"></line></g></g><g><g><g><g><g><path style="fill: none;" stroke="rgb(187, 187, 187)" stroke-width="2px" d="M114.34041651089986,137.04174572939294L137.20849981307984,133.80345975402668L160.0765831152598,159.7089967371156L182.94466641743978,156.47071076174933L205.81274971961975,143.51756686028423L228.6808330217997,179.13796176947199L251.54891632397968,75.51506301727498L274.4169996261597,195.32939164630332L297.28508292833965,107.89717195109645L320.1531662305196,149.99413881101677L343.0212495326996,211.52007070329344L365.88933283487955,143.51756686028423L388.7574161370595,146.7558528356505L411.6254994392395,85.22992094337381L434.49358274141946,140.27928088491794L457.3616660435994,179.13796176947199L480.2297493457794,137.04174572939294L503.09783264795936,65.80095591101743L525.9659159501394,133.80345975402668L548.8339992523194,237.42635850622364L571.7020825544994,159.7089967371156L594.5701658566793,205.04424957240215L617.4382491588593,137.04174572939294L640.3063324610392,169.42385466321443L663.1744157632193,143.51756686028423L686.0424990653992,149.99413881101677L708.9105823675792,175.89967579410572L731.7786656697591,175.89967579410572L754.6467489719391,143.51756686028423L777.514832274119,137.04174572939294L800.3829155762991,169.42385466321443L823.250998878479,117.61202987719528L846.119082180659,127.32688780329411L868.9871654828389,172.66138981873942L891.855248785019,137.04174572939294L914.7233320871989,91.70649289410638L937.5914153893789,182.37624774483825L960.4594986915588,172.66138981873942L983.3275819937388,179.13796176947199L1006.1956652959187,137.04174572939294L1029.0637485980988,143.51756686028423L1051.931831900279,117.61202987719528L1074.7999152024586,201.8059635970359L1097.6679985046387,175.89967579410572L1120.5360818068186,114.37374390182903L1143.4041651089988,179.13796176947199L1166.2722484111785,91.70649289410638L1189.1403317133586,153.23242478638304L1212.0084150155385,140.27928088491794L1234.8764983177186,140.27928088491794" fill="none"></path></g><g><path style="fill: none;" stroke="rgb(204, 51, 17)" stroke-width="2px" d="M114.34041651089986,195.32939164630332L137.20849981307984,162.94728271248187L160.0765831152598,298.95229039850034L182.94466641743978,230.94978655549107L205.81274971961975,185.6145337202045L228.6808330217997,266.57018146467885L251.54891632397968,221.23492862939224L274.4169996261597,305.4288623492329L297.28508292833965,266.57018146467885L320.1531662305196,217.99664265402603L343.0212495326996,273.0467534154114L365.88933283487955,315.1429694554904L388.7574161370595,253.61703756321373L411.6254994392395,282.760860521669L434.49358274141946,243.90217963711493L457.3616660435994,298.95229039850034L480.2297493457794,247.1404656124812L503.09783264795936,247.1404656124812L525.9659159501394,256.85532353858L548.8339992523194,214.7583566786597L571.7020825544994,279.5225745463027L594.5701658566793,217.99664265402603L617.4382491588593,237.42635850622364L640.3063324610392,240.6646444815899L663.1744157632193,240.6646444815899L686.0424990653992,263.33189548931256L708.9105823675792,266.57018146467885L731.7786656697591,217.99664265402603L754.6467489719391,172.66138981873942L777.514832274119,256.85532353858L800.3829155762991,185.6145337202045L823.250998878479,214.7583566786597L846.119082180659,188.85281969557082L868.9871654828389,214.7583566786597L891.855248785019,273.0467534154114L914.7233320871989,279.5225745463027L937.5914153893789,237.42635850622364L960.4594986915588,208.2817847279272L983.3275819937388,253.61703756321373L1006.1956652959187,211.52007070329344L1029.0637485980988,169.42385466321443L1051.931831900279,256.85532353858L1074.7999152024586,243.90217963711493L1097.6679985046387,211.52007070329344L1120.5360818068186,234.18807253085737L1143.4041651089988,269.8084674400451L1166.2722484111785,298.95229039850034L1189.1403317133586,230.94978655549107L1212.0084150155385,253.61703756321373L1234.8764983177186,230.94978655549107" fill="none"></path></g><g><path style="fill: none;" stroke="rgb(255, 112, 67)" stroke-width="2px" d="M114.34041651089986,185.6145337202045L137.20849981307984,208.2817847279272L160.0765831152598,153.23242478638304L182.94466641743978,240.6646444815899L205.81274971961975,211.52007070329344L228.6808330217997,230.94978655549107L251.54891632397968,273.0467534154114L274.4169996261597,217.99664265402603L297.28508292833965,234.18807253085737L320.1531662305196,195.32939164630332L343.0212495326996,217.99664265402603L365.88933283487955,175.89967579410572L388.7574161370595,182.37624774483825L411.6254994392395,205.04424957240215L434.49358274141946,227.7115005801248L457.3616660435994,243.90217963711493L480.2297493457794,256.85532353858L503.09783264795936,182.37624774483825L525.9659159501394,224.47321460475854L548.8339992523194,179.13796176947199L571.7020825544994,230.94978655549107L594.5701658566793,188.85281969557082L617.4382491588593,224.47321460475854L640.3063324610392,247.1404656124812L663.1744157632193,227.7115005801248L686.0424990653992,250.3787515878475L708.9105823675792,260.09360951394626L731.7786656697591,227.7115005801248L754.6467489719391,247.1404656124812L777.514832274119,214.7583566786597L800.3829155762991,153.23242478638304L823.250998878479,185.6145337202045L846.119082180659,217.99664265402603L868.9871654828389,192.09110567093708L891.855248785019,192.09110567093708L914.7233320871989,217.99664265402603L937.5914153893789,192.09110567093708L960.4594986915588,260.09360951394626L983.3275819937388,263.33189548931256L1006.1956652959187,230.94978655549107L1029.0637485980988,256.85532353858L1051.931831900279,211.52007070329344L1074.7999152024586,217.99664265402603L1097.6679985046387,214.7583566786597L1120.5360818068186,195.32939164630332L1143.4041651089988,292.47571844776775L1166.2722484111785,263.33189548931256L1189.1403317133586,205.04424957240215L1212.0084150155385,188.85281969557082L1234.8764983177186,208.2817847279272" fill="none"></path></g><g><path style="fill: none;" stroke="rgb(0, 153, 136)" stroke-width="2px" d="M114.34041651089986,192.09110567093708L137.20849981307984,162.94728271248187L160.0765831152598,192.09110567093708L182.94466641743978,243.90217963711493L205.81274971961975,182.37624774483825L228.6808330217997,221.23492862939224L251.54891632397968,192.09110567093708L274.4169996261597,208.2817847279272L297.28508292833965,250.3787515878475L320.1531662305196,237.42635850622364L343.0212495326996,172.66138981873942L365.88933283487955,282.760860521669L388.7574161370595,195.32939164630332L411.6254994392395,237.42635850622364L434.49358274141946,253.61703756321373L457.3616660435994,201.8059635970359L480.2297493457794,175.89967579410572L503.09783264795936,205.04424957240215L525.9659159501394,188.85281969557082L548.8339992523194,169.42385466321443L571.7020825544994,211.52007070329344L594.5701658566793,169.42385466321443L617.4382491588593,149.99413881101677L640.3063324610392,217.99664265402603L663.1744157632193,166.18556868784813L686.0424990653992,201.8059635970359L708.9105823675792,169.42385466321443L731.7786656697591,205.04424957240215L754.6467489719391,179.13796176947199L777.514832274119,162.94728271248187L800.3829155762991,153.23242478638304L823.250998878479,227.7115005801248L846.119082180659,185.6145337202045L868.9871654828389,214.7583566786597L891.855248785019,192.09110567093708L914.7233320871989,285.9991464970352L937.5914153893789,230.94978655549107L960.4594986915588,172.66138981873942L983.3275819937388,214.7583566786597L1006.1956652959187,172.66138981873942L1029.0637485980988,153.23242478638304L1051.931831900279,201.8059635970359L1074.7999152024586,175.89967579410572L1097.6679985046387,195.32939164630332L1120.5360818068186,217.99664265402603L1143.4041651089988,247.1404656124812L1166.2722484111785,250.3787515878475L1189.1403317133586,133.80345975402668L1212.0084150155385,211.52007070329344L1234.8764983177186,169.42385466321443" fill="none"></path></g></g></g></g></g></g><g transform="translate(61, 377)" clip-path="url(#clip_1)"><clipPath id="clip_1"><rect width="1372" height="22"></rect></clipPath><g><g><line x1="0" y1="0" x2="0" y2="5" style="visibility: inherit;" fill="rgb(0, 0, 0)" stroke="rgb(204, 204, 204)" stroke-width="1px"></line><line x1="114.34041651089986" y1="0" x2="114.34041651089986" y2="5" style="visibility: inherit;" fill="rgb(0, 0, 0)" stroke="rgb(204, 204, 204)" stroke-width="1px"></line><line x1="228.6808330217997" y1="0" x2="228.6808330217997" y2="5" style="visibility: inherit;" fill="rgb(0, 0, 0)" stroke="rgb(204, 204, 204)" stroke-width="1px"></line><line x1="343.0212495326996" y1="0" x2="343.0212495326996" y2="5" style="visibility: inherit;" fill="rgb(0, 0, 0)" stroke="rgb(204, 204, 204)" stroke-width="1px"></line><line x1="457.3616660435994" y1="0" x2="457.3616660435994" y2="5" style="visibility: inherit;" fill="rgb(0, 0, 0)" stroke="rgb(204, 204, 204)" stroke-width="1px"></line><line x1="571.7020825544994" y1="0" x2="571.7020825544994" y2="5" style="visibility: inherit;" fill="rgb(0, 0, 0)" stroke="rgb(204, 204, 204)" stroke-width="1px"></line><line x1="686.0424990653992" y1="0" x2="686.0424990653992" y2="5" style="visibility: inherit;" fill="rgb(0, 0, 0)" stroke="rgb(204, 204, 204)" stroke-width="1px"></line><line x1="800.3829155762991" y1="0" x2="800.3829155762991" y2="5" style="visibility: inherit;" fill="rgb(0, 0, 0)" stroke="rgb(204, 204, 204)" stroke-width="1px"></line><line x1="914.7233320871989" y1="0" x2="914.7233320871989" y2="5" style="visibility: inherit;" fill="rgb(0, 0, 0)" stroke="rgb(204, 204, 204)" stroke-width="1px"></line><line x1="1029.0637485980988" y1="0" x2="1029.0637485980988" y2="5" style="visibility: inherit;" fill="rgb(0, 0, 0)" stroke="rgb(204, 204, 204)" stroke-width="1px"></line><line x1="1143.4041651089988" y1="0" x2="1143.4041651089988" y2="5" style="visibility: inherit;" fill="rgb(0, 0, 0)" stroke="rgb(204, 204, 204)" stroke-width="1px"></line><line x1="1257.7445816198983" y1="0" x2="1257.7445816198983" y2="5" style="visibility: inherit;" fill="rgb(0, 0, 0)" stroke="rgb(204, 204, 204)" stroke-width="1px"></line><line x1="1372.0849981307983" y1="0" x2="1372.0849981307983" y2="5" style="visibility: inherit;" fill="rgb(0, 0, 0)" stroke="rgb(204, 204, 204)" stroke-width="1px"></line></g><g transform="translate(0, 8)"><text style="text-anchor: middle; visibility: hidden; font-family: Roboto, sans-serif; font-size: 12px; font-weight: 200;" x="0" y="0" dx="0em" dy="0.95em" fill="rgb(50, 49, 63)" stroke="none" stroke-width="1px">-5</text><text style="text-anchor: middle; visibility: inherit; font-family: Roboto, sans-serif; font-size: 12px; font-weight: 200;" x="114.34041651089986" y="0" dx="0em" dy="0.95em" fill="rgb(50, 49, 63)" stroke="none" stroke-width="1px">0</text><text style="text-anchor: middle; visibility: inherit; font-family: Roboto, sans-serif; font-size: 12px; font-weight: 200;" x="228.6808330217997" y="0" dx="0em" dy="0.95em" fill="rgb(50, 49, 63)" stroke="none" stroke-width="1px">5</text><text style="text-anchor: middle; visibility: inherit; font-family: Roboto, sans-serif; font-size: 12px; font-weight: 200;" x="343.0212495326996" y="0" dx="0em" dy="0.95em" fill="rgb(50, 49, 63)" stroke="none" stroke-width="1px">10</text><text style="text-anchor: middle; visibility: inherit; font-family: Roboto, sans-serif; font-size: 12px; font-weight: 200;" x="457.3616660435994" y="0" dx="0em" dy="0.95em" fill="rgb(50, 49, 63)" stroke="none" stroke-width="1px">15</text><text style="text-anchor: middle; visibility: inherit; font-family: Roboto, sans-serif; font-size: 12px; font-weight: 200;" x="571.7020825544994" y="0" dx="0em" dy="0.95em" fill="rgb(50, 49, 63)" stroke="none" stroke-width="1px">20</text><text style="text-anchor: middle; visibility: inherit; font-family: Roboto, sans-serif; font-size: 12px; font-weight: 200;" x="686.0424990653992" y="0" dx="0em" dy="0.95em" fill="rgb(50, 49, 63)" stroke="none" stroke-width="1px">25</text><text style="text-anchor: middle; visibility: inherit; font-family: Roboto, sans-serif; font-size: 12px; font-weight: 200;" x="800.3829155762991" y="0" dx="0em" dy="0.95em" fill="rgb(50, 49, 63)" stroke="none" stroke-width="1px">30</text><text style="text-anchor: middle; visibility: inherit; font-family: Roboto, sans-serif; font-size: 12px; font-weight: 200;" x="914.7233320871989" y="0" dx="0em" dy="0.95em" fill="rgb(50, 49, 63)" stroke="none" stroke-width="1px">35</text><text style="text-anchor: middle; visibility: inherit; font-family: Roboto, sans-serif; font-size: 12px; font-weight: 200;" x="1029.0637485980988" y="0" dx="0em" dy="0.95em" fill="rgb(50, 49, 63)" stroke="none" stroke-width="1px">40</text><text style="text-anchor: middle; visibility: inherit; font-family: Roboto, sans-serif; font-size: 12px; font-weight: 200;" x="1143.4041651089988" y="0" dx="0em" dy="0.95em" fill="rgb(50, 49, 63)" stroke="none" stroke-width="1px">45</text><text style="text-anchor: middle; visibility: inherit; font-family: Roboto, sans-serif; font-size: 12px; font-weight: 200;" x="1257.7445816198983" y="0" dx="0em" dy="0.95em" fill="rgb(50, 49, 63)" stroke="none" stroke-width="1px">50</text><text style="text-anchor: middle; visibility: hidden; font-family: Roboto, sans-serif; font-size: 12px; font-weight: 200;" x="1372.0849981307983" y="0" dx="0em" dy="0.95em" fill="rgb(50, 49, 63)" stroke="none" stroke-width="1px">55</text></g><line x1="0" y1="0" x2="1372.0849981307983" y2="0" fill="rgb(0, 0, 0)" stroke="rgb(204, 204, 204)" stroke-width="1px"></line></g></g></g></g></svg>