<svg viewBox="0 0 1434 400" xmlns="http://www.w3.org/2000/svg"><g><g><g><g><g><line x1="51.53200149536133" y1="377.8999996185303" x2="46.53200149536133" y2="377.8999996185303" style="visibility: inherit;" fill="rgb(0, 0, 0)" stroke="rgb(204, 204, 204)" stroke-width="1px"></line><line x1="51.53200149536133" y1="348.83076887864337" x2="46.53200149536133" y2="348.83076887864337" style="visibility: inherit;" fill="rgb(0, 0, 0)" stroke="rgb(204, 204, 204)" stroke-width="1px"></line><line x1="51.53200149536133" y1="319.7615381387564" x2="46.53200149536133" y2="319.7615381387564" style="visibility: inherit;" fill="rgb(0, 0, 0)" stroke="rgb(204, 204, 204)" stroke-width="1px"></line><line x1="51.53200149536133" y1="290.6923073988694" x2="46.53200149536133" y2="290.6923073988694" style="visibility: inherit;" fill="rgb(0, 0, 0)" stroke="rgb(204, 204, 204)" stroke-width="1px"></line><line x1="51.53200149536133" y1="261.6230766589825" x2="46.53200149536133" y2="261.6230766589825" style="visibility: inherit;" fill="rgb(0, 0, 0)" stroke="rgb(204, 204, 204)" stroke-width="1px"></line><line x1="51.53200149536133" y1="232.55384591909558" x2="46.53200149536133" y2="232.55384591909558" style="visibility: inherit;" fill="rgb(0, 0, 0)" stroke="rgb(204, 204, 204)" stroke-width="1px"></line><line x1="51.53200149536133" y1="203.48461517920865" x2="46.53200149536133" y2="203.48461517920865" style="visibility: inherit;" fill="rgb(0, 0, 0)" stroke="rgb(204, 204, 204)" stroke-width="1px"></line><line x1="51.53200149536133" y1="174.41538443932168" x2="46.53200149536133" y2="174.41538443932168" style="visibility: inherit;" fill="rgb(0, 0, 0)" stroke="rgb(204, 204, 204)" stroke-width="1px"></line><line x1="51.53200149536133" y1="145.34615369943475" x2="46.53200149536133" y2="145.34615369943475" style="visibility: inherit;" fill="rgb(0, 0, 0)" stroke="rgb(204, 204, 204)" stroke-width="1px"></line><line x1="51.53200149536133" y1="116.27692295954779" x2="46.53200149536133" y2="116.27692295954779" style="visibility: inherit;" fill="rgb(0, 0, 0)" stroke="rgb(204, 204, 204)" stroke-width="1px"></line><line x1="51.53200149536133" y1="87.20769221966086" x2="46.53200149536133" y2="87.20769221966086" style="visibility: inherit;" fill="rgb(0, 0, 0)" stroke="rgb(204, 204, 204)" stroke-width="1px"></line><line x1="51.53200149536133" y1="58.138461479773895" x2="46.53200149536133" y2="58.138461479773895" style="visibility: inherit;" fill="rgb(0, 0, 0)" stroke="rgb(204, 204, 204)" stroke-width="1px"></line><line x1="51.53200149536133" y1="29.069230739886926" x2="46.53200149536133" y2="29.069230739886926" style="visibility: inherit;" fill="rgb(0, 0, 0)" stroke="rgb(204, 204, 204)" stroke-width="1px"></line><line x1="51.53200149536133" y1="0" x2="46.53200149536133" y2="0" style="visibility: inherit;" fill="rgb(0, 0, 0)" stroke="rgb(204, 204, 204)" stroke-width="1px"></line></g><g transform="translate(41.53200149536133, 0)"><text style="text-anchor: end; visibility: hidden; font-family: Roboto, sans-serif; font-size: 12px; font-weight: 200;" x="0" y="377.8999996185303" dx="0em" dy="0.3em" fill="rgb(50, 49, 63)" stroke="none" stroke-width="1px">-0.1</text><text style="text-anchor: end; visibility: inherit; font-family: Roboto, sans-serif; font-size: 12px; font-weight: 200;" x="0" y="348.83076887864337" dx="0em" dy="0.3em" fill="rgb(50, 49, 63)" stroke="none" stroke-width="1px">0</text><text style="text-anchor: end; visibility: inherit; font-family: Roboto, sans-serif; font-size: 12px; font-weight: 200;" x="0" y="319.7615381387564" dx="0em" dy="0.3em" fill="rgb(50, 49, 63)" stroke="none" stroke-width="1px">0.1</text><text style="text-anchor: end; visibility: inherit; font-family: Roboto, sans-serif; font-size: 12px; font-weight: 200;" x="0" y="290.6923073988694" dx="0em" dy="0.3em" fill="rgb(50, 49, 63)" stroke="none" stroke-width="1px">0.2</text><text style="text-anchor: end; visibility: inherit; font-family: Roboto, sans-serif; font-size: 12px; font-weight: 200;" x="0" y="261.6230766589825" dx="0em" dy="0.3em" fill="rgb(50, 49, 63)" stroke="none" stroke-width="1px">0.3</text><text style="text-anchor: end; visibility: inherit; font-family: Roboto, sans-serif; font-size: 12px; font-weight: 200;" x="0" y="232.55384591909558" dx="0em" dy="0.3em" fill="rgb(50, 49, 63)" stroke="none" stroke-width="1px">0.4</text><text style="text-anchor: end; visibility: inherit; font-family: Roboto, sans-serif; font-size: 12px; font-weight: 200;" x="0" y="203.48461517920865" dx="0em" dy="0.3em" fill="rgb(50, 49, 63)" stroke="none" stroke-width="1px">0.5</text><text style="text-anchor: end; visibility: inherit; font-family: Roboto, sans-serif; font-size: 12px; font-weight: 200;" x="0" y="174.41538443932168" dx="0em" dy="0.3em" fill="rgb(50, 49, 63)" stroke="none" stroke-width="1px">0.6</text><text style="text-anchor: end; visibility: inherit; font-family: Roboto, sans-serif; font-size: 12px; font-weight: 200;" x="0" y="145.34615369943475" dx="0em" dy="0.3em" fill="rgb(50, 49, 63)" stroke="none" stroke-width="1px">0.7</text><text style="text-anchor: end; visibility: inherit; font-family: Roboto, sans-serif; font-size: 12px; font-weight: 200;" x="0" y="116.27692295954779" dx="0em" dy="0.3em" fill="rgb(50, 49, 63)" stroke="none" stroke-width="1px">0.8</text><text style="text-anchor: end; visibility: inherit; font-family: Roboto, sans-serif; font-size: 12px; font-weight: 200;" x="0" y="87.20769221966086" dx="0em" dy="0.3em" fill="rgb(50, 49, 63)" stroke="none" stroke-width="1px">0.9</text><text style="text-anchor: end; visibility: inherit; font-family: Roboto, sans-serif; font-size: 12px; font-weight: 200;" x="0" y="58.138461479773895" dx="0em" dy="0.3em" fill="rgb(50, 49, 63)" stroke="none" stroke-width="1px">1</text><text style="text-anchor: end; visibility: inherit; font-family: Roboto, sans-serif; font-size: 12px; font-weight: 200;" x="0" y="29.069230739886926" dx="0em" dy="0.3em" fill="rgb(50, 49, 63)" stroke="none" stroke-width="1px">1.1</text><text style="text-anchor: end; visibility: hidden; font-family: Roboto, sans-serif; font-size: 12px; font-weight: 200;" x="0" y="0" dx="0em" dy="0.3em" fill="rgb(50, 49, 63)" stroke="none" stroke-width="1px">1.2</text></g><line x1="51.53200149536133" y1="0" x2="51.53200149536133" y2="377.8999996185303" fill="rgb(0, 0, 0)" stroke="rgb(204, 204, 204)" stroke-width="1px"></line></g></g><g transform="translate(51, 0)" clip-path="url(#clip_0)"><clipPath id="clip_0"><rect width="1382" height="377"></rect></clipPath><g><g><g><line x1="0" y1="0" x2="0" y2="377.8999996185303" fill="rgb(0, 0, 0)" stroke="rgb(60, 60, 60)" stroke-width="1px" opacity="0.25"></line><line x1="115.20566654205322" y1="0" x2="115.20566654205322" y2="377.8999996185303" fill="rgb(0, 0, 0)" stroke="rgb(60, 60, 60)" stroke-width="1px" opacity="0.25"></line><line x1="230.41133308410645" y1="0" x2="230.41133308410645" y2="377.8999996185303" fill="rgb(0, 0, 0)" stroke="rgb(60, 60, 60)" stroke-width="1px" opacity="0.25"></line><line x1="345.61699962615967" y1="0" x2="345.61699962615967" y2="377.8999996185303" fill="rgb(0, 0, 0)" stroke="rgb(60, 60, 60)" stroke-width="1px" opacity="0.25"></line><line x1="460.8226661682129" y1="0" x2="460.8226661682129" y2="377.8999996185303" fill="rgb(0, 0, 0)" stroke="rgb(60, 60, 60)" stroke-width="1px" opacity="0.25"></line><line x1="576.0283327102661" y1="0" x2="576.0283327102661" y2="377.8999996185303" fill="rgb(0, 0, 0)" stroke="rgb(60, 60, 60)" stroke-width="1px" opacity="0.25"></line><line x1="691.2339992523193" y1="0" x2="691.2339992523193" y2="377.8999996185303" fill="rgb(0, 0, 0)" stroke="rgb(60, 60, 60)" stroke-width="1px" opacity="0.25"></line><line x1="806.4396657943726" y1="0" x2="806.4396657943726" y2="377.8999996185303" fill="rgb(0, 0, 0)" stroke="rgb(60, 60, 60)" stroke-width="1px" opacity="0.25"></line><line x1="921.6453323364258" y1="0" x2="921.6453323364258" y2="377.8999996185303" fill="rgb(0, 0, 0)" stroke="rgb(60, 60, 60)" stroke-width="1px" opacity="0.25"></line><line x1="1036.850998878479" y1="0" x2="1036.850998878479" y2="377.8999996185303" fill="rgb(0, 0, 0)" stroke="rgb(60, 60, 60)" stroke-width="1px" opacity="0.25"></line><line x1="1152.0566654205322" y1="0" x2="1152.0566654205322" y2="377.8999996185303" fill="rgb(0, 0, 0)" stroke="rgb(60, 60, 60)" stroke-width="1px" opacity="0.25"></line><line x1="1267.2623319625854" y1="0" x2="1267.2623319625854" y2="377.8999996185303" fill="rgb(0, 0, 0)" stroke="rgb(60, 60, 60)" stroke-width="1px" opacity="0.25"></line><line x1="1382.4679985046387" y1="0" x2="1382.4679985046387" y2="377.8999996185303" fill="rgb(0, 0, 0)" stroke="rgb(60, 60, 60)" stroke-width="1px" opacity="0.25"></line></g><g><line x1="0" y1="377.8999996185303" x2="1382.4679985046387" y2="377.8999996185303" fill="rgb(0, 0, 0)" stroke="rgb(60, 60, 60)" stroke-width="1px" opacity="0.25"></line><line x1="0" y1="348.83076887864337" x2="1382.4679985046387" y2="348.83076887864337" fill="rgb(0, 0, 0)" stroke="rgb(60, 60, 60)" stroke-width="1px" opacity="0.25"></line><line x1="0" y1="319.7615381387564" x2="1382.4679985046387" y2="319.7615381387564" fill="rgb(0, 0, 0)" stroke="rgb(60, 60, 60)" stroke-width="1px" opacity="0.25"></line><line x1="0" y1="290.6923073988694" x2="1382.4679985046387" y2="290.6923073988694" fill="rgb(0, 0, 0)" stroke="rgb(60, 60, 60)" stroke-width="1px" opacity="0.25"></line><line x1="0" y1="261.6230766589825" x2="1382.4679985046387" y2="261.6230766589825" fill="rgb(0, 0, 0)" stroke="rgb(60, 60, 60)" stroke-width="1px" opacity="0.25"></line><line x1="0" y1="232.55384591909558" x2="1382.4679985046387" y2="232.55384591909558" fill="rgb(0, 0, 0)" stroke="rgb(60, 60, 60)" stroke-width="1px" opacity="0.25"></line><line x1="0" y1="203.48461517920865" x2="1382.4679985046387" y2="203.48461517920865" fill="rgb(0, 0, 0)" stroke="rgb(60, 60, 60)" stroke-width="1px" opacity="0.25"></line><line x1="0" y1="174.41538443932168" x2="1382.4679985046387" y2="174.41538443932168" fill="rgb(0, 0, 0)" stroke="rgb(60, 60, 60)" stroke-width="1px" opacity="0.25"></line><line x1="0" y1="145.34615369943475" x2="1382.4679985046387" y2="145.34615369943475" fill="rgb(0, 0, 0)" stroke="rgb(60, 60, 60)" stroke-width="1px" opacity="0.25"></line><line x1="0" y1="116.27692295954779" x2="1382.4679985046387" y2="116.27692295954779" fill="rgb(0, 0, 0)" stroke="rgb(60, 60, 60)" stroke-width="1px" opacity="0.25"></line><line x1="0" y1="87.20769221966086" x2="1382.4679985046387" y2="87.20769221966086" fill="rgb(0, 0, 0)" stroke="rgb(60, 60, 60)" stroke-width="1px" opacity="0.25"></line><line x1="0" y1="58.138461479773895" x2="1382.4679985046387" y2="58.138461479773895" fill="rgb(0, 0, 0)" stroke="rgb(60, 60, 60)" stroke-width="1px" opacity="0.25"></line><line x1="0" y1="29.069230739886926" x2="1382.4679985046387" y2="29.069230739886926" fill="rgb(0, 0, 0)" stroke="rgb(60, 60, 60)" stroke-width="1px" opacity="0.25"></line><line x1="0" y1="0" x2="1382.4679985046387" y2="0" fill="rgb(0, 0, 0)" stroke="rgb(60, 60, 60)" stroke-width="1px" opacity="0.25"></line></g></g></g><g><g><line x1="0" y1="348.83076887864337" x2="1382.4679985046387" y2="348.83076887864337" fill="rgb(0, 0, 0)" stroke="rgb(153, 153, 153)" stroke-width="1.5px"></line></g></g><g><g><line x1="115.20566654205322" y1="0" x2="115.20566654205322" y2="377.8999996185303" fill="rgb(0, 0, 0)" stroke="rgb(153, 153, 153)" stroke-width="1.5px"></line></g></g><g><g><g><g><g><path style="fill: none;" stroke="rgb(0, 119, 187)" stroke-width="2px" d="M115.20566654205322,317.28331892855175L126.72623319625853,291.07685768473766L138.24679985046387,304.8922185458756L149.76736650466918,257.25059010277647L161.28793315887452,266.7931522019173L172.80849981307983,208.8256038854861L184.32906646728514,260.66881871640726L195.84963312149048,208.75439151131093L207.3701997756958,192.44657589577793L218.8907664299011,168.66136569548954L230.41133308410645,222.64096907827695L241.93189973831176,197.92998068709986L253.45246639251707,165.81283607525998L264.97303304672243,226.13041872938874L276.49359970092775,193.3723367600549L288.01416635513306,225.77434819520715L299.53473300933837,164.95827025854643L311.05529966354374,155.05962896191818L322.57586631774905,119.66666315818615L334.09643297195436,174.1447704868114L345.61699962615967,161.96731588996659L357.13756628036504,228.12438253290478L368.6581329345703,173.0765675475724L380.17869958877566,218.51059939628303L391.69926624298097,178.41756491715572L403.2198328971863,176.77966298451548L414.7403995513916,143.09581148759884L426.26096620559696,132.76989594591967L437.7815328598022,173.21900962253443L449.3020995140076,173.57507149341018L460.8226661682129,225.0622157901498L472.3432328224182,272.27657431985085L483.8637994766235,185.82373846443016L495.3843661308289,169.65833893394165L506.90493278503413,203.1285533083329L518.4254994392395,213.0271859416552L529.9460660934449,133.98052363350897L541.4666327476501,209.53773629054342L552.9871994018555,147.65345541464373L564.5077660560607,163.4627930742565L576.0283327102661,145.94434110782836L587.5488993644714,162.32337776084233L599.0694660186767,137.54119432210177L610.5900326728821,219.29394417551552L622.1105993270875,258.88849203541673L633.6311659812927,187.9601443429082L645.1517326354981,190.87988633731288L656.6722992897033,144.44886392353845L668.1928659439087,177.70544117540422L679.713432598114,135.76085031449952L691.2339992523193,140.88821056155737L702.7545659065246,177.8478659237545L714.2751325607301,191.37837295653898L725.7956992149353,249.98684130385232L737.3162658691406,265.0840378951019L748.836832523346,262.94764067992975L760.3573991775513,222.64096907827695L771.8779658317566,142.59732486837277L783.3985324859619,173.57507149341018L794.9190991401672,181.83579353078648L806.4396657943726,171.72353243824452L817.9602324485779,123.65460809182986L829.4807991027832,140.03364474484385L841.0013657569884,207.47255144954647L852.5219324111939,232.82445987160582L864.0424990653992,128.28346439304994L875.5630657196044,138.18210568967814L887.0836323738099,113.11505542762524L898.6041990280152,112.68778118257433L910.1247656822204,110.83624212740864L921.6453323364258,146.72769455036675L933.1658989906311,149.43379942224598L944.6864656448364,212.24384116242265L956.2070322990418,181.05245741485982L967.727598953247,198.6421217554631L979.2481656074524,244.78827734592517L990.7687322616578,270.28260185302906L1002.289298915863,232.39717696324905L1013.8098655700683,240.58669528975605L1025.3304322242736,188.74348045883488L1036.850998878479,160.4006263315015L1048.3715655326844,152.6383909133513L1059.8921321868897,205.193729486024L1071.412698841095,160.4006263315015L1082.9332654953002,271.8492914114941L1094.4538321495056,176.70845061034035L1105.974398803711,191.3071605823638L1117.4949654579164,139.60637049979292L1129.0155321121215,180.98124504068463L1140.5360987663269,117.7439117288453L1152.0566654205322,234.39114943007087L1163.5772320747376,248.27771833373112L1175.0977987289427,232.11232746654844L1186.618365383148,234.74721130094665L1198.1389320373535,168.51892362052746L1209.6594986915588,222.28489854409537L1221.1800653457642,176.99330010704097L1232.7006319999696,219.1515194271652L1244.221198654175,216.65906034111728L1255.74176530838,211.10442584900852" fill="none"></path></g><g><path style="fill: none;" stroke="rgb(255, 112, 67)" stroke-width="2px" d="M115.20566654205322,334.4030259990416L126.72623319625853,309.1878711087335L138.24679985046387,313.96372205214533L149.76736650466918,270.7472842527866L161.28793315887452,251.3433070823011L172.80849981307983,229.50131103979655L184.32906646728514,229.00034671509428L195.84963312149048,173.8609779134258L207.3701997756958,166.51352425327534L218.8907664299011,129.24185126719837L230.41133308410645,127.47178194034694L241.93189973831176,137.39085131219477L253.45246639251707,143.9033875333238L264.97303304672243,208.5610438511113L276.49359970092775,205.15449337378078L288.01416635513306,164.71004921902497L299.53473300933837,105.22900404211353L311.05529966354374,117.75309483305767L322.57586631774905,119.55656986730807L334.09643297195436,151.2508411934743L345.61699962615967,138.8269501981153L357.13756628036504,131.98046086266706L368.6581329345703,173.96117770901097L380.17869958877566,201.28037561584114L391.69926624298097,155.85970258476777L403.2198328971863,130.31057400478903L414.7403995513916,95.84430470236694L426.26096620559696,82.85265529411949L437.7815328598022,82.65227302956093L449.3020995140076,71.9316572728672L460.8226661682129,100.85393062277753L472.3432328224182,155.69270870099646L483.8637994766235,180.8076843710709L495.3843661308289,157.19560167510318L506.90493278503413,156.6946373504009L518.4254994392395,146.34139774203706L529.9460660934449,159.70042329861434L541.4666327476501,221.68628143573105L552.9871994018555,157.66317761901817L564.5077660560607,126.20267693819775L576.0283327102661,137.75822746052464L587.5488993644714,116.45058412350951L599.0694660186767,128.2733283251929L610.5900326728821,175.56425315209108L622.1105993270875,253.4807525574824L633.6311659812927,260.8616119250318L645.1517326354981,139.69529067114738L656.6722992897033,95.77751061418073L668.1928659439087,92.80513037336628L679.713432598114,95.30993467026575L691.2339992523193,109.20331293233248L702.7545659065246,110.33882975810931L714.2751325607301,156.46086670505517L725.7956992149353,191.92906465688174L737.3162658691406,256.4865298423899L748.836832523346,257.755643507845L760.3573991775513,180.47369660352825L771.8779658317566,132.91557809727362L783.3985324859619,107.5334434010662L794.9190991401672,101.28810085929356L806.4396657943726,108.23478999032695L817.9602324485779,83.35361961882174L829.4807991027832,106.33113248710313L841.0013657569884,159.86741718238565L852.5219324111939,152.05238757832018L864.0424990653992,178.4698393047193L875.5630657196044,161.1699105653221L887.0836323738099,129.54243332734205L898.6041990280152,110.23864728913591L910.1247656822204,87.09414053708315L921.6453323364258,92.50454831322259L933.1658989906311,93.07230672611101L944.6864656448364,147.1763325076702L956.2070322990418,208.62783793929748L967.727598953247,162.40562718668406L979.2481656074524,177.66831024648513L990.7687322616578,242.7267397566956L1002.289298915863,202.24889855784664L1013.8098655700683,221.58609030345175L1025.3304322242736,169.0183458767865L1036.850998878479,119.85713460084003L1048.3715655326844,133.8507126584919L1059.8921321868897,155.29194417187935L1071.412698841095,180.13972616259733L1082.9332654953002,161.0029340081625L1094.4538321495056,118.62143530608978L1105.974398803711,112.87705708901942L1117.4949654579164,134.05109492305044L1129.0155321121215,112.07551070417351L1140.5360987663269,129.876403768273L1152.0566654205322,153.956045081544L1163.5772320747376,216.44286754336292L1175.0977987289427,212.33497047677164L1186.618365383148,217.24440526490298L1198.1389320373535,155.45893805565066L1209.6594986915588,143.30222341303644L1221.1800653457642,166.11275972415822L1232.7006319999696,214.9733716133493L1244.221198654175,230.40303989361587L1255.74176530838,205.05430224150152" fill="none"></path></g></g></g></g></g></g><g transform="translate(51, 377)" clip-path="url(#clip_1)"><clipPath id="clip_1"><rect width="1382" height="22"></rect></clipPath><g><g><line x1="0" y1="0" x2="0" y2="5" style="visibility: inherit;" fill="rgb(0, 0, 0)" stroke="rgb(204, 204, 204)" stroke-width="1px"></line><line x1="115.20566654205322" y1="0" x2="115.20566654205322" y2="5" style="visibility: inherit;" fill="rgb(0, 0, 0)" stroke="rgb(204, 204, 204)" stroke-width="1px"></line><line x1="230.41133308410645" y1="0" x2="230.41133308410645" y2="5" style="visibility: inherit;" fill="rgb(0, 0, 0)" stroke="rgb(204, 204, 204)" stroke-width="1px"></line><line x1="345.61699962615967" y1="0" x2="345.61699962615967" y2="5" style="visibility: inherit;" fill="rgb(0, 0, 0)" stroke="rgb(204, 204, 204)" stroke-width="1px"></line><line x1="460.8226661682129" y1="0" x2="460.8226661682129" y2="5" style="visibility: inherit;" fill="rgb(0, 0, 0)" stroke="rgb(204, 204, 204)" stroke-width="1px"></line><line x1="576.0283327102661" y1="0" x2="576.0283327102661" y2="5" style="visibility: inherit;" fill="rgb(0, 0, 0)" stroke="rgb(204, 204, 204)" stroke-width="1px"></line><line x1="691.2339992523193" y1="0" x2="691.2339992523193" y2="5" style="visibility: inherit;" fill="rgb(0, 0, 0)" stroke="rgb(204, 204, 204)" stroke-width="1px"></line><line x1="806.4396657943726" y1="0" x2="806.4396657943726" y2="5" style="visibility: inherit;" fill="rgb(0, 0, 0)" stroke="rgb(204, 204, 204)" stroke-width="1px"></line><line x1="921.6453323364258" y1="0" x2="921.6453323364258" y2="5" style="visibility: inherit;" fill="rgb(0, 0, 0)" stroke="rgb(204, 204, 204)" stroke-width="1px"></line><line x1="1036.850998878479" y1="0" x2="1036.850998878479" y2="5" style="visibility: inherit;" fill="rgb(0, 0, 0)" stroke="rgb(204, 204, 204)" stroke-width="1px"></line><line x1="1152.0566654205322" y1="0" x2="1152.0566654205322" y2="5" style="visibility: inherit;" fill="rgb(0, 0, 0)" stroke="rgb(204, 204, 204)" stroke-width="1px"></line><line x1="1267.2623319625854" y1="0" x2="1267.2623319625854" y2="5" style="visibility: inherit;" fill="rgb(0, 0, 0)" stroke="rgb(204, 204, 204)" stroke-width="1px"></line><line x1="1382.4679985046387" y1="0" x2="1382.4679985046387" y2="5" style="visibility: inherit;" fill="rgb(0, 0, 0)" stroke="rgb(204, 204, 204)" stroke-width="1px"></line></g><g transform="translate(0, 8)"><text style="text-anchor: middle; visibility: hidden; font-family: Roboto, sans-serif; font-size: 12px; font-weight: 200;" x="0" y="0" dx="0em" dy="0.95em" fill="rgb(50, 49, 63)" stroke="none" stroke-width="1px">-10</text><text style="text-anchor: middle; visibility: hidden; font-family: Roboto, sans-serif; font-size: 12px; font-weight: 200;" x="115.20566654205322" y="0" dx="0em" dy="0.95em" fill="rgb(50, 49, 63)" stroke="none" stroke-width="1px">0</text><text style="text-anchor: middle; visibility: hidden; font-family: Roboto, sans-serif; font-size: 12px; font-weight: 200;" x="230.41133308410645" y="0" dx="0em" dy="0.95em" fill="rgb(50, 49, 63)" stroke="none" stroke-width="1px">10</text><text style="text-anchor: middle; visibility: hidden; font-family: Roboto, sans-serif; font-size: 12px; font-weight: 200;" x="345.61699962615967" y="0" dx="0em" dy="0.95em" fill="rgb(50, 49, 63)" stroke="none" stroke-width="1px">20</text><text style="text-anchor: middle; visibility: hidden; font-family: Roboto, sans-serif; font-size: 12px; font-weight: 200;" x="460.8226661682129" y="0" dx="0em" dy="0.95em" fill="rgb(50, 49, 63)" stroke="none" stroke-width="1px">30</text><text style="text-anchor: middle; visibility: hidden; font-family: Roboto, sans-serif; font-size: 12px; font-weight: 200;" x="576.0283327102661" y="0" dx="0em" dy="0.95em" fill="rgb(50, 49, 63)" stroke="none" stroke-width="1px">40</text><text style="text-anchor: middle; visibility: hidden; font-family: Roboto, sans-serif; font-size: 12px; font-weight: 200;" x="691.2339992523193" y="0" dx="0em" dy="0.95em" fill="rgb(50, 49, 63)" stroke="none" stroke-width="1px">50</text><text style="text-anchor: middle; visibility: hidden; font-family: Roboto, sans-serif; font-size: 12px; font-weight: 200;" x="806.4396657943726" y="0" dx="0em" dy="0.95em" fill="rgb(50, 49, 63)" stroke="none" stroke-width="1px">60</text><text style="text-anchor: middle; visibility: hidden; font-family: Roboto, sans-serif; font-size: 12px; font-weight: 200;" x="921.6453323364258" y="0" dx="0em" dy="0.95em" fill="rgb(50, 49, 63)" stroke="none" stroke-width="1px">70</text><text style="text-anchor: middle; visibility: hidden; font-family: Roboto, sans-serif; font-size: 12px; font-weight: 200;" x="1036.850998878479" y="0" dx="0em" dy="0.95em" fill="rgb(50, 49, 63)" stroke="none" stroke-width="1px">80</text><text style="text-anchor: middle; visibility: hidden; font-family: Roboto, sans-serif; font-size: 12px; font-weight: 200;" x="1152.0566654205322" y="0" dx="0em" dy="0.95em" fill="rgb(50, 49, 63)" stroke="none" stroke-width="1px">90</text><text style="text-anchor: middle; visibility: hidden; font-family: Roboto, sans-serif; font-size: 12px; font-weight: 200;" x="1267.2623319625854" y="0" dx="0em" dy="0.95em" fill="rgb(50, 49, 63)" stroke="none" stroke-width="1px">100</text><text style="text-anchor: middle; visibility: hidden; font-family: Roboto, sans-serif; font-size: 12px; font-weight: 200;" x="1382.4679985046387" y="0" dx="0em" dy="0.95em" fill="rgb(50, 49, 63)" stroke="none" stroke-width="1px">110</text></g><line x1="0" y1="0" x2="1382.4679985046387" y2="0" fill="rgb(0, 0, 0)" stroke="rgb(204, 204, 204)" stroke-width="1px"></line></g></g></g></g></svg>