<svg viewBox="0 0 1434 400" xmlns="http://www.w3.org/2000/svg"><g><g><g><g><g><line x1="41.149001121520996" y1="377.8999996185303" x2="36.149001121520996" y2="377.8999996185303" style="visibility: inherit;" fill="rgb(0, 0, 0)" stroke="rgb(204, 204, 204)" stroke-width="1px"></line><line x1="41.149001121520996" y1="346.4083329836527" x2="36.149001121520996" y2="346.4083329836527" style="visibility: inherit;" fill="rgb(0, 0, 0)" stroke="rgb(204, 204, 204)" stroke-width="1px"></line><line x1="41.149001121520996" y1="314.91666634877527" x2="36.149001121520996" y2="314.91666634877527" style="visibility: inherit;" fill="rgb(0, 0, 0)" stroke="rgb(204, 204, 204)" stroke-width="1px"></line><line x1="41.149001121520996" y1="283.4249997138977" x2="36.149001121520996" y2="283.4249997138977" style="visibility: inherit;" fill="rgb(0, 0, 0)" stroke="rgb(204, 204, 204)" stroke-width="1px"></line><line x1="41.149001121520996" y1="251.9333330790202" x2="36.149001121520996" y2="251.9333330790202" style="visibility: inherit;" fill="rgb(0, 0, 0)" stroke="rgb(204, 204, 204)" stroke-width="1px"></line><line x1="41.149001121520996" y1="220.44166644414264" x2="36.149001121520996" y2="220.44166644414264" style="visibility: inherit;" fill="rgb(0, 0, 0)" stroke="rgb(204, 204, 204)" stroke-width="1px"></line><line x1="41.149001121520996" y1="188.94999980926514" x2="36.149001121520996" y2="188.94999980926514" style="visibility: inherit;" fill="rgb(0, 0, 0)" stroke="rgb(204, 204, 204)" stroke-width="1px"></line><line x1="41.149001121520996" y1="157.4583331743876" x2="36.149001121520996" y2="157.4583331743876" style="visibility: inherit;" fill="rgb(0, 0, 0)" stroke="rgb(204, 204, 204)" stroke-width="1px"></line><line x1="41.149001121520996" y1="125.9666665395101" x2="36.149001121520996" y2="125.9666665395101" style="visibility: inherit;" fill="rgb(0, 0, 0)" stroke="rgb(204, 204, 204)" stroke-width="1px"></line><line x1="41.149001121520996" y1="94.47499990463257" x2="36.149001121520996" y2="94.47499990463257" style="visibility: inherit;" fill="rgb(0, 0, 0)" stroke="rgb(204, 204, 204)" stroke-width="1px"></line><line x1="41.149001121520996" y1="62.98333326975503" x2="36.149001121520996" y2="62.98333326975503" style="visibility: inherit;" fill="rgb(0, 0, 0)" stroke="rgb(204, 204, 204)" stroke-width="1px"></line><line x1="41.149001121520996" y1="31.491666634877536" x2="36.149001121520996" y2="31.491666634877536" style="visibility: inherit;" fill="rgb(0, 0, 0)" stroke="rgb(204, 204, 204)" stroke-width="1px"></line><line x1="41.149001121520996" y1="0" x2="36.149001121520996" y2="0" style="visibility: inherit;" fill="rgb(0, 0, 0)" stroke="rgb(204, 204, 204)" stroke-width="1px"></line></g><g transform="translate(31.149001121520996, 0)"><text style="text-anchor: end; visibility: hidden; font-family: Roboto, sans-serif; font-size: 12px; font-weight: 200;" x="0" y="377.8999996185303" dx="0em" dy="0.3em" fill="rgb(50, 49, 63)" stroke="none" stroke-width="1px">-50</text><text style="text-anchor: end; visibility: inherit; font-family: Roboto, sans-serif; font-size: 12px; font-weight: 200;" x="0" y="346.4083329836527" dx="0em" dy="0.3em" fill="rgb(50, 49, 63)" stroke="none" stroke-width="1px">0</text><text style="text-anchor: end; visibility: inherit; font-family: Roboto, sans-serif; font-size: 12px; font-weight: 200;" x="0" y="314.91666634877527" dx="0em" dy="0.3em" fill="rgb(50, 49, 63)" stroke="none" stroke-width="1px">50</text><text style="text-anchor: end; visibility: inherit; font-family: Roboto, sans-serif; font-size: 12px; font-weight: 200;" x="0" y="283.4249997138977" dx="0em" dy="0.3em" fill="rgb(50, 49, 63)" stroke="none" stroke-width="1px">100</text><text style="text-anchor: end; visibility: inherit; font-family: Roboto, sans-serif; font-size: 12px; font-weight: 200;" x="0" y="251.9333330790202" dx="0em" dy="0.3em" fill="rgb(50, 49, 63)" stroke="none" stroke-width="1px">150</text><text style="text-anchor: end; visibility: inherit; font-family: Roboto, sans-serif; font-size: 12px; font-weight: 200;" x="0" y="220.44166644414264" dx="0em" dy="0.3em" fill="rgb(50, 49, 63)" stroke="none" stroke-width="1px">200</text><text style="text-anchor: end; visibility: inherit; font-family: Roboto, sans-serif; font-size: 12px; font-weight: 200;" x="0" y="188.94999980926514" dx="0em" dy="0.3em" fill="rgb(50, 49, 63)" stroke="none" stroke-width="1px">250</text><text style="text-anchor: end; visibility: inherit; font-family: Roboto, sans-serif; font-size: 12px; font-weight: 200;" x="0" y="157.4583331743876" dx="0em" dy="0.3em" fill="rgb(50, 49, 63)" stroke="none" stroke-width="1px">300</text><text style="text-anchor: end; visibility: inherit; font-family: Roboto, sans-serif; font-size: 12px; font-weight: 200;" x="0" y="125.9666665395101" dx="0em" dy="0.3em" fill="rgb(50, 49, 63)" stroke="none" stroke-width="1px">350</text><text style="text-anchor: end; visibility: inherit; font-family: Roboto, sans-serif; font-size: 12px; font-weight: 200;" x="0" y="94.47499990463257" dx="0em" dy="0.3em" fill="rgb(50, 49, 63)" stroke="none" stroke-width="1px">400</text><text style="text-anchor: end; visibility: inherit; font-family: Roboto, sans-serif; font-size: 12px; font-weight: 200;" x="0" y="62.98333326975503" dx="0em" dy="0.3em" fill="rgb(50, 49, 63)" stroke="none" stroke-width="1px">450</text><text style="text-anchor: end; visibility: inherit; font-family: Roboto, sans-serif; font-size: 12px; font-weight: 200;" x="0" y="31.491666634877536" dx="0em" dy="0.3em" fill="rgb(50, 49, 63)" stroke="none" stroke-width="1px">500</text><text style="text-anchor: end; visibility: hidden; font-family: Roboto, sans-serif; font-size: 12px; font-weight: 200;" x="0" y="0" dx="0em" dy="0.3em" fill="rgb(50, 49, 63)" stroke="none" stroke-width="1px">550</text></g><line x1="41.149001121520996" y1="0" x2="41.149001121520996" y2="377.8999996185303" fill="rgb(0, 0, 0)" stroke="rgb(204, 204, 204)" stroke-width="1px"></line></g></g><g transform="translate(41, 0)" clip-path="url(#clip_0)"><clipPath id="clip_0"><rect width="1392" height="377"></rect></clipPath><g><g><g><line x1="0" y1="0" x2="0" y2="377.8999996185303" fill="rgb(0, 0, 0)" stroke="rgb(60, 60, 60)" stroke-width="1px" opacity="0.25"></line><line x1="116.07091657320657" y1="0" x2="116.07091657320657" y2="377.8999996185303" fill="rgb(0, 0, 0)" stroke="rgb(60, 60, 60)" stroke-width="1px" opacity="0.25"></line><line x1="232.14183314641315" y1="0" x2="232.14183314641315" y2="377.8999996185303" fill="rgb(0, 0, 0)" stroke="rgb(60, 60, 60)" stroke-width="1px" opacity="0.25"></line><line x1="348.21274971961975" y1="0" x2="348.21274971961975" y2="377.8999996185303" fill="rgb(0, 0, 0)" stroke="rgb(60, 60, 60)" stroke-width="1px" opacity="0.25"></line><line x1="464.2836662928263" y1="0" x2="464.2836662928263" y2="377.8999996185303" fill="rgb(0, 0, 0)" stroke="rgb(60, 60, 60)" stroke-width="1px" opacity="0.25"></line><line x1="580.354582866033" y1="0" x2="580.354582866033" y2="377.8999996185303" fill="rgb(0, 0, 0)" stroke="rgb(60, 60, 60)" stroke-width="1px" opacity="0.25"></line><line x1="696.4254994392395" y1="0" x2="696.4254994392395" y2="377.8999996185303" fill="rgb(0, 0, 0)" stroke="rgb(60, 60, 60)" stroke-width="1px" opacity="0.25"></line><line x1="812.4964160124462" y1="0" x2="812.4964160124462" y2="377.8999996185303" fill="rgb(0, 0, 0)" stroke="rgb(60, 60, 60)" stroke-width="1px" opacity="0.25"></line><line x1="928.5673325856526" y1="0" x2="928.5673325856526" y2="377.8999996185303" fill="rgb(0, 0, 0)" stroke="rgb(60, 60, 60)" stroke-width="1px" opacity="0.25"></line><line x1="1044.6382491588593" y1="0" x2="1044.6382491588593" y2="377.8999996185303" fill="rgb(0, 0, 0)" stroke="rgb(60, 60, 60)" stroke-width="1px" opacity="0.25"></line><line x1="1160.709165732066" y1="0" x2="1160.709165732066" y2="377.8999996185303" fill="rgb(0, 0, 0)" stroke="rgb(60, 60, 60)" stroke-width="1px" opacity="0.25"></line><line x1="1276.7800823052723" y1="0" x2="1276.7800823052723" y2="377.8999996185303" fill="rgb(0, 0, 0)" stroke="rgb(60, 60, 60)" stroke-width="1px" opacity="0.25"></line><line x1="1392.850998878479" y1="0" x2="1392.850998878479" y2="377.8999996185303" fill="rgb(0, 0, 0)" stroke="rgb(60, 60, 60)" stroke-width="1px" opacity="0.25"></line></g><g><line x1="0" y1="377.8999996185303" x2="1392.850998878479" y2="377.8999996185303" fill="rgb(0, 0, 0)" stroke="rgb(60, 60, 60)" stroke-width="1px" opacity="0.25"></line><line x1="0" y1="346.4083329836527" x2="1392.850998878479" y2="346.4083329836527" fill="rgb(0, 0, 0)" stroke="rgb(60, 60, 60)" stroke-width="1px" opacity="0.25"></line><line x1="0" y1="314.91666634877527" x2="1392.850998878479" y2="314.91666634877527" fill="rgb(0, 0, 0)" stroke="rgb(60, 60, 60)" stroke-width="1px" opacity="0.25"></line><line x1="0" y1="283.4249997138977" x2="1392.850998878479" y2="283.4249997138977" fill="rgb(0, 0, 0)" stroke="rgb(60, 60, 60)" stroke-width="1px" opacity="0.25"></line><line x1="0" y1="251.9333330790202" x2="1392.850998878479" y2="251.9333330790202" fill="rgb(0, 0, 0)" stroke="rgb(60, 60, 60)" stroke-width="1px" opacity="0.25"></line><line x1="0" y1="220.44166644414264" x2="1392.850998878479" y2="220.44166644414264" fill="rgb(0, 0, 0)" stroke="rgb(60, 60, 60)" stroke-width="1px" opacity="0.25"></line><line x1="0" y1="188.94999980926514" x2="1392.850998878479" y2="188.94999980926514" fill="rgb(0, 0, 0)" stroke="rgb(60, 60, 60)" stroke-width="1px" opacity="0.25"></line><line x1="0" y1="157.4583331743876" x2="1392.850998878479" y2="157.4583331743876" fill="rgb(0, 0, 0)" stroke="rgb(60, 60, 60)" stroke-width="1px" opacity="0.25"></line><line x1="0" y1="125.9666665395101" x2="1392.850998878479" y2="125.9666665395101" fill="rgb(0, 0, 0)" stroke="rgb(60, 60, 60)" stroke-width="1px" opacity="0.25"></line><line x1="0" y1="94.47499990463257" x2="1392.850998878479" y2="94.47499990463257" fill="rgb(0, 0, 0)" stroke="rgb(60, 60, 60)" stroke-width="1px" opacity="0.25"></line><line x1="0" y1="62.98333326975503" x2="1392.850998878479" y2="62.98333326975503" fill="rgb(0, 0, 0)" stroke="rgb(60, 60, 60)" stroke-width="1px" opacity="0.25"></line><line x1="0" y1="31.491666634877536" x2="1392.850998878479" y2="31.491666634877536" fill="rgb(0, 0, 0)" stroke="rgb(60, 60, 60)" stroke-width="1px" opacity="0.25"></line><line x1="0" y1="0" x2="1392.850998878479" y2="0" fill="rgb(0, 0, 0)" stroke="rgb(60, 60, 60)" stroke-width="1px" opacity="0.25"></line></g></g></g><g><g><line x1="0" y1="346.4083329836527" x2="1392.850998878479" y2="346.4083329836527" fill="rgb(0, 0, 0)" stroke="rgb(153, 153, 153)" stroke-width="1.5px"></line></g></g><g><g><line x1="116.07091657320657" y1="0" x2="116.07091657320657" y2="377.8999996185303" fill="rgb(0, 0, 0)" stroke="rgb(153, 153, 153)" stroke-width="1.5px"></line></g></g><g><g><g><g><g><path style="fill: none;" stroke="rgb(0, 119, 187)" stroke-width="2px" d="M116.07091657320657,334.90615383133076L127.67800823052723,341.9629446393223L139.2850998878479,341.5328726316235L150.89219154516857,343.73806774607635L162.4992832024892,342.4702928270515L174.10637485980988,344.54977427121855L185.71346651713054,343.9272983723095L197.32055817445118,344.6509281740047L208.92764983177184,344.99548735785055L220.5347414890925,345.022356046526L232.14183314641315,345.1066574976471L243.74892480373381,342.8793094437778L255.35601646105445,345.0231227837479L266.96310811837515,343.0215372463082L278.5701997756958,342.59208691743794L290.1772914330165,343.91969091551385L301.78438309033714,344.66679224643076L313.3914747476578,345.3766258086248L324.9985664049784,345.7600148418732L336.6056580622991,338.6288687682798L348.21274971961975,338.31047250245865L359.8198413769405,335.6322098322611L371.4269330342611,335.82650759143894L383.03402469158175,337.30103006392153L394.64111634890236,341.1254552611591L406.2482080062231,344.49484729491115L417.8552996635437,344.7404182407209L429.46239132086436,344.96633077095476L441.069482978185,344.50578238524326L452.6765746355057,342.8271067421824L464.2836662928263,338.7110294818695L475.890757950147,340.44819594269626L487.49784960746763,343.7046697778973L499.1049412647883,344.38605680351947L510.7120329221089,343.6209449564143L522.3191245794296,340.3749934107966L533.9262162367503,344.48058967661746L545.533307894071,338.81858472445833L557.1403995513916,343.8959083967139L568.7474912087123,341.50303835473903L580.354582866033,342.5580087064827L591.9616745233535,341.9010305335721L603.5687661806743,341.91366412854916L615.1758578379948,334.04960053674205L626.7829494953156,318.9926762584231L638.3900411526362,331.33443176773903L649.9971328099568,333.3815582826506L661.6042244672775,335.72435044318087L673.2113161245982,336.86349791027993L684.8184077819188,341.45809848363217L696.4254994392395,342.2373131299797L708.0325910965602,327.9668702327601L719.639682753881,327.5908368313325L731.2467744112015,312.8844625283728L742.8538660685222,313.2306805735759L754.4609577258427,322.18929954112565L766.0680493831635,332.0360002300385L777.6751410404842,339.561321539638L789.2822326978047,336.48719481436535L800.8893243551254,332.85507620208665L812.4964160124462,340.7511739729131L824.1035076697667,342.98902044029484L835.7105993270874,336.62546759829996L847.3176909844079,310.63528498827463L858.9247826417287,327.13282831898L870.5318742990494,340.49129540420824L882.13896595637,339.0615818598522L893.7460576136908,341.93312387719493L905.3531492710114,337.2280738009298L916.960240928332,328.03116203478356L928.5673325856526,336.2863793383095L940.1744242429734,328.19458608208873L951.781515900294,324.75688235688307L963.3886075576146,254.4312926712252L974.9956992149353,251.6017133741547L986.602790872256,265.40239232293123L998.2098825295766,239.544406862685L1009.8169741868973,291.3183675037813L1021.4240658442178,287.7238793812908L1033.0311575015387,310.6647099181817L1044.6382491588593,297.3217547708739L1056.2453408161798,332.51083191208227L1067.8524324735006,323.0765355390195L1079.4595241308214,276.0676235883595L1091.066615788142,220.86403804354947L1102.6737074454625,255.77113007730267L1114.2807991027832,192.45757062430758L1125.8878907601038,315.8954182754809L1137.4949824174246,304.01214339403367L1149.1020740747451,330.22774494532916L1160.709165732066,250.83833261727563L1172.3162573893865,156.74844442693524L1183.923349046707,238.81829560141438L1195.5304407040278,220.98933966390638L1207.1375323613486,276.6962363883231L1218.7446240186691,277.0857064616299L1230.3517156759897,313.4834798121615L1241.9588073333105,70.92888604188579L1253.5658989906312,86.77086274098208L1265.1729906479518,157.6073727148459" fill="none"></path></g><g><path style="fill: none;" stroke="rgb(255, 112, 67)" stroke-width="2px" d="M116.07091657320657,329.2794883172962L127.67800823052723,338.65426870318174L139.2850998878479,340.2357319472951L150.89219154516857,343.19081558607957L162.4992832024892,343.73418240356176L174.10637485980988,344.6100193044616L185.71346651713054,344.43305121803996L197.32055817445118,345.1382667126363L208.92764983177184,345.3994691268853L220.5347414890925,345.7839254880791L232.14183314641315,345.9281526863058L243.74892480373381,345.7550974974868L255.35601646105445,345.6363431763097L266.96310811837515,344.9628381072172L278.5701997756958,343.3829086378756L290.1772914330165,345.3639441611779L301.78438309033714,345.99189113410625L313.3914747476578,346.0057568995248L324.9985664049784,345.7821505124333L336.6056580622991,345.4114734597533L348.21274971961975,345.7089718566047L359.8198413769405,345.924220943125L371.4269330342611,344.76329241767684L383.03402469158175,343.63720711352016L394.64111634890236,344.9383430603879L406.2482080062231,345.823468353544L417.8552996635437,346.19045392539243L429.46239132086436,346.2272499540091L441.069482978185,346.343997901558L452.6765746355057,346.2809992787807L464.2836662928263,346.01260065991886L475.890757950147,343.3747117875045L487.49784960746763,343.9400960965038L499.1049412647883,344.6250622803093L510.7120329221089,345.1906065139347L522.3191245794296,343.7546401419406L533.9262162367503,343.888926673174L545.533307894071,339.742767065101L557.1403995513916,343.47920969169974L568.7474912087123,345.9033485269478L580.354582866033,345.0730269254812L591.9616745233535,345.2433262300728L603.5687661806743,344.5790672069975L615.1758578379948,341.93529404686416L626.7829494953156,327.17682756298973L638.3900411526362,328.4334104611328L649.9971328099568,343.29984153457355L661.6042244672775,346.1134078716434L673.2113161245982,345.01077149703116L684.8184077819188,346.1358352357118L696.4254994392395,343.6927416532431L708.0325910965602,345.89463255973857L719.639682753881,337.08730649315464L731.2467744112015,331.31888919636907L742.8538660685222,322.83359666724533L754.4609577258427,318.1311050846712L766.0680493831635,332.5771202942277L777.6751410404842,341.8765814369171L789.2822326978047,344.75397489361075L800.8893243551254,343.52286145628693L812.4964160124462,343.4023584756995L824.1035076697667,345.56992918200484L835.7105993270874,344.46607903203727L847.3176909844079,334.2725063338396L858.9247826417287,338.61527352325004L870.5318742990494,330.97197679297676L882.13896595637,337.27212049675353L893.7460576136908,341.72676404710325L905.3531492710114,344.5107885516168L916.960240928332,346.20844790477366L928.5673325856526,344.6853411004452L940.1744242429734,344.032135496909L951.781515900294,338.00069144382417L963.3886075576146,319.98824895219656L974.9956992149353,319.7195203198588L986.602790872256,317.4890760351281L998.2098825295766,304.5470586830547L1009.8169741868973,309.4849473022614L1021.4240658442178,304.7214555118479L1033.0311575015387,329.070146531123L1044.6382491588593,340.86956865138626L1056.2453408161798,336.4686387524805L1067.8524324735006,330.56595144249803L1079.4595241308214,320.4801068256167L1091.066615788142,325.52030155573806L1102.6737074454625,342.2207629583827L1114.2807991027832,331.45160531282244L1125.8878907601038,330.53245887101906L1137.4949824174246,341.7734584340152L1149.1020740747451,336.17471861282866L1160.709165732066,313.92911601484167L1172.3162573893865,282.41168845088254L1183.923349046707,263.45192335110454L1195.5304407040278,264.8681161317591L1207.1375323613486,310.3894005000992L1218.7446240186691,324.51369841751267L1230.3517156759897,319.8777330768097L1241.9588073333105,285.49572479674805L1253.5658989906312,254.58977932725418L1265.1729906479518,274.8724961952076" fill="none"></path></g></g></g></g></g><g><g opacity="0.758774"><span fill="rgb(0, 0, 0)" stroke="none" stroke-width="1px">Alt + Scroll to Zoom</span></g></g></g><g transform="translate(41, 377)" clip-path="url(#clip_1)"><clipPath id="clip_1"><rect width="1392" height="22"></rect></clipPath><g><g><line x1="0" y1="0" x2="0" y2="5" style="visibility: inherit;" fill="rgb(0, 0, 0)" stroke="rgb(204, 204, 204)" stroke-width="1px"></line><line x1="116.07091657320657" y1="0" x2="116.07091657320657" y2="5" style="visibility: inherit;" fill="rgb(0, 0, 0)" stroke="rgb(204, 204, 204)" stroke-width="1px"></line><line x1="232.14183314641315" y1="0" x2="232.14183314641315" y2="5" style="visibility: inherit;" fill="rgb(0, 0, 0)" stroke="rgb(204, 204, 204)" stroke-width="1px"></line><line x1="348.21274971961975" y1="0" x2="348.21274971961975" y2="5" style="visibility: inherit;" fill="rgb(0, 0, 0)" stroke="rgb(204, 204, 204)" stroke-width="1px"></line><line x1="464.2836662928263" y1="0" x2="464.2836662928263" y2="5" style="visibility: inherit;" fill="rgb(0, 0, 0)" stroke="rgb(204, 204, 204)" stroke-width="1px"></line><line x1="580.354582866033" y1="0" x2="580.354582866033" y2="5" style="visibility: inherit;" fill="rgb(0, 0, 0)" stroke="rgb(204, 204, 204)" stroke-width="1px"></line><line x1="696.4254994392395" y1="0" x2="696.4254994392395" y2="5" style="visibility: inherit;" fill="rgb(0, 0, 0)" stroke="rgb(204, 204, 204)" stroke-width="1px"></line><line x1="812.4964160124462" y1="0" x2="812.4964160124462" y2="5" style="visibility: inherit;" fill="rgb(0, 0, 0)" stroke="rgb(204, 204, 204)" stroke-width="1px"></line><line x1="928.5673325856526" y1="0" x2="928.5673325856526" y2="5" style="visibility: inherit;" fill="rgb(0, 0, 0)" stroke="rgb(204, 204, 204)" stroke-width="1px"></line><line x1="1044.6382491588593" y1="0" x2="1044.6382491588593" y2="5" style="visibility: inherit;" fill="rgb(0, 0, 0)" stroke="rgb(204, 204, 204)" stroke-width="1px"></line><line x1="1160.709165732066" y1="0" x2="1160.709165732066" y2="5" style="visibility: inherit;" fill="rgb(0, 0, 0)" stroke="rgb(204, 204, 204)" stroke-width="1px"></line><line x1="1276.7800823052723" y1="0" x2="1276.7800823052723" y2="5" style="visibility: inherit;" fill="rgb(0, 0, 0)" stroke="rgb(204, 204, 204)" stroke-width="1px"></line><line x1="1392.850998878479" y1="0" x2="1392.850998878479" y2="5" style="visibility: inherit;" fill="rgb(0, 0, 0)" stroke="rgb(204, 204, 204)" stroke-width="1px"></line></g><g transform="translate(0, 8)"><text style="text-anchor: middle; visibility: hidden; font-family: Roboto, sans-serif; font-size: 12px; font-weight: 200;" x="0" y="0" dx="0em" dy="0.95em" fill="rgb(50, 49, 63)" stroke="none" stroke-width="1px">-10</text><text style="text-anchor: middle; visibility: inherit; font-family: Roboto, sans-serif; font-size: 12px; font-weight: 200;" x="116.07091657320657" y="0" dx="0em" dy="0.95em" fill="rgb(50, 49, 63)" stroke="none" stroke-width="1px">0</text><text style="text-anchor: middle; visibility: inherit; font-family: Roboto, sans-serif; font-size: 12px; font-weight: 200;" x="232.14183314641315" y="0" dx="0em" dy="0.95em" fill="rgb(50, 49, 63)" stroke="none" stroke-width="1px">10</text><text style="text-anchor: middle; visibility: inherit; font-family: Roboto, sans-serif; font-size: 12px; font-weight: 200;" x="348.21274971961975" y="0" dx="0em" dy="0.95em" fill="rgb(50, 49, 63)" stroke="none" stroke-width="1px">20</text><text style="text-anchor: middle; visibility: inherit; font-family: Roboto, sans-serif; font-size: 12px; font-weight: 200;" x="464.2836662928263" y="0" dx="0em" dy="0.95em" fill="rgb(50, 49, 63)" stroke="none" stroke-width="1px">30</text><text style="text-anchor: middle; visibility: inherit; font-family: Roboto, sans-serif; font-size: 12px; font-weight: 200;" x="580.354582866033" y="0" dx="0em" dy="0.95em" fill="rgb(50, 49, 63)" stroke="none" stroke-width="1px">40</text><text style="text-anchor: middle; visibility: inherit; font-family: Roboto, sans-serif; font-size: 12px; font-weight: 200;" x="696.4254994392395" y="0" dx="0em" dy="0.95em" fill="rgb(50, 49, 63)" stroke="none" stroke-width="1px">50</text><text style="text-anchor: middle; visibility: inherit; font-family: Roboto, sans-serif; font-size: 12px; font-weight: 200;" x="812.4964160124462" y="0" dx="0em" dy="0.95em" fill="rgb(50, 49, 63)" stroke="none" stroke-width="1px">60</text><text style="text-anchor: middle; visibility: inherit; font-family: Roboto, sans-serif; font-size: 12px; font-weight: 200;" x="928.5673325856526" y="0" dx="0em" dy="0.95em" fill="rgb(50, 49, 63)" stroke="none" stroke-width="1px">70</text><text style="text-anchor: middle; visibility: inherit; font-family: Roboto, sans-serif; font-size: 12px; font-weight: 200;" x="1044.6382491588593" y="0" dx="0em" dy="0.95em" fill="rgb(50, 49, 63)" stroke="none" stroke-width="1px">80</text><text style="text-anchor: middle; visibility: inherit; font-family: Roboto, sans-serif; font-size: 12px; font-weight: 200;" x="1160.709165732066" y="0" dx="0em" dy="0.95em" fill="rgb(50, 49, 63)" stroke="none" stroke-width="1px">90</text><text style="text-anchor: middle; visibility: inherit; font-family: Roboto, sans-serif; font-size: 12px; font-weight: 200;" x="1276.7800823052723" y="0" dx="0em" dy="0.95em" fill="rgb(50, 49, 63)" stroke="none" stroke-width="1px">100</text><text style="text-anchor: middle; visibility: hidden; font-family: Roboto, sans-serif; font-size: 12px; font-weight: 200;" x="1392.850998878479" y="0" dx="0em" dy="0.95em" fill="rgb(50, 49, 63)" stroke="none" stroke-width="1px">110</text></g><line x1="0" y1="0" x2="1392.850998878479" y2="0" fill="rgb(0, 0, 0)" stroke="rgb(204, 204, 204)" stroke-width="1px"></line></g></g></g></g></svg>