<svg viewBox="0 0 1434 400" xmlns="http://www.w3.org/2000/svg"><g><g><g><g><g><line x1="51.53200149536133" y1="377.8999996185303" x2="46.53200149536133" y2="377.8999996185303" style="visibility: inherit;" fill="rgb(0, 0, 0)" stroke="rgb(204, 204, 204)" stroke-width="1px"></line><line x1="51.53200149536133" y1="335.91111077202686" x2="46.53200149536133" y2="335.91111077202686" style="visibility: inherit;" fill="rgb(0, 0, 0)" stroke="rgb(204, 204, 204)" stroke-width="1px"></line><line x1="51.53200149536133" y1="293.92222192552344" x2="46.53200149536133" y2="293.92222192552344" style="visibility: inherit;" fill="rgb(0, 0, 0)" stroke="rgb(204, 204, 204)" stroke-width="1px"></line><line x1="51.53200149536133" y1="251.93333307902026" x2="46.53200149536133" y2="251.93333307902026" style="visibility: inherit;" fill="rgb(0, 0, 0)" stroke="rgb(204, 204, 204)" stroke-width="1px"></line><line x1="51.53200149536133" y1="209.94444423251682" x2="46.53200149536133" y2="209.94444423251682" style="visibility: inherit;" fill="rgb(0, 0, 0)" stroke="rgb(204, 204, 204)" stroke-width="1px"></line><line x1="51.53200149536133" y1="167.95555538601346" x2="46.53200149536133" y2="167.95555538601346" style="visibility: inherit;" fill="rgb(0, 0, 0)" stroke="rgb(204, 204, 204)" stroke-width="1px"></line><line x1="51.53200149536133" y1="125.96666653951002" x2="46.53200149536133" y2="125.96666653951002" style="visibility: inherit;" fill="rgb(0, 0, 0)" stroke="rgb(204, 204, 204)" stroke-width="1px"></line><line x1="51.53200149536133" y1="83.9777776930066" x2="46.53200149536133" y2="83.9777776930066" style="visibility: inherit;" fill="rgb(0, 0, 0)" stroke="rgb(204, 204, 204)" stroke-width="1px"></line><line x1="51.53200149536133" y1="41.98888884650317" x2="46.53200149536133" y2="41.98888884650317" style="visibility: inherit;" fill="rgb(0, 0, 0)" stroke="rgb(204, 204, 204)" stroke-width="1px"></line><line x1="51.53200149536133" y1="0" x2="46.53200149536133" y2="0" style="visibility: inherit;" fill="rgb(0, 0, 0)" stroke="rgb(204, 204, 204)" stroke-width="1px"></line></g><g transform="translate(41.53200149536133, 0)"><text style="text-anchor: end; visibility: hidden; font-family: Roboto, sans-serif; font-size: 12px; font-weight: 200;" x="0" y="377.8999996185303" dx="0em" dy="0.3em" fill="rgb(50, 49, 63)" stroke="none" stroke-width="1px">0.76</text><text style="text-anchor: end; visibility: inherit; font-family: Roboto, sans-serif; font-size: 12px; font-weight: 200;" x="0" y="335.91111077202686" dx="0em" dy="0.3em" fill="rgb(50, 49, 63)" stroke="none" stroke-width="1px">0.78</text><text style="text-anchor: end; visibility: inherit; font-family: Roboto, sans-serif; font-size: 12px; font-weight: 200;" x="0" y="293.92222192552344" dx="0em" dy="0.3em" fill="rgb(50, 49, 63)" stroke="none" stroke-width="1px">0.8</text><text style="text-anchor: end; visibility: inherit; font-family: Roboto, sans-serif; font-size: 12px; font-weight: 200;" x="0" y="251.93333307902026" dx="0em" dy="0.3em" fill="rgb(50, 49, 63)" stroke="none" stroke-width="1px">0.82</text><text style="text-anchor: end; visibility: inherit; font-family: Roboto, sans-serif; font-size: 12px; font-weight: 200;" x="0" y="209.94444423251682" dx="0em" dy="0.3em" fill="rgb(50, 49, 63)" stroke="none" stroke-width="1px">0.84</text><text style="text-anchor: end; visibility: inherit; font-family: Roboto, sans-serif; font-size: 12px; font-weight: 200;" x="0" y="167.95555538601346" dx="0em" dy="0.3em" fill="rgb(50, 49, 63)" stroke="none" stroke-width="1px">0.86</text><text style="text-anchor: end; visibility: inherit; font-family: Roboto, sans-serif; font-size: 12px; font-weight: 200;" x="0" y="125.96666653951002" dx="0em" dy="0.3em" fill="rgb(50, 49, 63)" stroke="none" stroke-width="1px">0.88</text><text style="text-anchor: end; visibility: inherit; font-family: Roboto, sans-serif; font-size: 12px; font-weight: 200;" x="0" y="83.9777776930066" dx="0em" dy="0.3em" fill="rgb(50, 49, 63)" stroke="none" stroke-width="1px">0.9</text><text style="text-anchor: end; visibility: inherit; font-family: Roboto, sans-serif; font-size: 12px; font-weight: 200;" x="0" y="41.98888884650317" dx="0em" dy="0.3em" fill="rgb(50, 49, 63)" stroke="none" stroke-width="1px">0.92</text><text style="text-anchor: end; visibility: hidden; font-family: Roboto, sans-serif; font-size: 12px; font-weight: 200;" x="0" y="0" dx="0em" dy="0.3em" fill="rgb(50, 49, 63)" stroke="none" stroke-width="1px">0.94</text></g><line x1="51.53200149536133" y1="0" x2="51.53200149536133" y2="377.8999996185303" fill="rgb(0, 0, 0)" stroke="rgb(204, 204, 204)" stroke-width="1px"></line></g></g><g transform="translate(51, 0)" clip-path="url(#clip_0)"><clipPath id="clip_0"><rect width="1382" height="377"></rect></clipPath><g><g><g><line x1="0" y1="0" x2="0" y2="377.8999996185303" fill="rgb(0, 0, 0)" stroke="rgb(60, 60, 60)" stroke-width="1px" opacity="0.25"></line><line x1="115.20566654205322" y1="0" x2="115.20566654205322" y2="377.8999996185303" fill="rgb(0, 0, 0)" stroke="rgb(60, 60, 60)" stroke-width="1px" opacity="0.25"></line><line x1="230.41133308410645" y1="0" x2="230.41133308410645" y2="377.8999996185303" fill="rgb(0, 0, 0)" stroke="rgb(60, 60, 60)" stroke-width="1px" opacity="0.25"></line><line x1="345.61699962615967" y1="0" x2="345.61699962615967" y2="377.8999996185303" fill="rgb(0, 0, 0)" stroke="rgb(60, 60, 60)" stroke-width="1px" opacity="0.25"></line><line x1="460.8226661682129" y1="0" x2="460.8226661682129" y2="377.8999996185303" fill="rgb(0, 0, 0)" stroke="rgb(60, 60, 60)" stroke-width="1px" opacity="0.25"></line><line x1="576.0283327102661" y1="0" x2="576.0283327102661" y2="377.8999996185303" fill="rgb(0, 0, 0)" stroke="rgb(60, 60, 60)" stroke-width="1px" opacity="0.25"></line><line x1="691.2339992523193" y1="0" x2="691.2339992523193" y2="377.8999996185303" fill="rgb(0, 0, 0)" stroke="rgb(60, 60, 60)" stroke-width="1px" opacity="0.25"></line><line x1="806.4396657943726" y1="0" x2="806.4396657943726" y2="377.8999996185303" fill="rgb(0, 0, 0)" stroke="rgb(60, 60, 60)" stroke-width="1px" opacity="0.25"></line><line x1="921.6453323364258" y1="0" x2="921.6453323364258" y2="377.8999996185303" fill="rgb(0, 0, 0)" stroke="rgb(60, 60, 60)" stroke-width="1px" opacity="0.25"></line><line x1="1036.850998878479" y1="0" x2="1036.850998878479" y2="377.8999996185303" fill="rgb(0, 0, 0)" stroke="rgb(60, 60, 60)" stroke-width="1px" opacity="0.25"></line><line x1="1152.0566654205322" y1="0" x2="1152.0566654205322" y2="377.8999996185303" fill="rgb(0, 0, 0)" stroke="rgb(60, 60, 60)" stroke-width="1px" opacity="0.25"></line><line x1="1267.2623319625854" y1="0" x2="1267.2623319625854" y2="377.8999996185303" fill="rgb(0, 0, 0)" stroke="rgb(60, 60, 60)" stroke-width="1px" opacity="0.25"></line><line x1="1382.4679985046387" y1="0" x2="1382.4679985046387" y2="377.8999996185303" fill="rgb(0, 0, 0)" stroke="rgb(60, 60, 60)" stroke-width="1px" opacity="0.25"></line></g><g><line x1="0" y1="377.8999996185303" x2="1382.4679985046387" y2="377.8999996185303" fill="rgb(0, 0, 0)" stroke="rgb(60, 60, 60)" stroke-width="1px" opacity="0.25"></line><line x1="0" y1="335.91111077202686" x2="1382.4679985046387" y2="335.91111077202686" fill="rgb(0, 0, 0)" stroke="rgb(60, 60, 60)" stroke-width="1px" opacity="0.25"></line><line x1="0" y1="293.92222192552344" x2="1382.4679985046387" y2="293.92222192552344" fill="rgb(0, 0, 0)" stroke="rgb(60, 60, 60)" stroke-width="1px" opacity="0.25"></line><line x1="0" y1="251.93333307902026" x2="1382.4679985046387" y2="251.93333307902026" fill="rgb(0, 0, 0)" stroke="rgb(60, 60, 60)" stroke-width="1px" opacity="0.25"></line><line x1="0" y1="209.94444423251682" x2="1382.4679985046387" y2="209.94444423251682" fill="rgb(0, 0, 0)" stroke="rgb(60, 60, 60)" stroke-width="1px" opacity="0.25"></line><line x1="0" y1="167.95555538601346" x2="1382.4679985046387" y2="167.95555538601346" fill="rgb(0, 0, 0)" stroke="rgb(60, 60, 60)" stroke-width="1px" opacity="0.25"></line><line x1="0" y1="125.96666653951002" x2="1382.4679985046387" y2="125.96666653951002" fill="rgb(0, 0, 0)" stroke="rgb(60, 60, 60)" stroke-width="1px" opacity="0.25"></line><line x1="0" y1="83.9777776930066" x2="1382.4679985046387" y2="83.9777776930066" fill="rgb(0, 0, 0)" stroke="rgb(60, 60, 60)" stroke-width="1px" opacity="0.25"></line><line x1="0" y1="41.98888884650317" x2="1382.4679985046387" y2="41.98888884650317" fill="rgb(0, 0, 0)" stroke="rgb(60, 60, 60)" stroke-width="1px" opacity="0.25"></line><line x1="0" y1="0" x2="1382.4679985046387" y2="0" fill="rgb(0, 0, 0)" stroke="rgb(60, 60, 60)" stroke-width="1px" opacity="0.25"></line></g></g></g><g><g><line x1="0" y1="1973.4777757856589" x2="1382.4679985046387" y2="1973.4777757856589" fill="rgb(0, 0, 0)" stroke="rgb(153, 153, 153)" stroke-width="1.5px"></line></g></g><g><g><line x1="115.20566654205322" y1="0" x2="115.20566654205322" y2="377.8999996185303" fill="rgb(0, 0, 0)" stroke="rgb(153, 153, 153)" stroke-width="1.5px"></line></g></g><g><g><g><g><g><path style="fill: none;" stroke="rgb(0, 119, 187)" stroke-width="2px" d="M115.20566654205322,273.95326726333093L138.24679985046387,217.8241032534107L161.28793315887452,149.28188508117367L184.32906646728514,133.63041980685043L207.3701997756958,112.58206151353046L230.41133308410645,109.3437755381642L253.45246639251707,106.10561469943812L276.49359970092775,99.62916788534577L299.53473300933837,99.62916788534577L322.57586631774905,97.47031056843493L345.61699962615967,97.47031056843493L368.6581329345703,98.01002489766262L391.69926624298097,96.93059623920719L414.7403995513916,99.08945355611807L437.7815328598022,99.62916788534577L460.8226661682129,99.08945355611807L483.8637994766235,99.08945355611807L506.90493278503413,99.08945355611807L529.9460660934449,99.08945355611807L552.9871994018555,99.08945355611807L576.0283327102661,99.08945355611807L599.0694660186767,99.08945355611807L622.1105993270875,99.08945355611807L645.1517326354981,99.08945355611807L668.1928659439087,99.08945355611807L691.2339992523193,99.08945355611807L714.2751325607301,99.08945355611807L737.3162658691406,99.08945355611807L760.3573991775513,99.08945355611807L783.3985324859619,99.08945355611807L806.4396657943726,99.08945355611807L829.4807991027832,99.08945355611807L852.5219324111939,99.08945355611807L875.5630657196044,99.08945355611807L898.6041990280152,99.08945355611807L921.6453323364258,99.08945355611807L944.6864656448364,99.08945355611807L967.727598953247,99.08945355611807L990.7687322616578,99.08945355611807L1013.8098655700683,99.08945355611807L1036.850998878479,99.08945355611807L1059.8921321868897,99.08945355611807L1082.9332654953002,99.08945355611807L1105.974398803711,99.08945355611807L1129.0155321121215,99.08945355611807L1152.0566654205322,99.08945355611807L1175.0977987289427,99.08945355611807L1198.1389320373535,99.08945355611807L1221.1800653457642,99.08945355611807L1244.221198654175,99.08945355611807" fill="none"></path></g><g><path style="fill: none;" stroke="rgb(0, 119, 187)" stroke-width="2px" d="M115.20566654205322,252.23805581432944L138.24679985046387,189.11325307008366L161.28793315887452,137.96039783141273L184.32906646728514,139.5929304395984L207.3701997756958,113.47228357198767L230.41133308410645,115.64903542844864L253.45246639251707,115.10481618017333L276.49359970092775,105.85383977933466L299.53473300933837,112.9280643237124L322.57586631774905,105.3096205310594L345.61699962615967,106.94215313924506L368.6581329345703,106.39793389096975L391.69926624298097,103.13286867459843L414.7403995513916,102.04455531468807L437.7815328598022,100.9561168181375L460.8226661682129,100.9561168181375L483.8637994766235,101.50033606641277L506.90493278503413,100.9561168181375L529.9460660934449,102.58877456296334L552.9871994018555,102.04455531468807L576.0283327102661,101.50033606641277L599.0694660186767,101.50033606641277L622.1105993270875,101.50033606641277L645.1517326354981,101.50033606641277L668.1928659439087,101.50033606641277L691.2339992523193,101.50033606641277L714.2751325607301,101.50033606641277L737.3162658691406,101.50033606641277L760.3573991775513,101.50033606641277L783.3985324859619,101.50033606641277L806.4396657943726,101.50033606641277L829.4807991027832,101.50033606641277L852.5219324111939,101.50033606641277L875.5630657196044,101.50033606641277L898.6041990280152,101.50033606641277L921.6453323364258,101.50033606641277L944.6864656448364,101.50033606641277L967.727598953247,101.50033606641277L990.7687322616578,101.50033606641277L1013.8098655700683,101.50033606641277L1036.850998878479,101.50033606641277L1059.8921321868897,101.50033606641277L1082.9332654953002,101.50033606641277L1105.974398803711,101.50033606641277L1129.0155321121215,101.50033606641277L1152.0566654205322,101.50033606641277L1175.0977987289427,101.50033606641277L1198.1389320373535,101.50033606641277L1221.1800653457642,101.50033606641277L1244.221198654175,101.50033606641277" fill="none"></path></g><g><path style="fill: none;" stroke="rgb(238, 51, 119)" stroke-width="2px" d="M115.20566654205322,260.94493810353305L138.24679985046387,188.02493971017327L161.28793315887452,172.7879269882271L184.32906646728514,149.93234533698762L207.3701997756958,125.98845032583787L230.41133308410645,127.6209829340235L253.45246639251707,114.56072206853824L276.49359970092775,115.64903542844864L299.53473300933837,106.94215313924506L322.57586631774905,104.22130717114901L345.61699962615967,107.48637238752033L368.6581329345703,109.66299910734108L391.69926624298097,111.29553171552674L414.7403995513916,107.48637238752033L437.7815328598022,105.85383977933466L460.8226661682129,106.39793389096975L483.8637994766235,108.03046649915541L506.90493278503413,105.3096205310594L529.9460660934449,103.13286867459843L552.9871994018555,106.39793389096975L576.0283327102661,103.13286867459843L599.0694660186767,103.67708792287374L622.1105993270875,106.39793389096975L645.1517326354981,106.39793389096975L668.1928659439087,97.14695749013109L691.2339992523193,100.41202270650241L714.2751325607301,107.48637238752033L737.3162658691406,106.39793389096975L760.3573991775513,98.77949009831676L783.3985324859619,108.57468574743068L806.4396657943726,106.94215313924506L829.4807991027832,108.03046649915541L852.5219324111939,106.94215313924506L875.5630657196044,100.9561168181375L898.6041990280152,101.50033606641277L921.6453323364258,99.32358420995183L944.6864656448364,104.22130717114901L967.727598953247,104.7654012827841L990.7687322616578,110.20721835561635L1013.8098655700683,98.23527085004145L1036.850998878479,106.39793389096975L1059.8921321868897,103.13286867459843L1082.9332654953002,101.50033606641277L1105.974398803711,104.7654012827841L1129.0155321121215,103.67708792287374L1152.0566654205322,108.03046649915541L1175.0977987289427,101.50033606641277L1198.1389320373535,101.50033606641277L1221.1800653457642,105.85383977933466L1244.221198654175,103.13286867459843" fill="none"></path></g><g><path style="fill: none;" stroke="rgb(204, 51, 17)" stroke-width="2px" d="M115.20566654205322,220.13149776225134L138.24679985046387,150.47656458526293L161.28793315887452,137.41617858313748L184.32906646728514,115.10481618017333L207.3701997756958,105.3096205310594L230.41133308410645,103.67708792287374L253.45246639251707,100.9561168181375L276.49359970092775,96.60273824185582L299.53473300933837,91.70514041729884L322.57586631774905,92.2493596655741L345.61699962615967,91.70514041729884L368.6581329345703,92.7934537772092L391.69926624298097,90.61682705738848L414.7403995513916,93.88189227375976L437.7815328598022,90.61682705738848L460.8226661682129,88.9841693125626L483.8637994766235,88.44007520092751L506.90493278503413,87.89585595265224L529.9460660934449,89.52838856083787L552.9871994018555,88.9841693125626L576.0283327102661,88.9841693125626L599.0694660186767,89.52838856083787L622.1105993270875,88.9841693125626L645.1517326354981,87.35163670437694L668.1928659439087,88.44007520092751L691.2339992523193,87.35163670437694L714.2751325607301,88.44007520092751L737.3162658691406,88.44007520092751L760.3573991775513,88.44007520092751L783.3985324859619,88.44007520092751L806.4396657943726,88.44007520092751L829.4807991027832,88.44007520092751L852.5219324111939,88.44007520092751L875.5630657196044,88.44007520092751L898.6041990280152,88.44007520092751L921.6453323364258,88.44007520092751L944.6864656448364,88.44007520092751L967.727598953247,88.44007520092751L990.7687322616578,88.44007520092751L1013.8098655700683,88.44007520092751L1036.850998878479,88.44007520092751L1059.8921321868897,88.44007520092751L1082.9332654953002,88.44007520092751L1105.974398803711,88.44007520092751L1129.0155321121215,88.44007520092751L1152.0566654205322,88.44007520092751L1175.0977987289427,88.44007520092751L1198.1389320373535,88.44007520092751L1221.1800653457642,88.44007520092751L1244.221198654175,88.44007520092751" fill="none"></path></g><g><path style="fill: none;" stroke="rgb(255, 112, 67)" stroke-width="2px" d="M115.20566654205322,326.30443096865724L138.24679985046387,287.44575008410317L161.28793315887452,204.3314952959983L184.32906646728514,178.42583317626915L207.3701997756958,182.20370834422292L230.41133308410645,162.23465357271817L253.45246639251707,155.75820675862585L276.49359970092775,148.74217075194596L299.53473300933837,166.01265387731212L322.57586631774905,149.82147427376117L345.61699962615967,141.1862952793982L368.6581329345703,138.48772363325963L391.69926624298097,142.26572393785364L414.7403995513916,148.20245642271823L437.7815328598022,151.98033159067202L460.8226661682129,154.1391889075829L483.8637994766235,143.88474178889655L506.90493278503413,144.42445611812425L529.9460660934449,144.42445611812425L552.9871994018555,140.64658095017046L576.0283327102661,148.74217075194596L599.0694660186767,146.0435991058074L622.1105993270875,142.80543826708137L645.1517326354981,143.88474178889655L668.1928659439087,154.1391889075829L691.2339992523193,147.12302776426282L714.2751325607301,133.63041980685043L737.3162658691406,148.20245642271823L760.3573991775513,148.74217075194596L783.3985324859619,150.90090293221658L806.4396657943726,146.0435991058074L829.4807991027832,148.74217075194596L852.5219324111939,152.52004591989976L875.5630657196044,151.44061726144432L898.6041990280152,142.80543826708137L921.6453323364258,147.66274209349055L944.6864656448364,144.42445611812425L967.727598953247,149.28188508117367L990.7687322616578,149.82147427376117L1013.8098655700683,160.61563572167526L1036.850998878479,143.88474178889655L1059.8921321868897,141.7260096086259L1082.9332654953002,139.56715229171505L1105.974398803711,143.34515259630905L1129.0155321121215,145.50388477657972L1152.0566654205322,140.10686662094278L1175.0977987289427,153.59947457835517L1198.1389320373535,146.0435991058074L1221.1800653457642,143.34515259630905L1244.221198654175,150.3611886029889" fill="none"></path></g><g><path style="fill: none;" stroke="rgb(0, 153, 136)" stroke-width="2px" d="M115.20566654205322,306.8750905263802L138.24679985046387,229.69756822313997L161.28793315887452,198.9344771403614L184.32906646728514,162.77436790194588L207.3701997756958,152.52004591989976L230.41133308410645,157.37734974630894L253.45246639251707,147.66274209349055L276.49359970092775,130.39225896812434L299.53473300933837,135.24956279453355L322.57586631774905,128.2334016512135L345.61699962615967,137.40842011144443L368.6581329345703,131.47168762657978L391.69926624298097,134.17013413607813L414.7403995513916,138.48772363325963L437.7815328598022,141.7260096086259L460.8226661682129,126.61425866353036L483.8637994766235,130.93197329735207L506.90493278503413,142.80543826708137L529.9460660934449,137.9480093040319L552.9871994018555,127.15397299275809L576.0283327102661,140.64658095017046L599.0694660186767,134.70984846530587L622.1105993270875,133.0907054776227L645.1517326354981,130.93197329735207L668.1928659439087,132.550991148395L691.2339992523193,134.17013413607813L714.2751325607301,132.550991148395L737.3162658691406,141.1862952793982L760.3573991775513,130.39225896812434L783.3985324859619,132.01140195580751L806.4396657943726,129.85254463889666L829.4807991027832,132.01140195580751L852.5219324111939,141.1862952793982L875.5630657196044,125.53495514171516L898.6041990280152,133.63041980685043L921.6453323364258,136.8687057822167L944.6864656448364,141.7260096086259L967.727598953247,130.93197329735207L990.7687322616578,133.0907054776227L1013.8098655700683,132.01140195580751L1036.850998878479,135.78927712376128L1059.8921321868897,134.17013413607813L1082.9332654953002,132.01140195580751L1105.974398803711,128.2334016512135L1129.0155321121215,146.58331343503514L1152.0566654205322,134.17013413607813L1175.0977987289427,131.47168762657978L1198.1389320373535,130.39225896812434L1221.1800653457642,138.48772363325963L1244.221198654175,132.01140195580751" fill="none"></path></g><g><path style="fill: none;" stroke="rgb(0, 119, 187)" stroke-width="2px" d="M115.20566654205322,303.6369296876541L138.24679985046387,214.04622808545693L161.28793315887452,174.64783287167515L184.32906646728514,160.07592139244753L207.3701997756958,140.10686662094278L230.41133308410645,144.964170447352L253.45246639251707,127.69368732198578L276.49359970092775,119.0585083276228L299.53473300933837,122.83638349557658L322.57586631774905,126.07466947094285L345.61699962615967,121.21724050789344L368.6581329345703,117.43936533993966L391.69926624298097,129.31283030966893L414.7403995513916,122.83638349557658L437.7815328598022,129.85254463889666L460.8226661682129,120.13793698607823L483.8637994766235,120.13793698607823L506.90493278503413,124.45552648325973L529.9460660934449,125.53495514171516L552.9871994018555,128.77311598044125L576.0283327102661,120.13793698607823L599.0694660186767,120.67752617866574L622.1105993270875,120.13793698607823L645.1517326354981,119.59822265685054L668.1928659439087,122.29666916634889L691.2339992523193,126.61425866353036L714.2751325607301,123.37609782480432L737.3162658691406,123.91581215403201L760.3573991775513,130.39225896812434L783.3985324859619,121.75695483712116L806.4396657943726,119.0585083276228L829.4807991027832,119.59822265685054L852.5219324111939,122.83638349557658L875.5630657196044,124.99524081248742L898.6041990280152,119.0585083276228L921.6453323364258,129.31283030966893L944.6864656448364,131.47168762657978L967.727598953247,124.45552648325973L990.7687322616578,121.21724050789344L1013.8098655700683,131.47168762657978L1036.850998878479,123.37609782480432L1059.8921321868897,121.21724050789344L1082.9332654953002,123.37609782480432L1105.974398803711,129.85254463889666L1129.0155321121215,120.13793698607823L1152.0566654205322,121.21724050789344L1175.0977987289427,121.21724050789344L1198.1389320373535,122.83638349557658L1221.1800653457642,124.45552648325973L1244.221198654175,122.83638349557658" fill="none"></path></g></g></g></g></g></g><g transform="translate(51, 377)" clip-path="url(#clip_1)"><clipPath id="clip_1"><rect width="1382" height="22"></rect></clipPath><g><g><line x1="0" y1="0" x2="0" y2="5" style="visibility: inherit;" fill="rgb(0, 0, 0)" stroke="rgb(204, 204, 204)" stroke-width="1px"></line><line x1="115.20566654205322" y1="0" x2="115.20566654205322" y2="5" style="visibility: inherit;" fill="rgb(0, 0, 0)" stroke="rgb(204, 204, 204)" stroke-width="1px"></line><line x1="230.41133308410645" y1="0" x2="230.41133308410645" y2="5" style="visibility: inherit;" fill="rgb(0, 0, 0)" stroke="rgb(204, 204, 204)" stroke-width="1px"></line><line x1="345.61699962615967" y1="0" x2="345.61699962615967" y2="5" style="visibility: inherit;" fill="rgb(0, 0, 0)" stroke="rgb(204, 204, 204)" stroke-width="1px"></line><line x1="460.8226661682129" y1="0" x2="460.8226661682129" y2="5" style="visibility: inherit;" fill="rgb(0, 0, 0)" stroke="rgb(204, 204, 204)" stroke-width="1px"></line><line x1="576.0283327102661" y1="0" x2="576.0283327102661" y2="5" style="visibility: inherit;" fill="rgb(0, 0, 0)" stroke="rgb(204, 204, 204)" stroke-width="1px"></line><line x1="691.2339992523193" y1="0" x2="691.2339992523193" y2="5" style="visibility: inherit;" fill="rgb(0, 0, 0)" stroke="rgb(204, 204, 204)" stroke-width="1px"></line><line x1="806.4396657943726" y1="0" x2="806.4396657943726" y2="5" style="visibility: inherit;" fill="rgb(0, 0, 0)" stroke="rgb(204, 204, 204)" stroke-width="1px"></line><line x1="921.6453323364258" y1="0" x2="921.6453323364258" y2="5" style="visibility: inherit;" fill="rgb(0, 0, 0)" stroke="rgb(204, 204, 204)" stroke-width="1px"></line><line x1="1036.850998878479" y1="0" x2="1036.850998878479" y2="5" style="visibility: inherit;" fill="rgb(0, 0, 0)" stroke="rgb(204, 204, 204)" stroke-width="1px"></line><line x1="1152.0566654205322" y1="0" x2="1152.0566654205322" y2="5" style="visibility: inherit;" fill="rgb(0, 0, 0)" stroke="rgb(204, 204, 204)" stroke-width="1px"></line><line x1="1267.2623319625854" y1="0" x2="1267.2623319625854" y2="5" style="visibility: inherit;" fill="rgb(0, 0, 0)" stroke="rgb(204, 204, 204)" stroke-width="1px"></line><line x1="1382.4679985046387" y1="0" x2="1382.4679985046387" y2="5" style="visibility: inherit;" fill="rgb(0, 0, 0)" stroke="rgb(204, 204, 204)" stroke-width="1px"></line></g><g transform="translate(0, 8)"><text style="text-anchor: middle; visibility: hidden; font-family: Roboto, sans-serif; font-size: 12px; font-weight: 200;" x="0" y="0" dx="0em" dy="0.95em" fill="rgb(50, 49, 63)" stroke="none" stroke-width="1px">-5</text><text style="text-anchor: middle; visibility: inherit; font-family: Roboto, sans-serif; font-size: 12px; font-weight: 200;" x="115.20566654205322" y="0" dx="0em" dy="0.95em" fill="rgb(50, 49, 63)" stroke="none" stroke-width="1px">0</text><text style="text-anchor: middle; visibility: inherit; font-family: Roboto, sans-serif; font-size: 12px; font-weight: 200;" x="230.41133308410645" y="0" dx="0em" dy="0.95em" fill="rgb(50, 49, 63)" stroke="none" stroke-width="1px">5</text><text style="text-anchor: middle; visibility: inherit; font-family: Roboto, sans-serif; font-size: 12px; font-weight: 200;" x="345.61699962615967" y="0" dx="0em" dy="0.95em" fill="rgb(50, 49, 63)" stroke="none" stroke-width="1px">10</text><text style="text-anchor: middle; visibility: inherit; font-family: Roboto, sans-serif; font-size: 12px; font-weight: 200;" x="460.8226661682129" y="0" dx="0em" dy="0.95em" fill="rgb(50, 49, 63)" stroke="none" stroke-width="1px">15</text><text style="text-anchor: middle; visibility: inherit; font-family: Roboto, sans-serif; font-size: 12px; font-weight: 200;" x="576.0283327102661" y="0" dx="0em" dy="0.95em" fill="rgb(50, 49, 63)" stroke="none" stroke-width="1px">20</text><text style="text-anchor: middle; visibility: inherit; font-family: Roboto, sans-serif; font-size: 12px; font-weight: 200;" x="691.2339992523193" y="0" dx="0em" dy="0.95em" fill="rgb(50, 49, 63)" stroke="none" stroke-width="1px">25</text><text style="text-anchor: middle; visibility: inherit; font-family: Roboto, sans-serif; font-size: 12px; font-weight: 200;" x="806.4396657943726" y="0" dx="0em" dy="0.95em" fill="rgb(50, 49, 63)" stroke="none" stroke-width="1px">30</text><text style="text-anchor: middle; visibility: inherit; font-family: Roboto, sans-serif; font-size: 12px; font-weight: 200;" x="921.6453323364258" y="0" dx="0em" dy="0.95em" fill="rgb(50, 49, 63)" stroke="none" stroke-width="1px">35</text><text style="text-anchor: middle; visibility: inherit; font-family: Roboto, sans-serif; font-size: 12px; font-weight: 200;" x="1036.850998878479" y="0" dx="0em" dy="0.95em" fill="rgb(50, 49, 63)" stroke="none" stroke-width="1px">40</text><text style="text-anchor: middle; visibility: inherit; font-family: Roboto, sans-serif; font-size: 12px; font-weight: 200;" x="1152.0566654205322" y="0" dx="0em" dy="0.95em" fill="rgb(50, 49, 63)" stroke="none" stroke-width="1px">45</text><text style="text-anchor: middle; visibility: inherit; font-family: Roboto, sans-serif; font-size: 12px; font-weight: 200;" x="1267.2623319625854" y="0" dx="0em" dy="0.95em" fill="rgb(50, 49, 63)" stroke="none" stroke-width="1px">50</text><text style="text-anchor: middle; visibility: hidden; font-family: Roboto, sans-serif; font-size: 12px; font-weight: 200;" x="1382.4679985046387" y="0" dx="0em" dy="0.95em" fill="rgb(50, 49, 63)" stroke="none" stroke-width="1px">55</text></g><line x1="0" y1="0" x2="1382.4679985046387" y2="0" fill="rgb(0, 0, 0)" stroke="rgb(204, 204, 204)" stroke-width="1px"></line></g></g></g></g></svg>