<svg viewBox="0 0 1434 400" xmlns="http://www.w3.org/2000/svg"><g><g><g><g><g><line x1="51.53200149536133" y1="377.8999996185303" x2="46.53200149536133" y2="377.8999996185303" style="visibility: inherit;" fill="rgb(0, 0, 0)" stroke="rgb(204, 204, 204)" stroke-width="1px"></line><line x1="51.53200149536133" y1="352.70666631062824" x2="46.53200149536133" y2="352.70666631062824" style="visibility: inherit;" fill="rgb(0, 0, 0)" stroke="rgb(204, 204, 204)" stroke-width="1px"></line><line x1="51.53200149536133" y1="327.51333300272626" x2="46.53200149536133" y2="327.51333300272626" style="visibility: inherit;" fill="rgb(0, 0, 0)" stroke="rgb(204, 204, 204)" stroke-width="1px"></line><line x1="51.53200149536133" y1="302.3199996948242" x2="46.53200149536133" y2="302.3199996948242" style="visibility: inherit;" fill="rgb(0, 0, 0)" stroke="rgb(204, 204, 204)" stroke-width="1px"></line><line x1="51.53200149536133" y1="277.1266663869222" x2="46.53200149536133" y2="277.1266663869222" style="visibility: inherit;" fill="rgb(0, 0, 0)" stroke="rgb(204, 204, 204)" stroke-width="1px"></line><line x1="51.53200149536133" y1="251.93333307902012" x2="46.53200149536133" y2="251.93333307902012" style="visibility: inherit;" fill="rgb(0, 0, 0)" stroke="rgb(204, 204, 204)" stroke-width="1px"></line><line x1="51.53200149536133" y1="226.73999977111816" x2="46.53200149536133" y2="226.73999977111816" style="visibility: inherit;" fill="rgb(0, 0, 0)" stroke="rgb(204, 204, 204)" stroke-width="1px"></line><line x1="51.53200149536133" y1="201.5466664632161" x2="46.53200149536133" y2="201.5466664632161" style="visibility: inherit;" fill="rgb(0, 0, 0)" stroke="rgb(204, 204, 204)" stroke-width="1px"></line><line x1="51.53200149536133" y1="176.3533331553141" x2="46.53200149536133" y2="176.3533331553141" style="visibility: inherit;" fill="rgb(0, 0, 0)" stroke="rgb(204, 204, 204)" stroke-width="1px"></line><line x1="51.53200149536133" y1="151.1599998474121" x2="46.53200149536133" y2="151.1599998474121" style="visibility: inherit;" fill="rgb(0, 0, 0)" stroke="rgb(204, 204, 204)" stroke-width="1px"></line><line x1="51.53200149536133" y1="125.96666653951006" x2="46.53200149536133" y2="125.96666653951006" style="visibility: inherit;" fill="rgb(0, 0, 0)" stroke="rgb(204, 204, 204)" stroke-width="1px"></line><line x1="51.53200149536133" y1="100.773333231608" x2="46.53200149536133" y2="100.773333231608" style="visibility: inherit;" fill="rgb(0, 0, 0)" stroke="rgb(204, 204, 204)" stroke-width="1px"></line><line x1="51.53200149536133" y1="75.57999992370604" x2="46.53200149536133" y2="75.57999992370604" style="visibility: inherit;" fill="rgb(0, 0, 0)" stroke="rgb(204, 204, 204)" stroke-width="1px"></line><line x1="51.53200149536133" y1="50.386666615804025" x2="46.53200149536133" y2="50.386666615804025" style="visibility: inherit;" fill="rgb(0, 0, 0)" stroke="rgb(204, 204, 204)" stroke-width="1px"></line><line x1="51.53200149536133" y1="25.19333330790197" x2="46.53200149536133" y2="25.19333330790197" style="visibility: inherit;" fill="rgb(0, 0, 0)" stroke="rgb(204, 204, 204)" stroke-width="1px"></line><line x1="51.53200149536133" y1="0" x2="46.53200149536133" y2="0" style="visibility: inherit;" fill="rgb(0, 0, 0)" stroke="rgb(204, 204, 204)" stroke-width="1px"></line></g><g transform="translate(41.53200149536133, 0)"><text style="text-anchor: end; visibility: hidden; font-family: Roboto, sans-serif; font-size: 12px; font-weight: 200;" x="0" y="377.8999996185303" dx="0em" dy="0.3em" fill="rgb(50, 49, 63)" stroke="none" stroke-width="1px">0.18</text><text style="text-anchor: end; visibility: inherit; font-family: Roboto, sans-serif; font-size: 12px; font-weight: 200;" x="0" y="352.70666631062824" dx="0em" dy="0.3em" fill="rgb(50, 49, 63)" stroke="none" stroke-width="1px">0.2</text><text style="text-anchor: end; visibility: inherit; font-family: Roboto, sans-serif; font-size: 12px; font-weight: 200;" x="0" y="327.51333300272626" dx="0em" dy="0.3em" fill="rgb(50, 49, 63)" stroke="none" stroke-width="1px">0.22</text><text style="text-anchor: end; visibility: inherit; font-family: Roboto, sans-serif; font-size: 12px; font-weight: 200;" x="0" y="302.3199996948242" dx="0em" dy="0.3em" fill="rgb(50, 49, 63)" stroke="none" stroke-width="1px">0.24</text><text style="text-anchor: end; visibility: inherit; font-family: Roboto, sans-serif; font-size: 12px; font-weight: 200;" x="0" y="277.1266663869222" dx="0em" dy="0.3em" fill="rgb(50, 49, 63)" stroke="none" stroke-width="1px">0.26</text><text style="text-anchor: end; visibility: inherit; font-family: Roboto, sans-serif; font-size: 12px; font-weight: 200;" x="0" y="251.93333307902012" dx="0em" dy="0.3em" fill="rgb(50, 49, 63)" stroke="none" stroke-width="1px">0.28</text><text style="text-anchor: end; visibility: inherit; font-family: Roboto, sans-serif; font-size: 12px; font-weight: 200;" x="0" y="226.73999977111816" dx="0em" dy="0.3em" fill="rgb(50, 49, 63)" stroke="none" stroke-width="1px">0.3</text><text style="text-anchor: end; visibility: inherit; font-family: Roboto, sans-serif; font-size: 12px; font-weight: 200;" x="0" y="201.5466664632161" dx="0em" dy="0.3em" fill="rgb(50, 49, 63)" stroke="none" stroke-width="1px">0.32</text><text style="text-anchor: end; visibility: inherit; font-family: Roboto, sans-serif; font-size: 12px; font-weight: 200;" x="0" y="176.3533331553141" dx="0em" dy="0.3em" fill="rgb(50, 49, 63)" stroke="none" stroke-width="1px">0.34</text><text style="text-anchor: end; visibility: inherit; font-family: Roboto, sans-serif; font-size: 12px; font-weight: 200;" x="0" y="151.1599998474121" dx="0em" dy="0.3em" fill="rgb(50, 49, 63)" stroke="none" stroke-width="1px">0.36</text><text style="text-anchor: end; visibility: inherit; font-family: Roboto, sans-serif; font-size: 12px; font-weight: 200;" x="0" y="125.96666653951006" dx="0em" dy="0.3em" fill="rgb(50, 49, 63)" stroke="none" stroke-width="1px">0.38</text><text style="text-anchor: end; visibility: inherit; font-family: Roboto, sans-serif; font-size: 12px; font-weight: 200;" x="0" y="100.773333231608" dx="0em" dy="0.3em" fill="rgb(50, 49, 63)" stroke="none" stroke-width="1px">0.4</text><text style="text-anchor: end; visibility: inherit; font-family: Roboto, sans-serif; font-size: 12px; font-weight: 200;" x="0" y="75.57999992370604" dx="0em" dy="0.3em" fill="rgb(50, 49, 63)" stroke="none" stroke-width="1px">0.42</text><text style="text-anchor: end; visibility: inherit; font-family: Roboto, sans-serif; font-size: 12px; font-weight: 200;" x="0" y="50.386666615804025" dx="0em" dy="0.3em" fill="rgb(50, 49, 63)" stroke="none" stroke-width="1px">0.44</text><text style="text-anchor: end; visibility: inherit; font-family: Roboto, sans-serif; font-size: 12px; font-weight: 200;" x="0" y="25.19333330790197" dx="0em" dy="0.3em" fill="rgb(50, 49, 63)" stroke="none" stroke-width="1px">0.46</text><text style="text-anchor: end; visibility: hidden; font-family: Roboto, sans-serif; font-size: 12px; font-weight: 200;" x="0" y="0" dx="0em" dy="0.3em" fill="rgb(50, 49, 63)" stroke="none" stroke-width="1px">0.48</text></g><line x1="51.53200149536133" y1="0" x2="51.53200149536133" y2="377.8999996185303" fill="rgb(0, 0, 0)" stroke="rgb(204, 204, 204)" stroke-width="1px"></line></g></g><g transform="translate(51, 0)" clip-path="url(#clip_0)"><clipPath id="clip_0"><rect width="1382" height="377"></rect></clipPath><g><g><g><line x1="0" y1="0" x2="0" y2="377.8999996185303" fill="rgb(0, 0, 0)" stroke="rgb(60, 60, 60)" stroke-width="1px" opacity="0.25"></line><line x1="115.20566654205322" y1="0" x2="115.20566654205322" y2="377.8999996185303" fill="rgb(0, 0, 0)" stroke="rgb(60, 60, 60)" stroke-width="1px" opacity="0.25"></line><line x1="230.41133308410645" y1="0" x2="230.41133308410645" y2="377.8999996185303" fill="rgb(0, 0, 0)" stroke="rgb(60, 60, 60)" stroke-width="1px" opacity="0.25"></line><line x1="345.61699962615967" y1="0" x2="345.61699962615967" y2="377.8999996185303" fill="rgb(0, 0, 0)" stroke="rgb(60, 60, 60)" stroke-width="1px" opacity="0.25"></line><line x1="460.8226661682129" y1="0" x2="460.8226661682129" y2="377.8999996185303" fill="rgb(0, 0, 0)" stroke="rgb(60, 60, 60)" stroke-width="1px" opacity="0.25"></line><line x1="576.0283327102661" y1="0" x2="576.0283327102661" y2="377.8999996185303" fill="rgb(0, 0, 0)" stroke="rgb(60, 60, 60)" stroke-width="1px" opacity="0.25"></line><line x1="691.2339992523193" y1="0" x2="691.2339992523193" y2="377.8999996185303" fill="rgb(0, 0, 0)" stroke="rgb(60, 60, 60)" stroke-width="1px" opacity="0.25"></line><line x1="806.4396657943726" y1="0" x2="806.4396657943726" y2="377.8999996185303" fill="rgb(0, 0, 0)" stroke="rgb(60, 60, 60)" stroke-width="1px" opacity="0.25"></line><line x1="921.6453323364258" y1="0" x2="921.6453323364258" y2="377.8999996185303" fill="rgb(0, 0, 0)" stroke="rgb(60, 60, 60)" stroke-width="1px" opacity="0.25"></line><line x1="1036.850998878479" y1="0" x2="1036.850998878479" y2="377.8999996185303" fill="rgb(0, 0, 0)" stroke="rgb(60, 60, 60)" stroke-width="1px" opacity="0.25"></line><line x1="1152.0566654205322" y1="0" x2="1152.0566654205322" y2="377.8999996185303" fill="rgb(0, 0, 0)" stroke="rgb(60, 60, 60)" stroke-width="1px" opacity="0.25"></line><line x1="1267.2623319625854" y1="0" x2="1267.2623319625854" y2="377.8999996185303" fill="rgb(0, 0, 0)" stroke="rgb(60, 60, 60)" stroke-width="1px" opacity="0.25"></line><line x1="1382.4679985046387" y1="0" x2="1382.4679985046387" y2="377.8999996185303" fill="rgb(0, 0, 0)" stroke="rgb(60, 60, 60)" stroke-width="1px" opacity="0.25"></line></g><g><line x1="0" y1="377.8999996185303" x2="1382.4679985046387" y2="377.8999996185303" fill="rgb(0, 0, 0)" stroke="rgb(60, 60, 60)" stroke-width="1px" opacity="0.25"></line><line x1="0" y1="352.70666631062824" x2="1382.4679985046387" y2="352.70666631062824" fill="rgb(0, 0, 0)" stroke="rgb(60, 60, 60)" stroke-width="1px" opacity="0.25"></line><line x1="0" y1="327.51333300272626" x2="1382.4679985046387" y2="327.51333300272626" fill="rgb(0, 0, 0)" stroke="rgb(60, 60, 60)" stroke-width="1px" opacity="0.25"></line><line x1="0" y1="302.3199996948242" x2="1382.4679985046387" y2="302.3199996948242" fill="rgb(0, 0, 0)" stroke="rgb(60, 60, 60)" stroke-width="1px" opacity="0.25"></line><line x1="0" y1="277.1266663869222" x2="1382.4679985046387" y2="277.1266663869222" fill="rgb(0, 0, 0)" stroke="rgb(60, 60, 60)" stroke-width="1px" opacity="0.25"></line><line x1="0" y1="251.93333307902012" x2="1382.4679985046387" y2="251.93333307902012" fill="rgb(0, 0, 0)" stroke="rgb(60, 60, 60)" stroke-width="1px" opacity="0.25"></line><line x1="0" y1="226.73999977111816" x2="1382.4679985046387" y2="226.73999977111816" fill="rgb(0, 0, 0)" stroke="rgb(60, 60, 60)" stroke-width="1px" opacity="0.25"></line><line x1="0" y1="201.5466664632161" x2="1382.4679985046387" y2="201.5466664632161" fill="rgb(0, 0, 0)" stroke="rgb(60, 60, 60)" stroke-width="1px" opacity="0.25"></line><line x1="0" y1="176.3533331553141" x2="1382.4679985046387" y2="176.3533331553141" fill="rgb(0, 0, 0)" stroke="rgb(60, 60, 60)" stroke-width="1px" opacity="0.25"></line><line x1="0" y1="151.1599998474121" x2="1382.4679985046387" y2="151.1599998474121" fill="rgb(0, 0, 0)" stroke="rgb(60, 60, 60)" stroke-width="1px" opacity="0.25"></line><line x1="0" y1="125.96666653951006" x2="1382.4679985046387" y2="125.96666653951006" fill="rgb(0, 0, 0)" stroke="rgb(60, 60, 60)" stroke-width="1px" opacity="0.25"></line><line x1="0" y1="100.773333231608" x2="1382.4679985046387" y2="100.773333231608" fill="rgb(0, 0, 0)" stroke="rgb(60, 60, 60)" stroke-width="1px" opacity="0.25"></line><line x1="0" y1="75.57999992370604" x2="1382.4679985046387" y2="75.57999992370604" fill="rgb(0, 0, 0)" stroke="rgb(60, 60, 60)" stroke-width="1px" opacity="0.25"></line><line x1="0" y1="50.386666615804025" x2="1382.4679985046387" y2="50.386666615804025" fill="rgb(0, 0, 0)" stroke="rgb(60, 60, 60)" stroke-width="1px" opacity="0.25"></line><line x1="0" y1="25.19333330790197" x2="1382.4679985046387" y2="25.19333330790197" fill="rgb(0, 0, 0)" stroke="rgb(60, 60, 60)" stroke-width="1px" opacity="0.25"></line><line x1="0" y1="0" x2="1382.4679985046387" y2="0" fill="rgb(0, 0, 0)" stroke="rgb(60, 60, 60)" stroke-width="1px" opacity="0.25"></line></g></g></g><g><g><line x1="0" y1="604.6399993896484" x2="1382.4679985046387" y2="604.6399993896484" fill="rgb(0, 0, 0)" stroke="rgb(153, 153, 153)" stroke-width="1.5px"></line></g></g><g><g><line x1="115.20566654205322" y1="0" x2="115.20566654205322" y2="377.8999996185303" fill="rgb(0, 0, 0)" stroke="rgb(153, 153, 153)" stroke-width="1.5px"></line></g></g><g><g><g><g><g><path style="fill: none;" fill="none" stroke="none" stroke-width="1px"></path></g><g><path style="fill: none;" stroke="rgb(0, 119, 187)" stroke-width="2px" d="M115.20566654205322,64.99559651648524L138.24679985046387,177.9722839331179L161.28793315887452,239.66275799360736L184.32906646728514,240.16486876245185L207.3701997756958,271.5190302516005L230.41133308410645,269.5763589943172L253.45246639251707,275.56767608164165L276.49359970092775,285.6941334447207L299.53473300933837,286.2695242300724L322.57586631774905,286.9586266803834L345.61699962615967,289.499063154288L368.6581329345703,291.5879565756572L391.69926624298097,289.2699129387346L414.7403995513916,291.53810213819736L437.7815328598022,292.4198461892803L460.8226661682129,292.0261538055142L483.8637994766235,291.41177669990486L506.90493278503413,291.84764638825396L529.9460660934449,292.0880025899382L552.9871994018555,292.1729953959691L576.0283327102661,292.73220601374163L599.0694660186767,292.458907591522L622.1105993270875,292.4453552933872L645.1517326354981,292.49718063293034L668.1928659439087,292.6359696805878L691.2339992523193,292.62042770987364L714.2751325607301,292.6829522321548L737.3162658691406,292.67764018177786L760.3573991775513,292.6675041139208L783.3985324859619,292.6658898512621L806.4396657943726,292.6769644439207L829.4807991027832,292.6620794405677L852.5219324111939,292.656316898286L875.5630657196044,292.64999124112336L898.6041990280152,292.6496909131869L921.6453323364258,292.6531071434646L944.6864656448364,292.65124886435746L967.727598953247,292.6523938646154L990.7687322616578,292.6547214061233L1013.8098655700683,292.65537837348444L1036.850998878479,292.6562418163019L1059.8921321868897,292.65663599671853L1082.9332654953002,292.6569738656471L1105.974398803711,292.6568800131669L1129.0155321121215,292.6571428001114L1152.0566654205322,292.6570114066392L1175.0977987289427,292.6569926361431L1198.1389320373535,292.6570489476312L1221.1800653457642,292.6570489476312L1244.221198654175,292.6570677181273" fill="none"></path></g><g><path style="fill: none;" stroke="rgb(238, 51, 119)" stroke-width="2px" d="M115.20566654205322,46.22382409118613L138.24679985046387,151.53385256769266L161.28793315887452,203.62971249966157L184.32906646728514,236.50139351097846L207.3701997756958,274.4914509211756L230.41133308410645,276.6297107471078L253.45246639251707,278.36887228641683L276.49359970092775,288.72106363477155L299.53473300933837,294.09787222301446L322.57586631774905,289.52947135785917L345.61699962615967,293.0542138731632L368.6581329345703,289.573994974446L391.69926624298097,286.26674619665977L414.7403995513916,290.6633407116381L437.7815328598022,291.1847663208991L460.8226661682129,296.602588442971L483.8637994766235,295.5368184487945L506.90493278503413,290.8122658271526L529.9460660934449,294.7143891651713L552.9871994018555,294.0837568099987L576.0283327102661,298.7261134295184L599.0694660186767,291.0737763778644L622.1105993270875,296.4794352185079L645.1517326354981,296.7263798642992L668.1928659439087,299.0910494133642L691.2339992523193,297.1199783955852L714.2751325607301,295.7858278491493L737.3162658691406,288.1034016923567L760.3573991775513,300.3495548607928L783.3985324859619,299.0793929353286L806.4396657943726,289.60410285008066L829.4807991027832,289.6624415517468L852.5219324111939,295.1070867126478L875.5630657196044,293.3474841031604L898.6041990280152,291.84261589531746L921.6453323364258,295.7080429135945L944.6864656448364,299.7589599736555L967.727598953247,295.1923423056232L990.7687322616578,291.32989979621516L1013.8098655700683,299.36217045804415L1036.850998878479,293.96302497952365L1059.8921321868897,295.24713338353934L1082.9332654953002,293.29686007536327L1105.974398803711,293.03204591734993L1129.0155321121215,292.339996499162L1152.0566654205322,294.91844322753053L1175.0977987289427,296.62699008781203L1198.1389320373535,296.2835463219224L1221.1800653457642,290.97665783139706L1244.221198654175,296.85764194304795" fill="none"></path></g><g><path style="fill: none;" stroke="rgb(204, 51, 17)" stroke-width="2px" d="M115.20566654205322,102.33709574779964L138.24679985046387,221.0451288817195L161.28793315887452,235.39622424563174L184.32906646728514,268.70386879777783L207.3701997756958,287.8837493477953L230.41133308410645,292.6655144413415L253.45246639251707,301.23760579854235L276.49359970092775,297.059218299931L299.53473300933837,300.05874356577567L322.57586631774905,300.6361427942028L345.61699962615967,305.36559451530894L368.6581329345703,304.18532449533996L391.69926624298097,305.65920261423474L414.7403995513916,305.2648532631075L437.7815328598022,305.8112060910984L460.8226661682129,305.35917500566615L483.8637994766235,305.9465789084781L506.90493278503413,306.7530157294824L529.9460660934449,306.70378071839156L552.9871994018555,306.4064748317476L576.0283327102661,306.2180190515906L599.0694660186767,306.2620734057767L622.1105993270875,306.31466833565713L645.1517326354981,306.2097975743288L668.1928659439087,306.1223646038137L691.2339992523193,306.15228477448807L714.2751325607301,306.0913369738735L737.3162658691406,306.11459361845664L760.3573991775513,306.1019610746274L783.3985324859619,306.10477664903215L806.4396657943726,306.10704787905195L829.4807991027832,306.09824451641316L852.5219324111939,306.10228017305997L875.5630657196044,306.10239279603616L898.6041990280152,306.10389443571864L921.6453323364258,306.1077799283972L944.6864656448364,306.10762976442896L967.727598953247,306.1107081257781L990.7687322616578,306.11121492917096L1013.8098655700683,306.11113984718685L1036.850998878479,306.1116278800837L1059.8921321868897,306.11209714248446L1082.9332654953002,306.11219099496464L1105.974398803711,306.11239747042094L1129.0155321121215,306.11232238843684L1152.0566654205322,306.11232238843684L1175.0977987289427,306.1123036179408L1198.1389320373535,306.11226607694874L1221.1800653457642,306.11226607694874L1244.221198654175,306.11228484744476" fill="none"></path></g><g><path style="fill: none;" fill="none" stroke="none" stroke-width="1px"></path></g><g><path style="fill: none;" fill="none" stroke="none" stroke-width="1px"></path></g><g><path style="fill: none;" fill="none" stroke="none" stroke-width="1px"></path></g></g></g></g></g><g><g opacity="0.181648"><span fill="rgb(0, 0, 0)" stroke="none" stroke-width="1px">Alt + Scroll to Zoom</span></g></g></g><g transform="translate(51, 377)" clip-path="url(#clip_1)"><clipPath id="clip_1"><rect width="1382" height="22"></rect></clipPath><g><g><line x1="0" y1="0" x2="0" y2="5" style="visibility: inherit;" fill="rgb(0, 0, 0)" stroke="rgb(204, 204, 204)" stroke-width="1px"></line><line x1="115.20566654205322" y1="0" x2="115.20566654205322" y2="5" style="visibility: inherit;" fill="rgb(0, 0, 0)" stroke="rgb(204, 204, 204)" stroke-width="1px"></line><line x1="230.41133308410645" y1="0" x2="230.41133308410645" y2="5" style="visibility: inherit;" fill="rgb(0, 0, 0)" stroke="rgb(204, 204, 204)" stroke-width="1px"></line><line x1="345.61699962615967" y1="0" x2="345.61699962615967" y2="5" style="visibility: inherit;" fill="rgb(0, 0, 0)" stroke="rgb(204, 204, 204)" stroke-width="1px"></line><line x1="460.8226661682129" y1="0" x2="460.8226661682129" y2="5" style="visibility: inherit;" fill="rgb(0, 0, 0)" stroke="rgb(204, 204, 204)" stroke-width="1px"></line><line x1="576.0283327102661" y1="0" x2="576.0283327102661" y2="5" style="visibility: inherit;" fill="rgb(0, 0, 0)" stroke="rgb(204, 204, 204)" stroke-width="1px"></line><line x1="691.2339992523193" y1="0" x2="691.2339992523193" y2="5" style="visibility: inherit;" fill="rgb(0, 0, 0)" stroke="rgb(204, 204, 204)" stroke-width="1px"></line><line x1="806.4396657943726" y1="0" x2="806.4396657943726" y2="5" style="visibility: inherit;" fill="rgb(0, 0, 0)" stroke="rgb(204, 204, 204)" stroke-width="1px"></line><line x1="921.6453323364258" y1="0" x2="921.6453323364258" y2="5" style="visibility: inherit;" fill="rgb(0, 0, 0)" stroke="rgb(204, 204, 204)" stroke-width="1px"></line><line x1="1036.850998878479" y1="0" x2="1036.850998878479" y2="5" style="visibility: inherit;" fill="rgb(0, 0, 0)" stroke="rgb(204, 204, 204)" stroke-width="1px"></line><line x1="1152.0566654205322" y1="0" x2="1152.0566654205322" y2="5" style="visibility: inherit;" fill="rgb(0, 0, 0)" stroke="rgb(204, 204, 204)" stroke-width="1px"></line><line x1="1267.2623319625854" y1="0" x2="1267.2623319625854" y2="5" style="visibility: inherit;" fill="rgb(0, 0, 0)" stroke="rgb(204, 204, 204)" stroke-width="1px"></line><line x1="1382.4679985046387" y1="0" x2="1382.4679985046387" y2="5" style="visibility: inherit;" fill="rgb(0, 0, 0)" stroke="rgb(204, 204, 204)" stroke-width="1px"></line></g><g transform="translate(0, 8)"><text style="text-anchor: middle; visibility: hidden; font-family: Roboto, sans-serif; font-size: 12px; font-weight: 200;" x="0" y="0" dx="0em" dy="0.95em" fill="rgb(50, 49, 63)" stroke="none" stroke-width="1px">-5</text><text style="text-anchor: middle; visibility: inherit; font-family: Roboto, sans-serif; font-size: 12px; font-weight: 200;" x="115.20566654205322" y="0" dx="0em" dy="0.95em" fill="rgb(50, 49, 63)" stroke="none" stroke-width="1px">0</text><text style="text-anchor: middle; visibility: inherit; font-family: Roboto, sans-serif; font-size: 12px; font-weight: 200;" x="230.41133308410645" y="0" dx="0em" dy="0.95em" fill="rgb(50, 49, 63)" stroke="none" stroke-width="1px">5</text><text style="text-anchor: middle; visibility: inherit; font-family: Roboto, sans-serif; font-size: 12px; font-weight: 200;" x="345.61699962615967" y="0" dx="0em" dy="0.95em" fill="rgb(50, 49, 63)" stroke="none" stroke-width="1px">10</text><text style="text-anchor: middle; visibility: inherit; font-family: Roboto, sans-serif; font-size: 12px; font-weight: 200;" x="460.8226661682129" y="0" dx="0em" dy="0.95em" fill="rgb(50, 49, 63)" stroke="none" stroke-width="1px">15</text><text style="text-anchor: middle; visibility: inherit; font-family: Roboto, sans-serif; font-size: 12px; font-weight: 200;" x="576.0283327102661" y="0" dx="0em" dy="0.95em" fill="rgb(50, 49, 63)" stroke="none" stroke-width="1px">20</text><text style="text-anchor: middle; visibility: inherit; font-family: Roboto, sans-serif; font-size: 12px; font-weight: 200;" x="691.2339992523193" y="0" dx="0em" dy="0.95em" fill="rgb(50, 49, 63)" stroke="none" stroke-width="1px">25</text><text style="text-anchor: middle; visibility: inherit; font-family: Roboto, sans-serif; font-size: 12px; font-weight: 200;" x="806.4396657943726" y="0" dx="0em" dy="0.95em" fill="rgb(50, 49, 63)" stroke="none" stroke-width="1px">30</text><text style="text-anchor: middle; visibility: inherit; font-family: Roboto, sans-serif; font-size: 12px; font-weight: 200;" x="921.6453323364258" y="0" dx="0em" dy="0.95em" fill="rgb(50, 49, 63)" stroke="none" stroke-width="1px">35</text><text style="text-anchor: middle; visibility: inherit; font-family: Roboto, sans-serif; font-size: 12px; font-weight: 200;" x="1036.850998878479" y="0" dx="0em" dy="0.95em" fill="rgb(50, 49, 63)" stroke="none" stroke-width="1px">40</text><text style="text-anchor: middle; visibility: inherit; font-family: Roboto, sans-serif; font-size: 12px; font-weight: 200;" x="1152.0566654205322" y="0" dx="0em" dy="0.95em" fill="rgb(50, 49, 63)" stroke="none" stroke-width="1px">45</text><text style="text-anchor: middle; visibility: inherit; font-family: Roboto, sans-serif; font-size: 12px; font-weight: 200;" x="1267.2623319625854" y="0" dx="0em" dy="0.95em" fill="rgb(50, 49, 63)" stroke="none" stroke-width="1px">50</text><text style="text-anchor: middle; visibility: hidden; font-family: Roboto, sans-serif; font-size: 12px; font-weight: 200;" x="1382.4679985046387" y="0" dx="0em" dy="0.95em" fill="rgb(50, 49, 63)" stroke="none" stroke-width="1px">55</text></g><line x1="0" y1="0" x2="1382.4679985046387" y2="0" fill="rgb(0, 0, 0)" stroke="rgb(204, 204, 204)" stroke-width="1px"></line></g></g></g></g></svg>