<svg viewBox="0 0 1434 400" xmlns="http://www.w3.org/2000/svg"><g><g><g><g><g><line x1="51.53200149536133" y1="377.8999996185303" x2="46.53200149536133" y2="377.8999996185303" style="visibility: inherit;" fill="rgb(0, 0, 0)" stroke="rgb(204, 204, 204)" stroke-width="1px"></line><line x1="51.53200149536133" y1="346.4083329836527" x2="46.53200149536133" y2="346.4083329836527" style="visibility: inherit;" fill="rgb(0, 0, 0)" stroke="rgb(204, 204, 204)" stroke-width="1px"></line><line x1="51.53200149536133" y1="314.91666634877555" x2="46.53200149536133" y2="314.91666634877555" style="visibility: inherit;" fill="rgb(0, 0, 0)" stroke="rgb(204, 204, 204)" stroke-width="1px"></line><line x1="51.53200149536133" y1="283.42499971389793" x2="46.53200149536133" y2="283.42499971389793" style="visibility: inherit;" fill="rgb(0, 0, 0)" stroke="rgb(204, 204, 204)" stroke-width="1px"></line><line x1="51.53200149536133" y1="251.93333307902043" x2="46.53200149536133" y2="251.93333307902043" style="visibility: inherit;" fill="rgb(0, 0, 0)" stroke="rgb(204, 204, 204)" stroke-width="1px"></line><line x1="51.53200149536133" y1="220.4416664441429" x2="46.53200149536133" y2="220.4416664441429" style="visibility: inherit;" fill="rgb(0, 0, 0)" stroke="rgb(204, 204, 204)" stroke-width="1px"></line><line x1="51.53200149536133" y1="188.9499998092653" x2="46.53200149536133" y2="188.9499998092653" style="visibility: inherit;" fill="rgb(0, 0, 0)" stroke="rgb(204, 204, 204)" stroke-width="1px"></line><line x1="51.53200149536133" y1="157.45833317438777" x2="46.53200149536133" y2="157.45833317438777" style="visibility: inherit;" fill="rgb(0, 0, 0)" stroke="rgb(204, 204, 204)" stroke-width="1px"></line><line x1="51.53200149536133" y1="125.96666653951019" x2="46.53200149536133" y2="125.96666653951019" style="visibility: inherit;" fill="rgb(0, 0, 0)" stroke="rgb(204, 204, 204)" stroke-width="1px"></line><line x1="51.53200149536133" y1="94.47499990463265" x2="46.53200149536133" y2="94.47499990463265" style="visibility: inherit;" fill="rgb(0, 0, 0)" stroke="rgb(204, 204, 204)" stroke-width="1px"></line><line x1="51.53200149536133" y1="62.983333269755114" x2="46.53200149536133" y2="62.983333269755114" style="visibility: inherit;" fill="rgb(0, 0, 0)" stroke="rgb(204, 204, 204)" stroke-width="1px"></line><line x1="51.53200149536133" y1="31.491666634877536" x2="46.53200149536133" y2="31.491666634877536" style="visibility: inherit;" fill="rgb(0, 0, 0)" stroke="rgb(204, 204, 204)" stroke-width="1px"></line><line x1="51.53200149536133" y1="0" x2="46.53200149536133" y2="0" style="visibility: inherit;" fill="rgb(0, 0, 0)" stroke="rgb(204, 204, 204)" stroke-width="1px"></line></g><g transform="translate(41.53200149536133, 0)"><text style="text-anchor: end; visibility: hidden; font-family: Roboto, sans-serif; font-size: 12px; font-weight: 200;" x="0" y="377.8999996185303" dx="0em" dy="0.3em" fill="rgb(50, 49, 63)" stroke="none" stroke-width="1px">0.8</text><text style="text-anchor: end; visibility: inherit; font-family: Roboto, sans-serif; font-size: 12px; font-weight: 200;" x="0" y="346.4083329836527" dx="0em" dy="0.3em" fill="rgb(50, 49, 63)" stroke="none" stroke-width="1px">0.81</text><text style="text-anchor: end; visibility: inherit; font-family: Roboto, sans-serif; font-size: 12px; font-weight: 200;" x="0" y="314.91666634877555" dx="0em" dy="0.3em" fill="rgb(50, 49, 63)" stroke="none" stroke-width="1px">0.82</text><text style="text-anchor: end; visibility: inherit; font-family: Roboto, sans-serif; font-size: 12px; font-weight: 200;" x="0" y="283.42499971389793" dx="0em" dy="0.3em" fill="rgb(50, 49, 63)" stroke="none" stroke-width="1px">0.83</text><text style="text-anchor: end; visibility: inherit; font-family: Roboto, sans-serif; font-size: 12px; font-weight: 200;" x="0" y="251.93333307902043" dx="0em" dy="0.3em" fill="rgb(50, 49, 63)" stroke="none" stroke-width="1px">0.84</text><text style="text-anchor: end; visibility: inherit; font-family: Roboto, sans-serif; font-size: 12px; font-weight: 200;" x="0" y="220.4416664441429" dx="0em" dy="0.3em" fill="rgb(50, 49, 63)" stroke="none" stroke-width="1px">0.85</text><text style="text-anchor: end; visibility: inherit; font-family: Roboto, sans-serif; font-size: 12px; font-weight: 200;" x="0" y="188.9499998092653" dx="0em" dy="0.3em" fill="rgb(50, 49, 63)" stroke="none" stroke-width="1px">0.86</text><text style="text-anchor: end; visibility: inherit; font-family: Roboto, sans-serif; font-size: 12px; font-weight: 200;" x="0" y="157.45833317438777" dx="0em" dy="0.3em" fill="rgb(50, 49, 63)" stroke="none" stroke-width="1px">0.87</text><text style="text-anchor: end; visibility: inherit; font-family: Roboto, sans-serif; font-size: 12px; font-weight: 200;" x="0" y="125.96666653951019" dx="0em" dy="0.3em" fill="rgb(50, 49, 63)" stroke="none" stroke-width="1px">0.88</text><text style="text-anchor: end; visibility: inherit; font-family: Roboto, sans-serif; font-size: 12px; font-weight: 200;" x="0" y="94.47499990463265" dx="0em" dy="0.3em" fill="rgb(50, 49, 63)" stroke="none" stroke-width="1px">0.89</text><text style="text-anchor: end; visibility: inherit; font-family: Roboto, sans-serif; font-size: 12px; font-weight: 200;" x="0" y="62.983333269755114" dx="0em" dy="0.3em" fill="rgb(50, 49, 63)" stroke="none" stroke-width="1px">0.9</text><text style="text-anchor: end; visibility: inherit; font-family: Roboto, sans-serif; font-size: 12px; font-weight: 200;" x="0" y="31.491666634877536" dx="0em" dy="0.3em" fill="rgb(50, 49, 63)" stroke="none" stroke-width="1px">0.91</text><text style="text-anchor: end; visibility: hidden; font-family: Roboto, sans-serif; font-size: 12px; font-weight: 200;" x="0" y="0" dx="0em" dy="0.3em" fill="rgb(50, 49, 63)" stroke="none" stroke-width="1px">0.92</text></g><line x1="51.53200149536133" y1="0" x2="51.53200149536133" y2="377.8999996185303" fill="rgb(0, 0, 0)" stroke="rgb(204, 204, 204)" stroke-width="1px"></line></g></g><g transform="translate(51, 0)" clip-path="url(#clip_0)"><clipPath id="clip_0"><rect width="1382" height="377"></rect></clipPath><g><g><g><line x1="0" y1="0" x2="0" y2="377.8999996185303" fill="rgb(0, 0, 0)" stroke="rgb(60, 60, 60)" stroke-width="1px" opacity="0.25"></line><line x1="115.20566654205322" y1="0" x2="115.20566654205322" y2="377.8999996185303" fill="rgb(0, 0, 0)" stroke="rgb(60, 60, 60)" stroke-width="1px" opacity="0.25"></line><line x1="230.41133308410645" y1="0" x2="230.41133308410645" y2="377.8999996185303" fill="rgb(0, 0, 0)" stroke="rgb(60, 60, 60)" stroke-width="1px" opacity="0.25"></line><line x1="345.61699962615967" y1="0" x2="345.61699962615967" y2="377.8999996185303" fill="rgb(0, 0, 0)" stroke="rgb(60, 60, 60)" stroke-width="1px" opacity="0.25"></line><line x1="460.8226661682129" y1="0" x2="460.8226661682129" y2="377.8999996185303" fill="rgb(0, 0, 0)" stroke="rgb(60, 60, 60)" stroke-width="1px" opacity="0.25"></line><line x1="576.0283327102661" y1="0" x2="576.0283327102661" y2="377.8999996185303" fill="rgb(0, 0, 0)" stroke="rgb(60, 60, 60)" stroke-width="1px" opacity="0.25"></line><line x1="691.2339992523193" y1="0" x2="691.2339992523193" y2="377.8999996185303" fill="rgb(0, 0, 0)" stroke="rgb(60, 60, 60)" stroke-width="1px" opacity="0.25"></line><line x1="806.4396657943726" y1="0" x2="806.4396657943726" y2="377.8999996185303" fill="rgb(0, 0, 0)" stroke="rgb(60, 60, 60)" stroke-width="1px" opacity="0.25"></line><line x1="921.6453323364258" y1="0" x2="921.6453323364258" y2="377.8999996185303" fill="rgb(0, 0, 0)" stroke="rgb(60, 60, 60)" stroke-width="1px" opacity="0.25"></line><line x1="1036.850998878479" y1="0" x2="1036.850998878479" y2="377.8999996185303" fill="rgb(0, 0, 0)" stroke="rgb(60, 60, 60)" stroke-width="1px" opacity="0.25"></line><line x1="1152.0566654205322" y1="0" x2="1152.0566654205322" y2="377.8999996185303" fill="rgb(0, 0, 0)" stroke="rgb(60, 60, 60)" stroke-width="1px" opacity="0.25"></line><line x1="1267.2623319625854" y1="0" x2="1267.2623319625854" y2="377.8999996185303" fill="rgb(0, 0, 0)" stroke="rgb(60, 60, 60)" stroke-width="1px" opacity="0.25"></line><line x1="1382.4679985046387" y1="0" x2="1382.4679985046387" y2="377.8999996185303" fill="rgb(0, 0, 0)" stroke="rgb(60, 60, 60)" stroke-width="1px" opacity="0.25"></line></g><g><line x1="0" y1="377.8999996185303" x2="1382.4679985046387" y2="377.8999996185303" fill="rgb(0, 0, 0)" stroke="rgb(60, 60, 60)" stroke-width="1px" opacity="0.25"></line><line x1="0" y1="346.4083329836527" x2="1382.4679985046387" y2="346.4083329836527" fill="rgb(0, 0, 0)" stroke="rgb(60, 60, 60)" stroke-width="1px" opacity="0.25"></line><line x1="0" y1="314.91666634877555" x2="1382.4679985046387" y2="314.91666634877555" fill="rgb(0, 0, 0)" stroke="rgb(60, 60, 60)" stroke-width="1px" opacity="0.25"></line><line x1="0" y1="283.42499971389793" x2="1382.4679985046387" y2="283.42499971389793" fill="rgb(0, 0, 0)" stroke="rgb(60, 60, 60)" stroke-width="1px" opacity="0.25"></line><line x1="0" y1="251.93333307902043" x2="1382.4679985046387" y2="251.93333307902043" fill="rgb(0, 0, 0)" stroke="rgb(60, 60, 60)" stroke-width="1px" opacity="0.25"></line><line x1="0" y1="220.4416664441429" x2="1382.4679985046387" y2="220.4416664441429" fill="rgb(0, 0, 0)" stroke="rgb(60, 60, 60)" stroke-width="1px" opacity="0.25"></line><line x1="0" y1="188.9499998092653" x2="1382.4679985046387" y2="188.9499998092653" fill="rgb(0, 0, 0)" stroke="rgb(60, 60, 60)" stroke-width="1px" opacity="0.25"></line><line x1="0" y1="157.45833317438777" x2="1382.4679985046387" y2="157.45833317438777" fill="rgb(0, 0, 0)" stroke="rgb(60, 60, 60)" stroke-width="1px" opacity="0.25"></line><line x1="0" y1="125.96666653951019" x2="1382.4679985046387" y2="125.96666653951019" fill="rgb(0, 0, 0)" stroke="rgb(60, 60, 60)" stroke-width="1px" opacity="0.25"></line><line x1="0" y1="94.47499990463265" x2="1382.4679985046387" y2="94.47499990463265" fill="rgb(0, 0, 0)" stroke="rgb(60, 60, 60)" stroke-width="1px" opacity="0.25"></line><line x1="0" y1="62.983333269755114" x2="1382.4679985046387" y2="62.983333269755114" fill="rgb(0, 0, 0)" stroke="rgb(60, 60, 60)" stroke-width="1px" opacity="0.25"></line><line x1="0" y1="31.491666634877536" x2="1382.4679985046387" y2="31.491666634877536" fill="rgb(0, 0, 0)" stroke="rgb(60, 60, 60)" stroke-width="1px" opacity="0.25"></line><line x1="0" y1="0" x2="1382.4679985046387" y2="0" fill="rgb(0, 0, 0)" stroke="rgb(60, 60, 60)" stroke-width="1px" opacity="0.25"></line></g></g></g><g><g><line x1="0" y1="2897.2333304087324" x2="1382.4679985046387" y2="2897.2333304087324" fill="rgb(0, 0, 0)" stroke="rgb(153, 153, 153)" stroke-width="1.5px"></line></g></g><g><g><line x1="115.20566654205322" y1="0" x2="115.20566654205322" y2="377.8999996185303" fill="rgb(0, 0, 0)" stroke="rgb(153, 153, 153)" stroke-width="1.5px"></line></g></g><g><g><g><g><g><path style="fill: none;" stroke="rgb(0, 119, 187)" stroke-width="2px" d="M115.20566654205322,347.9465676252415L138.24679985046387,263.7528216103612L161.28793315887452,160.93949435200568L184.32906646728514,137.46229644052084L207.3701997756958,105.88975900054088L230.41133308410645,101.03233003749146L253.45246639251707,96.17508877940237L276.49359970092775,86.46041855826387L299.53473300933837,86.46041855826387L322.57586631774905,83.22213258289757L345.61699962615967,83.22213258289757L368.6581329345703,84.03170407673916L391.69926624298097,82.41256108905601L414.7403995513916,85.65084706442228L437.7815328598022,86.46041855826387L460.8226661682129,85.65084706442228L483.8637994766235,85.65084706442228L506.90493278503413,85.65084706442228L529.9460660934449,85.65084706442228L552.9871994018555,85.65084706442228L576.0283327102661,85.65084706442228L599.0694660186767,85.65084706442228L622.1105993270875,85.65084706442228L645.1517326354981,85.65084706442228L668.1928659439087,85.65084706442228L691.2339992523193,85.65084706442228L714.2751325607301,85.65084706442228L737.3162658691406,85.65084706442228L760.3573991775513,85.65084706442228L783.3985324859619,85.65084706442228L806.4396657943726,85.65084706442228L829.4807991027832,85.65084706442228L852.5219324111939,85.65084706442228L875.5630657196044,85.65084706442228L898.6041990280152,85.65084706442228L921.6453323364258,85.65084706442228L944.6864656448364,85.65084706442228L967.727598953247,85.65084706442228L990.7687322616578,85.65084706442228L1013.8098655700683,85.65084706442228L1036.850998878479,85.65084706442228L1059.8921321868897,85.65084706442228L1082.9332654953002,85.65084706442228L1105.974398803711,85.65084706442228L1129.0155321121215,85.65084706442228L1152.0566654205322,85.65084706442228L1175.0977987289427,85.65084706442228L1198.1389320373535,85.65084706442228L1221.1800653457642,85.65084706442228L1244.221198654175,85.65084706442228" fill="none"></path></g><g><path style="fill: none;" stroke="rgb(0, 119, 187)" stroke-width="2px" d="M115.20566654205322,315.3737504517393L138.24679985046387,220.68654633537062L161.28793315887452,143.95726347736434L184.32906646728514,146.40606238964278L207.3701997756958,107.2250920882267L230.41133308410645,110.49021987291813L253.45246639251707,109.67389100050518L276.49359970092775,95.79742639924721L299.53473300933837,106.40876321581378L322.57586631774905,94.98109752683426L345.61699962615967,97.42989643911277L368.6581329345703,96.61356756669981L391.69926624298097,91.71596974214286L414.7403995513916,90.08349970227731L437.7815328598022,88.45084195745143L460.8226661682129,88.45084195745143L483.8637994766235,89.26717082986436L506.90493278503413,88.45084195745143L529.9460660934449,90.89982857469023L552.9871994018555,90.08349970227731L576.0283327102661,89.26717082986436L599.0694660186767,89.26717082986436L622.1105993270875,89.26717082986436L645.1517326354981,89.26717082986436L668.1928659439087,89.26717082986436L691.2339992523193,89.26717082986436L714.2751325607301,89.26717082986436L737.3162658691406,89.26717082986436L760.3573991775513,89.26717082986436L783.3985324859619,89.26717082986436L806.4396657943726,89.26717082986436L829.4807991027832,89.26717082986436L852.5219324111939,89.26717082986436L875.5630657196044,89.26717082986436L898.6041990280152,89.26717082986436L921.6453323364258,89.26717082986436L944.6864656448364,89.26717082986436L967.727598953247,89.26717082986436L990.7687322616578,89.26717082986436L1013.8098655700683,89.26717082986436L1036.850998878479,89.26717082986436L1059.8921321868897,89.26717082986436L1082.9332654953002,89.26717082986436L1105.974398803711,89.26717082986436L1129.0155321121215,89.26717082986436L1152.0566654205322,89.26717082986436L1175.0977987289427,89.26717082986436L1198.1389320373535,89.26717082986436L1221.1800653457642,89.26717082986436L1244.221198654175,89.26717082986436" fill="none"></path></g><g><path style="fill: none;" stroke="rgb(238, 51, 119)" stroke-width="2px" d="M115.20566654205322,328.43407388554465L138.24679985046387,219.05407629550507L161.28793315887452,196.1985572125858L184.32906646728514,161.91518473572663L207.3701997756958,125.99934221900197L230.41133308410645,128.44814113128044L253.45246639251707,108.85774983305258L276.49359970092775,110.49021987291813L299.53473300933837,97.42989643911277L322.57586631774905,93.34862748696871L345.61699962615967,98.24622531152569L368.6581329345703,101.5111653912568L391.69926624298097,103.95996430353527L414.7403995513916,98.24622531152569L437.7815328598022,95.79742639924721L460.8226661682129,96.61356756669981L483.8637994766235,99.06236647897832L506.90493278503413,94.98109752683426L529.9460660934449,91.71596974214286L552.9871994018555,96.61356756669981L576.0283327102661,91.71596974214286L599.0694660186767,92.53229861455578L622.1105993270875,96.61356756669981L645.1517326354981,96.61356756669981L668.1928659439087,82.73710296544185L691.2339992523193,87.6347007899988L714.2751325607301,98.24622531152569L737.3162658691406,96.61356756669981L760.3573991775513,85.18590187772033L783.3985324859619,99.87869535139124L806.4396657943726,97.42989643911277L829.4807991027832,99.06236647897832L852.5219324111939,97.42989643911277L875.5630657196044,88.45084195745143L898.6041990280152,89.26717082986436L921.6453323364258,86.00204304517295L944.6864656448364,93.34862748696871L967.727598953247,94.16476865442134L990.7687322616578,102.32749426366972L1013.8098655700683,84.3695730053074L1036.850998878479,96.61356756669981L1059.8921321868897,91.71596974214286L1082.9332654953002,89.26717082986436L1105.974398803711,94.16476865442134L1129.0155321121215,92.53229861455578L1152.0566654205322,99.06236647897832L1175.0977987289427,89.26717082986436L1198.1389320373535,89.26717082986436L1221.1800653457642,95.79742639924721L1244.221198654175,91.71596974214286" fill="none"></path></g><g><path style="fill: none;" stroke="rgb(204, 51, 17)" stroke-width="2px" d="M115.20566654205322,267.2139133736222L138.24679985046387,162.7315136081396L161.28793315887452,143.14093460495135L184.32906646728514,109.67389100050518L207.3701997756958,94.98109752683426L230.41133308410645,92.53229861455578L253.45246639251707,88.45084195745143L276.49359970092775,81.9207740930289L299.53473300933837,74.57437735619344L322.57586631774905,75.39070622860639L345.61699962615967,74.57437735619344L368.6581329345703,76.20684739605899L391.69926624298097,72.94190731632789L414.7403995513916,77.83950514088487L437.7815328598022,72.94190731632789L460.8226661682129,70.49292069908908L483.8637994766235,69.67677953163648L506.90493278503413,68.86045065922353L529.9460660934449,71.30924957150204L552.9871994018555,70.49292069908908L576.0283327102661,70.49292069908908L599.0694660186767,71.30924957150204L622.1105993270875,70.49292069908908L645.1517326354981,68.0441217868106L668.1928659439087,69.67677953163648L691.2339992523193,68.0441217868106L714.2751325607301,69.67677953163648L737.3162658691406,69.67677953163648L760.3573991775513,69.67677953163648L783.3985324859619,69.67677953163648L806.4396657943726,69.67677953163648L829.4807991027832,69.67677953163648L852.5219324111939,69.67677953163648L875.5630657196044,69.67677953163648L898.6041990280152,69.67677953163648L921.6453323364258,69.67677953163648L944.6864656448364,69.67677953163648L967.727598953247,69.67677953163648L990.7687322616578,69.67677953163648L1013.8098655700683,69.67677953163648L1036.850998878479,69.67677953163648L1059.8921321868897,69.67677953163648L1082.9332654953002,69.67677953163648L1105.974398803711,69.67677953163648L1129.0155321121215,69.67677953163648L1152.0566654205322,69.67677953163648L1175.0977987289427,69.67677953163648L1198.1389320373535,69.67677953163648L1221.1800653457642,69.67677953163648L1244.221198654175,69.67677953163648" fill="none"></path></g><g><path style="fill: none;" stroke="rgb(255, 112, 67)" stroke-width="2px" d="M115.20566654205322,426.4733131832309L138.24679985046387,368.18529185639983L161.28793315887452,243.51390967424257L184.32906646728514,204.65541649464888L207.3701997756958,210.3222292465795L230.41133308410645,180.3686470893224L253.45246639251707,170.65397686818392L276.49359970092775,160.12992285816415L299.53473300933837,186.03564754621337L322.57586631774905,161.74887814088697L345.61699962615967,148.7961096493425L368.6581329345703,144.7482521801346L391.69926624298097,150.4152526370256L414.7403995513916,159.32035136432253L437.7815328598022,164.9871641162532L460.8226661682129,168.22545009161948L483.8637994766235,152.84377941359003L506.90493278503413,153.65335090743156L529.9460660934449,153.65335090743156L552.9871994018555,147.98653815550088L576.0283327102661,160.12992285816415L599.0694660186767,156.08206538895627L622.1105993270875,151.2248241308672L645.1517326354981,152.84377941359003L668.1928659439087,168.22545009161948L691.2339992523193,157.70120837663944L714.2751325607301,137.46229644052084L737.3162658691406,159.32035136432253L760.3573991775513,160.12992285816415L783.3985324859619,163.36802112857006L806.4396657943726,156.08206538895627L829.4807991027832,160.12992285816415L852.5219324111939,165.79673561009477L875.5630657196044,164.17759262241168L898.6041990280152,151.2248241308672L921.6453323364258,158.51077987048097L944.6864656448364,153.65335090743156L967.727598953247,160.93949435200568L990.7687322616578,161.74887814088697L1013.8098655700683,177.94012031275804L1036.850998878479,152.84377941359003L1059.8921321868897,149.60568114318403L1082.9332654953002,146.3673951678178L1105.974398803711,152.03439562470874L1129.0155321121215,155.27249389511474L1152.0566654205322,147.17696666165932L1175.0977987289427,167.41587859777792L1198.1389320373535,156.08206538895627L1221.1800653457642,152.03439562470874L1244.221198654175,162.5584496347285" fill="none"></path></g><g><path style="fill: none;" stroke="rgb(0, 153, 136)" stroke-width="2px" d="M115.20566654205322,397.32930251981537L138.24679985046387,281.5630190649551L161.28793315887452,235.41838244078724L184.32906646728514,181.17821858316395L207.3701997756958,165.79673561009477L230.41133308410645,173.08269134970863L253.45246639251707,158.51077987048097L276.49359970092775,132.6050551824317L299.53473300933837,139.89101092204555L322.57586631774905,129.36676920706543L345.61699962615967,143.1292968974118L368.6581329345703,134.22419817011485L391.69926624298097,138.27186793436238L414.7403995513916,144.7482521801346L437.7815328598022,149.60568114318403L460.8226661682129,126.93805472554074L483.8637994766235,133.41462667627331L506.90493278503413,151.2248241308672L529.9460660934449,143.93868068629308L552.9871994018555,127.7476262193823L576.0283327102661,147.98653815550088L599.0694660186767,139.08143942820394L622.1105993270875,136.65272494667923L645.1517326354981,133.41462667627331L668.1928659439087,135.84315345283767L691.2339992523193,138.27186793436238L714.2751325607301,135.84315345283767L737.3162658691406,148.7961096493425L760.3573991775513,132.6050551824317L783.3985324859619,135.0337696639564L806.4396657943726,131.79548368859014L829.4807991027832,135.0337696639564L852.5219324111939,148.7961096493425L875.5630657196044,125.31909944281792L898.6041990280152,137.46229644052084L921.6453323364258,142.31972540357026L944.6864656448364,149.60568114318403L967.727598953247,133.41462667627331L990.7687322616578,136.65272494667923L1013.8098655700683,135.0337696639564L1036.850998878479,140.70058241588708L1059.8921321868897,138.27186793436238L1082.9332654953002,135.0337696639564L1105.974398803711,129.36676920706543L1129.0155321121215,156.89163688279783L1152.0566654205322,138.27186793436238L1175.0977987289427,134.22419817011485L1198.1389320373535,132.6050551824317L1221.1800653457642,144.7482521801346L1244.221198654175,135.0337696639564" fill="none"></path></g><g><path style="fill: none;" stroke="rgb(0, 119, 187)" stroke-width="2px" d="M115.20566654205322,392.4720612617263L138.24679985046387,258.08600885843055L161.28793315887452,198.98841603775784L184.32906646728514,177.13054881891642L207.3701997756958,147.17696666165932L230.41133308410645,154.46292240127312L253.45246639251707,128.5571977132239L276.49359970092775,115.60442922167941L299.53473300933837,121.27124197361006L322.57586631774905,126.12867093665947L345.61699962615967,118.84252749208535L368.6581329345703,113.1757147401547L391.69926624298097,130.9859121947486L414.7403995513916,121.27124197361006L437.7815328598022,131.79548368859014L460.8226661682129,117.22357220936253L483.8637994766235,117.22357220936253L506.90493278503413,123.69995645513477L529.9460660934449,125.31909944281792L552.9871994018555,130.176340700907L576.0283327102661,117.22357220936253L599.0694660186767,118.03295599824379L622.1105993270875,117.22357220936253L645.1517326354981,116.41400071552097L668.1928659439087,120.4616704797685L691.2339992523193,126.93805472554074L714.2751325607301,122.08081346745165L737.3162658691406,122.89038496129321L760.3573991775513,132.6050551824317L783.3985324859619,119.65209898592694L806.4396657943726,115.60442922167941L829.4807991027832,116.41400071552097L852.5219324111939,121.27124197361006L875.5630657196044,124.50952794897636L898.6041990280152,115.60442922167941L921.6453323364258,130.9859121947486L944.6864656448364,134.22419817011485L967.727598953247,123.69995645513477L990.7687322616578,118.84252749208535L1013.8098655700683,134.22419817011485L1036.850998878479,122.08081346745165L1059.8921321868897,118.84252749208535L1082.9332654953002,122.08081346745165L1105.974398803711,131.79548368859014L1129.0155321121215,117.22357220936253L1152.0566654205322,118.84252749208535L1175.0977987289427,118.84252749208535L1198.1389320373535,121.27124197361006L1221.1800653457642,123.69995645513477L1244.221198654175,121.27124197361006" fill="none"></path></g></g></g></g></g></g><g transform="translate(51, 377)" clip-path="url(#clip_1)"><clipPath id="clip_1"><rect width="1382" height="22"></rect></clipPath><g><g><line x1="0" y1="0" x2="0" y2="5" style="visibility: inherit;" fill="rgb(0, 0, 0)" stroke="rgb(204, 204, 204)" stroke-width="1px"></line><line x1="115.20566654205322" y1="0" x2="115.20566654205322" y2="5" style="visibility: inherit;" fill="rgb(0, 0, 0)" stroke="rgb(204, 204, 204)" stroke-width="1px"></line><line x1="230.41133308410645" y1="0" x2="230.41133308410645" y2="5" style="visibility: inherit;" fill="rgb(0, 0, 0)" stroke="rgb(204, 204, 204)" stroke-width="1px"></line><line x1="345.61699962615967" y1="0" x2="345.61699962615967" y2="5" style="visibility: inherit;" fill="rgb(0, 0, 0)" stroke="rgb(204, 204, 204)" stroke-width="1px"></line><line x1="460.8226661682129" y1="0" x2="460.8226661682129" y2="5" style="visibility: inherit;" fill="rgb(0, 0, 0)" stroke="rgb(204, 204, 204)" stroke-width="1px"></line><line x1="576.0283327102661" y1="0" x2="576.0283327102661" y2="5" style="visibility: inherit;" fill="rgb(0, 0, 0)" stroke="rgb(204, 204, 204)" stroke-width="1px"></line><line x1="691.2339992523193" y1="0" x2="691.2339992523193" y2="5" style="visibility: inherit;" fill="rgb(0, 0, 0)" stroke="rgb(204, 204, 204)" stroke-width="1px"></line><line x1="806.4396657943726" y1="0" x2="806.4396657943726" y2="5" style="visibility: inherit;" fill="rgb(0, 0, 0)" stroke="rgb(204, 204, 204)" stroke-width="1px"></line><line x1="921.6453323364258" y1="0" x2="921.6453323364258" y2="5" style="visibility: inherit;" fill="rgb(0, 0, 0)" stroke="rgb(204, 204, 204)" stroke-width="1px"></line><line x1="1036.850998878479" y1="0" x2="1036.850998878479" y2="5" style="visibility: inherit;" fill="rgb(0, 0, 0)" stroke="rgb(204, 204, 204)" stroke-width="1px"></line><line x1="1152.0566654205322" y1="0" x2="1152.0566654205322" y2="5" style="visibility: inherit;" fill="rgb(0, 0, 0)" stroke="rgb(204, 204, 204)" stroke-width="1px"></line><line x1="1267.2623319625854" y1="0" x2="1267.2623319625854" y2="5" style="visibility: inherit;" fill="rgb(0, 0, 0)" stroke="rgb(204, 204, 204)" stroke-width="1px"></line><line x1="1382.4679985046387" y1="0" x2="1382.4679985046387" y2="5" style="visibility: inherit;" fill="rgb(0, 0, 0)" stroke="rgb(204, 204, 204)" stroke-width="1px"></line></g><g transform="translate(0, 8)"><text style="text-anchor: middle; visibility: hidden; font-family: Roboto, sans-serif; font-size: 12px; font-weight: 200;" x="0" y="0" dx="0em" dy="0.95em" fill="rgb(50, 49, 63)" stroke="none" stroke-width="1px">-5</text><text style="text-anchor: middle; visibility: inherit; font-family: Roboto, sans-serif; font-size: 12px; font-weight: 200;" x="115.20566654205322" y="0" dx="0em" dy="0.95em" fill="rgb(50, 49, 63)" stroke="none" stroke-width="1px">0</text><text style="text-anchor: middle; visibility: inherit; font-family: Roboto, sans-serif; font-size: 12px; font-weight: 200;" x="230.41133308410645" y="0" dx="0em" dy="0.95em" fill="rgb(50, 49, 63)" stroke="none" stroke-width="1px">5</text><text style="text-anchor: middle; visibility: inherit; font-family: Roboto, sans-serif; font-size: 12px; font-weight: 200;" x="345.61699962615967" y="0" dx="0em" dy="0.95em" fill="rgb(50, 49, 63)" stroke="none" stroke-width="1px">10</text><text style="text-anchor: middle; visibility: inherit; font-family: Roboto, sans-serif; font-size: 12px; font-weight: 200;" x="460.8226661682129" y="0" dx="0em" dy="0.95em" fill="rgb(50, 49, 63)" stroke="none" stroke-width="1px">15</text><text style="text-anchor: middle; visibility: inherit; font-family: Roboto, sans-serif; font-size: 12px; font-weight: 200;" x="576.0283327102661" y="0" dx="0em" dy="0.95em" fill="rgb(50, 49, 63)" stroke="none" stroke-width="1px">20</text><text style="text-anchor: middle; visibility: inherit; font-family: Roboto, sans-serif; font-size: 12px; font-weight: 200;" x="691.2339992523193" y="0" dx="0em" dy="0.95em" fill="rgb(50, 49, 63)" stroke="none" stroke-width="1px">25</text><text style="text-anchor: middle; visibility: inherit; font-family: Roboto, sans-serif; font-size: 12px; font-weight: 200;" x="806.4396657943726" y="0" dx="0em" dy="0.95em" fill="rgb(50, 49, 63)" stroke="none" stroke-width="1px">30</text><text style="text-anchor: middle; visibility: inherit; font-family: Roboto, sans-serif; font-size: 12px; font-weight: 200;" x="921.6453323364258" y="0" dx="0em" dy="0.95em" fill="rgb(50, 49, 63)" stroke="none" stroke-width="1px">35</text><text style="text-anchor: middle; visibility: inherit; font-family: Roboto, sans-serif; font-size: 12px; font-weight: 200;" x="1036.850998878479" y="0" dx="0em" dy="0.95em" fill="rgb(50, 49, 63)" stroke="none" stroke-width="1px">40</text><text style="text-anchor: middle; visibility: inherit; font-family: Roboto, sans-serif; font-size: 12px; font-weight: 200;" x="1152.0566654205322" y="0" dx="0em" dy="0.95em" fill="rgb(50, 49, 63)" stroke="none" stroke-width="1px">45</text><text style="text-anchor: middle; visibility: inherit; font-family: Roboto, sans-serif; font-size: 12px; font-weight: 200;" x="1267.2623319625854" y="0" dx="0em" dy="0.95em" fill="rgb(50, 49, 63)" stroke="none" stroke-width="1px">50</text><text style="text-anchor: middle; visibility: hidden; font-family: Roboto, sans-serif; font-size: 12px; font-weight: 200;" x="1382.4679985046387" y="0" dx="0em" dy="0.95em" fill="rgb(50, 49, 63)" stroke="none" stroke-width="1px">55</text></g><line x1="0" y1="0" x2="1382.4679985046387" y2="0" fill="rgb(0, 0, 0)" stroke="rgb(204, 204, 204)" stroke-width="1px"></line></g></g></g></g></svg>