<svg viewBox="0 0 1434 400" xmlns="http://www.w3.org/2000/svg"><g><g><g><g><g><line x1="51.53200149536133" y1="377.8999996185303" x2="46.53200149536133" y2="377.8999996185303" style="visibility: inherit;" fill="rgb(0, 0, 0)" stroke="rgb(204, 204, 204)" stroke-width="1px"></line><line x1="51.53200149536133" y1="323.9142853873117" x2="46.53200149536133" y2="323.9142853873117" style="visibility: inherit;" fill="rgb(0, 0, 0)" stroke="rgb(204, 204, 204)" stroke-width="1px"></line><line x1="51.53200149536133" y1="269.9285711560931" x2="46.53200149536133" y2="269.9285711560931" style="visibility: inherit;" fill="rgb(0, 0, 0)" stroke="rgb(204, 204, 204)" stroke-width="1px"></line><line x1="51.53200149536133" y1="215.94285692487443" x2="46.53200149536133" y2="215.94285692487443" style="visibility: inherit;" fill="rgb(0, 0, 0)" stroke="rgb(204, 204, 204)" stroke-width="1px"></line><line x1="51.53200149536133" y1="161.95714269365584" x2="46.53200149536133" y2="161.95714269365584" style="visibility: inherit;" fill="rgb(0, 0, 0)" stroke="rgb(204, 204, 204)" stroke-width="1px"></line><line x1="51.53200149536133" y1="107.97142846243722" x2="46.53200149536133" y2="107.97142846243722" style="visibility: inherit;" fill="rgb(0, 0, 0)" stroke="rgb(204, 204, 204)" stroke-width="1px"></line><line x1="51.53200149536133" y1="53.98571423121863" x2="46.53200149536133" y2="53.98571423121863" style="visibility: inherit;" fill="rgb(0, 0, 0)" stroke="rgb(204, 204, 204)" stroke-width="1px"></line><line x1="51.53200149536133" y1="0" x2="46.53200149536133" y2="0" style="visibility: inherit;" fill="rgb(0, 0, 0)" stroke="rgb(204, 204, 204)" stroke-width="1px"></line></g><g transform="translate(41.53200149536133, 0)"><text style="text-anchor: end; visibility: hidden; font-family: Roboto, sans-serif; font-size: 12px; font-weight: 200;" x="0" y="377.8999996185303" dx="0em" dy="0.3em" fill="rgb(50, 49, 63)" stroke="none" stroke-width="1px">-0.5</text><text style="text-anchor: end; visibility: inherit; font-family: Roboto, sans-serif; font-size: 12px; font-weight: 200;" x="0" y="323.9142853873117" dx="0em" dy="0.3em" fill="rgb(50, 49, 63)" stroke="none" stroke-width="1px">0</text><text style="text-anchor: end; visibility: inherit; font-family: Roboto, sans-serif; font-size: 12px; font-weight: 200;" x="0" y="269.9285711560931" dx="0em" dy="0.3em" fill="rgb(50, 49, 63)" stroke="none" stroke-width="1px">0.5</text><text style="text-anchor: end; visibility: inherit; font-family: Roboto, sans-serif; font-size: 12px; font-weight: 200;" x="0" y="215.94285692487443" dx="0em" dy="0.3em" fill="rgb(50, 49, 63)" stroke="none" stroke-width="1px">1</text><text style="text-anchor: end; visibility: inherit; font-family: Roboto, sans-serif; font-size: 12px; font-weight: 200;" x="0" y="161.95714269365584" dx="0em" dy="0.3em" fill="rgb(50, 49, 63)" stroke="none" stroke-width="1px">1.5</text><text style="text-anchor: end; visibility: inherit; font-family: Roboto, sans-serif; font-size: 12px; font-weight: 200;" x="0" y="107.97142846243722" dx="0em" dy="0.3em" fill="rgb(50, 49, 63)" stroke="none" stroke-width="1px">2</text><text style="text-anchor: end; visibility: inherit; font-family: Roboto, sans-serif; font-size: 12px; font-weight: 200;" x="0" y="53.98571423121863" dx="0em" dy="0.3em" fill="rgb(50, 49, 63)" stroke="none" stroke-width="1px">2.5</text><text style="text-anchor: end; visibility: hidden; font-family: Roboto, sans-serif; font-size: 12px; font-weight: 200;" x="0" y="0" dx="0em" dy="0.3em" fill="rgb(50, 49, 63)" stroke="none" stroke-width="1px">3</text></g><line x1="51.53200149536133" y1="0" x2="51.53200149536133" y2="377.8999996185303" fill="rgb(0, 0, 0)" stroke="rgb(204, 204, 204)" stroke-width="1px"></line></g></g><g transform="translate(51, 0)" clip-path="url(#clip_0)"><clipPath id="clip_0"><rect width="1382" height="377"></rect></clipPath><g><g><g><line x1="0" y1="0" x2="0" y2="377.8999996185303" fill="rgb(0, 0, 0)" stroke="rgb(60, 60, 60)" stroke-width="1px" opacity="0.25"></line><line x1="115.20566654205322" y1="0" x2="115.20566654205322" y2="377.8999996185303" fill="rgb(0, 0, 0)" stroke="rgb(60, 60, 60)" stroke-width="1px" opacity="0.25"></line><line x1="230.41133308410645" y1="0" x2="230.41133308410645" y2="377.8999996185303" fill="rgb(0, 0, 0)" stroke="rgb(60, 60, 60)" stroke-width="1px" opacity="0.25"></line><line x1="345.61699962615967" y1="0" x2="345.61699962615967" y2="377.8999996185303" fill="rgb(0, 0, 0)" stroke="rgb(60, 60, 60)" stroke-width="1px" opacity="0.25"></line><line x1="460.8226661682129" y1="0" x2="460.8226661682129" y2="377.8999996185303" fill="rgb(0, 0, 0)" stroke="rgb(60, 60, 60)" stroke-width="1px" opacity="0.25"></line><line x1="576.0283327102661" y1="0" x2="576.0283327102661" y2="377.8999996185303" fill="rgb(0, 0, 0)" stroke="rgb(60, 60, 60)" stroke-width="1px" opacity="0.25"></line><line x1="691.2339992523193" y1="0" x2="691.2339992523193" y2="377.8999996185303" fill="rgb(0, 0, 0)" stroke="rgb(60, 60, 60)" stroke-width="1px" opacity="0.25"></line><line x1="806.4396657943726" y1="0" x2="806.4396657943726" y2="377.8999996185303" fill="rgb(0, 0, 0)" stroke="rgb(60, 60, 60)" stroke-width="1px" opacity="0.25"></line><line x1="921.6453323364258" y1="0" x2="921.6453323364258" y2="377.8999996185303" fill="rgb(0, 0, 0)" stroke="rgb(60, 60, 60)" stroke-width="1px" opacity="0.25"></line><line x1="1036.850998878479" y1="0" x2="1036.850998878479" y2="377.8999996185303" fill="rgb(0, 0, 0)" stroke="rgb(60, 60, 60)" stroke-width="1px" opacity="0.25"></line><line x1="1152.0566654205322" y1="0" x2="1152.0566654205322" y2="377.8999996185303" fill="rgb(0, 0, 0)" stroke="rgb(60, 60, 60)" stroke-width="1px" opacity="0.25"></line><line x1="1267.2623319625854" y1="0" x2="1267.2623319625854" y2="377.8999996185303" fill="rgb(0, 0, 0)" stroke="rgb(60, 60, 60)" stroke-width="1px" opacity="0.25"></line><line x1="1382.4679985046387" y1="0" x2="1382.4679985046387" y2="377.8999996185303" fill="rgb(0, 0, 0)" stroke="rgb(60, 60, 60)" stroke-width="1px" opacity="0.25"></line></g><g><line x1="0" y1="377.8999996185303" x2="1382.4679985046387" y2="377.8999996185303" fill="rgb(0, 0, 0)" stroke="rgb(60, 60, 60)" stroke-width="1px" opacity="0.25"></line><line x1="0" y1="323.9142853873117" x2="1382.4679985046387" y2="323.9142853873117" fill="rgb(0, 0, 0)" stroke="rgb(60, 60, 60)" stroke-width="1px" opacity="0.25"></line><line x1="0" y1="269.9285711560931" x2="1382.4679985046387" y2="269.9285711560931" fill="rgb(0, 0, 0)" stroke="rgb(60, 60, 60)" stroke-width="1px" opacity="0.25"></line><line x1="0" y1="215.94285692487443" x2="1382.4679985046387" y2="215.94285692487443" fill="rgb(0, 0, 0)" stroke="rgb(60, 60, 60)" stroke-width="1px" opacity="0.25"></line><line x1="0" y1="161.95714269365584" x2="1382.4679985046387" y2="161.95714269365584" fill="rgb(0, 0, 0)" stroke="rgb(60, 60, 60)" stroke-width="1px" opacity="0.25"></line><line x1="0" y1="107.97142846243722" x2="1382.4679985046387" y2="107.97142846243722" fill="rgb(0, 0, 0)" stroke="rgb(60, 60, 60)" stroke-width="1px" opacity="0.25"></line><line x1="0" y1="53.98571423121863" x2="1382.4679985046387" y2="53.98571423121863" fill="rgb(0, 0, 0)" stroke="rgb(60, 60, 60)" stroke-width="1px" opacity="0.25"></line><line x1="0" y1="0" x2="1382.4679985046387" y2="0" fill="rgb(0, 0, 0)" stroke="rgb(60, 60, 60)" stroke-width="1px" opacity="0.25"></line></g></g></g><g><g><line x1="0" y1="323.9142853873117" x2="1382.4679985046387" y2="323.9142853873117" fill="rgb(0, 0, 0)" stroke="rgb(153, 153, 153)" stroke-width="1.5px"></line></g></g><g><g><line x1="115.20566654205322" y1="0" x2="115.20566654205322" y2="377.8999996185303" fill="rgb(0, 0, 0)" stroke="rgb(153, 153, 153)" stroke-width="1.5px"></line></g></g><g><g><g><g><g><path style="fill: none;" stroke="rgb(0, 119, 187)" stroke-width="2px" d="M115.20566654205322,110.16274979915124L138.24679985046387,188.29126480373392L161.28793315887452,227.7269914950898L184.32906646728514,237.34173081315555L207.3701997756958,249.4054020458717L230.41133308410645,250.76274059050513L253.45246639251707,253.02401044883075L276.49359970092775,255.27279524579592L299.53473300933837,255.01458615718613L322.57586631774905,255.14420554938218L345.61699962615967,255.1679593439602L368.6581329345703,255.40917201656336L391.69926624298097,255.2515835126805L414.7403995513916,255.2493954091431L437.7815328598022,255.2178995894019L460.8226661682129,255.22192827415017L483.8637994766235,255.20088386659933L506.90493278503413,255.20442988144964L529.9460660934449,255.19784626404154L552.9871994018555,255.19789774883066L576.0283327102661,255.2010704989599L599.0694660186767,255.19971258764696L622.1105993270875,255.1989660582048L645.1517326354981,255.1987858614429L668.1928659439087,255.19930070933404L691.2339992523193,255.19924922454493L714.2751325607301,255.19938437211636L737.3162658691406,255.19939724331363L760.3573991775513,255.19943585690547L783.3985324859619,255.1994036789123L806.4396657943726,255.1994101145109L829.4807991027832,255.19942942130683L852.5219324111939,255.1994229857082L875.5630657196044,255.1994229857082L898.6041990280152,255.1994229857082L921.6453323364258,255.1994229857082L944.6864656448364,255.1994229857082L967.727598953247,255.1994229857082L990.7687322616578,255.1994229857082L1013.8098655700683,255.1994229857082L1036.850998878479,255.1994229857082L1059.8921321868897,255.1994229857082L1082.9332654953002,255.1994229857082L1105.974398803711,255.1994229857082L1129.0155321121215,255.1994229857082L1152.0566654205322,255.1994229857082L1175.0977987289427,255.1994229857082L1198.1389320373535,255.1994229857082L1221.1800653457642,255.1994229857082L1244.221198654175,255.1994229857082" fill="none"></path></g><g><path style="fill: none;" stroke="rgb(0, 119, 187)" stroke-width="2px" d="M115.20566654205322,277.65905085532626L138.24679985046387,287.34276691960906L161.28793315887452,292.63052183907956L184.32906646728514,292.6735599049805L207.3701997756958,295.36105946119324L230.41133308410645,295.1945447819976L253.45246639251707,295.7080862466254L276.49359970092775,296.5760683063179L299.53473300933837,296.62538751649083L322.57586631774905,296.6844534408032L345.61699962615967,296.9022051385665L368.6581329345703,297.08125314611243L391.69926624298097,296.88256369151907L414.7403995513916,297.07697990861584L437.7815328598022,297.15255797013725L460.8226661682129,297.1188129086716L483.8637994766235,297.0661520139051L506.90493278503413,297.1035122729064L529.9460660934449,297.1241142330508L552.9871994018555,297.13139933071056L576.0283327102661,297.1793316693768L599.0694660186767,297.1559060903294L622.1105993270875,297.154744464775L645.1517326354981,297.1591866367358L668.1928659439087,297.17108284082076L691.2339992523193,297.16975067190236L714.2751325607301,297.1751099166694L737.3162658691406,297.1746545980656L760.3573991775513,297.1737857922493L783.3985324859619,297.1736474268785L806.4396657943726,297.17459667767787L829.4807991027832,297.17332082024757L852.5219324111939,297.17282688805204L875.5630657196044,297.1722846888666L898.6041990280152,297.1722589464721L921.6453323364258,297.1725517662102L944.6864656448364,297.17239248514386L967.727598953247,297.1724906280231L990.7687322616578,297.1726901315809L1013.8098655700683,297.172746443069L1036.850998878479,297.1728204524534L1059.8921321868897,297.17285423934624L1082.9332654953002,297.17288319954014L1105.974398803711,297.1728751550418L1129.0155321121215,297.17289767963706L1152.0566654205322,297.17288641733944L1175.0977987289427,297.1728848084398L1198.1389320373535,297.17288963513874L1221.1800653457642,297.17288963513874L1244.221198654175,297.17289124403845" fill="none"></path></g><g><path style="fill: none;" stroke="rgb(238, 51, 119)" stroke-width="2px" d="M115.20566654205322,276.0500417903006L138.24679985046387,285.07661565971546L161.28793315887452,289.5419750824557L184.32906646728514,292.35954774056853L207.3701997756958,295.6158383757283L230.41133308410645,295.7991177893796L253.45246639251707,295.94818877846325L276.49359970092775,296.83551946546504L299.53473300933837,297.29638877302875L322.57586631774905,296.90481155601543L345.61699962615967,297.2069323430415L368.6581329345703,296.9086278660086L391.69926624298097,296.62514939934124L414.7403995513916,297.00200035776794L437.7815328598022,297.04669398141885L460.8226661682129,297.5110787347393L483.8637994766235,297.4197270209528L506.90493278503413,297.01476536766916L529.9460660934449,297.3492330823565L552.9871994018555,297.2951788804845L576.0283327102661,297.69309516215765L599.0694660186767,297.0371805577302L622.1105993270875,297.5005227440711L645.1517326354981,297.521689427996L668.1928659439087,297.72437538934446L691.2339992523193,297.5554264449634L714.2751325607301,297.4410706838403L737.3162658691406,296.7825770132581L760.3573991775513,297.83224728483833L783.3985324859619,297.7233762626557L806.4396657943726,296.911208541063L829.4807991027832,296.9162090012058L852.5219324111939,297.3828928721402L875.5630657196044,297.232069791327L898.6041990280152,297.1030810877976L921.6453323364258,297.43440340364987L944.6864656448364,297.78162486594084L967.727598953247,297.39020049439523L990.7687322616578,297.05913399358883L1013.8098655700683,297.7476143360313L1036.850998878479,297.2848304378724L1059.8921321868897,297.39489687250233L1082.9332654953002,297.2277305889444L1105.974398803711,297.2050322325432L1129.0155321121215,297.14571371098424L1152.0566654205322,297.3667234305587L1175.0977987289427,297.51317030429715L1198.1389320373535,297.48373226722083L1221.1800653457642,297.0288561108901L1244.221198654175,297.53294046331735" fill="none"></path></g><g><path style="fill: none;" stroke="rgb(204, 51, 17)" stroke-width="2px" d="M115.20566654205322,280.8597507894389L138.24679985046387,291.03472505806064L161.28793315887452,292.26481894639596L184.32906646728514,295.11975990800846L207.3701997756958,296.76374966943854L230.41133308410645,297.17361524888537L253.45246639251707,297.9083659366454L276.49359970092775,297.55021843676445L299.53473300933837,297.80732060240825L322.57586631774905,297.8568119648449L345.61699962615967,298.2621935409397L368.6581329345703,298.1610275392281L391.69926624298097,298.28735994941906L414.7403995513916,298.2535585764653L437.7815328598022,298.3003888188645L460.8226661682129,298.26164329725606L483.8637994766235,298.31199220321133L506.90493278503413,298.38111535929744L529.9460660934449,298.37689521548964L552.9871994018555,298.35141185377734L576.0283327102661,298.3352585011924L599.0694660186767,298.3390345886941L622.1105993270875,298.343542725541L645.1517326354981,298.3345538031414L668.1928659439087,298.3270595485258L691.2339992523193,298.32962413458364L714.2751325607301,298.3244000373881L737.3162658691406,298.32639346406665L760.3573991775513,298.3253106745956L783.3985324859619,298.32555200954454L806.4396657943726,298.32574668640336L829.4807991027832,298.3249921124629L852.5219324111939,298.3253380258898L875.5630657196044,298.32534767928774L898.6041990280152,298.3254763912605L921.6453323364258,298.3258094334901L944.6864656448364,298.32579656229285L967.727598953247,298.3260604218371L990.7687322616578,298.32610386212787L1013.8098655700683,298.32609742652926L1036.850998878479,298.32613925792043L1059.8921321868897,298.3261794804119L1082.9332654953002,298.3261875249102L1105.974398803711,298.32620522280644L1129.0155321121215,298.32619878720783L1152.0566654205322,298.32619878720783L1175.0977987289427,298.3261971783081L1198.1389320373535,298.3261939605088L1221.1800653457642,298.3261939605088L1244.221198654175,298.3261955694085" fill="none"></path></g><g><path style="fill: none;" stroke="rgb(255, 112, 67)" stroke-width="2px" d="M115.20566654205322,80.9776703630184L138.24679985046387,142.4070167909151L161.28793315887452,191.7392268731708L184.32906646728514,221.266152437831L207.3701997756958,222.06624536747654L230.41133308410645,229.90962477364064L253.45246639251707,231.9869266092605L276.49359970092775,235.89119192902638L299.53473300933837,234.66858264190867L322.57586631774905,235.9694101948896L345.61699962615967,240.36240774652845L368.6581329345703,241.67364166250925L391.69926624298097,240.5991283712813L414.7403995513916,234.88171679764815L437.7815328598022,235.77101356003433L460.8226661682129,235.75642405791882L483.8637994766235,237.4001403064067L506.90493278503413,241.9456100610101L529.9460660934449,240.74738525713704L552.9871994018555,241.80325461910667L576.0283327102661,237.81199931253207L599.0694660186767,236.25103842694818L622.1105993270875,236.78445302017442L645.1517326354981,239.38370764784378L668.1928659439087,235.17277318171344L691.2339992523193,240.50683545119375L714.2751325607301,244.86513225496896L737.3162658691406,237.83803130902845L760.3573991775513,238.05949312940731L783.3985324859619,234.59188317732435L806.4396657943726,238.47921643707002L829.4807991027832,239.09397699709822L852.5219324111939,237.14092082881052L875.5630657196044,236.65852122599875L898.6041990280152,240.47114362113965L921.6453323364258,236.57089411492473L944.6864656448364,237.90743280475567L967.727598953247,238.9281959761474L990.7687322616578,236.00064215508658L1013.8098655700683,233.8403983242022L1036.850998878479,238.26561248262985L1059.8921321868897,245.03577858849116L1082.9332654953002,241.37782937104947L1105.974398803711,239.97587282104908L1129.0155321121215,235.3597337577865L1152.0566654205322,242.4667133540392L1175.0977987289427,234.19948542148452L1198.1389320373535,234.6289908390791L1221.1800653457642,238.129654025774L1244.221198654175,239.0484258299286" fill="none"></path></g><g><path style="fill: none;" stroke="rgb(0, 153, 136)" stroke-width="2px" d="M115.20566654205322,89.21680690751211L138.24679985046387,170.98906776333934L161.28793315887452,196.3589827428687L184.32906646728514,223.18939891322105L207.3701997756958,229.101931402002L230.41133308410645,224.88156878386496L253.45246639251707,234.72792529696255L276.49359970092775,243.26134246043986L299.53473300933837,239.01305577980645L322.57586631774905,239.25720952098783L345.61699962615967,237.73766171264845L368.6581329345703,239.55302181244764L391.69926624298097,236.57330102881588L414.7403995513916,235.36889161465035L437.7815328598022,242.2796047591974L460.8226661682129,244.55476907498547L483.8637994766235,235.4228541092417L506.90493278503413,241.26024454830906L529.9460660934449,239.7035182866299L552.9871994018555,240.27490291182858L576.0283327102661,237.32790714727815L599.0694660186767,239.53827142036613L622.1105993270875,239.38339230351045L645.1517326354981,236.46415971149037L668.1928659439087,239.30897104084448L691.2339992523193,240.3329133979641L714.2751325607301,240.11519066039472L737.3162658691406,237.25194777653735L760.3573991775513,241.1278127995076L783.3985324859619,241.57358741046258L806.4396657943726,240.41675637703813L829.4807991027832,241.16193434349367L852.5219324111939,236.96047951415915L875.5630657196044,242.87370061199454L898.6041990280152,242.9147983449057L921.6453323364258,236.91383429522082L944.6864656448364,236.6865933072638L967.727598953247,242.9167225888989L990.7687322616578,238.2313300486778L1013.8098655700683,239.04970007845918L1036.850998878479,239.5736157280937L1059.8921321868897,241.66340906067262L1082.9332654953002,241.93842793292853L1105.974398803711,242.86935014731432L1129.0155321121215,237.0280661710701L1152.0566654205322,236.60737108801283L1175.0977987289427,242.11023910980447L1198.1389320373535,243.35605516561583L1221.1800653457642,236.79256187446006L1244.221198654175,236.65533560467225" fill="none"></path></g><g><path style="fill: none;" stroke="rgb(0, 119, 187)" stroke-width="2px" d="M115.20566654205322,83.58560661325231L138.24679985046387,177.61859673213394L161.28793315887452,213.40303505063991L184.32906646728514,221.3331277128712L207.3701997756958,226.87605090059444L230.41133308410645,228.2669446565337L253.45246639251707,231.76641725748027L276.49359970092775,234.37304708119038L299.53473300933837,235.26384333805953L322.57586631774905,233.58899809895286L345.61699962615967,237.10083992048436L368.6581329345703,237.80761023426L391.69926624298097,233.36154473624072L414.7403995513916,239.5870918716446L437.7815328598022,232.80687336070855L460.8226661682129,237.96875118859182L483.8637994766235,238.74875217928513L506.90493278503413,235.14164419109468L529.9460660934449,234.92388283993347L552.9871994018555,232.4539258245282L576.0283327102661,239.90015156745795L599.0694660186767,238.79497908431193L622.1105993270875,238.38396957720695L645.1517326354981,238.8038602104343L668.1928659439087,236.69192841853584L691.2339992523193,233.7069368796184L714.2751325607301,238.83955204048837L737.3162658691406,237.84913915228003L760.3573991775513,236.35787579996077L783.3985324859619,237.72907018846485L806.4396657943726,240.9714599305635L829.4807991027832,239.35415537889168L852.5219324111939,235.88267763202646L875.5630657196044,237.03607205577748L898.6041990280152,237.06420849302893L921.6453323364258,234.87361437896118L944.6864656448364,235.1548178615095L967.727598953247,238.69234415721087L990.7687322616578,239.9175405549816L1013.8098655700683,232.62000288301644L1036.850998878479,238.33719564629584L1059.8921321868897,237.51316228971177L1082.9332654953002,236.85154413599014L1105.974398803711,235.54268495590725L1129.0155321121215,238.55344463177678L1152.0566654205322,241.1323692033443L1175.0977987289427,238.95618439463013L1198.1389320373535,237.28677080077512L1221.1800653457642,238.7751896184958L1244.221198654175,236.39554979439578" fill="none"></path></g></g></g></g></g></g><g transform="translate(51, 377)" clip-path="url(#clip_1)"><clipPath id="clip_1"><rect width="1382" height="22"></rect></clipPath><g><g><line x1="0" y1="0" x2="0" y2="5" style="visibility: inherit;" fill="rgb(0, 0, 0)" stroke="rgb(204, 204, 204)" stroke-width="1px"></line><line x1="115.20566654205322" y1="0" x2="115.20566654205322" y2="5" style="visibility: inherit;" fill="rgb(0, 0, 0)" stroke="rgb(204, 204, 204)" stroke-width="1px"></line><line x1="230.41133308410645" y1="0" x2="230.41133308410645" y2="5" style="visibility: inherit;" fill="rgb(0, 0, 0)" stroke="rgb(204, 204, 204)" stroke-width="1px"></line><line x1="345.61699962615967" y1="0" x2="345.61699962615967" y2="5" style="visibility: inherit;" fill="rgb(0, 0, 0)" stroke="rgb(204, 204, 204)" stroke-width="1px"></line><line x1="460.8226661682129" y1="0" x2="460.8226661682129" y2="5" style="visibility: inherit;" fill="rgb(0, 0, 0)" stroke="rgb(204, 204, 204)" stroke-width="1px"></line><line x1="576.0283327102661" y1="0" x2="576.0283327102661" y2="5" style="visibility: inherit;" fill="rgb(0, 0, 0)" stroke="rgb(204, 204, 204)" stroke-width="1px"></line><line x1="691.2339992523193" y1="0" x2="691.2339992523193" y2="5" style="visibility: inherit;" fill="rgb(0, 0, 0)" stroke="rgb(204, 204, 204)" stroke-width="1px"></line><line x1="806.4396657943726" y1="0" x2="806.4396657943726" y2="5" style="visibility: inherit;" fill="rgb(0, 0, 0)" stroke="rgb(204, 204, 204)" stroke-width="1px"></line><line x1="921.6453323364258" y1="0" x2="921.6453323364258" y2="5" style="visibility: inherit;" fill="rgb(0, 0, 0)" stroke="rgb(204, 204, 204)" stroke-width="1px"></line><line x1="1036.850998878479" y1="0" x2="1036.850998878479" y2="5" style="visibility: inherit;" fill="rgb(0, 0, 0)" stroke="rgb(204, 204, 204)" stroke-width="1px"></line><line x1="1152.0566654205322" y1="0" x2="1152.0566654205322" y2="5" style="visibility: inherit;" fill="rgb(0, 0, 0)" stroke="rgb(204, 204, 204)" stroke-width="1px"></line><line x1="1267.2623319625854" y1="0" x2="1267.2623319625854" y2="5" style="visibility: inherit;" fill="rgb(0, 0, 0)" stroke="rgb(204, 204, 204)" stroke-width="1px"></line><line x1="1382.4679985046387" y1="0" x2="1382.4679985046387" y2="5" style="visibility: inherit;" fill="rgb(0, 0, 0)" stroke="rgb(204, 204, 204)" stroke-width="1px"></line></g><g transform="translate(0, 8)"><text style="text-anchor: middle; visibility: hidden; font-family: Roboto, sans-serif; font-size: 12px; font-weight: 200;" x="0" y="0" dx="0em" dy="0.95em" fill="rgb(50, 49, 63)" stroke="none" stroke-width="1px">-5</text><text style="text-anchor: middle; visibility: inherit; font-family: Roboto, sans-serif; font-size: 12px; font-weight: 200;" x="115.20566654205322" y="0" dx="0em" dy="0.95em" fill="rgb(50, 49, 63)" stroke="none" stroke-width="1px">0</text><text style="text-anchor: middle; visibility: inherit; font-family: Roboto, sans-serif; font-size: 12px; font-weight: 200;" x="230.41133308410645" y="0" dx="0em" dy="0.95em" fill="rgb(50, 49, 63)" stroke="none" stroke-width="1px">5</text><text style="text-anchor: middle; visibility: inherit; font-family: Roboto, sans-serif; font-size: 12px; font-weight: 200;" x="345.61699962615967" y="0" dx="0em" dy="0.95em" fill="rgb(50, 49, 63)" stroke="none" stroke-width="1px">10</text><text style="text-anchor: middle; visibility: inherit; font-family: Roboto, sans-serif; font-size: 12px; font-weight: 200;" x="460.8226661682129" y="0" dx="0em" dy="0.95em" fill="rgb(50, 49, 63)" stroke="none" stroke-width="1px">15</text><text style="text-anchor: middle; visibility: inherit; font-family: Roboto, sans-serif; font-size: 12px; font-weight: 200;" x="576.0283327102661" y="0" dx="0em" dy="0.95em" fill="rgb(50, 49, 63)" stroke="none" stroke-width="1px">20</text><text style="text-anchor: middle; visibility: inherit; font-family: Roboto, sans-serif; font-size: 12px; font-weight: 200;" x="691.2339992523193" y="0" dx="0em" dy="0.95em" fill="rgb(50, 49, 63)" stroke="none" stroke-width="1px">25</text><text style="text-anchor: middle; visibility: inherit; font-family: Roboto, sans-serif; font-size: 12px; font-weight: 200;" x="806.4396657943726" y="0" dx="0em" dy="0.95em" fill="rgb(50, 49, 63)" stroke="none" stroke-width="1px">30</text><text style="text-anchor: middle; visibility: inherit; font-family: Roboto, sans-serif; font-size: 12px; font-weight: 200;" x="921.6453323364258" y="0" dx="0em" dy="0.95em" fill="rgb(50, 49, 63)" stroke="none" stroke-width="1px">35</text><text style="text-anchor: middle; visibility: inherit; font-family: Roboto, sans-serif; font-size: 12px; font-weight: 200;" x="1036.850998878479" y="0" dx="0em" dy="0.95em" fill="rgb(50, 49, 63)" stroke="none" stroke-width="1px">40</text><text style="text-anchor: middle; visibility: inherit; font-family: Roboto, sans-serif; font-size: 12px; font-weight: 200;" x="1152.0566654205322" y="0" dx="0em" dy="0.95em" fill="rgb(50, 49, 63)" stroke="none" stroke-width="1px">45</text><text style="text-anchor: middle; visibility: inherit; font-family: Roboto, sans-serif; font-size: 12px; font-weight: 200;" x="1267.2623319625854" y="0" dx="0em" dy="0.95em" fill="rgb(50, 49, 63)" stroke="none" stroke-width="1px">50</text><text style="text-anchor: middle; visibility: hidden; font-family: Roboto, sans-serif; font-size: 12px; font-weight: 200;" x="1382.4679985046387" y="0" dx="0em" dy="0.95em" fill="rgb(50, 49, 63)" stroke="none" stroke-width="1px">55</text></g><line x1="0" y1="0" x2="1382.4679985046387" y2="0" fill="rgb(0, 0, 0)" stroke="rgb(204, 204, 204)" stroke-width="1px"></line></g></g></g></g></svg>