<svg viewBox="0 0 1434 400" xmlns="http://www.w3.org/2000/svg"><g><g><g><g><g><line x1="51.53200149536133" y1="377.8999996185303" x2="46.53200149536133" y2="377.8999996185303" style="visibility: inherit;" fill="rgb(0, 0, 0)" stroke="rgb(204, 204, 204)" stroke-width="1px"></line><line x1="51.53200149536133" y1="348.8307688786433" x2="46.53200149536133" y2="348.8307688786433" style="visibility: inherit;" fill="rgb(0, 0, 0)" stroke="rgb(204, 204, 204)" stroke-width="1px"></line><line x1="51.53200149536133" y1="319.76153813875635" x2="46.53200149536133" y2="319.76153813875635" style="visibility: inherit;" fill="rgb(0, 0, 0)" stroke="rgb(204, 204, 204)" stroke-width="1px"></line><line x1="51.53200149536133" y1="290.6923073988697" x2="46.53200149536133" y2="290.6923073988697" style="visibility: inherit;" fill="rgb(0, 0, 0)" stroke="rgb(204, 204, 204)" stroke-width="1px"></line><line x1="51.53200149536133" y1="261.62307665898277" x2="46.53200149536133" y2="261.62307665898277" style="visibility: inherit;" fill="rgb(0, 0, 0)" stroke="rgb(204, 204, 204)" stroke-width="1px"></line><line x1="51.53200149536133" y1="232.55384591909572" x2="46.53200149536133" y2="232.55384591909572" style="visibility: inherit;" fill="rgb(0, 0, 0)" stroke="rgb(204, 204, 204)" stroke-width="1px"></line><line x1="51.53200149536133" y1="203.48461517920882" x2="46.53200149536133" y2="203.48461517920882" style="visibility: inherit;" fill="rgb(0, 0, 0)" stroke="rgb(204, 204, 204)" stroke-width="1px"></line><line x1="51.53200149536133" y1="174.4153844393218" x2="46.53200149536133" y2="174.4153844393218" style="visibility: inherit;" fill="rgb(0, 0, 0)" stroke="rgb(204, 204, 204)" stroke-width="1px"></line><line x1="51.53200149536133" y1="145.34615369943484" x2="46.53200149536133" y2="145.34615369943484" style="visibility: inherit;" fill="rgb(0, 0, 0)" stroke="rgb(204, 204, 204)" stroke-width="1px"></line><line x1="51.53200149536133" y1="116.27692295954786" x2="46.53200149536133" y2="116.27692295954786" style="visibility: inherit;" fill="rgb(0, 0, 0)" stroke="rgb(204, 204, 204)" stroke-width="1px"></line><line x1="51.53200149536133" y1="87.2076922196609" x2="46.53200149536133" y2="87.2076922196609" style="visibility: inherit;" fill="rgb(0, 0, 0)" stroke="rgb(204, 204, 204)" stroke-width="1px"></line><line x1="51.53200149536133" y1="58.13846147977393" x2="46.53200149536133" y2="58.13846147977393" style="visibility: inherit;" fill="rgb(0, 0, 0)" stroke="rgb(204, 204, 204)" stroke-width="1px"></line><line x1="51.53200149536133" y1="29.069230739886965" x2="46.53200149536133" y2="29.069230739886965" style="visibility: inherit;" fill="rgb(0, 0, 0)" stroke="rgb(204, 204, 204)" stroke-width="1px"></line><line x1="51.53200149536133" y1="0" x2="46.53200149536133" y2="0" style="visibility: inherit;" fill="rgb(0, 0, 0)" stroke="rgb(204, 204, 204)" stroke-width="1px"></line></g><g transform="translate(41.53200149536133, 0)"><text style="text-anchor: end; visibility: hidden; font-family: Roboto, sans-serif; font-size: 12px; font-weight: 200;" x="0" y="377.8999996185303" dx="0em" dy="0.3em" fill="rgb(50, 49, 63)" stroke="none" stroke-width="1px">0.79</text><text style="text-anchor: end; visibility: inherit; font-family: Roboto, sans-serif; font-size: 12px; font-weight: 200;" x="0" y="348.8307688786433" dx="0em" dy="0.3em" fill="rgb(50, 49, 63)" stroke="none" stroke-width="1px">0.8</text><text style="text-anchor: end; visibility: inherit; font-family: Roboto, sans-serif; font-size: 12px; font-weight: 200;" x="0" y="319.76153813875635" dx="0em" dy="0.3em" fill="rgb(50, 49, 63)" stroke="none" stroke-width="1px">0.81</text><text style="text-anchor: end; visibility: inherit; font-family: Roboto, sans-serif; font-size: 12px; font-weight: 200;" x="0" y="290.6923073988697" dx="0em" dy="0.3em" fill="rgb(50, 49, 63)" stroke="none" stroke-width="1px">0.82</text><text style="text-anchor: end; visibility: inherit; font-family: Roboto, sans-serif; font-size: 12px; font-weight: 200;" x="0" y="261.62307665898277" dx="0em" dy="0.3em" fill="rgb(50, 49, 63)" stroke="none" stroke-width="1px">0.83</text><text style="text-anchor: end; visibility: inherit; font-family: Roboto, sans-serif; font-size: 12px; font-weight: 200;" x="0" y="232.55384591909572" dx="0em" dy="0.3em" fill="rgb(50, 49, 63)" stroke="none" stroke-width="1px">0.84</text><text style="text-anchor: end; visibility: inherit; font-family: Roboto, sans-serif; font-size: 12px; font-weight: 200;" x="0" y="203.48461517920882" dx="0em" dy="0.3em" fill="rgb(50, 49, 63)" stroke="none" stroke-width="1px">0.85</text><text style="text-anchor: end; visibility: inherit; font-family: Roboto, sans-serif; font-size: 12px; font-weight: 200;" x="0" y="174.4153844393218" dx="0em" dy="0.3em" fill="rgb(50, 49, 63)" stroke="none" stroke-width="1px">0.86</text><text style="text-anchor: end; visibility: inherit; font-family: Roboto, sans-serif; font-size: 12px; font-weight: 200;" x="0" y="145.34615369943484" dx="0em" dy="0.3em" fill="rgb(50, 49, 63)" stroke="none" stroke-width="1px">0.87</text><text style="text-anchor: end; visibility: inherit; font-family: Roboto, sans-serif; font-size: 12px; font-weight: 200;" x="0" y="116.27692295954786" dx="0em" dy="0.3em" fill="rgb(50, 49, 63)" stroke="none" stroke-width="1px">0.88</text><text style="text-anchor: end; visibility: inherit; font-family: Roboto, sans-serif; font-size: 12px; font-weight: 200;" x="0" y="87.2076922196609" dx="0em" dy="0.3em" fill="rgb(50, 49, 63)" stroke="none" stroke-width="1px">0.89</text><text style="text-anchor: end; visibility: inherit; font-family: Roboto, sans-serif; font-size: 12px; font-weight: 200;" x="0" y="58.13846147977393" dx="0em" dy="0.3em" fill="rgb(50, 49, 63)" stroke="none" stroke-width="1px">0.9</text><text style="text-anchor: end; visibility: inherit; font-family: Roboto, sans-serif; font-size: 12px; font-weight: 200;" x="0" y="29.069230739886965" dx="0em" dy="0.3em" fill="rgb(50, 49, 63)" stroke="none" stroke-width="1px">0.91</text><text style="text-anchor: end; visibility: hidden; font-family: Roboto, sans-serif; font-size: 12px; font-weight: 200;" x="0" y="0" dx="0em" dy="0.3em" fill="rgb(50, 49, 63)" stroke="none" stroke-width="1px">0.92</text></g><line x1="51.53200149536133" y1="0" x2="51.53200149536133" y2="377.8999996185303" fill="rgb(0, 0, 0)" stroke="rgb(204, 204, 204)" stroke-width="1px"></line></g></g><g transform="translate(51, 0)" clip-path="url(#clip_0)"><clipPath id="clip_0"><rect width="1382" height="377"></rect></clipPath><g><g><g><line x1="0" y1="0" x2="0" y2="377.8999996185303" fill="rgb(0, 0, 0)" stroke="rgb(60, 60, 60)" stroke-width="1px" opacity="0.25"></line><line x1="115.20566654205322" y1="0" x2="115.20566654205322" y2="377.8999996185303" fill="rgb(0, 0, 0)" stroke="rgb(60, 60, 60)" stroke-width="1px" opacity="0.25"></line><line x1="230.41133308410645" y1="0" x2="230.41133308410645" y2="377.8999996185303" fill="rgb(0, 0, 0)" stroke="rgb(60, 60, 60)" stroke-width="1px" opacity="0.25"></line><line x1="345.61699962615967" y1="0" x2="345.61699962615967" y2="377.8999996185303" fill="rgb(0, 0, 0)" stroke="rgb(60, 60, 60)" stroke-width="1px" opacity="0.25"></line><line x1="460.8226661682129" y1="0" x2="460.8226661682129" y2="377.8999996185303" fill="rgb(0, 0, 0)" stroke="rgb(60, 60, 60)" stroke-width="1px" opacity="0.25"></line><line x1="576.0283327102661" y1="0" x2="576.0283327102661" y2="377.8999996185303" fill="rgb(0, 0, 0)" stroke="rgb(60, 60, 60)" stroke-width="1px" opacity="0.25"></line><line x1="691.2339992523193" y1="0" x2="691.2339992523193" y2="377.8999996185303" fill="rgb(0, 0, 0)" stroke="rgb(60, 60, 60)" stroke-width="1px" opacity="0.25"></line><line x1="806.4396657943726" y1="0" x2="806.4396657943726" y2="377.8999996185303" fill="rgb(0, 0, 0)" stroke="rgb(60, 60, 60)" stroke-width="1px" opacity="0.25"></line><line x1="921.6453323364258" y1="0" x2="921.6453323364258" y2="377.8999996185303" fill="rgb(0, 0, 0)" stroke="rgb(60, 60, 60)" stroke-width="1px" opacity="0.25"></line><line x1="1036.850998878479" y1="0" x2="1036.850998878479" y2="377.8999996185303" fill="rgb(0, 0, 0)" stroke="rgb(60, 60, 60)" stroke-width="1px" opacity="0.25"></line><line x1="1152.0566654205322" y1="0" x2="1152.0566654205322" y2="377.8999996185303" fill="rgb(0, 0, 0)" stroke="rgb(60, 60, 60)" stroke-width="1px" opacity="0.25"></line><line x1="1267.2623319625854" y1="0" x2="1267.2623319625854" y2="377.8999996185303" fill="rgb(0, 0, 0)" stroke="rgb(60, 60, 60)" stroke-width="1px" opacity="0.25"></line><line x1="1382.4679985046387" y1="0" x2="1382.4679985046387" y2="377.8999996185303" fill="rgb(0, 0, 0)" stroke="rgb(60, 60, 60)" stroke-width="1px" opacity="0.25"></line></g><g><line x1="0" y1="377.8999996185303" x2="1382.4679985046387" y2="377.8999996185303" fill="rgb(0, 0, 0)" stroke="rgb(60, 60, 60)" stroke-width="1px" opacity="0.25"></line><line x1="0" y1="348.8307688786433" x2="1382.4679985046387" y2="348.8307688786433" fill="rgb(0, 0, 0)" stroke="rgb(60, 60, 60)" stroke-width="1px" opacity="0.25"></line><line x1="0" y1="319.76153813875635" x2="1382.4679985046387" y2="319.76153813875635" fill="rgb(0, 0, 0)" stroke="rgb(60, 60, 60)" stroke-width="1px" opacity="0.25"></line><line x1="0" y1="290.6923073988697" x2="1382.4679985046387" y2="290.6923073988697" fill="rgb(0, 0, 0)" stroke="rgb(60, 60, 60)" stroke-width="1px" opacity="0.25"></line><line x1="0" y1="261.62307665898277" x2="1382.4679985046387" y2="261.62307665898277" fill="rgb(0, 0, 0)" stroke="rgb(60, 60, 60)" stroke-width="1px" opacity="0.25"></line><line x1="0" y1="232.55384591909572" x2="1382.4679985046387" y2="232.55384591909572" fill="rgb(0, 0, 0)" stroke="rgb(60, 60, 60)" stroke-width="1px" opacity="0.25"></line><line x1="0" y1="203.48461517920882" x2="1382.4679985046387" y2="203.48461517920882" fill="rgb(0, 0, 0)" stroke="rgb(60, 60, 60)" stroke-width="1px" opacity="0.25"></line><line x1="0" y1="174.4153844393218" x2="1382.4679985046387" y2="174.4153844393218" fill="rgb(0, 0, 0)" stroke="rgb(60, 60, 60)" stroke-width="1px" opacity="0.25"></line><line x1="0" y1="145.34615369943484" x2="1382.4679985046387" y2="145.34615369943484" fill="rgb(0, 0, 0)" stroke="rgb(60, 60, 60)" stroke-width="1px" opacity="0.25"></line><line x1="0" y1="116.27692295954786" x2="1382.4679985046387" y2="116.27692295954786" fill="rgb(0, 0, 0)" stroke="rgb(60, 60, 60)" stroke-width="1px" opacity="0.25"></line><line x1="0" y1="87.2076922196609" x2="1382.4679985046387" y2="87.2076922196609" fill="rgb(0, 0, 0)" stroke="rgb(60, 60, 60)" stroke-width="1px" opacity="0.25"></line><line x1="0" y1="58.13846147977393" x2="1382.4679985046387" y2="58.13846147977393" fill="rgb(0, 0, 0)" stroke="rgb(60, 60, 60)" stroke-width="1px" opacity="0.25"></line><line x1="0" y1="29.069230739886965" x2="1382.4679985046387" y2="29.069230739886965" fill="rgb(0, 0, 0)" stroke="rgb(60, 60, 60)" stroke-width="1px" opacity="0.25"></line><line x1="0" y1="0" x2="1382.4679985046387" y2="0" fill="rgb(0, 0, 0)" stroke="rgb(60, 60, 60)" stroke-width="1px" opacity="0.25"></line></g></g></g><g><g><line x1="0" y1="2674.3692280695986" x2="1382.4679985046387" y2="2674.3692280695986" fill="rgb(0, 0, 0)" stroke="rgb(153, 153, 153)" stroke-width="1.5px"></line></g></g><g><g><line x1="115.20566654205322" y1="0" x2="115.20566654205322" y2="377.8999996185303" fill="rgb(0, 0, 0)" stroke="rgb(153, 153, 153)" stroke-width="1.5px"></line></g></g><g><g><g><g><g><path style="fill: none;" stroke="rgb(0, 119, 187)" stroke-width="2px" d="M115.20566654205322,321.18144703868444L138.24679985046387,243.46414302494878L161.28793315887452,148.55953324800524L184.32906646728514,126.88827363740381L207.3701997756958,97.7443929235762L230.41133308410645,93.26061234229984L253.45246639251707,88.77700502714066L276.49359970092775,79.80961713070508L299.53473300933837,79.80961713070508L322.57586631774905,76.82043007652084L345.61699962615967,76.82043007652084L368.6581329345703,77.56772684006692L391.69926624298097,76.07313331297479L414.7403995513916,79.06232036715905L437.7815328598022,79.80961713070508L460.8226661682129,79.06232036715905L483.8637994766235,79.06232036715905L506.90493278503413,79.06232036715905L529.9460660934449,79.06232036715905L552.9871994018555,79.06232036715905L576.0283327102661,79.06232036715905L599.0694660186767,79.06232036715905L622.1105993270875,79.06232036715905L645.1517326354981,79.06232036715905L668.1928659439087,79.06232036715905L691.2339992523193,79.06232036715905L714.2751325607301,79.06232036715905L737.3162658691406,79.06232036715905L760.3573991775513,79.06232036715905L783.3985324859619,79.06232036715905L806.4396657943726,79.06232036715905L829.4807991027832,79.06232036715905L852.5219324111939,79.06232036715905L875.5630657196044,79.06232036715905L898.6041990280152,79.06232036715905L921.6453323364258,79.06232036715905L944.6864656448364,79.06232036715905L967.727598953247,79.06232036715905L990.7687322616578,79.06232036715905L1013.8098655700683,79.06232036715905L1036.850998878479,79.06232036715905L1059.8921321868897,79.06232036715905L1082.9332654953002,79.06232036715905L1105.974398803711,79.06232036715905L1129.0155321121215,79.06232036715905L1152.0566654205322,79.06232036715905L1175.0977987289427,79.06232036715905L1198.1389320373535,79.06232036715905L1221.1800653457642,79.06232036715905L1244.221198654175,79.06232036715905" fill="none"></path></g><g><path style="fill: none;" stroke="rgb(255, 112, 67)" stroke-width="2px" d="M115.20566654205322,224.03477370498553L138.24679985046387,164.25241875023815L161.28793315887452,150.05395350898016L184.32906646728514,120.16277603160648L207.3701997756958,109.70079460807878L230.41133308410645,121.65736955869862L253.45246639251707,95.50250263293799L276.49359970092775,90.2715985542328L299.53473300933837,85.78781797295638L322.57586631774905,87.2824115000485L345.61699962615967,85.04052120941033L368.6581329345703,77.56772684006692L391.69926624298097,79.80961713070508L414.7403995513916,82.05150742134329L437.7815328598022,85.04052120941033L460.8226661682129,76.82043007652084L483.8637994766235,86.53511473650246L506.90493278503413,83.54610094843542L529.9460660934449,85.04052120941033L552.9871994018555,81.30421065779721L576.0283327102661,84.29322444586425L599.0694660186767,83.54610094843542L622.1105993270875,89.5243017906867L645.1517326354981,85.04052120941033L668.1928659439087,77.56772684006692L691.2339992523193,83.54610094843542L714.2751325607301,88.02970826359459L737.3162658691406,86.53511473650246L760.3573991775513,81.30421065779721L783.3985324859619,82.05150742134329L806.4396657943726,89.5243017906867L829.4807991027832,85.78781797295638L852.5219324111939,89.5243017906867L875.5630657196044,85.78781797295638L898.6041990280152,84.29322444586425L921.6453323364258,80.55691389425117L944.6864656448364,79.06232036715905L967.727598953247,79.06232036715905L990.7687322616578,84.29322444586425L1013.8098655700683,81.30421065779721L1036.850998878479,79.80961713070508L1059.8921321868897,77.56772684006692L1082.9332654953002,88.77700502714066L1105.974398803711,76.82043007652084L1129.0155321121215,81.30421065779721L1152.0566654205322,82.05150742134329L1175.0977987289427,85.78781797295638L1198.1389320373535,85.04052120941033L1221.1800653457642,84.29322444586425L1244.221198654175,82.79880418488933" fill="none"></path></g><g><path style="fill: none;" stroke="rgb(0, 153, 136)" stroke-width="2px" d="M115.20566654205322,236.7386454191514L138.24679985046387,169.4833228289434L161.28793315887452,138.09755182447756L184.32906646728514,123.15196308579074L207.3701997756958,120.91007279515253L230.41133308410645,110.44809137162487L253.45246639251707,101.48070347518929L276.49359970092775,98.49168968712225L299.53473300933837,94.75520586939196L322.57586631774905,101.48070347518929L345.61699962615967,88.02970826359459L368.6581329345703,94.75520586939196L391.69926624298097,87.2824115000485L414.7403995513916,96.24979939648408L437.7815328598022,85.04052120941033L460.8226661682129,91.01889531777883L483.8637994766235,96.99709616003013L506.90493278503413,87.2824115000485L529.9460660934449,91.76619208132492L552.9871994018555,83.54610094843542L576.0283327102661,79.06232036715905L599.0694660186767,96.99709616003013L622.1105993270875,94.00790910584587L645.1517326354981,94.75520586939196L668.1928659439087,84.29322444586425L691.2339992523193,97.7443929235762L714.2751325607301,99.23898645066834L737.3162658691406,89.5243017906867L760.3573991775513,89.5243017906867L783.3985324859619,94.75520586939196L806.4396657943726,93.26061234229984L829.4807991027832,96.24979939648408L852.5219324111939,99.23898645066834L875.5630657196044,85.78781797295638L898.6041990280152,88.77700502714066L921.6453323364258,103.7225937658275L944.6864656448364,91.76619208132492L967.727598953247,92.51331557875375L990.7687322616578,91.01889531777883L1013.8098655700683,95.50250263293799L1036.850998878479,85.78781797295638L1059.8921321868897,94.75520586939196L1082.9332654953002,89.5243017906867L1105.974398803711,92.51331557875375L1129.0155321121215,93.26061234229984L1152.0566654205322,94.75520586939196L1175.0977987289427,93.26061234229984L1198.1389320373535,95.50250263293799L1221.1800653457642,91.01889531777883L1244.221198654175,96.99709616003013" fill="none"></path></g><g><path style="fill: none;" stroke="rgb(51, 187, 238)" stroke-width="2px" d="M115.20566654205322,236.7386454191514L138.24679985046387,160.51593493250786L161.28793315887452,139.59214535156968L184.32906646728514,123.89925984933677L207.3701997756958,112.68998166226304L230.41133308410645,105.21718729291962L253.45246639251707,100.73340671164324L276.49359970092775,100.73340671164324L299.53473300933837,101.48070347518929L322.57586631774905,103.7225937658275L345.61699962615967,96.24979939648408L368.6581329345703,93.26061234229984L391.69926624298097,85.04052120941033L414.7403995513916,89.5243017906867L437.7815328598022,88.02970826359459L460.8226661682129,90.2715985542328L483.8637994766235,91.76619208132492L506.90493278503413,88.02970826359459L529.9460660934449,94.75520586939196L552.9871994018555,91.76619208132492L576.0283327102661,87.2824115000485L599.0694660186767,87.2824115000485L622.1105993270875,88.77700502714066L645.1517326354981,92.51331557875375L668.1928659439087,91.01889531777883L691.2339992523193,92.51331557875375L714.2751325607301,90.2715985542328L737.3162658691406,82.05150742134329L760.3573991775513,84.29322444586425L783.3985324859619,87.2824115000485L806.4396657943726,99.98628321421437L829.4807991027832,94.00790910584587L852.5219324111939,91.01889531777883L875.5630657196044,87.2824115000485L898.6041990280152,83.54610094843542L921.6453323364258,84.29322444586425L944.6864656448364,95.50250263293799L967.727598953247,87.2824115000485L990.7687322616578,91.76619208132492L1013.8098655700683,88.02970826359459L1036.850998878479,91.01889531777883L1059.8921321868897,86.53511473650246L1082.9332654953002,94.00790910584587L1105.974398803711,91.01889531777883L1129.0155321121215,83.54610094843542L1152.0566654205322,82.79880418488933L1175.0977987289427,94.00790910584587L1198.1389320373535,82.05150742134329L1221.1800653457642,89.5243017906867L1244.221198654175,94.00790910584587" fill="none"></path></g></g></g></g></g></g><g transform="translate(51, 377)" clip-path="url(#clip_1)"><clipPath id="clip_1"><rect width="1382" height="22"></rect></clipPath><g><g><line x1="0" y1="0" x2="0" y2="5" style="visibility: inherit;" fill="rgb(0, 0, 0)" stroke="rgb(204, 204, 204)" stroke-width="1px"></line><line x1="115.20566654205322" y1="0" x2="115.20566654205322" y2="5" style="visibility: inherit;" fill="rgb(0, 0, 0)" stroke="rgb(204, 204, 204)" stroke-width="1px"></line><line x1="230.41133308410645" y1="0" x2="230.41133308410645" y2="5" style="visibility: inherit;" fill="rgb(0, 0, 0)" stroke="rgb(204, 204, 204)" stroke-width="1px"></line><line x1="345.61699962615967" y1="0" x2="345.61699962615967" y2="5" style="visibility: inherit;" fill="rgb(0, 0, 0)" stroke="rgb(204, 204, 204)" stroke-width="1px"></line><line x1="460.8226661682129" y1="0" x2="460.8226661682129" y2="5" style="visibility: inherit;" fill="rgb(0, 0, 0)" stroke="rgb(204, 204, 204)" stroke-width="1px"></line><line x1="576.0283327102661" y1="0" x2="576.0283327102661" y2="5" style="visibility: inherit;" fill="rgb(0, 0, 0)" stroke="rgb(204, 204, 204)" stroke-width="1px"></line><line x1="691.2339992523193" y1="0" x2="691.2339992523193" y2="5" style="visibility: inherit;" fill="rgb(0, 0, 0)" stroke="rgb(204, 204, 204)" stroke-width="1px"></line><line x1="806.4396657943726" y1="0" x2="806.4396657943726" y2="5" style="visibility: inherit;" fill="rgb(0, 0, 0)" stroke="rgb(204, 204, 204)" stroke-width="1px"></line><line x1="921.6453323364258" y1="0" x2="921.6453323364258" y2="5" style="visibility: inherit;" fill="rgb(0, 0, 0)" stroke="rgb(204, 204, 204)" stroke-width="1px"></line><line x1="1036.850998878479" y1="0" x2="1036.850998878479" y2="5" style="visibility: inherit;" fill="rgb(0, 0, 0)" stroke="rgb(204, 204, 204)" stroke-width="1px"></line><line x1="1152.0566654205322" y1="0" x2="1152.0566654205322" y2="5" style="visibility: inherit;" fill="rgb(0, 0, 0)" stroke="rgb(204, 204, 204)" stroke-width="1px"></line><line x1="1267.2623319625854" y1="0" x2="1267.2623319625854" y2="5" style="visibility: inherit;" fill="rgb(0, 0, 0)" stroke="rgb(204, 204, 204)" stroke-width="1px"></line><line x1="1382.4679985046387" y1="0" x2="1382.4679985046387" y2="5" style="visibility: inherit;" fill="rgb(0, 0, 0)" stroke="rgb(204, 204, 204)" stroke-width="1px"></line></g><g transform="translate(0, 8)"><text style="text-anchor: middle; visibility: hidden; font-family: Roboto, sans-serif; font-size: 12px; font-weight: 200;" x="0" y="0" dx="0em" dy="0.95em" fill="rgb(50, 49, 63)" stroke="none" stroke-width="1px">-5</text><text style="text-anchor: middle; visibility: inherit; font-family: Roboto, sans-serif; font-size: 12px; font-weight: 200;" x="115.20566654205322" y="0" dx="0em" dy="0.95em" fill="rgb(50, 49, 63)" stroke="none" stroke-width="1px">0</text><text style="text-anchor: middle; visibility: inherit; font-family: Roboto, sans-serif; font-size: 12px; font-weight: 200;" x="230.41133308410645" y="0" dx="0em" dy="0.95em" fill="rgb(50, 49, 63)" stroke="none" stroke-width="1px">5</text><text style="text-anchor: middle; visibility: inherit; font-family: Roboto, sans-serif; font-size: 12px; font-weight: 200;" x="345.61699962615967" y="0" dx="0em" dy="0.95em" fill="rgb(50, 49, 63)" stroke="none" stroke-width="1px">10</text><text style="text-anchor: middle; visibility: inherit; font-family: Roboto, sans-serif; font-size: 12px; font-weight: 200;" x="460.8226661682129" y="0" dx="0em" dy="0.95em" fill="rgb(50, 49, 63)" stroke="none" stroke-width="1px">15</text><text style="text-anchor: middle; visibility: inherit; font-family: Roboto, sans-serif; font-size: 12px; font-weight: 200;" x="576.0283327102661" y="0" dx="0em" dy="0.95em" fill="rgb(50, 49, 63)" stroke="none" stroke-width="1px">20</text><text style="text-anchor: middle; visibility: inherit; font-family: Roboto, sans-serif; font-size: 12px; font-weight: 200;" x="691.2339992523193" y="0" dx="0em" dy="0.95em" fill="rgb(50, 49, 63)" stroke="none" stroke-width="1px">25</text><text style="text-anchor: middle; visibility: inherit; font-family: Roboto, sans-serif; font-size: 12px; font-weight: 200;" x="806.4396657943726" y="0" dx="0em" dy="0.95em" fill="rgb(50, 49, 63)" stroke="none" stroke-width="1px">30</text><text style="text-anchor: middle; visibility: inherit; font-family: Roboto, sans-serif; font-size: 12px; font-weight: 200;" x="921.6453323364258" y="0" dx="0em" dy="0.95em" fill="rgb(50, 49, 63)" stroke="none" stroke-width="1px">35</text><text style="text-anchor: middle; visibility: inherit; font-family: Roboto, sans-serif; font-size: 12px; font-weight: 200;" x="1036.850998878479" y="0" dx="0em" dy="0.95em" fill="rgb(50, 49, 63)" stroke="none" stroke-width="1px">40</text><text style="text-anchor: middle; visibility: inherit; font-family: Roboto, sans-serif; font-size: 12px; font-weight: 200;" x="1152.0566654205322" y="0" dx="0em" dy="0.95em" fill="rgb(50, 49, 63)" stroke="none" stroke-width="1px">45</text><text style="text-anchor: middle; visibility: inherit; font-family: Roboto, sans-serif; font-size: 12px; font-weight: 200;" x="1267.2623319625854" y="0" dx="0em" dy="0.95em" fill="rgb(50, 49, 63)" stroke="none" stroke-width="1px">50</text><text style="text-anchor: middle; visibility: hidden; font-family: Roboto, sans-serif; font-size: 12px; font-weight: 200;" x="1382.4679985046387" y="0" dx="0em" dy="0.95em" fill="rgb(50, 49, 63)" stroke="none" stroke-width="1px">55</text></g><line x1="0" y1="0" x2="1382.4679985046387" y2="0" fill="rgb(0, 0, 0)" stroke="rgb(204, 204, 204)" stroke-width="1px"></line></g></g></g></g></svg>