<svg viewBox="0 0 1434 400" xmlns="http://www.w3.org/2000/svg"><g><g><g><g><g><line x1="51.53200149536133" y1="377.8999996185303" x2="46.53200149536133" y2="377.8999996185303" style="visibility: inherit;" fill="rgb(0, 0, 0)" stroke="rgb(204, 204, 204)" stroke-width="1px"></line><line x1="51.53200149536133" y1="348.83076887864337" x2="46.53200149536133" y2="348.83076887864337" style="visibility: inherit;" fill="rgb(0, 0, 0)" stroke="rgb(204, 204, 204)" stroke-width="1px"></line><line x1="51.53200149536133" y1="319.7615381387564" x2="46.53200149536133" y2="319.7615381387564" style="visibility: inherit;" fill="rgb(0, 0, 0)" stroke="rgb(204, 204, 204)" stroke-width="1px"></line><line x1="51.53200149536133" y1="290.6923073988694" x2="46.53200149536133" y2="290.6923073988694" style="visibility: inherit;" fill="rgb(0, 0, 0)" stroke="rgb(204, 204, 204)" stroke-width="1px"></line><line x1="51.53200149536133" y1="261.6230766589825" x2="46.53200149536133" y2="261.6230766589825" style="visibility: inherit;" fill="rgb(0, 0, 0)" stroke="rgb(204, 204, 204)" stroke-width="1px"></line><line x1="51.53200149536133" y1="232.55384591909558" x2="46.53200149536133" y2="232.55384591909558" style="visibility: inherit;" fill="rgb(0, 0, 0)" stroke="rgb(204, 204, 204)" stroke-width="1px"></line><line x1="51.53200149536133" y1="203.48461517920865" x2="46.53200149536133" y2="203.48461517920865" style="visibility: inherit;" fill="rgb(0, 0, 0)" stroke="rgb(204, 204, 204)" stroke-width="1px"></line><line x1="51.53200149536133" y1="174.41538443932168" x2="46.53200149536133" y2="174.41538443932168" style="visibility: inherit;" fill="rgb(0, 0, 0)" stroke="rgb(204, 204, 204)" stroke-width="1px"></line><line x1="51.53200149536133" y1="145.34615369943475" x2="46.53200149536133" y2="145.34615369943475" style="visibility: inherit;" fill="rgb(0, 0, 0)" stroke="rgb(204, 204, 204)" stroke-width="1px"></line><line x1="51.53200149536133" y1="116.27692295954779" x2="46.53200149536133" y2="116.27692295954779" style="visibility: inherit;" fill="rgb(0, 0, 0)" stroke="rgb(204, 204, 204)" stroke-width="1px"></line><line x1="51.53200149536133" y1="87.20769221966086" x2="46.53200149536133" y2="87.20769221966086" style="visibility: inherit;" fill="rgb(0, 0, 0)" stroke="rgb(204, 204, 204)" stroke-width="1px"></line><line x1="51.53200149536133" y1="58.138461479773895" x2="46.53200149536133" y2="58.138461479773895" style="visibility: inherit;" fill="rgb(0, 0, 0)" stroke="rgb(204, 204, 204)" stroke-width="1px"></line><line x1="51.53200149536133" y1="29.069230739886926" x2="46.53200149536133" y2="29.069230739886926" style="visibility: inherit;" fill="rgb(0, 0, 0)" stroke="rgb(204, 204, 204)" stroke-width="1px"></line><line x1="51.53200149536133" y1="0" x2="46.53200149536133" y2="0" style="visibility: inherit;" fill="rgb(0, 0, 0)" stroke="rgb(204, 204, 204)" stroke-width="1px"></line></g><g transform="translate(41.53200149536133, 0)"><text style="text-anchor: end; visibility: hidden; font-family: Roboto, sans-serif; font-size: 12px; font-weight: 200;" x="0" y="377.8999996185303" dx="0em" dy="0.3em" fill="rgb(50, 49, 63)" stroke="none" stroke-width="1px">-0.2</text><text style="text-anchor: end; visibility: inherit; font-family: Roboto, sans-serif; font-size: 12px; font-weight: 200;" x="0" y="348.83076887864337" dx="0em" dy="0.3em" fill="rgb(50, 49, 63)" stroke="none" stroke-width="1px">0</text><text style="text-anchor: end; visibility: inherit; font-family: Roboto, sans-serif; font-size: 12px; font-weight: 200;" x="0" y="319.7615381387564" dx="0em" dy="0.3em" fill="rgb(50, 49, 63)" stroke="none" stroke-width="1px">0.2</text><text style="text-anchor: end; visibility: inherit; font-family: Roboto, sans-serif; font-size: 12px; font-weight: 200;" x="0" y="290.6923073988694" dx="0em" dy="0.3em" fill="rgb(50, 49, 63)" stroke="none" stroke-width="1px">0.4</text><text style="text-anchor: end; visibility: inherit; font-family: Roboto, sans-serif; font-size: 12px; font-weight: 200;" x="0" y="261.6230766589825" dx="0em" dy="0.3em" fill="rgb(50, 49, 63)" stroke="none" stroke-width="1px">0.6</text><text style="text-anchor: end; visibility: inherit; font-family: Roboto, sans-serif; font-size: 12px; font-weight: 200;" x="0" y="232.55384591909558" dx="0em" dy="0.3em" fill="rgb(50, 49, 63)" stroke="none" stroke-width="1px">0.8</text><text style="text-anchor: end; visibility: inherit; font-family: Roboto, sans-serif; font-size: 12px; font-weight: 200;" x="0" y="203.48461517920865" dx="0em" dy="0.3em" fill="rgb(50, 49, 63)" stroke="none" stroke-width="1px">1</text><text style="text-anchor: end; visibility: inherit; font-family: Roboto, sans-serif; font-size: 12px; font-weight: 200;" x="0" y="174.41538443932168" dx="0em" dy="0.3em" fill="rgb(50, 49, 63)" stroke="none" stroke-width="1px">1.2</text><text style="text-anchor: end; visibility: inherit; font-family: Roboto, sans-serif; font-size: 12px; font-weight: 200;" x="0" y="145.34615369943475" dx="0em" dy="0.3em" fill="rgb(50, 49, 63)" stroke="none" stroke-width="1px">1.4</text><text style="text-anchor: end; visibility: inherit; font-family: Roboto, sans-serif; font-size: 12px; font-weight: 200;" x="0" y="116.27692295954779" dx="0em" dy="0.3em" fill="rgb(50, 49, 63)" stroke="none" stroke-width="1px">1.6</text><text style="text-anchor: end; visibility: inherit; font-family: Roboto, sans-serif; font-size: 12px; font-weight: 200;" x="0" y="87.20769221966086" dx="0em" dy="0.3em" fill="rgb(50, 49, 63)" stroke="none" stroke-width="1px">1.8</text><text style="text-anchor: end; visibility: inherit; font-family: Roboto, sans-serif; font-size: 12px; font-weight: 200;" x="0" y="58.138461479773895" dx="0em" dy="0.3em" fill="rgb(50, 49, 63)" stroke="none" stroke-width="1px">2</text><text style="text-anchor: end; visibility: inherit; font-family: Roboto, sans-serif; font-size: 12px; font-weight: 200;" x="0" y="29.069230739886926" dx="0em" dy="0.3em" fill="rgb(50, 49, 63)" stroke="none" stroke-width="1px">2.2</text><text style="text-anchor: end; visibility: hidden; font-family: Roboto, sans-serif; font-size: 12px; font-weight: 200;" x="0" y="0" dx="0em" dy="0.3em" fill="rgb(50, 49, 63)" stroke="none" stroke-width="1px">2.4</text></g><line x1="51.53200149536133" y1="0" x2="51.53200149536133" y2="377.8999996185303" fill="rgb(0, 0, 0)" stroke="rgb(204, 204, 204)" stroke-width="1px"></line></g></g><g transform="translate(51, 0)" clip-path="url(#clip_0)"><clipPath id="clip_0"><rect width="1382" height="377"></rect></clipPath><g><g><g><line x1="0" y1="0" x2="0" y2="377.8999996185303" fill="rgb(0, 0, 0)" stroke="rgb(60, 60, 60)" stroke-width="1px" opacity="0.25"></line><line x1="115.20566654205322" y1="0" x2="115.20566654205322" y2="377.8999996185303" fill="rgb(0, 0, 0)" stroke="rgb(60, 60, 60)" stroke-width="1px" opacity="0.25"></line><line x1="230.41133308410645" y1="0" x2="230.41133308410645" y2="377.8999996185303" fill="rgb(0, 0, 0)" stroke="rgb(60, 60, 60)" stroke-width="1px" opacity="0.25"></line><line x1="345.61699962615967" y1="0" x2="345.61699962615967" y2="377.8999996185303" fill="rgb(0, 0, 0)" stroke="rgb(60, 60, 60)" stroke-width="1px" opacity="0.25"></line><line x1="460.8226661682129" y1="0" x2="460.8226661682129" y2="377.8999996185303" fill="rgb(0, 0, 0)" stroke="rgb(60, 60, 60)" stroke-width="1px" opacity="0.25"></line><line x1="576.0283327102661" y1="0" x2="576.0283327102661" y2="377.8999996185303" fill="rgb(0, 0, 0)" stroke="rgb(60, 60, 60)" stroke-width="1px" opacity="0.25"></line><line x1="691.2339992523193" y1="0" x2="691.2339992523193" y2="377.8999996185303" fill="rgb(0, 0, 0)" stroke="rgb(60, 60, 60)" stroke-width="1px" opacity="0.25"></line><line x1="806.4396657943726" y1="0" x2="806.4396657943726" y2="377.8999996185303" fill="rgb(0, 0, 0)" stroke="rgb(60, 60, 60)" stroke-width="1px" opacity="0.25"></line><line x1="921.6453323364258" y1="0" x2="921.6453323364258" y2="377.8999996185303" fill="rgb(0, 0, 0)" stroke="rgb(60, 60, 60)" stroke-width="1px" opacity="0.25"></line><line x1="1036.850998878479" y1="0" x2="1036.850998878479" y2="377.8999996185303" fill="rgb(0, 0, 0)" stroke="rgb(60, 60, 60)" stroke-width="1px" opacity="0.25"></line><line x1="1152.0566654205322" y1="0" x2="1152.0566654205322" y2="377.8999996185303" fill="rgb(0, 0, 0)" stroke="rgb(60, 60, 60)" stroke-width="1px" opacity="0.25"></line><line x1="1267.2623319625854" y1="0" x2="1267.2623319625854" y2="377.8999996185303" fill="rgb(0, 0, 0)" stroke="rgb(60, 60, 60)" stroke-width="1px" opacity="0.25"></line><line x1="1382.4679985046387" y1="0" x2="1382.4679985046387" y2="377.8999996185303" fill="rgb(0, 0, 0)" stroke="rgb(60, 60, 60)" stroke-width="1px" opacity="0.25"></line></g><g><line x1="0" y1="377.8999996185303" x2="1382.4679985046387" y2="377.8999996185303" fill="rgb(0, 0, 0)" stroke="rgb(60, 60, 60)" stroke-width="1px" opacity="0.25"></line><line x1="0" y1="348.83076887864337" x2="1382.4679985046387" y2="348.83076887864337" fill="rgb(0, 0, 0)" stroke="rgb(60, 60, 60)" stroke-width="1px" opacity="0.25"></line><line x1="0" y1="319.7615381387564" x2="1382.4679985046387" y2="319.7615381387564" fill="rgb(0, 0, 0)" stroke="rgb(60, 60, 60)" stroke-width="1px" opacity="0.25"></line><line x1="0" y1="290.6923073988694" x2="1382.4679985046387" y2="290.6923073988694" fill="rgb(0, 0, 0)" stroke="rgb(60, 60, 60)" stroke-width="1px" opacity="0.25"></line><line x1="0" y1="261.6230766589825" x2="1382.4679985046387" y2="261.6230766589825" fill="rgb(0, 0, 0)" stroke="rgb(60, 60, 60)" stroke-width="1px" opacity="0.25"></line><line x1="0" y1="232.55384591909558" x2="1382.4679985046387" y2="232.55384591909558" fill="rgb(0, 0, 0)" stroke="rgb(60, 60, 60)" stroke-width="1px" opacity="0.25"></line><line x1="0" y1="203.48461517920865" x2="1382.4679985046387" y2="203.48461517920865" fill="rgb(0, 0, 0)" stroke="rgb(60, 60, 60)" stroke-width="1px" opacity="0.25"></line><line x1="0" y1="174.41538443932168" x2="1382.4679985046387" y2="174.41538443932168" fill="rgb(0, 0, 0)" stroke="rgb(60, 60, 60)" stroke-width="1px" opacity="0.25"></line><line x1="0" y1="145.34615369943475" x2="1382.4679985046387" y2="145.34615369943475" fill="rgb(0, 0, 0)" stroke="rgb(60, 60, 60)" stroke-width="1px" opacity="0.25"></line><line x1="0" y1="116.27692295954779" x2="1382.4679985046387" y2="116.27692295954779" fill="rgb(0, 0, 0)" stroke="rgb(60, 60, 60)" stroke-width="1px" opacity="0.25"></line><line x1="0" y1="87.20769221966086" x2="1382.4679985046387" y2="87.20769221966086" fill="rgb(0, 0, 0)" stroke="rgb(60, 60, 60)" stroke-width="1px" opacity="0.25"></line><line x1="0" y1="58.138461479773895" x2="1382.4679985046387" y2="58.138461479773895" fill="rgb(0, 0, 0)" stroke="rgb(60, 60, 60)" stroke-width="1px" opacity="0.25"></line><line x1="0" y1="29.069230739886926" x2="1382.4679985046387" y2="29.069230739886926" fill="rgb(0, 0, 0)" stroke="rgb(60, 60, 60)" stroke-width="1px" opacity="0.25"></line><line x1="0" y1="0" x2="1382.4679985046387" y2="0" fill="rgb(0, 0, 0)" stroke="rgb(60, 60, 60)" stroke-width="1px" opacity="0.25"></line></g></g></g><g><g><line x1="0" y1="348.83076887864337" x2="1382.4679985046387" y2="348.83076887864337" fill="rgb(0, 0, 0)" stroke="rgb(153, 153, 153)" stroke-width="1.5px"></line></g></g><g><g><line x1="115.20566654205322" y1="0" x2="115.20566654205322" y2="377.8999996185303" fill="rgb(0, 0, 0)" stroke="rgb(153, 153, 153)" stroke-width="1.5px"></line></g></g><g><g><g><g><g><path style="fill: none;" stroke="rgb(0, 119, 187)" stroke-width="2px" d="M115.20566654205322,61.08831712535045L138.24679985046387,166.26131809305795L161.28793315887452,219.3478732544985L184.32906646728514,232.29079156727934L207.3701997756958,248.53034899593567L230.41133308410645,250.35753549832685L253.45246639251707,253.40155261530367L276.49359970092775,256.4287629189106L299.53473300933837,256.08117376116667L322.57586631774905,256.25566140450746L345.61699962615967,256.2876376664394L368.6581329345703,256.61234703340523L391.69926624298097,256.40020866279366L414.7403995513916,256.39726313880107L437.7815328598022,256.35486491991867L460.8226661682129,256.36028814938743L483.8637994766235,256.3319591392229L506.90493278503413,256.3367326207522L529.9460660934449,256.3278700588566L552.9871994018555,256.32793936530356L576.0283327102661,256.33221037509287L599.0694660186767,256.3303824175562L622.1105993270875,256.32937747407635L645.1517326354981,256.3291349015123L668.1928659439087,256.3298279659811L691.2339992523193,256.32975865953426L714.2751325607301,256.3299405889573L737.3162658691406,256.3299579155691L760.3573991775513,256.3300098954042L783.3985324859619,256.329966578875L806.4396657943726,256.3299752421808L829.4807991027832,256.33000123209837L852.5219324111939,256.3299925687925L875.5630657196044,256.3299925687925L898.6041990280152,256.3299925687925L921.6453323364258,256.3299925687925L944.6864656448364,256.3299925687925L967.727598953247,256.3299925687925L990.7687322616578,256.3299925687925L1013.8098655700683,256.3299925687925L1036.850998878479,256.3299925687925L1059.8921321868897,256.3299925687925L1082.9332654953002,256.3299925687925L1105.974398803711,256.3299925687925L1129.0155321121215,256.3299925687925L1152.0566654205322,256.3299925687925L1175.0977987289427,256.3299925687925L1198.1389320373535,256.3299925687925L1221.1800653457642,256.3299925687925L1244.221198654175,256.3299925687925" fill="none"></path></g><g><path style="fill: none;" stroke="rgb(255, 112, 67)" stroke-width="2px" d="M115.20566654205322,299.19640248980755L138.24679985046387,307.3249094847904L161.28793315887452,308.65038661817533L184.32906646728514,313.02431648113776L207.3701997756958,314.30464479602944L230.41133308410645,314.41255709965714L253.45246639251707,315.5409613513223L276.49359970092775,315.96156485086044L299.53473300933837,316.55741403300226L322.57586631774905,315.9385096281386L345.61699962615967,316.2936661835519L368.6581329345703,316.5765057932929L391.69926624298097,316.4867821003198L414.7403995513916,316.41608086119044L437.7815328598022,316.73706284080964L460.8226661682129,316.1844587156981L483.8637994766235,316.43759618129553L506.90493278503413,316.53396462986376L529.9460660934449,316.7507400349373L552.9871994018555,316.6167360198836L576.0283327102661,316.4450877750386L599.0694660186767,316.69180139934025L622.1105993270875,316.29921503095574L645.1517326354981,316.61085580103065L668.1928659439087,316.33688958231755L691.2339992523193,316.1666188031044L714.2751325607301,316.31998747258325L737.3162658691406,315.963583401126L760.3573991775513,316.10673803299505L783.3985324859619,316.47522091864863L806.4396657943726,316.3618225765847L829.4807991027832,316.00182323319524L852.5219324111939,316.16163307058156L875.5630657196044,316.47751236304885L898.6041990280152,316.4389303303981L921.6453323364258,316.5066687189231L944.6864656448364,316.5878460606645L967.727598953247,316.7823827595936L990.7687322616578,316.51362318770276L1013.8098655700683,316.6218906868707L1036.850998878479,316.10171981307525L1059.8921321868897,316.7629661253332L1082.9332654953002,315.88394379617483L1105.974398803711,316.47482673823197L1129.0155321121215,316.5936136565413L1152.0566654205322,316.5724275420589L1175.0977987289427,316.0417004300722L1198.1389320373535,316.30093469716905L1221.1800653457642,317.0083824195823L1244.221198654175,316.65532238418723" fill="none"></path></g><g><path style="fill: none;" stroke="rgb(0, 153, 136)" stroke-width="2px" d="M115.20566654205322,296.33266010448654L138.24679985046387,306.6199416336798L161.28793315887452,309.73813830708906L184.32906646728514,313.64765000112266L207.3701997756958,313.2494194889698L230.41133308410645,314.3574996250858L253.45246639251707,315.62409876601475L276.49359970092775,315.91549339029314L299.53473300933837,315.90891577531835L322.57586631774905,315.8205695479772L345.61699962615967,315.20271123729617L368.6581329345703,315.42161348395854L391.69926624298097,315.6348477627614L414.7403995513916,315.72803028059934L437.7815328598022,316.1226676866465L460.8226661682129,316.19742118709223L483.8637994766235,315.23831742438375L506.90493278503413,315.8847299911817L529.9460660934449,316.8521873465663L552.9871994018555,316.6432305750322L576.0283327102661,316.4287639409705L599.0694660186767,314.9976312951347L622.1105993270875,316.14712203326485L645.1517326354981,316.0157776531104L668.1928659439087,315.65375759362894L691.2339992523193,315.23533291551473L714.2751325607301,315.2121412457256L737.3162658691406,316.2088112684726L760.3573991775513,316.68297132484173L783.3985324859619,315.3113057762604L806.4396657943726,315.97968198924167L829.4807991027832,315.8284683170957L852.5219324111939,314.9124038579033L875.5630657196044,316.83816578603074L898.6041990280152,315.9912691608304L921.6453323364258,315.52912077803717L944.6864656448364,316.3714886600988L967.727598953247,316.1701750901602L990.7687322616578,315.3845215399158L1013.8098655700683,315.35007623581356L1036.850998878479,315.76168505804185L1059.8921321868897,315.50575151047786L1082.9332654953002,316.0851707330548L1105.974398803711,315.5186533387309L1129.0155321121215,316.0271937244084L1152.0566654205322,314.980843974203L1175.0977987289427,315.35201465049994L1198.1389320373535,316.1367758802407L1221.1800653457642,315.9713348940449L1244.221198654175,316.13181613763544" fill="none"></path></g><g><path style="fill: none;" stroke="rgb(51, 187, 238)" stroke-width="2px" d="M115.20566654205322,297.7852192715425L138.24679985046387,307.84676103992285L161.28793315887452,310.8782380216662L184.32906646728514,312.4978235598904L207.3701997756958,313.5134034135049L230.41133308410645,314.69746074201936L253.45246639251707,314.9930505721608L276.49359970092775,314.8893204794374L299.53473300933837,315.3374213117775L322.57586631774905,315.2557609907343L345.61699962615967,315.62865783072397L368.6581329345703,315.48977637447064L391.69926624298097,316.1458961754856L414.7403995513916,315.6655721769965L437.7815328598022,315.80568382268194L460.8226661682129,315.90346222427905L483.8637994766235,315.7319655872866L506.90493278503413,316.19769191540036L529.9460660934449,315.61821204968237L552.9871994018555,315.4036306268181L576.0283327102661,316.2230385825224L599.0694660186767,315.86043808154824L622.1105993270875,315.57238965915855L645.1517326354981,315.79974729234095L668.1928659439087,316.2266815026368L691.2339992523193,315.5058533043217L714.2751325607301,315.7020143730996L737.3162658691406,316.08940492379423L760.3573991775513,315.8720165898311L783.3985324859619,316.34821035725105L806.4396657943726,315.3196138865808L829.4807991027832,315.53915288622386L852.5219324111939,315.6400933944601L875.5630657196044,315.69547357717477L898.6041990280152,315.45851916692516L921.6453323364258,316.4910726025473L944.6864656448364,315.4312968940843L967.727598953247,315.96631450829864L990.7687322616578,315.79794315889546L1013.8098655700683,315.6239904746915L1036.850998878479,316.27351966577277L1059.8921321868897,315.64017136421285L1082.9332654953002,316.07386078725364L1105.974398803711,315.8498385268276L1129.0155321121215,316.02678005155354L1152.0566654205322,315.92720617981684L1175.0977987289427,315.83300355771377L1198.1389320373535,316.3359539452846L1221.1800653457642,315.5116967041248L1244.221198654175,315.57221206138837" fill="none"></path></g></g></g></g></g><g><g opacity="0.0736406"><span fill="rgb(0, 0, 0)" stroke="none" stroke-width="1px">Alt + Scroll to Zoom</span></g></g></g><g transform="translate(51, 377)" clip-path="url(#clip_1)"><clipPath id="clip_1"><rect width="1382" height="22"></rect></clipPath><g><g><line x1="0" y1="0" x2="0" y2="5" style="visibility: inherit;" fill="rgb(0, 0, 0)" stroke="rgb(204, 204, 204)" stroke-width="1px"></line><line x1="115.20566654205322" y1="0" x2="115.20566654205322" y2="5" style="visibility: inherit;" fill="rgb(0, 0, 0)" stroke="rgb(204, 204, 204)" stroke-width="1px"></line><line x1="230.41133308410645" y1="0" x2="230.41133308410645" y2="5" style="visibility: inherit;" fill="rgb(0, 0, 0)" stroke="rgb(204, 204, 204)" stroke-width="1px"></line><line x1="345.61699962615967" y1="0" x2="345.61699962615967" y2="5" style="visibility: inherit;" fill="rgb(0, 0, 0)" stroke="rgb(204, 204, 204)" stroke-width="1px"></line><line x1="460.8226661682129" y1="0" x2="460.8226661682129" y2="5" style="visibility: inherit;" fill="rgb(0, 0, 0)" stroke="rgb(204, 204, 204)" stroke-width="1px"></line><line x1="576.0283327102661" y1="0" x2="576.0283327102661" y2="5" style="visibility: inherit;" fill="rgb(0, 0, 0)" stroke="rgb(204, 204, 204)" stroke-width="1px"></line><line x1="691.2339992523193" y1="0" x2="691.2339992523193" y2="5" style="visibility: inherit;" fill="rgb(0, 0, 0)" stroke="rgb(204, 204, 204)" stroke-width="1px"></line><line x1="806.4396657943726" y1="0" x2="806.4396657943726" y2="5" style="visibility: inherit;" fill="rgb(0, 0, 0)" stroke="rgb(204, 204, 204)" stroke-width="1px"></line><line x1="921.6453323364258" y1="0" x2="921.6453323364258" y2="5" style="visibility: inherit;" fill="rgb(0, 0, 0)" stroke="rgb(204, 204, 204)" stroke-width="1px"></line><line x1="1036.850998878479" y1="0" x2="1036.850998878479" y2="5" style="visibility: inherit;" fill="rgb(0, 0, 0)" stroke="rgb(204, 204, 204)" stroke-width="1px"></line><line x1="1152.0566654205322" y1="0" x2="1152.0566654205322" y2="5" style="visibility: inherit;" fill="rgb(0, 0, 0)" stroke="rgb(204, 204, 204)" stroke-width="1px"></line><line x1="1267.2623319625854" y1="0" x2="1267.2623319625854" y2="5" style="visibility: inherit;" fill="rgb(0, 0, 0)" stroke="rgb(204, 204, 204)" stroke-width="1px"></line><line x1="1382.4679985046387" y1="0" x2="1382.4679985046387" y2="5" style="visibility: inherit;" fill="rgb(0, 0, 0)" stroke="rgb(204, 204, 204)" stroke-width="1px"></line></g><g transform="translate(0, 8)"><text style="text-anchor: middle; visibility: hidden; font-family: Roboto, sans-serif; font-size: 12px; font-weight: 200;" x="0" y="0" dx="0em" dy="0.95em" fill="rgb(50, 49, 63)" stroke="none" stroke-width="1px">-5</text><text style="text-anchor: middle; visibility: inherit; font-family: Roboto, sans-serif; font-size: 12px; font-weight: 200;" x="115.20566654205322" y="0" dx="0em" dy="0.95em" fill="rgb(50, 49, 63)" stroke="none" stroke-width="1px">0</text><text style="text-anchor: middle; visibility: inherit; font-family: Roboto, sans-serif; font-size: 12px; font-weight: 200;" x="230.41133308410645" y="0" dx="0em" dy="0.95em" fill="rgb(50, 49, 63)" stroke="none" stroke-width="1px">5</text><text style="text-anchor: middle; visibility: inherit; font-family: Roboto, sans-serif; font-size: 12px; font-weight: 200;" x="345.61699962615967" y="0" dx="0em" dy="0.95em" fill="rgb(50, 49, 63)" stroke="none" stroke-width="1px">10</text><text style="text-anchor: middle; visibility: inherit; font-family: Roboto, sans-serif; font-size: 12px; font-weight: 200;" x="460.8226661682129" y="0" dx="0em" dy="0.95em" fill="rgb(50, 49, 63)" stroke="none" stroke-width="1px">15</text><text style="text-anchor: middle; visibility: inherit; font-family: Roboto, sans-serif; font-size: 12px; font-weight: 200;" x="576.0283327102661" y="0" dx="0em" dy="0.95em" fill="rgb(50, 49, 63)" stroke="none" stroke-width="1px">20</text><text style="text-anchor: middle; visibility: inherit; font-family: Roboto, sans-serif; font-size: 12px; font-weight: 200;" x="691.2339992523193" y="0" dx="0em" dy="0.95em" fill="rgb(50, 49, 63)" stroke="none" stroke-width="1px">25</text><text style="text-anchor: middle; visibility: inherit; font-family: Roboto, sans-serif; font-size: 12px; font-weight: 200;" x="806.4396657943726" y="0" dx="0em" dy="0.95em" fill="rgb(50, 49, 63)" stroke="none" stroke-width="1px">30</text><text style="text-anchor: middle; visibility: inherit; font-family: Roboto, sans-serif; font-size: 12px; font-weight: 200;" x="921.6453323364258" y="0" dx="0em" dy="0.95em" fill="rgb(50, 49, 63)" stroke="none" stroke-width="1px">35</text><text style="text-anchor: middle; visibility: inherit; font-family: Roboto, sans-serif; font-size: 12px; font-weight: 200;" x="1036.850998878479" y="0" dx="0em" dy="0.95em" fill="rgb(50, 49, 63)" stroke="none" stroke-width="1px">40</text><text style="text-anchor: middle; visibility: inherit; font-family: Roboto, sans-serif; font-size: 12px; font-weight: 200;" x="1152.0566654205322" y="0" dx="0em" dy="0.95em" fill="rgb(50, 49, 63)" stroke="none" stroke-width="1px">45</text><text style="text-anchor: middle; visibility: inherit; font-family: Roboto, sans-serif; font-size: 12px; font-weight: 200;" x="1267.2623319625854" y="0" dx="0em" dy="0.95em" fill="rgb(50, 49, 63)" stroke="none" stroke-width="1px">50</text><text style="text-anchor: middle; visibility: hidden; font-family: Roboto, sans-serif; font-size: 12px; font-weight: 200;" x="1382.4679985046387" y="0" dx="0em" dy="0.95em" fill="rgb(50, 49, 63)" stroke="none" stroke-width="1px">55</text></g><line x1="0" y1="0" x2="1382.4679985046387" y2="0" fill="rgb(0, 0, 0)" stroke="rgb(204, 204, 204)" stroke-width="1px"></line></g></g></g></g></svg>