<svg viewBox="0 0 1434 400" xmlns="http://www.w3.org/2000/svg"><g><g><g><g><g><line x1="51.53200149536133" y1="377.8999996185303" x2="46.53200149536133" y2="377.8999996185303" style="visibility: inherit;" fill="rgb(0, 0, 0)" stroke="rgb(204, 204, 204)" stroke-width="1px"></line><line x1="51.53200149536133" y1="340.10999965667764" x2="46.53200149536133" y2="340.10999965667764" style="visibility: inherit;" fill="rgb(0, 0, 0)" stroke="rgb(204, 204, 204)" stroke-width="1px"></line><line x1="51.53200149536133" y1="302.31999969482456" x2="46.53200149536133" y2="302.31999969482456" style="visibility: inherit;" fill="rgb(0, 0, 0)" stroke="rgb(204, 204, 204)" stroke-width="1px"></line><line x1="51.53200149536133" y1="264.52999973297153" x2="46.53200149536133" y2="264.52999973297153" style="visibility: inherit;" fill="rgb(0, 0, 0)" stroke="rgb(204, 204, 204)" stroke-width="1px"></line><line x1="51.53200149536133" y1="226.73999977111842" x2="46.53200149536133" y2="226.73999977111842" style="visibility: inherit;" fill="rgb(0, 0, 0)" stroke="rgb(204, 204, 204)" stroke-width="1px"></line><line x1="51.53200149536133" y1="188.94999980926534" x2="46.53200149536133" y2="188.94999980926534" style="visibility: inherit;" fill="rgb(0, 0, 0)" stroke="rgb(204, 204, 204)" stroke-width="1px"></line><line x1="51.53200149536133" y1="151.15999984741228" x2="46.53200149536133" y2="151.15999984741228" style="visibility: inherit;" fill="rgb(0, 0, 0)" stroke="rgb(204, 204, 204)" stroke-width="1px"></line><line x1="51.53200149536133" y1="113.36999988555922" x2="46.53200149536133" y2="113.36999988555922" style="visibility: inherit;" fill="rgb(0, 0, 0)" stroke="rgb(204, 204, 204)" stroke-width="1px"></line><line x1="51.53200149536133" y1="75.57999992370613" x2="46.53200149536133" y2="75.57999992370613" style="visibility: inherit;" fill="rgb(0, 0, 0)" stroke="rgb(204, 204, 204)" stroke-width="1px"></line><line x1="51.53200149536133" y1="37.78999996185306" x2="46.53200149536133" y2="37.78999996185306" style="visibility: inherit;" fill="rgb(0, 0, 0)" stroke="rgb(204, 204, 204)" stroke-width="1px"></line><line x1="51.53200149536133" y1="0" x2="46.53200149536133" y2="0" style="visibility: inherit;" fill="rgb(0, 0, 0)" stroke="rgb(204, 204, 204)" stroke-width="1px"></line></g><g transform="translate(41.53200149536133, 0)"><text style="text-anchor: end; visibility: hidden; font-family: Roboto, sans-serif; font-size: 12px; font-weight: 200;" x="0" y="377.8999996185303" dx="0em" dy="0.3em" fill="rgb(50, 49, 63)" stroke="none" stroke-width="1px">0.81</text><text style="text-anchor: end; visibility: inherit; font-family: Roboto, sans-serif; font-size: 12px; font-weight: 200;" x="0" y="340.10999965667764" dx="0em" dy="0.3em" fill="rgb(50, 49, 63)" stroke="none" stroke-width="1px">0.82</text><text style="text-anchor: end; visibility: inherit; font-family: Roboto, sans-serif; font-size: 12px; font-weight: 200;" x="0" y="302.31999969482456" dx="0em" dy="0.3em" fill="rgb(50, 49, 63)" stroke="none" stroke-width="1px">0.83</text><text style="text-anchor: end; visibility: inherit; font-family: Roboto, sans-serif; font-size: 12px; font-weight: 200;" x="0" y="264.52999973297153" dx="0em" dy="0.3em" fill="rgb(50, 49, 63)" stroke="none" stroke-width="1px">0.84</text><text style="text-anchor: end; visibility: inherit; font-family: Roboto, sans-serif; font-size: 12px; font-weight: 200;" x="0" y="226.73999977111842" dx="0em" dy="0.3em" fill="rgb(50, 49, 63)" stroke="none" stroke-width="1px">0.85</text><text style="text-anchor: end; visibility: inherit; font-family: Roboto, sans-serif; font-size: 12px; font-weight: 200;" x="0" y="188.94999980926534" dx="0em" dy="0.3em" fill="rgb(50, 49, 63)" stroke="none" stroke-width="1px">0.86</text><text style="text-anchor: end; visibility: inherit; font-family: Roboto, sans-serif; font-size: 12px; font-weight: 200;" x="0" y="151.15999984741228" dx="0em" dy="0.3em" fill="rgb(50, 49, 63)" stroke="none" stroke-width="1px">0.87</text><text style="text-anchor: end; visibility: inherit; font-family: Roboto, sans-serif; font-size: 12px; font-weight: 200;" x="0" y="113.36999988555922" dx="0em" dy="0.3em" fill="rgb(50, 49, 63)" stroke="none" stroke-width="1px">0.88</text><text style="text-anchor: end; visibility: inherit; font-family: Roboto, sans-serif; font-size: 12px; font-weight: 200;" x="0" y="75.57999992370613" dx="0em" dy="0.3em" fill="rgb(50, 49, 63)" stroke="none" stroke-width="1px">0.89</text><text style="text-anchor: end; visibility: inherit; font-family: Roboto, sans-serif; font-size: 12px; font-weight: 200;" x="0" y="37.78999996185306" dx="0em" dy="0.3em" fill="rgb(50, 49, 63)" stroke="none" stroke-width="1px">0.9</text><text style="text-anchor: end; visibility: hidden; font-family: Roboto, sans-serif; font-size: 12px; font-weight: 200;" x="0" y="0" dx="0em" dy="0.3em" fill="rgb(50, 49, 63)" stroke="none" stroke-width="1px">0.91</text></g><line x1="51.53200149536133" y1="0" x2="51.53200149536133" y2="377.8999996185303" fill="rgb(0, 0, 0)" stroke="rgb(204, 204, 204)" stroke-width="1px"></line></g></g><g transform="translate(51, 0)" clip-path="url(#clip_0)"><clipPath id="clip_0"><rect width="1382" height="377"></rect></clipPath><g><g><g><line x1="0" y1="0" x2="0" y2="377.8999996185303" fill="rgb(0, 0, 0)" stroke="rgb(60, 60, 60)" stroke-width="1px" opacity="0.25"></line><line x1="115.20566654205322" y1="0" x2="115.20566654205322" y2="377.8999996185303" fill="rgb(0, 0, 0)" stroke="rgb(60, 60, 60)" stroke-width="1px" opacity="0.25"></line><line x1="230.41133308410645" y1="0" x2="230.41133308410645" y2="377.8999996185303" fill="rgb(0, 0, 0)" stroke="rgb(60, 60, 60)" stroke-width="1px" opacity="0.25"></line><line x1="345.61699962615967" y1="0" x2="345.61699962615967" y2="377.8999996185303" fill="rgb(0, 0, 0)" stroke="rgb(60, 60, 60)" stroke-width="1px" opacity="0.25"></line><line x1="460.8226661682129" y1="0" x2="460.8226661682129" y2="377.8999996185303" fill="rgb(0, 0, 0)" stroke="rgb(60, 60, 60)" stroke-width="1px" opacity="0.25"></line><line x1="576.0283327102661" y1="0" x2="576.0283327102661" y2="377.8999996185303" fill="rgb(0, 0, 0)" stroke="rgb(60, 60, 60)" stroke-width="1px" opacity="0.25"></line><line x1="691.2339992523193" y1="0" x2="691.2339992523193" y2="377.8999996185303" fill="rgb(0, 0, 0)" stroke="rgb(60, 60, 60)" stroke-width="1px" opacity="0.25"></line><line x1="806.4396657943726" y1="0" x2="806.4396657943726" y2="377.8999996185303" fill="rgb(0, 0, 0)" stroke="rgb(60, 60, 60)" stroke-width="1px" opacity="0.25"></line><line x1="921.6453323364258" y1="0" x2="921.6453323364258" y2="377.8999996185303" fill="rgb(0, 0, 0)" stroke="rgb(60, 60, 60)" stroke-width="1px" opacity="0.25"></line><line x1="1036.850998878479" y1="0" x2="1036.850998878479" y2="377.8999996185303" fill="rgb(0, 0, 0)" stroke="rgb(60, 60, 60)" stroke-width="1px" opacity="0.25"></line><line x1="1152.0566654205322" y1="0" x2="1152.0566654205322" y2="377.8999996185303" fill="rgb(0, 0, 0)" stroke="rgb(60, 60, 60)" stroke-width="1px" opacity="0.25"></line><line x1="1267.2623319625854" y1="0" x2="1267.2623319625854" y2="377.8999996185303" fill="rgb(0, 0, 0)" stroke="rgb(60, 60, 60)" stroke-width="1px" opacity="0.25"></line><line x1="1382.4679985046387" y1="0" x2="1382.4679985046387" y2="377.8999996185303" fill="rgb(0, 0, 0)" stroke="rgb(60, 60, 60)" stroke-width="1px" opacity="0.25"></line></g><g><line x1="0" y1="377.8999996185303" x2="1382.4679985046387" y2="377.8999996185303" fill="rgb(0, 0, 0)" stroke="rgb(60, 60, 60)" stroke-width="1px" opacity="0.25"></line><line x1="0" y1="340.10999965667764" x2="1382.4679985046387" y2="340.10999965667764" fill="rgb(0, 0, 0)" stroke="rgb(60, 60, 60)" stroke-width="1px" opacity="0.25"></line><line x1="0" y1="302.31999969482456" x2="1382.4679985046387" y2="302.31999969482456" fill="rgb(0, 0, 0)" stroke="rgb(60, 60, 60)" stroke-width="1px" opacity="0.25"></line><line x1="0" y1="264.52999973297153" x2="1382.4679985046387" y2="264.52999973297153" fill="rgb(0, 0, 0)" stroke="rgb(60, 60, 60)" stroke-width="1px" opacity="0.25"></line><line x1="0" y1="226.73999977111842" x2="1382.4679985046387" y2="226.73999977111842" fill="rgb(0, 0, 0)" stroke="rgb(60, 60, 60)" stroke-width="1px" opacity="0.25"></line><line x1="0" y1="188.94999980926534" x2="1382.4679985046387" y2="188.94999980926534" fill="rgb(0, 0, 0)" stroke="rgb(60, 60, 60)" stroke-width="1px" opacity="0.25"></line><line x1="0" y1="151.15999984741228" x2="1382.4679985046387" y2="151.15999984741228" fill="rgb(0, 0, 0)" stroke="rgb(60, 60, 60)" stroke-width="1px" opacity="0.25"></line><line x1="0" y1="113.36999988555922" x2="1382.4679985046387" y2="113.36999988555922" fill="rgb(0, 0, 0)" stroke="rgb(60, 60, 60)" stroke-width="1px" opacity="0.25"></line><line x1="0" y1="75.57999992370613" x2="1382.4679985046387" y2="75.57999992370613" fill="rgb(0, 0, 0)" stroke="rgb(60, 60, 60)" stroke-width="1px" opacity="0.25"></line><line x1="0" y1="37.78999996185306" x2="1382.4679985046387" y2="37.78999996185306" fill="rgb(0, 0, 0)" stroke="rgb(60, 60, 60)" stroke-width="1px" opacity="0.25"></line><line x1="0" y1="0" x2="1382.4679985046387" y2="0" fill="rgb(0, 0, 0)" stroke="rgb(60, 60, 60)" stroke-width="1px" opacity="0.25"></line></g></g></g><g><g><line x1="0" y1="3438.889996528627" x2="1382.4679985046387" y2="3438.889996528627" fill="rgb(0, 0, 0)" stroke="rgb(153, 153, 153)" stroke-width="1.5px"></line></g></g><g><g><line x1="115.20566654205322" y1="0" x2="115.20566654205322" y2="377.8999996185303" fill="rgb(0, 0, 0)" stroke="rgb(153, 153, 153)" stroke-width="1.5px"></line></g></g><g><g><g><g><g><path style="fill: none;" stroke="rgb(0, 119, 187)" stroke-width="2px" d="M115.20566654205322,379.7458811884369L138.24679985046387,278.7133859705805L161.28793315887452,155.33739326055382L184.32906646728514,127.16475576677196L207.3701997756958,89.277710838796L230.41133308410645,83.4487960831367L253.45246639251707,77.62010657342978L276.49359970092775,65.96250230806356L299.53473300933837,65.96250230806356L322.57586631774905,62.07655913762404L345.61699962615967,62.07655913762404L368.6581329345703,63.04804493023392L391.69926624298097,61.105073345014155L414.7403995513916,64.99101651545368L437.7815328598022,65.96250230806356L460.8226661682129,64.99101651545368L483.8637994766235,64.99101651545368L506.90493278503413,64.99101651545368L529.9460660934449,64.99101651545368L552.9871994018555,64.99101651545368L576.0283327102661,64.99101651545368L599.0694660186767,64.99101651545368L622.1105993270875,64.99101651545368L645.1517326354981,64.99101651545368L668.1928659439087,64.99101651545368L691.2339992523193,64.99101651545368L714.2751325607301,64.99101651545368L737.3162658691406,64.99101651545368L760.3573991775513,64.99101651545368L783.3985324859619,64.99101651545368L806.4396657943726,64.99101651545368L829.4807991027832,64.99101651545368L852.5219324111939,64.99101651545368L875.5630657196044,64.99101651545368L898.6041990280152,64.99101651545368L921.6453323364258,64.99101651545368L944.6864656448364,64.99101651545368L967.727598953247,64.99101651545368L990.7687322616578,64.99101651545368L1013.8098655700683,64.99101651545368L1036.850998878479,64.99101651545368L1059.8921321868897,64.99101651545368L1082.9332654953002,64.99101651545368L1105.974398803711,64.99101651545368L1129.0155321121215,64.99101651545368L1152.0566654205322,64.99101651545368L1175.0977987289427,64.99101651545368L1198.1389320373535,64.99101651545368L1221.1800653457642,64.99101651545368L1244.221198654175,64.99101651545368" fill="none"></path></g><g><path style="fill: none;" stroke="rgb(255, 112, 67)" stroke-width="2px" d="M115.20566654205322,303.0000802939228L138.24679985046387,204.88204245389596L161.28793315887452,145.622535334455L184.32906646728514,144.6512747877975L207.3701997756958,138.8223600321382L230.41133308410645,112.59291936952847L253.45246639251707,101.90680089677214L276.49359970092775,104.82103302864941L299.53473300933837,97.04937193372272L322.57586631774905,92.19216821662565L345.61699962615967,94.13491455589303L368.6581329345703,93.16342876328315L391.69926624298097,91.22068242401576L414.7403995513916,103.84954723603953L437.7815328598022,100.93531510416226L460.8226661682129,93.16342876328315L483.8637994766235,80.53456395125943L506.90493278503413,95.10640034850296L529.9460660934449,90.24919663140588L552.9871994018555,76.6486207808199L576.0283327102661,98.99234351894249L599.0694660186767,92.19216821662565L622.1105993270875,98.99234351894249L645.1517326354981,88.30622504618611L668.1928659439087,90.24919663140588L691.2339992523193,97.04937193372272L714.2751325607301,99.96382931155237L737.3162658691406,94.13491455589303L760.3573991775513,85.39176766835647L783.3985324859619,95.10640034850296L806.4396657943726,94.13491455589303L829.4807991027832,108.70697619908894L852.5219324111939,103.84954723603953L875.5630657196044,86.36325346096635L898.6041990280152,96.07788614111284L921.6453323364258,85.39176766835647L944.6864656448364,87.33473925357623L967.727598953247,104.82103302864941L990.7687322616578,94.13491455589303L1013.8098655700683,98.02085772633261L1036.850998878479,107.73549040647906L1059.8921321868897,95.10640034850296L1082.9332654953002,86.36325346096635L1105.974398803711,96.07788614111284L1129.0155321121215,91.22068242401576L1152.0566654205322,89.277710838796L1175.0977987289427,90.24919663140588L1198.1389320373535,87.33473925357623L1221.1800653457642,78.59159236603966L1244.221198654175,89.277710838796" fill="none"></path></g><g><path style="fill: none;" stroke="rgb(0, 153, 136)" stroke-width="2px" d="M115.20566654205322,285.5135612728973L138.24679985046387,186.42426288621294L161.28793315887452,138.8223600321382L184.32906646728514,132.99367052243127L207.3701997756958,135.90790265430854L230.41133308410645,116.47863729401563L253.45246639251707,100.93531510416226L276.49359970092775,113.56440516213836L299.53473300933837,91.22068242401576L322.57586631774905,111.62143357691859L345.61699962615967,89.277710838796L368.6581329345703,86.36325346096635L391.69926624298097,88.30622504618611L414.7403995513916,88.30622504618611L437.7815328598022,85.39176766835647L460.8226661682129,86.36325346096635L483.8637994766235,92.19216821662565L506.90493278503413,98.99234351894249L529.9460660934449,107.73549040647906L552.9871994018555,90.24919663140588L576.0283327102661,87.33473925357623L599.0694660186767,105.79251882125929L622.1105993270875,97.04937193372272L645.1517326354981,93.16342876328315L668.1928659439087,93.16342876328315L691.2339992523193,74.70564919560013L714.2751325607301,81.50604974386931L737.3162658691406,92.19216821662565L760.3573991775513,85.39176766835647L783.3985324859619,69.8484454785031L806.4396657943726,101.90680089677214L829.4807991027832,96.07788614111284L852.5219324111939,85.39176766835647L875.5630657196044,88.30622504618611L898.6041990280152,91.22068242401576L921.6453323364258,89.277710838796L944.6864656448364,88.30622504618611L967.727598953247,82.47731029052682L990.7687322616578,96.07788614111284L1013.8098655700683,86.36325346096635L1036.850998878479,104.82103302864941L1059.8921321868897,77.62010657342978L1082.9332654953002,89.277710838796L1105.974398803711,97.04937193372272L1129.0155321121215,99.96382931155237L1152.0566654205322,103.84954723603953L1175.0977987289427,80.53456395125943L1198.1389320373535,94.13491455589303L1221.1800653457642,99.96382931155237L1244.221198654175,81.50604974386931" fill="none"></path></g><g><path style="fill: none;" stroke="rgb(51, 187, 238)" stroke-width="2px" d="M115.20566654205322,284.5420754802874L138.24679985046387,166.02351173331016L161.28793315887452,145.622535334455L184.32906646728514,129.10772735199174L207.3701997756958,97.04937193372272L230.41133308410645,99.96382931155237L253.45246639251707,108.70697619908894L276.49359970092775,85.39176766835647L299.53473300933837,100.93531510416226L322.57586631774905,83.4487960831367L345.61699962615967,74.70564919560013L368.6581329345703,77.62010657342978L391.69926624298097,77.62010657342978L414.7403995513916,84.42028187574658L437.7815328598022,78.59159236603966L460.8226661682129,78.59159236603966L483.8637994766235,81.50604974386931L506.90493278503413,70.81993127111298L529.9460660934449,76.6486207808199L552.9871994018555,77.62010657342978L576.0283327102661,76.6486207808199L599.0694660186767,83.4487960831367L622.1105993270875,62.07655913762404L645.1517326354981,81.50604974386931L668.1928659439087,74.70564919560013L691.2339992523193,67.90547389328333L714.2751325607301,72.76267761038036L737.3162658691406,76.6486207808199L760.3573991775513,78.59159236603966L783.3985324859619,83.4487960831367L806.4396657943726,74.70564919560013L829.4807991027832,76.6486207808199L852.5219324111939,74.70564919560013L875.5630657196044,76.6486207808199L898.6041990280152,73.73416340299025L921.6453323364258,76.6486207808199L944.6864656448364,76.6486207808199L967.727598953247,61.105073345014155L990.7687322616578,81.50604974386931L1013.8098655700683,85.39176766835647L1036.850998878479,77.62010657342978L1059.8921321868897,83.4487960831367L1082.9332654953002,79.56307815864955L1105.974398803711,83.4487960831367L1129.0155321121215,80.53456395125943L1152.0566654205322,77.62010657342978L1175.0977987289427,70.81993127111298L1198.1389320373535,83.4487960831367L1221.1800653457642,70.81993127111298L1244.221198654175,79.56307815864955" fill="none"></path></g></g></g></g></g><g><g opacity="0.411322"><span fill="rgb(0, 0, 0)" stroke="none" stroke-width="1px">Alt + Scroll to Zoom</span></g></g></g><g transform="translate(51, 377)" clip-path="url(#clip_1)"><clipPath id="clip_1"><rect width="1382" height="22"></rect></clipPath><g><g><line x1="0" y1="0" x2="0" y2="5" style="visibility: inherit;" fill="rgb(0, 0, 0)" stroke="rgb(204, 204, 204)" stroke-width="1px"></line><line x1="115.20566654205322" y1="0" x2="115.20566654205322" y2="5" style="visibility: inherit;" fill="rgb(0, 0, 0)" stroke="rgb(204, 204, 204)" stroke-width="1px"></line><line x1="230.41133308410645" y1="0" x2="230.41133308410645" y2="5" style="visibility: inherit;" fill="rgb(0, 0, 0)" stroke="rgb(204, 204, 204)" stroke-width="1px"></line><line x1="345.61699962615967" y1="0" x2="345.61699962615967" y2="5" style="visibility: inherit;" fill="rgb(0, 0, 0)" stroke="rgb(204, 204, 204)" stroke-width="1px"></line><line x1="460.8226661682129" y1="0" x2="460.8226661682129" y2="5" style="visibility: inherit;" fill="rgb(0, 0, 0)" stroke="rgb(204, 204, 204)" stroke-width="1px"></line><line x1="576.0283327102661" y1="0" x2="576.0283327102661" y2="5" style="visibility: inherit;" fill="rgb(0, 0, 0)" stroke="rgb(204, 204, 204)" stroke-width="1px"></line><line x1="691.2339992523193" y1="0" x2="691.2339992523193" y2="5" style="visibility: inherit;" fill="rgb(0, 0, 0)" stroke="rgb(204, 204, 204)" stroke-width="1px"></line><line x1="806.4396657943726" y1="0" x2="806.4396657943726" y2="5" style="visibility: inherit;" fill="rgb(0, 0, 0)" stroke="rgb(204, 204, 204)" stroke-width="1px"></line><line x1="921.6453323364258" y1="0" x2="921.6453323364258" y2="5" style="visibility: inherit;" fill="rgb(0, 0, 0)" stroke="rgb(204, 204, 204)" stroke-width="1px"></line><line x1="1036.850998878479" y1="0" x2="1036.850998878479" y2="5" style="visibility: inherit;" fill="rgb(0, 0, 0)" stroke="rgb(204, 204, 204)" stroke-width="1px"></line><line x1="1152.0566654205322" y1="0" x2="1152.0566654205322" y2="5" style="visibility: inherit;" fill="rgb(0, 0, 0)" stroke="rgb(204, 204, 204)" stroke-width="1px"></line><line x1="1267.2623319625854" y1="0" x2="1267.2623319625854" y2="5" style="visibility: inherit;" fill="rgb(0, 0, 0)" stroke="rgb(204, 204, 204)" stroke-width="1px"></line><line x1="1382.4679985046387" y1="0" x2="1382.4679985046387" y2="5" style="visibility: inherit;" fill="rgb(0, 0, 0)" stroke="rgb(204, 204, 204)" stroke-width="1px"></line></g><g transform="translate(0, 8)"><text style="text-anchor: middle; visibility: hidden; font-family: Roboto, sans-serif; font-size: 12px; font-weight: 200;" x="0" y="0" dx="0em" dy="0.95em" fill="rgb(50, 49, 63)" stroke="none" stroke-width="1px">-5</text><text style="text-anchor: middle; visibility: inherit; font-family: Roboto, sans-serif; font-size: 12px; font-weight: 200;" x="115.20566654205322" y="0" dx="0em" dy="0.95em" fill="rgb(50, 49, 63)" stroke="none" stroke-width="1px">0</text><text style="text-anchor: middle; visibility: inherit; font-family: Roboto, sans-serif; font-size: 12px; font-weight: 200;" x="230.41133308410645" y="0" dx="0em" dy="0.95em" fill="rgb(50, 49, 63)" stroke="none" stroke-width="1px">5</text><text style="text-anchor: middle; visibility: inherit; font-family: Roboto, sans-serif; font-size: 12px; font-weight: 200;" x="345.61699962615967" y="0" dx="0em" dy="0.95em" fill="rgb(50, 49, 63)" stroke="none" stroke-width="1px">10</text><text style="text-anchor: middle; visibility: inherit; font-family: Roboto, sans-serif; font-size: 12px; font-weight: 200;" x="460.8226661682129" y="0" dx="0em" dy="0.95em" fill="rgb(50, 49, 63)" stroke="none" stroke-width="1px">15</text><text style="text-anchor: middle; visibility: inherit; font-family: Roboto, sans-serif; font-size: 12px; font-weight: 200;" x="576.0283327102661" y="0" dx="0em" dy="0.95em" fill="rgb(50, 49, 63)" stroke="none" stroke-width="1px">20</text><text style="text-anchor: middle; visibility: inherit; font-family: Roboto, sans-serif; font-size: 12px; font-weight: 200;" x="691.2339992523193" y="0" dx="0em" dy="0.95em" fill="rgb(50, 49, 63)" stroke="none" stroke-width="1px">25</text><text style="text-anchor: middle; visibility: inherit; font-family: Roboto, sans-serif; font-size: 12px; font-weight: 200;" x="806.4396657943726" y="0" dx="0em" dy="0.95em" fill="rgb(50, 49, 63)" stroke="none" stroke-width="1px">30</text><text style="text-anchor: middle; visibility: inherit; font-family: Roboto, sans-serif; font-size: 12px; font-weight: 200;" x="921.6453323364258" y="0" dx="0em" dy="0.95em" fill="rgb(50, 49, 63)" stroke="none" stroke-width="1px">35</text><text style="text-anchor: middle; visibility: inherit; font-family: Roboto, sans-serif; font-size: 12px; font-weight: 200;" x="1036.850998878479" y="0" dx="0em" dy="0.95em" fill="rgb(50, 49, 63)" stroke="none" stroke-width="1px">40</text><text style="text-anchor: middle; visibility: inherit; font-family: Roboto, sans-serif; font-size: 12px; font-weight: 200;" x="1152.0566654205322" y="0" dx="0em" dy="0.95em" fill="rgb(50, 49, 63)" stroke="none" stroke-width="1px">45</text><text style="text-anchor: middle; visibility: inherit; font-family: Roboto, sans-serif; font-size: 12px; font-weight: 200;" x="1267.2623319625854" y="0" dx="0em" dy="0.95em" fill="rgb(50, 49, 63)" stroke="none" stroke-width="1px">50</text><text style="text-anchor: middle; visibility: hidden; font-family: Roboto, sans-serif; font-size: 12px; font-weight: 200;" x="1382.4679985046387" y="0" dx="0em" dy="0.95em" fill="rgb(50, 49, 63)" stroke="none" stroke-width="1px">55</text></g><line x1="0" y1="0" x2="1382.4679985046387" y2="0" fill="rgb(0, 0, 0)" stroke="rgb(204, 204, 204)" stroke-width="1px"></line></g></g></g></g></svg>