<svg viewBox="0 0 1434 400" xmlns="http://www.w3.org/2000/svg"><g><g><g><g><g><line x1="51.41600036621094" y1="377.95999908447266" x2="46.41600036621094" y2="377.95999908447266" style="visibility: inherit;" fill="rgb(0, 0, 0)" stroke="rgb(204, 204, 204)" stroke-width="1px"></line><line x1="51.41600036621094" y1="348.8861530010517" x2="46.41600036621094" y2="348.8861530010517" style="visibility: inherit;" fill="rgb(0, 0, 0)" stroke="rgb(204, 204, 204)" stroke-width="1px"></line><line x1="51.41600036621094" y1="319.8123069176307" x2="46.41600036621094" y2="319.8123069176307" style="visibility: inherit;" fill="rgb(0, 0, 0)" stroke="rgb(204, 204, 204)" stroke-width="1px"></line><line x1="51.41600036621094" y1="290.7384608342097" x2="46.41600036621094" y2="290.7384608342097" style="visibility: inherit;" fill="rgb(0, 0, 0)" stroke="rgb(204, 204, 204)" stroke-width="1px"></line><line x1="51.41600036621094" y1="261.66461475078876" x2="46.41600036621094" y2="261.66461475078876" style="visibility: inherit;" fill="rgb(0, 0, 0)" stroke="rgb(204, 204, 204)" stroke-width="1px"></line><line x1="51.41600036621094" y1="232.5907686673678" x2="46.41600036621094" y2="232.5907686673678" style="visibility: inherit;" fill="rgb(0, 0, 0)" stroke="rgb(204, 204, 204)" stroke-width="1px"></line><line x1="51.41600036621094" y1="203.51692258394684" x2="46.41600036621094" y2="203.51692258394684" style="visibility: inherit;" fill="rgb(0, 0, 0)" stroke="rgb(204, 204, 204)" stroke-width="1px"></line><line x1="51.41600036621094" y1="174.44307650052585" x2="46.41600036621094" y2="174.44307650052585" style="visibility: inherit;" fill="rgb(0, 0, 0)" stroke="rgb(204, 204, 204)" stroke-width="1px"></line><line x1="51.41600036621094" y1="145.3692304171049" x2="46.41600036621094" y2="145.3692304171049" style="visibility: inherit;" fill="rgb(0, 0, 0)" stroke="rgb(204, 204, 204)" stroke-width="1px"></line><line x1="51.41600036621094" y1="116.2953843336839" x2="46.41600036621094" y2="116.2953843336839" style="visibility: inherit;" fill="rgb(0, 0, 0)" stroke="rgb(204, 204, 204)" stroke-width="1px"></line><line x1="51.41600036621094" y1="87.22153825026295" x2="46.41600036621094" y2="87.22153825026295" style="visibility: inherit;" fill="rgb(0, 0, 0)" stroke="rgb(204, 204, 204)" stroke-width="1px"></line><line x1="51.41600036621094" y1="58.14769216684195" x2="46.41600036621094" y2="58.14769216684195" style="visibility: inherit;" fill="rgb(0, 0, 0)" stroke="rgb(204, 204, 204)" stroke-width="1px"></line><line x1="51.41600036621094" y1="29.073846083420953" x2="46.41600036621094" y2="29.073846083420953" style="visibility: inherit;" fill="rgb(0, 0, 0)" stroke="rgb(204, 204, 204)" stroke-width="1px"></line><line x1="51.41600036621094" y1="0" x2="46.41600036621094" y2="0" style="visibility: inherit;" fill="rgb(0, 0, 0)" stroke="rgb(204, 204, 204)" stroke-width="1px"></line></g><g transform="translate(41.41600036621094, 0)"><text style="text-anchor: end; visibility: hidden; font-family: Roboto, sans-serif; font-size: 12px; font-weight: 200;" x="0" y="377.95999908447266" dx="0em" dy="0.3em" fill="rgb(50, 49, 63)" stroke="none" stroke-width="1px">-0.2</text><text style="text-anchor: end; visibility: inherit; font-family: Roboto, sans-serif; font-size: 12px; font-weight: 200;" x="0" y="348.8861530010517" dx="0em" dy="0.3em" fill="rgb(50, 49, 63)" stroke="none" stroke-width="1px">0</text><text style="text-anchor: end; visibility: inherit; font-family: Roboto, sans-serif; font-size: 12px; font-weight: 200;" x="0" y="319.8123069176307" dx="0em" dy="0.3em" fill="rgb(50, 49, 63)" stroke="none" stroke-width="1px">0.2</text><text style="text-anchor: end; visibility: inherit; font-family: Roboto, sans-serif; font-size: 12px; font-weight: 200;" x="0" y="290.7384608342097" dx="0em" dy="0.3em" fill="rgb(50, 49, 63)" stroke="none" stroke-width="1px">0.4</text><text style="text-anchor: end; visibility: inherit; font-family: Roboto, sans-serif; font-size: 12px; font-weight: 200;" x="0" y="261.66461475078876" dx="0em" dy="0.3em" fill="rgb(50, 49, 63)" stroke="none" stroke-width="1px">0.6</text><text style="text-anchor: end; visibility: inherit; font-family: Roboto, sans-serif; font-size: 12px; font-weight: 200;" x="0" y="232.5907686673678" dx="0em" dy="0.3em" fill="rgb(50, 49, 63)" stroke="none" stroke-width="1px">0.8</text><text style="text-anchor: end; visibility: inherit; font-family: Roboto, sans-serif; font-size: 12px; font-weight: 200;" x="0" y="203.51692258394684" dx="0em" dy="0.3em" fill="rgb(50, 49, 63)" stroke="none" stroke-width="1px">1</text><text style="text-anchor: end; visibility: inherit; font-family: Roboto, sans-serif; font-size: 12px; font-weight: 200;" x="0" y="174.44307650052585" dx="0em" dy="0.3em" fill="rgb(50, 49, 63)" stroke="none" stroke-width="1px">1.2</text><text style="text-anchor: end; visibility: inherit; font-family: Roboto, sans-serif; font-size: 12px; font-weight: 200;" x="0" y="145.3692304171049" dx="0em" dy="0.3em" fill="rgb(50, 49, 63)" stroke="none" stroke-width="1px">1.4</text><text style="text-anchor: end; visibility: inherit; font-family: Roboto, sans-serif; font-size: 12px; font-weight: 200;" x="0" y="116.2953843336839" dx="0em" dy="0.3em" fill="rgb(50, 49, 63)" stroke="none" stroke-width="1px">1.6</text><text style="text-anchor: end; visibility: inherit; font-family: Roboto, sans-serif; font-size: 12px; font-weight: 200;" x="0" y="87.22153825026295" dx="0em" dy="0.3em" fill="rgb(50, 49, 63)" stroke="none" stroke-width="1px">1.8</text><text style="text-anchor: end; visibility: inherit; font-family: Roboto, sans-serif; font-size: 12px; font-weight: 200;" x="0" y="58.14769216684195" dx="0em" dy="0.3em" fill="rgb(50, 49, 63)" stroke="none" stroke-width="1px">2</text><text style="text-anchor: end; visibility: inherit; font-family: Roboto, sans-serif; font-size: 12px; font-weight: 200;" x="0" y="29.073846083420953" dx="0em" dy="0.3em" fill="rgb(50, 49, 63)" stroke="none" stroke-width="1px">2.2</text><text style="text-anchor: end; visibility: hidden; font-family: Roboto, sans-serif; font-size: 12px; font-weight: 200;" x="0" y="0" dx="0em" dy="0.3em" fill="rgb(50, 49, 63)" stroke="none" stroke-width="1px">2.4</text></g><line x1="51.41600036621094" y1="0" x2="51.41600036621094" y2="377.95999908447266" fill="rgb(0, 0, 0)" stroke="rgb(204, 204, 204)" stroke-width="1px"></line></g></g><g transform="translate(51, 0)" clip-path="url(#clip_0)"><clipPath id="clip_0"><rect width="1382" height="377"></rect></clipPath><g><g><g><line x1="0" y1="0" x2="0" y2="377.95999908447266" fill="rgb(0, 0, 0)" stroke="rgb(60, 60, 60)" stroke-width="1px" opacity="0.25"></line><line x1="115.21533330281575" y1="0" x2="115.21533330281575" y2="377.95999908447266" fill="rgb(0, 0, 0)" stroke="rgb(60, 60, 60)" stroke-width="1px" opacity="0.25"></line><line x1="230.4306666056315" y1="0" x2="230.4306666056315" y2="377.95999908447266" fill="rgb(0, 0, 0)" stroke="rgb(60, 60, 60)" stroke-width="1px" opacity="0.25"></line><line x1="345.64599990844727" y1="0" x2="345.64599990844727" y2="377.95999908447266" fill="rgb(0, 0, 0)" stroke="rgb(60, 60, 60)" stroke-width="1px" opacity="0.25"></line><line x1="460.861333211263" y1="0" x2="460.861333211263" y2="377.95999908447266" fill="rgb(0, 0, 0)" stroke="rgb(60, 60, 60)" stroke-width="1px" opacity="0.25"></line><line x1="576.0766665140789" y1="0" x2="576.0766665140789" y2="377.95999908447266" fill="rgb(0, 0, 0)" stroke="rgb(60, 60, 60)" stroke-width="1px" opacity="0.25"></line><line x1="691.2919998168945" y1="0" x2="691.2919998168945" y2="377.95999908447266" fill="rgb(0, 0, 0)" stroke="rgb(60, 60, 60)" stroke-width="1px" opacity="0.25"></line><line x1="806.5073331197103" y1="0" x2="806.5073331197103" y2="377.95999908447266" fill="rgb(0, 0, 0)" stroke="rgb(60, 60, 60)" stroke-width="1px" opacity="0.25"></line><line x1="921.722666422526" y1="0" x2="921.722666422526" y2="377.95999908447266" fill="rgb(0, 0, 0)" stroke="rgb(60, 60, 60)" stroke-width="1px" opacity="0.25"></line><line x1="1036.9379997253418" y1="0" x2="1036.9379997253418" y2="377.95999908447266" fill="rgb(0, 0, 0)" stroke="rgb(60, 60, 60)" stroke-width="1px" opacity="0.25"></line><line x1="1152.1533330281577" y1="0" x2="1152.1533330281577" y2="377.95999908447266" fill="rgb(0, 0, 0)" stroke="rgb(60, 60, 60)" stroke-width="1px" opacity="0.25"></line><line x1="1267.3686663309732" y1="0" x2="1267.3686663309732" y2="377.95999908447266" fill="rgb(0, 0, 0)" stroke="rgb(60, 60, 60)" stroke-width="1px" opacity="0.25"></line><line x1="1382.583999633789" y1="0" x2="1382.583999633789" y2="377.95999908447266" fill="rgb(0, 0, 0)" stroke="rgb(60, 60, 60)" stroke-width="1px" opacity="0.25"></line></g><g><line x1="0" y1="377.95999908447266" x2="1382.583999633789" y2="377.95999908447266" fill="rgb(0, 0, 0)" stroke="rgb(60, 60, 60)" stroke-width="1px" opacity="0.25"></line><line x1="0" y1="348.8861530010517" x2="1382.583999633789" y2="348.8861530010517" fill="rgb(0, 0, 0)" stroke="rgb(60, 60, 60)" stroke-width="1px" opacity="0.25"></line><line x1="0" y1="319.8123069176307" x2="1382.583999633789" y2="319.8123069176307" fill="rgb(0, 0, 0)" stroke="rgb(60, 60, 60)" stroke-width="1px" opacity="0.25"></line><line x1="0" y1="290.7384608342097" x2="1382.583999633789" y2="290.7384608342097" fill="rgb(0, 0, 0)" stroke="rgb(60, 60, 60)" stroke-width="1px" opacity="0.25"></line><line x1="0" y1="261.66461475078876" x2="1382.583999633789" y2="261.66461475078876" fill="rgb(0, 0, 0)" stroke="rgb(60, 60, 60)" stroke-width="1px" opacity="0.25"></line><line x1="0" y1="232.5907686673678" x2="1382.583999633789" y2="232.5907686673678" fill="rgb(0, 0, 0)" stroke="rgb(60, 60, 60)" stroke-width="1px" opacity="0.25"></line><line x1="0" y1="203.51692258394684" x2="1382.583999633789" y2="203.51692258394684" fill="rgb(0, 0, 0)" stroke="rgb(60, 60, 60)" stroke-width="1px" opacity="0.25"></line><line x1="0" y1="174.44307650052585" x2="1382.583999633789" y2="174.44307650052585" fill="rgb(0, 0, 0)" stroke="rgb(60, 60, 60)" stroke-width="1px" opacity="0.25"></line><line x1="0" y1="145.3692304171049" x2="1382.583999633789" y2="145.3692304171049" fill="rgb(0, 0, 0)" stroke="rgb(60, 60, 60)" stroke-width="1px" opacity="0.25"></line><line x1="0" y1="116.2953843336839" x2="1382.583999633789" y2="116.2953843336839" fill="rgb(0, 0, 0)" stroke="rgb(60, 60, 60)" stroke-width="1px" opacity="0.25"></line><line x1="0" y1="87.22153825026295" x2="1382.583999633789" y2="87.22153825026295" fill="rgb(0, 0, 0)" stroke="rgb(60, 60, 60)" stroke-width="1px" opacity="0.25"></line><line x1="0" y1="58.14769216684195" x2="1382.583999633789" y2="58.14769216684195" fill="rgb(0, 0, 0)" stroke="rgb(60, 60, 60)" stroke-width="1px" opacity="0.25"></line><line x1="0" y1="29.073846083420953" x2="1382.583999633789" y2="29.073846083420953" fill="rgb(0, 0, 0)" stroke="rgb(60, 60, 60)" stroke-width="1px" opacity="0.25"></line><line x1="0" y1="0" x2="1382.583999633789" y2="0" fill="rgb(0, 0, 0)" stroke="rgb(60, 60, 60)" stroke-width="1px" opacity="0.25"></line></g></g></g><g><g><line x1="0" y1="348.8861530010517" x2="1382.583999633789" y2="348.8861530010517" fill="rgb(0, 0, 0)" stroke="rgb(153, 153, 153)" stroke-width="1.5px"></line></g></g><g><g><line x1="115.21533330281575" y1="0" x2="115.21533330281575" y2="377.95999908447266" fill="rgb(0, 0, 0)" stroke="rgb(153, 153, 153)" stroke-width="1.5px"></line></g></g><g><g><g><g><g><path style="fill: none;" stroke="rgb(0, 119, 187)" stroke-width="2px" d="M115.21533330281575,61.098016163208456L138.2583999633789,166.28771552704188L161.30146662394205,219.38269928060106L184.34453328450522,232.32767255021514L207.38759994506836,248.56980834556595L230.4306666056315,250.39728495172648L253.47373326619464,253.44178536958054L276.5167999267578,256.46947630563443L299.559866587321,256.1218319608996L322.6029332478841,256.2963473077742L345.64599990844727,256.3283286466012L368.68906656901044,256.6530895679164L391.73213322957355,256.44091751593686L414.7751998901367,256.4379715242812L437.81826655069983,256.39556657380183L460.861333211263,256.40099066432083L483.9043998718261,256.3726571563381L506.9474665323893,256.3774313957566L529.9905331929525,256.3685674267455L553.0335998535156,256.36863674419624L576.0766665140789,256.372908432097L599.119733174642,256.3710801843342L622.1627998352051,256.3700750812987L645.2058664957682,256.3698324702212L668.2489331563314,256.3705256447284L691.2919998168945,256.3704563272777L714.3350664774578,256.3706382855858L737.3781331380209,256.37065561494853L760.4211997985841,256.3707076030366L783.4642664591471,256.37066427962986L806.5073331197103,256.3706729443112L829.5503997802734,256.37069893835525L852.5934664408367,256.37069027367386L875.6365331013997,256.37069027367386L898.6795997619629,256.37069027367386L921.722666422526,256.37069027367386L944.7657330830892,256.37069027367386L967.8087997436522,256.37069027367386L990.8518664042155,256.37069027367386L1013.8949330647786,256.37069027367386L1036.9379997253418,256.37069027367386L1059.981066385905,256.37069027367386L1083.024133046468,256.37069027367386L1106.0671997070312,256.37069027367386L1129.1102663675945,256.37069027367386L1152.1533330281577,256.37069027367386L1175.1963996887207,256.37069027367386L1198.239466349284,256.37069027367386L1221.282533009847,256.37069027367386L1244.3255996704102,256.37069027367386" fill="none"></path></g><g><path style="fill: none;" stroke="rgb(255, 112, 67)" stroke-width="2px" d="M115.21533330281575,294.1083581609893L138.2583999633789,305.88442259439245L161.30146662394205,309.60813871783L184.34453328450522,311.9724269917465L207.38759994506836,312.65420094449564L230.4306666056315,313.7165861883092L253.47373326619464,315.5288281185031L276.5167999267578,315.028735204097L299.559866587321,315.06844760484984L322.6029332478841,314.74276822731264L345.64599990844727,315.4146102890755L368.68906656901044,315.6413520027287L391.73213322957355,315.4953131310789L414.7751998901367,314.8277210955134L437.81826655069983,314.64977886716866L460.861333211263,314.83021002522844L483.9043998718261,315.746820670173L506.9474665323893,315.3070555995985L529.9905331929525,315.01417420710465L553.0335998535156,315.9948341765166L576.0766665140789,315.00738759544487L599.119733174642,314.69015844838475L622.1627998352051,315.52469073316314L645.2058664957682,315.78522470404346L668.2489331563314,315.9989044105762L691.2919998168945,315.6324403779702L714.3350664774578,315.2601775073773L737.3781331380209,315.41061803714797L760.4211997985841,315.8468999058236L783.4642664591471,314.8809785593715L806.5073331197103,315.88420569133416L829.5503997802734,313.87924825111025L852.5934664408367,313.9443351711682L875.6365331013997,314.85127819790733L898.6795997619629,314.9083004658077L921.722666422526,316.02606818657796L944.7657330830892,315.97328294785297L967.8087997436522,315.35970220342216L990.8518664042155,315.612197516189L1013.8949330647786,315.3884212897245L1036.9379997253418,314.69722016367706L1059.981066385905,314.5118934606601L1083.024133046468,315.929664941986L1106.0671997070312,315.2834898325233L1129.1102663675945,315.0012313393526L1152.1533330281577,315.57810632745566L1175.1963996887207,314.5489154778568L1198.239466349284,315.50258496489374L1221.282533009847,315.99847117650916L1244.3255996704102,315.5497793179839" fill="none"></path></g><g><path style="fill: none;" stroke="rgb(0, 153, 136)" stroke-width="2px" d="M115.21533330281575,295.51496520040826L138.2583999633789,306.27473616238757L161.30146662394205,310.30719221134206L184.34453328450522,312.8541233032304L207.38759994506836,312.17589537131965L230.4306666056315,313.96471883402114L253.47373326619464,314.80357046244774L276.5167999267578,314.1366845984115L299.559866587321,315.5368927706606L322.6029332478841,314.14609444234696L345.64599990844727,314.693477021338L368.68906656901044,316.3969295449641L391.73213322957355,316.32915873986104L414.7751998901367,315.8915338455777L437.81826655069983,316.55218113904897L460.861333211263,316.00758642127914L483.9043998718261,315.2561765907684L506.9474665323893,314.58127806266276L529.9905331929525,315.17887463619104L553.0335998535156,316.09471845683703L576.0766665140789,315.59391070622036L599.119733174642,316.1920639855248L622.1627998352051,315.3818816214829L645.2058664957682,314.87144740989714L668.2489331563314,315.357393065845L691.2919998168945,316.26655858334783L714.3350664774578,316.21970431900024L737.3781331380209,315.2328685979631L760.4211997985841,316.230537336846L783.4642664591471,317.0548972857309L806.5073331197103,315.3441252725426L829.5503997802734,315.12700785368816L852.5934664408367,315.6089525930271L875.6365331013997,315.016232068923L898.6795997619629,315.72980973453167L921.722666422526,316.17996809037373L944.7657330830892,316.2296405423272L967.8087997436522,316.1102044085625L990.8518664042155,315.22702643656936L1013.8949330647786,314.8586150168322L1036.9379997253418,315.33290451020696L1059.981066385905,315.9802103605845L1083.024133046468,316.9897692084366L1106.0671997070312,315.8907475257461L1129.1102663675945,315.2483653805402L1152.1533330281577,315.54682032930623L1175.1963996887207,315.93336476091827L1198.239466349284,315.92507915938666L1221.282533009847,314.8066919139006L1244.3255996704102,316.5373883618308" fill="none"></path></g><g><path style="fill: none;" stroke="rgb(51, 187, 238)" stroke-width="2px" d="M115.21533330281575,298.2413505075352L138.2583999633789,309.170502992695L161.30146662394205,311.09560889585714L184.34453328450522,312.7396498657032L207.38759994506836,315.74019652128834L230.4306666056315,314.45649365434065L253.47373326619464,315.13518947904373L276.5167999267578,316.62627499536006L299.559866587321,316.5470776417396L322.6029332478841,316.8094701867673L345.64599990844727,317.3450124787069L368.68906656901044,317.8703781024123L391.73213322957355,318.0587850996458L414.7751998901367,316.7232176163655L437.81826655069983,316.5067088913751L460.861333211263,316.8297455411036L483.9043998718261,317.56776194043255L506.9474665323893,316.1404094877147L529.9905331929525,316.32411589532103L553.0335998535156,317.08111011295557L576.0766665140789,317.696659906221L599.119733174642,316.8625088674216L622.1627998352051,317.8551585896381L645.2058664957682,317.16132123429287L668.2489331563314,317.36366320529186L691.2919998168945,316.9547422341185L714.3350664774578,317.54776602206954L737.3781331380209,317.47608094717106L760.4211997985841,317.35271538041843L783.4642664591471,316.4639746830049L806.5073331197103,317.9821741534053L829.5503997802734,316.5117582344262L852.5934664408367,317.8547231894008L875.6365331013997,317.69070510396983L898.6795997619629,317.67192224099443L921.722666422526,317.6255142077359L944.7657330830892,317.07196237563056L967.8087997436522,317.30006877659486L990.8518664042155,317.5320439577776L1013.8949330647786,317.0559998664314L1036.9379997253418,317.04163382476924L1059.981066385905,316.9507131572953L1083.024133046468,317.32007335963925L1106.0671997070312,316.94854915313056L1129.1102663675945,316.9584637147542L1152.1533330281577,317.0464058980174L1175.1963996887207,317.53826736515026L1198.239466349284,317.0460116550164L1221.282533009847,317.74661829265875L1244.3255996704102,317.4982993562979" fill="none"></path></g></g></g></g></g><g><g opacity="0.111126"><span fill="rgb(0, 0, 0)" stroke="none" stroke-width="1px">Alt + Scroll to Zoom</span></g></g></g><g transform="translate(51, 377)" clip-path="url(#clip_1)"><clipPath id="clip_1"><rect width="1382" height="22"></rect></clipPath><g><g><line x1="0" y1="0" x2="0" y2="5" style="visibility: inherit;" fill="rgb(0, 0, 0)" stroke="rgb(204, 204, 204)" stroke-width="1px"></line><line x1="115.21533330281575" y1="0" x2="115.21533330281575" y2="5" style="visibility: inherit;" fill="rgb(0, 0, 0)" stroke="rgb(204, 204, 204)" stroke-width="1px"></line><line x1="230.4306666056315" y1="0" x2="230.4306666056315" y2="5" style="visibility: inherit;" fill="rgb(0, 0, 0)" stroke="rgb(204, 204, 204)" stroke-width="1px"></line><line x1="345.64599990844727" y1="0" x2="345.64599990844727" y2="5" style="visibility: inherit;" fill="rgb(0, 0, 0)" stroke="rgb(204, 204, 204)" stroke-width="1px"></line><line x1="460.861333211263" y1="0" x2="460.861333211263" y2="5" style="visibility: inherit;" fill="rgb(0, 0, 0)" stroke="rgb(204, 204, 204)" stroke-width="1px"></line><line x1="576.0766665140789" y1="0" x2="576.0766665140789" y2="5" style="visibility: inherit;" fill="rgb(0, 0, 0)" stroke="rgb(204, 204, 204)" stroke-width="1px"></line><line x1="691.2919998168945" y1="0" x2="691.2919998168945" y2="5" style="visibility: inherit;" fill="rgb(0, 0, 0)" stroke="rgb(204, 204, 204)" stroke-width="1px"></line><line x1="806.5073331197103" y1="0" x2="806.5073331197103" y2="5" style="visibility: inherit;" fill="rgb(0, 0, 0)" stroke="rgb(204, 204, 204)" stroke-width="1px"></line><line x1="921.722666422526" y1="0" x2="921.722666422526" y2="5" style="visibility: inherit;" fill="rgb(0, 0, 0)" stroke="rgb(204, 204, 204)" stroke-width="1px"></line><line x1="1036.9379997253418" y1="0" x2="1036.9379997253418" y2="5" style="visibility: inherit;" fill="rgb(0, 0, 0)" stroke="rgb(204, 204, 204)" stroke-width="1px"></line><line x1="1152.1533330281577" y1="0" x2="1152.1533330281577" y2="5" style="visibility: inherit;" fill="rgb(0, 0, 0)" stroke="rgb(204, 204, 204)" stroke-width="1px"></line><line x1="1267.3686663309732" y1="0" x2="1267.3686663309732" y2="5" style="visibility: inherit;" fill="rgb(0, 0, 0)" stroke="rgb(204, 204, 204)" stroke-width="1px"></line><line x1="1382.583999633789" y1="0" x2="1382.583999633789" y2="5" style="visibility: inherit;" fill="rgb(0, 0, 0)" stroke="rgb(204, 204, 204)" stroke-width="1px"></line></g><g transform="translate(0, 8)"><text style="text-anchor: middle; visibility: hidden; font-family: Roboto, sans-serif; font-size: 12px; font-weight: 200;" x="0" y="0" dx="0em" dy="0.95em" fill="rgb(50, 49, 63)" stroke="none" stroke-width="1px">-5</text><text style="text-anchor: middle; visibility: inherit; font-family: Roboto, sans-serif; font-size: 12px; font-weight: 200;" x="115.21533330281575" y="0" dx="0em" dy="0.95em" fill="rgb(50, 49, 63)" stroke="none" stroke-width="1px">0</text><text style="text-anchor: middle; visibility: inherit; font-family: Roboto, sans-serif; font-size: 12px; font-weight: 200;" x="230.4306666056315" y="0" dx="0em" dy="0.95em" fill="rgb(50, 49, 63)" stroke="none" stroke-width="1px">5</text><text style="text-anchor: middle; visibility: inherit; font-family: Roboto, sans-serif; font-size: 12px; font-weight: 200;" x="345.64599990844727" y="0" dx="0em" dy="0.95em" fill="rgb(50, 49, 63)" stroke="none" stroke-width="1px">10</text><text style="text-anchor: middle; visibility: inherit; font-family: Roboto, sans-serif; font-size: 12px; font-weight: 200;" x="460.861333211263" y="0" dx="0em" dy="0.95em" fill="rgb(50, 49, 63)" stroke="none" stroke-width="1px">15</text><text style="text-anchor: middle; visibility: inherit; font-family: Roboto, sans-serif; font-size: 12px; font-weight: 200;" x="576.0766665140789" y="0" dx="0em" dy="0.95em" fill="rgb(50, 49, 63)" stroke="none" stroke-width="1px">20</text><text style="text-anchor: middle; visibility: inherit; font-family: Roboto, sans-serif; font-size: 12px; font-weight: 200;" x="691.2919998168945" y="0" dx="0em" dy="0.95em" fill="rgb(50, 49, 63)" stroke="none" stroke-width="1px">25</text><text style="text-anchor: middle; visibility: inherit; font-family: Roboto, sans-serif; font-size: 12px; font-weight: 200;" x="806.5073331197103" y="0" dx="0em" dy="0.95em" fill="rgb(50, 49, 63)" stroke="none" stroke-width="1px">30</text><text style="text-anchor: middle; visibility: inherit; font-family: Roboto, sans-serif; font-size: 12px; font-weight: 200;" x="921.722666422526" y="0" dx="0em" dy="0.95em" fill="rgb(50, 49, 63)" stroke="none" stroke-width="1px">35</text><text style="text-anchor: middle; visibility: inherit; font-family: Roboto, sans-serif; font-size: 12px; font-weight: 200;" x="1036.9379997253418" y="0" dx="0em" dy="0.95em" fill="rgb(50, 49, 63)" stroke="none" stroke-width="1px">40</text><text style="text-anchor: middle; visibility: inherit; font-family: Roboto, sans-serif; font-size: 12px; font-weight: 200;" x="1152.1533330281577" y="0" dx="0em" dy="0.95em" fill="rgb(50, 49, 63)" stroke="none" stroke-width="1px">45</text><text style="text-anchor: middle; visibility: inherit; font-family: Roboto, sans-serif; font-size: 12px; font-weight: 200;" x="1267.3686663309732" y="0" dx="0em" dy="0.95em" fill="rgb(50, 49, 63)" stroke="none" stroke-width="1px">50</text><text style="text-anchor: middle; visibility: hidden; font-family: Roboto, sans-serif; font-size: 12px; font-weight: 200;" x="1382.583999633789" y="0" dx="0em" dy="0.95em" fill="rgb(50, 49, 63)" stroke="none" stroke-width="1px">55</text></g><line x1="0" y1="0" x2="1382.583999633789" y2="0" fill="rgb(0, 0, 0)" stroke="rgb(204, 204, 204)" stroke-width="1px"></line></g></g></g></g></svg>