<svg viewBox="0 0 1434 400" xmlns="http://www.w3.org/2000/svg"><g><g><g><g><g><line x1="51.53200149536133" y1="377.8999996185303" x2="46.53200149536133" y2="377.8999996185303" style="visibility: inherit;" fill="rgb(0, 0, 0)" stroke="rgb(204, 204, 204)" stroke-width="1px"></line><line x1="51.53200149536133" y1="343.54545419866383" x2="46.53200149536133" y2="343.54545419866383" style="visibility: inherit;" fill="rgb(0, 0, 0)" stroke="rgb(204, 204, 204)" stroke-width="1px"></line><line x1="51.53200149536133" y1="309.1909087787978" x2="46.53200149536133" y2="309.1909087787978" style="visibility: inherit;" fill="rgb(0, 0, 0)" stroke="rgb(204, 204, 204)" stroke-width="1px"></line><line x1="51.53200149536133" y1="274.83636335893135" x2="46.53200149536133" y2="274.83636335893135" style="visibility: inherit;" fill="rgb(0, 0, 0)" stroke="rgb(204, 204, 204)" stroke-width="1px"></line><line x1="51.53200149536133" y1="240.48181793906497" x2="46.53200149536133" y2="240.48181793906497" style="visibility: inherit;" fill="rgb(0, 0, 0)" stroke="rgb(204, 204, 204)" stroke-width="1px"></line><line x1="51.53200149536133" y1="206.12727251919856" x2="46.53200149536133" y2="206.12727251919856" style="visibility: inherit;" fill="rgb(0, 0, 0)" stroke="rgb(204, 204, 204)" stroke-width="1px"></line><line x1="51.53200149536133" y1="171.77272709933212" x2="46.53200149536133" y2="171.77272709933212" style="visibility: inherit;" fill="rgb(0, 0, 0)" stroke="rgb(204, 204, 204)" stroke-width="1px"></line><line x1="51.53200149536133" y1="137.41818167946568" x2="46.53200149536133" y2="137.41818167946568" style="visibility: inherit;" fill="rgb(0, 0, 0)" stroke="rgb(204, 204, 204)" stroke-width="1px"></line><line x1="51.53200149536133" y1="103.06363625959928" x2="46.53200149536133" y2="103.06363625959928" style="visibility: inherit;" fill="rgb(0, 0, 0)" stroke="rgb(204, 204, 204)" stroke-width="1px"></line><line x1="51.53200149536133" y1="68.70909083973284" x2="46.53200149536133" y2="68.70909083973284" style="visibility: inherit;" fill="rgb(0, 0, 0)" stroke="rgb(204, 204, 204)" stroke-width="1px"></line><line x1="51.53200149536133" y1="34.35454541986644" x2="46.53200149536133" y2="34.35454541986644" style="visibility: inherit;" fill="rgb(0, 0, 0)" stroke="rgb(204, 204, 204)" stroke-width="1px"></line><line x1="51.53200149536133" y1="0" x2="46.53200149536133" y2="0" style="visibility: inherit;" fill="rgb(0, 0, 0)" stroke="rgb(204, 204, 204)" stroke-width="1px"></line></g><g transform="translate(41.53200149536133, 0)"><text style="text-anchor: end; visibility: hidden; font-family: Roboto, sans-serif; font-size: 12px; font-weight: 200;" x="0" y="377.8999996185303" dx="0em" dy="0.3em" fill="rgb(50, 49, 63)" stroke="none" stroke-width="1px">0.8</text><text style="text-anchor: end; visibility: inherit; font-family: Roboto, sans-serif; font-size: 12px; font-weight: 200;" x="0" y="343.54545419866383" dx="0em" dy="0.3em" fill="rgb(50, 49, 63)" stroke="none" stroke-width="1px">0.81</text><text style="text-anchor: end; visibility: inherit; font-family: Roboto, sans-serif; font-size: 12px; font-weight: 200;" x="0" y="309.1909087787978" dx="0em" dy="0.3em" fill="rgb(50, 49, 63)" stroke="none" stroke-width="1px">0.82</text><text style="text-anchor: end; visibility: inherit; font-family: Roboto, sans-serif; font-size: 12px; font-weight: 200;" x="0" y="274.83636335893135" dx="0em" dy="0.3em" fill="rgb(50, 49, 63)" stroke="none" stroke-width="1px">0.83</text><text style="text-anchor: end; visibility: inherit; font-family: Roboto, sans-serif; font-size: 12px; font-weight: 200;" x="0" y="240.48181793906497" dx="0em" dy="0.3em" fill="rgb(50, 49, 63)" stroke="none" stroke-width="1px">0.84</text><text style="text-anchor: end; visibility: inherit; font-family: Roboto, sans-serif; font-size: 12px; font-weight: 200;" x="0" y="206.12727251919856" dx="0em" dy="0.3em" fill="rgb(50, 49, 63)" stroke="none" stroke-width="1px">0.85</text><text style="text-anchor: end; visibility: inherit; font-family: Roboto, sans-serif; font-size: 12px; font-weight: 200;" x="0" y="171.77272709933212" dx="0em" dy="0.3em" fill="rgb(50, 49, 63)" stroke="none" stroke-width="1px">0.86</text><text style="text-anchor: end; visibility: inherit; font-family: Roboto, sans-serif; font-size: 12px; font-weight: 200;" x="0" y="137.41818167946568" dx="0em" dy="0.3em" fill="rgb(50, 49, 63)" stroke="none" stroke-width="1px">0.87</text><text style="text-anchor: end; visibility: inherit; font-family: Roboto, sans-serif; font-size: 12px; font-weight: 200;" x="0" y="103.06363625959928" dx="0em" dy="0.3em" fill="rgb(50, 49, 63)" stroke="none" stroke-width="1px">0.88</text><text style="text-anchor: end; visibility: inherit; font-family: Roboto, sans-serif; font-size: 12px; font-weight: 200;" x="0" y="68.70909083973284" dx="0em" dy="0.3em" fill="rgb(50, 49, 63)" stroke="none" stroke-width="1px">0.89</text><text style="text-anchor: end; visibility: inherit; font-family: Roboto, sans-serif; font-size: 12px; font-weight: 200;" x="0" y="34.35454541986644" dx="0em" dy="0.3em" fill="rgb(50, 49, 63)" stroke="none" stroke-width="1px">0.9</text><text style="text-anchor: end; visibility: hidden; font-family: Roboto, sans-serif; font-size: 12px; font-weight: 200;" x="0" y="0" dx="0em" dy="0.3em" fill="rgb(50, 49, 63)" stroke="none" stroke-width="1px">0.91</text></g><line x1="51.53200149536133" y1="0" x2="51.53200149536133" y2="377.8999996185303" fill="rgb(0, 0, 0)" stroke="rgb(204, 204, 204)" stroke-width="1px"></line></g></g><g transform="translate(51, 0)" clip-path="url(#clip_0)"><clipPath id="clip_0"><rect width="1382" height="377"></rect></clipPath><g><g><g><line x1="0" y1="0" x2="0" y2="377.8999996185303" fill="rgb(0, 0, 0)" stroke="rgb(60, 60, 60)" stroke-width="1px" opacity="0.25"></line><line x1="115.20566654205322" y1="0" x2="115.20566654205322" y2="377.8999996185303" fill="rgb(0, 0, 0)" stroke="rgb(60, 60, 60)" stroke-width="1px" opacity="0.25"></line><line x1="230.41133308410645" y1="0" x2="230.41133308410645" y2="377.8999996185303" fill="rgb(0, 0, 0)" stroke="rgb(60, 60, 60)" stroke-width="1px" opacity="0.25"></line><line x1="345.61699962615967" y1="0" x2="345.61699962615967" y2="377.8999996185303" fill="rgb(0, 0, 0)" stroke="rgb(60, 60, 60)" stroke-width="1px" opacity="0.25"></line><line x1="460.8226661682129" y1="0" x2="460.8226661682129" y2="377.8999996185303" fill="rgb(0, 0, 0)" stroke="rgb(60, 60, 60)" stroke-width="1px" opacity="0.25"></line><line x1="576.0283327102661" y1="0" x2="576.0283327102661" y2="377.8999996185303" fill="rgb(0, 0, 0)" stroke="rgb(60, 60, 60)" stroke-width="1px" opacity="0.25"></line><line x1="691.2339992523193" y1="0" x2="691.2339992523193" y2="377.8999996185303" fill="rgb(0, 0, 0)" stroke="rgb(60, 60, 60)" stroke-width="1px" opacity="0.25"></line><line x1="806.4396657943726" y1="0" x2="806.4396657943726" y2="377.8999996185303" fill="rgb(0, 0, 0)" stroke="rgb(60, 60, 60)" stroke-width="1px" opacity="0.25"></line><line x1="921.6453323364258" y1="0" x2="921.6453323364258" y2="377.8999996185303" fill="rgb(0, 0, 0)" stroke="rgb(60, 60, 60)" stroke-width="1px" opacity="0.25"></line><line x1="1036.850998878479" y1="0" x2="1036.850998878479" y2="377.8999996185303" fill="rgb(0, 0, 0)" stroke="rgb(60, 60, 60)" stroke-width="1px" opacity="0.25"></line><line x1="1152.0566654205322" y1="0" x2="1152.0566654205322" y2="377.8999996185303" fill="rgb(0, 0, 0)" stroke="rgb(60, 60, 60)" stroke-width="1px" opacity="0.25"></line><line x1="1267.2623319625854" y1="0" x2="1267.2623319625854" y2="377.8999996185303" fill="rgb(0, 0, 0)" stroke="rgb(60, 60, 60)" stroke-width="1px" opacity="0.25"></line><line x1="1382.4679985046387" y1="0" x2="1382.4679985046387" y2="377.8999996185303" fill="rgb(0, 0, 0)" stroke="rgb(60, 60, 60)" stroke-width="1px" opacity="0.25"></line></g><g><line x1="0" y1="377.8999996185303" x2="1382.4679985046387" y2="377.8999996185303" fill="rgb(0, 0, 0)" stroke="rgb(60, 60, 60)" stroke-width="1px" opacity="0.25"></line><line x1="0" y1="343.54545419866383" x2="1382.4679985046387" y2="343.54545419866383" fill="rgb(0, 0, 0)" stroke="rgb(60, 60, 60)" stroke-width="1px" opacity="0.25"></line><line x1="0" y1="309.1909087787978" x2="1382.4679985046387" y2="309.1909087787978" fill="rgb(0, 0, 0)" stroke="rgb(60, 60, 60)" stroke-width="1px" opacity="0.25"></line><line x1="0" y1="274.83636335893135" x2="1382.4679985046387" y2="274.83636335893135" fill="rgb(0, 0, 0)" stroke="rgb(60, 60, 60)" stroke-width="1px" opacity="0.25"></line><line x1="0" y1="240.48181793906497" x2="1382.4679985046387" y2="240.48181793906497" fill="rgb(0, 0, 0)" stroke="rgb(60, 60, 60)" stroke-width="1px" opacity="0.25"></line><line x1="0" y1="206.12727251919856" x2="1382.4679985046387" y2="206.12727251919856" fill="rgb(0, 0, 0)" stroke="rgb(60, 60, 60)" stroke-width="1px" opacity="0.25"></line><line x1="0" y1="171.77272709933212" x2="1382.4679985046387" y2="171.77272709933212" fill="rgb(0, 0, 0)" stroke="rgb(60, 60, 60)" stroke-width="1px" opacity="0.25"></line><line x1="0" y1="137.41818167946568" x2="1382.4679985046387" y2="137.41818167946568" fill="rgb(0, 0, 0)" stroke="rgb(60, 60, 60)" stroke-width="1px" opacity="0.25"></line><line x1="0" y1="103.06363625959928" x2="1382.4679985046387" y2="103.06363625959928" fill="rgb(0, 0, 0)" stroke="rgb(60, 60, 60)" stroke-width="1px" opacity="0.25"></line><line x1="0" y1="68.70909083973284" x2="1382.4679985046387" y2="68.70909083973284" fill="rgb(0, 0, 0)" stroke="rgb(60, 60, 60)" stroke-width="1px" opacity="0.25"></line><line x1="0" y1="34.35454541986644" x2="1382.4679985046387" y2="34.35454541986644" fill="rgb(0, 0, 0)" stroke="rgb(60, 60, 60)" stroke-width="1px" opacity="0.25"></line><line x1="0" y1="0" x2="1382.4679985046387" y2="0" fill="rgb(0, 0, 0)" stroke="rgb(60, 60, 60)" stroke-width="1px" opacity="0.25"></line></g></g></g><g><g><line x1="0" y1="3126.2636332078414" x2="1382.4679985046387" y2="3126.2636332078414" fill="rgb(0, 0, 0)" stroke="rgb(153, 153, 153)" stroke-width="1.5px"></line></g></g><g><g><line x1="115.20566654205322" y1="0" x2="115.20566654205322" y2="377.8999996185303" fill="rgb(0, 0, 0)" stroke="rgb(153, 153, 153)" stroke-width="1.5px"></line></g></g><g><g><g><g><g><path style="fill: none;" stroke="rgb(255, 112, 67)" stroke-width="2px" d="M115.20566654205322,308.13104876061715L138.24679985046387,242.7779833683765L161.28793315887452,193.3215486807478L184.32906646728514,177.4249179761359L207.3701997756958,148.28095850498224L230.41133308410645,150.9304652121001L253.45246639251707,151.8134293454251L276.49359970092775,120.02016793620122L299.53473300933837,123.55263877664409L322.57586631774905,122.6694698742715L345.61699962615967,127.08531438613457L368.6581329345703,125.31897658138934L391.69926624298097,114.7211545219655L414.7403995513916,106.77283916965955L437.7815328598022,119.13699903382862L460.8226661682129,120.02016793620122L483.8637994766235,111.18868368152266L506.90493278503413,136.7999675431858L529.9460660934449,126.20214548376197L552.9871994018555,118.25383013145597L576.0283327102661,120.02016793620122L599.0694660186767,131.5011588979977L622.1105993270875,126.20214548376197L645.1517326354981,106.77283916965955L668.1928659439087,124.43580767901673L691.2339992523193,121.7865057409465L714.2751325607301,112.07185258389525L737.3162658691406,120.90333683857385L760.3573991775513,108.53917697440478L783.3985324859619,112.9550214862679L806.4396657943726,120.02016793620122L829.4807991027832,124.43580767901673L852.5219324111939,118.25383013145597L875.5630657196044,117.37066122908338L898.6041990280152,101.47403052447142L921.6453323364258,110.30551477915002L944.6864656448364,115.60432342433813L967.727598953247,106.77283916965955L990.7687322616578,130.61798999562504L1013.8098655700683,112.07185258389525L1036.850998878479,125.31897658138934L1059.8921321868897,114.7211545219655L1082.9332654953002,112.07185258389525L1105.974398803711,105.8896702672869L1129.0155321121215,119.13699903382862L1152.0566654205322,112.9550214862679L1175.0977987289427,122.6694698742715L1198.1389320373535,139.44947425030364L1221.1800653457642,133.26729193369533L1244.221198654175,107.65600807203214" fill="none"></path></g><g><path style="fill: none;" stroke="rgb(204, 51, 17)" stroke-width="2px" d="M115.20566654205322,281.6365959965814L138.24679985046387,210.1013482877324L161.28793315887452,165.06075811196683L184.32906646728514,154.462936052543L207.3701997756958,147.39778960260963L230.41133308410645,145.6314517978644L253.45246639251707,130.61798999562504L276.49359970092775,117.37066122908338L299.53473300933837,111.18868368152266L322.57586631774905,120.90333683857385L345.61699962615967,96.17501711023571L368.6581329345703,97.94135491498095L391.69926624298097,111.18868368152266L414.7403995513916,93.52571517216546L437.7815328598022,114.7211545219655L460.8226661682129,110.30551477915002L483.8637994766235,109.42234587677738L506.90493278503413,107.65600807203214L529.9460660934449,98.82452381735355L552.9871994018555,121.7865057409465L576.0283327102661,104.12333246254167L599.0694660186767,107.65600807203214L622.1105993270875,127.08531438613457L645.1517326354981,105.8896702672869L668.1928659439087,107.65600807203214L691.2339992523193,102.35719942684406L714.2751325607301,108.53917697440478L737.3162658691406,96.17501711023571L760.3573991775513,103.24036832921666L783.3985324859619,112.9550214862679L806.4396657943726,114.7211545219655L829.4807991027832,110.30551477915002L852.5219324111939,112.07185258389525L875.5630657196044,102.35719942684406L898.6041990280152,111.18868368152266L921.6453323364258,96.17501711023571L944.6864656448364,97.0581860126083L967.727598953247,116.48749232671074L990.7687322616578,114.7211545219655L1013.8098655700683,115.60432342433813L1036.850998878479,112.07185258389525L1059.8921321868897,103.24036832921666L1082.9332654953002,102.35719942684406L1105.974398803711,110.30551477915002L1129.0155321121215,93.52571517216546L1152.0566654205322,101.47403052447142L1175.0977987289427,114.7211545219655L1198.1389320373535,100.59086162209879L1221.1800653457642,98.82452381735355L1244.221198654175,107.65600807203214" fill="none"></path></g><g><path style="fill: none;" stroke="rgb(238, 51, 119)" stroke-width="2px" d="M115.20566654205322,298.41639560356595L138.24679985046387,218.049868409086L161.28793315887452,202.15303293542644L184.32906646728514,156.22927385728823L207.3701997756958,157.99561166203347L230.41133308410645,146.514620700237L253.45246639251707,119.13699903382862L276.49359970092775,123.55263877664409L299.53473300933837,107.65600807203214L322.57586631774905,118.25383013145597L345.61699962615967,118.25383013145597L368.6581329345703,112.07185258389525L391.69926624298097,112.07185258389525L414.7403995513916,95.29184820786307L437.7815328598022,120.90333683857385L460.8226661682129,109.42234587677738L483.8637994766235,112.07185258389525L506.90493278503413,117.37066122908338L529.9460660934449,113.8379856195929L552.9871994018555,113.8379856195929L576.0283327102661,107.65600807203214L599.0694660186767,120.02016793620122L622.1105993270875,102.35719942684406L645.1517326354981,110.30551477915002L668.1928659439087,116.48749232671074L691.2339992523193,127.08531438613457L714.2751325607301,109.42234587677738L737.3162658691406,118.25383013145597L760.3573991775513,105.8896702672869L783.3985324859619,104.12333246254167L806.4396657943726,109.42234587677738L829.4807991027832,115.60432342433813L852.5219324111939,121.7865057409465L875.5630657196044,115.60432342433813L898.6041990280152,120.02016793620122L921.6453323364258,108.53917697440478L944.6864656448364,106.77283916965955L967.727598953247,133.26729193369533L990.7687322616578,112.07185258389525L1013.8098655700683,108.53917697440478L1036.850998878479,111.18868368152266L1059.8921321868897,126.20214548376197L1082.9332654953002,120.02016793620122L1105.974398803711,115.60432342433813L1129.0155321121215,98.82452381735355L1152.0566654205322,121.7865057409465L1175.0977987289427,106.77283916965955L1198.1389320373535,105.0065013649143L1221.1800653457642,97.0581860126083L1244.221198654175,90.87620846504758" fill="none"></path></g><g><path style="fill: none;" stroke="rgb(187, 187, 187)" stroke-width="2px" d="M115.20566654205322,322.2615464295315L138.24679985046387,201.2698640330538L161.28793315887452,179.19125578088114L184.32906646728514,138.56630534793103L207.3701997756958,150.04729630972747L230.41133308410645,117.37066122908338L253.45246639251707,98.82452381735355L276.49359970092775,105.8896702672869L299.53473300933837,105.8896702672869L322.57586631774905,102.35719942684406L345.61699962615967,114.7211545219655L368.6581329345703,111.18868368152266L391.69926624298097,103.24036832921666L414.7403995513916,98.82452381735355L437.7815328598022,101.47403052447142L460.8226661682129,95.29184820786307L483.8637994766235,94.40867930549047L506.90493278503413,117.37066122908338L529.9460660934449,117.37066122908338L552.9871994018555,94.40867930549047L576.0283327102661,91.75937736742023L599.0694660186767,105.8896702672869L622.1105993270875,100.59086162209879L645.1517326354981,103.24036832921666L668.1928659439087,96.17501711023571L691.2339992523193,96.17501711023571L714.2751325607301,103.24036832921666L737.3162658691406,97.0581860126083L760.3573991775513,97.94135491498095L783.3985324859619,89.99303956267495L806.4396657943726,112.07185258389525L829.4807991027832,103.24036832921666L852.5219324111939,108.53917697440478L875.5630657196044,105.0065013649143L898.6041990280152,97.0581860126083L921.6453323364258,107.65600807203214L944.6864656448364,101.47403052447142L967.727598953247,97.94135491498095L990.7687322616578,98.82452381735355L1013.8098655700683,103.24036832921666L1036.850998878479,82.92789311274163L1059.8921321868897,100.59086162209879L1082.9332654953002,101.47403052447142L1105.974398803711,105.0065013649143L1129.0155321121215,105.8896702672869L1152.0566654205322,100.59086162209879L1175.0977987289427,95.29184820786307L1198.1389320373535,105.8896702672869L1221.1800653457642,104.12333246254167L1244.221198654175,98.82452381735355" fill="none"></path></g></g></g></g></g><g><g><span fill="rgb(0, 0, 0)" stroke="none" stroke-width="1px">Alt + Scroll to Zoom</span></g></g></g><g transform="translate(51, 377)" clip-path="url(#clip_1)"><clipPath id="clip_1"><rect width="1382" height="22"></rect></clipPath><g><g><line x1="0" y1="0" x2="0" y2="5" style="visibility: inherit;" fill="rgb(0, 0, 0)" stroke="rgb(204, 204, 204)" stroke-width="1px"></line><line x1="115.20566654205322" y1="0" x2="115.20566654205322" y2="5" style="visibility: inherit;" fill="rgb(0, 0, 0)" stroke="rgb(204, 204, 204)" stroke-width="1px"></line><line x1="230.41133308410645" y1="0" x2="230.41133308410645" y2="5" style="visibility: inherit;" fill="rgb(0, 0, 0)" stroke="rgb(204, 204, 204)" stroke-width="1px"></line><line x1="345.61699962615967" y1="0" x2="345.61699962615967" y2="5" style="visibility: inherit;" fill="rgb(0, 0, 0)" stroke="rgb(204, 204, 204)" stroke-width="1px"></line><line x1="460.8226661682129" y1="0" x2="460.8226661682129" y2="5" style="visibility: inherit;" fill="rgb(0, 0, 0)" stroke="rgb(204, 204, 204)" stroke-width="1px"></line><line x1="576.0283327102661" y1="0" x2="576.0283327102661" y2="5" style="visibility: inherit;" fill="rgb(0, 0, 0)" stroke="rgb(204, 204, 204)" stroke-width="1px"></line><line x1="691.2339992523193" y1="0" x2="691.2339992523193" y2="5" style="visibility: inherit;" fill="rgb(0, 0, 0)" stroke="rgb(204, 204, 204)" stroke-width="1px"></line><line x1="806.4396657943726" y1="0" x2="806.4396657943726" y2="5" style="visibility: inherit;" fill="rgb(0, 0, 0)" stroke="rgb(204, 204, 204)" stroke-width="1px"></line><line x1="921.6453323364258" y1="0" x2="921.6453323364258" y2="5" style="visibility: inherit;" fill="rgb(0, 0, 0)" stroke="rgb(204, 204, 204)" stroke-width="1px"></line><line x1="1036.850998878479" y1="0" x2="1036.850998878479" y2="5" style="visibility: inherit;" fill="rgb(0, 0, 0)" stroke="rgb(204, 204, 204)" stroke-width="1px"></line><line x1="1152.0566654205322" y1="0" x2="1152.0566654205322" y2="5" style="visibility: inherit;" fill="rgb(0, 0, 0)" stroke="rgb(204, 204, 204)" stroke-width="1px"></line><line x1="1267.2623319625854" y1="0" x2="1267.2623319625854" y2="5" style="visibility: inherit;" fill="rgb(0, 0, 0)" stroke="rgb(204, 204, 204)" stroke-width="1px"></line><line x1="1382.4679985046387" y1="0" x2="1382.4679985046387" y2="5" style="visibility: inherit;" fill="rgb(0, 0, 0)" stroke="rgb(204, 204, 204)" stroke-width="1px"></line></g><g transform="translate(0, 8)"><text style="text-anchor: middle; visibility: hidden; font-family: Roboto, sans-serif; font-size: 12px; font-weight: 200;" x="0" y="0" dx="0em" dy="0.95em" fill="rgb(50, 49, 63)" stroke="none" stroke-width="1px">-5</text><text style="text-anchor: middle; visibility: inherit; font-family: Roboto, sans-serif; font-size: 12px; font-weight: 200;" x="115.20566654205322" y="0" dx="0em" dy="0.95em" fill="rgb(50, 49, 63)" stroke="none" stroke-width="1px">0</text><text style="text-anchor: middle; visibility: inherit; font-family: Roboto, sans-serif; font-size: 12px; font-weight: 200;" x="230.41133308410645" y="0" dx="0em" dy="0.95em" fill="rgb(50, 49, 63)" stroke="none" stroke-width="1px">5</text><text style="text-anchor: middle; visibility: inherit; font-family: Roboto, sans-serif; font-size: 12px; font-weight: 200;" x="345.61699962615967" y="0" dx="0em" dy="0.95em" fill="rgb(50, 49, 63)" stroke="none" stroke-width="1px">10</text><text style="text-anchor: middle; visibility: inherit; font-family: Roboto, sans-serif; font-size: 12px; font-weight: 200;" x="460.8226661682129" y="0" dx="0em" dy="0.95em" fill="rgb(50, 49, 63)" stroke="none" stroke-width="1px">15</text><text style="text-anchor: middle; visibility: inherit; font-family: Roboto, sans-serif; font-size: 12px; font-weight: 200;" x="576.0283327102661" y="0" dx="0em" dy="0.95em" fill="rgb(50, 49, 63)" stroke="none" stroke-width="1px">20</text><text style="text-anchor: middle; visibility: inherit; font-family: Roboto, sans-serif; font-size: 12px; font-weight: 200;" x="691.2339992523193" y="0" dx="0em" dy="0.95em" fill="rgb(50, 49, 63)" stroke="none" stroke-width="1px">25</text><text style="text-anchor: middle; visibility: inherit; font-family: Roboto, sans-serif; font-size: 12px; font-weight: 200;" x="806.4396657943726" y="0" dx="0em" dy="0.95em" fill="rgb(50, 49, 63)" stroke="none" stroke-width="1px">30</text><text style="text-anchor: middle; visibility: inherit; font-family: Roboto, sans-serif; font-size: 12px; font-weight: 200;" x="921.6453323364258" y="0" dx="0em" dy="0.95em" fill="rgb(50, 49, 63)" stroke="none" stroke-width="1px">35</text><text style="text-anchor: middle; visibility: inherit; font-family: Roboto, sans-serif; font-size: 12px; font-weight: 200;" x="1036.850998878479" y="0" dx="0em" dy="0.95em" fill="rgb(50, 49, 63)" stroke="none" stroke-width="1px">40</text><text style="text-anchor: middle; visibility: inherit; font-family: Roboto, sans-serif; font-size: 12px; font-weight: 200;" x="1152.0566654205322" y="0" dx="0em" dy="0.95em" fill="rgb(50, 49, 63)" stroke="none" stroke-width="1px">45</text><text style="text-anchor: middle; visibility: inherit; font-family: Roboto, sans-serif; font-size: 12px; font-weight: 200;" x="1267.2623319625854" y="0" dx="0em" dy="0.95em" fill="rgb(50, 49, 63)" stroke="none" stroke-width="1px">50</text><text style="text-anchor: middle; visibility: hidden; font-family: Roboto, sans-serif; font-size: 12px; font-weight: 200;" x="1382.4679985046387" y="0" dx="0em" dy="0.95em" fill="rgb(50, 49, 63)" stroke="none" stroke-width="1px">55</text></g><line x1="0" y1="0" x2="1382.4679985046387" y2="0" fill="rgb(0, 0, 0)" stroke="rgb(204, 204, 204)" stroke-width="1px"></line></g></g></g></g></svg>