<svg viewBox="0 0 1434 400" xmlns="http://www.w3.org/2000/svg"><g><g><g><g><g><line x1="51.53200149536133" y1="377.8999996185303" x2="46.53200149536133" y2="377.8999996185303" style="visibility: inherit;" fill="rgb(0, 0, 0)" stroke="rgb(204, 204, 204)" stroke-width="1px"></line><line x1="51.53200149536133" y1="335.9111107720269" x2="46.53200149536133" y2="335.9111107720269" style="visibility: inherit;" fill="rgb(0, 0, 0)" stroke="rgb(204, 204, 204)" stroke-width="1px"></line><line x1="51.53200149536133" y1="293.92222192552356" x2="46.53200149536133" y2="293.92222192552356" style="visibility: inherit;" fill="rgb(0, 0, 0)" stroke="rgb(204, 204, 204)" stroke-width="1px"></line><line x1="51.53200149536133" y1="251.9333330790202" x2="46.53200149536133" y2="251.9333330790202" style="visibility: inherit;" fill="rgb(0, 0, 0)" stroke="rgb(204, 204, 204)" stroke-width="1px"></line><line x1="51.53200149536133" y1="209.94444423251682" x2="46.53200149536133" y2="209.94444423251682" style="visibility: inherit;" fill="rgb(0, 0, 0)" stroke="rgb(204, 204, 204)" stroke-width="1px"></line><line x1="51.53200149536133" y1="167.95555538601346" x2="46.53200149536133" y2="167.95555538601346" style="visibility: inherit;" fill="rgb(0, 0, 0)" stroke="rgb(204, 204, 204)" stroke-width="1px"></line><line x1="51.53200149536133" y1="125.9666665395101" x2="46.53200149536133" y2="125.9666665395101" style="visibility: inherit;" fill="rgb(0, 0, 0)" stroke="rgb(204, 204, 204)" stroke-width="1px"></line><line x1="51.53200149536133" y1="83.97777769300673" x2="46.53200149536133" y2="83.97777769300673" style="visibility: inherit;" fill="rgb(0, 0, 0)" stroke="rgb(204, 204, 204)" stroke-width="1px"></line><line x1="51.53200149536133" y1="41.988888846503386" x2="46.53200149536133" y2="41.988888846503386" style="visibility: inherit;" fill="rgb(0, 0, 0)" stroke="rgb(204, 204, 204)" stroke-width="1px"></line><line x1="51.53200149536133" y1="0" x2="46.53200149536133" y2="0" style="visibility: inherit;" fill="rgb(0, 0, 0)" stroke="rgb(204, 204, 204)" stroke-width="1px"></line></g><g transform="translate(41.53200149536133, 0)"><text style="text-anchor: end; visibility: hidden; font-family: Roboto, sans-serif; font-size: 12px; font-weight: 200;" x="0" y="377.8999996185303" dx="0em" dy="0.3em" fill="rgb(50, 49, 63)" stroke="none" stroke-width="1px">-0.5</text><text style="text-anchor: end; visibility: inherit; font-family: Roboto, sans-serif; font-size: 12px; font-weight: 200;" x="0" y="335.9111107720269" dx="0em" dy="0.3em" fill="rgb(50, 49, 63)" stroke="none" stroke-width="1px">0</text><text style="text-anchor: end; visibility: inherit; font-family: Roboto, sans-serif; font-size: 12px; font-weight: 200;" x="0" y="293.92222192552356" dx="0em" dy="0.3em" fill="rgb(50, 49, 63)" stroke="none" stroke-width="1px">0.5</text><text style="text-anchor: end; visibility: inherit; font-family: Roboto, sans-serif; font-size: 12px; font-weight: 200;" x="0" y="251.9333330790202" dx="0em" dy="0.3em" fill="rgb(50, 49, 63)" stroke="none" stroke-width="1px">1</text><text style="text-anchor: end; visibility: inherit; font-family: Roboto, sans-serif; font-size: 12px; font-weight: 200;" x="0" y="209.94444423251682" dx="0em" dy="0.3em" fill="rgb(50, 49, 63)" stroke="none" stroke-width="1px">1.5</text><text style="text-anchor: end; visibility: inherit; font-family: Roboto, sans-serif; font-size: 12px; font-weight: 200;" x="0" y="167.95555538601346" dx="0em" dy="0.3em" fill="rgb(50, 49, 63)" stroke="none" stroke-width="1px">2</text><text style="text-anchor: end; visibility: inherit; font-family: Roboto, sans-serif; font-size: 12px; font-weight: 200;" x="0" y="125.9666665395101" dx="0em" dy="0.3em" fill="rgb(50, 49, 63)" stroke="none" stroke-width="1px">2.5</text><text style="text-anchor: end; visibility: inherit; font-family: Roboto, sans-serif; font-size: 12px; font-weight: 200;" x="0" y="83.97777769300673" dx="0em" dy="0.3em" fill="rgb(50, 49, 63)" stroke="none" stroke-width="1px">3</text><text style="text-anchor: end; visibility: inherit; font-family: Roboto, sans-serif; font-size: 12px; font-weight: 200;" x="0" y="41.988888846503386" dx="0em" dy="0.3em" fill="rgb(50, 49, 63)" stroke="none" stroke-width="1px">3.5</text><text style="text-anchor: end; visibility: hidden; font-family: Roboto, sans-serif; font-size: 12px; font-weight: 200;" x="0" y="0" dx="0em" dy="0.3em" fill="rgb(50, 49, 63)" stroke="none" stroke-width="1px">4</text></g><line x1="51.53200149536133" y1="0" x2="51.53200149536133" y2="377.8999996185303" fill="rgb(0, 0, 0)" stroke="rgb(204, 204, 204)" stroke-width="1px"></line></g></g><g transform="translate(51, 0)" clip-path="url(#clip_0)"><clipPath id="clip_0"><rect width="1382" height="377"></rect></clipPath><g><g><g><line x1="0" y1="0" x2="0" y2="377.8999996185303" fill="rgb(0, 0, 0)" stroke="rgb(60, 60, 60)" stroke-width="1px" opacity="0.25"></line><line x1="115.20566654205322" y1="0" x2="115.20566654205322" y2="377.8999996185303" fill="rgb(0, 0, 0)" stroke="rgb(60, 60, 60)" stroke-width="1px" opacity="0.25"></line><line x1="230.41133308410645" y1="0" x2="230.41133308410645" y2="377.8999996185303" fill="rgb(0, 0, 0)" stroke="rgb(60, 60, 60)" stroke-width="1px" opacity="0.25"></line><line x1="345.61699962615967" y1="0" x2="345.61699962615967" y2="377.8999996185303" fill="rgb(0, 0, 0)" stroke="rgb(60, 60, 60)" stroke-width="1px" opacity="0.25"></line><line x1="460.8226661682129" y1="0" x2="460.8226661682129" y2="377.8999996185303" fill="rgb(0, 0, 0)" stroke="rgb(60, 60, 60)" stroke-width="1px" opacity="0.25"></line><line x1="576.0283327102661" y1="0" x2="576.0283327102661" y2="377.8999996185303" fill="rgb(0, 0, 0)" stroke="rgb(60, 60, 60)" stroke-width="1px" opacity="0.25"></line><line x1="691.2339992523193" y1="0" x2="691.2339992523193" y2="377.8999996185303" fill="rgb(0, 0, 0)" stroke="rgb(60, 60, 60)" stroke-width="1px" opacity="0.25"></line><line x1="806.4396657943726" y1="0" x2="806.4396657943726" y2="377.8999996185303" fill="rgb(0, 0, 0)" stroke="rgb(60, 60, 60)" stroke-width="1px" opacity="0.25"></line><line x1="921.6453323364258" y1="0" x2="921.6453323364258" y2="377.8999996185303" fill="rgb(0, 0, 0)" stroke="rgb(60, 60, 60)" stroke-width="1px" opacity="0.25"></line><line x1="1036.850998878479" y1="0" x2="1036.850998878479" y2="377.8999996185303" fill="rgb(0, 0, 0)" stroke="rgb(60, 60, 60)" stroke-width="1px" opacity="0.25"></line><line x1="1152.0566654205322" y1="0" x2="1152.0566654205322" y2="377.8999996185303" fill="rgb(0, 0, 0)" stroke="rgb(60, 60, 60)" stroke-width="1px" opacity="0.25"></line><line x1="1267.2623319625854" y1="0" x2="1267.2623319625854" y2="377.8999996185303" fill="rgb(0, 0, 0)" stroke="rgb(60, 60, 60)" stroke-width="1px" opacity="0.25"></line><line x1="1382.4679985046387" y1="0" x2="1382.4679985046387" y2="377.8999996185303" fill="rgb(0, 0, 0)" stroke="rgb(60, 60, 60)" stroke-width="1px" opacity="0.25"></line></g><g><line x1="0" y1="377.8999996185303" x2="1382.4679985046387" y2="377.8999996185303" fill="rgb(0, 0, 0)" stroke="rgb(60, 60, 60)" stroke-width="1px" opacity="0.25"></line><line x1="0" y1="335.9111107720269" x2="1382.4679985046387" y2="335.9111107720269" fill="rgb(0, 0, 0)" stroke="rgb(60, 60, 60)" stroke-width="1px" opacity="0.25"></line><line x1="0" y1="293.92222192552356" x2="1382.4679985046387" y2="293.92222192552356" fill="rgb(0, 0, 0)" stroke="rgb(60, 60, 60)" stroke-width="1px" opacity="0.25"></line><line x1="0" y1="251.9333330790202" x2="1382.4679985046387" y2="251.9333330790202" fill="rgb(0, 0, 0)" stroke="rgb(60, 60, 60)" stroke-width="1px" opacity="0.25"></line><line x1="0" y1="209.94444423251682" x2="1382.4679985046387" y2="209.94444423251682" fill="rgb(0, 0, 0)" stroke="rgb(60, 60, 60)" stroke-width="1px" opacity="0.25"></line><line x1="0" y1="167.95555538601346" x2="1382.4679985046387" y2="167.95555538601346" fill="rgb(0, 0, 0)" stroke="rgb(60, 60, 60)" stroke-width="1px" opacity="0.25"></line><line x1="0" y1="125.9666665395101" x2="1382.4679985046387" y2="125.9666665395101" fill="rgb(0, 0, 0)" stroke="rgb(60, 60, 60)" stroke-width="1px" opacity="0.25"></line><line x1="0" y1="83.97777769300673" x2="1382.4679985046387" y2="83.97777769300673" fill="rgb(0, 0, 0)" stroke="rgb(60, 60, 60)" stroke-width="1px" opacity="0.25"></line><line x1="0" y1="41.988888846503386" x2="1382.4679985046387" y2="41.988888846503386" fill="rgb(0, 0, 0)" stroke="rgb(60, 60, 60)" stroke-width="1px" opacity="0.25"></line><line x1="0" y1="0" x2="1382.4679985046387" y2="0" fill="rgb(0, 0, 0)" stroke="rgb(60, 60, 60)" stroke-width="1px" opacity="0.25"></line></g></g></g><g><g><line x1="0" y1="335.9111107720269" x2="1382.4679985046387" y2="335.9111107720269" fill="rgb(0, 0, 0)" stroke="rgb(153, 153, 153)" stroke-width="1.5px"></line></g></g><g><g><line x1="115.20566654205322" y1="0" x2="115.20566654205322" y2="377.8999996185303" fill="rgb(0, 0, 0)" stroke="rgb(153, 153, 153)" stroke-width="1.5px"></line></g></g><g><g><g><g><g><path style="fill: none;" stroke="rgb(0, 119, 187)" stroke-width="2px" d="M115.20566654205322,169.65991642567994L138.24679985046387,230.426539207022L161.28793315887452,261.0987710780766L184.32906646728514,268.5769016587944L207.3701997756958,277.95975706201807L230.41133308410645,279.0154648189552L253.45246639251707,280.77423026431956L276.49359970092775,282.5232851064036L299.53473300933837,282.32245581526263L322.57586631774905,282.42327089808174L345.61699962615967,282.44174607164246L368.6581329345703,282.6293559281116L391.69926624298097,282.5067870917582L414.7403995513916,282.5050852334514L437.7815328598022,282.48058848476376L460.8226661682129,282.4837219062346L483.8637994766235,282.4673540336951L506.90493278503413,282.47011204524534L529.9460660934449,282.46499145392795L552.9871994018555,282.4650314976528L576.0283327102661,282.46749919219775L599.0694660186767,282.46644303895437L622.1105993270875,282.4658624049438L645.1517326354981,282.46572225190675L668.1928659439087,282.46612268915544L691.2339992523193,282.46608264543056L714.2751325607301,282.46618776020836L737.3162658691406,282.46619777113955L760.3573991775513,282.4662278039332L783.3985324859619,282.46620277660514L806.4396657943726,282.4662077820708L829.4807991027832,282.4662227984676L852.5219324111939,282.466217793002L875.5630657196044,282.466217793002L898.6041990280152,282.466217793002L921.6453323364258,282.466217793002L944.6864656448364,282.466217793002L967.727598953247,282.466217793002L990.7687322616578,282.466217793002L1013.8098655700683,282.466217793002L1036.850998878479,282.466217793002L1059.8921321868897,282.466217793002L1082.9332654953002,282.466217793002L1105.974398803711,282.466217793002L1129.0155321121215,282.466217793002L1152.0566654205322,282.466217793002L1175.0977987289427,282.466217793002L1198.1389320373535,282.466217793002L1221.1800653457642,282.466217793002L1244.221198654175,282.466217793002" fill="none"></path></g><g><path style="fill: none;" stroke="rgb(255, 112, 67)" stroke-width="2px" d="M115.20566654205322,300.1002929346981L138.24679985046387,306.8115986978702L161.28793315887452,310.8192022126551L184.32906646728514,312.7945141111709L207.3701997756958,313.7044076494692L230.41133308410645,314.0793420508678L253.45246639251707,314.2246181819537L276.49359970092775,314.6147842151987L299.53473300933837,314.93101576730817L322.57586631774905,314.7547420390757L345.61699962615967,315.25650117396117L368.6581329345703,315.5504846828076L391.69926624298097,315.31607497426614L414.7403995513916,315.6902548017243L437.7815328598022,314.6583542905872L460.8226661682129,315.3159798704196L483.8637994766235,315.9641225956569L506.90493278503413,315.1171915578805L529.9460660934449,314.99828922508533L552.9871994018555,315.35246470923937L576.0283327102661,315.0657804206164L599.0694660186767,315.0911456175871L622.1105993270875,315.09247081460694L645.1517326354981,314.88806011282315L668.1928659439087,315.90394813947887L691.2339992523193,314.76266569113386L714.2751325607301,314.95210754801565L737.3162658691406,315.29076233468436L760.3573991775513,315.27515779565016L783.3985324859619,315.07090852013226L806.4396657943726,315.14291589700855L829.4807991027832,315.034724009249L852.5219324111939,314.75679678270797L875.5630657196044,316.10695230542666L898.6041990280152,314.6992164090815L921.6453323364258,314.80839061946676L944.6864656448364,315.39516383361195L967.727598953247,315.066245928918L990.7687322616578,314.62848167183614L1013.8098655700683,315.13743491216735L1036.850998878479,315.6032147602595L1059.8921321868897,315.4367404823219L1082.9332654953002,315.2956726964462L1105.974398803711,315.44668258838664L1129.0155321121215,315.235948732173L1152.0566654205322,315.0417016283071L1175.0977987289427,315.1026168933952L1198.1389320373535,315.81792295616617L1221.1800653457642,314.4618271971367L1244.221198654175,315.4949089981573" fill="none"></path></g><g><path style="fill: none;" stroke="rgb(238, 51, 119)" stroke-width="2px" d="M115.20566654205322,128.12161959324638L138.24679985046387,174.92317352386306L161.28793315887452,215.23543161017062L184.32906646728514,237.75574216949255L207.3701997756958,242.11107788282715L230.41133308410645,257.00821448449614L253.45246639251707,257.4106188811537L276.49359970092775,259.41233961621947L299.53473300933837,256.3928024988723L322.57586631774905,263.52971549452985L345.61699962615967,263.6764256915126L368.6581329345703,263.7880275527179L391.69926624298097,262.6011615804434L414.7403995513916,264.7390910456454L437.7815328598022,265.3710611115019L460.8226661682129,259.0310332571014L483.8637994766235,266.44778181306316L506.90493278503413,262.75937433739426L529.9460660934449,264.4299685060663L552.9871994018555,264.9399103258552L576.0283327102661,262.29827585101236L599.0694660186767,266.5546735311309L622.1105993270875,265.5225915718655L645.1517326354981,266.9018326038684L668.1928659439087,264.41428137684954L691.2339992523193,260.95129003939013L714.2751325607301,257.9810517528203L737.3162658691406,262.7455442359182L760.3573991775513,258.6826678671523L783.3985324859619,266.913009808572L806.4396657943726,261.6057196294316L829.4807991027832,266.06761670010377L852.5219324111939,260.7001658298158L875.5630657196044,266.07841849488676L898.6041990280152,263.47311368942985L921.6453323364258,261.62037062726745L944.6864656448364,264.28210204652805L967.727598953247,260.55345062736745L990.7687322616578,262.5137361181267L1013.8098655700683,260.35814236479257L1036.850998878479,259.10855790844454L1059.8921321868897,261.05669513417223L1082.9332654953002,261.4723039491048L1105.974398803711,262.78581821220354L1129.0155321121215,263.49499257960423L1152.0566654205322,264.87701164501976L1175.0977987289427,268.0924777026773L1198.1389320373535,266.682793428844L1221.1800653457642,261.0563247297172L1244.221198654175,259.9894597899389" fill="none"></path></g><g><path style="fill: none;" stroke="rgb(204, 51, 17)" stroke-width="2px" d="M115.20566654205322,79.89311753791299L138.24679985046387,196.21061788196914L161.28793315887452,225.8306107837532L184.32906646728514,240.47465102239812L207.3701997756958,248.35615706010157L230.41133308410645,255.7956003971319L253.45246639251707,254.61828485323824L276.49359970092775,259.93823385490236L299.53473300933837,260.61807619383774L322.57586631774905,263.254745246797L345.61699962615967,260.86715817344384L368.6581329345703,262.3401065271019L391.69926624298097,260.8956643000838L414.7403995513916,259.59934881681556L437.7815328598022,265.045535661124L460.8226661682129,263.35033962898655L483.8637994766235,263.49780565127617L506.90493278503413,265.76342454414896L529.9460660934449,263.375592202981L552.9871994018555,259.80535375939564L576.0283327102661,263.0139973674289L599.0694660186767,263.6065844298783L622.1105993270875,264.45745852318777L645.1517326354981,261.8609783535985L668.1928659439087,263.2630843525006L691.2339992523193,261.4367701487506L714.2751325607301,266.62770327435777L737.3162658691406,261.3195571605983L760.3573991775513,263.9357488537535L783.3985324859619,262.37957962888987L806.4396657943726,261.64132851176987L829.4807991027832,264.9569589417174L852.5219324111939,262.9287542881175L875.5630657196044,260.4847005572358L898.6041990280152,262.1938918712144L921.6453323364258,261.39232661961347L944.6864656448364,262.24428689895996L967.727598953247,262.3082367275731L990.7687322616578,263.0437999096614L1013.8098655700683,261.78979562718115L1036.850998878479,260.0098020021715L1059.8921321868897,262.00764350139076L1082.9332654953002,262.01859546014197L1105.974398803711,263.2894030906697L1129.0155321121215,265.3536420911846L1152.0566654205322,262.5044459739575L1175.0977987289427,257.01814532826324L1198.1389320373535,257.7404390210236L1221.1800653457642,264.8465884250518L1244.221198654175,259.0363991162336" fill="none"></path></g><g><path style="fill: none;" stroke="rgb(0, 153, 136)" stroke-width="2px" d="M115.20566654205322,300.8558954983497L138.24679985046387,307.53520382262L161.28793315887452,311.07480381121627L184.32906646728514,311.63015771773746L207.3701997756958,311.8390082675159L230.41133308410645,313.0075116892059L253.45246639251707,313.99493738704587L276.49359970092775,313.9209190643613L299.53473300933837,314.44430556477437L322.57586631774905,314.32847408513L345.61699962615967,315.24269609981314L368.6581329345703,314.4399332905655L391.69926624298097,314.6479053811296L414.7403995513916,315.25405224991226L437.7815328598022,314.455495283142L460.8226661682129,314.5694221831224L483.8637994766235,315.1581587911526L506.90493278503413,315.5369136141768L529.9460660934449,315.06957456354763L552.9871994018555,314.21277274759143L576.0283327102661,314.8525538425298L599.0694660186767,315.6543768756095L622.1105993270875,314.9885448349121L645.1517326354981,314.943634546107L668.1928659439087,315.7203263877333L691.2339992523193,314.8722828852254L714.2751325607301,314.8120095711016L737.3162658691406,315.4831899518016L760.3573991775513,315.27740274697555L783.3985324859619,315.1669095964025L806.4396657943726,315.0441793337833L829.4807991027832,315.06269830516806L852.5219324111939,315.23739781446665L875.5630657196044,313.9566480778742L898.6041990280152,315.1335544249544L921.6453323364258,314.85616278323346L944.6864656448364,314.51442713248275L967.727598953247,314.74708367669484L990.7687322616578,313.9971047536543L1013.8098655700683,314.54308592582373L1036.850998878479,314.44956380639604L1059.8921321868897,314.9538131604217L1082.9332654953002,314.73029534504417L1105.974398803711,314.76605439135074L1129.0155321121215,314.5631077882574L1152.0566654205322,314.87545885315393L1175.0977987289427,314.7842392479061L1198.1389320373535,315.00593882790133L1221.1800653457642,314.16713040944103L1244.221198654175,315.36195507203297" fill="none"></path></g><g><path style="fill: none;" stroke="rgb(51, 187, 238)" stroke-width="2px" d="M115.20566654205322,303.4729956835128L138.24679985046387,308.47145614281226L161.28793315887452,312.6549241890161L184.32906646728514,313.73843230194245L207.3701997756958,313.736149809625L230.41133308410645,315.06283470410585L253.45246639251707,315.458770787831L276.49359970092775,316.1729243421457L299.53473300933837,315.9368928627471L322.57586631774905,315.2159131047089L345.61699962615967,316.19428141253036L368.6581329345703,315.9580822500339L391.69926624298097,316.10246115140956L414.7403995513916,316.24245526491217L437.7815328598022,315.26471264029175L460.8226661682129,316.13062315228893L483.8637994766235,316.2523247917256L506.90493278503413,315.51052104539L529.9460660934449,316.59899332883344L552.9871994018555,316.16155442701614L576.0283327102661,316.3927856648962L599.0694660186767,316.1815249834273L622.1105993270875,315.6879560416436L645.1517326354981,316.12058469101123L668.1928659439087,316.3397139644166L691.2339992523193,315.6416830148266L714.2751325607301,316.49310145252093L737.3162658691406,316.186303951717L760.3573991775513,316.10520790066215L783.3985324859619,316.21271153690054L806.4396657943726,315.968728875383L829.4807991027832,316.86606870593545L852.5219324111939,316.0214539473693L875.5630657196044,315.90710909101057L898.6041990280152,315.58136214877953L921.6453323364258,315.95583729870856L944.6864656448364,315.4772634805213L967.727598953247,316.3744406334414L990.7687322616578,316.3708216818065L1013.8098655700683,316.7949598101358L1036.850998878479,315.59503332672256L1059.8921321868897,315.8747187230585L1082.9332654953002,315.89155710936524L1105.974398803711,316.55880945092906L1129.0155321121215,316.0212174391193L1152.0566654205322,316.135185634191L1175.0977987289427,315.93769373724444L1198.1389320373535,315.78263317226043L1221.1800653457642,315.50619131763875L1244.221198654175,316.6903580925839" fill="none"></path></g><g><path style="fill: none;" stroke="rgb(0, 119, 187)" stroke-width="2px" d="M115.20566654205322,303.09244765243443L138.24679985046387,309.87024351801597L161.28793315887452,311.17417982267295L184.32906646728514,313.4957272855214L207.3701997756958,314.44862528159445L230.41133308410645,315.444141063224L253.45246639251707,315.5344346573342L276.49359970092775,315.4333154924793L299.53473300933837,315.16183030017635L322.57586631774905,316.219621582173L345.61699962615967,316.4803750562115L368.6581329345703,315.842410945289L391.69926624298097,316.30496977626217L414.7403995513916,316.65088499079593L437.7815328598022,315.8585510691433L460.8226661682129,316.28835413317495L483.8637994766235,316.34333291605145L506.90493278503413,316.4665111678426L529.9460660934449,315.43656028556L552.9871994018555,315.90944789481614L576.0283327102661,316.00114802476236L599.0694660186767,316.08106654003274L622.1105993270875,316.21768571834895L645.1517326354981,315.88097305233623L668.1928659439087,315.9915788258855L691.2339992523193,316.05964314722877L714.2751325607301,315.77044361213757L737.3162658691406,316.41159119918706L760.3573991775513,315.9633404916556L783.3985324859619,315.691747681842L806.4396657943726,316.56861265532314L829.4807991027832,316.22645654546125L852.5219324111939,316.19920053385704L875.5630657196044,316.60246086513365L898.6041990280152,316.012689377089L921.6453323364258,316.3910487683301L944.6864656448364,316.3285167378505L967.727598953247,316.23235548668083L990.7687322616578,316.1736238559644L1013.8098655700683,315.80822611791626L1036.850998878479,315.78868478018103L1059.8921321868897,316.22160499792034L1082.9332654953002,316.11066510954174L1105.974398803711,315.99705105116186L1129.0155321121215,315.53482258091884L1152.0566654205322,316.515981435817L1175.0977987289427,316.22351958851556L1198.1389320373535,315.78958951808977L1221.1800653457642,315.621462185135L1244.221198654175,316.2082729402723" fill="none"></path></g><g><path style="fill: none;" stroke="rgb(0, 119, 187)" stroke-width="2px" d="M115.20566654205322,305.13533834212944L138.24679985046387,310.98261314564036L161.28793315887452,313.8520363493911L184.32906646728514,314.6509411960211L207.3701997756958,315.51739855513597L230.41133308410645,316.1477856424938L253.45246639251707,316.1241673530204L276.49359970092775,316.2068851749324L299.53473300933837,316.41335187171484L322.57586631774905,316.7383254695094L345.61699962615967,316.3206644136773L368.6581329345703,316.7045811231102L391.69926624298097,316.86319306594334L414.7403995513916,316.5900473104248L437.7815328598022,316.8211183734054L460.8226661682129,316.61029817291L483.8637994766235,316.93468988532766L506.90493278503413,316.84779875646467L529.9460660934449,317.01366862443L552.9871994018555,317.06046472240314L576.0283327102661,316.5516679028722L599.0694660186767,316.5425466931673L622.1105993270875,316.7831857036584L645.1517326354981,316.6607395012125L668.1928659439087,316.8022502707945L691.2339992523193,316.7931177987919L714.2751325607301,316.6098038831812L737.3162658691406,317.1331065420453L760.3573991775513,316.46670262690213L783.3985324859619,316.86431554160606L806.4396657943726,316.70279917735365L829.4807991027832,316.96194714829824L852.5219324111939,316.6380684961056L875.5630657196044,316.31732076265087L898.6041990280152,316.8379742788418L921.6453323364258,316.5853446754857L944.6864656448364,316.5879299984724L967.727598953247,316.87657392688106L990.7687322616578,316.9838272898391L1013.8098655700683,316.7559547193822L1036.850998878479,316.73652350189036L1059.8921321868897,316.75548295424863L1082.9332654953002,316.6273430346731L1105.974398803711,316.75324926522086L1129.0155321121215,316.4406091346854L1152.0566654205322,316.6883571577069L1175.0977987289427,316.9109739892749L1198.1389320373535,316.76187618519697L1221.1800653457642,316.7003477505719L1244.221198654175,316.5574479642836" fill="none"></path></g></g></g></g></g></g><g transform="translate(51, 377)" clip-path="url(#clip_1)"><clipPath id="clip_1"><rect width="1382" height="22"></rect></clipPath><g><g><line x1="0" y1="0" x2="0" y2="5" style="visibility: inherit;" fill="rgb(0, 0, 0)" stroke="rgb(204, 204, 204)" stroke-width="1px"></line><line x1="115.20566654205322" y1="0" x2="115.20566654205322" y2="5" style="visibility: inherit;" fill="rgb(0, 0, 0)" stroke="rgb(204, 204, 204)" stroke-width="1px"></line><line x1="230.41133308410645" y1="0" x2="230.41133308410645" y2="5" style="visibility: inherit;" fill="rgb(0, 0, 0)" stroke="rgb(204, 204, 204)" stroke-width="1px"></line><line x1="345.61699962615967" y1="0" x2="345.61699962615967" y2="5" style="visibility: inherit;" fill="rgb(0, 0, 0)" stroke="rgb(204, 204, 204)" stroke-width="1px"></line><line x1="460.8226661682129" y1="0" x2="460.8226661682129" y2="5" style="visibility: inherit;" fill="rgb(0, 0, 0)" stroke="rgb(204, 204, 204)" stroke-width="1px"></line><line x1="576.0283327102661" y1="0" x2="576.0283327102661" y2="5" style="visibility: inherit;" fill="rgb(0, 0, 0)" stroke="rgb(204, 204, 204)" stroke-width="1px"></line><line x1="691.2339992523193" y1="0" x2="691.2339992523193" y2="5" style="visibility: inherit;" fill="rgb(0, 0, 0)" stroke="rgb(204, 204, 204)" stroke-width="1px"></line><line x1="806.4396657943726" y1="0" x2="806.4396657943726" y2="5" style="visibility: inherit;" fill="rgb(0, 0, 0)" stroke="rgb(204, 204, 204)" stroke-width="1px"></line><line x1="921.6453323364258" y1="0" x2="921.6453323364258" y2="5" style="visibility: inherit;" fill="rgb(0, 0, 0)" stroke="rgb(204, 204, 204)" stroke-width="1px"></line><line x1="1036.850998878479" y1="0" x2="1036.850998878479" y2="5" style="visibility: inherit;" fill="rgb(0, 0, 0)" stroke="rgb(204, 204, 204)" stroke-width="1px"></line><line x1="1152.0566654205322" y1="0" x2="1152.0566654205322" y2="5" style="visibility: inherit;" fill="rgb(0, 0, 0)" stroke="rgb(204, 204, 204)" stroke-width="1px"></line><line x1="1267.2623319625854" y1="0" x2="1267.2623319625854" y2="5" style="visibility: inherit;" fill="rgb(0, 0, 0)" stroke="rgb(204, 204, 204)" stroke-width="1px"></line><line x1="1382.4679985046387" y1="0" x2="1382.4679985046387" y2="5" style="visibility: inherit;" fill="rgb(0, 0, 0)" stroke="rgb(204, 204, 204)" stroke-width="1px"></line></g><g transform="translate(0, 8)"><text style="text-anchor: middle; visibility: hidden; font-family: Roboto, sans-serif; font-size: 12px; font-weight: 200;" x="0" y="0" dx="0em" dy="0.95em" fill="rgb(50, 49, 63)" stroke="none" stroke-width="1px">-5</text><text style="text-anchor: middle; visibility: inherit; font-family: Roboto, sans-serif; font-size: 12px; font-weight: 200;" x="115.20566654205322" y="0" dx="0em" dy="0.95em" fill="rgb(50, 49, 63)" stroke="none" stroke-width="1px">0</text><text style="text-anchor: middle; visibility: inherit; font-family: Roboto, sans-serif; font-size: 12px; font-weight: 200;" x="230.41133308410645" y="0" dx="0em" dy="0.95em" fill="rgb(50, 49, 63)" stroke="none" stroke-width="1px">5</text><text style="text-anchor: middle; visibility: inherit; font-family: Roboto, sans-serif; font-size: 12px; font-weight: 200;" x="345.61699962615967" y="0" dx="0em" dy="0.95em" fill="rgb(50, 49, 63)" stroke="none" stroke-width="1px">10</text><text style="text-anchor: middle; visibility: inherit; font-family: Roboto, sans-serif; font-size: 12px; font-weight: 200;" x="460.8226661682129" y="0" dx="0em" dy="0.95em" fill="rgb(50, 49, 63)" stroke="none" stroke-width="1px">15</text><text style="text-anchor: middle; visibility: inherit; font-family: Roboto, sans-serif; font-size: 12px; font-weight: 200;" x="576.0283327102661" y="0" dx="0em" dy="0.95em" fill="rgb(50, 49, 63)" stroke="none" stroke-width="1px">20</text><text style="text-anchor: middle; visibility: inherit; font-family: Roboto, sans-serif; font-size: 12px; font-weight: 200;" x="691.2339992523193" y="0" dx="0em" dy="0.95em" fill="rgb(50, 49, 63)" stroke="none" stroke-width="1px">25</text><text style="text-anchor: middle; visibility: inherit; font-family: Roboto, sans-serif; font-size: 12px; font-weight: 200;" x="806.4396657943726" y="0" dx="0em" dy="0.95em" fill="rgb(50, 49, 63)" stroke="none" stroke-width="1px">30</text><text style="text-anchor: middle; visibility: inherit; font-family: Roboto, sans-serif; font-size: 12px; font-weight: 200;" x="921.6453323364258" y="0" dx="0em" dy="0.95em" fill="rgb(50, 49, 63)" stroke="none" stroke-width="1px">35</text><text style="text-anchor: middle; visibility: inherit; font-family: Roboto, sans-serif; font-size: 12px; font-weight: 200;" x="1036.850998878479" y="0" dx="0em" dy="0.95em" fill="rgb(50, 49, 63)" stroke="none" stroke-width="1px">40</text><text style="text-anchor: middle; visibility: inherit; font-family: Roboto, sans-serif; font-size: 12px; font-weight: 200;" x="1152.0566654205322" y="0" dx="0em" dy="0.95em" fill="rgb(50, 49, 63)" stroke="none" stroke-width="1px">45</text><text style="text-anchor: middle; visibility: inherit; font-family: Roboto, sans-serif; font-size: 12px; font-weight: 200;" x="1267.2623319625854" y="0" dx="0em" dy="0.95em" fill="rgb(50, 49, 63)" stroke="none" stroke-width="1px">50</text><text style="text-anchor: middle; visibility: hidden; font-family: Roboto, sans-serif; font-size: 12px; font-weight: 200;" x="1382.4679985046387" y="0" dx="0em" dy="0.95em" fill="rgb(50, 49, 63)" stroke="none" stroke-width="1px">55</text></g><line x1="0" y1="0" x2="1382.4679985046387" y2="0" fill="rgb(0, 0, 0)" stroke="rgb(204, 204, 204)" stroke-width="1px"></line></g></g></g></g></svg>