<svg viewBox="0 0 1434 400" xmlns="http://www.w3.org/2000/svg"><g><g><g><g><g><line x1="51.53200149536133" y1="377.8999996185303" x2="46.53200149536133" y2="377.8999996185303" style="visibility: inherit;" fill="rgb(0, 0, 0)" stroke="rgb(204, 204, 204)" stroke-width="1px"></line><line x1="51.53200149536133" y1="348.8307688786433" x2="46.53200149536133" y2="348.8307688786433" style="visibility: inherit;" fill="rgb(0, 0, 0)" stroke="rgb(204, 204, 204)" stroke-width="1px"></line><line x1="51.53200149536133" y1="319.76153813875635" x2="46.53200149536133" y2="319.76153813875635" style="visibility: inherit;" fill="rgb(0, 0, 0)" stroke="rgb(204, 204, 204)" stroke-width="1px"></line><line x1="51.53200149536133" y1="290.6923073988697" x2="46.53200149536133" y2="290.6923073988697" style="visibility: inherit;" fill="rgb(0, 0, 0)" stroke="rgb(204, 204, 204)" stroke-width="1px"></line><line x1="51.53200149536133" y1="261.62307665898277" x2="46.53200149536133" y2="261.62307665898277" style="visibility: inherit;" fill="rgb(0, 0, 0)" stroke="rgb(204, 204, 204)" stroke-width="1px"></line><line x1="51.53200149536133" y1="232.55384591909572" x2="46.53200149536133" y2="232.55384591909572" style="visibility: inherit;" fill="rgb(0, 0, 0)" stroke="rgb(204, 204, 204)" stroke-width="1px"></line><line x1="51.53200149536133" y1="203.48461517920882" x2="46.53200149536133" y2="203.48461517920882" style="visibility: inherit;" fill="rgb(0, 0, 0)" stroke="rgb(204, 204, 204)" stroke-width="1px"></line><line x1="51.53200149536133" y1="174.4153844393218" x2="46.53200149536133" y2="174.4153844393218" style="visibility: inherit;" fill="rgb(0, 0, 0)" stroke="rgb(204, 204, 204)" stroke-width="1px"></line><line x1="51.53200149536133" y1="145.34615369943484" x2="46.53200149536133" y2="145.34615369943484" style="visibility: inherit;" fill="rgb(0, 0, 0)" stroke="rgb(204, 204, 204)" stroke-width="1px"></line><line x1="51.53200149536133" y1="116.27692295954786" x2="46.53200149536133" y2="116.27692295954786" style="visibility: inherit;" fill="rgb(0, 0, 0)" stroke="rgb(204, 204, 204)" stroke-width="1px"></line><line x1="51.53200149536133" y1="87.2076922196609" x2="46.53200149536133" y2="87.2076922196609" style="visibility: inherit;" fill="rgb(0, 0, 0)" stroke="rgb(204, 204, 204)" stroke-width="1px"></line><line x1="51.53200149536133" y1="58.13846147977393" x2="46.53200149536133" y2="58.13846147977393" style="visibility: inherit;" fill="rgb(0, 0, 0)" stroke="rgb(204, 204, 204)" stroke-width="1px"></line><line x1="51.53200149536133" y1="29.069230739886965" x2="46.53200149536133" y2="29.069230739886965" style="visibility: inherit;" fill="rgb(0, 0, 0)" stroke="rgb(204, 204, 204)" stroke-width="1px"></line><line x1="51.53200149536133" y1="0" x2="46.53200149536133" y2="0" style="visibility: inherit;" fill="rgb(0, 0, 0)" stroke="rgb(204, 204, 204)" stroke-width="1px"></line></g><g transform="translate(41.53200149536133, 0)"><text style="text-anchor: end; visibility: hidden; font-family: Roboto, sans-serif; font-size: 12px; font-weight: 200;" x="0" y="377.8999996185303" dx="0em" dy="0.3em" fill="rgb(50, 49, 63)" stroke="none" stroke-width="1px">0.79</text><text style="text-anchor: end; visibility: inherit; font-family: Roboto, sans-serif; font-size: 12px; font-weight: 200;" x="0" y="348.8307688786433" dx="0em" dy="0.3em" fill="rgb(50, 49, 63)" stroke="none" stroke-width="1px">0.8</text><text style="text-anchor: end; visibility: inherit; font-family: Roboto, sans-serif; font-size: 12px; font-weight: 200;" x="0" y="319.76153813875635" dx="0em" dy="0.3em" fill="rgb(50, 49, 63)" stroke="none" stroke-width="1px">0.81</text><text style="text-anchor: end; visibility: inherit; font-family: Roboto, sans-serif; font-size: 12px; font-weight: 200;" x="0" y="290.6923073988697" dx="0em" dy="0.3em" fill="rgb(50, 49, 63)" stroke="none" stroke-width="1px">0.82</text><text style="text-anchor: end; visibility: inherit; font-family: Roboto, sans-serif; font-size: 12px; font-weight: 200;" x="0" y="261.62307665898277" dx="0em" dy="0.3em" fill="rgb(50, 49, 63)" stroke="none" stroke-width="1px">0.83</text><text style="text-anchor: end; visibility: inherit; font-family: Roboto, sans-serif; font-size: 12px; font-weight: 200;" x="0" y="232.55384591909572" dx="0em" dy="0.3em" fill="rgb(50, 49, 63)" stroke="none" stroke-width="1px">0.84</text><text style="text-anchor: end; visibility: inherit; font-family: Roboto, sans-serif; font-size: 12px; font-weight: 200;" x="0" y="203.48461517920882" dx="0em" dy="0.3em" fill="rgb(50, 49, 63)" stroke="none" stroke-width="1px">0.85</text><text style="text-anchor: end; visibility: inherit; font-family: Roboto, sans-serif; font-size: 12px; font-weight: 200;" x="0" y="174.4153844393218" dx="0em" dy="0.3em" fill="rgb(50, 49, 63)" stroke="none" stroke-width="1px">0.86</text><text style="text-anchor: end; visibility: inherit; font-family: Roboto, sans-serif; font-size: 12px; font-weight: 200;" x="0" y="145.34615369943484" dx="0em" dy="0.3em" fill="rgb(50, 49, 63)" stroke="none" stroke-width="1px">0.87</text><text style="text-anchor: end; visibility: inherit; font-family: Roboto, sans-serif; font-size: 12px; font-weight: 200;" x="0" y="116.27692295954786" dx="0em" dy="0.3em" fill="rgb(50, 49, 63)" stroke="none" stroke-width="1px">0.88</text><text style="text-anchor: end; visibility: inherit; font-family: Roboto, sans-serif; font-size: 12px; font-weight: 200;" x="0" y="87.2076922196609" dx="0em" dy="0.3em" fill="rgb(50, 49, 63)" stroke="none" stroke-width="1px">0.89</text><text style="text-anchor: end; visibility: inherit; font-family: Roboto, sans-serif; font-size: 12px; font-weight: 200;" x="0" y="58.13846147977393" dx="0em" dy="0.3em" fill="rgb(50, 49, 63)" stroke="none" stroke-width="1px">0.9</text><text style="text-anchor: end; visibility: inherit; font-family: Roboto, sans-serif; font-size: 12px; font-weight: 200;" x="0" y="29.069230739886965" dx="0em" dy="0.3em" fill="rgb(50, 49, 63)" stroke="none" stroke-width="1px">0.91</text><text style="text-anchor: end; visibility: hidden; font-family: Roboto, sans-serif; font-size: 12px; font-weight: 200;" x="0" y="0" dx="0em" dy="0.3em" fill="rgb(50, 49, 63)" stroke="none" stroke-width="1px">0.92</text></g><line x1="51.53200149536133" y1="0" x2="51.53200149536133" y2="377.8999996185303" fill="rgb(0, 0, 0)" stroke="rgb(204, 204, 204)" stroke-width="1px"></line></g></g><g transform="translate(51, 0)" clip-path="url(#clip_0)"><clipPath id="clip_0"><rect width="1382" height="377"></rect></clipPath><g><g><g><line x1="0" y1="0" x2="0" y2="377.8999996185303" fill="rgb(0, 0, 0)" stroke="rgb(60, 60, 60)" stroke-width="1px" opacity="0.25"></line><line x1="115.20566654205322" y1="0" x2="115.20566654205322" y2="377.8999996185303" fill="rgb(0, 0, 0)" stroke="rgb(60, 60, 60)" stroke-width="1px" opacity="0.25"></line><line x1="230.41133308410645" y1="0" x2="230.41133308410645" y2="377.8999996185303" fill="rgb(0, 0, 0)" stroke="rgb(60, 60, 60)" stroke-width="1px" opacity="0.25"></line><line x1="345.61699962615967" y1="0" x2="345.61699962615967" y2="377.8999996185303" fill="rgb(0, 0, 0)" stroke="rgb(60, 60, 60)" stroke-width="1px" opacity="0.25"></line><line x1="460.8226661682129" y1="0" x2="460.8226661682129" y2="377.8999996185303" fill="rgb(0, 0, 0)" stroke="rgb(60, 60, 60)" stroke-width="1px" opacity="0.25"></line><line x1="576.0283327102661" y1="0" x2="576.0283327102661" y2="377.8999996185303" fill="rgb(0, 0, 0)" stroke="rgb(60, 60, 60)" stroke-width="1px" opacity="0.25"></line><line x1="691.2339992523193" y1="0" x2="691.2339992523193" y2="377.8999996185303" fill="rgb(0, 0, 0)" stroke="rgb(60, 60, 60)" stroke-width="1px" opacity="0.25"></line><line x1="806.4396657943726" y1="0" x2="806.4396657943726" y2="377.8999996185303" fill="rgb(0, 0, 0)" stroke="rgb(60, 60, 60)" stroke-width="1px" opacity="0.25"></line><line x1="921.6453323364258" y1="0" x2="921.6453323364258" y2="377.8999996185303" fill="rgb(0, 0, 0)" stroke="rgb(60, 60, 60)" stroke-width="1px" opacity="0.25"></line><line x1="1036.850998878479" y1="0" x2="1036.850998878479" y2="377.8999996185303" fill="rgb(0, 0, 0)" stroke="rgb(60, 60, 60)" stroke-width="1px" opacity="0.25"></line><line x1="1152.0566654205322" y1="0" x2="1152.0566654205322" y2="377.8999996185303" fill="rgb(0, 0, 0)" stroke="rgb(60, 60, 60)" stroke-width="1px" opacity="0.25"></line><line x1="1267.2623319625854" y1="0" x2="1267.2623319625854" y2="377.8999996185303" fill="rgb(0, 0, 0)" stroke="rgb(60, 60, 60)" stroke-width="1px" opacity="0.25"></line><line x1="1382.4679985046387" y1="0" x2="1382.4679985046387" y2="377.8999996185303" fill="rgb(0, 0, 0)" stroke="rgb(60, 60, 60)" stroke-width="1px" opacity="0.25"></line></g><g><line x1="0" y1="377.8999996185303" x2="1382.4679985046387" y2="377.8999996185303" fill="rgb(0, 0, 0)" stroke="rgb(60, 60, 60)" stroke-width="1px" opacity="0.25"></line><line x1="0" y1="348.8307688786433" x2="1382.4679985046387" y2="348.8307688786433" fill="rgb(0, 0, 0)" stroke="rgb(60, 60, 60)" stroke-width="1px" opacity="0.25"></line><line x1="0" y1="319.76153813875635" x2="1382.4679985046387" y2="319.76153813875635" fill="rgb(0, 0, 0)" stroke="rgb(60, 60, 60)" stroke-width="1px" opacity="0.25"></line><line x1="0" y1="290.6923073988697" x2="1382.4679985046387" y2="290.6923073988697" fill="rgb(0, 0, 0)" stroke="rgb(60, 60, 60)" stroke-width="1px" opacity="0.25"></line><line x1="0" y1="261.62307665898277" x2="1382.4679985046387" y2="261.62307665898277" fill="rgb(0, 0, 0)" stroke="rgb(60, 60, 60)" stroke-width="1px" opacity="0.25"></line><line x1="0" y1="232.55384591909572" x2="1382.4679985046387" y2="232.55384591909572" fill="rgb(0, 0, 0)" stroke="rgb(60, 60, 60)" stroke-width="1px" opacity="0.25"></line><line x1="0" y1="203.48461517920882" x2="1382.4679985046387" y2="203.48461517920882" fill="rgb(0, 0, 0)" stroke="rgb(60, 60, 60)" stroke-width="1px" opacity="0.25"></line><line x1="0" y1="174.4153844393218" x2="1382.4679985046387" y2="174.4153844393218" fill="rgb(0, 0, 0)" stroke="rgb(60, 60, 60)" stroke-width="1px" opacity="0.25"></line><line x1="0" y1="145.34615369943484" x2="1382.4679985046387" y2="145.34615369943484" fill="rgb(0, 0, 0)" stroke="rgb(60, 60, 60)" stroke-width="1px" opacity="0.25"></line><line x1="0" y1="116.27692295954786" x2="1382.4679985046387" y2="116.27692295954786" fill="rgb(0, 0, 0)" stroke="rgb(60, 60, 60)" stroke-width="1px" opacity="0.25"></line><line x1="0" y1="87.2076922196609" x2="1382.4679985046387" y2="87.2076922196609" fill="rgb(0, 0, 0)" stroke="rgb(60, 60, 60)" stroke-width="1px" opacity="0.25"></line><line x1="0" y1="58.13846147977393" x2="1382.4679985046387" y2="58.13846147977393" fill="rgb(0, 0, 0)" stroke="rgb(60, 60, 60)" stroke-width="1px" opacity="0.25"></line><line x1="0" y1="29.069230739886965" x2="1382.4679985046387" y2="29.069230739886965" fill="rgb(0, 0, 0)" stroke="rgb(60, 60, 60)" stroke-width="1px" opacity="0.25"></line><line x1="0" y1="0" x2="1382.4679985046387" y2="0" fill="rgb(0, 0, 0)" stroke="rgb(60, 60, 60)" stroke-width="1px" opacity="0.25"></line></g></g></g><g><g><line x1="0" y1="2674.3692280695986" x2="1382.4679985046387" y2="2674.3692280695986" fill="rgb(0, 0, 0)" stroke="rgb(153, 153, 153)" stroke-width="1.5px"></line></g></g><g><g><line x1="115.20566654205322" y1="0" x2="115.20566654205322" y2="377.8999996185303" fill="rgb(0, 0, 0)" stroke="rgb(153, 153, 153)" stroke-width="1.5px"></line></g></g><g><g><g><g><g><path style="fill: none;" stroke="rgb(0, 119, 187)" stroke-width="2px" d="M115.20566654205322,321.18144703868444L138.24679985046387,243.46414302494878L161.28793315887452,148.55953324800524L184.32906646728514,126.88827363740381L207.3701997756958,97.7443929235762L230.41133308410645,93.26061234229984L253.45246639251707,88.77700502714066L276.49359970092775,79.80961713070508L299.53473300933837,79.80961713070508L322.57586631774905,76.82043007652084L345.61699962615967,76.82043007652084L368.6581329345703,77.56772684006692L391.69926624298097,76.07313331297479L414.7403995513916,79.06232036715905L437.7815328598022,79.80961713070508L460.8226661682129,79.06232036715905L483.8637994766235,79.06232036715905L506.90493278503413,79.06232036715905L529.9460660934449,79.06232036715905L552.9871994018555,79.06232036715905L576.0283327102661,79.06232036715905L599.0694660186767,79.06232036715905L622.1105993270875,79.06232036715905L645.1517326354981,79.06232036715905L668.1928659439087,79.06232036715905L691.2339992523193,79.06232036715905L714.2751325607301,79.06232036715905L737.3162658691406,79.06232036715905L760.3573991775513,79.06232036715905L783.3985324859619,79.06232036715905L806.4396657943726,79.06232036715905L829.4807991027832,79.06232036715905L852.5219324111939,79.06232036715905L875.5630657196044,79.06232036715905L898.6041990280152,79.06232036715905L921.6453323364258,79.06232036715905L944.6864656448364,79.06232036715905L967.727598953247,79.06232036715905L990.7687322616578,79.06232036715905L1013.8098655700683,79.06232036715905L1036.850998878479,79.06232036715905L1059.8921321868897,79.06232036715905L1082.9332654953002,79.06232036715905L1105.974398803711,79.06232036715905L1129.0155321121215,79.06232036715905L1152.0566654205322,79.06232036715905L1175.0977987289427,79.06232036715905L1198.1389320373535,79.06232036715905L1221.1800653457642,79.06232036715905L1244.221198654175,79.06232036715905" fill="none"></path></g><g><path style="fill: none;" stroke="rgb(255, 112, 67)" stroke-width="2px" d="M115.20566654205322,306.98298179742653L138.24679985046387,219.55116638982636L161.28793315887452,176.9561171982868L184.32906646728514,156.77962438089472L207.3701997756958,147.06493972091312L230.41133308410645,135.8556615338394L253.45246639251707,138.09755182447756L276.49359970092775,117.1735889774222L299.53473300933837,117.92088574096829L322.57586631774905,118.66818250451432L345.61699962615967,110.44809137162487L368.6581329345703,108.20637434710386L391.69926624298097,113.43727842580911L414.7403995513916,106.71178082001174L437.7815328598022,122.40466632224465L460.8226661682129,114.18457518935516L483.8637994766235,107.45907758355783L506.90493278503413,116.42646547999337L529.9460660934449,117.1735889774222L552.9871994018555,113.43727842580911L576.0283327102661,110.44809137162487L599.0694660186767,118.66818250451432L622.1105993270875,112.68998166226304L645.1517326354981,112.68998166226304L668.1928659439087,108.95349784453275L691.2339992523193,110.44809137162487L714.2751325607301,113.43727842580911L737.3162658691406,107.45907758355783L760.3573991775513,108.95349784453275L783.3985324859619,113.43727842580911L806.4396657943726,120.91007279515253L829.4807991027832,114.93187195290125L852.5219324111939,116.42646547999337L875.5630657196044,105.21718729291962L898.6041990280152,120.16277603160648L921.6453323364258,118.66818250451432L944.6864656448364,115.67916871644728L967.727598953247,108.95349784453275L990.7687322616578,113.43727842580911L1013.8098655700683,113.43727842580911L1036.850998878479,107.45907758355783L1059.8921321868897,105.96448405646571L1082.9332654953002,113.43727842580911L1105.974398803711,115.67916871644728L1129.0155321121215,116.42646547999337L1152.0566654205322,117.92088574096829L1175.0977987289427,114.18457518935516L1198.1389320373535,105.96448405646571L1221.1800653457642,111.1953881351709L1244.221198654175,111.94268489871699" fill="none"></path></g><g><path style="fill: none;" stroke="rgb(238, 51, 119)" stroke-width="2px" d="M138.24679985046387,381.71109875697795L161.28793315887452,313.70847940322386L184.32906646728514,258.4097317636356L207.3701997756958,267.3771196600712L230.41133308410645,206.8472946756605L253.45246639251707,206.8472946756605L276.49359970092775,207.5945914392066L299.53473300933837,215.06738580855L322.57586631774905,202.36368736050133L345.61699962615967,203.11098412404743L368.6581329345703,196.38548651825005L391.69926624298097,197.88008004534217L414.7403995513916,209.8364817298448L437.7815328598022,189.65998891245266L460.8226661682129,201.61639059695526L483.8637994766235,202.36368736050133L506.90493278503413,193.3962994640658L529.9460660934449,182.18702127699206L552.9871994018555,206.8472946756605L576.0283327102661,219.55116638982636L599.0694660186767,194.14359622761188L622.1105993270875,179.94530425247106L645.1517326354981,191.90170593697368L668.1928659439087,204.60557765113955L691.2339992523193,209.08918496629872L714.2751325607301,209.8364817298448L737.3162658691406,200.12179706986316L760.3573991775513,206.8472946756605L783.3985324859619,197.88008004534217L806.4396657943726,213.57296554757508L829.4807991027832,194.89089299115793L852.5219324111939,200.12179706986316L875.5630657196044,200.8690938334092L898.6041990280152,200.8690938334092L921.6453323364258,203.11098412404743L944.6864656448364,208.3418882027526L967.727598953247,197.13278328179612L990.7687322616578,205.35287441468557L1013.8098655700683,209.8364817298448L1036.850998878479,209.8364817298448L1059.8921321868897,212.82566878402903L1082.9332654953002,210.58377849339084L1105.974398803711,205.35287441468557L1129.0155321121215,203.85828088759345L1152.0566654205322,197.13278328179612L1175.0977987289427,201.61639059695526L1198.1389320373535,194.14359622761188L1221.1800653457642,206.10017117823168L1244.221198654175,205.35287441468557" fill="none"></path></g><g><path style="fill: none;" stroke="rgb(204, 51, 17)" stroke-width="2px" d="M115.20566654205322,476.6158818000387L138.24679985046387,338.3687528018923L161.28793315887452,248.695047103654L184.32906646728514,214.32026231112113L207.3701997756958,208.3418882027526L230.41133308410645,179.19800748892501L253.45246639251707,184.42891156763025L276.49359970092775,188.91269214890664L299.53473300933837,177.7034139618329L322.57586631774905,174.71422690764865L345.61699962615967,179.94530425247106L368.6581329345703,167.98872930185127L391.69926624298097,164.25241875023815L414.7403995513916,188.91269214890664L437.7815328598022,169.4833228289434L460.8226661682129,170.23061959248946L483.8637994766235,167.2414325383052L506.90493278503413,155.2850308538026L529.9460660934449,159.76863816896176L552.9871994018555,160.51593493250786L576.0283327102661,159.02134140541574L599.0694660186767,167.2414325383052L622.1105993270875,162.75782522314603L645.1517326354981,164.99971551378422L668.1928659439087,159.02134140541574L691.2339992523193,162.75782522314603L714.2751325607301,162.01052845959998L737.3162658691406,166.49413577475914L760.3573991775513,167.2414325383052L783.3985324859619,172.47250988312763L806.4396657943726,173.21980664667373L829.4807991027832,170.23061959248946L852.5219324111939,166.49413577475914L875.5630657196044,169.4833228289434L898.6041990280152,176.20882043474077L921.6453323364258,176.9561171982868L944.6864656448364,164.99971551378422L967.727598953247,173.21980664667373L990.7687322616578,185.1762083311763L1013.8098655700683,156.0323276173487L1036.850998878479,167.98872930185127L1059.8921321868897,162.75782522314603L1082.9332654953002,168.73602606539734L1105.974398803711,168.73602606539734L1129.0155321121215,160.51593493250786L1152.0566654205322,153.79043732671047L1175.0977987289427,183.68161480408418L1198.1389320373535,179.19800748892501L1221.1800653457642,160.51593493250786L1244.221198654175,162.75782522314603" fill="none"></path></g><g><path style="fill: none;" stroke="rgb(0, 153, 136)" stroke-width="2px" d="M115.20566654205322,292.78468982228566L138.24679985046387,211.33107525693688L161.28793315887452,174.71422690764865L184.32906646728514,167.98872930185127L207.3701997756958,167.98872930185127L230.41133308410645,159.02134140541574L253.45246639251707,132.8664744796551L276.49359970092775,129.13016392804204L299.53473300933837,139.59214535156968L322.57586631774905,126.14097687385778L345.61699962615967,123.89925984933677L368.6581329345703,124.64655661288286L391.69926624298097,123.15196308579074L414.7403995513916,117.92088574096829L437.7815328598022,124.64655661288286L460.8226661682129,129.13016392804204L483.8637994766235,125.39368011031169L506.90493278503413,110.44809137162487L529.9460660934449,111.94268489871699L552.9871994018555,120.91007279515253L576.0283327102661,106.71178082001174L599.0694660186767,113.43727842580911L622.1105993270875,118.66818250451432L645.1517326354981,112.68998166226304L668.1928659439087,120.16277603160648L691.2339992523193,115.67916871644728L714.2751325607301,118.66818250451432L737.3162658691406,110.44809137162487L760.3573991775513,112.68998166226304L783.3985324859619,120.16277603160648L806.4396657943726,121.65736955869862L829.4807991027832,121.65736955869862L852.5219324111939,112.68998166226304L875.5630657196044,128.38286716449593L898.6041990280152,115.67916871644728L921.6453323364258,128.38286716449593L944.6864656448364,126.14097687385778L967.727598953247,111.1953881351709L990.7687322616578,126.88827363740381L1013.8098655700683,125.39368011031169L1036.850998878479,116.42646547999337L1059.8921321868897,121.65736955869862L1082.9332654953002,123.15196308579074L1105.974398803711,120.91007279515253L1129.0155321121215,121.65736955869862L1152.0566654205322,117.92088574096829L1175.0977987289427,113.43727842580911L1198.1389320373535,124.64655661288286L1221.1800653457642,119.41547926806041L1244.221198654175,111.94268489871699" fill="none"></path></g><g><path style="fill: none;" stroke="rgb(51, 187, 238)" stroke-width="2px" d="M115.20566654205322,291.2900962951936L138.24679985046387,221.04575991691848L161.28793315887452,154.53773409025655L184.32906646728514,142.58115913963672L207.3701997756958,136.60295829738544L230.41133308410645,126.14097687385778L253.45246639251707,115.67916871644728L276.49359970092775,104.46989052937357L299.53473300933837,111.1953881351709L322.57586631774905,108.95349784453275L345.61699962615967,104.46989052937357L368.6581329345703,98.49168968712225L391.69926624298097,110.44809137162487L414.7403995513916,96.99709616003013L437.7815328598022,114.18457518935516L460.8226661682129,100.73340671164324L483.8637994766235,95.50250263293799L506.90493278503413,108.20637434710386L529.9460660934449,102.22800023873538L552.9871994018555,102.97529700228141L576.0283327102661,100.73340671164324L599.0694660186767,100.73340671164324L622.1105993270875,101.48070347518929L645.1517326354981,107.45907758355783L668.1928659439087,97.7443929235762L691.2339992523193,108.95349784453275L714.2751325607301,96.24979939648408L737.3162658691406,96.99709616003013L760.3573991775513,103.7225937658275L783.3985324859619,103.7225937658275L806.4396657943726,109.70079460807878L829.4807991027832,96.99709616003013L852.5219324111939,104.46989052937357L875.5630657196044,104.46989052937357L898.6041990280152,109.70079460807878L921.6453323364258,105.96448405646571L944.6864656448364,110.44809137162487L967.727598953247,102.22800023873538L990.7687322616578,97.7443929235762L1013.8098655700683,100.73340671164324L1036.850998878479,106.71178082001174L1059.8921321868897,101.48070347518929L1082.9332654953002,104.46989052937357L1105.974398803711,96.24979939648408L1129.0155321121215,111.1953881351709L1152.0566654205322,103.7225937658275L1175.0977987289427,107.45907758355783L1198.1389320373535,102.22800023873538L1221.1800653457642,107.45907758355783L1244.221198654175,97.7443929235762" fill="none"></path></g><g><path style="fill: none;" stroke="rgb(0, 119, 187)" stroke-width="2px" d="M115.20566654205322,271.86090024134757L138.24679985046387,193.3962994640658L161.28793315887452,157.5267478783236L184.32906646728514,142.58115913963672L207.3701997756958,131.3720542186802L230.41133308410645,132.11935098222628L253.45246639251707,110.44809137162487L276.49359970092775,114.18457518935516L299.53473300933837,108.95349784453275L322.57586631774905,101.48070347518929L345.61699962615967,101.48070347518929L368.6581329345703,99.23898645066834L391.69926624298097,95.50250263293799L414.7403995513916,96.99709616003013L437.7815328598022,108.20637434710386L460.8226661682129,99.98628321421437L483.8637994766235,104.46989052937357L506.90493278503413,99.98628321421437L529.9460660934449,112.68998166226304L552.9871994018555,104.46989052937357L576.0283327102661,103.7225937658275L599.0694660186767,106.71178082001174L622.1105993270875,98.49168968712225L645.1517326354981,103.7225937658275L668.1928659439087,102.97529700228141L691.2339992523193,111.94268489871699L714.2751325607301,110.44809137162487L737.3162658691406,101.48070347518929L760.3573991775513,110.44809137162487L783.3985324859619,105.21718729291962L806.4396657943726,109.70079460807878L829.4807991027832,99.98628321421437L852.5219324111939,108.20637434710386L875.5630657196044,107.45907758355783L898.6041990280152,104.46989052937357L921.6453323364258,97.7443929235762L944.6864656448364,96.24979939648408L967.727598953247,108.95349784453275L990.7687322616578,97.7443929235762L1013.8098655700683,105.21718729291962L1036.850998878479,103.7225937658275L1059.8921321868897,104.46989052937357L1082.9332654953002,107.45907758355783L1105.974398803711,104.46989052937357L1129.0155321121215,109.70079460807878L1152.0566654205322,100.73340671164324L1175.0977987289427,100.73340671164324L1198.1389320373535,115.67916871644728L1221.1800653457642,111.1953881351709L1244.221198654175,102.22800023873538" fill="none"></path></g><g><path style="fill: none;" stroke="rgb(0, 119, 187)" stroke-width="2px" d="M115.20566654205322,253.9261244484765L138.24679985046387,179.19800748892501L161.28793315887452,156.77962438089472L184.32906646728514,132.11935098222628L207.3701997756958,120.91007279515253L230.41133308410645,116.42646547999337L253.45246639251707,99.98628321421437L276.49359970092775,105.21718729291962L299.53473300933837,105.21718729291962L322.57586631774905,92.51331557875375L345.61699962615967,99.23898645066834L368.6581329345703,94.00790910584587L391.69926624298097,92.51331557875375L414.7403995513916,88.02970826359459L437.7815328598022,87.2824115000485L460.8226661682129,95.50250263293799L483.8637994766235,89.5243017906867L506.90493278503413,84.29322444586425L529.9460660934449,88.02970826359459L552.9871994018555,91.01889531777883L576.0283327102661,89.5243017906867L599.0694660186767,87.2824115000485L622.1105993270875,85.78781797295638L645.1517326354981,93.26061234229984L668.1928659439087,88.02970826359459L691.2339992523193,89.5243017906867L714.2751325607301,93.26061234229984L737.3162658691406,88.77700502714066L760.3573991775513,98.49168968712225L783.3985324859619,84.29322444586425L806.4396657943726,92.51331557875375L829.4807991027832,88.02970826359459L852.5219324111939,94.75520586939196L875.5630657196044,99.98628321421437L898.6041990280152,93.26061234229984L921.6453323364258,82.79880418488933L944.6864656448364,94.00790910584587L967.727598953247,82.79880418488933L990.7687322616578,88.77700502714066L1013.8098655700683,91.01889531777883L1036.850998878479,89.5243017906867L1059.8921321868897,91.76619208132492L1082.9332654953002,95.50250263293799L1105.974398803711,95.50250263293799L1129.0155321121215,94.00790910584587L1152.0566654205322,94.75520586939196L1175.0977987289427,88.77700502714066L1198.1389320373535,91.01889531777883L1221.1800653457642,91.01889531777883L1244.221198654175,88.77700502714066" fill="none"></path></g></g></g></g></g></g><g transform="translate(51, 377)" clip-path="url(#clip_1)"><clipPath id="clip_1"><rect width="1382" height="22"></rect></clipPath><g><g><line x1="0" y1="0" x2="0" y2="5" style="visibility: inherit;" fill="rgb(0, 0, 0)" stroke="rgb(204, 204, 204)" stroke-width="1px"></line><line x1="115.20566654205322" y1="0" x2="115.20566654205322" y2="5" style="visibility: inherit;" fill="rgb(0, 0, 0)" stroke="rgb(204, 204, 204)" stroke-width="1px"></line><line x1="230.41133308410645" y1="0" x2="230.41133308410645" y2="5" style="visibility: inherit;" fill="rgb(0, 0, 0)" stroke="rgb(204, 204, 204)" stroke-width="1px"></line><line x1="345.61699962615967" y1="0" x2="345.61699962615967" y2="5" style="visibility: inherit;" fill="rgb(0, 0, 0)" stroke="rgb(204, 204, 204)" stroke-width="1px"></line><line x1="460.8226661682129" y1="0" x2="460.8226661682129" y2="5" style="visibility: inherit;" fill="rgb(0, 0, 0)" stroke="rgb(204, 204, 204)" stroke-width="1px"></line><line x1="576.0283327102661" y1="0" x2="576.0283327102661" y2="5" style="visibility: inherit;" fill="rgb(0, 0, 0)" stroke="rgb(204, 204, 204)" stroke-width="1px"></line><line x1="691.2339992523193" y1="0" x2="691.2339992523193" y2="5" style="visibility: inherit;" fill="rgb(0, 0, 0)" stroke="rgb(204, 204, 204)" stroke-width="1px"></line><line x1="806.4396657943726" y1="0" x2="806.4396657943726" y2="5" style="visibility: inherit;" fill="rgb(0, 0, 0)" stroke="rgb(204, 204, 204)" stroke-width="1px"></line><line x1="921.6453323364258" y1="0" x2="921.6453323364258" y2="5" style="visibility: inherit;" fill="rgb(0, 0, 0)" stroke="rgb(204, 204, 204)" stroke-width="1px"></line><line x1="1036.850998878479" y1="0" x2="1036.850998878479" y2="5" style="visibility: inherit;" fill="rgb(0, 0, 0)" stroke="rgb(204, 204, 204)" stroke-width="1px"></line><line x1="1152.0566654205322" y1="0" x2="1152.0566654205322" y2="5" style="visibility: inherit;" fill="rgb(0, 0, 0)" stroke="rgb(204, 204, 204)" stroke-width="1px"></line><line x1="1267.2623319625854" y1="0" x2="1267.2623319625854" y2="5" style="visibility: inherit;" fill="rgb(0, 0, 0)" stroke="rgb(204, 204, 204)" stroke-width="1px"></line><line x1="1382.4679985046387" y1="0" x2="1382.4679985046387" y2="5" style="visibility: inherit;" fill="rgb(0, 0, 0)" stroke="rgb(204, 204, 204)" stroke-width="1px"></line></g><g transform="translate(0, 8)"><text style="text-anchor: middle; visibility: hidden; font-family: Roboto, sans-serif; font-size: 12px; font-weight: 200;" x="0" y="0" dx="0em" dy="0.95em" fill="rgb(50, 49, 63)" stroke="none" stroke-width="1px">-5</text><text style="text-anchor: middle; visibility: inherit; font-family: Roboto, sans-serif; font-size: 12px; font-weight: 200;" x="115.20566654205322" y="0" dx="0em" dy="0.95em" fill="rgb(50, 49, 63)" stroke="none" stroke-width="1px">0</text><text style="text-anchor: middle; visibility: inherit; font-family: Roboto, sans-serif; font-size: 12px; font-weight: 200;" x="230.41133308410645" y="0" dx="0em" dy="0.95em" fill="rgb(50, 49, 63)" stroke="none" stroke-width="1px">5</text><text style="text-anchor: middle; visibility: inherit; font-family: Roboto, sans-serif; font-size: 12px; font-weight: 200;" x="345.61699962615967" y="0" dx="0em" dy="0.95em" fill="rgb(50, 49, 63)" stroke="none" stroke-width="1px">10</text><text style="text-anchor: middle; visibility: inherit; font-family: Roboto, sans-serif; font-size: 12px; font-weight: 200;" x="460.8226661682129" y="0" dx="0em" dy="0.95em" fill="rgb(50, 49, 63)" stroke="none" stroke-width="1px">15</text><text style="text-anchor: middle; visibility: inherit; font-family: Roboto, sans-serif; font-size: 12px; font-weight: 200;" x="576.0283327102661" y="0" dx="0em" dy="0.95em" fill="rgb(50, 49, 63)" stroke="none" stroke-width="1px">20</text><text style="text-anchor: middle; visibility: inherit; font-family: Roboto, sans-serif; font-size: 12px; font-weight: 200;" x="691.2339992523193" y="0" dx="0em" dy="0.95em" fill="rgb(50, 49, 63)" stroke="none" stroke-width="1px">25</text><text style="text-anchor: middle; visibility: inherit; font-family: Roboto, sans-serif; font-size: 12px; font-weight: 200;" x="806.4396657943726" y="0" dx="0em" dy="0.95em" fill="rgb(50, 49, 63)" stroke="none" stroke-width="1px">30</text><text style="text-anchor: middle; visibility: inherit; font-family: Roboto, sans-serif; font-size: 12px; font-weight: 200;" x="921.6453323364258" y="0" dx="0em" dy="0.95em" fill="rgb(50, 49, 63)" stroke="none" stroke-width="1px">35</text><text style="text-anchor: middle; visibility: inherit; font-family: Roboto, sans-serif; font-size: 12px; font-weight: 200;" x="1036.850998878479" y="0" dx="0em" dy="0.95em" fill="rgb(50, 49, 63)" stroke="none" stroke-width="1px">40</text><text style="text-anchor: middle; visibility: inherit; font-family: Roboto, sans-serif; font-size: 12px; font-weight: 200;" x="1152.0566654205322" y="0" dx="0em" dy="0.95em" fill="rgb(50, 49, 63)" stroke="none" stroke-width="1px">45</text><text style="text-anchor: middle; visibility: inherit; font-family: Roboto, sans-serif; font-size: 12px; font-weight: 200;" x="1267.2623319625854" y="0" dx="0em" dy="0.95em" fill="rgb(50, 49, 63)" stroke="none" stroke-width="1px">50</text><text style="text-anchor: middle; visibility: hidden; font-family: Roboto, sans-serif; font-size: 12px; font-weight: 200;" x="1382.4679985046387" y="0" dx="0em" dy="0.95em" fill="rgb(50, 49, 63)" stroke="none" stroke-width="1px">55</text></g><line x1="0" y1="0" x2="1382.4679985046387" y2="0" fill="rgb(0, 0, 0)" stroke="rgb(204, 204, 204)" stroke-width="1px"></line></g></g></g></g></svg>