<svg viewBox="0 0 1434 400" xmlns="http://www.w3.org/2000/svg"><g><g><g><g><g><line x1="51.53200149536133" y1="377.8999996185303" x2="46.53200149536133" y2="377.8999996185303" style="visibility: inherit;" fill="rgb(0, 0, 0)" stroke="rgb(204, 204, 204)" stroke-width="1px"></line><line x1="51.53200149536133" y1="340.1099996566772" x2="46.53200149536133" y2="340.1099996566772" style="visibility: inherit;" fill="rgb(0, 0, 0)" stroke="rgb(204, 204, 204)" stroke-width="1px"></line><line x1="51.53200149536133" y1="302.31999969482456" x2="46.53200149536133" y2="302.31999969482456" style="visibility: inherit;" fill="rgb(0, 0, 0)" stroke="rgb(204, 204, 204)" stroke-width="1px"></line><line x1="51.53200149536133" y1="264.52999973297153" x2="46.53200149536133" y2="264.52999973297153" style="visibility: inherit;" fill="rgb(0, 0, 0)" stroke="rgb(204, 204, 204)" stroke-width="1px"></line><line x1="51.53200149536133" y1="226.73999977111842" x2="46.53200149536133" y2="226.73999977111842" style="visibility: inherit;" fill="rgb(0, 0, 0)" stroke="rgb(204, 204, 204)" stroke-width="1px"></line><line x1="51.53200149536133" y1="188.94999980926534" x2="46.53200149536133" y2="188.94999980926534" style="visibility: inherit;" fill="rgb(0, 0, 0)" stroke="rgb(204, 204, 204)" stroke-width="1px"></line><line x1="51.53200149536133" y1="151.15999984741228" x2="46.53200149536133" y2="151.15999984741228" style="visibility: inherit;" fill="rgb(0, 0, 0)" stroke="rgb(204, 204, 204)" stroke-width="1px"></line><line x1="51.53200149536133" y1="113.36999988555922" x2="46.53200149536133" y2="113.36999988555922" style="visibility: inherit;" fill="rgb(0, 0, 0)" stroke="rgb(204, 204, 204)" stroke-width="1px"></line><line x1="51.53200149536133" y1="75.57999992370613" x2="46.53200149536133" y2="75.57999992370613" style="visibility: inherit;" fill="rgb(0, 0, 0)" stroke="rgb(204, 204, 204)" stroke-width="1px"></line><line x1="51.53200149536133" y1="37.78999996185306" x2="46.53200149536133" y2="37.78999996185306" style="visibility: inherit;" fill="rgb(0, 0, 0)" stroke="rgb(204, 204, 204)" stroke-width="1px"></line><line x1="51.53200149536133" y1="0" x2="46.53200149536133" y2="0" style="visibility: inherit;" fill="rgb(0, 0, 0)" stroke="rgb(204, 204, 204)" stroke-width="1px"></line></g><g transform="translate(41.53200149536133, 0)"><text style="text-anchor: end; visibility: hidden; font-family: Roboto, sans-serif; font-size: 12px; font-weight: 200;" x="0" y="377.8999996185303" dx="0em" dy="0.3em" fill="rgb(50, 49, 63)" stroke="none" stroke-width="1px">0.8</text><text style="text-anchor: end; visibility: inherit; font-family: Roboto, sans-serif; font-size: 12px; font-weight: 200;" x="0" y="340.1099996566772" dx="0em" dy="0.3em" fill="rgb(50, 49, 63)" stroke="none" stroke-width="1px">0.81</text><text style="text-anchor: end; visibility: inherit; font-family: Roboto, sans-serif; font-size: 12px; font-weight: 200;" x="0" y="302.31999969482456" dx="0em" dy="0.3em" fill="rgb(50, 49, 63)" stroke="none" stroke-width="1px">0.82</text><text style="text-anchor: end; visibility: inherit; font-family: Roboto, sans-serif; font-size: 12px; font-weight: 200;" x="0" y="264.52999973297153" dx="0em" dy="0.3em" fill="rgb(50, 49, 63)" stroke="none" stroke-width="1px">0.83</text><text style="text-anchor: end; visibility: inherit; font-family: Roboto, sans-serif; font-size: 12px; font-weight: 200;" x="0" y="226.73999977111842" dx="0em" dy="0.3em" fill="rgb(50, 49, 63)" stroke="none" stroke-width="1px">0.84</text><text style="text-anchor: end; visibility: inherit; font-family: Roboto, sans-serif; font-size: 12px; font-weight: 200;" x="0" y="188.94999980926534" dx="0em" dy="0.3em" fill="rgb(50, 49, 63)" stroke="none" stroke-width="1px">0.85</text><text style="text-anchor: end; visibility: inherit; font-family: Roboto, sans-serif; font-size: 12px; font-weight: 200;" x="0" y="151.15999984741228" dx="0em" dy="0.3em" fill="rgb(50, 49, 63)" stroke="none" stroke-width="1px">0.86</text><text style="text-anchor: end; visibility: inherit; font-family: Roboto, sans-serif; font-size: 12px; font-weight: 200;" x="0" y="113.36999988555922" dx="0em" dy="0.3em" fill="rgb(50, 49, 63)" stroke="none" stroke-width="1px">0.87</text><text style="text-anchor: end; visibility: inherit; font-family: Roboto, sans-serif; font-size: 12px; font-weight: 200;" x="0" y="75.57999992370613" dx="0em" dy="0.3em" fill="rgb(50, 49, 63)" stroke="none" stroke-width="1px">0.88</text><text style="text-anchor: end; visibility: inherit; font-family: Roboto, sans-serif; font-size: 12px; font-weight: 200;" x="0" y="37.78999996185306" dx="0em" dy="0.3em" fill="rgb(50, 49, 63)" stroke="none" stroke-width="1px">0.89</text><text style="text-anchor: end; visibility: hidden; font-family: Roboto, sans-serif; font-size: 12px; font-weight: 200;" x="0" y="0" dx="0em" dy="0.3em" fill="rgb(50, 49, 63)" stroke="none" stroke-width="1px">0.9</text></g><line x1="51.53200149536133" y1="0" x2="51.53200149536133" y2="377.8999996185303" fill="rgb(0, 0, 0)" stroke="rgb(204, 204, 204)" stroke-width="1px"></line></g></g><g transform="translate(51, 0)" clip-path="url(#clip_0)"><clipPath id="clip_0"><rect width="1382" height="377"></rect></clipPath><g><g><g><line x1="0" y1="0" x2="0" y2="377.8999996185303" fill="rgb(0, 0, 0)" stroke="rgb(60, 60, 60)" stroke-width="1px" opacity="0.25"></line><line x1="115.20566654205322" y1="0" x2="115.20566654205322" y2="377.8999996185303" fill="rgb(0, 0, 0)" stroke="rgb(60, 60, 60)" stroke-width="1px" opacity="0.25"></line><line x1="230.41133308410645" y1="0" x2="230.41133308410645" y2="377.8999996185303" fill="rgb(0, 0, 0)" stroke="rgb(60, 60, 60)" stroke-width="1px" opacity="0.25"></line><line x1="345.61699962615967" y1="0" x2="345.61699962615967" y2="377.8999996185303" fill="rgb(0, 0, 0)" stroke="rgb(60, 60, 60)" stroke-width="1px" opacity="0.25"></line><line x1="460.8226661682129" y1="0" x2="460.8226661682129" y2="377.8999996185303" fill="rgb(0, 0, 0)" stroke="rgb(60, 60, 60)" stroke-width="1px" opacity="0.25"></line><line x1="576.0283327102661" y1="0" x2="576.0283327102661" y2="377.8999996185303" fill="rgb(0, 0, 0)" stroke="rgb(60, 60, 60)" stroke-width="1px" opacity="0.25"></line><line x1="691.2339992523193" y1="0" x2="691.2339992523193" y2="377.8999996185303" fill="rgb(0, 0, 0)" stroke="rgb(60, 60, 60)" stroke-width="1px" opacity="0.25"></line><line x1="806.4396657943726" y1="0" x2="806.4396657943726" y2="377.8999996185303" fill="rgb(0, 0, 0)" stroke="rgb(60, 60, 60)" stroke-width="1px" opacity="0.25"></line><line x1="921.6453323364258" y1="0" x2="921.6453323364258" y2="377.8999996185303" fill="rgb(0, 0, 0)" stroke="rgb(60, 60, 60)" stroke-width="1px" opacity="0.25"></line><line x1="1036.850998878479" y1="0" x2="1036.850998878479" y2="377.8999996185303" fill="rgb(0, 0, 0)" stroke="rgb(60, 60, 60)" stroke-width="1px" opacity="0.25"></line><line x1="1152.0566654205322" y1="0" x2="1152.0566654205322" y2="377.8999996185303" fill="rgb(0, 0, 0)" stroke="rgb(60, 60, 60)" stroke-width="1px" opacity="0.25"></line><line x1="1267.2623319625854" y1="0" x2="1267.2623319625854" y2="377.8999996185303" fill="rgb(0, 0, 0)" stroke="rgb(60, 60, 60)" stroke-width="1px" opacity="0.25"></line><line x1="1382.4679985046387" y1="0" x2="1382.4679985046387" y2="377.8999996185303" fill="rgb(0, 0, 0)" stroke="rgb(60, 60, 60)" stroke-width="1px" opacity="0.25"></line></g><g><line x1="0" y1="377.8999996185303" x2="1382.4679985046387" y2="377.8999996185303" fill="rgb(0, 0, 0)" stroke="rgb(60, 60, 60)" stroke-width="1px" opacity="0.25"></line><line x1="0" y1="340.1099996566772" x2="1382.4679985046387" y2="340.1099996566772" fill="rgb(0, 0, 0)" stroke="rgb(60, 60, 60)" stroke-width="1px" opacity="0.25"></line><line x1="0" y1="302.31999969482456" x2="1382.4679985046387" y2="302.31999969482456" fill="rgb(0, 0, 0)" stroke="rgb(60, 60, 60)" stroke-width="1px" opacity="0.25"></line><line x1="0" y1="264.52999973297153" x2="1382.4679985046387" y2="264.52999973297153" fill="rgb(0, 0, 0)" stroke="rgb(60, 60, 60)" stroke-width="1px" opacity="0.25"></line><line x1="0" y1="226.73999977111842" x2="1382.4679985046387" y2="226.73999977111842" fill="rgb(0, 0, 0)" stroke="rgb(60, 60, 60)" stroke-width="1px" opacity="0.25"></line><line x1="0" y1="188.94999980926534" x2="1382.4679985046387" y2="188.94999980926534" fill="rgb(0, 0, 0)" stroke="rgb(60, 60, 60)" stroke-width="1px" opacity="0.25"></line><line x1="0" y1="151.15999984741228" x2="1382.4679985046387" y2="151.15999984741228" fill="rgb(0, 0, 0)" stroke="rgb(60, 60, 60)" stroke-width="1px" opacity="0.25"></line><line x1="0" y1="113.36999988555922" x2="1382.4679985046387" y2="113.36999988555922" fill="rgb(0, 0, 0)" stroke="rgb(60, 60, 60)" stroke-width="1px" opacity="0.25"></line><line x1="0" y1="75.57999992370613" x2="1382.4679985046387" y2="75.57999992370613" fill="rgb(0, 0, 0)" stroke="rgb(60, 60, 60)" stroke-width="1px" opacity="0.25"></line><line x1="0" y1="37.78999996185306" x2="1382.4679985046387" y2="37.78999996185306" fill="rgb(0, 0, 0)" stroke="rgb(60, 60, 60)" stroke-width="1px" opacity="0.25"></line><line x1="0" y1="0" x2="1382.4679985046387" y2="0" fill="rgb(0, 0, 0)" stroke="rgb(60, 60, 60)" stroke-width="1px" opacity="0.25"></line></g></g></g><g><g><line x1="0" y1="3401.099996566773" x2="1382.4679985046387" y2="3401.099996566773" fill="rgb(0, 0, 0)" stroke="rgb(153, 153, 153)" stroke-width="1.5px"></line></g></g><g><g><line x1="115.20566654205322" y1="0" x2="115.20566654205322" y2="377.8999996185303" fill="rgb(0, 0, 0)" stroke="rgb(153, 153, 153)" stroke-width="1.5px"></line></g></g><g><g><g><g><g><path style="fill: none;" stroke="rgb(204, 51, 17)" stroke-width="2px" d="M115.20566654205322,301.15415367482586L138.24679985046387,229.26578174336112L161.28793315887452,174.86370358696956L184.32906646728514,157.37740981189643L207.3701997756958,125.31905439362744L230.41133308410645,128.23351177145707L253.45246639251707,129.20477231811458L276.49359970092775,94.23218476796828L299.53473300933837,98.11790269245547L322.57586631774905,97.14641689984559L345.61699962615967,102.003845862895L368.6581329345703,100.06087427767524L391.69926624298097,88.40327001230898L414.7403995513916,79.66012312477241L437.7815328598022,93.2606989753584L460.8226661682129,94.23218476796828L483.8637994766235,84.51755208782183L506.90493278503413,112.68996433565134L529.9460660934449,101.03236007028512L552.9871994018555,92.28921318274851L576.0283327102661,94.23218476796828L599.0694660186767,106.86127482594442L622.1105993270875,101.03236007028512L645.1517326354981,79.66012312477241L668.1928659439087,99.08938848506536L691.2339992523193,96.17515635318809L714.2751325607301,85.48903788043171L737.3162658691406,95.2036705605782L760.3573991775513,81.60309470999218L783.3985324859619,86.46052367304159L806.4396657943726,94.23218476796828L829.4807991027832,99.08938848506536L852.5219324111939,92.28921318274851L875.5630657196044,91.31772739013863L898.6041990280152,73.83143361506549L921.6453323364258,83.54606629521194L944.6864656448364,89.37475580491886L967.727598953247,79.66012312477241L990.7687322616578,105.88978903333454L1013.8098655700683,85.48903788043171L1036.850998878479,100.06087427767524L1059.8921321868897,88.40327001230898L1082.9332654953002,85.48903788043171L1105.974398803711,78.68863733216253L1129.0155321121215,93.2606989753584L1152.0566654205322,86.46052367304159L1175.0977987289427,97.14641689984559L1198.1389320373535,115.60442171348099L1221.1800653457642,108.80402116521181L1244.221198654175,80.6316089173823" fill="none"></path></g><g><path style="fill: none;" stroke="rgb(238, 51, 119)" stroke-width="2px" d="M115.20566654205322,272.0102556343865L138.24679985046387,193.32148315465258L161.28793315887452,143.77683396131044L184.32906646728514,132.11922969594423L207.3701997756958,124.34756860101756L230.41133308410645,122.40459701579779L253.45246639251707,105.88978903333454L276.49359970092775,91.31772739013863L299.53473300933837,84.51755208782183L322.57586631774905,95.2036705605782L345.61699962615967,68.0025188594062L368.6581329345703,69.94549044462596L391.69926624298097,84.51755208782183L414.7403995513916,65.08828672752892L437.7815328598022,88.40327001230898L460.8226661682129,83.54606629521194L483.8637994766235,82.57458050260206L506.90493278503413,80.6316089173823L529.9460660934449,70.91697623723584L552.9871994018555,96.17515635318809L576.0283327102661,76.74566574694276L599.0694660186767,80.6316089173823L622.1105993270875,102.003845862895L645.1517326354981,78.68863733216253L668.1928659439087,80.6316089173823L691.2339992523193,74.80291940767538L714.2751325607301,81.60309470999218L737.3162658691406,68.0025188594062L760.3573991775513,75.77440520028526L783.3985324859619,86.46052367304159L806.4396657943726,88.40327001230898L829.4807991027832,83.54606629521194L852.5219324111939,85.48903788043171L875.5630657196044,74.80291940767538L898.6041990280152,84.51755208782183L921.6453323364258,68.0025188594062L944.6864656448364,68.97400465201608L967.727598953247,90.34624159752875L990.7687322616578,88.40327001230898L1013.8098655700683,89.37475580491886L1036.850998878479,85.48903788043171L1059.8921321868897,75.77440520028526L1082.9332654953002,74.80291940767538L1105.974398803711,83.54606629521194L1129.0155321121215,65.08828672752892L1152.0566654205322,73.83143361506549L1175.0977987289427,88.40327001230898L1198.1389320373535,72.85994782245561L1221.1800653457642,70.91697623723584L1244.221198654175,80.6316089173823" fill="none"></path></g><g><path style="fill: none;" stroke="rgb(187, 187, 187)" stroke-width="2px" d="M115.20566654205322,290.46803520206953L138.24679985046387,202.06485528814153L161.28793315887452,184.57833626711601L184.32906646728514,134.062201281164L207.3701997756958,136.00517286638376L230.41133308410645,123.37608280840767L253.45246639251707,93.2606989753584L276.49359970092775,98.11790269245547L299.53473300933837,80.6316089173823L322.57586631774905,92.28921318274851L345.61699962615967,92.28921318274851L368.6581329345703,85.48903788043171L391.69926624298097,85.48903788043171L414.7403995513916,67.03103306679631L437.7815328598022,95.2036705605782L460.8226661682129,82.57458050260206L483.8637994766235,85.48903788043171L506.90493278503413,91.31772739013863L529.9460660934449,87.4317842196991L552.9871994018555,87.4317842196991L576.0283327102661,80.6316089173823L599.0694660186767,94.23218476796828L622.1105993270875,74.80291940767538L645.1517326354981,83.54606629521194L668.1928659439087,90.34624159752875L691.2339992523193,102.003845862895L714.2751325607301,82.57458050260206L737.3162658691406,92.28921318274851L760.3573991775513,78.68863733216253L783.3985324859619,76.74566574694276L806.4396657943726,82.57458050260206L829.4807991027832,89.37475580491886L852.5219324111939,96.17515635318809L875.5630657196044,89.37475580491886L898.6041990280152,94.23218476796828L921.6453323364258,81.60309470999218L944.6864656448364,79.66012312477241L967.727598953247,108.80402116521181L990.7687322616578,85.48903788043171L1013.8098655700683,81.60309470999218L1036.850998878479,84.51755208782183L1059.8921321868897,101.03236007028512L1082.9332654953002,94.23218476796828L1105.974398803711,89.37475580491886L1129.0155321121215,70.91697623723584L1152.0566654205322,96.17515635318809L1175.0977987289427,79.66012312477241L1198.1389320373535,77.71715153955265L1221.1800653457642,68.97400465201608L1244.221198654175,62.173829349699275" fill="none"></path></g></g></g></g></g></g><g transform="translate(51, 377)" clip-path="url(#clip_1)"><clipPath id="clip_1"><rect width="1382" height="22"></rect></clipPath><g><g><line x1="0" y1="0" x2="0" y2="5" style="visibility: inherit;" fill="rgb(0, 0, 0)" stroke="rgb(204, 204, 204)" stroke-width="1px"></line><line x1="115.20566654205322" y1="0" x2="115.20566654205322" y2="5" style="visibility: inherit;" fill="rgb(0, 0, 0)" stroke="rgb(204, 204, 204)" stroke-width="1px"></line><line x1="230.41133308410645" y1="0" x2="230.41133308410645" y2="5" style="visibility: inherit;" fill="rgb(0, 0, 0)" stroke="rgb(204, 204, 204)" stroke-width="1px"></line><line x1="345.61699962615967" y1="0" x2="345.61699962615967" y2="5" style="visibility: inherit;" fill="rgb(0, 0, 0)" stroke="rgb(204, 204, 204)" stroke-width="1px"></line><line x1="460.8226661682129" y1="0" x2="460.8226661682129" y2="5" style="visibility: inherit;" fill="rgb(0, 0, 0)" stroke="rgb(204, 204, 204)" stroke-width="1px"></line><line x1="576.0283327102661" y1="0" x2="576.0283327102661" y2="5" style="visibility: inherit;" fill="rgb(0, 0, 0)" stroke="rgb(204, 204, 204)" stroke-width="1px"></line><line x1="691.2339992523193" y1="0" x2="691.2339992523193" y2="5" style="visibility: inherit;" fill="rgb(0, 0, 0)" stroke="rgb(204, 204, 204)" stroke-width="1px"></line><line x1="806.4396657943726" y1="0" x2="806.4396657943726" y2="5" style="visibility: inherit;" fill="rgb(0, 0, 0)" stroke="rgb(204, 204, 204)" stroke-width="1px"></line><line x1="921.6453323364258" y1="0" x2="921.6453323364258" y2="5" style="visibility: inherit;" fill="rgb(0, 0, 0)" stroke="rgb(204, 204, 204)" stroke-width="1px"></line><line x1="1036.850998878479" y1="0" x2="1036.850998878479" y2="5" style="visibility: inherit;" fill="rgb(0, 0, 0)" stroke="rgb(204, 204, 204)" stroke-width="1px"></line><line x1="1152.0566654205322" y1="0" x2="1152.0566654205322" y2="5" style="visibility: inherit;" fill="rgb(0, 0, 0)" stroke="rgb(204, 204, 204)" stroke-width="1px"></line><line x1="1267.2623319625854" y1="0" x2="1267.2623319625854" y2="5" style="visibility: inherit;" fill="rgb(0, 0, 0)" stroke="rgb(204, 204, 204)" stroke-width="1px"></line><line x1="1382.4679985046387" y1="0" x2="1382.4679985046387" y2="5" style="visibility: inherit;" fill="rgb(0, 0, 0)" stroke="rgb(204, 204, 204)" stroke-width="1px"></line></g><g transform="translate(0, 8)"><text style="text-anchor: middle; visibility: hidden; font-family: Roboto, sans-serif; font-size: 12px; font-weight: 200;" x="0" y="0" dx="0em" dy="0.95em" fill="rgb(50, 49, 63)" stroke="none" stroke-width="1px">-5</text><text style="text-anchor: middle; visibility: inherit; font-family: Roboto, sans-serif; font-size: 12px; font-weight: 200;" x="115.20566654205322" y="0" dx="0em" dy="0.95em" fill="rgb(50, 49, 63)" stroke="none" stroke-width="1px">0</text><text style="text-anchor: middle; visibility: inherit; font-family: Roboto, sans-serif; font-size: 12px; font-weight: 200;" x="230.41133308410645" y="0" dx="0em" dy="0.95em" fill="rgb(50, 49, 63)" stroke="none" stroke-width="1px">5</text><text style="text-anchor: middle; visibility: inherit; font-family: Roboto, sans-serif; font-size: 12px; font-weight: 200;" x="345.61699962615967" y="0" dx="0em" dy="0.95em" fill="rgb(50, 49, 63)" stroke="none" stroke-width="1px">10</text><text style="text-anchor: middle; visibility: inherit; font-family: Roboto, sans-serif; font-size: 12px; font-weight: 200;" x="460.8226661682129" y="0" dx="0em" dy="0.95em" fill="rgb(50, 49, 63)" stroke="none" stroke-width="1px">15</text><text style="text-anchor: middle; visibility: inherit; font-family: Roboto, sans-serif; font-size: 12px; font-weight: 200;" x="576.0283327102661" y="0" dx="0em" dy="0.95em" fill="rgb(50, 49, 63)" stroke="none" stroke-width="1px">20</text><text style="text-anchor: middle; visibility: inherit; font-family: Roboto, sans-serif; font-size: 12px; font-weight: 200;" x="691.2339992523193" y="0" dx="0em" dy="0.95em" fill="rgb(50, 49, 63)" stroke="none" stroke-width="1px">25</text><text style="text-anchor: middle; visibility: inherit; font-family: Roboto, sans-serif; font-size: 12px; font-weight: 200;" x="806.4396657943726" y="0" dx="0em" dy="0.95em" fill="rgb(50, 49, 63)" stroke="none" stroke-width="1px">30</text><text style="text-anchor: middle; visibility: inherit; font-family: Roboto, sans-serif; font-size: 12px; font-weight: 200;" x="921.6453323364258" y="0" dx="0em" dy="0.95em" fill="rgb(50, 49, 63)" stroke="none" stroke-width="1px">35</text><text style="text-anchor: middle; visibility: inherit; font-family: Roboto, sans-serif; font-size: 12px; font-weight: 200;" x="1036.850998878479" y="0" dx="0em" dy="0.95em" fill="rgb(50, 49, 63)" stroke="none" stroke-width="1px">40</text><text style="text-anchor: middle; visibility: inherit; font-family: Roboto, sans-serif; font-size: 12px; font-weight: 200;" x="1152.0566654205322" y="0" dx="0em" dy="0.95em" fill="rgb(50, 49, 63)" stroke="none" stroke-width="1px">45</text><text style="text-anchor: middle; visibility: inherit; font-family: Roboto, sans-serif; font-size: 12px; font-weight: 200;" x="1267.2623319625854" y="0" dx="0em" dy="0.95em" fill="rgb(50, 49, 63)" stroke="none" stroke-width="1px">50</text><text style="text-anchor: middle; visibility: hidden; font-family: Roboto, sans-serif; font-size: 12px; font-weight: 200;" x="1382.4679985046387" y="0" dx="0em" dy="0.95em" fill="rgb(50, 49, 63)" stroke="none" stroke-width="1px">55</text></g><line x1="0" y1="0" x2="1382.4679985046387" y2="0" fill="rgb(0, 0, 0)" stroke="rgb(204, 204, 204)" stroke-width="1px"></line></g></g></g></g></svg>