<svg viewBox="0 0 1434 400" xmlns="http://www.w3.org/2000/svg"><g><g><g><g><g><line x1="51.53200149536133" y1="377.8999996185303" x2="46.53200149536133" y2="377.8999996185303" style="visibility: inherit;" fill="rgb(0, 0, 0)" stroke="rgb(204, 204, 204)" stroke-width="1px"></line><line x1="51.53200149536133" y1="330.662499666214" x2="46.53200149536133" y2="330.662499666214" style="visibility: inherit;" fill="rgb(0, 0, 0)" stroke="rgb(204, 204, 204)" stroke-width="1px"></line><line x1="51.53200149536133" y1="283.4249997138977" x2="46.53200149536133" y2="283.4249997138977" style="visibility: inherit;" fill="rgb(0, 0, 0)" stroke="rgb(204, 204, 204)" stroke-width="1px"></line><line x1="51.53200149536133" y1="236.18749976158142" x2="46.53200149536133" y2="236.18749976158142" style="visibility: inherit;" fill="rgb(0, 0, 0)" stroke="rgb(204, 204, 204)" stroke-width="1px"></line><line x1="51.53200149536133" y1="188.94999980926514" x2="46.53200149536133" y2="188.94999980926514" style="visibility: inherit;" fill="rgb(0, 0, 0)" stroke="rgb(204, 204, 204)" stroke-width="1px"></line><line x1="51.53200149536133" y1="141.71249985694885" x2="46.53200149536133" y2="141.71249985694885" style="visibility: inherit;" fill="rgb(0, 0, 0)" stroke="rgb(204, 204, 204)" stroke-width="1px"></line><line x1="51.53200149536133" y1="94.47499990463257" x2="46.53200149536133" y2="94.47499990463257" style="visibility: inherit;" fill="rgb(0, 0, 0)" stroke="rgb(204, 204, 204)" stroke-width="1px"></line><line x1="51.53200149536133" y1="47.237499952316284" x2="46.53200149536133" y2="47.237499952316284" style="visibility: inherit;" fill="rgb(0, 0, 0)" stroke="rgb(204, 204, 204)" stroke-width="1px"></line><line x1="51.53200149536133" y1="0" x2="46.53200149536133" y2="0" style="visibility: inherit;" fill="rgb(0, 0, 0)" stroke="rgb(204, 204, 204)" stroke-width="1px"></line></g><g transform="translate(41.53200149536133, 0)"><text style="text-anchor: end; visibility: hidden; font-family: Roboto, sans-serif; font-size: 12px; font-weight: 200;" x="0" y="377.8999996185303" dx="0em" dy="0.3em" fill="rgb(50, 49, 63)" stroke="none" stroke-width="1px">-0.5</text><text style="text-anchor: end; visibility: inherit; font-family: Roboto, sans-serif; font-size: 12px; font-weight: 200;" x="0" y="330.662499666214" dx="0em" dy="0.3em" fill="rgb(50, 49, 63)" stroke="none" stroke-width="1px">0</text><text style="text-anchor: end; visibility: inherit; font-family: Roboto, sans-serif; font-size: 12px; font-weight: 200;" x="0" y="283.4249997138977" dx="0em" dy="0.3em" fill="rgb(50, 49, 63)" stroke="none" stroke-width="1px">0.5</text><text style="text-anchor: end; visibility: inherit; font-family: Roboto, sans-serif; font-size: 12px; font-weight: 200;" x="0" y="236.18749976158142" dx="0em" dy="0.3em" fill="rgb(50, 49, 63)" stroke="none" stroke-width="1px">1</text><text style="text-anchor: end; visibility: inherit; font-family: Roboto, sans-serif; font-size: 12px; font-weight: 200;" x="0" y="188.94999980926514" dx="0em" dy="0.3em" fill="rgb(50, 49, 63)" stroke="none" stroke-width="1px">1.5</text><text style="text-anchor: end; visibility: inherit; font-family: Roboto, sans-serif; font-size: 12px; font-weight: 200;" x="0" y="141.71249985694885" dx="0em" dy="0.3em" fill="rgb(50, 49, 63)" stroke="none" stroke-width="1px">2</text><text style="text-anchor: end; visibility: inherit; font-family: Roboto, sans-serif; font-size: 12px; font-weight: 200;" x="0" y="94.47499990463257" dx="0em" dy="0.3em" fill="rgb(50, 49, 63)" stroke="none" stroke-width="1px">2.5</text><text style="text-anchor: end; visibility: inherit; font-family: Roboto, sans-serif; font-size: 12px; font-weight: 200;" x="0" y="47.237499952316284" dx="0em" dy="0.3em" fill="rgb(50, 49, 63)" stroke="none" stroke-width="1px">3</text><text style="text-anchor: end; visibility: hidden; font-family: Roboto, sans-serif; font-size: 12px; font-weight: 200;" x="0" y="0" dx="0em" dy="0.3em" fill="rgb(50, 49, 63)" stroke="none" stroke-width="1px">3.5</text></g><line x1="51.53200149536133" y1="0" x2="51.53200149536133" y2="377.8999996185303" fill="rgb(0, 0, 0)" stroke="rgb(204, 204, 204)" stroke-width="1px"></line></g></g><g transform="translate(51, 0)" clip-path="url(#clip_0)"><clipPath id="clip_0"><rect width="1382" height="377"></rect></clipPath><g><g><g><line x1="0" y1="0" x2="0" y2="377.8999996185303" fill="rgb(0, 0, 0)" stroke="rgb(60, 60, 60)" stroke-width="1px" opacity="0.25"></line><line x1="115.20566654205322" y1="0" x2="115.20566654205322" y2="377.8999996185303" fill="rgb(0, 0, 0)" stroke="rgb(60, 60, 60)" stroke-width="1px" opacity="0.25"></line><line x1="230.41133308410645" y1="0" x2="230.41133308410645" y2="377.8999996185303" fill="rgb(0, 0, 0)" stroke="rgb(60, 60, 60)" stroke-width="1px" opacity="0.25"></line><line x1="345.61699962615967" y1="0" x2="345.61699962615967" y2="377.8999996185303" fill="rgb(0, 0, 0)" stroke="rgb(60, 60, 60)" stroke-width="1px" opacity="0.25"></line><line x1="460.8226661682129" y1="0" x2="460.8226661682129" y2="377.8999996185303" fill="rgb(0, 0, 0)" stroke="rgb(60, 60, 60)" stroke-width="1px" opacity="0.25"></line><line x1="576.0283327102661" y1="0" x2="576.0283327102661" y2="377.8999996185303" fill="rgb(0, 0, 0)" stroke="rgb(60, 60, 60)" stroke-width="1px" opacity="0.25"></line><line x1="691.2339992523193" y1="0" x2="691.2339992523193" y2="377.8999996185303" fill="rgb(0, 0, 0)" stroke="rgb(60, 60, 60)" stroke-width="1px" opacity="0.25"></line><line x1="806.4396657943726" y1="0" x2="806.4396657943726" y2="377.8999996185303" fill="rgb(0, 0, 0)" stroke="rgb(60, 60, 60)" stroke-width="1px" opacity="0.25"></line><line x1="921.6453323364258" y1="0" x2="921.6453323364258" y2="377.8999996185303" fill="rgb(0, 0, 0)" stroke="rgb(60, 60, 60)" stroke-width="1px" opacity="0.25"></line><line x1="1036.850998878479" y1="0" x2="1036.850998878479" y2="377.8999996185303" fill="rgb(0, 0, 0)" stroke="rgb(60, 60, 60)" stroke-width="1px" opacity="0.25"></line><line x1="1152.0566654205322" y1="0" x2="1152.0566654205322" y2="377.8999996185303" fill="rgb(0, 0, 0)" stroke="rgb(60, 60, 60)" stroke-width="1px" opacity="0.25"></line><line x1="1267.2623319625854" y1="0" x2="1267.2623319625854" y2="377.8999996185303" fill="rgb(0, 0, 0)" stroke="rgb(60, 60, 60)" stroke-width="1px" opacity="0.25"></line><line x1="1382.4679985046387" y1="0" x2="1382.4679985046387" y2="377.8999996185303" fill="rgb(0, 0, 0)" stroke="rgb(60, 60, 60)" stroke-width="1px" opacity="0.25"></line></g><g><line x1="0" y1="377.8999996185303" x2="1382.4679985046387" y2="377.8999996185303" fill="rgb(0, 0, 0)" stroke="rgb(60, 60, 60)" stroke-width="1px" opacity="0.25"></line><line x1="0" y1="330.662499666214" x2="1382.4679985046387" y2="330.662499666214" fill="rgb(0, 0, 0)" stroke="rgb(60, 60, 60)" stroke-width="1px" opacity="0.25"></line><line x1="0" y1="283.4249997138977" x2="1382.4679985046387" y2="283.4249997138977" fill="rgb(0, 0, 0)" stroke="rgb(60, 60, 60)" stroke-width="1px" opacity="0.25"></line><line x1="0" y1="236.18749976158142" x2="1382.4679985046387" y2="236.18749976158142" fill="rgb(0, 0, 0)" stroke="rgb(60, 60, 60)" stroke-width="1px" opacity="0.25"></line><line x1="0" y1="188.94999980926514" x2="1382.4679985046387" y2="188.94999980926514" fill="rgb(0, 0, 0)" stroke="rgb(60, 60, 60)" stroke-width="1px" opacity="0.25"></line><line x1="0" y1="141.71249985694885" x2="1382.4679985046387" y2="141.71249985694885" fill="rgb(0, 0, 0)" stroke="rgb(60, 60, 60)" stroke-width="1px" opacity="0.25"></line><line x1="0" y1="94.47499990463257" x2="1382.4679985046387" y2="94.47499990463257" fill="rgb(0, 0, 0)" stroke="rgb(60, 60, 60)" stroke-width="1px" opacity="0.25"></line><line x1="0" y1="47.237499952316284" x2="1382.4679985046387" y2="47.237499952316284" fill="rgb(0, 0, 0)" stroke="rgb(60, 60, 60)" stroke-width="1px" opacity="0.25"></line><line x1="0" y1="0" x2="1382.4679985046387" y2="0" fill="rgb(0, 0, 0)" stroke="rgb(60, 60, 60)" stroke-width="1px" opacity="0.25"></line></g></g></g><g><g><line x1="0" y1="330.662499666214" x2="1382.4679985046387" y2="330.662499666214" fill="rgb(0, 0, 0)" stroke="rgb(153, 153, 153)" stroke-width="1.5px"></line></g></g><g><g><line x1="115.20566654205322" y1="0" x2="115.20566654205322" y2="377.8999996185303" fill="rgb(0, 0, 0)" stroke="rgb(153, 153, 153)" stroke-width="1.5px"></line></g></g><g><g><g><g><g><path style="fill: none;" stroke="rgb(0, 119, 187)" stroke-width="2px" d="M115.20566654205322,143.62990602657362L138.24679985046387,211.99235665558348L161.28793315887452,246.49861751051986L184.32906646728514,254.9115144138274L207.3701997756958,265.46722674245405L230.41133308410645,266.6548979690083L253.45246639251707,268.6335090950432L276.49359970092775,270.6011957923877L299.53473300933837,270.37526283985414L322.57586631774905,270.4886798080257L345.61699962615967,270.50946437828145L368.6581329345703,270.72052546680925L391.69926624298097,270.5826355259117L414.7403995513916,270.5807209353165L437.7815328598022,270.55316209304294L460.8226661682129,270.55668719219767L483.8637994766235,270.5382733355907L506.90493278503413,270.5413760985847L529.9460660934449,270.53561543335263L552.9871994018555,270.5356604825431L576.0283327102661,270.5384366389062L599.0694660186767,270.5372484665074L622.1105993270875,270.5365952532455L645.1517326354981,270.5364375810788L668.1928659439087,270.5368880729836L691.2339992523193,270.5368430237931L714.2751325607301,270.53696127791807L737.3162658691406,270.53697254021574L760.3573991775513,270.53700632710854L783.3985324859619,270.5369781713645L806.4396657943726,270.5369838025133L829.4807991027832,270.53700069595976L852.5219324111939,270.536995064811L875.5630657196044,270.536995064811L898.6041990280152,270.536995064811L921.6453323364258,270.536995064811L944.6864656448364,270.536995064811L967.727598953247,270.536995064811L990.7687322616578,270.536995064811L1013.8098655700683,270.536995064811L1036.850998878479,270.536995064811L1059.8921321868897,270.536995064811L1082.9332654953002,270.536995064811L1105.974398803711,270.536995064811L1129.0155321121215,270.536995064811L1152.0566654205322,270.536995064811L1175.0977987289427,270.536995064811L1198.1389320373535,270.536995064811L1221.1800653457642,270.536995064811L1244.221198654175,270.536995064811" fill="none"></path></g><g><path style="fill: none;" stroke="rgb(204, 51, 17)" stroke-width="2px" d="M115.20566654205322,290.37532959921907L138.24679985046387,297.9255485827877L161.28793315887452,302.43410253692076L184.32906646728514,304.656328422751L207.3701997756958,305.6799586533366L230.41133308410645,306.10175985491L253.45246639251707,306.26519550238163L276.49359970092775,306.70413228978225L299.53473300933837,307.0598927859054L322.57586631774905,306.8615848416439L345.61699962615967,307.42606386839003L368.6581329345703,307.7567953158423L391.69926624298097,307.49308439373317L414.7403995513916,307.9140366996235L437.7815328598022,306.7531486245943L460.8226661682129,307.49297740190576L483.8637994766235,308.2221379677977L506.90493278503413,307.26934055029926L529.9460660934449,307.1355754259047L552.9871994018555,307.534022845578L576.0283327102661,307.21150302087716L599.0694660186767,307.2400388674692L622.1105993270875,307.2415297141165L645.1517326354981,307.01156767460975L668.1928659439087,308.15444170459745L691.2339992523193,306.87049895020925L714.2751325607301,307.0836210392013L737.3162658691406,307.46460767420365L760.3573991775513,307.44705256779014L783.3985324859619,307.2172721328325L806.4396657943726,307.29828043181834L829.4807991027832,307.17656455808884L852.5219324111939,306.8638964282302L875.5630657196044,308.38282139128876L898.6041990280152,306.7991185079004L921.6453323364258,306.9219394945838L944.6864656448364,307.58205936049717L967.727598953247,307.21202671771647L990.7687322616578,306.7195419284994L1013.8098655700683,307.29211432387194L1036.850998878479,307.81611665297567L1059.8921321868897,307.62883309029587L1082.9332654953002,307.47013183118577L1105.974398803711,307.64001795961866L1129.0155321121215,307.40294237137834L1152.0566654205322,307.18441437952924L1175.0977987289427,307.25294405275326L1198.1389320373535,308.0576633733707L1221.1800653457642,306.53205564446245L1244.221198654175,307.6942726706107" fill="none"></path></g><g><path style="fill: none;" stroke="rgb(187, 187, 187)" stroke-width="2px" d="M115.20566654205322,96.89932209008589L138.24679985046387,149.55107026202967L161.28793315887452,194.90236060912565L184.32906646728514,220.23770998836284L207.3701997756958,225.13746266586423L230.41133308410645,241.89674134274185L253.45246639251707,242.34944628898162L276.49359970092775,244.60138211593062L299.53473300933837,241.20440285891505L322.57586631774905,249.23342997902978L345.61699962615967,249.39847895063536L368.6581329345703,249.52403104449132L391.69926624298097,248.1888068256825L414.7403995513916,250.5939774740348L437.7815328598022,251.30494379812333L460.8226661682129,244.17241246192276L483.8637994766235,252.51625458737976L506.90493278503413,248.36679617725224L529.9460660934449,250.24621461700832L552.9871994018555,250.81989916427077L576.0283327102661,247.8480603800726L599.0694660186767,252.636507770206L622.1105993270875,251.47541556603244L645.1517326354981,253.02706172703566L668.1928659439087,250.22856659663944L691.2339992523193,246.33270134199762L714.2751325607301,242.99118326960652L737.3162658691406,248.35123731309167L760.3573991775513,243.78050139823003L783.3985324859619,253.0396360823272L806.4396657943726,247.06893463079425L829.4807991027832,252.08856883530046L852.5219324111939,246.05018660622648L875.5630657196044,252.1007208544313L898.6041990280152,249.16975294829228L921.6453323364258,247.08541700335957L944.6864656448364,250.07986485002775L967.727598953247,245.88513200347208L990.7687322616578,248.09045318057628L1013.8098655700683,245.66541020807534L1036.850998878479,244.25962769468384L1059.8921321868897,246.45128207362745L1082.9332654953002,246.9188419904266L1105.974398803711,248.39654553641267L1129.0155321121215,249.19436669973848L1152.0566654205322,250.74913814833096L1175.0977987289427,254.36653746319564L1198.1389320373535,252.78064265513322L1221.1800653457642,246.45086536861555L1244.221198654175,245.25064231136497" fill="none"></path></g><g><path style="fill: none;" stroke="rgb(238, 51, 119)" stroke-width="2px" d="M115.20566654205322,42.642257277835824L138.24679985046387,173.499445164899L161.28793315887452,206.82193717940606L184.32906646728514,223.2964824478816L207.3701997756958,232.16317674029796L230.41133308410645,240.5325504944571L253.45246639251707,239.20807050757674L276.49359970092775,245.19301313444885L299.53473300933837,245.95783576575116L322.57586631774905,248.92408845033032L345.61699962615967,246.23805299280804L368.6581329345703,247.89511989067336L391.69926624298097,246.27012238527797L414.7403995513916,244.81176746660125L437.7815328598022,250.93872766644822L460.8226661682129,249.0316321302936L483.8637994766235,249.1975314053694L506.90493278503413,251.7463526598513L529.9460660934449,249.06004127603737L552.9871994018555,245.04352302700383L576.0283327102661,248.6532470860412L599.0694660186767,249.31990753129682L622.1105993270875,250.27714088626993L645.1517326354981,247.356100695482L668.1928659439087,248.9334699442469L691.2339992523193,246.87886646502818L714.2751325607301,252.7186662313362L737.3162658691406,246.7470018533568L760.3573991775513,249.69021750815642L783.3985324859619,247.93952713018484L806.4396657943726,247.10899462342482L829.4807991027832,250.83907885711582L852.5219324111939,248.55734862181592L875.5630657196044,245.807788174574L898.6041990280152,247.7306284027999L921.6453323364258,246.8288674947489L944.6864656448364,247.78732280901366L967.727598953247,247.85926636620346L990.7687322616578,248.6867749460528L1013.8098655700683,247.27602012826253L1036.850998878479,245.27352730012666L1059.8921321868897,247.5210989867483L1082.9332654953002,247.53341994034344L1105.974398803711,248.9630785246871L1129.0155321121215,251.28534740026637L1152.0566654205322,248.0800017683859L1175.0977987289427,241.90791354197984L1198.1389320373535,242.72049394633527L1221.1800653457642,250.714912025867L1244.221198654175,244.1784490534465" fill="none"></path></g><g><path style="fill: none;" stroke="rgb(255, 112, 67)" stroke-width="2px" d="M115.20566654205322,291.2253824833271L138.24679985046387,298.7396043481312L161.28793315887452,302.721654335302L184.32906646728514,303.34642748013835L207.3701997756958,303.5813843486391L230.41133308410645,304.8959506980404L253.45246639251707,306.00680460811026L276.49359970092775,305.9235339950902L299.53473300933837,306.5123438080549L322.57586631774905,306.38203339345495L345.61699962615967,307.4105331599735L368.6581329345703,306.5074249995698L391.69926624298097,306.74139360145455L414.7403995513916,307.423308828835L437.7815328598022,306.5249322412185L460.8226661682129,306.6531000036964L483.8637994766235,307.3154286877304L506.90493278503413,307.7415278636326L529.9460660934449,307.21577143167474L552.9871994018555,306.251869388724L576.0283327102661,306.9716231205297L599.0694660186767,307.8736740327445L622.1105993270875,307.12461298695985L645.1517326354981,307.0740889120541L668.1928659439087,307.94786723388364L691.2339992523193,306.9938182935623L714.2751325607301,306.926010815173L737.3162658691406,307.6810887434606L760.3573991775513,307.4495781380312L783.3985324859619,307.3252733436365L806.4396657943726,307.1872017981899L829.4807991027832,307.20803564099776L852.5219324111939,307.4045725889587L875.5630657196044,305.9637291352922L898.6041990280152,307.2877487757574L921.6453323364258,306.9756831788214L944.6864656448364,306.5912305717268L967.727598953247,306.8529691839654L990.7687322616578,306.0092428955448L1013.8098655700683,306.6234717142354L1036.850998878479,306.51825932987924L1059.8921321868897,307.08553985315814L1082.9332654953002,306.83408231085843L1105.974398803711,306.8743112379533L1129.0155321121215,306.6459963094733L1152.0566654205322,306.99739125748187L1175.0977987289427,306.8947692015781L1198.1389320373535,307.14418122907273L1221.1800653457642,306.2005217583049L1244.221198654175,307.5446995037208" fill="none"></path></g><g><path style="fill: none;" stroke="rgb(0, 153, 136)" stroke-width="2px" d="M115.20566654205322,294.16962019163566L138.24679985046387,299.79288820834745L161.28793315887452,304.49928976032686L184.32906646728514,305.71823638736896L207.3701997756958,305.71566858351184L230.41133308410645,307.20818908980283L253.45246639251707,307.65361718399356L276.49359970092775,308.4570399325976L299.53473300933837,308.1915045182742L322.57586631774905,307.38040229048124L345.61699962615967,308.4810666367804L368.6581329345703,308.2153425789719L391.69926624298097,308.37776884301945L414.7403995513916,308.5352622207099L437.7815328598022,307.435301768012L460.8226661682129,308.4094510940087L483.8637994766235,308.546365438375L506.90493278503413,307.71183622374747L529.9460660934449,308.9363675426213L552.9871994018555,308.4442487780769L576.0283327102661,308.70438392069195L599.0694660186767,308.46671565403943L622.1105993270875,307.91145059453277L645.1517326354981,308.39815782507134L668.1928659439087,308.64467825765234L691.2339992523193,307.85939343936366L714.2751325607301,308.81723918176976L737.3162658691406,308.47209199336527L760.3573991775513,308.38085893592864L783.3985324859619,308.50180052669685L806.4396657943726,308.2273200324896L829.4807991027832,309.23682734186104L852.5219324111939,308.28663573847416L875.5630657196044,308.1579977750706L898.6041990280152,307.7915324650607L921.6453323364258,308.21281700873084L944.6864656448364,307.67442146327016L967.727598953247,308.68374576030527L990.7687322616578,308.679674439716L1013.8098655700683,309.1568298340865L1036.850998878479,307.80691254024657L1059.8921321868897,308.12155861112456L1082.9332654953002,308.1405017957196L1105.974398803711,308.8911606799789L1129.0155321121215,308.28636966669296L1152.0566654205322,308.4145838861486L1175.0977987289427,308.1924055020837L1198.1389320373535,308.0179623664767L1221.1800653457642,307.70696528002725L1244.221198654175,309.03915290184057" fill="none"></path></g><g><path style="fill: none;" stroke="rgb(0, 119, 187)" stroke-width="2px" d="M115.20566654205322,293.7415036566724L138.24679985046387,301.36652400545165L161.28793315887452,302.8334523481908L184.32906646728514,305.44519324389535L207.3701997756958,306.5172034894775L230.41133308410645,307.6371587438107L253.45246639251707,307.7387390371847L276.49359970092775,307.624979976723L299.53473300933837,307.3195591353821L322.57586631774905,308.50957432762834L345.61699962615967,308.80292198592167L368.6581329345703,308.0852123611338L391.69926624298097,308.6055910459786L414.7403995513916,308.99474566232914L437.7815328598022,308.10337000046997L460.8226661682129,308.5868984475056L483.8637994766235,308.6487495782416L506.90493278503413,308.7873251115067L529.9460660934449,307.62863036893873L552.9871994018555,308.16062892935184L576.0283327102661,308.26379157554135L599.0694660186767,308.3536999052206L622.1105993270875,308.5073964808263L645.1517326354981,308.128594731562L668.1928659439087,308.2530262268049L691.2339992523193,308.32959858831606L714.2751325607301,308.0042491113385L737.3162658691406,308.72554014676916L760.3573991775513,308.2212581007962L783.3985324859619,307.9157161897559L806.4396657943726,308.90218928492226L829.4807991027832,308.51726366132766L852.5219324111939,308.4866006482729L875.5630657196044,308.9402685209591L898.6041990280152,308.2767755969088L921.6453323364258,308.7024299120551L944.6864656448364,308.6320813777656L967.727598953247,308.52389997019964L990.7687322616578,308.4578268856437L1013.8098655700683,308.04675443033955L1036.850998878479,308.0247704253874L1059.8921321868897,308.5118056703441L1082.9332654953002,308.38699829591815L1105.974398803711,308.25918248024084L1129.0155321121215,307.7391754512174L1152.0566654205322,308.8429791629779L1175.0977987289427,308.5139595847637L1198.1389320373535,308.0257882555347L1221.1800653457642,307.8366450059606L1244.221198654175,308.49680710549006" fill="none"></path></g></g></g></g></g><g><g opacity="0.335909"><span fill="rgb(0, 0, 0)" stroke="none" stroke-width="1px">Alt + Scroll to Zoom</span></g></g></g><g transform="translate(51, 377)" clip-path="url(#clip_1)"><clipPath id="clip_1"><rect width="1382" height="22"></rect></clipPath><g><g><line x1="0" y1="0" x2="0" y2="5" style="visibility: inherit;" fill="rgb(0, 0, 0)" stroke="rgb(204, 204, 204)" stroke-width="1px"></line><line x1="115.20566654205322" y1="0" x2="115.20566654205322" y2="5" style="visibility: inherit;" fill="rgb(0, 0, 0)" stroke="rgb(204, 204, 204)" stroke-width="1px"></line><line x1="230.41133308410645" y1="0" x2="230.41133308410645" y2="5" style="visibility: inherit;" fill="rgb(0, 0, 0)" stroke="rgb(204, 204, 204)" stroke-width="1px"></line><line x1="345.61699962615967" y1="0" x2="345.61699962615967" y2="5" style="visibility: inherit;" fill="rgb(0, 0, 0)" stroke="rgb(204, 204, 204)" stroke-width="1px"></line><line x1="460.8226661682129" y1="0" x2="460.8226661682129" y2="5" style="visibility: inherit;" fill="rgb(0, 0, 0)" stroke="rgb(204, 204, 204)" stroke-width="1px"></line><line x1="576.0283327102661" y1="0" x2="576.0283327102661" y2="5" style="visibility: inherit;" fill="rgb(0, 0, 0)" stroke="rgb(204, 204, 204)" stroke-width="1px"></line><line x1="691.2339992523193" y1="0" x2="691.2339992523193" y2="5" style="visibility: inherit;" fill="rgb(0, 0, 0)" stroke="rgb(204, 204, 204)" stroke-width="1px"></line><line x1="806.4396657943726" y1="0" x2="806.4396657943726" y2="5" style="visibility: inherit;" fill="rgb(0, 0, 0)" stroke="rgb(204, 204, 204)" stroke-width="1px"></line><line x1="921.6453323364258" y1="0" x2="921.6453323364258" y2="5" style="visibility: inherit;" fill="rgb(0, 0, 0)" stroke="rgb(204, 204, 204)" stroke-width="1px"></line><line x1="1036.850998878479" y1="0" x2="1036.850998878479" y2="5" style="visibility: inherit;" fill="rgb(0, 0, 0)" stroke="rgb(204, 204, 204)" stroke-width="1px"></line><line x1="1152.0566654205322" y1="0" x2="1152.0566654205322" y2="5" style="visibility: inherit;" fill="rgb(0, 0, 0)" stroke="rgb(204, 204, 204)" stroke-width="1px"></line><line x1="1267.2623319625854" y1="0" x2="1267.2623319625854" y2="5" style="visibility: inherit;" fill="rgb(0, 0, 0)" stroke="rgb(204, 204, 204)" stroke-width="1px"></line><line x1="1382.4679985046387" y1="0" x2="1382.4679985046387" y2="5" style="visibility: inherit;" fill="rgb(0, 0, 0)" stroke="rgb(204, 204, 204)" stroke-width="1px"></line></g><g transform="translate(0, 8)"><text style="text-anchor: middle; visibility: hidden; font-family: Roboto, sans-serif; font-size: 12px; font-weight: 200;" x="0" y="0" dx="0em" dy="0.95em" fill="rgb(50, 49, 63)" stroke="none" stroke-width="1px">-5</text><text style="text-anchor: middle; visibility: inherit; font-family: Roboto, sans-serif; font-size: 12px; font-weight: 200;" x="115.20566654205322" y="0" dx="0em" dy="0.95em" fill="rgb(50, 49, 63)" stroke="none" stroke-width="1px">0</text><text style="text-anchor: middle; visibility: inherit; font-family: Roboto, sans-serif; font-size: 12px; font-weight: 200;" x="230.41133308410645" y="0" dx="0em" dy="0.95em" fill="rgb(50, 49, 63)" stroke="none" stroke-width="1px">5</text><text style="text-anchor: middle; visibility: inherit; font-family: Roboto, sans-serif; font-size: 12px; font-weight: 200;" x="345.61699962615967" y="0" dx="0em" dy="0.95em" fill="rgb(50, 49, 63)" stroke="none" stroke-width="1px">10</text><text style="text-anchor: middle; visibility: inherit; font-family: Roboto, sans-serif; font-size: 12px; font-weight: 200;" x="460.8226661682129" y="0" dx="0em" dy="0.95em" fill="rgb(50, 49, 63)" stroke="none" stroke-width="1px">15</text><text style="text-anchor: middle; visibility: inherit; font-family: Roboto, sans-serif; font-size: 12px; font-weight: 200;" x="576.0283327102661" y="0" dx="0em" dy="0.95em" fill="rgb(50, 49, 63)" stroke="none" stroke-width="1px">20</text><text style="text-anchor: middle; visibility: inherit; font-family: Roboto, sans-serif; font-size: 12px; font-weight: 200;" x="691.2339992523193" y="0" dx="0em" dy="0.95em" fill="rgb(50, 49, 63)" stroke="none" stroke-width="1px">25</text><text style="text-anchor: middle; visibility: inherit; font-family: Roboto, sans-serif; font-size: 12px; font-weight: 200;" x="806.4396657943726" y="0" dx="0em" dy="0.95em" fill="rgb(50, 49, 63)" stroke="none" stroke-width="1px">30</text><text style="text-anchor: middle; visibility: inherit; font-family: Roboto, sans-serif; font-size: 12px; font-weight: 200;" x="921.6453323364258" y="0" dx="0em" dy="0.95em" fill="rgb(50, 49, 63)" stroke="none" stroke-width="1px">35</text><text style="text-anchor: middle; visibility: inherit; font-family: Roboto, sans-serif; font-size: 12px; font-weight: 200;" x="1036.850998878479" y="0" dx="0em" dy="0.95em" fill="rgb(50, 49, 63)" stroke="none" stroke-width="1px">40</text><text style="text-anchor: middle; visibility: inherit; font-family: Roboto, sans-serif; font-size: 12px; font-weight: 200;" x="1152.0566654205322" y="0" dx="0em" dy="0.95em" fill="rgb(50, 49, 63)" stroke="none" stroke-width="1px">45</text><text style="text-anchor: middle; visibility: inherit; font-family: Roboto, sans-serif; font-size: 12px; font-weight: 200;" x="1267.2623319625854" y="0" dx="0em" dy="0.95em" fill="rgb(50, 49, 63)" stroke="none" stroke-width="1px">50</text><text style="text-anchor: middle; visibility: hidden; font-family: Roboto, sans-serif; font-size: 12px; font-weight: 200;" x="1382.4679985046387" y="0" dx="0em" dy="0.95em" fill="rgb(50, 49, 63)" stroke="none" stroke-width="1px">55</text></g><line x1="0" y1="0" x2="1382.4679985046387" y2="0" fill="rgb(0, 0, 0)" stroke="rgb(204, 204, 204)" stroke-width="1px"></line></g></g></g></g></svg>