<svg viewBox="0 0 1434 400" xmlns="http://www.w3.org/2000/svg"><g><g><g><g><g><line x1="51.53200149536133" y1="377.8999996185303" x2="46.53200149536133" y2="377.8999996185303" style="visibility: inherit;" fill="rgb(0, 0, 0)" stroke="rgb(204, 204, 204)" stroke-width="1px"></line><line x1="51.53200149536133" y1="335.9111107720269" x2="46.53200149536133" y2="335.9111107720269" style="visibility: inherit;" fill="rgb(0, 0, 0)" stroke="rgb(204, 204, 204)" stroke-width="1px"></line><line x1="51.53200149536133" y1="293.9222219255235" x2="46.53200149536133" y2="293.9222219255235" style="visibility: inherit;" fill="rgb(0, 0, 0)" stroke="rgb(204, 204, 204)" stroke-width="1px"></line><line x1="51.53200149536133" y1="251.93333307902012" x2="46.53200149536133" y2="251.93333307902012" style="visibility: inherit;" fill="rgb(0, 0, 0)" stroke="rgb(204, 204, 204)" stroke-width="1px"></line><line x1="51.53200149536133" y1="209.94444423251673" x2="46.53200149536133" y2="209.94444423251673" style="visibility: inherit;" fill="rgb(0, 0, 0)" stroke="rgb(204, 204, 204)" stroke-width="1px"></line><line x1="51.53200149536133" y1="167.95555538601357" x2="46.53200149536133" y2="167.95555538601357" style="visibility: inherit;" fill="rgb(0, 0, 0)" stroke="rgb(204, 204, 204)" stroke-width="1px"></line><line x1="51.53200149536133" y1="125.96666653951019" x2="46.53200149536133" y2="125.96666653951019" style="visibility: inherit;" fill="rgb(0, 0, 0)" stroke="rgb(204, 204, 204)" stroke-width="1px"></line><line x1="51.53200149536133" y1="83.97777769300677" x2="46.53200149536133" y2="83.97777769300677" style="visibility: inherit;" fill="rgb(0, 0, 0)" stroke="rgb(204, 204, 204)" stroke-width="1px"></line><line x1="51.53200149536133" y1="41.988888846503386" x2="46.53200149536133" y2="41.988888846503386" style="visibility: inherit;" fill="rgb(0, 0, 0)" stroke="rgb(204, 204, 204)" stroke-width="1px"></line><line x1="51.53200149536133" y1="0" x2="46.53200149536133" y2="0" style="visibility: inherit;" fill="rgb(0, 0, 0)" stroke="rgb(204, 204, 204)" stroke-width="1px"></line></g><g transform="translate(41.53200149536133, 0)"><text style="text-anchor: end; visibility: hidden; font-family: Roboto, sans-serif; font-size: 12px; font-weight: 200;" x="0" y="377.8999996185303" dx="0em" dy="0.3em" fill="rgb(50, 49, 63)" stroke="none" stroke-width="1px">0.72</text><text style="text-anchor: end; visibility: inherit; font-family: Roboto, sans-serif; font-size: 12px; font-weight: 200;" x="0" y="335.9111107720269" dx="0em" dy="0.3em" fill="rgb(50, 49, 63)" stroke="none" stroke-width="1px">0.74</text><text style="text-anchor: end; visibility: inherit; font-family: Roboto, sans-serif; font-size: 12px; font-weight: 200;" x="0" y="293.9222219255235" dx="0em" dy="0.3em" fill="rgb(50, 49, 63)" stroke="none" stroke-width="1px">0.76</text><text style="text-anchor: end; visibility: inherit; font-family: Roboto, sans-serif; font-size: 12px; font-weight: 200;" x="0" y="251.93333307902012" dx="0em" dy="0.3em" fill="rgb(50, 49, 63)" stroke="none" stroke-width="1px">0.78</text><text style="text-anchor: end; visibility: inherit; font-family: Roboto, sans-serif; font-size: 12px; font-weight: 200;" x="0" y="209.94444423251673" dx="0em" dy="0.3em" fill="rgb(50, 49, 63)" stroke="none" stroke-width="1px">0.8</text><text style="text-anchor: end; visibility: inherit; font-family: Roboto, sans-serif; font-size: 12px; font-weight: 200;" x="0" y="167.95555538601357" dx="0em" dy="0.3em" fill="rgb(50, 49, 63)" stroke="none" stroke-width="1px">0.82</text><text style="text-anchor: end; visibility: inherit; font-family: Roboto, sans-serif; font-size: 12px; font-weight: 200;" x="0" y="125.96666653951019" dx="0em" dy="0.3em" fill="rgb(50, 49, 63)" stroke="none" stroke-width="1px">0.84</text><text style="text-anchor: end; visibility: inherit; font-family: Roboto, sans-serif; font-size: 12px; font-weight: 200;" x="0" y="83.97777769300677" dx="0em" dy="0.3em" fill="rgb(50, 49, 63)" stroke="none" stroke-width="1px">0.86</text><text style="text-anchor: end; visibility: inherit; font-family: Roboto, sans-serif; font-size: 12px; font-weight: 200;" x="0" y="41.988888846503386" dx="0em" dy="0.3em" fill="rgb(50, 49, 63)" stroke="none" stroke-width="1px">0.88</text><text style="text-anchor: end; visibility: hidden; font-family: Roboto, sans-serif; font-size: 12px; font-weight: 200;" x="0" y="0" dx="0em" dy="0.3em" fill="rgb(50, 49, 63)" stroke="none" stroke-width="1px">0.9</text></g><line x1="51.53200149536133" y1="0" x2="51.53200149536133" y2="377.8999996185303" fill="rgb(0, 0, 0)" stroke="rgb(204, 204, 204)" stroke-width="1px"></line></g></g><g transform="translate(51, 0)" clip-path="url(#clip_0)"><clipPath id="clip_0"><rect width="1382" height="377"></rect></clipPath><g><g><g><line x1="0" y1="0" x2="0" y2="377.8999996185303" fill="rgb(0, 0, 0)" stroke="rgb(60, 60, 60)" stroke-width="1px" opacity="0.25"></line><line x1="115.20566654205322" y1="0" x2="115.20566654205322" y2="377.8999996185303" fill="rgb(0, 0, 0)" stroke="rgb(60, 60, 60)" stroke-width="1px" opacity="0.25"></line><line x1="230.41133308410645" y1="0" x2="230.41133308410645" y2="377.8999996185303" fill="rgb(0, 0, 0)" stroke="rgb(60, 60, 60)" stroke-width="1px" opacity="0.25"></line><line x1="345.61699962615967" y1="0" x2="345.61699962615967" y2="377.8999996185303" fill="rgb(0, 0, 0)" stroke="rgb(60, 60, 60)" stroke-width="1px" opacity="0.25"></line><line x1="460.8226661682129" y1="0" x2="460.8226661682129" y2="377.8999996185303" fill="rgb(0, 0, 0)" stroke="rgb(60, 60, 60)" stroke-width="1px" opacity="0.25"></line><line x1="576.0283327102661" y1="0" x2="576.0283327102661" y2="377.8999996185303" fill="rgb(0, 0, 0)" stroke="rgb(60, 60, 60)" stroke-width="1px" opacity="0.25"></line><line x1="691.2339992523193" y1="0" x2="691.2339992523193" y2="377.8999996185303" fill="rgb(0, 0, 0)" stroke="rgb(60, 60, 60)" stroke-width="1px" opacity="0.25"></line><line x1="806.4396657943726" y1="0" x2="806.4396657943726" y2="377.8999996185303" fill="rgb(0, 0, 0)" stroke="rgb(60, 60, 60)" stroke-width="1px" opacity="0.25"></line><line x1="921.6453323364258" y1="0" x2="921.6453323364258" y2="377.8999996185303" fill="rgb(0, 0, 0)" stroke="rgb(60, 60, 60)" stroke-width="1px" opacity="0.25"></line><line x1="1036.850998878479" y1="0" x2="1036.850998878479" y2="377.8999996185303" fill="rgb(0, 0, 0)" stroke="rgb(60, 60, 60)" stroke-width="1px" opacity="0.25"></line><line x1="1152.0566654205322" y1="0" x2="1152.0566654205322" y2="377.8999996185303" fill="rgb(0, 0, 0)" stroke="rgb(60, 60, 60)" stroke-width="1px" opacity="0.25"></line><line x1="1267.2623319625854" y1="0" x2="1267.2623319625854" y2="377.8999996185303" fill="rgb(0, 0, 0)" stroke="rgb(60, 60, 60)" stroke-width="1px" opacity="0.25"></line><line x1="1382.4679985046387" y1="0" x2="1382.4679985046387" y2="377.8999996185303" fill="rgb(0, 0, 0)" stroke="rgb(60, 60, 60)" stroke-width="1px" opacity="0.25"></line></g><g><line x1="0" y1="377.8999996185303" x2="1382.4679985046387" y2="377.8999996185303" fill="rgb(0, 0, 0)" stroke="rgb(60, 60, 60)" stroke-width="1px" opacity="0.25"></line><line x1="0" y1="335.9111107720269" x2="1382.4679985046387" y2="335.9111107720269" fill="rgb(0, 0, 0)" stroke="rgb(60, 60, 60)" stroke-width="1px" opacity="0.25"></line><line x1="0" y1="293.9222219255235" x2="1382.4679985046387" y2="293.9222219255235" fill="rgb(0, 0, 0)" stroke="rgb(60, 60, 60)" stroke-width="1px" opacity="0.25"></line><line x1="0" y1="251.93333307902012" x2="1382.4679985046387" y2="251.93333307902012" fill="rgb(0, 0, 0)" stroke="rgb(60, 60, 60)" stroke-width="1px" opacity="0.25"></line><line x1="0" y1="209.94444423251673" x2="1382.4679985046387" y2="209.94444423251673" fill="rgb(0, 0, 0)" stroke="rgb(60, 60, 60)" stroke-width="1px" opacity="0.25"></line><line x1="0" y1="167.95555538601357" x2="1382.4679985046387" y2="167.95555538601357" fill="rgb(0, 0, 0)" stroke="rgb(60, 60, 60)" stroke-width="1px" opacity="0.25"></line><line x1="0" y1="125.96666653951019" x2="1382.4679985046387" y2="125.96666653951019" fill="rgb(0, 0, 0)" stroke="rgb(60, 60, 60)" stroke-width="1px" opacity="0.25"></line><line x1="0" y1="83.97777769300677" x2="1382.4679985046387" y2="83.97777769300677" fill="rgb(0, 0, 0)" stroke="rgb(60, 60, 60)" stroke-width="1px" opacity="0.25"></line><line x1="0" y1="41.988888846503386" x2="1382.4679985046387" y2="41.988888846503386" fill="rgb(0, 0, 0)" stroke="rgb(60, 60, 60)" stroke-width="1px" opacity="0.25"></line><line x1="0" y1="0" x2="1382.4679985046387" y2="0" fill="rgb(0, 0, 0)" stroke="rgb(60, 60, 60)" stroke-width="1px" opacity="0.25"></line></g></g></g><g><g><line x1="0" y1="1889.4999980926507" x2="1382.4679985046387" y2="1889.4999980926507" fill="rgb(0, 0, 0)" stroke="rgb(153, 153, 153)" stroke-width="1.5px"></line></g></g><g><g><line x1="115.20566654205322" y1="0" x2="115.20566654205322" y2="377.8999996185303" fill="rgb(0, 0, 0)" stroke="rgb(153, 153, 153)" stroke-width="1.5px"></line></g></g><g><g><g><g><g><path style="fill: none;" stroke="rgb(0, 119, 187)" stroke-width="2px" d="M115.20566654205322,189.97548957032424L138.24679985046387,133.846325560404L161.28793315887452,65.30410738816703L184.32906646728514,49.6526421138438L207.3701997756958,28.604283820523865L230.41133308410645,25.365997845157562L253.45246639251707,22.127837006431516L276.49359970092775,15.65139019233917L299.53473300933837,15.65139019233917L322.57586631774905,13.492532875428328L345.61699962615967,13.492532875428328L368.6581329345703,14.032247204656018L391.69926624298097,12.952818546200596L414.7403995513916,15.111675863111438L437.7815328598022,15.65139019233917L460.8226661682129,15.111675863111438L483.8637994766235,15.111675863111438L506.90493278503413,15.111675863111438L529.9460660934449,15.111675863111438L552.9871994018555,15.111675863111438L576.0283327102661,15.111675863111438L599.0694660186767,15.111675863111438L622.1105993270875,15.111675863111438L645.1517326354981,15.111675863111438L668.1928659439087,15.111675863111438L691.2339992523193,15.111675863111438L714.2751325607301,15.111675863111438L737.3162658691406,15.111675863111438L760.3573991775513,15.111675863111438L783.3985324859619,15.111675863111438L806.4396657943726,15.111675863111438L829.4807991027832,15.111675863111438L852.5219324111939,15.111675863111438L875.5630657196044,15.111675863111438L898.6041990280152,15.111675863111438L921.6453323364258,15.111675863111438L944.6864656448364,15.111675863111438L967.727598953247,15.111675863111438L990.7687322616578,15.111675863111438L1013.8098655700683,15.111675863111438L1036.850998878479,15.111675863111438L1059.8921321868897,15.111675863111438L1082.9332654953002,15.111675863111438L1105.974398803711,15.111675863111438L1129.0155321121215,15.111675863111438L1152.0566654205322,15.111675863111438L1175.0977987289427,15.111675863111438L1198.1389320373535,15.111675863111438L1221.1800653457642,15.111675863111438L1244.221198654175,15.111675863111438" fill="none"></path></g><g><path style="fill: none;" stroke="rgb(204, 51, 17)" stroke-width="2px" d="M115.20566654205322,179.7210424516379L138.24679985046387,116.57584243503786L161.28793315887452,85.81275135225927L184.32906646728514,71.24083987303169L207.3701997756958,64.2246787297116L230.41133308410645,56.129088927936145L253.45246639251707,57.7482319156193L276.49359970092775,42.63648097052376L299.53473300933837,43.17619529975145L322.57586631774905,43.71590962897918L345.61699962615967,37.77917714411453L368.6581329345703,36.16015929307164L391.69926624298097,39.93803446102541L414.7403995513916,35.080730634616174L437.7815328598022,46.414481275117716L460.8226661682129,40.477748790253095L483.8637994766235,35.6204449638439L506.90493278503413,42.09689177793625L529.9460660934449,42.63648097052376L552.9871994018555,39.93803446102541L576.0283327102661,37.77917714411453L599.0694660186767,43.71590962897918L622.1105993270875,39.398320131797675L645.1517326354981,39.398320131797675L668.1928659439087,36.6997484856591L691.2339992523193,37.77917714411453L714.2751325607301,39.93803446102541L737.3162658691406,35.6204449638439L760.3573991775513,36.6997484856591L783.3985324859619,39.93803446102541L806.4396657943726,45.335052616662296L829.4807991027832,41.01746311948083L852.5219324111939,42.09689177793625L875.5630657196044,34.00130197616075L898.6041990280152,44.7953382874346L921.6453323364258,43.71590962897918L944.6864656448364,41.557177448708515L967.727598953247,36.6997484856591L990.7687322616578,39.93803446102541L1013.8098655700683,39.93803446102541L1036.850998878479,35.6204449638439L1059.8921321868897,34.54101630538848L1082.9332654953002,39.93803446102541L1105.974398803711,41.557177448708515L1129.0155321121215,42.09689177793625L1152.0566654205322,43.17619529975145L1175.0977987289427,40.477748790253095L1198.1389320373535,34.54101630538848L1221.1800653457642,38.318891473342255L1244.221198654175,38.85860580256999" fill="none"></path></g><g><path style="fill: none;" stroke="rgb(187, 187, 187)" stroke-width="2px" d="M115.20566654205322,270.9308870415182L138.24679985046387,233.69134914464726L161.28793315887452,184.57834627804712L184.32906646728514,144.64036187167787L207.3701997756958,151.11680868577022L230.41133308410645,107.40082397480693L253.45246639251707,107.40082397480693L276.49359970092775,107.94053830403466L299.53473300933837,113.33755645967159L322.57586631774905,104.1626631360809L345.61699962615967,104.70237746530857L368.6581329345703,99.84507363889938L391.69926624298097,100.9245022973548L414.7403995513916,109.55968129171782L437.7815328598022,94.98776981249019L460.8226661682129,103.62294880685316L483.8637994766235,104.1626631360809L506.90493278503413,97.68621632198854L529.9460660934449,89.59062652021304L552.9871994018555,107.40082397480693L576.0283327102661,116.57584243503786L599.0694660186767,98.22593065121623L622.1105993270875,87.97160866917015L645.1517326354981,96.60678766353313L668.1928659439087,105.781806123764L691.2339992523193,109.01996696249009L714.2751325607301,109.55968129171782L737.3162658691406,102.54352014839773L760.3573991775513,107.40082397480693L783.3985324859619,100.9245022973548L806.4396657943726,112.25825293785634L829.4807991027832,98.76564498044397L852.5219324111939,102.54352014839773L875.5630657196044,103.08323447762547L898.6041990280152,103.08323447762547L921.6453323364258,104.70237746530857L944.6864656448364,108.48025263326235L967.727598953247,100.38478796812711L990.7687322616578,106.32152045299173L1013.8098655700683,109.55968129171782L1036.850998878479,109.55968129171782L1059.8921321868897,111.71853860862866L1082.9332654953002,110.0993956209455L1105.974398803711,106.32152045299173L1129.0155321121215,105.24209179453631L1152.0566654205322,100.38478796812711L1175.0977987289427,103.62294880685316L1198.1389320373535,98.22593065121623L1221.1800653457642,106.86123478221947L1244.221198654175,106.32152045299173" fill="none"></path></g><g><path style="fill: none;" stroke="rgb(238, 51, 119)" stroke-width="2px" d="M115.20566654205322,302.2336924535245L138.24679985046387,202.388543732641L161.28793315887452,137.62420072835778L184.32906646728514,112.79796726708408L207.3701997756958,108.48025263326235L230.41133308410645,87.43189433994242L253.45246639251707,91.2097695078962L276.49359970092775,94.44805548326245L299.53473300933837,86.352465681487L322.57586631774905,84.19360836457616L345.61699962615967,87.97160866917015L368.6581329345703,79.33630453816691L391.69926624298097,76.6378580286686L414.7403995513916,94.44805548326245L437.7815328598022,80.41573319662238L460.8226661682129,80.95544752585008L483.8637994766235,78.79659020893924L506.90493278503413,70.16141121457626L529.9460660934449,73.39957205330231L552.9871994018555,73.93928638253004L576.0283327102661,72.85985772407462L599.0694660186767,78.79659020893924L622.1105993270875,75.55842937021315L645.1517326354981,77.1775723578963L668.1928659439087,72.85985772407462L691.2339992523193,75.55842937021315L714.2751325607301,75.01871504098546L737.3162658691406,78.2568758797115L760.3573991775513,78.79659020893924L783.3985324859619,82.57459051353322L806.4396657943726,83.11430484276092L829.4807991027832,80.95544752585008L852.5219324111939,78.2568758797115L875.5630657196044,80.41573319662238L898.6041990280152,85.27303702303158L921.6453323364258,85.81275135225927L944.6864656448364,77.1775723578963L967.727598953247,83.11430484276092L990.7687322616578,91.74948383712393L1013.8098655700683,70.70112554380395L1036.850998878479,79.33630453816691L1059.8921321868897,75.55842937021315L1082.9332654953002,79.87601886739465L1105.974398803711,79.87601886739465L1129.0155321121215,73.93928638253004L1152.0566654205322,69.08198255612083L1175.0977987289427,90.6700551786685L1198.1389320373535,87.43189433994242L1221.1800653457642,73.93928638253004L1244.221198654175,75.55842937021315" fill="none"></path></g><g><path style="fill: none;" stroke="rgb(255, 112, 67)" stroke-width="2px" d="M115.20566654205322,169.4667204695918L138.24679985046387,110.63910995017324L161.28793315887452,84.19360836457616L184.32906646728514,79.33630453816691L207.3701997756958,79.33630453816691L230.41133308410645,72.85985772407462L253.45246639251707,53.970231611025305L276.49359970092775,51.27178510152695L299.53473300933837,58.82766057407472L322.57586631774905,49.11292778461607L345.61699962615967,47.49390993357318L368.6581329345703,48.03362426280086L391.69926624298097,46.95419560434544L414.7403995513916,43.17619529975145L437.7815328598022,48.03362426280086L460.8226661682129,51.27178510152695L483.8637994766235,48.57321345538838L506.90493278503413,37.77917714411453L529.9460660934449,38.85860580256999L552.9871994018555,45.335052616662296L576.0283327102661,35.080730634616174L599.0694660186767,39.93803446102541L622.1105993270875,43.71590962897918L645.1517326354981,39.398320131797675L668.1928659439087,44.7953382874346L691.2339992523193,41.557177448708515L714.2751325607301,43.71590962897918L737.3162658691406,37.77917714411453L760.3573991775513,39.398320131797675L783.3985324859619,44.7953382874346L806.4396657943726,45.87476694589002L829.4807991027832,45.87476694589002L852.5219324111939,39.398320131797675L875.5630657196044,50.73207077229922L898.6041990280152,41.557177448708515L921.6453323364258,50.73207077229922L944.6864656448364,49.11292778461607L967.727598953247,38.318891473342255L990.7687322616578,49.6526421138438L1013.8098655700683,48.57321345538838L1036.850998878479,42.09689177793625L1059.8921321868897,45.87476694589002L1082.9332654953002,46.95419560434544L1105.974398803711,45.335052616662296L1129.0155321121215,45.87476694589002L1152.0566654205322,43.17619529975145L1175.0977987289427,39.93803446102541L1198.1389320373535,48.03362426280086L1221.1800653457642,44.25562395820687L1244.221198654175,38.85860580256999" fill="none"></path></g><g><path style="fill: none;" stroke="rgb(0, 153, 136)" stroke-width="2px" d="M115.20566654205322,168.38729181113638L138.24679985046387,117.65527109349327L161.28793315887452,69.62169688534853L184.32906646728514,60.98639275434534L207.3701997756958,56.66880325716384L230.41133308410645,49.11292778461607L253.45246639251707,41.557177448708515L276.49359970092775,33.46158764693306L299.53473300933837,38.318891473342255L322.57586631774905,36.6997484856591L345.61699962615967,33.46158764693306L368.6581329345703,29.143998149751553L391.69926624298097,37.77917714411453L414.7403995513916,28.064569491296133L437.7815328598022,40.477748790253095L460.8226661682129,30.763016000794487L483.8637994766235,26.985140832840713L506.90493278503413,36.16015929307164L529.9460660934449,31.842444659249907L552.9871994018555,32.38215898847764L576.0283327102661,30.763016000794487L599.0694660186767,30.763016000794487L622.1105993270875,31.302730330022218L645.1517326354981,35.6204449638439L668.1928659439087,28.604283820523865L691.2339992523193,36.6997484856591L714.2751325607301,27.524855162068402L737.3162658691406,28.064569491296133L760.3573991775513,32.92187331770533L783.3985324859619,32.92187331770533L806.4396657943726,37.239462814886835L829.4807991027832,28.064569491296133L852.5219324111939,33.46158764693306L875.5630657196044,33.46158764693306L898.6041990280152,37.239462814886835L921.6453323364258,34.54101630538848L944.6864656448364,37.77917714411453L967.727598953247,31.842444659249907L990.7687322616578,28.604283820523865L1013.8098655700683,30.763016000794487L1036.850998878479,35.080730634616174L1059.8921321868897,31.302730330022218L1082.9332654953002,33.46158764693306L1105.974398803711,27.524855162068402L1129.0155321121215,38.318891473342255L1152.0566654205322,32.92187331770533L1175.0977987289427,35.6204449638439L1198.1389320373535,31.842444659249907L1221.1800653457642,35.6204449638439L1244.221198654175,28.604283820523865" fill="none"></path></g><g><path style="fill: none;" stroke="rgb(0, 119, 187)" stroke-width="2px" d="M115.20566654205322,154.35509466113646L138.24679985046387,97.68621632198854L161.28793315887452,71.78042906561919L184.32906646728514,60.98639275434534L207.3701997756958,52.890928089210064L230.41133308410645,53.43064241843779L253.45246639251707,37.77917714411453L276.49359970092775,40.477748790253095L299.53473300933837,36.6997484856591L322.57586631774905,31.302730330022218L345.61699962615967,31.302730330022218L368.6581329345703,29.683712478979285L391.69926624298097,26.985140832840713L414.7403995513916,28.064569491296133L437.7815328598022,36.16015929307164L460.8226661682129,30.223426808206977L483.8637994766235,33.46158764693306L506.90493278503413,30.223426808206977L529.9460660934449,39.398320131797675L552.9871994018555,33.46158764693306L576.0283327102661,32.92187331770533L599.0694660186767,35.080730634616174L622.1105993270875,29.143998149751553L645.1517326354981,32.92187331770533L668.1928659439087,32.38215898847764L691.2339992523193,38.85860580256999L714.2751325607301,37.77917714411453L737.3162658691406,31.302730330022218L760.3573991775513,37.77917714411453L783.3985324859619,34.00130197616075L806.4396657943726,37.239462814886835L829.4807991027832,30.223426808206977L852.5219324111939,36.16015929307164L875.5630657196044,35.6204449638439L898.6041990280152,33.46158764693306L921.6453323364258,28.604283820523865L944.6864656448364,27.524855162068402L967.727598953247,36.6997484856591L990.7687322616578,28.604283820523865L1013.8098655700683,34.00130197616075L1036.850998878479,32.92187331770533L1059.8921321868897,33.46158764693306L1082.9332654953002,35.6204449638439L1105.974398803711,33.46158764693306L1129.0155321121215,37.239462814886835L1152.0566654205322,30.763016000794487L1175.0977987289427,30.763016000794487L1198.1389320373535,41.557177448708515L1221.1800653457642,38.318891473342255L1244.221198654175,31.842444659249907" fill="none"></path></g></g></g></g></g></g><g transform="translate(51, 377)" clip-path="url(#clip_1)"><clipPath id="clip_1"><rect width="1382" height="22"></rect></clipPath><g><g><line x1="0" y1="0" x2="0" y2="5" style="visibility: inherit;" fill="rgb(0, 0, 0)" stroke="rgb(204, 204, 204)" stroke-width="1px"></line><line x1="115.20566654205322" y1="0" x2="115.20566654205322" y2="5" style="visibility: inherit;" fill="rgb(0, 0, 0)" stroke="rgb(204, 204, 204)" stroke-width="1px"></line><line x1="230.41133308410645" y1="0" x2="230.41133308410645" y2="5" style="visibility: inherit;" fill="rgb(0, 0, 0)" stroke="rgb(204, 204, 204)" stroke-width="1px"></line><line x1="345.61699962615967" y1="0" x2="345.61699962615967" y2="5" style="visibility: inherit;" fill="rgb(0, 0, 0)" stroke="rgb(204, 204, 204)" stroke-width="1px"></line><line x1="460.8226661682129" y1="0" x2="460.8226661682129" y2="5" style="visibility: inherit;" fill="rgb(0, 0, 0)" stroke="rgb(204, 204, 204)" stroke-width="1px"></line><line x1="576.0283327102661" y1="0" x2="576.0283327102661" y2="5" style="visibility: inherit;" fill="rgb(0, 0, 0)" stroke="rgb(204, 204, 204)" stroke-width="1px"></line><line x1="691.2339992523193" y1="0" x2="691.2339992523193" y2="5" style="visibility: inherit;" fill="rgb(0, 0, 0)" stroke="rgb(204, 204, 204)" stroke-width="1px"></line><line x1="806.4396657943726" y1="0" x2="806.4396657943726" y2="5" style="visibility: inherit;" fill="rgb(0, 0, 0)" stroke="rgb(204, 204, 204)" stroke-width="1px"></line><line x1="921.6453323364258" y1="0" x2="921.6453323364258" y2="5" style="visibility: inherit;" fill="rgb(0, 0, 0)" stroke="rgb(204, 204, 204)" stroke-width="1px"></line><line x1="1036.850998878479" y1="0" x2="1036.850998878479" y2="5" style="visibility: inherit;" fill="rgb(0, 0, 0)" stroke="rgb(204, 204, 204)" stroke-width="1px"></line><line x1="1152.0566654205322" y1="0" x2="1152.0566654205322" y2="5" style="visibility: inherit;" fill="rgb(0, 0, 0)" stroke="rgb(204, 204, 204)" stroke-width="1px"></line><line x1="1267.2623319625854" y1="0" x2="1267.2623319625854" y2="5" style="visibility: inherit;" fill="rgb(0, 0, 0)" stroke="rgb(204, 204, 204)" stroke-width="1px"></line><line x1="1382.4679985046387" y1="0" x2="1382.4679985046387" y2="5" style="visibility: inherit;" fill="rgb(0, 0, 0)" stroke="rgb(204, 204, 204)" stroke-width="1px"></line></g><g transform="translate(0, 8)"><text style="text-anchor: middle; visibility: hidden; font-family: Roboto, sans-serif; font-size: 12px; font-weight: 200;" x="0" y="0" dx="0em" dy="0.95em" fill="rgb(50, 49, 63)" stroke="none" stroke-width="1px">-5</text><text style="text-anchor: middle; visibility: inherit; font-family: Roboto, sans-serif; font-size: 12px; font-weight: 200;" x="115.20566654205322" y="0" dx="0em" dy="0.95em" fill="rgb(50, 49, 63)" stroke="none" stroke-width="1px">0</text><text style="text-anchor: middle; visibility: inherit; font-family: Roboto, sans-serif; font-size: 12px; font-weight: 200;" x="230.41133308410645" y="0" dx="0em" dy="0.95em" fill="rgb(50, 49, 63)" stroke="none" stroke-width="1px">5</text><text style="text-anchor: middle; visibility: inherit; font-family: Roboto, sans-serif; font-size: 12px; font-weight: 200;" x="345.61699962615967" y="0" dx="0em" dy="0.95em" fill="rgb(50, 49, 63)" stroke="none" stroke-width="1px">10</text><text style="text-anchor: middle; visibility: inherit; font-family: Roboto, sans-serif; font-size: 12px; font-weight: 200;" x="460.8226661682129" y="0" dx="0em" dy="0.95em" fill="rgb(50, 49, 63)" stroke="none" stroke-width="1px">15</text><text style="text-anchor: middle; visibility: inherit; font-family: Roboto, sans-serif; font-size: 12px; font-weight: 200;" x="576.0283327102661" y="0" dx="0em" dy="0.95em" fill="rgb(50, 49, 63)" stroke="none" stroke-width="1px">20</text><text style="text-anchor: middle; visibility: inherit; font-family: Roboto, sans-serif; font-size: 12px; font-weight: 200;" x="691.2339992523193" y="0" dx="0em" dy="0.95em" fill="rgb(50, 49, 63)" stroke="none" stroke-width="1px">25</text><text style="text-anchor: middle; visibility: inherit; font-family: Roboto, sans-serif; font-size: 12px; font-weight: 200;" x="806.4396657943726" y="0" dx="0em" dy="0.95em" fill="rgb(50, 49, 63)" stroke="none" stroke-width="1px">30</text><text style="text-anchor: middle; visibility: inherit; font-family: Roboto, sans-serif; font-size: 12px; font-weight: 200;" x="921.6453323364258" y="0" dx="0em" dy="0.95em" fill="rgb(50, 49, 63)" stroke="none" stroke-width="1px">35</text><text style="text-anchor: middle; visibility: inherit; font-family: Roboto, sans-serif; font-size: 12px; font-weight: 200;" x="1036.850998878479" y="0" dx="0em" dy="0.95em" fill="rgb(50, 49, 63)" stroke="none" stroke-width="1px">40</text><text style="text-anchor: middle; visibility: inherit; font-family: Roboto, sans-serif; font-size: 12px; font-weight: 200;" x="1152.0566654205322" y="0" dx="0em" dy="0.95em" fill="rgb(50, 49, 63)" stroke="none" stroke-width="1px">45</text><text style="text-anchor: middle; visibility: inherit; font-family: Roboto, sans-serif; font-size: 12px; font-weight: 200;" x="1267.2623319625854" y="0" dx="0em" dy="0.95em" fill="rgb(50, 49, 63)" stroke="none" stroke-width="1px">50</text><text style="text-anchor: middle; visibility: hidden; font-family: Roboto, sans-serif; font-size: 12px; font-weight: 200;" x="1382.4679985046387" y="0" dx="0em" dy="0.95em" fill="rgb(50, 49, 63)" stroke="none" stroke-width="1px">55</text></g><line x1="0" y1="0" x2="1382.4679985046387" y2="0" fill="rgb(0, 0, 0)" stroke="rgb(204, 204, 204)" stroke-width="1px"></line></g></g></g></g></svg>