<svg viewBox="0 0 1434 400" xmlns="http://www.w3.org/2000/svg"><g><g><g><g><g><line x1="51.53200149536133" y1="377.8999996185303" x2="46.53200149536133" y2="377.8999996185303" style="visibility: inherit;" fill="rgb(0, 0, 0)" stroke="rgb(204, 204, 204)" stroke-width="1px"></line><line x1="51.53200149536133" y1="350.9071425029209" x2="46.53200149536133" y2="350.9071425029209" style="visibility: inherit;" fill="rgb(0, 0, 0)" stroke="rgb(204, 204, 204)" stroke-width="1px"></line><line x1="51.53200149536133" y1="323.9142853873116" x2="46.53200149536133" y2="323.9142853873116" style="visibility: inherit;" fill="rgb(0, 0, 0)" stroke="rgb(204, 204, 204)" stroke-width="1px"></line><line x1="51.53200149536133" y1="296.9214282717024" x2="46.53200149536133" y2="296.9214282717024" style="visibility: inherit;" fill="rgb(0, 0, 0)" stroke="rgb(204, 204, 204)" stroke-width="1px"></line><line x1="51.53200149536133" y1="269.928571156093" x2="46.53200149536133" y2="269.928571156093" style="visibility: inherit;" fill="rgb(0, 0, 0)" stroke="rgb(204, 204, 204)" stroke-width="1px"></line><line x1="51.53200149536133" y1="242.93571404048373" x2="46.53200149536133" y2="242.93571404048373" style="visibility: inherit;" fill="rgb(0, 0, 0)" stroke="rgb(204, 204, 204)" stroke-width="1px"></line><line x1="51.53200149536133" y1="215.94285692487446" x2="46.53200149536133" y2="215.94285692487446" style="visibility: inherit;" fill="rgb(0, 0, 0)" stroke="rgb(204, 204, 204)" stroke-width="1px"></line><line x1="51.53200149536133" y1="188.94999980926514" x2="46.53200149536133" y2="188.94999980926514" style="visibility: inherit;" fill="rgb(0, 0, 0)" stroke="rgb(204, 204, 204)" stroke-width="1px"></line><line x1="51.53200149536133" y1="161.9571426936558" x2="46.53200149536133" y2="161.9571426936558" style="visibility: inherit;" fill="rgb(0, 0, 0)" stroke="rgb(204, 204, 204)" stroke-width="1px"></line><line x1="51.53200149536133" y1="134.96428557804654" x2="46.53200149536133" y2="134.96428557804654" style="visibility: inherit;" fill="rgb(0, 0, 0)" stroke="rgb(204, 204, 204)" stroke-width="1px"></line><line x1="51.53200149536133" y1="107.97142846243722" x2="46.53200149536133" y2="107.97142846243722" style="visibility: inherit;" fill="rgb(0, 0, 0)" stroke="rgb(204, 204, 204)" stroke-width="1px"></line><line x1="51.53200149536133" y1="80.97857134682792" x2="46.53200149536133" y2="80.97857134682792" style="visibility: inherit;" fill="rgb(0, 0, 0)" stroke="rgb(204, 204, 204)" stroke-width="1px"></line><line x1="51.53200149536133" y1="53.98571423121867" x2="46.53200149536133" y2="53.98571423121867" style="visibility: inherit;" fill="rgb(0, 0, 0)" stroke="rgb(204, 204, 204)" stroke-width="1px"></line><line x1="51.53200149536133" y1="26.992857115609336" x2="46.53200149536133" y2="26.992857115609336" style="visibility: inherit;" fill="rgb(0, 0, 0)" stroke="rgb(204, 204, 204)" stroke-width="1px"></line><line x1="51.53200149536133" y1="0" x2="46.53200149536133" y2="0" style="visibility: inherit;" fill="rgb(0, 0, 0)" stroke="rgb(204, 204, 204)" stroke-width="1px"></line></g><g transform="translate(41.53200149536133, 0)"><text style="text-anchor: end; visibility: hidden; font-family: Roboto, sans-serif; font-size: 12px; font-weight: 200;" x="0" y="377.8999996185303" dx="0em" dy="0.3em" fill="rgb(50, 49, 63)" stroke="none" stroke-width="1px">0.18</text><text style="text-anchor: end; visibility: inherit; font-family: Roboto, sans-serif; font-size: 12px; font-weight: 200;" x="0" y="350.9071425029209" dx="0em" dy="0.3em" fill="rgb(50, 49, 63)" stroke="none" stroke-width="1px">0.2</text><text style="text-anchor: end; visibility: inherit; font-family: Roboto, sans-serif; font-size: 12px; font-weight: 200;" x="0" y="323.9142853873116" dx="0em" dy="0.3em" fill="rgb(50, 49, 63)" stroke="none" stroke-width="1px">0.22</text><text style="text-anchor: end; visibility: inherit; font-family: Roboto, sans-serif; font-size: 12px; font-weight: 200;" x="0" y="296.9214282717024" dx="0em" dy="0.3em" fill="rgb(50, 49, 63)" stroke="none" stroke-width="1px">0.24</text><text style="text-anchor: end; visibility: inherit; font-family: Roboto, sans-serif; font-size: 12px; font-weight: 200;" x="0" y="269.928571156093" dx="0em" dy="0.3em" fill="rgb(50, 49, 63)" stroke="none" stroke-width="1px">0.26</text><text style="text-anchor: end; visibility: inherit; font-family: Roboto, sans-serif; font-size: 12px; font-weight: 200;" x="0" y="242.93571404048373" dx="0em" dy="0.3em" fill="rgb(50, 49, 63)" stroke="none" stroke-width="1px">0.28</text><text style="text-anchor: end; visibility: inherit; font-family: Roboto, sans-serif; font-size: 12px; font-weight: 200;" x="0" y="215.94285692487446" dx="0em" dy="0.3em" fill="rgb(50, 49, 63)" stroke="none" stroke-width="1px">0.3</text><text style="text-anchor: end; visibility: inherit; font-family: Roboto, sans-serif; font-size: 12px; font-weight: 200;" x="0" y="188.94999980926514" dx="0em" dy="0.3em" fill="rgb(50, 49, 63)" stroke="none" stroke-width="1px">0.32</text><text style="text-anchor: end; visibility: inherit; font-family: Roboto, sans-serif; font-size: 12px; font-weight: 200;" x="0" y="161.9571426936558" dx="0em" dy="0.3em" fill="rgb(50, 49, 63)" stroke="none" stroke-width="1px">0.34</text><text style="text-anchor: end; visibility: inherit; font-family: Roboto, sans-serif; font-size: 12px; font-weight: 200;" x="0" y="134.96428557804654" dx="0em" dy="0.3em" fill="rgb(50, 49, 63)" stroke="none" stroke-width="1px">0.36</text><text style="text-anchor: end; visibility: inherit; font-family: Roboto, sans-serif; font-size: 12px; font-weight: 200;" x="0" y="107.97142846243722" dx="0em" dy="0.3em" fill="rgb(50, 49, 63)" stroke="none" stroke-width="1px">0.38</text><text style="text-anchor: end; visibility: inherit; font-family: Roboto, sans-serif; font-size: 12px; font-weight: 200;" x="0" y="80.97857134682792" dx="0em" dy="0.3em" fill="rgb(50, 49, 63)" stroke="none" stroke-width="1px">0.4</text><text style="text-anchor: end; visibility: inherit; font-family: Roboto, sans-serif; font-size: 12px; font-weight: 200;" x="0" y="53.98571423121867" dx="0em" dy="0.3em" fill="rgb(50, 49, 63)" stroke="none" stroke-width="1px">0.42</text><text style="text-anchor: end; visibility: inherit; font-family: Roboto, sans-serif; font-size: 12px; font-weight: 200;" x="0" y="26.992857115609336" dx="0em" dy="0.3em" fill="rgb(50, 49, 63)" stroke="none" stroke-width="1px">0.44</text><text style="text-anchor: end; visibility: hidden; font-family: Roboto, sans-serif; font-size: 12px; font-weight: 200;" x="0" y="0" dx="0em" dy="0.3em" fill="rgb(50, 49, 63)" stroke="none" stroke-width="1px">0.46</text></g><line x1="51.53200149536133" y1="0" x2="51.53200149536133" y2="377.8999996185303" fill="rgb(0, 0, 0)" stroke="rgb(204, 204, 204)" stroke-width="1px"></line></g></g><g transform="translate(51, 0)" clip-path="url(#clip_0)"><clipPath id="clip_0"><rect width="1382" height="377"></rect></clipPath><g><g><g><line x1="0" y1="0" x2="0" y2="377.8999996185303" fill="rgb(0, 0, 0)" stroke="rgb(60, 60, 60)" stroke-width="1px" opacity="0.25"></line><line x1="115.20566654205322" y1="0" x2="115.20566654205322" y2="377.8999996185303" fill="rgb(0, 0, 0)" stroke="rgb(60, 60, 60)" stroke-width="1px" opacity="0.25"></line><line x1="230.41133308410645" y1="0" x2="230.41133308410645" y2="377.8999996185303" fill="rgb(0, 0, 0)" stroke="rgb(60, 60, 60)" stroke-width="1px" opacity="0.25"></line><line x1="345.61699962615967" y1="0" x2="345.61699962615967" y2="377.8999996185303" fill="rgb(0, 0, 0)" stroke="rgb(60, 60, 60)" stroke-width="1px" opacity="0.25"></line><line x1="460.8226661682129" y1="0" x2="460.8226661682129" y2="377.8999996185303" fill="rgb(0, 0, 0)" stroke="rgb(60, 60, 60)" stroke-width="1px" opacity="0.25"></line><line x1="576.0283327102661" y1="0" x2="576.0283327102661" y2="377.8999996185303" fill="rgb(0, 0, 0)" stroke="rgb(60, 60, 60)" stroke-width="1px" opacity="0.25"></line><line x1="691.2339992523193" y1="0" x2="691.2339992523193" y2="377.8999996185303" fill="rgb(0, 0, 0)" stroke="rgb(60, 60, 60)" stroke-width="1px" opacity="0.25"></line><line x1="806.4396657943726" y1="0" x2="806.4396657943726" y2="377.8999996185303" fill="rgb(0, 0, 0)" stroke="rgb(60, 60, 60)" stroke-width="1px" opacity="0.25"></line><line x1="921.6453323364258" y1="0" x2="921.6453323364258" y2="377.8999996185303" fill="rgb(0, 0, 0)" stroke="rgb(60, 60, 60)" stroke-width="1px" opacity="0.25"></line><line x1="1036.850998878479" y1="0" x2="1036.850998878479" y2="377.8999996185303" fill="rgb(0, 0, 0)" stroke="rgb(60, 60, 60)" stroke-width="1px" opacity="0.25"></line><line x1="1152.0566654205322" y1="0" x2="1152.0566654205322" y2="377.8999996185303" fill="rgb(0, 0, 0)" stroke="rgb(60, 60, 60)" stroke-width="1px" opacity="0.25"></line><line x1="1267.2623319625854" y1="0" x2="1267.2623319625854" y2="377.8999996185303" fill="rgb(0, 0, 0)" stroke="rgb(60, 60, 60)" stroke-width="1px" opacity="0.25"></line><line x1="1382.4679985046387" y1="0" x2="1382.4679985046387" y2="377.8999996185303" fill="rgb(0, 0, 0)" stroke="rgb(60, 60, 60)" stroke-width="1px" opacity="0.25"></line></g><g><line x1="0" y1="377.8999996185303" x2="1382.4679985046387" y2="377.8999996185303" fill="rgb(0, 0, 0)" stroke="rgb(60, 60, 60)" stroke-width="1px" opacity="0.25"></line><line x1="0" y1="350.9071425029209" x2="1382.4679985046387" y2="350.9071425029209" fill="rgb(0, 0, 0)" stroke="rgb(60, 60, 60)" stroke-width="1px" opacity="0.25"></line><line x1="0" y1="323.9142853873116" x2="1382.4679985046387" y2="323.9142853873116" fill="rgb(0, 0, 0)" stroke="rgb(60, 60, 60)" stroke-width="1px" opacity="0.25"></line><line x1="0" y1="296.9214282717024" x2="1382.4679985046387" y2="296.9214282717024" fill="rgb(0, 0, 0)" stroke="rgb(60, 60, 60)" stroke-width="1px" opacity="0.25"></line><line x1="0" y1="269.928571156093" x2="1382.4679985046387" y2="269.928571156093" fill="rgb(0, 0, 0)" stroke="rgb(60, 60, 60)" stroke-width="1px" opacity="0.25"></line><line x1="0" y1="242.93571404048373" x2="1382.4679985046387" y2="242.93571404048373" fill="rgb(0, 0, 0)" stroke="rgb(60, 60, 60)" stroke-width="1px" opacity="0.25"></line><line x1="0" y1="215.94285692487446" x2="1382.4679985046387" y2="215.94285692487446" fill="rgb(0, 0, 0)" stroke="rgb(60, 60, 60)" stroke-width="1px" opacity="0.25"></line><line x1="0" y1="188.94999980926514" x2="1382.4679985046387" y2="188.94999980926514" fill="rgb(0, 0, 0)" stroke="rgb(60, 60, 60)" stroke-width="1px" opacity="0.25"></line><line x1="0" y1="161.9571426936558" x2="1382.4679985046387" y2="161.9571426936558" fill="rgb(0, 0, 0)" stroke="rgb(60, 60, 60)" stroke-width="1px" opacity="0.25"></line><line x1="0" y1="134.96428557804654" x2="1382.4679985046387" y2="134.96428557804654" fill="rgb(0, 0, 0)" stroke="rgb(60, 60, 60)" stroke-width="1px" opacity="0.25"></line><line x1="0" y1="107.97142846243722" x2="1382.4679985046387" y2="107.97142846243722" fill="rgb(0, 0, 0)" stroke="rgb(60, 60, 60)" stroke-width="1px" opacity="0.25"></line><line x1="0" y1="80.97857134682792" x2="1382.4679985046387" y2="80.97857134682792" fill="rgb(0, 0, 0)" stroke="rgb(60, 60, 60)" stroke-width="1px" opacity="0.25"></line><line x1="0" y1="53.98571423121867" x2="1382.4679985046387" y2="53.98571423121867" fill="rgb(0, 0, 0)" stroke="rgb(60, 60, 60)" stroke-width="1px" opacity="0.25"></line><line x1="0" y1="26.992857115609336" x2="1382.4679985046387" y2="26.992857115609336" fill="rgb(0, 0, 0)" stroke="rgb(60, 60, 60)" stroke-width="1px" opacity="0.25"></line><line x1="0" y1="0" x2="1382.4679985046387" y2="0" fill="rgb(0, 0, 0)" stroke="rgb(60, 60, 60)" stroke-width="1px" opacity="0.25"></line></g></g></g><g><g><line x1="0" y1="620.835713659014" x2="1382.4679985046387" y2="620.835713659014" fill="rgb(0, 0, 0)" stroke="rgb(153, 153, 153)" stroke-width="1.5px"></line></g></g><g><g><line x1="115.20566654205322" y1="0" x2="115.20566654205322" y2="377.8999996185303" fill="rgb(0, 0, 0)" stroke="rgb(153, 153, 153)" stroke-width="1.5px"></line></g></g><g><g><g><g><g><path style="fill: none;" stroke="rgb(255, 112, 67)" stroke-width="2px" d="M115.20566654205322,74.02429563509084L138.24679985046387,151.45894691896916L161.28793315887452,205.20741763304545L184.32906646728514,221.73109869713278L207.3701997756958,244.54018761736828L230.41133308410645,242.2523725235548L253.45246639251707,259.5932137248793L276.49359970092775,263.9130690890818L299.53473300933837,271.9302563165997L322.57586631774905,272.3120482058818L345.61699962615967,278.671545891366L368.6581329345703,279.43714079450507L391.69926624298097,267.2918790422387L414.7403995513916,274.30595755433234L437.7815328598022,272.41381110936726L460.8226661682129,281.86275814418457L483.8637994766235,275.9416856160091L506.90493278503413,269.358068207908L529.9460660934449,267.79856176761655L552.9871994018555,279.48303465730226L576.0283327102661,270.613090387573L599.0694660186767,280.53827172170554L622.1105993270875,264.27390506029434L645.1517326354981,278.12874336862455L668.1928659439087,272.7464913365325L691.2339992523193,273.07076506297494L714.2751325607301,273.96281947937814L737.3162658691406,271.049423975324L760.3573991775513,274.8662166383832L783.3985324859619,275.11362518357646L806.4396657943726,280.49804923020935L829.4807991027832,272.04420663500844L852.5219324111939,282.56464062079357L875.5630657196044,270.8172597544078L898.6041990280152,295.3306560843211L921.6453323364258,281.2277656709337L944.6864656448364,277.46245779698967L967.727598953247,280.2568349487065L990.7687322616578,270.9403405783862L1013.8098655700683,263.979395977559L1036.850998878479,267.846828757412L1059.8921321868897,267.0760049303785L1082.9332654953002,276.14126961881334L1105.974398803711,277.64040209936894L1129.0155321121215,273.05411295149554L1152.0566654205322,283.4301280815635L1175.0977987289427,276.64936013139356L1198.1389320373535,264.94441399353633L1221.1800653457642,260.8567228502501L1244.221198654175,277.5726674236893" fill="none"></path></g><g><path style="fill: none;" stroke="rgb(204, 51, 17)" stroke-width="2px" d="M115.20566654205322,94.68039525300819L138.24679985046387,178.7530849759821L161.28793315887452,220.55072946168474L184.32906646728514,236.44814633317588L207.3701997756958,252.2462538731629L230.41133308410645,249.59189121434443L253.45246639251707,255.27279524579592L276.49359970092775,268.19016794482377L299.53473300933837,274.4609348140673L322.57586631774905,273.9373988647525L345.61699962615967,280.51144331987757L368.6581329345703,278.9279642746544L391.69926624298097,272.81993760600454L414.7403995513916,291.80428992111035L437.7815328598022,272.10373592242286L460.8226661682129,281.79389723874306L483.8637994766235,285.28366093469225L506.90493278503413,286.0434839103016L529.9460660934449,286.3763652499243L552.9871994018555,272.884575149839L576.0283327102661,284.47422351582236L599.0694660186767,275.05164232418076L622.1105993270875,274.85483367328976L645.1517326354981,286.63461375657573L668.1928659439087,286.5397288991362L691.2339992523193,287.92684174087475L714.2751325607301,279.3508233277542L737.3162658691406,277.0868199489065L760.3573991775513,281.6150278190593L783.3985324859619,284.49131807470826L806.4396657943726,279.2079932604511L829.4807991027832,283.0136040708744L852.5219324111939,274.87627226125727L875.5630657196044,274.2923623522067L898.6041990280152,277.08734284129594L921.6453323364258,284.79938213707777L944.6864656448364,284.7869131647139L967.727598953247,267.8706404723778L990.7687322616578,275.7098833975164L1013.8098655700683,274.4245334592632L1036.850998878479,281.0166780355616L1059.8921321868897,285.93494351699906L1082.9332654953002,284.14365496946067L1105.974398803711,274.69386326232194L1129.0155321121215,290.05026751194316L1152.0566654205322,284.2683044706074L1175.0977987289427,270.8525751019415L1198.1389320373535,286.7580968054691L1221.1800653457642,277.96648583792876L1244.221198654175,281.69060588058073" fill="none"></path></g><g><path style="fill: none;" stroke="rgb(238, 51, 119)" stroke-width="2px" d="M115.20566654205322,81.72835076631067L138.24679985046387,172.21073584415606L161.28793315887452,188.2426165047191L184.32906646728514,235.8057126989983L207.3701997756958,242.82598547478239L230.41133308410645,239.83910347876466L253.45246639251707,263.81154752054533L276.49359970092775,267.48989436787457L299.53473300933837,270.8813341833613L322.57586631774905,282.09327324294935L345.61699962615967,269.0491192507255L368.6581329345703,275.4217294684375L391.69926624298097,272.182049113366L414.7403995513916,273.6733382080798L437.7815328598022,265.9839642862561L460.8226661682129,281.8142900419316L483.8637994766235,284.7450013285749L506.90493278503413,268.5000017968191L529.9460660934449,269.9671171741437L552.9871994018555,271.26256295776244L576.0283327102661,271.0141890727733L599.0694660186767,272.38658048262425L622.1105993270875,284.11706790258165L645.1517326354981,275.0802002931431L668.1928659439087,275.3671877699686L691.2339992523193,269.97829902677967L714.2751325607301,284.52118327464416L737.3162658691406,274.8235003524142L760.3573991775513,270.11219970097056L783.3985324859619,276.37898454355604L806.4396657943726,273.0578938656962L829.4807991027832,268.6937937608479L852.5219324111939,265.62224342023063L875.5630657196044,273.80707799230476L898.6041990280152,267.85527548062623L921.6453323364258,270.9757363709029L944.6864656448364,290.28029994081004L967.727598953247,259.86600266220665L990.7687322616578,281.04141486783175L1013.8098655700683,271.0388454600605L1036.850998878479,283.92365805222204L1059.8921321868897,271.58816402642435L1082.9332654953002,273.5013066119505L1105.974398803711,271.8222991494238L1129.0155321121215,278.90604301678894L1152.0566654205322,278.4223273340554L1175.0977987289427,272.7421070849594L1198.1389320373535,282.4183111967303L1221.1800653457642,285.439844869172L1244.221198654175,273.1602198840626" fill="none"></path></g><g><path style="fill: none;" stroke="rgb(0, 119, 187)" stroke-width="2px" d="M115.20566654205322,126.2250853213756L138.24679985046387,220.19914466351628L161.28793315887452,266.3148747237955L184.32906646728514,279.1544169017781L207.3701997756958,293.0796244589809L230.41133308410645,303.2108455058029L253.45246639251707,302.8312658535531L276.49359970092775,304.1606594199946L299.53473300933837,307.4788741897124L322.57586631774905,312.70166415426775L345.61699962615967,305.98925432839576L368.6581329345703,312.15934430142426L391.69926624298097,314.7084648112429L414.7403995513916,310.31862231183703L437.7815328598022,314.0322643954542L460.8226661682129,310.6440826017787L483.8637994766235,315.85752083706114L506.90493278503413,314.46105626604964L529.9460660934449,317.12682200120736L552.9871994018555,317.87890214720363L576.0283327102661,309.7018104047425L599.0694660186767,309.55521953448454L622.1105993270875,313.4226322030917L645.1517326354981,311.45474680663926L668.1928659439087,313.7290270320642L691.2339992523193,313.5822551605945L714.2751325607301,310.63613865970814L737.3162658691406,319.04635996288135L760.3573991775513,308.3362970409373L783.3985324859619,314.72650459867896L806.4396657943726,312.13070588747894L829.4807991027832,316.29558399194644L852.5219324111939,311.0903913674207L875.5630657196044,305.9355170797568L898.6041990280152,314.3031628756812L921.6453323364258,310.2430442503156L944.6864656448364,310.28459408403126L967.727598953247,314.9235143620274L990.7687322616578,316.6472291238522L1013.8098655700683,312.9849913843671L1036.850998878479,312.6727039603905L1059.8921321868897,312.97740944472014L1082.9332654953002,310.9180178801137L1105.974398803711,312.94151087105973L1129.0155321121215,307.9169373445978L1152.0566654205322,311.8986020003L1175.0977987289427,315.47637250764296L1198.1389320373535,313.08015779924716L1221.1800653457642,312.0913079570584L1244.221198654175,309.794704248853" fill="none"></path></g></g></g></g></g><g><g><span fill="rgb(0, 0, 0)" stroke="none" stroke-width="1px">Alt + Scroll to Zoom</span></g></g></g><g transform="translate(51, 377)" clip-path="url(#clip_1)"><clipPath id="clip_1"><rect width="1382" height="22"></rect></clipPath><g><g><line x1="0" y1="0" x2="0" y2="5" style="visibility: inherit;" fill="rgb(0, 0, 0)" stroke="rgb(204, 204, 204)" stroke-width="1px"></line><line x1="115.20566654205322" y1="0" x2="115.20566654205322" y2="5" style="visibility: inherit;" fill="rgb(0, 0, 0)" stroke="rgb(204, 204, 204)" stroke-width="1px"></line><line x1="230.41133308410645" y1="0" x2="230.41133308410645" y2="5" style="visibility: inherit;" fill="rgb(0, 0, 0)" stroke="rgb(204, 204, 204)" stroke-width="1px"></line><line x1="345.61699962615967" y1="0" x2="345.61699962615967" y2="5" style="visibility: inherit;" fill="rgb(0, 0, 0)" stroke="rgb(204, 204, 204)" stroke-width="1px"></line><line x1="460.8226661682129" y1="0" x2="460.8226661682129" y2="5" style="visibility: inherit;" fill="rgb(0, 0, 0)" stroke="rgb(204, 204, 204)" stroke-width="1px"></line><line x1="576.0283327102661" y1="0" x2="576.0283327102661" y2="5" style="visibility: inherit;" fill="rgb(0, 0, 0)" stroke="rgb(204, 204, 204)" stroke-width="1px"></line><line x1="691.2339992523193" y1="0" x2="691.2339992523193" y2="5" style="visibility: inherit;" fill="rgb(0, 0, 0)" stroke="rgb(204, 204, 204)" stroke-width="1px"></line><line x1="806.4396657943726" y1="0" x2="806.4396657943726" y2="5" style="visibility: inherit;" fill="rgb(0, 0, 0)" stroke="rgb(204, 204, 204)" stroke-width="1px"></line><line x1="921.6453323364258" y1="0" x2="921.6453323364258" y2="5" style="visibility: inherit;" fill="rgb(0, 0, 0)" stroke="rgb(204, 204, 204)" stroke-width="1px"></line><line x1="1036.850998878479" y1="0" x2="1036.850998878479" y2="5" style="visibility: inherit;" fill="rgb(0, 0, 0)" stroke="rgb(204, 204, 204)" stroke-width="1px"></line><line x1="1152.0566654205322" y1="0" x2="1152.0566654205322" y2="5" style="visibility: inherit;" fill="rgb(0, 0, 0)" stroke="rgb(204, 204, 204)" stroke-width="1px"></line><line x1="1267.2623319625854" y1="0" x2="1267.2623319625854" y2="5" style="visibility: inherit;" fill="rgb(0, 0, 0)" stroke="rgb(204, 204, 204)" stroke-width="1px"></line><line x1="1382.4679985046387" y1="0" x2="1382.4679985046387" y2="5" style="visibility: inherit;" fill="rgb(0, 0, 0)" stroke="rgb(204, 204, 204)" stroke-width="1px"></line></g><g transform="translate(0, 8)"><text style="text-anchor: middle; visibility: hidden; font-family: Roboto, sans-serif; font-size: 12px; font-weight: 200;" x="0" y="0" dx="0em" dy="0.95em" fill="rgb(50, 49, 63)" stroke="none" stroke-width="1px">-5</text><text style="text-anchor: middle; visibility: inherit; font-family: Roboto, sans-serif; font-size: 12px; font-weight: 200;" x="115.20566654205322" y="0" dx="0em" dy="0.95em" fill="rgb(50, 49, 63)" stroke="none" stroke-width="1px">0</text><text style="text-anchor: middle; visibility: inherit; font-family: Roboto, sans-serif; font-size: 12px; font-weight: 200;" x="230.41133308410645" y="0" dx="0em" dy="0.95em" fill="rgb(50, 49, 63)" stroke="none" stroke-width="1px">5</text><text style="text-anchor: middle; visibility: inherit; font-family: Roboto, sans-serif; font-size: 12px; font-weight: 200;" x="345.61699962615967" y="0" dx="0em" dy="0.95em" fill="rgb(50, 49, 63)" stroke="none" stroke-width="1px">10</text><text style="text-anchor: middle; visibility: inherit; font-family: Roboto, sans-serif; font-size: 12px; font-weight: 200;" x="460.8226661682129" y="0" dx="0em" dy="0.95em" fill="rgb(50, 49, 63)" stroke="none" stroke-width="1px">15</text><text style="text-anchor: middle; visibility: inherit; font-family: Roboto, sans-serif; font-size: 12px; font-weight: 200;" x="576.0283327102661" y="0" dx="0em" dy="0.95em" fill="rgb(50, 49, 63)" stroke="none" stroke-width="1px">20</text><text style="text-anchor: middle; visibility: inherit; font-family: Roboto, sans-serif; font-size: 12px; font-weight: 200;" x="691.2339992523193" y="0" dx="0em" dy="0.95em" fill="rgb(50, 49, 63)" stroke="none" stroke-width="1px">25</text><text style="text-anchor: middle; visibility: inherit; font-family: Roboto, sans-serif; font-size: 12px; font-weight: 200;" x="806.4396657943726" y="0" dx="0em" dy="0.95em" fill="rgb(50, 49, 63)" stroke="none" stroke-width="1px">30</text><text style="text-anchor: middle; visibility: inherit; font-family: Roboto, sans-serif; font-size: 12px; font-weight: 200;" x="921.6453323364258" y="0" dx="0em" dy="0.95em" fill="rgb(50, 49, 63)" stroke="none" stroke-width="1px">35</text><text style="text-anchor: middle; visibility: inherit; font-family: Roboto, sans-serif; font-size: 12px; font-weight: 200;" x="1036.850998878479" y="0" dx="0em" dy="0.95em" fill="rgb(50, 49, 63)" stroke="none" stroke-width="1px">40</text><text style="text-anchor: middle; visibility: inherit; font-family: Roboto, sans-serif; font-size: 12px; font-weight: 200;" x="1152.0566654205322" y="0" dx="0em" dy="0.95em" fill="rgb(50, 49, 63)" stroke="none" stroke-width="1px">45</text><text style="text-anchor: middle; visibility: inherit; font-family: Roboto, sans-serif; font-size: 12px; font-weight: 200;" x="1267.2623319625854" y="0" dx="0em" dy="0.95em" fill="rgb(50, 49, 63)" stroke="none" stroke-width="1px">50</text><text style="text-anchor: middle; visibility: hidden; font-family: Roboto, sans-serif; font-size: 12px; font-weight: 200;" x="1382.4679985046387" y="0" dx="0em" dy="0.95em" fill="rgb(50, 49, 63)" stroke="none" stroke-width="1px">55</text></g><line x1="0" y1="0" x2="1382.4679985046387" y2="0" fill="rgb(0, 0, 0)" stroke="rgb(204, 204, 204)" stroke-width="1px"></line></g></g></g></g></svg>