<svg viewBox="0 0 1434 400" xmlns="http://www.w3.org/2000/svg"><g><g><g><g><g><line x1="51.41600036621094" y1="377.95999908447266" x2="46.41600036621094" y2="377.95999908447266" style="visibility: inherit;" fill="rgb(0, 0, 0)" stroke="rgb(204, 204, 204)" stroke-width="1px"></line><line x1="51.41600036621094" y1="330.7149991989135" x2="46.41600036621094" y2="330.7149991989135" style="visibility: inherit;" fill="rgb(0, 0, 0)" stroke="rgb(204, 204, 204)" stroke-width="1px"></line><line x1="51.41600036621094" y1="283.46999931335444" x2="46.41600036621094" y2="283.46999931335444" style="visibility: inherit;" fill="rgb(0, 0, 0)" stroke="rgb(204, 204, 204)" stroke-width="1px"></line><line x1="51.41600036621094" y1="236.22499942779558" x2="46.41600036621094" y2="236.22499942779558" style="visibility: inherit;" fill="rgb(0, 0, 0)" stroke="rgb(204, 204, 204)" stroke-width="1px"></line><line x1="51.41600036621094" y1="188.97999954223644" x2="46.41600036621094" y2="188.97999954223644" style="visibility: inherit;" fill="rgb(0, 0, 0)" stroke="rgb(204, 204, 204)" stroke-width="1px"></line><line x1="51.41600036621094" y1="141.73499965667733" x2="46.41600036621094" y2="141.73499965667733" style="visibility: inherit;" fill="rgb(0, 0, 0)" stroke="rgb(204, 204, 204)" stroke-width="1px"></line><line x1="51.41600036621094" y1="94.48999977111825" x2="46.41600036621094" y2="94.48999977111825" style="visibility: inherit;" fill="rgb(0, 0, 0)" stroke="rgb(204, 204, 204)" stroke-width="1px"></line><line x1="51.41600036621094" y1="47.244999885559125" x2="46.41600036621094" y2="47.244999885559125" style="visibility: inherit;" fill="rgb(0, 0, 0)" stroke="rgb(204, 204, 204)" stroke-width="1px"></line><line x1="51.41600036621094" y1="0" x2="46.41600036621094" y2="0" style="visibility: inherit;" fill="rgb(0, 0, 0)" stroke="rgb(204, 204, 204)" stroke-width="1px"></line></g><g transform="translate(41.41600036621094, 0)"><text style="text-anchor: end; visibility: hidden; font-family: Roboto, sans-serif; font-size: 12px; font-weight: 200;" x="0" y="377.95999908447266" dx="0em" dy="0.3em" fill="rgb(50, 49, 63)" stroke="none" stroke-width="1px">0.76</text><text style="text-anchor: end; visibility: inherit; font-family: Roboto, sans-serif; font-size: 12px; font-weight: 200;" x="0" y="330.7149991989135" dx="0em" dy="0.3em" fill="rgb(50, 49, 63)" stroke="none" stroke-width="1px">0.78</text><text style="text-anchor: end; visibility: inherit; font-family: Roboto, sans-serif; font-size: 12px; font-weight: 200;" x="0" y="283.46999931335444" dx="0em" dy="0.3em" fill="rgb(50, 49, 63)" stroke="none" stroke-width="1px">0.8</text><text style="text-anchor: end; visibility: inherit; font-family: Roboto, sans-serif; font-size: 12px; font-weight: 200;" x="0" y="236.22499942779558" dx="0em" dy="0.3em" fill="rgb(50, 49, 63)" stroke="none" stroke-width="1px">0.82</text><text style="text-anchor: end; visibility: inherit; font-family: Roboto, sans-serif; font-size: 12px; font-weight: 200;" x="0" y="188.97999954223644" dx="0em" dy="0.3em" fill="rgb(50, 49, 63)" stroke="none" stroke-width="1px">0.84</text><text style="text-anchor: end; visibility: inherit; font-family: Roboto, sans-serif; font-size: 12px; font-weight: 200;" x="0" y="141.73499965667733" dx="0em" dy="0.3em" fill="rgb(50, 49, 63)" stroke="none" stroke-width="1px">0.86</text><text style="text-anchor: end; visibility: inherit; font-family: Roboto, sans-serif; font-size: 12px; font-weight: 200;" x="0" y="94.48999977111825" dx="0em" dy="0.3em" fill="rgb(50, 49, 63)" stroke="none" stroke-width="1px">0.88</text><text style="text-anchor: end; visibility: inherit; font-family: Roboto, sans-serif; font-size: 12px; font-weight: 200;" x="0" y="47.244999885559125" dx="0em" dy="0.3em" fill="rgb(50, 49, 63)" stroke="none" stroke-width="1px">0.9</text><text style="text-anchor: end; visibility: hidden; font-family: Roboto, sans-serif; font-size: 12px; font-weight: 200;" x="0" y="0" dx="0em" dy="0.3em" fill="rgb(50, 49, 63)" stroke="none" stroke-width="1px">0.92</text></g><line x1="51.41600036621094" y1="0" x2="51.41600036621094" y2="377.95999908447266" fill="rgb(0, 0, 0)" stroke="rgb(204, 204, 204)" stroke-width="1px"></line></g></g><g transform="translate(51, 0)" clip-path="url(#clip_0)"><clipPath id="clip_0"><rect width="1382" height="377"></rect></clipPath><g><g><g><line x1="0" y1="0" x2="0" y2="377.95999908447266" fill="rgb(0, 0, 0)" stroke="rgb(60, 60, 60)" stroke-width="1px" opacity="0.25"></line><line x1="115.21533330281575" y1="0" x2="115.21533330281575" y2="377.95999908447266" fill="rgb(0, 0, 0)" stroke="rgb(60, 60, 60)" stroke-width="1px" opacity="0.25"></line><line x1="230.4306666056315" y1="0" x2="230.4306666056315" y2="377.95999908447266" fill="rgb(0, 0, 0)" stroke="rgb(60, 60, 60)" stroke-width="1px" opacity="0.25"></line><line x1="345.64599990844727" y1="0" x2="345.64599990844727" y2="377.95999908447266" fill="rgb(0, 0, 0)" stroke="rgb(60, 60, 60)" stroke-width="1px" opacity="0.25"></line><line x1="460.861333211263" y1="0" x2="460.861333211263" y2="377.95999908447266" fill="rgb(0, 0, 0)" stroke="rgb(60, 60, 60)" stroke-width="1px" opacity="0.25"></line><line x1="576.0766665140789" y1="0" x2="576.0766665140789" y2="377.95999908447266" fill="rgb(0, 0, 0)" stroke="rgb(60, 60, 60)" stroke-width="1px" opacity="0.25"></line><line x1="691.2919998168945" y1="0" x2="691.2919998168945" y2="377.95999908447266" fill="rgb(0, 0, 0)" stroke="rgb(60, 60, 60)" stroke-width="1px" opacity="0.25"></line><line x1="806.5073331197103" y1="0" x2="806.5073331197103" y2="377.95999908447266" fill="rgb(0, 0, 0)" stroke="rgb(60, 60, 60)" stroke-width="1px" opacity="0.25"></line><line x1="921.722666422526" y1="0" x2="921.722666422526" y2="377.95999908447266" fill="rgb(0, 0, 0)" stroke="rgb(60, 60, 60)" stroke-width="1px" opacity="0.25"></line><line x1="1036.9379997253418" y1="0" x2="1036.9379997253418" y2="377.95999908447266" fill="rgb(0, 0, 0)" stroke="rgb(60, 60, 60)" stroke-width="1px" opacity="0.25"></line><line x1="1152.1533330281577" y1="0" x2="1152.1533330281577" y2="377.95999908447266" fill="rgb(0, 0, 0)" stroke="rgb(60, 60, 60)" stroke-width="1px" opacity="0.25"></line><line x1="1267.3686663309732" y1="0" x2="1267.3686663309732" y2="377.95999908447266" fill="rgb(0, 0, 0)" stroke="rgb(60, 60, 60)" stroke-width="1px" opacity="0.25"></line><line x1="1382.583999633789" y1="0" x2="1382.583999633789" y2="377.95999908447266" fill="rgb(0, 0, 0)" stroke="rgb(60, 60, 60)" stroke-width="1px" opacity="0.25"></line></g><g><line x1="0" y1="377.95999908447266" x2="1382.583999633789" y2="377.95999908447266" fill="rgb(0, 0, 0)" stroke="rgb(60, 60, 60)" stroke-width="1px" opacity="0.25"></line><line x1="0" y1="330.7149991989135" x2="1382.583999633789" y2="330.7149991989135" fill="rgb(0, 0, 0)" stroke="rgb(60, 60, 60)" stroke-width="1px" opacity="0.25"></line><line x1="0" y1="283.46999931335444" x2="1382.583999633789" y2="283.46999931335444" fill="rgb(0, 0, 0)" stroke="rgb(60, 60, 60)" stroke-width="1px" opacity="0.25"></line><line x1="0" y1="236.22499942779558" x2="1382.583999633789" y2="236.22499942779558" fill="rgb(0, 0, 0)" stroke="rgb(60, 60, 60)" stroke-width="1px" opacity="0.25"></line><line x1="0" y1="188.97999954223644" x2="1382.583999633789" y2="188.97999954223644" fill="rgb(0, 0, 0)" stroke="rgb(60, 60, 60)" stroke-width="1px" opacity="0.25"></line><line x1="0" y1="141.73499965667733" x2="1382.583999633789" y2="141.73499965667733" fill="rgb(0, 0, 0)" stroke="rgb(60, 60, 60)" stroke-width="1px" opacity="0.25"></line><line x1="0" y1="94.48999977111825" x2="1382.583999633789" y2="94.48999977111825" fill="rgb(0, 0, 0)" stroke="rgb(60, 60, 60)" stroke-width="1px" opacity="0.25"></line><line x1="0" y1="47.244999885559125" x2="1382.583999633789" y2="47.244999885559125" fill="rgb(0, 0, 0)" stroke="rgb(60, 60, 60)" stroke-width="1px" opacity="0.25"></line><line x1="0" y1="0" x2="1382.583999633789" y2="0" fill="rgb(0, 0, 0)" stroke="rgb(60, 60, 60)" stroke-width="1px" opacity="0.25"></line></g></g></g><g><g><line x1="0" y1="2173.2699947357173" x2="1382.583999633789" y2="2173.2699947357173" fill="rgb(0, 0, 0)" stroke="rgb(153, 153, 153)" stroke-width="1.5px"></line></g></g><g><g><line x1="115.21533330281575" y1="0" x2="115.21533330281575" y2="377.95999908447266" fill="rgb(0, 0, 0)" stroke="rgb(153, 153, 153)" stroke-width="1.5px"></line></g></g><g><g><g><g><g><path style="fill: none;" stroke="rgb(238, 51, 119)" stroke-width="2px" d="M115.21533330281575,261.001358521766L138.2583999633789,197.84602338252623L161.30146662394205,120.72378512703662L184.34453328450522,103.1130910742024L207.38759994506836,79.42992839765733L230.4306666056315,75.78627826214469L253.47373326619464,72.14276892770383L276.5167999267578,64.85560945775032L299.559866587321,64.85560945775032L322.6029332478841,62.426509367408556L345.64599990844727,62.426509367408556L368.68906656901044,63.033784389994L391.73213322957355,61.819234344823116L414.7751998901367,64.24833443516488L437.81826655069983,64.85560945775032L460.861333211263,64.24833443516488L483.9043998718261,64.24833443516488L506.9474665323893,64.24833443516488L529.9905331929525,64.24833443516488L553.0335998535156,64.24833443516488L576.0766665140789,64.24833443516488L599.119733174642,64.24833443516488L622.1627998352051,64.24833443516488L645.2058664957682,64.24833443516488L668.2489331563314,64.24833443516488L691.2919998168945,64.24833443516488L714.3350664774578,64.24833443516488L737.3781331380209,64.24833443516488L760.4211997985841,64.24833443516488L783.4642664591471,64.24833443516488L806.5073331197103,64.24833443516488L829.5503997802734,64.24833443516488L852.5934664408367,64.24833443516488L875.6365331013997,64.24833443516488L898.6795997619629,64.24833443516488L921.722666422526,64.24833443516488L944.7657330830892,64.24833443516488L967.8087997436522,64.24833443516488L990.8518664042155,64.24833443516488L1013.8949330647786,64.24833443516488L1036.9379997253418,64.24833443516488L1059.981066385905,64.24833443516488L1083.024133046468,64.24833443516488L1106.0671997070312,64.24833443516488L1129.1102663675945,64.24833443516488L1152.1533330281577,64.24833443516488L1175.1963996887207,64.24833443516488L1198.239466349284,64.24833443516488L1221.282533009847,64.24833443516488L1244.3255996704102,64.24833443516488" fill="none"></path></g><g><path style="fill: none;" stroke="rgb(255, 112, 67)" stroke-width="2px" d="M115.21533330281575,233.67454570970827L138.2583999633789,186.30807955554636L161.30146662394205,135.29796326587186L184.34453328450522,97.04048164941977L207.38759994506836,101.89854102903152L230.4306666056315,86.71708786761084L253.47373326619464,69.10639381477662L276.5167999267578,67.89198457067752L299.559866587321,67.28470954809208L322.6029332478841,66.0701595029212L345.64599990844727,64.24833443516488L368.68906656901044,63.033784389994L391.73213322957355,61.819234344823116L414.7751998901367,63.033784389994L437.81826655069983,61.212100123309455L460.861333211263,60.604825100724014L483.9043998718261,61.212100123309455L506.9474665323893,61.212100123309455L529.9905331929525,62.426509367408556L553.0335998535156,61.212100123309455L576.0766665140789,61.819234344823116L599.119733174642,61.819234344823116L622.1627998352051,60.604825100724014L645.2058664957682,60.604825100724014L668.2489331563314,60.604825100724014L691.2919998168945,60.604825100724014L714.3350664774578,61.819234344823116L737.3781331380209,61.819234344823116L760.4211997985841,61.819234344823116L783.4642664591471,61.819234344823116L806.5073331197103,61.819234344823116L829.5503997802734,61.819234344823116L852.5934664408367,61.819234344823116L875.6365331013997,61.819234344823116L898.6795997619629,61.819234344823116L921.722666422526,61.819234344823116L944.7657330830892,61.819234344823116L967.8087997436522,61.819234344823116L990.8518664042155,61.819234344823116L1013.8949330647786,61.819234344823116L1036.9379997253418,61.819234344823116L1059.981066385905,61.819234344823116L1083.024133046468,61.819234344823116L1106.0671997070312,61.819234344823116L1129.1102663675945,61.819234344823116L1152.1533330281577,61.819234344823116L1175.1963996887207,61.819234344823116L1198.239466349284,61.819234344823116L1221.282533009847,61.819234344823116L1244.3255996704102,61.819234344823116" fill="none"></path></g><g><path style="fill: none;" stroke="rgb(51, 187, 238)" stroke-width="2px" d="M115.21533330281575,291.9716806682646L138.2583999633789,262.2157677658651L161.30146662394205,134.69068824328642L184.34453328450522,134.69068824328642L207.38759994506836,100.68413178493242L230.4306666056315,112.82935063449767L253.47373326619464,92.78969729239347L276.5167999267578,84.28798777726908L299.559866587321,70.3209438599475L322.6029332478841,72.14276892770383L345.64599990844727,74.57186901804559L368.68906656901044,73.35731897287471L391.73213322957355,69.71366883736206L414.7751998901367,69.71366883736206L437.81826655069983,67.89198457067752L460.861333211263,65.46288448033576L483.9043998718261,63.64105941257944L506.9474665323893,62.426509367408556L529.9905331929525,63.033784389994L553.0335998535156,64.85560945775032L576.0766665140789,62.426509367408556L599.119733174642,63.033784389994L622.1627998352051,63.033784389994L645.2058664957682,62.426509367408556L668.2489331563314,63.033784389994L691.2919998168945,62.426509367408556L714.3350664774578,62.426509367408556L737.3781331380209,62.426509367408556L760.4211997985841,62.426509367408556L783.4642664591471,62.426509367408556L806.5073331197103,62.426509367408556L829.5503997802734,62.426509367408556L852.5934664408367,62.426509367408556L875.6365331013997,62.426509367408556L898.6795997619629,62.426509367408556L921.722666422526,62.426509367408556L944.7657330830892,62.426509367408556L967.8087997436522,62.426509367408556L990.8518664042155,62.426509367408556L1013.8949330647786,62.426509367408556L1036.9379997253418,62.426509367408556L1059.981066385905,62.426509367408556L1083.024133046468,62.426509367408556L1106.0671997070312,62.426509367408556L1129.1102663675945,62.426509367408556L1152.1533330281577,62.426509367408556L1175.1963996887207,62.426509367408556L1198.239466349284,62.426509367408556L1221.282533009847,62.426509367408556L1244.3255996704102,62.426509367408556" fill="none"></path></g><g><path style="fill: none;" stroke="rgb(187, 187, 187)" stroke-width="2px" d="M115.21533330281575,286.5063462660674L138.2583999633789,199.0605734276971L161.30146662394205,155.33761660797606L184.34453328450522,123.76001943889204L207.38759994506836,116.47285996893854L230.4306666056315,89.14604715688083L253.47373326619464,75.78627826214469L276.5167999267578,73.96459399546015L299.559866587321,83.68071275468364L322.6029332478841,96.43320662683433L345.64599990844727,75.78627826214469L368.68906656901044,61.212100123309455L391.73213322957355,68.49911879219118L414.7751998901367,70.3209438599475L437.81826655069983,59.99755007813857L460.861333211263,64.85560945775032L483.9043998718261,61.819234344823116L506.9474665323893,64.85560945775032L529.9905331929525,65.46288448033576L553.0335998535156,66.0701595029212L576.0766665140789,66.67743452550664L599.119733174642,69.10639381477662L622.1627998352051,68.49911879219118L645.2058664957682,67.28470954809208L668.2489331563314,66.0701595029212L691.2919998168945,66.0701595029212L714.3350664774578,66.67743452550664L737.3781331380209,69.10639381477662L760.4211997985841,70.92821888253295L783.4642664591471,70.3209438599475L806.5073331197103,69.71366883736206L829.5503997802734,70.92821888253295L852.5934664408367,70.3209438599475L875.6365331013997,70.92821888253295L898.6795997619629,71.53549390511839L921.722666422526,71.53549390511839L944.7657330830892,70.92821888253295L967.8087997436522,70.3209438599475L990.8518664042155,68.49911879219118L1013.8949330647786,68.49911879219118L1036.9379997253418,68.49911879219118L1059.981066385905,68.49911879219118L1083.024133046468,68.49911879219118L1106.0671997070312,68.49911879219118L1129.1102663675945,68.49911879219118L1152.1533330281577,68.49911879219118L1175.1963996887207,68.49911879219118L1198.239466349284,68.49911879219118L1221.282533009847,68.49911879219118L1244.3255996704102,68.49911879219118" fill="none"></path></g><g><path style="fill: none;" stroke="rgb(204, 51, 17)" stroke-width="2px" d="M115.21533330281575,303.5096244952444L138.2583999633789,220.31477681497213L161.30146662394205,211.20579227726236L184.34453328450522,143.1923977584108L207.38759994506836,135.9052382884573L230.4306666056315,129.83262886367467L253.47373326619464,132.26172895401643L276.5167999267578,123.76001943889204L299.559866587321,134.08355402177276L322.6029332478841,111.00752556674135L345.64599990844727,104.93491614195872L368.68906656901044,91.57514724722259L391.73213322957355,100.07685676234698L414.7751998901367,86.1098128450254L437.81826655069983,102.50581605161696L460.861333211263,92.78969729239347L483.9043998718261,94.00424733756435L506.9474665323893,94.61152236014979L529.9905331929525,90.36059720205171L553.0335998535156,92.18242226980803L576.0766665140789,87.93163791278172L599.119733174642,84.28798777726908L622.1627998352051,90.96787222463715L645.2058664957682,90.36059720205171L668.2489331563314,91.57514724722259L691.2919998168945,81.85888768692732L714.3350664774578,77.60810332990101L737.3781331380209,80.03720342024278L760.4211997985841,73.35731897287471L783.4642664591471,75.78627826214469L806.5073331197103,73.35731897287471L829.5503997802734,72.75004395028927L852.5934664408367,77.60810332990101L875.6365331013997,73.96459399546015L898.6795997619629,67.28470954809208L921.722666422526,75.17900323955925L944.7657330830892,75.17900323955925L967.8087997436522,73.96459399546015L990.8518664042155,72.75004395028927L1013.8949330647786,75.78627826214469L1036.9379997253418,78.21537835248645L1059.981066385905,80.03720342024278L1083.024133046468,74.57186901804559L1106.0671997070312,76.39355328473013L1129.1102663675945,72.75004395028927L1152.1533330281577,74.57186901804559L1175.1963996887207,73.96459399546015L1198.239466349284,75.17900323955925L1221.282533009847,71.53549390511839L1244.3255996704102,72.14276892770383" fill="none"></path></g></g></g></g></g></g><g transform="translate(51, 377)" clip-path="url(#clip_1)"><clipPath id="clip_1"><rect width="1382" height="22"></rect></clipPath><g><g><line x1="0" y1="0" x2="0" y2="5" style="visibility: inherit;" fill="rgb(0, 0, 0)" stroke="rgb(204, 204, 204)" stroke-width="1px"></line><line x1="115.21533330281575" y1="0" x2="115.21533330281575" y2="5" style="visibility: inherit;" fill="rgb(0, 0, 0)" stroke="rgb(204, 204, 204)" stroke-width="1px"></line><line x1="230.4306666056315" y1="0" x2="230.4306666056315" y2="5" style="visibility: inherit;" fill="rgb(0, 0, 0)" stroke="rgb(204, 204, 204)" stroke-width="1px"></line><line x1="345.64599990844727" y1="0" x2="345.64599990844727" y2="5" style="visibility: inherit;" fill="rgb(0, 0, 0)" stroke="rgb(204, 204, 204)" stroke-width="1px"></line><line x1="460.861333211263" y1="0" x2="460.861333211263" y2="5" style="visibility: inherit;" fill="rgb(0, 0, 0)" stroke="rgb(204, 204, 204)" stroke-width="1px"></line><line x1="576.0766665140789" y1="0" x2="576.0766665140789" y2="5" style="visibility: inherit;" fill="rgb(0, 0, 0)" stroke="rgb(204, 204, 204)" stroke-width="1px"></line><line x1="691.2919998168945" y1="0" x2="691.2919998168945" y2="5" style="visibility: inherit;" fill="rgb(0, 0, 0)" stroke="rgb(204, 204, 204)" stroke-width="1px"></line><line x1="806.5073331197103" y1="0" x2="806.5073331197103" y2="5" style="visibility: inherit;" fill="rgb(0, 0, 0)" stroke="rgb(204, 204, 204)" stroke-width="1px"></line><line x1="921.722666422526" y1="0" x2="921.722666422526" y2="5" style="visibility: inherit;" fill="rgb(0, 0, 0)" stroke="rgb(204, 204, 204)" stroke-width="1px"></line><line x1="1036.9379997253418" y1="0" x2="1036.9379997253418" y2="5" style="visibility: inherit;" fill="rgb(0, 0, 0)" stroke="rgb(204, 204, 204)" stroke-width="1px"></line><line x1="1152.1533330281577" y1="0" x2="1152.1533330281577" y2="5" style="visibility: inherit;" fill="rgb(0, 0, 0)" stroke="rgb(204, 204, 204)" stroke-width="1px"></line><line x1="1267.3686663309732" y1="0" x2="1267.3686663309732" y2="5" style="visibility: inherit;" fill="rgb(0, 0, 0)" stroke="rgb(204, 204, 204)" stroke-width="1px"></line><line x1="1382.583999633789" y1="0" x2="1382.583999633789" y2="5" style="visibility: inherit;" fill="rgb(0, 0, 0)" stroke="rgb(204, 204, 204)" stroke-width="1px"></line></g><g transform="translate(0, 8)"><text style="text-anchor: middle; visibility: hidden; font-family: Roboto, sans-serif; font-size: 12px; font-weight: 200;" x="0" y="0" dx="0em" dy="0.95em" fill="rgb(50, 49, 63)" stroke="none" stroke-width="1px">-5</text><text style="text-anchor: middle; visibility: inherit; font-family: Roboto, sans-serif; font-size: 12px; font-weight: 200;" x="115.21533330281575" y="0" dx="0em" dy="0.95em" fill="rgb(50, 49, 63)" stroke="none" stroke-width="1px">0</text><text style="text-anchor: middle; visibility: inherit; font-family: Roboto, sans-serif; font-size: 12px; font-weight: 200;" x="230.4306666056315" y="0" dx="0em" dy="0.95em" fill="rgb(50, 49, 63)" stroke="none" stroke-width="1px">5</text><text style="text-anchor: middle; visibility: inherit; font-family: Roboto, sans-serif; font-size: 12px; font-weight: 200;" x="345.64599990844727" y="0" dx="0em" dy="0.95em" fill="rgb(50, 49, 63)" stroke="none" stroke-width="1px">10</text><text style="text-anchor: middle; visibility: inherit; font-family: Roboto, sans-serif; font-size: 12px; font-weight: 200;" x="460.861333211263" y="0" dx="0em" dy="0.95em" fill="rgb(50, 49, 63)" stroke="none" stroke-width="1px">15</text><text style="text-anchor: middle; visibility: inherit; font-family: Roboto, sans-serif; font-size: 12px; font-weight: 200;" x="576.0766665140789" y="0" dx="0em" dy="0.95em" fill="rgb(50, 49, 63)" stroke="none" stroke-width="1px">20</text><text style="text-anchor: middle; visibility: inherit; font-family: Roboto, sans-serif; font-size: 12px; font-weight: 200;" x="691.2919998168945" y="0" dx="0em" dy="0.95em" fill="rgb(50, 49, 63)" stroke="none" stroke-width="1px">25</text><text style="text-anchor: middle; visibility: inherit; font-family: Roboto, sans-serif; font-size: 12px; font-weight: 200;" x="806.5073331197103" y="0" dx="0em" dy="0.95em" fill="rgb(50, 49, 63)" stroke="none" stroke-width="1px">30</text><text style="text-anchor: middle; visibility: inherit; font-family: Roboto, sans-serif; font-size: 12px; font-weight: 200;" x="921.722666422526" y="0" dx="0em" dy="0.95em" fill="rgb(50, 49, 63)" stroke="none" stroke-width="1px">35</text><text style="text-anchor: middle; visibility: inherit; font-family: Roboto, sans-serif; font-size: 12px; font-weight: 200;" x="1036.9379997253418" y="0" dx="0em" dy="0.95em" fill="rgb(50, 49, 63)" stroke="none" stroke-width="1px">40</text><text style="text-anchor: middle; visibility: inherit; font-family: Roboto, sans-serif; font-size: 12px; font-weight: 200;" x="1152.1533330281577" y="0" dx="0em" dy="0.95em" fill="rgb(50, 49, 63)" stroke="none" stroke-width="1px">45</text><text style="text-anchor: middle; visibility: inherit; font-family: Roboto, sans-serif; font-size: 12px; font-weight: 200;" x="1267.3686663309732" y="0" dx="0em" dy="0.95em" fill="rgb(50, 49, 63)" stroke="none" stroke-width="1px">50</text><text style="text-anchor: middle; visibility: hidden; font-family: Roboto, sans-serif; font-size: 12px; font-weight: 200;" x="1382.583999633789" y="0" dx="0em" dy="0.95em" fill="rgb(50, 49, 63)" stroke="none" stroke-width="1px">55</text></g><line x1="0" y1="0" x2="1382.583999633789" y2="0" fill="rgb(0, 0, 0)" stroke="rgb(204, 204, 204)" stroke-width="1px"></line></g></g></g></g></svg>