<svg viewBox="0 0 1434 400" xmlns="http://www.w3.org/2000/svg"><g><g><g><g><g><line x1="51.41600036621094" y1="377.95999908447266" x2="46.41600036621094" y2="377.95999908447266" style="visibility: inherit;" fill="rgb(0, 0, 0)" stroke="rgb(204, 204, 204)" stroke-width="1px"></line><line x1="51.41600036621094" y1="323.96571350097656" x2="46.41600036621094" y2="323.96571350097656" style="visibility: inherit;" fill="rgb(0, 0, 0)" stroke="rgb(204, 204, 204)" stroke-width="1px"></line><line x1="51.41600036621094" y1="269.97142791748047" x2="46.41600036621094" y2="269.97142791748047" style="visibility: inherit;" fill="rgb(0, 0, 0)" stroke="rgb(204, 204, 204)" stroke-width="1px"></line><line x1="51.41600036621094" y1="215.97714233398438" x2="46.41600036621094" y2="215.97714233398438" style="visibility: inherit;" fill="rgb(0, 0, 0)" stroke="rgb(204, 204, 204)" stroke-width="1px"></line><line x1="51.41600036621094" y1="161.98285675048828" x2="46.41600036621094" y2="161.98285675048828" style="visibility: inherit;" fill="rgb(0, 0, 0)" stroke="rgb(204, 204, 204)" stroke-width="1px"></line><line x1="51.41600036621094" y1="107.98857116699219" x2="46.41600036621094" y2="107.98857116699219" style="visibility: inherit;" fill="rgb(0, 0, 0)" stroke="rgb(204, 204, 204)" stroke-width="1px"></line><line x1="51.41600036621094" y1="53.994285583496115" x2="46.41600036621094" y2="53.994285583496115" style="visibility: inherit;" fill="rgb(0, 0, 0)" stroke="rgb(204, 204, 204)" stroke-width="1px"></line><line x1="51.41600036621094" y1="0" x2="46.41600036621094" y2="0" style="visibility: inherit;" fill="rgb(0, 0, 0)" stroke="rgb(204, 204, 204)" stroke-width="1px"></line></g><g transform="translate(41.41600036621094, 0)"><text style="text-anchor: end; visibility: hidden; font-family: Roboto, sans-serif; font-size: 12px; font-weight: 200;" x="0" y="377.95999908447266" dx="0em" dy="0.3em" fill="rgb(50, 49, 63)" stroke="none" stroke-width="1px">-0.5</text><text style="text-anchor: end; visibility: inherit; font-family: Roboto, sans-serif; font-size: 12px; font-weight: 200;" x="0" y="323.96571350097656" dx="0em" dy="0.3em" fill="rgb(50, 49, 63)" stroke="none" stroke-width="1px">0</text><text style="text-anchor: end; visibility: inherit; font-family: Roboto, sans-serif; font-size: 12px; font-weight: 200;" x="0" y="269.97142791748047" dx="0em" dy="0.3em" fill="rgb(50, 49, 63)" stroke="none" stroke-width="1px">0.5</text><text style="text-anchor: end; visibility: inherit; font-family: Roboto, sans-serif; font-size: 12px; font-weight: 200;" x="0" y="215.97714233398438" dx="0em" dy="0.3em" fill="rgb(50, 49, 63)" stroke="none" stroke-width="1px">1</text><text style="text-anchor: end; visibility: inherit; font-family: Roboto, sans-serif; font-size: 12px; font-weight: 200;" x="0" y="161.98285675048828" dx="0em" dy="0.3em" fill="rgb(50, 49, 63)" stroke="none" stroke-width="1px">1.5</text><text style="text-anchor: end; visibility: inherit; font-family: Roboto, sans-serif; font-size: 12px; font-weight: 200;" x="0" y="107.98857116699219" dx="0em" dy="0.3em" fill="rgb(50, 49, 63)" stroke="none" stroke-width="1px">2</text><text style="text-anchor: end; visibility: inherit; font-family: Roboto, sans-serif; font-size: 12px; font-weight: 200;" x="0" y="53.994285583496115" dx="0em" dy="0.3em" fill="rgb(50, 49, 63)" stroke="none" stroke-width="1px">2.5</text><text style="text-anchor: end; visibility: hidden; font-family: Roboto, sans-serif; font-size: 12px; font-weight: 200;" x="0" y="0" dx="0em" dy="0.3em" fill="rgb(50, 49, 63)" stroke="none" stroke-width="1px">3</text></g><line x1="51.41600036621094" y1="0" x2="51.41600036621094" y2="377.95999908447266" fill="rgb(0, 0, 0)" stroke="rgb(204, 204, 204)" stroke-width="1px"></line></g></g><g transform="translate(51, 0)" clip-path="url(#clip_0)"><clipPath id="clip_0"><rect width="1382" height="377"></rect></clipPath><g><g><g><line x1="0" y1="0" x2="0" y2="377.95999908447266" fill="rgb(0, 0, 0)" stroke="rgb(60, 60, 60)" stroke-width="1px" opacity="0.25"></line><line x1="115.21533330281575" y1="0" x2="115.21533330281575" y2="377.95999908447266" fill="rgb(0, 0, 0)" stroke="rgb(60, 60, 60)" stroke-width="1px" opacity="0.25"></line><line x1="230.4306666056315" y1="0" x2="230.4306666056315" y2="377.95999908447266" fill="rgb(0, 0, 0)" stroke="rgb(60, 60, 60)" stroke-width="1px" opacity="0.25"></line><line x1="345.64599990844727" y1="0" x2="345.64599990844727" y2="377.95999908447266" fill="rgb(0, 0, 0)" stroke="rgb(60, 60, 60)" stroke-width="1px" opacity="0.25"></line><line x1="460.861333211263" y1="0" x2="460.861333211263" y2="377.95999908447266" fill="rgb(0, 0, 0)" stroke="rgb(60, 60, 60)" stroke-width="1px" opacity="0.25"></line><line x1="576.0766665140789" y1="0" x2="576.0766665140789" y2="377.95999908447266" fill="rgb(0, 0, 0)" stroke="rgb(60, 60, 60)" stroke-width="1px" opacity="0.25"></line><line x1="691.2919998168945" y1="0" x2="691.2919998168945" y2="377.95999908447266" fill="rgb(0, 0, 0)" stroke="rgb(60, 60, 60)" stroke-width="1px" opacity="0.25"></line><line x1="806.5073331197103" y1="0" x2="806.5073331197103" y2="377.95999908447266" fill="rgb(0, 0, 0)" stroke="rgb(60, 60, 60)" stroke-width="1px" opacity="0.25"></line><line x1="921.722666422526" y1="0" x2="921.722666422526" y2="377.95999908447266" fill="rgb(0, 0, 0)" stroke="rgb(60, 60, 60)" stroke-width="1px" opacity="0.25"></line><line x1="1036.9379997253418" y1="0" x2="1036.9379997253418" y2="377.95999908447266" fill="rgb(0, 0, 0)" stroke="rgb(60, 60, 60)" stroke-width="1px" opacity="0.25"></line><line x1="1152.1533330281577" y1="0" x2="1152.1533330281577" y2="377.95999908447266" fill="rgb(0, 0, 0)" stroke="rgb(60, 60, 60)" stroke-width="1px" opacity="0.25"></line><line x1="1267.3686663309732" y1="0" x2="1267.3686663309732" y2="377.95999908447266" fill="rgb(0, 0, 0)" stroke="rgb(60, 60, 60)" stroke-width="1px" opacity="0.25"></line><line x1="1382.583999633789" y1="0" x2="1382.583999633789" y2="377.95999908447266" fill="rgb(0, 0, 0)" stroke="rgb(60, 60, 60)" stroke-width="1px" opacity="0.25"></line></g><g><line x1="0" y1="377.95999908447266" x2="1382.583999633789" y2="377.95999908447266" fill="rgb(0, 0, 0)" stroke="rgb(60, 60, 60)" stroke-width="1px" opacity="0.25"></line><line x1="0" y1="323.96571350097656" x2="1382.583999633789" y2="323.96571350097656" fill="rgb(0, 0, 0)" stroke="rgb(60, 60, 60)" stroke-width="1px" opacity="0.25"></line><line x1="0" y1="269.97142791748047" x2="1382.583999633789" y2="269.97142791748047" fill="rgb(0, 0, 0)" stroke="rgb(60, 60, 60)" stroke-width="1px" opacity="0.25"></line><line x1="0" y1="215.97714233398438" x2="1382.583999633789" y2="215.97714233398438" fill="rgb(0, 0, 0)" stroke="rgb(60, 60, 60)" stroke-width="1px" opacity="0.25"></line><line x1="0" y1="161.98285675048828" x2="1382.583999633789" y2="161.98285675048828" fill="rgb(0, 0, 0)" stroke="rgb(60, 60, 60)" stroke-width="1px" opacity="0.25"></line><line x1="0" y1="107.98857116699219" x2="1382.583999633789" y2="107.98857116699219" fill="rgb(0, 0, 0)" stroke="rgb(60, 60, 60)" stroke-width="1px" opacity="0.25"></line><line x1="0" y1="53.994285583496115" x2="1382.583999633789" y2="53.994285583496115" fill="rgb(0, 0, 0)" stroke="rgb(60, 60, 60)" stroke-width="1px" opacity="0.25"></line><line x1="0" y1="0" x2="1382.583999633789" y2="0" fill="rgb(0, 0, 0)" stroke="rgb(60, 60, 60)" stroke-width="1px" opacity="0.25"></line></g></g></g><g><g><line x1="0" y1="323.96571350097656" x2="1382.583999633789" y2="323.96571350097656" fill="rgb(0, 0, 0)" stroke="rgb(153, 153, 153)" stroke-width="1.5px"></line></g></g><g><g><line x1="115.21533330281575" y1="0" x2="115.21533330281575" y2="377.95999908447266" fill="rgb(0, 0, 0)" stroke="rgb(153, 153, 153)" stroke-width="1.5px"></line></g></g><g><g><g><g><g><path style="fill: none;" stroke="rgb(238, 51, 119)" stroke-width="2px" d="M115.21533330281575,110.18024042143588L138.2583999633789,188.32115994885496L161.30146662394205,227.7631478800704L184.34453328450522,237.37941373749797L207.38759994506836,249.44500032833005L230.4306666056315,250.80255437862067L253.47373326619464,253.06418326045514L276.5167999267578,255.31332509866658L299.559866587321,255.05507501400643L322.6029332478841,255.18471498597046L345.64599990844727,255.20847255195625L368.68906656901044,255.44972352207606L391.73213322957355,255.2921099977484L414.7751998901367,255.28992154680418L437.81826655069983,255.2584207264481L460.861333211263,255.26245005083368L483.9043998718261,255.24140230204648L506.9474665323893,255.24494887990022L529.9905331929525,255.23836421720625L553.0335998535156,255.23841571016965L576.0766665140789,255.2415889640388L599.119733174642,255.24023083712927L622.1627998352051,255.23948418916007L645.2058664957682,255.2393039637882L668.2489331563314,255.23981889342213L691.2919998168945,255.23976740045873L714.3350664774578,255.23990256948764L737.3781331380209,255.2399154427285L760.4211997985841,255.23995406245103L783.4642664591471,255.23992187934894L806.5073331197103,255.2399283159693L829.5503997802734,255.2399476258306L852.5934664408367,255.23994118921019L875.6365331013997,255.23994118921019L898.6795997619629,255.23994118921019L921.722666422526,255.23994118921019L944.7657330830892,255.23994118921019L967.8087997436522,255.23994118921019L990.8518664042155,255.23994118921019L1013.8949330647786,255.23994118921019L1036.9379997253418,255.23994118921019L1059.981066385905,255.23994118921019L1083.024133046468,255.23994118921019L1106.0671997070312,255.23994118921019L1129.1102663675945,255.23994118921019L1152.1533330281577,255.23994118921019L1175.1963996887207,255.23994118921019L1198.239466349284,255.23994118921019L1221.282533009847,255.23994118921019L1244.3255996704102,255.23994118921019" fill="none"></path></g><g><path style="fill: none;" stroke="rgb(255, 112, 67)" stroke-width="2px" d="M115.21533330281575,132.03163988828962L138.2583999633789,179.72915993615243L161.30146662394205,211.75200308188323L184.34453328450522,233.3624991561201L207.38759994506836,233.14506368156978L230.4306666056315,235.03491980432227L253.47373326619464,239.23451210995975L276.5167999267578,239.06284744324606L299.559866587321,240.80076714088497L322.6029332478841,241.36484680838112L345.64599990844727,241.13410683941402L368.68906656901044,241.89693647236894L391.73213322957355,241.97798639675057L414.7751998901367,241.99499194791133L437.81826655069983,242.314563715353L460.861333211263,242.2821746413783L483.9043998718261,242.20452325258066L506.9474665323893,242.20566253439577L529.9905331929525,242.24767435590456L553.0335998535156,242.30424581281298L576.0766665140789,242.32455335025134L599.119733174642,242.33653833748122L622.1627998352051,242.34996512768612L645.2058664957682,242.35502431133958L668.2489331563314,242.35141336728157L691.2919998168945,242.3524303533086L714.3350664774578,242.352011972981L737.3781331380209,242.35279724067277L760.4211997985841,242.35244966316986L783.4642664591471,242.3526749448847L806.5073331197103,242.35274574770938L829.5503997802734,242.35300321252632L852.5934664408367,242.35306114211016L875.6365331013997,242.35309332521226L898.6795997619629,242.35313194493486L921.722666422526,242.35317056465738L944.7657330830892,242.35317700127783L967.8087997436522,242.35318987451865L990.8518664042155,242.3532027477595L1013.8949330647786,242.35321562100034L1036.9379997253418,242.35320918437992L1059.981066385905,242.35320918437992L1083.024133046468,242.35320918437992L1106.0671997070312,242.35320918437992L1129.1102663675945,242.35319631113907L1152.1533330281577,242.35319631113907L1175.1963996887207,242.35319631113907L1198.239466349284,242.35319631113907L1221.282533009847,242.35319631113907L1244.3255996704102,242.35319631113907" fill="none"></path></g><g><path style="fill: none;" stroke="rgb(51, 187, 238)" stroke-width="2px" d="M115.21533330281575,99.55384353773479L138.2583999633789,112.8865174787952L161.30146662394205,201.04816078123804L184.34453328450522,203.5645189163606L207.38759994506836,224.20504847577104L230.4306666056315,219.72435608296743L253.47373326619464,226.0418153532646L276.5167999267578,228.46820240809757L299.559866587321,229.66664320150176L322.6029332478841,230.7678717166391L345.64599990844727,229.11750293001023L368.68906656901044,229.96834691064578L391.73213322957355,230.35590869962834L414.7751998901367,230.82654794842622L437.81826655069983,231.60913156946302L460.861333211263,231.55312653515196L483.9043998718261,231.661190955454L506.9474665323893,231.88203783882912L529.9905331929525,231.78020406709766L553.0335998535156,231.68152423937408L576.0766665140789,231.7236905397731L599.119733174642,231.8312335938208L622.1627998352051,231.79439037851262L645.2058664957682,231.91608756087317L668.2489331563314,231.88605428997377L691.2919998168945,231.94099728191486L714.3350664774578,231.9433981413331L737.3781331380209,231.95396063544922L760.4211997985841,231.95120576190763L783.4642664591471,231.9448335076877L806.5073331197103,231.9537932833182L829.5503997802734,231.95745572033957L852.5934664408367,231.95525439615452L875.6365331013997,231.95726262172684L898.6795997619629,231.9569214808444L921.722666422526,231.95571783282503L944.7657330830892,231.95600748074412L967.8087997436522,231.9563228751449L990.8518664042155,231.9571531991796L1013.8949330647786,231.95723687524517L1036.9379997253418,231.95742353723742L1059.981066385905,231.95788053728756L1083.024133046468,231.95791272038971L1106.0671997070312,231.95801570631647L1129.1102663675945,231.95817018520665L1152.1533330281577,231.95816374858623L1175.1963996887207,231.95821524154962L1198.239466349284,231.95826673451302L1221.282533009847,231.95824742465174L1244.3255996704102,231.95826673451302" fill="none"></path></g><g><path style="fill: none;" stroke="rgb(187, 187, 187)" stroke-width="2px" d="M115.21533330281575,109.61631523282995L138.2583999633789,146.100727572084L161.30146662394205,178.3622663496262L184.34453328450522,207.06105848292282L207.38759994506836,201.62468887263458L230.4306666056315,217.51327398132435L253.47373326619464,218.476295382713L276.5167999267578,219.279714344063L299.559866587321,214.8705070576907L322.6029332478841,211.286197735024L345.64599990844727,218.50591027328483L368.68906656901044,218.6641159666915L391.73213322957355,218.1100645538163L414.7751998901367,218.2188884953284L437.81826655069983,219.95359631937575L460.861333211263,219.58155322223593L483.9043998718261,217.56205069089904L506.9474665323893,217.55385687309897L529.9905331929525,217.14727487076289L553.0335998535156,215.8613089128303L576.0766665140789,216.9194185077458L599.119733174642,216.70305151218602L622.1627998352051,216.35499126274684L645.2058664957682,216.17062714393612L668.2489331563314,216.03612108693142L691.2919998168945,216.23228353097966L714.3350664774578,216.23951829233644L737.3781331380209,216.0762276687947L760.4211997985841,216.00885556281446L783.4642664591471,216.028558057933L806.5073331197103,216.00303042133055L829.5503997802734,215.91810565145352L852.5934664408367,216.06274938562638L875.6365331013997,215.94488199241823L898.6795997619629,215.95435669768264L921.722666422526,215.97226337570282L944.7657330830892,215.97973629201533L967.8087997436522,216.06917956943016L990.8518664042155,216.07996734526117L1013.8949330647786,216.10940201046105L1036.9379997253418,216.12279661756384L1059.981066385905,216.13194949180706L1083.024133046468,216.1195783073517L1106.0671997070312,216.12445082901286L1129.1102663675945,216.12410325150995L1152.1533330281577,216.13614616832365L1175.1963996887207,216.13771670370716L1198.239466349284,216.1438701128327L1221.282533009847,216.14351609870937L1244.3255996704102,216.14582040882124" fill="none"></path></g><g><path style="fill: none;" stroke="rgb(204, 51, 17)" stroke-width="2px" d="M115.21533330281575,97.10385983242668L138.2583999633789,133.66303995452833L161.30146662394205,96.4180765459496L184.34453328450522,160.45938593552273L207.38759994506836,168.30656597921734L230.4306666056315,164.13098870438262L253.47373326619464,165.12453255982288L276.5167999267578,157.0744702403572L299.559866587321,150.1142049981554L322.6029332478841,159.34461477101283L345.64599990844727,167.70517965974247L368.68906656901044,169.266871126787L391.73213322957355,160.63708815219434L414.7751998901367,169.18937421687951L437.81826655069983,159.74391695564918L460.861333211263,162.36080222855708L483.9043998718261,164.07105089499237L506.9474665323893,155.94410958117987L529.9905331929525,150.4924723072454L553.0335998535156,156.06767982008387L576.0766665140789,156.2059641732776L599.119733174642,154.23069409749587L622.1627998352051,151.3091764531509L645.2058664957682,150.88842744926114L668.2489331563314,149.72612827953893L691.2919998168945,152.86522944070384L714.3350664774578,149.71096360181946L737.3781331380209,152.92248961599762L760.4211997985841,152.20497379082917L783.4642664591471,149.76804355174136L806.5073331197103,150.47443689681677L829.5503997802734,152.851287720865L852.5934664408367,152.35607989190794L875.6365331013997,152.7134410578601L898.6795997619629,153.17853837647272L921.722666422526,153.7680555678853L944.7657330830892,153.58515256191092L967.8087997436522,152.54529078589803L990.8518664042155,153.14497783758088L1013.8949330647786,152.88918654192275L1036.9379997253418,151.11629668551907L1059.981066385905,152.131441839103L1083.024133046468,152.12733527527234L1106.0671997070312,152.69404108390154L1129.1102663675945,152.50467571102126L1152.1533330281577,151.49053467022352L1175.1963996887207,152.5851592128056L1198.239466349284,151.3410763439733L1221.282533009847,151.7579633756086L1244.3255996704102,152.30703284427545" fill="none"></path></g></g></g></g></g></g><g transform="translate(51, 377)" clip-path="url(#clip_1)"><clipPath id="clip_1"><rect width="1382" height="22"></rect></clipPath><g><g><line x1="0" y1="0" x2="0" y2="5" style="visibility: inherit;" fill="rgb(0, 0, 0)" stroke="rgb(204, 204, 204)" stroke-width="1px"></line><line x1="115.21533330281575" y1="0" x2="115.21533330281575" y2="5" style="visibility: inherit;" fill="rgb(0, 0, 0)" stroke="rgb(204, 204, 204)" stroke-width="1px"></line><line x1="230.4306666056315" y1="0" x2="230.4306666056315" y2="5" style="visibility: inherit;" fill="rgb(0, 0, 0)" stroke="rgb(204, 204, 204)" stroke-width="1px"></line><line x1="345.64599990844727" y1="0" x2="345.64599990844727" y2="5" style="visibility: inherit;" fill="rgb(0, 0, 0)" stroke="rgb(204, 204, 204)" stroke-width="1px"></line><line x1="460.861333211263" y1="0" x2="460.861333211263" y2="5" style="visibility: inherit;" fill="rgb(0, 0, 0)" stroke="rgb(204, 204, 204)" stroke-width="1px"></line><line x1="576.0766665140789" y1="0" x2="576.0766665140789" y2="5" style="visibility: inherit;" fill="rgb(0, 0, 0)" stroke="rgb(204, 204, 204)" stroke-width="1px"></line><line x1="691.2919998168945" y1="0" x2="691.2919998168945" y2="5" style="visibility: inherit;" fill="rgb(0, 0, 0)" stroke="rgb(204, 204, 204)" stroke-width="1px"></line><line x1="806.5073331197103" y1="0" x2="806.5073331197103" y2="5" style="visibility: inherit;" fill="rgb(0, 0, 0)" stroke="rgb(204, 204, 204)" stroke-width="1px"></line><line x1="921.722666422526" y1="0" x2="921.722666422526" y2="5" style="visibility: inherit;" fill="rgb(0, 0, 0)" stroke="rgb(204, 204, 204)" stroke-width="1px"></line><line x1="1036.9379997253418" y1="0" x2="1036.9379997253418" y2="5" style="visibility: inherit;" fill="rgb(0, 0, 0)" stroke="rgb(204, 204, 204)" stroke-width="1px"></line><line x1="1152.1533330281577" y1="0" x2="1152.1533330281577" y2="5" style="visibility: inherit;" fill="rgb(0, 0, 0)" stroke="rgb(204, 204, 204)" stroke-width="1px"></line><line x1="1267.3686663309732" y1="0" x2="1267.3686663309732" y2="5" style="visibility: inherit;" fill="rgb(0, 0, 0)" stroke="rgb(204, 204, 204)" stroke-width="1px"></line><line x1="1382.583999633789" y1="0" x2="1382.583999633789" y2="5" style="visibility: inherit;" fill="rgb(0, 0, 0)" stroke="rgb(204, 204, 204)" stroke-width="1px"></line></g><g transform="translate(0, 8)"><text style="text-anchor: middle; visibility: hidden; font-family: Roboto, sans-serif; font-size: 12px; font-weight: 200;" x="0" y="0" dx="0em" dy="0.95em" fill="rgb(50, 49, 63)" stroke="none" stroke-width="1px">-5</text><text style="text-anchor: middle; visibility: inherit; font-family: Roboto, sans-serif; font-size: 12px; font-weight: 200;" x="115.21533330281575" y="0" dx="0em" dy="0.95em" fill="rgb(50, 49, 63)" stroke="none" stroke-width="1px">0</text><text style="text-anchor: middle; visibility: inherit; font-family: Roboto, sans-serif; font-size: 12px; font-weight: 200;" x="230.4306666056315" y="0" dx="0em" dy="0.95em" fill="rgb(50, 49, 63)" stroke="none" stroke-width="1px">5</text><text style="text-anchor: middle; visibility: inherit; font-family: Roboto, sans-serif; font-size: 12px; font-weight: 200;" x="345.64599990844727" y="0" dx="0em" dy="0.95em" fill="rgb(50, 49, 63)" stroke="none" stroke-width="1px">10</text><text style="text-anchor: middle; visibility: inherit; font-family: Roboto, sans-serif; font-size: 12px; font-weight: 200;" x="460.861333211263" y="0" dx="0em" dy="0.95em" fill="rgb(50, 49, 63)" stroke="none" stroke-width="1px">15</text><text style="text-anchor: middle; visibility: inherit; font-family: Roboto, sans-serif; font-size: 12px; font-weight: 200;" x="576.0766665140789" y="0" dx="0em" dy="0.95em" fill="rgb(50, 49, 63)" stroke="none" stroke-width="1px">20</text><text style="text-anchor: middle; visibility: inherit; font-family: Roboto, sans-serif; font-size: 12px; font-weight: 200;" x="691.2919998168945" y="0" dx="0em" dy="0.95em" fill="rgb(50, 49, 63)" stroke="none" stroke-width="1px">25</text><text style="text-anchor: middle; visibility: inherit; font-family: Roboto, sans-serif; font-size: 12px; font-weight: 200;" x="806.5073331197103" y="0" dx="0em" dy="0.95em" fill="rgb(50, 49, 63)" stroke="none" stroke-width="1px">30</text><text style="text-anchor: middle; visibility: inherit; font-family: Roboto, sans-serif; font-size: 12px; font-weight: 200;" x="921.722666422526" y="0" dx="0em" dy="0.95em" fill="rgb(50, 49, 63)" stroke="none" stroke-width="1px">35</text><text style="text-anchor: middle; visibility: inherit; font-family: Roboto, sans-serif; font-size: 12px; font-weight: 200;" x="1036.9379997253418" y="0" dx="0em" dy="0.95em" fill="rgb(50, 49, 63)" stroke="none" stroke-width="1px">40</text><text style="text-anchor: middle; visibility: inherit; font-family: Roboto, sans-serif; font-size: 12px; font-weight: 200;" x="1152.1533330281577" y="0" dx="0em" dy="0.95em" fill="rgb(50, 49, 63)" stroke="none" stroke-width="1px">45</text><text style="text-anchor: middle; visibility: inherit; font-family: Roboto, sans-serif; font-size: 12px; font-weight: 200;" x="1267.3686663309732" y="0" dx="0em" dy="0.95em" fill="rgb(50, 49, 63)" stroke="none" stroke-width="1px">50</text><text style="text-anchor: middle; visibility: hidden; font-family: Roboto, sans-serif; font-size: 12px; font-weight: 200;" x="1382.583999633789" y="0" dx="0em" dy="0.95em" fill="rgb(50, 49, 63)" stroke="none" stroke-width="1px">55</text></g><line x1="0" y1="0" x2="1382.583999633789" y2="0" fill="rgb(0, 0, 0)" stroke="rgb(204, 204, 204)" stroke-width="1px"></line></g></g></g></g></svg>