<svg viewBox="0 0 1434 400" xmlns="http://www.w3.org/2000/svg"><g><g><g><g><g><line x1="51.41600036621094" y1="377.95999908447266" x2="46.41600036621094" y2="377.95999908447266" style="visibility: inherit;" fill="rgb(0, 0, 0)" stroke="rgb(204, 204, 204)" stroke-width="1px"></line><line x1="51.41600036621094" y1="340.16399917602536" x2="46.41600036621094" y2="340.16399917602536" style="visibility: inherit;" fill="rgb(0, 0, 0)" stroke="rgb(204, 204, 204)" stroke-width="1px"></line><line x1="51.41600036621094" y1="302.3679992675781" x2="46.41600036621094" y2="302.3679992675781" style="visibility: inherit;" fill="rgb(0, 0, 0)" stroke="rgb(204, 204, 204)" stroke-width="1px"></line><line x1="51.41600036621094" y1="264.57199935913087" x2="46.41600036621094" y2="264.57199935913087" style="visibility: inherit;" fill="rgb(0, 0, 0)" stroke="rgb(204, 204, 204)" stroke-width="1px"></line><line x1="51.41600036621094" y1="226.77599945068363" x2="46.41600036621094" y2="226.77599945068363" style="visibility: inherit;" fill="rgb(0, 0, 0)" stroke="rgb(204, 204, 204)" stroke-width="1px"></line><line x1="51.41600036621094" y1="188.97999954223633" x2="46.41600036621094" y2="188.97999954223633" style="visibility: inherit;" fill="rgb(0, 0, 0)" stroke="rgb(204, 204, 204)" stroke-width="1px"></line><line x1="51.41600036621094" y1="151.18399963378903" x2="46.41600036621094" y2="151.18399963378903" style="visibility: inherit;" fill="rgb(0, 0, 0)" stroke="rgb(204, 204, 204)" stroke-width="1px"></line><line x1="51.41600036621094" y1="113.38799972534181" x2="46.41600036621094" y2="113.38799972534181" style="visibility: inherit;" fill="rgb(0, 0, 0)" stroke="rgb(204, 204, 204)" stroke-width="1px"></line><line x1="51.41600036621094" y1="75.59199981689451" x2="46.41600036621094" y2="75.59199981689451" style="visibility: inherit;" fill="rgb(0, 0, 0)" stroke="rgb(204, 204, 204)" stroke-width="1px"></line><line x1="51.41600036621094" y1="37.7959999084473" x2="46.41600036621094" y2="37.7959999084473" style="visibility: inherit;" fill="rgb(0, 0, 0)" stroke="rgb(204, 204, 204)" stroke-width="1px"></line><line x1="51.41600036621094" y1="0" x2="46.41600036621094" y2="0" style="visibility: inherit;" fill="rgb(0, 0, 0)" stroke="rgb(204, 204, 204)" stroke-width="1px"></line></g><g transform="translate(41.41600036621094, 0)"><text style="text-anchor: end; visibility: hidden; font-family: Roboto, sans-serif; font-size: 12px; font-weight: 200;" x="0" y="377.95999908447266" dx="0em" dy="0.3em" fill="rgb(50, 49, 63)" stroke="none" stroke-width="1px">0.5</text><text style="text-anchor: end; visibility: inherit; font-family: Roboto, sans-serif; font-size: 12px; font-weight: 200;" x="0" y="340.16399917602536" dx="0em" dy="0.3em" fill="rgb(50, 49, 63)" stroke="none" stroke-width="1px">0.55</text><text style="text-anchor: end; visibility: inherit; font-family: Roboto, sans-serif; font-size: 12px; font-weight: 200;" x="0" y="302.3679992675781" dx="0em" dy="0.3em" fill="rgb(50, 49, 63)" stroke="none" stroke-width="1px">0.6</text><text style="text-anchor: end; visibility: inherit; font-family: Roboto, sans-serif; font-size: 12px; font-weight: 200;" x="0" y="264.57199935913087" dx="0em" dy="0.3em" fill="rgb(50, 49, 63)" stroke="none" stroke-width="1px">0.65</text><text style="text-anchor: end; visibility: inherit; font-family: Roboto, sans-serif; font-size: 12px; font-weight: 200;" x="0" y="226.77599945068363" dx="0em" dy="0.3em" fill="rgb(50, 49, 63)" stroke="none" stroke-width="1px">0.7</text><text style="text-anchor: end; visibility: inherit; font-family: Roboto, sans-serif; font-size: 12px; font-weight: 200;" x="0" y="188.97999954223633" dx="0em" dy="0.3em" fill="rgb(50, 49, 63)" stroke="none" stroke-width="1px">0.75</text><text style="text-anchor: end; visibility: inherit; font-family: Roboto, sans-serif; font-size: 12px; font-weight: 200;" x="0" y="151.18399963378903" dx="0em" dy="0.3em" fill="rgb(50, 49, 63)" stroke="none" stroke-width="1px">0.8</text><text style="text-anchor: end; visibility: inherit; font-family: Roboto, sans-serif; font-size: 12px; font-weight: 200;" x="0" y="113.38799972534181" dx="0em" dy="0.3em" fill="rgb(50, 49, 63)" stroke="none" stroke-width="1px">0.85</text><text style="text-anchor: end; visibility: inherit; font-family: Roboto, sans-serif; font-size: 12px; font-weight: 200;" x="0" y="75.59199981689451" dx="0em" dy="0.3em" fill="rgb(50, 49, 63)" stroke="none" stroke-width="1px">0.9</text><text style="text-anchor: end; visibility: inherit; font-family: Roboto, sans-serif; font-size: 12px; font-weight: 200;" x="0" y="37.7959999084473" dx="0em" dy="0.3em" fill="rgb(50, 49, 63)" stroke="none" stroke-width="1px">0.95</text><text style="text-anchor: end; visibility: hidden; font-family: Roboto, sans-serif; font-size: 12px; font-weight: 200;" x="0" y="0" dx="0em" dy="0.3em" fill="rgb(50, 49, 63)" stroke="none" stroke-width="1px">1</text></g><line x1="51.41600036621094" y1="0" x2="51.41600036621094" y2="377.95999908447266" fill="rgb(0, 0, 0)" stroke="rgb(204, 204, 204)" stroke-width="1px"></line></g></g><g transform="translate(51, 0)" clip-path="url(#clip_0)"><clipPath id="clip_0"><rect width="1382" height="377"></rect></clipPath><g><g><g><line x1="0" y1="0" x2="0" y2="377.95999908447266" fill="rgb(0, 0, 0)" stroke="rgb(60, 60, 60)" stroke-width="1px" opacity="0.25"></line><line x1="115.21533330281575" y1="0" x2="115.21533330281575" y2="377.95999908447266" fill="rgb(0, 0, 0)" stroke="rgb(60, 60, 60)" stroke-width="1px" opacity="0.25"></line><line x1="230.4306666056315" y1="0" x2="230.4306666056315" y2="377.95999908447266" fill="rgb(0, 0, 0)" stroke="rgb(60, 60, 60)" stroke-width="1px" opacity="0.25"></line><line x1="345.64599990844727" y1="0" x2="345.64599990844727" y2="377.95999908447266" fill="rgb(0, 0, 0)" stroke="rgb(60, 60, 60)" stroke-width="1px" opacity="0.25"></line><line x1="460.861333211263" y1="0" x2="460.861333211263" y2="377.95999908447266" fill="rgb(0, 0, 0)" stroke="rgb(60, 60, 60)" stroke-width="1px" opacity="0.25"></line><line x1="576.0766665140789" y1="0" x2="576.0766665140789" y2="377.95999908447266" fill="rgb(0, 0, 0)" stroke="rgb(60, 60, 60)" stroke-width="1px" opacity="0.25"></line><line x1="691.2919998168945" y1="0" x2="691.2919998168945" y2="377.95999908447266" fill="rgb(0, 0, 0)" stroke="rgb(60, 60, 60)" stroke-width="1px" opacity="0.25"></line><line x1="806.5073331197103" y1="0" x2="806.5073331197103" y2="377.95999908447266" fill="rgb(0, 0, 0)" stroke="rgb(60, 60, 60)" stroke-width="1px" opacity="0.25"></line><line x1="921.722666422526" y1="0" x2="921.722666422526" y2="377.95999908447266" fill="rgb(0, 0, 0)" stroke="rgb(60, 60, 60)" stroke-width="1px" opacity="0.25"></line><line x1="1036.9379997253418" y1="0" x2="1036.9379997253418" y2="377.95999908447266" fill="rgb(0, 0, 0)" stroke="rgb(60, 60, 60)" stroke-width="1px" opacity="0.25"></line><line x1="1152.1533330281577" y1="0" x2="1152.1533330281577" y2="377.95999908447266" fill="rgb(0, 0, 0)" stroke="rgb(60, 60, 60)" stroke-width="1px" opacity="0.25"></line><line x1="1267.3686663309732" y1="0" x2="1267.3686663309732" y2="377.95999908447266" fill="rgb(0, 0, 0)" stroke="rgb(60, 60, 60)" stroke-width="1px" opacity="0.25"></line><line x1="1382.583999633789" y1="0" x2="1382.583999633789" y2="377.95999908447266" fill="rgb(0, 0, 0)" stroke="rgb(60, 60, 60)" stroke-width="1px" opacity="0.25"></line></g><g><line x1="0" y1="377.95999908447266" x2="1382.583999633789" y2="377.95999908447266" fill="rgb(0, 0, 0)" stroke="rgb(60, 60, 60)" stroke-width="1px" opacity="0.25"></line><line x1="0" y1="340.16399917602536" x2="1382.583999633789" y2="340.16399917602536" fill="rgb(0, 0, 0)" stroke="rgb(60, 60, 60)" stroke-width="1px" opacity="0.25"></line><line x1="0" y1="302.3679992675781" x2="1382.583999633789" y2="302.3679992675781" fill="rgb(0, 0, 0)" stroke="rgb(60, 60, 60)" stroke-width="1px" opacity="0.25"></line><line x1="0" y1="264.57199935913087" x2="1382.583999633789" y2="264.57199935913087" fill="rgb(0, 0, 0)" stroke="rgb(60, 60, 60)" stroke-width="1px" opacity="0.25"></line><line x1="0" y1="226.77599945068363" x2="1382.583999633789" y2="226.77599945068363" fill="rgb(0, 0, 0)" stroke="rgb(60, 60, 60)" stroke-width="1px" opacity="0.25"></line><line x1="0" y1="188.97999954223633" x2="1382.583999633789" y2="188.97999954223633" fill="rgb(0, 0, 0)" stroke="rgb(60, 60, 60)" stroke-width="1px" opacity="0.25"></line><line x1="0" y1="151.18399963378903" x2="1382.583999633789" y2="151.18399963378903" fill="rgb(0, 0, 0)" stroke="rgb(60, 60, 60)" stroke-width="1px" opacity="0.25"></line><line x1="0" y1="113.38799972534181" x2="1382.583999633789" y2="113.38799972534181" fill="rgb(0, 0, 0)" stroke="rgb(60, 60, 60)" stroke-width="1px" opacity="0.25"></line><line x1="0" y1="75.59199981689451" x2="1382.583999633789" y2="75.59199981689451" fill="rgb(0, 0, 0)" stroke="rgb(60, 60, 60)" stroke-width="1px" opacity="0.25"></line><line x1="0" y1="37.7959999084473" x2="1382.583999633789" y2="37.7959999084473" fill="rgb(0, 0, 0)" stroke="rgb(60, 60, 60)" stroke-width="1px" opacity="0.25"></line><line x1="0" y1="0" x2="1382.583999633789" y2="0" fill="rgb(0, 0, 0)" stroke="rgb(60, 60, 60)" stroke-width="1px" opacity="0.25"></line></g></g></g><g><g><line x1="0" y1="755.9199981689453" x2="1382.583999633789" y2="755.9199981689453" fill="rgb(0, 0, 0)" stroke="rgb(153, 153, 153)" stroke-width="1.5px"></line></g></g><g><g><line x1="115.21533330281575" y1="0" x2="115.21533330281575" y2="377.95999908447266" fill="rgb(0, 0, 0)" stroke="rgb(153, 153, 153)" stroke-width="1.5px"></line></g></g><g><g><g><g><g><path style="fill: none;" stroke="rgb(0, 119, 187)" stroke-width="2px" d="M115.21533330281575,159.7342427151516L138.2583999633789,133.5005024155762L161.30146662394205,116.01138727220223L184.34453328450522,119.89785730406311L207.38759994506836,117.95462228813267L230.4306666056315,110.57029318252262L253.47373326619464,107.65546318679844L276.5167999267578,107.4611351795711L299.559866587321,114.84541922883818L322.6029332478841,106.68382315066174L345.64599990844727,98.5222270724853L368.68906656901044,102.21436909711883L391.73213322957355,101.82571308266415L414.7751998901367,103.76894809859459L437.81826655069983,100.07680607396105L460.861333211263,95.4130240131908L483.9043998718261,99.68815005950637L506.9474665323893,105.32357215641332L529.9905331929525,98.71655507971263L553.0335998535156,91.52655398132993L576.0766665140789,98.71655507971263L599.119733174642,98.5222270724853L622.1627998352051,97.1619310218939L645.2058664957682,100.27113408118839L668.2489331563314,100.46546208841573L691.2919998168945,97.93924305080327L714.3350664774578,104.15760411304927L737.3781331380209,103.76894809859459L760.4211997985841,96.96764807100953L783.4642664591471,91.52655398132993L806.5073331197103,100.46546208841573L829.5503997802734,94.63575704062441L852.5934664408367,98.5222270724853L875.6365331013997,91.33222597410258L898.6795997619629,94.44142903339707L921.722666422526,96.19033604210017L944.7657330830892,95.80168002764549L967.8087997436522,89.38899095817214L990.8518664042155,94.24710102616973L1013.8949330647786,99.88247806673371L1036.9379997253418,100.27113408118839L1059.981066385905,92.10953800301195L1083.024133046468,94.24710102616973L1106.0671997070312,95.99600803487283L1129.1102663675945,101.04844611009776L1152.1533330281577,86.66844391333234L1175.1963996887207,89.58331896539949L1198.239466349284,102.60302511157352L1221.282533009847,89.58331896539949L1244.3255996704102,91.33222597410258" fill="none"></path></g><g><path style="fill: none;" stroke="rgb(51, 187, 238)" stroke-width="2px" d="M115.21533330281575,122.81268729978729L138.2583999633789,99.10521109416732L161.30146662394205,102.21436909711883L184.34453328450522,93.85844501171505L207.38759994506836,86.66844391333234L230.4306666056315,87.64008394946904L253.47373326619464,93.46978899726037L276.5167999267578,94.83008504785175L299.559866587321,91.33222597410258L322.6029332478841,88.02873996392373L345.64599990844727,93.08113298280568L368.68906656901044,91.13789796687524L391.73213322957355,88.41739597837841L414.7751998901367,87.83441195669639L437.81826655069983,96.57899205655485L460.861333211263,88.22306797115107L483.9043998718261,90.55495900153619L506.9474665323893,87.4457559422417L529.9905331929525,94.24710102616973L553.0335998535156,92.49819401746663L576.0766665140789,95.4130240131908L599.119733174642,95.99600803487283L622.1627998352051,91.52655398132993L645.2058664957682,94.44142903339707L668.2489331563314,93.08113298280568L691.2919998168945,94.44142903339707L714.3350664774578,88.02873996392373L737.3781331380209,89.97197497985417L760.4211997985841,93.27546099003303L783.4642664591471,93.85844501171505L806.5073331197103,90.36063099430885L829.5503997802734,88.61172398560575L852.5934664408367,92.30386601023929L875.6365331013997,89.58331896539949L898.6795997619629,91.52655398132993L921.722666422526,92.88685003192131L944.7657330830892,94.24710102616973L967.8087997436522,92.49819401746663L990.8518664042155,94.83008504785175L1013.8949330647786,90.36063099430885L1036.9379997253418,91.13789796687524L1059.981066385905,94.24710102616973L1083.024133046468,90.16630298708151L1106.0671997070312,87.05709992778702L1129.1102663675945,89.77764697262683L1152.1533330281577,88.80600693649012L1175.1963996887207,88.41739597837841L1198.239466349284,90.9435699596479L1221.282533009847,88.80600693649012L1244.3255996704102,89.1946629509448" fill="none"></path></g><g><path style="fill: none;" stroke="rgb(0, 153, 136)" stroke-width="2px" d="M115.21533330281575,141.07915952841358L138.2583999633789,124.7559673720607L161.30146662394205,117.37163826645065L184.34453328450522,111.930589233114L207.38759994506836,105.51790016364066L230.4306666056315,102.79735311880086L253.47373326619464,101.2427741173251L276.5167999267578,96.7733200637822L299.559866587321,95.80168002764549L322.6029332478841,93.85844501171505L345.64599990844727,91.52655398132993L368.68906656901044,92.88685003192131L391.73213322957355,90.9435699596479L414.7751998901367,88.80600693649012L437.81826655069983,87.83441195669639L460.861333211263,86.86277192055968L483.9043998718261,87.4457559422417L506.9474665323893,86.47416096244797L529.9905331929525,85.6968489335386L553.0335998535156,84.14226993206285L576.0766665140789,84.7252088974019L599.119733174642,84.14226993206285L622.1627998352051,83.75361391760816L645.2058664957682,82.00470690890506L668.2489331563314,82.39331786701678L691.2919998168945,81.81037890167772L714.3350664774578,82.78197388147146L737.3781331380209,81.81037890167772L760.4211997985841,81.61605089445038L783.4642664591471,82.78197388147146L806.5073331197103,81.42172288722304L829.5503997802734,81.2273948799957L852.5934664408367,81.03306687276836L875.6365331013997,82.39331786701678L898.6795997619629,80.83873886554102L921.722666422526,81.03306687276836L944.7657330830892,81.2273948799957L967.8087997436522,81.42172288722304L990.8518664042155,80.64441085831368L1013.8949330647786,82.39331786701678L1036.9379997253418,78.89550384961058L1059.981066385905,82.39331786701678L1083.024133046468,80.83873886554102L1106.0671997070312,81.42172288722304L1129.1102663675945,78.89550384961058L1152.1533330281577,80.83873886554102L1175.1963996887207,82.1990349161324L1198.239466349284,80.64441085831368L1221.282533009847,81.81037890167772L1244.3255996704102,83.55928591038082" fill="none"></path></g><g><path style="fill: none;" stroke="rgb(255, 112, 67)" stroke-width="2px" d="M115.21533330281575,315.970671412897L138.2583999633789,238.2410905503075L161.30146662394205,206.95495723185013L184.34453328450522,185.19067098581763L207.38759994506836,171.3936978670772L230.4306666056315,161.67747773108204L253.47373326619464,156.2364286977454L276.5167999267578,151.3783186297478L299.559866587321,147.10319258343225L322.6029332478841,143.21672255157137L345.64599990844727,139.33025251971048L368.68906656901044,137.77562846189176L391.73213322957355,136.80403348209802L414.7751998901367,136.41537746764334L437.81826655069983,135.24945448062226L460.861333211263,133.30621946469182L483.9043998718261,131.55726739964575L506.9474665323893,130.58567241985202L529.9905331929525,130.00268839817L553.0335998535156,127.86512537501221L576.0766665140789,126.5048743807638L599.119733174642,125.33890633739975L622.1627998352051,123.78432733592399L645.2058664957682,122.81268729978729L668.2489331563314,121.64676431276621L691.2919998168945,121.25810829831153L714.3350664774578,120.28651331851779L737.3781331380209,119.50920128960843L760.4211997985841,119.31487328238109L783.4642664591471,117.95462228813267L806.5073331197103,116.78865424476862L829.5503997802734,116.78865424476862L852.5934664408367,116.20571527942957L875.6365331013997,115.62273125774755L898.6795997619629,115.62273125774755L921.722666422526,114.4567632143835L944.7657330830892,113.29084022736242L967.8087997436522,113.09651222013508L990.8518664042155,112.31920019122572L1013.8949330647786,111.73626122588666L1036.9379997253418,111.15327720420464L1059.981066385905,110.57029318252262L1083.024133046468,109.59869820272888L1106.0671997070312,107.84974613768281L1129.1102663675945,107.65546318679844L1152.1533330281577,107.07247916511642L1175.1963996887207,106.4894951434344L1198.239466349284,105.71218311452503L1221.282533009847,104.93491614195864L1244.3255996704102,104.15760411304927" fill="none"></path></g></g></g></g></g></g><g transform="translate(51, 377)" clip-path="url(#clip_1)"><clipPath id="clip_1"><rect width="1382" height="22"></rect></clipPath><g><g><line x1="0" y1="0" x2="0" y2="5" style="visibility: inherit;" fill="rgb(0, 0, 0)" stroke="rgb(204, 204, 204)" stroke-width="1px"></line><line x1="115.21533330281575" y1="0" x2="115.21533330281575" y2="5" style="visibility: inherit;" fill="rgb(0, 0, 0)" stroke="rgb(204, 204, 204)" stroke-width="1px"></line><line x1="230.4306666056315" y1="0" x2="230.4306666056315" y2="5" style="visibility: inherit;" fill="rgb(0, 0, 0)" stroke="rgb(204, 204, 204)" stroke-width="1px"></line><line x1="345.64599990844727" y1="0" x2="345.64599990844727" y2="5" style="visibility: inherit;" fill="rgb(0, 0, 0)" stroke="rgb(204, 204, 204)" stroke-width="1px"></line><line x1="460.861333211263" y1="0" x2="460.861333211263" y2="5" style="visibility: inherit;" fill="rgb(0, 0, 0)" stroke="rgb(204, 204, 204)" stroke-width="1px"></line><line x1="576.0766665140789" y1="0" x2="576.0766665140789" y2="5" style="visibility: inherit;" fill="rgb(0, 0, 0)" stroke="rgb(204, 204, 204)" stroke-width="1px"></line><line x1="691.2919998168945" y1="0" x2="691.2919998168945" y2="5" style="visibility: inherit;" fill="rgb(0, 0, 0)" stroke="rgb(204, 204, 204)" stroke-width="1px"></line><line x1="806.5073331197103" y1="0" x2="806.5073331197103" y2="5" style="visibility: inherit;" fill="rgb(0, 0, 0)" stroke="rgb(204, 204, 204)" stroke-width="1px"></line><line x1="921.722666422526" y1="0" x2="921.722666422526" y2="5" style="visibility: inherit;" fill="rgb(0, 0, 0)" stroke="rgb(204, 204, 204)" stroke-width="1px"></line><line x1="1036.9379997253418" y1="0" x2="1036.9379997253418" y2="5" style="visibility: inherit;" fill="rgb(0, 0, 0)" stroke="rgb(204, 204, 204)" stroke-width="1px"></line><line x1="1152.1533330281577" y1="0" x2="1152.1533330281577" y2="5" style="visibility: inherit;" fill="rgb(0, 0, 0)" stroke="rgb(204, 204, 204)" stroke-width="1px"></line><line x1="1267.3686663309732" y1="0" x2="1267.3686663309732" y2="5" style="visibility: inherit;" fill="rgb(0, 0, 0)" stroke="rgb(204, 204, 204)" stroke-width="1px"></line><line x1="1382.583999633789" y1="0" x2="1382.583999633789" y2="5" style="visibility: inherit;" fill="rgb(0, 0, 0)" stroke="rgb(204, 204, 204)" stroke-width="1px"></line></g><g transform="translate(0, 8)"><text style="text-anchor: middle; visibility: hidden; font-family: Roboto, sans-serif; font-size: 12px; font-weight: 200;" x="0" y="0" dx="0em" dy="0.95em" fill="rgb(50, 49, 63)" stroke="none" stroke-width="1px">-5</text><text style="text-anchor: middle; visibility: inherit; font-family: Roboto, sans-serif; font-size: 12px; font-weight: 200;" x="115.21533330281575" y="0" dx="0em" dy="0.95em" fill="rgb(50, 49, 63)" stroke="none" stroke-width="1px">0</text><text style="text-anchor: middle; visibility: inherit; font-family: Roboto, sans-serif; font-size: 12px; font-weight: 200;" x="230.4306666056315" y="0" dx="0em" dy="0.95em" fill="rgb(50, 49, 63)" stroke="none" stroke-width="1px">5</text><text style="text-anchor: middle; visibility: inherit; font-family: Roboto, sans-serif; font-size: 12px; font-weight: 200;" x="345.64599990844727" y="0" dx="0em" dy="0.95em" fill="rgb(50, 49, 63)" stroke="none" stroke-width="1px">10</text><text style="text-anchor: middle; visibility: inherit; font-family: Roboto, sans-serif; font-size: 12px; font-weight: 200;" x="460.861333211263" y="0" dx="0em" dy="0.95em" fill="rgb(50, 49, 63)" stroke="none" stroke-width="1px">15</text><text style="text-anchor: middle; visibility: inherit; font-family: Roboto, sans-serif; font-size: 12px; font-weight: 200;" x="576.0766665140789" y="0" dx="0em" dy="0.95em" fill="rgb(50, 49, 63)" stroke="none" stroke-width="1px">20</text><text style="text-anchor: middle; visibility: inherit; font-family: Roboto, sans-serif; font-size: 12px; font-weight: 200;" x="691.2919998168945" y="0" dx="0em" dy="0.95em" fill="rgb(50, 49, 63)" stroke="none" stroke-width="1px">25</text><text style="text-anchor: middle; visibility: inherit; font-family: Roboto, sans-serif; font-size: 12px; font-weight: 200;" x="806.5073331197103" y="0" dx="0em" dy="0.95em" fill="rgb(50, 49, 63)" stroke="none" stroke-width="1px">30</text><text style="text-anchor: middle; visibility: inherit; font-family: Roboto, sans-serif; font-size: 12px; font-weight: 200;" x="921.722666422526" y="0" dx="0em" dy="0.95em" fill="rgb(50, 49, 63)" stroke="none" stroke-width="1px">35</text><text style="text-anchor: middle; visibility: inherit; font-family: Roboto, sans-serif; font-size: 12px; font-weight: 200;" x="1036.9379997253418" y="0" dx="0em" dy="0.95em" fill="rgb(50, 49, 63)" stroke="none" stroke-width="1px">40</text><text style="text-anchor: middle; visibility: inherit; font-family: Roboto, sans-serif; font-size: 12px; font-weight: 200;" x="1152.1533330281577" y="0" dx="0em" dy="0.95em" fill="rgb(50, 49, 63)" stroke="none" stroke-width="1px">45</text><text style="text-anchor: middle; visibility: inherit; font-family: Roboto, sans-serif; font-size: 12px; font-weight: 200;" x="1267.3686663309732" y="0" dx="0em" dy="0.95em" fill="rgb(50, 49, 63)" stroke="none" stroke-width="1px">50</text><text style="text-anchor: middle; visibility: hidden; font-family: Roboto, sans-serif; font-size: 12px; font-weight: 200;" x="1382.583999633789" y="0" dx="0em" dy="0.95em" fill="rgb(50, 49, 63)" stroke="none" stroke-width="1px">55</text></g><line x1="0" y1="0" x2="1382.583999633789" y2="0" fill="rgb(0, 0, 0)" stroke="rgb(204, 204, 204)" stroke-width="1px"></line></g></g></g></g></svg>