<svg viewBox="0 0 1434 400" xmlns="http://www.w3.org/2000/svg"><g><g><g><g><g><line x1="30.70800018310547" y1="377.95999908447266" x2="25.70800018310547" y2="377.95999908447266" style="visibility: inherit;" fill="rgb(0, 0, 0)" stroke="rgb(204, 204, 204)" stroke-width="1px"></line><line x1="30.70800018310547" y1="340.1639991760254" x2="25.70800018310547" y2="340.1639991760254" style="visibility: inherit;" fill="rgb(0, 0, 0)" stroke="rgb(204, 204, 204)" stroke-width="1px"></line><line x1="30.70800018310547" y1="302.3679992675781" x2="25.70800018310547" y2="302.3679992675781" style="visibility: inherit;" fill="rgb(0, 0, 0)" stroke="rgb(204, 204, 204)" stroke-width="1px"></line><line x1="30.70800018310547" y1="264.57199935913087" x2="25.70800018310547" y2="264.57199935913087" style="visibility: inherit;" fill="rgb(0, 0, 0)" stroke="rgb(204, 204, 204)" stroke-width="1px"></line><line x1="30.70800018310547" y1="226.7759994506836" x2="25.70800018310547" y2="226.7759994506836" style="visibility: inherit;" fill="rgb(0, 0, 0)" stroke="rgb(204, 204, 204)" stroke-width="1px"></line><line x1="30.70800018310547" y1="188.97999954223633" x2="25.70800018310547" y2="188.97999954223633" style="visibility: inherit;" fill="rgb(0, 0, 0)" stroke="rgb(204, 204, 204)" stroke-width="1px"></line><line x1="30.70800018310547" y1="151.18399963378906" x2="25.70800018310547" y2="151.18399963378906" style="visibility: inherit;" fill="rgb(0, 0, 0)" stroke="rgb(204, 204, 204)" stroke-width="1px"></line><line x1="30.70800018310547" y1="113.38799972534181" x2="25.70800018310547" y2="113.38799972534181" style="visibility: inherit;" fill="rgb(0, 0, 0)" stroke="rgb(204, 204, 204)" stroke-width="1px"></line><line x1="30.70800018310547" y1="75.59199981689451" x2="25.70800018310547" y2="75.59199981689451" style="visibility: inherit;" fill="rgb(0, 0, 0)" stroke="rgb(204, 204, 204)" stroke-width="1px"></line><line x1="30.70800018310547" y1="37.79599990844726" x2="25.70800018310547" y2="37.79599990844726" style="visibility: inherit;" fill="rgb(0, 0, 0)" stroke="rgb(204, 204, 204)" stroke-width="1px"></line><line x1="30.70800018310547" y1="0" x2="25.70800018310547" y2="0" style="visibility: inherit;" fill="rgb(0, 0, 0)" stroke="rgb(204, 204, 204)" stroke-width="1px"></line></g><g transform="translate(20.70800018310547, 0)"><text style="text-anchor: end; visibility: hidden; font-family: Roboto, sans-serif; font-size: 12px; font-weight: 200;" x="0" y="377.95999908447266" dx="0em" dy="0.3em" fill="rgb(50, 49, 63)" stroke="none" stroke-width="1px">-1</text><text style="text-anchor: end; visibility: inherit; font-family: Roboto, sans-serif; font-size: 12px; font-weight: 200;" x="0" y="340.1639991760254" dx="0em" dy="0.3em" fill="rgb(50, 49, 63)" stroke="none" stroke-width="1px">0</text><text style="text-anchor: end; visibility: inherit; font-family: Roboto, sans-serif; font-size: 12px; font-weight: 200;" x="0" y="302.3679992675781" dx="0em" dy="0.3em" fill="rgb(50, 49, 63)" stroke="none" stroke-width="1px">1</text><text style="text-anchor: end; visibility: inherit; font-family: Roboto, sans-serif; font-size: 12px; font-weight: 200;" x="0" y="264.57199935913087" dx="0em" dy="0.3em" fill="rgb(50, 49, 63)" stroke="none" stroke-width="1px">2</text><text style="text-anchor: end; visibility: inherit; font-family: Roboto, sans-serif; font-size: 12px; font-weight: 200;" x="0" y="226.7759994506836" dx="0em" dy="0.3em" fill="rgb(50, 49, 63)" stroke="none" stroke-width="1px">3</text><text style="text-anchor: end; visibility: inherit; font-family: Roboto, sans-serif; font-size: 12px; font-weight: 200;" x="0" y="188.97999954223633" dx="0em" dy="0.3em" fill="rgb(50, 49, 63)" stroke="none" stroke-width="1px">4</text><text style="text-anchor: end; visibility: inherit; font-family: Roboto, sans-serif; font-size: 12px; font-weight: 200;" x="0" y="151.18399963378906" dx="0em" dy="0.3em" fill="rgb(50, 49, 63)" stroke="none" stroke-width="1px">5</text><text style="text-anchor: end; visibility: inherit; font-family: Roboto, sans-serif; font-size: 12px; font-weight: 200;" x="0" y="113.38799972534181" dx="0em" dy="0.3em" fill="rgb(50, 49, 63)" stroke="none" stroke-width="1px">6</text><text style="text-anchor: end; visibility: inherit; font-family: Roboto, sans-serif; font-size: 12px; font-weight: 200;" x="0" y="75.59199981689451" dx="0em" dy="0.3em" fill="rgb(50, 49, 63)" stroke="none" stroke-width="1px">7</text><text style="text-anchor: end; visibility: inherit; font-family: Roboto, sans-serif; font-size: 12px; font-weight: 200;" x="0" y="37.79599990844726" dx="0em" dy="0.3em" fill="rgb(50, 49, 63)" stroke="none" stroke-width="1px">8</text><text style="text-anchor: end; visibility: hidden; font-family: Roboto, sans-serif; font-size: 12px; font-weight: 200;" x="0" y="0" dx="0em" dy="0.3em" fill="rgb(50, 49, 63)" stroke="none" stroke-width="1px">9</text></g><line x1="30.70800018310547" y1="0" x2="30.70800018310547" y2="377.95999908447266" fill="rgb(0, 0, 0)" stroke="rgb(204, 204, 204)" stroke-width="1px"></line></g></g><g transform="translate(30, 0)" clip-path="url(#clip_0)"><clipPath id="clip_0"><rect width="1403" height="377"></rect></clipPath><g><g><g><line x1="0" y1="0" x2="0" y2="377.95999908447266" fill="rgb(0, 0, 0)" stroke="rgb(60, 60, 60)" stroke-width="1px" opacity="0.25"></line><line x1="116.94099998474121" y1="0" x2="116.94099998474121" y2="377.95999908447266" fill="rgb(0, 0, 0)" stroke="rgb(60, 60, 60)" stroke-width="1px" opacity="0.25"></line><line x1="233.88199996948242" y1="0" x2="233.88199996948242" y2="377.95999908447266" fill="rgb(0, 0, 0)" stroke="rgb(60, 60, 60)" stroke-width="1px" opacity="0.25"></line><line x1="350.82299995422363" y1="0" x2="350.82299995422363" y2="377.95999908447266" fill="rgb(0, 0, 0)" stroke="rgb(60, 60, 60)" stroke-width="1px" opacity="0.25"></line><line x1="467.76399993896484" y1="0" x2="467.76399993896484" y2="377.95999908447266" fill="rgb(0, 0, 0)" stroke="rgb(60, 60, 60)" stroke-width="1px" opacity="0.25"></line><line x1="584.704999923706" y1="0" x2="584.704999923706" y2="377.95999908447266" fill="rgb(0, 0, 0)" stroke="rgb(60, 60, 60)" stroke-width="1px" opacity="0.25"></line><line x1="701.6459999084473" y1="0" x2="701.6459999084473" y2="377.95999908447266" fill="rgb(0, 0, 0)" stroke="rgb(60, 60, 60)" stroke-width="1px" opacity="0.25"></line><line x1="818.5869998931885" y1="0" x2="818.5869998931885" y2="377.95999908447266" fill="rgb(0, 0, 0)" stroke="rgb(60, 60, 60)" stroke-width="1px" opacity="0.25"></line><line x1="935.5279998779297" y1="0" x2="935.5279998779297" y2="377.95999908447266" fill="rgb(0, 0, 0)" stroke="rgb(60, 60, 60)" stroke-width="1px" opacity="0.25"></line><line x1="1052.468999862671" y1="0" x2="1052.468999862671" y2="377.95999908447266" fill="rgb(0, 0, 0)" stroke="rgb(60, 60, 60)" stroke-width="1px" opacity="0.25"></line><line x1="1169.409999847412" y1="0" x2="1169.409999847412" y2="377.95999908447266" fill="rgb(0, 0, 0)" stroke="rgb(60, 60, 60)" stroke-width="1px" opacity="0.25"></line><line x1="1286.3509998321533" y1="0" x2="1286.3509998321533" y2="377.95999908447266" fill="rgb(0, 0, 0)" stroke="rgb(60, 60, 60)" stroke-width="1px" opacity="0.25"></line><line x1="1403.2919998168945" y1="0" x2="1403.2919998168945" y2="377.95999908447266" fill="rgb(0, 0, 0)" stroke="rgb(60, 60, 60)" stroke-width="1px" opacity="0.25"></line></g><g><line x1="0" y1="377.95999908447266" x2="1403.2919998168945" y2="377.95999908447266" fill="rgb(0, 0, 0)" stroke="rgb(60, 60, 60)" stroke-width="1px" opacity="0.25"></line><line x1="0" y1="340.1639991760254" x2="1403.2919998168945" y2="340.1639991760254" fill="rgb(0, 0, 0)" stroke="rgb(60, 60, 60)" stroke-width="1px" opacity="0.25"></line><line x1="0" y1="302.3679992675781" x2="1403.2919998168945" y2="302.3679992675781" fill="rgb(0, 0, 0)" stroke="rgb(60, 60, 60)" stroke-width="1px" opacity="0.25"></line><line x1="0" y1="264.57199935913087" x2="1403.2919998168945" y2="264.57199935913087" fill="rgb(0, 0, 0)" stroke="rgb(60, 60, 60)" stroke-width="1px" opacity="0.25"></line><line x1="0" y1="226.7759994506836" x2="1403.2919998168945" y2="226.7759994506836" fill="rgb(0, 0, 0)" stroke="rgb(60, 60, 60)" stroke-width="1px" opacity="0.25"></line><line x1="0" y1="188.97999954223633" x2="1403.2919998168945" y2="188.97999954223633" fill="rgb(0, 0, 0)" stroke="rgb(60, 60, 60)" stroke-width="1px" opacity="0.25"></line><line x1="0" y1="151.18399963378906" x2="1403.2919998168945" y2="151.18399963378906" fill="rgb(0, 0, 0)" stroke="rgb(60, 60, 60)" stroke-width="1px" opacity="0.25"></line><line x1="0" y1="113.38799972534181" x2="1403.2919998168945" y2="113.38799972534181" fill="rgb(0, 0, 0)" stroke="rgb(60, 60, 60)" stroke-width="1px" opacity="0.25"></line><line x1="0" y1="75.59199981689451" x2="1403.2919998168945" y2="75.59199981689451" fill="rgb(0, 0, 0)" stroke="rgb(60, 60, 60)" stroke-width="1px" opacity="0.25"></line><line x1="0" y1="37.79599990844726" x2="1403.2919998168945" y2="37.79599990844726" fill="rgb(0, 0, 0)" stroke="rgb(60, 60, 60)" stroke-width="1px" opacity="0.25"></line><line x1="0" y1="0" x2="1403.2919998168945" y2="0" fill="rgb(0, 0, 0)" stroke="rgb(60, 60, 60)" stroke-width="1px" opacity="0.25"></line></g></g></g><g><g><line x1="0" y1="340.1639991760254" x2="1403.2919998168945" y2="340.1639991760254" fill="rgb(0, 0, 0)" stroke="rgb(153, 153, 153)" stroke-width="1.5px"></line></g></g><g><g><line x1="116.94099998474121" y1="0" x2="116.94099998474121" y2="377.95999908447266" fill="rgb(0, 0, 0)" stroke="rgb(153, 153, 153)" stroke-width="1.5px"></line></g></g><g><g><g><g><g><path style="fill: none;" stroke="rgb(0, 119, 187)" stroke-width="2px" d="M116.94099998474121,266.2354660246609L140.32919998168947,251.27883725620651L163.7173999786377,271.97297227783383L187.10559997558593,264.0576721928657L210.49379997253416,256.88645958950127L233.88199996948242,257.23059092583355L257.27019996643065,258.93900129347566L280.65839996337894,252.35265606692937L304.04659996032717,238.2478490017529L327.4347999572754,237.53830171266964L350.82299995422363,253.19755261029295L374.21119995117186,238.15819589051225L397.5993999481201,240.27387054225548L420.9875999450683,225.1360116454749L444.37579994201656,227.23963823110807L467.76399993896484,228.8470773341556L491.1521999359131,220.65771753744139L514.5403999328613,198.10592751771983L537.9285999298096,197.37573541228792L561.3167999267579,198.0680351332825L584.704999923706,191.5949525416929L608.0931999206543,196.29200420611178L631.4813999176025,187.7948014516929L654.8695999145508,184.0282173372052L678.257799911499,180.2242725031272L701.6459999084473,176.58114276837588L725.0341999053956,163.8401461485424L748.4223999023437,163.8116705397857L771.810599899292,170.63233578357904L795.1987998962402,170.7667298433884L818.5869998931885,147.8518848232874L841.9751998901367,158.5403307278779L865.363399887085,153.90448359974872L888.7515998840331,154.10871499116072L912.1397998809815,147.69123192679544L935.5279998779297,140.29622446790162L958.916199874878,133.21158312191872L982.3043998718261,139.28618741628634L1005.6925998687744,122.59517329846787L1029.0807998657226,111.71821165489311L1052.468999862671,100.03299328605752L1075.8571998596192,118.09492774013961L1099.2453998565675,112.34658543648256L1122.6335998535158,111.91907283185103L1146.0217998504638,98.868611225966L1169.409999847412,121.41359773789918L1192.7981998443604,109.7033100198354L1216.1863998413087,83.39181148356329L1239.5745998382567,100.2225723547359L1262.962799835205,99.94340325369704" fill="none"></path></g><g><path style="fill: none;" stroke="rgb(51, 187, 238)" stroke-width="2px" d="M116.94099998474121,327.17805487404695L140.32919998168947,329.580409519202L163.7173999786377,328.88404008402875L187.10559997558593,329.6708804030676L210.49379997253416,329.80652928202863L233.88199996948242,329.45571946925975L257.27019996643065,328.31943229182684L280.65839996337894,327.5960831184834L304.04659996032717,326.9909201119747L327.4347999572754,326.99430722255744L350.82299995422363,325.59897085403867L374.21119995117186,326.030053047442L397.5993999481201,324.85384482372956L420.9875999450683,324.8712444569758L444.37579994201656,323.0535589407298L467.76399993896484,323.50783501308524L491.1521999359131,323.6801484911377L514.5403999328613,322.34191202606416L537.9285999298096,321.4916751796501L561.3167999267579,321.64416161397884L584.704999923706,319.6946029403126L608.0931999206543,319.39876975082655L631.4813999176025,319.65480692538483L654.8695999145508,319.0961983852493L678.257799911499,317.7335954498979L701.6459999084473,317.1754915408036L725.0341999053956,316.93357952976623L748.4223999023437,316.12472130232675L771.810599899292,315.22106002364524L795.1987998962402,314.32220400394147L818.5869998931885,315.3869822594475L841.9751998901367,314.67095136261094L865.363399887085,314.20530306929L888.7515998840331,313.07679937510505L912.1397998809815,313.298568948018L935.5279998779297,310.93722233341657L958.916199874878,311.17040242518647L982.3043998718261,310.69381895742686L1005.6925998687744,309.89280729211555L1029.0807998657226,309.15416486955974L1052.468999862671,309.69301395048603L1075.8571998596192,308.1616795163482L1099.2453998565675,308.7144307318977L1122.6335998535158,307.90503182834266L1146.0217998504638,307.84820676858953L1169.409999847412,307.76528958062283L1192.7981998443604,306.3942566035018L1216.1863998413087,306.8384783529236L1239.5745998382567,306.49408343698497L1262.962799835205,305.87688588126906" fill="none"></path></g><g><path style="fill: none;" stroke="rgb(0, 153, 136)" stroke-width="2px" d="M116.94099998474121,321.02716230617204L140.32919998168947,324.89413645843L163.7173999786377,326.6574502327976L187.10559997558593,327.78365267426534L210.49379997253416,328.5717523180902L233.88199996948242,329.1836760288615L257.27019996643065,329.67133209290586L280.65839996337894,330.0378282714796L304.04659996032717,330.34796459704137L327.4347999572754,330.6603909112346L350.82299995422363,330.9443985003041L374.21119995117186,331.129396465311L397.5993999481201,331.2553480928564L420.9875999450683,331.40863202445576L444.37579994201656,331.53440680585504L467.76399993896484,331.64831036729043L491.1521999359131,331.66873834998853L514.5403999328613,331.78360555395915L537.9285999298096,331.90147069435017L561.3167999267579,331.915438723875L584.704999923706,331.975498265849L608.0931999206543,331.97696090738265L631.4813999176025,332.0674453081511L654.8695999145508,332.09255746090514L678.257799911499,332.0856925638495L701.6459999084473,332.1043380049788L725.0341999053956,332.03865317858504L748.4223999023437,332.0382228905097L771.810599899292,332.0209043586808L795.1987998962402,332.0266811450538L818.5869998931885,332.061715267734L841.9751998901367,331.9792779298199L865.363399887085,331.9395382353208L888.7515998840331,331.91198571839067L912.1397998809815,331.9285906703878L935.5279998779297,331.947188802357L958.916199874878,331.8816633627765L982.3043998718261,331.8014304064422L1005.6925998687744,331.80707258699056L1029.0807998657226,331.71453080096126L1052.468999862671,331.67087514705383L1075.8571998596192,331.53130636625446L1099.2453998565675,331.5124384594317L1122.6335998535158,331.48876191440553L1146.0217998504638,331.4091597468728L1169.409999847412,331.3556530867794L1192.7981998443604,331.2960621307722L1216.1863998413087,331.29944642533354L1239.5745998382567,331.1942055090383L1262.962799835205,331.0462506164037" fill="none"></path></g><g><path style="fill: none;" stroke="rgb(255, 112, 67)" stroke-width="2px" d="M116.94099998474121,267.90928213217114L140.32919998168947,290.19941645136606L163.7173999786377,301.844962710217L187.10559997558593,308.29749059814395L210.49379997253416,312.280342906068L233.88199996948242,314.9523056962838L257.27019996643065,316.85915996808353L280.65839996337894,318.28864453893885L304.04659996032717,319.4231925415331L327.4347999572754,320.3440180340689L350.82299995422363,321.1068759881536L374.21119995117186,321.75272261954666L397.5993999481201,322.3158289091191L420.9875999450683,322.81317433971907L444.37579994201656,323.2538738095292L467.76399993896484,323.6544934094509L491.1521999359131,324.0019375133999L514.5403999328613,324.3325012584555L537.9285999298096,324.6265130452771L561.3167999267579,324.89247387937445L584.704999923706,325.1447533549291L608.0931999206543,325.3939408389475L631.4813999176025,325.6149050297298L654.8695999145508,325.8313241619151L678.257799911499,326.0312391556707L701.6459999084473,326.217487434195L725.0341999053956,326.38537637936787L748.4223999023437,326.5677982479655L771.810599899292,326.73591810689607L795.1987998962402,326.8858611106642L818.5869998931885,327.04600149125486L841.9751998901367,327.18866564281626L865.363399887085,327.32360150514984L888.7515998840331,327.457371534609L912.1397998809815,327.564500874879L935.5279998779297,327.6899636411032L958.916199874878,327.7904066200765L982.3043998718261,327.9065967909176L1005.6925998687744,328.0146914633357L1029.0807998657226,328.12723995525624L1052.468999862671,328.2279217328473L1075.8571998596192,328.3213877371117L1099.2453998565675,328.4173329666481L1122.6335998535158,328.510321373677L1146.0217998504638,328.59721253109365L1169.409999847412,328.6762774017365L1192.7981998443604,328.7589681815798L1216.1863998413087,328.8461792390315L1239.5745998382567,328.93313009610256L1262.962799835205,328.99968394671134" fill="none"></path></g></g></g></g></g><g><g><span fill="rgb(0, 0, 0)" stroke="none" stroke-width="1px">Alt + Scroll to Zoom</span></g></g></g><g transform="translate(30, 377)" clip-path="url(#clip_1)"><clipPath id="clip_1"><rect width="1403" height="22"></rect></clipPath><g><g><line x1="0" y1="0" x2="0" y2="5" style="visibility: inherit;" fill="rgb(0, 0, 0)" stroke="rgb(204, 204, 204)" stroke-width="1px"></line><line x1="116.94099998474121" y1="0" x2="116.94099998474121" y2="5" style="visibility: inherit;" fill="rgb(0, 0, 0)" stroke="rgb(204, 204, 204)" stroke-width="1px"></line><line x1="233.88199996948242" y1="0" x2="233.88199996948242" y2="5" style="visibility: inherit;" fill="rgb(0, 0, 0)" stroke="rgb(204, 204, 204)" stroke-width="1px"></line><line x1="350.82299995422363" y1="0" x2="350.82299995422363" y2="5" style="visibility: inherit;" fill="rgb(0, 0, 0)" stroke="rgb(204, 204, 204)" stroke-width="1px"></line><line x1="467.76399993896484" y1="0" x2="467.76399993896484" y2="5" style="visibility: inherit;" fill="rgb(0, 0, 0)" stroke="rgb(204, 204, 204)" stroke-width="1px"></line><line x1="584.704999923706" y1="0" x2="584.704999923706" y2="5" style="visibility: inherit;" fill="rgb(0, 0, 0)" stroke="rgb(204, 204, 204)" stroke-width="1px"></line><line x1="701.6459999084473" y1="0" x2="701.6459999084473" y2="5" style="visibility: inherit;" fill="rgb(0, 0, 0)" stroke="rgb(204, 204, 204)" stroke-width="1px"></line><line x1="818.5869998931885" y1="0" x2="818.5869998931885" y2="5" style="visibility: inherit;" fill="rgb(0, 0, 0)" stroke="rgb(204, 204, 204)" stroke-width="1px"></line><line x1="935.5279998779297" y1="0" x2="935.5279998779297" y2="5" style="visibility: inherit;" fill="rgb(0, 0, 0)" stroke="rgb(204, 204, 204)" stroke-width="1px"></line><line x1="1052.468999862671" y1="0" x2="1052.468999862671" y2="5" style="visibility: inherit;" fill="rgb(0, 0, 0)" stroke="rgb(204, 204, 204)" stroke-width="1px"></line><line x1="1169.409999847412" y1="0" x2="1169.409999847412" y2="5" style="visibility: inherit;" fill="rgb(0, 0, 0)" stroke="rgb(204, 204, 204)" stroke-width="1px"></line><line x1="1286.3509998321533" y1="0" x2="1286.3509998321533" y2="5" style="visibility: inherit;" fill="rgb(0, 0, 0)" stroke="rgb(204, 204, 204)" stroke-width="1px"></line><line x1="1403.2919998168945" y1="0" x2="1403.2919998168945" y2="5" style="visibility: inherit;" fill="rgb(0, 0, 0)" stroke="rgb(204, 204, 204)" stroke-width="1px"></line></g><g transform="translate(0, 8)"><text style="text-anchor: middle; visibility: hidden; font-family: Roboto, sans-serif; font-size: 12px; font-weight: 200;" x="0" y="0" dx="0em" dy="0.95em" fill="rgb(50, 49, 63)" stroke="none" stroke-width="1px">-5</text><text style="text-anchor: middle; visibility: inherit; font-family: Roboto, sans-serif; font-size: 12px; font-weight: 200;" x="116.94099998474121" y="0" dx="0em" dy="0.95em" fill="rgb(50, 49, 63)" stroke="none" stroke-width="1px">0</text><text style="text-anchor: middle; visibility: inherit; font-family: Roboto, sans-serif; font-size: 12px; font-weight: 200;" x="233.88199996948242" y="0" dx="0em" dy="0.95em" fill="rgb(50, 49, 63)" stroke="none" stroke-width="1px">5</text><text style="text-anchor: middle; visibility: inherit; font-family: Roboto, sans-serif; font-size: 12px; font-weight: 200;" x="350.82299995422363" y="0" dx="0em" dy="0.95em" fill="rgb(50, 49, 63)" stroke="none" stroke-width="1px">10</text><text style="text-anchor: middle; visibility: inherit; font-family: Roboto, sans-serif; font-size: 12px; font-weight: 200;" x="467.76399993896484" y="0" dx="0em" dy="0.95em" fill="rgb(50, 49, 63)" stroke="none" stroke-width="1px">15</text><text style="text-anchor: middle; visibility: inherit; font-family: Roboto, sans-serif; font-size: 12px; font-weight: 200;" x="584.704999923706" y="0" dx="0em" dy="0.95em" fill="rgb(50, 49, 63)" stroke="none" stroke-width="1px">20</text><text style="text-anchor: middle; visibility: inherit; font-family: Roboto, sans-serif; font-size: 12px; font-weight: 200;" x="701.6459999084473" y="0" dx="0em" dy="0.95em" fill="rgb(50, 49, 63)" stroke="none" stroke-width="1px">25</text><text style="text-anchor: middle; visibility: inherit; font-family: Roboto, sans-serif; font-size: 12px; font-weight: 200;" x="818.5869998931885" y="0" dx="0em" dy="0.95em" fill="rgb(50, 49, 63)" stroke="none" stroke-width="1px">30</text><text style="text-anchor: middle; visibility: inherit; font-family: Roboto, sans-serif; font-size: 12px; font-weight: 200;" x="935.5279998779297" y="0" dx="0em" dy="0.95em" fill="rgb(50, 49, 63)" stroke="none" stroke-width="1px">35</text><text style="text-anchor: middle; visibility: inherit; font-family: Roboto, sans-serif; font-size: 12px; font-weight: 200;" x="1052.468999862671" y="0" dx="0em" dy="0.95em" fill="rgb(50, 49, 63)" stroke="none" stroke-width="1px">40</text><text style="text-anchor: middle; visibility: inherit; font-family: Roboto, sans-serif; font-size: 12px; font-weight: 200;" x="1169.409999847412" y="0" dx="0em" dy="0.95em" fill="rgb(50, 49, 63)" stroke="none" stroke-width="1px">45</text><text style="text-anchor: middle; visibility: inherit; font-family: Roboto, sans-serif; font-size: 12px; font-weight: 200;" x="1286.3509998321533" y="0" dx="0em" dy="0.95em" fill="rgb(50, 49, 63)" stroke="none" stroke-width="1px">50</text><text style="text-anchor: middle; visibility: hidden; font-family: Roboto, sans-serif; font-size: 12px; font-weight: 200;" x="1403.2919998168945" y="0" dx="0em" dy="0.95em" fill="rgb(50, 49, 63)" stroke="none" stroke-width="1px">55</text></g><line x1="0" y1="0" x2="1403.2919998168945" y2="0" fill="rgb(0, 0, 0)" stroke="rgb(204, 204, 204)" stroke-width="1px"></line></g></g></g></g></svg>