<svg viewBox="0 0 1434 400" xmlns="http://www.w3.org/2000/svg"><g><g><g><g><g><line x1="30.70800018310547" y1="377.95999908447266" x2="25.70800018310547" y2="377.95999908447266" style="visibility: inherit;" fill="rgb(0, 0, 0)" stroke="rgb(204, 204, 204)" stroke-width="1px"></line><line x1="30.70800018310547" y1="335.96444363064234" x2="25.70800018310547" y2="335.96444363064234" style="visibility: inherit;" fill="rgb(0, 0, 0)" stroke="rgb(204, 204, 204)" stroke-width="1px"></line><line x1="30.70800018310547" y1="293.9688881768121" x2="25.70800018310547" y2="293.9688881768121" style="visibility: inherit;" fill="rgb(0, 0, 0)" stroke="rgb(204, 204, 204)" stroke-width="1px"></line><line x1="30.70800018310547" y1="251.9733327229818" x2="25.70800018310547" y2="251.9733327229818" style="visibility: inherit;" fill="rgb(0, 0, 0)" stroke="rgb(204, 204, 204)" stroke-width="1px"></line><line x1="30.70800018310547" y1="209.9777772691515" x2="25.70800018310547" y2="209.9777772691515" style="visibility: inherit;" fill="rgb(0, 0, 0)" stroke="rgb(204, 204, 204)" stroke-width="1px"></line><line x1="30.70800018310547" y1="167.98222181532117" x2="25.70800018310547" y2="167.98222181532117" style="visibility: inherit;" fill="rgb(0, 0, 0)" stroke="rgb(204, 204, 204)" stroke-width="1px"></line><line x1="30.70800018310547" y1="125.9866663614909" x2="25.70800018310547" y2="125.9866663614909" style="visibility: inherit;" fill="rgb(0, 0, 0)" stroke="rgb(204, 204, 204)" stroke-width="1px"></line><line x1="30.70800018310547" y1="83.99111090766058" x2="25.70800018310547" y2="83.99111090766058" style="visibility: inherit;" fill="rgb(0, 0, 0)" stroke="rgb(204, 204, 204)" stroke-width="1px"></line><line x1="30.70800018310547" y1="41.99555545383031" x2="25.70800018310547" y2="41.99555545383031" style="visibility: inherit;" fill="rgb(0, 0, 0)" stroke="rgb(204, 204, 204)" stroke-width="1px"></line><line x1="30.70800018310547" y1="0" x2="25.70800018310547" y2="0" style="visibility: inherit;" fill="rgb(0, 0, 0)" stroke="rgb(204, 204, 204)" stroke-width="1px"></line></g><g transform="translate(20.70800018310547, 0)"><text style="text-anchor: end; visibility: hidden; font-family: Roboto, sans-serif; font-size: 12px; font-weight: 200;" x="0" y="377.95999908447266" dx="0em" dy="0.3em" fill="rgb(50, 49, 63)" stroke="none" stroke-width="1px">-1</text><text style="text-anchor: end; visibility: inherit; font-family: Roboto, sans-serif; font-size: 12px; font-weight: 200;" x="0" y="335.96444363064234" dx="0em" dy="0.3em" fill="rgb(50, 49, 63)" stroke="none" stroke-width="1px">0</text><text style="text-anchor: end; visibility: inherit; font-family: Roboto, sans-serif; font-size: 12px; font-weight: 200;" x="0" y="293.9688881768121" dx="0em" dy="0.3em" fill="rgb(50, 49, 63)" stroke="none" stroke-width="1px">1</text><text style="text-anchor: end; visibility: inherit; font-family: Roboto, sans-serif; font-size: 12px; font-weight: 200;" x="0" y="251.9733327229818" dx="0em" dy="0.3em" fill="rgb(50, 49, 63)" stroke="none" stroke-width="1px">2</text><text style="text-anchor: end; visibility: inherit; font-family: Roboto, sans-serif; font-size: 12px; font-weight: 200;" x="0" y="209.9777772691515" dx="0em" dy="0.3em" fill="rgb(50, 49, 63)" stroke="none" stroke-width="1px">3</text><text style="text-anchor: end; visibility: inherit; font-family: Roboto, sans-serif; font-size: 12px; font-weight: 200;" x="0" y="167.98222181532117" dx="0em" dy="0.3em" fill="rgb(50, 49, 63)" stroke="none" stroke-width="1px">4</text><text style="text-anchor: end; visibility: inherit; font-family: Roboto, sans-serif; font-size: 12px; font-weight: 200;" x="0" y="125.9866663614909" dx="0em" dy="0.3em" fill="rgb(50, 49, 63)" stroke="none" stroke-width="1px">5</text><text style="text-anchor: end; visibility: inherit; font-family: Roboto, sans-serif; font-size: 12px; font-weight: 200;" x="0" y="83.99111090766058" dx="0em" dy="0.3em" fill="rgb(50, 49, 63)" stroke="none" stroke-width="1px">6</text><text style="text-anchor: end; visibility: inherit; font-family: Roboto, sans-serif; font-size: 12px; font-weight: 200;" x="0" y="41.99555545383031" dx="0em" dy="0.3em" fill="rgb(50, 49, 63)" stroke="none" stroke-width="1px">7</text><text style="text-anchor: end; visibility: hidden; font-family: Roboto, sans-serif; font-size: 12px; font-weight: 200;" x="0" y="0" dx="0em" dy="0.3em" fill="rgb(50, 49, 63)" stroke="none" stroke-width="1px">8</text></g><line x1="30.70800018310547" y1="0" x2="30.70800018310547" y2="377.95999908447266" fill="rgb(0, 0, 0)" stroke="rgb(204, 204, 204)" stroke-width="1px"></line></g></g><g transform="translate(30, 0)" clip-path="url(#clip_0)"><clipPath id="clip_0"><rect width="1403" height="377"></rect></clipPath><g><g><g><line x1="0" y1="0" x2="0" y2="377.95999908447266" fill="rgb(0, 0, 0)" stroke="rgb(60, 60, 60)" stroke-width="1px" opacity="0.25"></line><line x1="116.94099998474121" y1="0" x2="116.94099998474121" y2="377.95999908447266" fill="rgb(0, 0, 0)" stroke="rgb(60, 60, 60)" stroke-width="1px" opacity="0.25"></line><line x1="233.88199996948242" y1="0" x2="233.88199996948242" y2="377.95999908447266" fill="rgb(0, 0, 0)" stroke="rgb(60, 60, 60)" stroke-width="1px" opacity="0.25"></line><line x1="350.82299995422363" y1="0" x2="350.82299995422363" y2="377.95999908447266" fill="rgb(0, 0, 0)" stroke="rgb(60, 60, 60)" stroke-width="1px" opacity="0.25"></line><line x1="467.76399993896484" y1="0" x2="467.76399993896484" y2="377.95999908447266" fill="rgb(0, 0, 0)" stroke="rgb(60, 60, 60)" stroke-width="1px" opacity="0.25"></line><line x1="584.704999923706" y1="0" x2="584.704999923706" y2="377.95999908447266" fill="rgb(0, 0, 0)" stroke="rgb(60, 60, 60)" stroke-width="1px" opacity="0.25"></line><line x1="701.6459999084473" y1="0" x2="701.6459999084473" y2="377.95999908447266" fill="rgb(0, 0, 0)" stroke="rgb(60, 60, 60)" stroke-width="1px" opacity="0.25"></line><line x1="818.5869998931885" y1="0" x2="818.5869998931885" y2="377.95999908447266" fill="rgb(0, 0, 0)" stroke="rgb(60, 60, 60)" stroke-width="1px" opacity="0.25"></line><line x1="935.5279998779297" y1="0" x2="935.5279998779297" y2="377.95999908447266" fill="rgb(0, 0, 0)" stroke="rgb(60, 60, 60)" stroke-width="1px" opacity="0.25"></line><line x1="1052.468999862671" y1="0" x2="1052.468999862671" y2="377.95999908447266" fill="rgb(0, 0, 0)" stroke="rgb(60, 60, 60)" stroke-width="1px" opacity="0.25"></line><line x1="1169.409999847412" y1="0" x2="1169.409999847412" y2="377.95999908447266" fill="rgb(0, 0, 0)" stroke="rgb(60, 60, 60)" stroke-width="1px" opacity="0.25"></line><line x1="1286.3509998321533" y1="0" x2="1286.3509998321533" y2="377.95999908447266" fill="rgb(0, 0, 0)" stroke="rgb(60, 60, 60)" stroke-width="1px" opacity="0.25"></line><line x1="1403.2919998168945" y1="0" x2="1403.2919998168945" y2="377.95999908447266" fill="rgb(0, 0, 0)" stroke="rgb(60, 60, 60)" stroke-width="1px" opacity="0.25"></line></g><g><line x1="0" y1="377.95999908447266" x2="1403.2919998168945" y2="377.95999908447266" fill="rgb(0, 0, 0)" stroke="rgb(60, 60, 60)" stroke-width="1px" opacity="0.25"></line><line x1="0" y1="335.96444363064234" x2="1403.2919998168945" y2="335.96444363064234" fill="rgb(0, 0, 0)" stroke="rgb(60, 60, 60)" stroke-width="1px" opacity="0.25"></line><line x1="0" y1="293.9688881768121" x2="1403.2919998168945" y2="293.9688881768121" fill="rgb(0, 0, 0)" stroke="rgb(60, 60, 60)" stroke-width="1px" opacity="0.25"></line><line x1="0" y1="251.9733327229818" x2="1403.2919998168945" y2="251.9733327229818" fill="rgb(0, 0, 0)" stroke="rgb(60, 60, 60)" stroke-width="1px" opacity="0.25"></line><line x1="0" y1="209.9777772691515" x2="1403.2919998168945" y2="209.9777772691515" fill="rgb(0, 0, 0)" stroke="rgb(60, 60, 60)" stroke-width="1px" opacity="0.25"></line><line x1="0" y1="167.98222181532117" x2="1403.2919998168945" y2="167.98222181532117" fill="rgb(0, 0, 0)" stroke="rgb(60, 60, 60)" stroke-width="1px" opacity="0.25"></line><line x1="0" y1="125.9866663614909" x2="1403.2919998168945" y2="125.9866663614909" fill="rgb(0, 0, 0)" stroke="rgb(60, 60, 60)" stroke-width="1px" opacity="0.25"></line><line x1="0" y1="83.99111090766058" x2="1403.2919998168945" y2="83.99111090766058" fill="rgb(0, 0, 0)" stroke="rgb(60, 60, 60)" stroke-width="1px" opacity="0.25"></line><line x1="0" y1="41.99555545383031" x2="1403.2919998168945" y2="41.99555545383031" fill="rgb(0, 0, 0)" stroke="rgb(60, 60, 60)" stroke-width="1px" opacity="0.25"></line><line x1="0" y1="0" x2="1403.2919998168945" y2="0" fill="rgb(0, 0, 0)" stroke="rgb(60, 60, 60)" stroke-width="1px" opacity="0.25"></line></g></g></g><g><g><line x1="0" y1="335.96444363064234" x2="1403.2919998168945" y2="335.96444363064234" fill="rgb(0, 0, 0)" stroke="rgb(153, 153, 153)" stroke-width="1.5px"></line></g></g><g><g><line x1="116.94099998474121" y1="0" x2="116.94099998474121" y2="377.95999908447266" fill="rgb(0, 0, 0)" stroke="rgb(153, 153, 153)" stroke-width="1.5px"></line></g></g><g><g><g><g><g><path style="fill: none;" stroke="rgb(238, 51, 119)" stroke-width="2px" d="M116.94099998474121,112.87108532373816L140.32919998168947,194.98817276452974L163.7173999786377,190.14851076584796L187.10559997558593,199.3221023446808L210.49379997253416,193.99981682515136L233.88199996948242,200.24826050571994L257.27019996643065,180.04638805857962L280.65839996337894,189.4766806420905L304.04659996032717,188.77412209242783L327.4347999572754,171.32896692101104L350.82299995422363,170.42143204839925L374.21119995117186,171.04332973162593L397.5993999481201,160.9318653425819L420.9875999450683,155.06597003886537L444.37579994201656,163.88505831121438L467.76399993896484,146.93788586733757L491.1521999359131,155.97390541230357L514.5403999328613,155.60159984408648L537.9285999298096,146.94687711089017L561.3167999267579,147.43927285190188L584.704999923706,130.19651077310402L608.0931999206543,140.49218551724857L631.4813999176025,131.44783555509355L654.8695999145508,140.23041817711663L678.257799911499,134.74952431781395L701.6459999084473,129.26242269570218L725.0341999053956,139.18647272303457L748.4223999023437,124.79615762998947L771.810599899292,126.16687170832745L795.1987998962402,126.99598851913106L818.5869998931885,113.56381157811279L841.9751998901367,118.35207930824737L865.363399887085,107.7209851219967L888.7515998840331,101.33341746685903L912.1397998809815,102.37896492424665L935.5279998779297,102.50948814356889L958.916199874878,109.37909859335599L982.3043998718261,94.63430021886842L1005.6925998687744,95.52010792164828L1029.0807998657226,92.47958574782024L1052.468999862671,83.33454987790941L1075.8571998596192,85.71584769149075L1099.2453998565675,83.88527856428561L1122.6335998535158,80.83398291822755L1146.0217998504638,77.5277684961689L1169.409999847412,77.76893006878282L1192.7981998443604,79.44280324766078L1216.1863998413087,79.73793230663148L1239.5745998382567,81.45243629434725L1262.962799835205,71.23077410292052" fill="none"></path></g><g><path style="fill: none;" stroke="rgb(187, 187, 187)" stroke-width="2px" d="M116.94099998474121,168.04429944341246L140.32919998168947,206.15397560410076L163.7173999786377,224.0552311291372L187.10559997558593,222.43385359607908L210.49379997253416,224.3272012278216L233.88199996948242,218.89117347359593L257.27019996643065,214.01397453496025L280.65839996337894,211.88348035138836L304.04659996032717,204.79683850377762L327.4347999572754,207.36678221911177L350.82299995422363,206.6424864870965L374.21119995117186,195.3618400355566L397.5993999481201,202.74233935201426L420.9875999450683,198.75876789479378L444.37579994201656,198.47408189487135L467.76399993896484,191.49382307927186L491.1521999359131,173.4328678497103L514.5403999328613,193.09999159344767L537.9285999298096,191.426699140768L561.3167999267579,185.1113618096707L584.704999923706,185.763827718472L608.0931999206543,193.8475163733939L631.4813999176025,191.61481437892587L654.8695999145508,188.15690025634933L678.257799911499,182.65285744928104L701.6459999084473,181.2740332292085L725.0341999053956,178.80342373134107L748.4223999023437,184.33554164633966L771.810599899292,185.718551100048L795.1987998962402,179.6803703533369L818.5869998931885,175.20982994130242L841.9751998901367,174.19505095990257L865.363399887085,174.0634864384317L888.7515998840331,174.46002230664573L912.1397998809815,174.87839548241897L935.5279998779297,170.91130463420473L958.916199874878,167.35035166151727L982.3043998718261,166.2191771274463L1005.6925998687744,166.84155541166467L1029.0807998657226,164.06880809036454L1052.468999862671,161.00377526596117L1075.8571998596192,164.23431505687245L1099.2453998565675,163.93029487955573L1122.6335998535158,163.59175153100375L1146.0217998504638,158.03820682179298L1169.409999847412,158.90312840647636L1192.7981998443604,165.02538428916847L1216.1863998413087,159.27433259742088L1239.5745998382567,156.71915735006002L1262.962799835205,151.9873802614885" fill="none"></path></g><g><path style="fill: none;" stroke="rgb(0, 119, 187)" stroke-width="2px" d="M116.94099998474121,97.61214401336554L140.32919998168947,159.78689355504162L163.7173999786377,185.18588500094222L187.10559997558593,207.3330300119673L210.49379997253416,196.93414620486067L233.88199996948242,205.90378273785166L257.27019996643065,160.25752207613874L280.65839996337894,188.24519066352815L304.04659996032717,186.83353538821189L327.4347999572754,199.27972935724813L350.82299995422363,199.74790481078367L374.21119995117186,200.0016521218671L397.5993999481201,196.6154977348599L420.9875999450683,193.0043920461871L444.37579994201656,198.36742852480222L467.76399993896484,187.625515759888L491.1521999359131,191.62064166594996L514.5403999328613,191.21434359009254L537.9285999298096,190.71121442693345L561.3167999267579,189.31219495268994L584.704999923706,186.28809331274414L608.0931999206543,183.89657271556905L631.4813999176025,183.16402666653005L654.8695999145508,187.9186022646441L678.257799911499,184.67876084203976L701.6459999084473,182.99472495469206L725.0341999053956,180.7576274636544L748.4223999023437,181.46700453988643L771.810599899292,181.56372548946092L795.1987998962402,184.19694833536556L818.5869998931885,184.307446513368L841.9751998901367,184.34771687146207L865.363399887085,185.45983757871727L888.7515998840331,182.7521416041444L912.1397998809815,182.70109777382032L935.5279998779297,182.74577364100475L958.916199874878,183.11065993141284L982.3043998718261,183.01519054692085L1005.6925998687744,181.39218097299516L1029.0807998657226,181.18904695384742L1052.468999862671,182.45428913955425L1075.8571998596192,182.2062790028089L1099.2453998565675,181.2724112008616L1122.6335998535158,182.12215380422458L1146.0217998504638,180.5312243464931L1169.409999847412,181.14702440463793L1192.7981998443604,180.80463624815252L1216.1863998413087,180.63242089280254L1239.5745998382567,180.6319302792902L1262.962799835205,180.95541479676973" fill="none"></path></g><g><path style="fill: none;" stroke="rgb(0, 153, 136)" stroke-width="2px" d="M116.94099998474121,147.45160827735486L140.32919998168947,182.84427681925666L163.7173999786377,191.7418332160172L187.10559997558593,195.7027463389843L210.49379997253416,210.0673292539335L233.88199996948242,201.32133238240164L257.27019996643065,223.60170399332713L280.65839996337894,222.9029101514326L304.04659996032717,223.85855518581513L327.4347999572754,226.1579906304812L350.82299995422363,214.02335626681855L374.21119995117186,225.733229466527L397.5993999481201,219.18232756186467L420.9875999450683,224.9309962736952L444.37579994201656,227.07354553214157L467.76399993896484,227.10400361998893L491.1521999359131,223.85297821180757L514.5403999328613,223.91863030977441L537.9285999298096,224.92827286807574L561.3167999267579,220.01979481489855L584.704999923706,222.0197457541069L608.0931999206543,222.42228913471683L631.4813999176025,223.00455726117173L654.8695999145508,223.1319165239654L678.257799911499,222.1928021611924L701.6459999084473,222.87690763527883L725.0341999053956,222.91943081052136L748.4223999023437,222.7659588938467L771.810599899292,222.54776604362655L795.1987998962402,222.54917780903958L818.5869998931885,222.38744556282052L841.9751998901367,222.18213882668954L865.363399887085,222.84186381296928L888.7515998840331,223.07007919637L912.1397998809815,223.10710549777025L935.5279998779297,222.6758361953871L958.916199874878,222.44107262347484L982.3043998718261,222.62238936010465L1005.6925998687744,222.76371608921886L1029.0807998657226,222.45035423012655L1052.468999862671,222.38462203199435L1075.8571998596192,222.43215146756688L1099.2453998565675,222.36298497484836L1122.6335998535158,222.2476807869292L1146.0217998504638,222.25476965155633L1169.409999847412,222.27278217622347L1192.7981998443604,222.2078409672235L1216.1863998413087,222.1911000326802L1239.5745998382567,222.1866544735072L1262.962799835205,222.22202870899855" fill="none"></path></g><g><path style="fill: none;" stroke="rgb(204, 51, 17)" stroke-width="2px" d="M116.94099998474121,144.58240033201741L140.32919998168947,164.54792722898128L163.7173999786377,207.21919766458507L187.10559997558593,201.0191444963657L210.49379997253416,226.36095443677772L233.88199996948242,229.79068331369672L257.27019996643065,231.87255669694423L280.65839996337894,233.40476272100545L304.04659996032717,232.10468697592296L327.4347999572754,238.01153348913834L350.82299995422363,239.14614231779564L374.21119995117186,239.11129874589926L397.5993999481201,239.61023266290192L420.9875999450683,240.022808589213L444.37579994201656,240.74782522271585L467.76399993896484,240.01093373971037L491.1521999359131,239.77531910354207L514.5403999328613,239.60369448691097L537.9285999298096,239.14662291878733L561.3167999267579,239.05759158507965L584.704999923706,239.48567690589294L608.0931999206543,239.74204749738925L631.4813999176025,239.88784982323847L654.8695999145508,239.75414262234642L678.257799911499,239.68791981070194L701.6459999084473,239.71377213904577L725.0341999053956,239.70700367507965L748.4223999023437,239.67608501128194L771.810599899292,239.66115634297807L795.1987998962402,239.65139413533467L818.5869998931885,239.6246006300488L841.9751998901367,239.62955682777545L865.363399887085,239.60627771724126L888.7515998840331,239.6062276546379L912.1397998809815,239.60228272149794L935.5279998779297,239.59865818901903L958.916199874878,239.59285092703635L982.3043998718261,239.59476331848236L1005.6925998687744,239.59436281765596L1029.0807998657226,239.59505368158148L1052.468999862671,239.59537408224264L1075.8571998596192,239.59384216658168L1099.2453998565675,239.59222013823478L1122.6335998535158,239.5907583102184L1146.0217998504638,239.59036782191265L1169.409999847412,239.59042789703665L1192.7981998443604,239.59059810988788L1216.1863998413087,239.59073828517705L1239.5745998382567,239.59107871087951L1262.962799835205,239.5911387860035" fill="none"></path></g><g><path style="fill: none;" stroke="rgb(255, 112, 67)" stroke-width="2px" d="M116.94099998474121,145.85136717540968L140.32919998168947,185.10697632562164L163.7173999786377,208.3900918681138L187.10559997558593,210.04270846563082L210.49379997253416,205.35336443961592L233.88199996948242,189.38849036011823L257.27019996643065,210.88678398230024L280.65839996337894,224.9954969317862L304.04659996032717,228.00466990342807L327.4347999572754,226.57936756245238L350.82299995422363,225.28215539827863L374.21119995117186,223.1299440573954L397.5993999481201,224.08687069442243L420.9875999450683,226.82852913907357L444.37579994201656,226.2611996934433L467.76399993896484,227.24467953526033L491.1521999359131,227.7850853128362L514.5403999328613,229.24599217727842L537.9285999298096,229.76094612733687L561.3167999267579,229.08715354953006L584.704999923706,230.89033843273035L608.0931999206543,229.75059318097453L631.4813999176025,229.46675824530814L654.8695999145508,229.42485584634653L678.257799911499,228.70936111999129L701.6459999084473,228.46650743138582L725.0341999053956,229.8284305165845L748.4223999023437,229.76527153626193L771.810599899292,229.49384211369318L795.1987998962402,229.3875491943678L818.5869998931885,228.99222484115364L841.9751998901367,228.98393447404726L865.363399887085,228.79209457820394L888.7515998840331,228.98670794227007L912.1397998809815,229.1082999931637L935.5279998779297,229.1850259389804L958.916199874878,229.24680319145187L982.3043998718261,229.1780872621631L1005.6925998687744,229.21322119715865L1029.0807998657226,229.17995960352653L1052.468999862671,229.10122114105718L1075.8571998596192,229.07794203052293L1099.2453998565675,229.0615815717647L1122.6335998535158,229.10521613680044L1146.0217998504638,229.10739886630432L1169.409999847412,229.10898084456858L1192.7981998443604,229.1164001223775L1216.1863998413087,229.17647524633685L1239.5745998382567,229.156099766794L1262.962799835205,229.16196710390068" fill="none"></path></g><g><path style="fill: none;" stroke="rgb(51, 187, 238)" stroke-width="2px" d="M116.94099998474121,162.15137033391431L140.32919998168947,193.50988416422194L163.7173999786377,194.37736895419425L187.10559997558593,206.23395561913196L210.49379997253416,225.8169441517643L233.88199996948242,211.32202825538536L257.27019996643065,218.66326847833568L280.65839996337894,206.18527474368364L304.04659996032717,210.20510153821346L327.4347999572754,189.33833764413288L350.82299995422363,195.5095447403312L374.21119995117186,197.9338863802293L397.5993999481201,192.3766170133331L420.9875999450683,186.09651374243793L444.37579994201656,201.8791999960083L467.76399993896484,204.5821400232677L491.1521999359131,206.31878169416245L514.5403999328613,206.23141243888438L537.9285999298096,205.40478874572506L561.3167999267579,207.19421642553868L584.704999923706,206.23785048966863L608.0931999206543,207.100298981749L631.4813999176025,207.38246182646515L654.8695999145508,206.2316727644215L678.257799911499,205.1472066392289L701.6459999084473,202.5092378585315L725.0341999053956,206.80555039856335L748.4223999023437,205.76059367989467L771.810599899292,206.1793072813703L795.1987998962402,206.5957079905735L818.5869998931885,206.78154037402095L841.9751998901367,206.92156547544943L865.363399887085,206.67783068502592L888.7515998840331,206.47705962075395L912.1397998809815,206.54720734049704L935.5279998779297,206.37618347510556L958.916199874878,206.28406828503466L982.3043998718261,206.0889643074562L1005.6925998687744,206.06934977948345L1029.0807998657226,205.86091913690666L1052.468999862671,205.78048855844588L1075.8571998596192,205.88396795946574L1099.2453998565675,206.55406591714905L1122.6335998535158,206.36303703547912L1146.0217998504638,206.363337411099L1169.409999847412,206.33186805866495L1192.7981998443604,206.32720222403748L1216.1863998413087,206.35446631779428L1239.5745998382567,206.34747757837374L1262.962799835205,206.33540247845792" fill="none"></path></g></g></g></g></g><g><g><span fill="rgb(0, 0, 0)" stroke="none" stroke-width="1px">Alt + Scroll to Zoom</span></g></g></g><g transform="translate(30, 377)" clip-path="url(#clip_1)"><clipPath id="clip_1"><rect width="1403" height="22"></rect></clipPath><g><g><line x1="0" y1="0" x2="0" y2="5" style="visibility: inherit;" fill="rgb(0, 0, 0)" stroke="rgb(204, 204, 204)" stroke-width="1px"></line><line x1="116.94099998474121" y1="0" x2="116.94099998474121" y2="5" style="visibility: inherit;" fill="rgb(0, 0, 0)" stroke="rgb(204, 204, 204)" stroke-width="1px"></line><line x1="233.88199996948242" y1="0" x2="233.88199996948242" y2="5" style="visibility: inherit;" fill="rgb(0, 0, 0)" stroke="rgb(204, 204, 204)" stroke-width="1px"></line><line x1="350.82299995422363" y1="0" x2="350.82299995422363" y2="5" style="visibility: inherit;" fill="rgb(0, 0, 0)" stroke="rgb(204, 204, 204)" stroke-width="1px"></line><line x1="467.76399993896484" y1="0" x2="467.76399993896484" y2="5" style="visibility: inherit;" fill="rgb(0, 0, 0)" stroke="rgb(204, 204, 204)" stroke-width="1px"></line><line x1="584.704999923706" y1="0" x2="584.704999923706" y2="5" style="visibility: inherit;" fill="rgb(0, 0, 0)" stroke="rgb(204, 204, 204)" stroke-width="1px"></line><line x1="701.6459999084473" y1="0" x2="701.6459999084473" y2="5" style="visibility: inherit;" fill="rgb(0, 0, 0)" stroke="rgb(204, 204, 204)" stroke-width="1px"></line><line x1="818.5869998931885" y1="0" x2="818.5869998931885" y2="5" style="visibility: inherit;" fill="rgb(0, 0, 0)" stroke="rgb(204, 204, 204)" stroke-width="1px"></line><line x1="935.5279998779297" y1="0" x2="935.5279998779297" y2="5" style="visibility: inherit;" fill="rgb(0, 0, 0)" stroke="rgb(204, 204, 204)" stroke-width="1px"></line><line x1="1052.468999862671" y1="0" x2="1052.468999862671" y2="5" style="visibility: inherit;" fill="rgb(0, 0, 0)" stroke="rgb(204, 204, 204)" stroke-width="1px"></line><line x1="1169.409999847412" y1="0" x2="1169.409999847412" y2="5" style="visibility: inherit;" fill="rgb(0, 0, 0)" stroke="rgb(204, 204, 204)" stroke-width="1px"></line><line x1="1286.3509998321533" y1="0" x2="1286.3509998321533" y2="5" style="visibility: inherit;" fill="rgb(0, 0, 0)" stroke="rgb(204, 204, 204)" stroke-width="1px"></line><line x1="1403.2919998168945" y1="0" x2="1403.2919998168945" y2="5" style="visibility: inherit;" fill="rgb(0, 0, 0)" stroke="rgb(204, 204, 204)" stroke-width="1px"></line></g><g transform="translate(0, 8)"><text style="text-anchor: middle; visibility: hidden; font-family: Roboto, sans-serif; font-size: 12px; font-weight: 200;" x="0" y="0" dx="0em" dy="0.95em" fill="rgb(50, 49, 63)" stroke="none" stroke-width="1px">-5</text><text style="text-anchor: middle; visibility: inherit; font-family: Roboto, sans-serif; font-size: 12px; font-weight: 200;" x="116.94099998474121" y="0" dx="0em" dy="0.95em" fill="rgb(50, 49, 63)" stroke="none" stroke-width="1px">0</text><text style="text-anchor: middle; visibility: inherit; font-family: Roboto, sans-serif; font-size: 12px; font-weight: 200;" x="233.88199996948242" y="0" dx="0em" dy="0.95em" fill="rgb(50, 49, 63)" stroke="none" stroke-width="1px">5</text><text style="text-anchor: middle; visibility: inherit; font-family: Roboto, sans-serif; font-size: 12px; font-weight: 200;" x="350.82299995422363" y="0" dx="0em" dy="0.95em" fill="rgb(50, 49, 63)" stroke="none" stroke-width="1px">10</text><text style="text-anchor: middle; visibility: inherit; font-family: Roboto, sans-serif; font-size: 12px; font-weight: 200;" x="467.76399993896484" y="0" dx="0em" dy="0.95em" fill="rgb(50, 49, 63)" stroke="none" stroke-width="1px">15</text><text style="text-anchor: middle; visibility: inherit; font-family: Roboto, sans-serif; font-size: 12px; font-weight: 200;" x="584.704999923706" y="0" dx="0em" dy="0.95em" fill="rgb(50, 49, 63)" stroke="none" stroke-width="1px">20</text><text style="text-anchor: middle; visibility: inherit; font-family: Roboto, sans-serif; font-size: 12px; font-weight: 200;" x="701.6459999084473" y="0" dx="0em" dy="0.95em" fill="rgb(50, 49, 63)" stroke="none" stroke-width="1px">25</text><text style="text-anchor: middle; visibility: inherit; font-family: Roboto, sans-serif; font-size: 12px; font-weight: 200;" x="818.5869998931885" y="0" dx="0em" dy="0.95em" fill="rgb(50, 49, 63)" stroke="none" stroke-width="1px">30</text><text style="text-anchor: middle; visibility: inherit; font-family: Roboto, sans-serif; font-size: 12px; font-weight: 200;" x="935.5279998779297" y="0" dx="0em" dy="0.95em" fill="rgb(50, 49, 63)" stroke="none" stroke-width="1px">35</text><text style="text-anchor: middle; visibility: inherit; font-family: Roboto, sans-serif; font-size: 12px; font-weight: 200;" x="1052.468999862671" y="0" dx="0em" dy="0.95em" fill="rgb(50, 49, 63)" stroke="none" stroke-width="1px">40</text><text style="text-anchor: middle; visibility: inherit; font-family: Roboto, sans-serif; font-size: 12px; font-weight: 200;" x="1169.409999847412" y="0" dx="0em" dy="0.95em" fill="rgb(50, 49, 63)" stroke="none" stroke-width="1px">45</text><text style="text-anchor: middle; visibility: inherit; font-family: Roboto, sans-serif; font-size: 12px; font-weight: 200;" x="1286.3509998321533" y="0" dx="0em" dy="0.95em" fill="rgb(50, 49, 63)" stroke="none" stroke-width="1px">50</text><text style="text-anchor: middle; visibility: hidden; font-family: Roboto, sans-serif; font-size: 12px; font-weight: 200;" x="1403.2919998168945" y="0" dx="0em" dy="0.95em" fill="rgb(50, 49, 63)" stroke="none" stroke-width="1px">55</text></g><line x1="0" y1="0" x2="1403.2919998168945" y2="0" fill="rgb(0, 0, 0)" stroke="rgb(204, 204, 204)" stroke-width="1px"></line></g></g></g></g></svg>