<svg viewBox="0 0 1434 400" xmlns="http://www.w3.org/2000/svg"><g><g><g><g><g><line x1="51.41600036621094" y1="377.95999908447266" x2="46.41600036621094" y2="377.95999908447266" style="visibility: inherit;" fill="rgb(0, 0, 0)" stroke="rgb(204, 204, 204)" stroke-width="1px"></line><line x1="51.41600036621094" y1="330.7149991989135" x2="46.41600036621094" y2="330.7149991989135" style="visibility: inherit;" fill="rgb(0, 0, 0)" stroke="rgb(204, 204, 204)" stroke-width="1px"></line><line x1="51.41600036621094" y1="283.46999931335444" x2="46.41600036621094" y2="283.46999931335444" style="visibility: inherit;" fill="rgb(0, 0, 0)" stroke="rgb(204, 204, 204)" stroke-width="1px"></line><line x1="51.41600036621094" y1="236.22499942779558" x2="46.41600036621094" y2="236.22499942779558" style="visibility: inherit;" fill="rgb(0, 0, 0)" stroke="rgb(204, 204, 204)" stroke-width="1px"></line><line x1="51.41600036621094" y1="188.97999954223644" x2="46.41600036621094" y2="188.97999954223644" style="visibility: inherit;" fill="rgb(0, 0, 0)" stroke="rgb(204, 204, 204)" stroke-width="1px"></line><line x1="51.41600036621094" y1="141.73499965667733" x2="46.41600036621094" y2="141.73499965667733" style="visibility: inherit;" fill="rgb(0, 0, 0)" stroke="rgb(204, 204, 204)" stroke-width="1px"></line><line x1="51.41600036621094" y1="94.48999977111825" x2="46.41600036621094" y2="94.48999977111825" style="visibility: inherit;" fill="rgb(0, 0, 0)" stroke="rgb(204, 204, 204)" stroke-width="1px"></line><line x1="51.41600036621094" y1="47.244999885559125" x2="46.41600036621094" y2="47.244999885559125" style="visibility: inherit;" fill="rgb(0, 0, 0)" stroke="rgb(204, 204, 204)" stroke-width="1px"></line><line x1="51.41600036621094" y1="0" x2="46.41600036621094" y2="0" style="visibility: inherit;" fill="rgb(0, 0, 0)" stroke="rgb(204, 204, 204)" stroke-width="1px"></line></g><g transform="translate(41.41600036621094, 0)"><text style="text-anchor: end; visibility: hidden; font-family: Roboto, sans-serif; font-size: 12px; font-weight: 200;" x="0" y="377.95999908447266" dx="0em" dy="0.3em" fill="rgb(50, 49, 63)" stroke="none" stroke-width="1px">0.76</text><text style="text-anchor: end; visibility: inherit; font-family: Roboto, sans-serif; font-size: 12px; font-weight: 200;" x="0" y="330.7149991989135" dx="0em" dy="0.3em" fill="rgb(50, 49, 63)" stroke="none" stroke-width="1px">0.78</text><text style="text-anchor: end; visibility: inherit; font-family: Roboto, sans-serif; font-size: 12px; font-weight: 200;" x="0" y="283.46999931335444" dx="0em" dy="0.3em" fill="rgb(50, 49, 63)" stroke="none" stroke-width="1px">0.8</text><text style="text-anchor: end; visibility: inherit; font-family: Roboto, sans-serif; font-size: 12px; font-weight: 200;" x="0" y="236.22499942779558" dx="0em" dy="0.3em" fill="rgb(50, 49, 63)" stroke="none" stroke-width="1px">0.82</text><text style="text-anchor: end; visibility: inherit; font-family: Roboto, sans-serif; font-size: 12px; font-weight: 200;" x="0" y="188.97999954223644" dx="0em" dy="0.3em" fill="rgb(50, 49, 63)" stroke="none" stroke-width="1px">0.84</text><text style="text-anchor: end; visibility: inherit; font-family: Roboto, sans-serif; font-size: 12px; font-weight: 200;" x="0" y="141.73499965667733" dx="0em" dy="0.3em" fill="rgb(50, 49, 63)" stroke="none" stroke-width="1px">0.86</text><text style="text-anchor: end; visibility: inherit; font-family: Roboto, sans-serif; font-size: 12px; font-weight: 200;" x="0" y="94.48999977111825" dx="0em" dy="0.3em" fill="rgb(50, 49, 63)" stroke="none" stroke-width="1px">0.88</text><text style="text-anchor: end; visibility: inherit; font-family: Roboto, sans-serif; font-size: 12px; font-weight: 200;" x="0" y="47.244999885559125" dx="0em" dy="0.3em" fill="rgb(50, 49, 63)" stroke="none" stroke-width="1px">0.9</text><text style="text-anchor: end; visibility: hidden; font-family: Roboto, sans-serif; font-size: 12px; font-weight: 200;" x="0" y="0" dx="0em" dy="0.3em" fill="rgb(50, 49, 63)" stroke="none" stroke-width="1px">0.92</text></g><line x1="51.41600036621094" y1="0" x2="51.41600036621094" y2="377.95999908447266" fill="rgb(0, 0, 0)" stroke="rgb(204, 204, 204)" stroke-width="1px"></line></g></g><g transform="translate(51, 0)" clip-path="url(#clip_0)"><clipPath id="clip_0"><rect width="1382" height="377"></rect></clipPath><g><g><g><line x1="0" y1="0" x2="0" y2="377.95999908447266" fill="rgb(0, 0, 0)" stroke="rgb(60, 60, 60)" stroke-width="1px" opacity="0.25"></line><line x1="115.21533330281575" y1="0" x2="115.21533330281575" y2="377.95999908447266" fill="rgb(0, 0, 0)" stroke="rgb(60, 60, 60)" stroke-width="1px" opacity="0.25"></line><line x1="230.4306666056315" y1="0" x2="230.4306666056315" y2="377.95999908447266" fill="rgb(0, 0, 0)" stroke="rgb(60, 60, 60)" stroke-width="1px" opacity="0.25"></line><line x1="345.64599990844727" y1="0" x2="345.64599990844727" y2="377.95999908447266" fill="rgb(0, 0, 0)" stroke="rgb(60, 60, 60)" stroke-width="1px" opacity="0.25"></line><line x1="460.861333211263" y1="0" x2="460.861333211263" y2="377.95999908447266" fill="rgb(0, 0, 0)" stroke="rgb(60, 60, 60)" stroke-width="1px" opacity="0.25"></line><line x1="576.0766665140789" y1="0" x2="576.0766665140789" y2="377.95999908447266" fill="rgb(0, 0, 0)" stroke="rgb(60, 60, 60)" stroke-width="1px" opacity="0.25"></line><line x1="691.2919998168945" y1="0" x2="691.2919998168945" y2="377.95999908447266" fill="rgb(0, 0, 0)" stroke="rgb(60, 60, 60)" stroke-width="1px" opacity="0.25"></line><line x1="806.5073331197103" y1="0" x2="806.5073331197103" y2="377.95999908447266" fill="rgb(0, 0, 0)" stroke="rgb(60, 60, 60)" stroke-width="1px" opacity="0.25"></line><line x1="921.722666422526" y1="0" x2="921.722666422526" y2="377.95999908447266" fill="rgb(0, 0, 0)" stroke="rgb(60, 60, 60)" stroke-width="1px" opacity="0.25"></line><line x1="1036.9379997253418" y1="0" x2="1036.9379997253418" y2="377.95999908447266" fill="rgb(0, 0, 0)" stroke="rgb(60, 60, 60)" stroke-width="1px" opacity="0.25"></line><line x1="1152.1533330281577" y1="0" x2="1152.1533330281577" y2="377.95999908447266" fill="rgb(0, 0, 0)" stroke="rgb(60, 60, 60)" stroke-width="1px" opacity="0.25"></line><line x1="1267.3686663309732" y1="0" x2="1267.3686663309732" y2="377.95999908447266" fill="rgb(0, 0, 0)" stroke="rgb(60, 60, 60)" stroke-width="1px" opacity="0.25"></line><line x1="1382.583999633789" y1="0" x2="1382.583999633789" y2="377.95999908447266" fill="rgb(0, 0, 0)" stroke="rgb(60, 60, 60)" stroke-width="1px" opacity="0.25"></line></g><g><line x1="0" y1="377.95999908447266" x2="1382.583999633789" y2="377.95999908447266" fill="rgb(0, 0, 0)" stroke="rgb(60, 60, 60)" stroke-width="1px" opacity="0.25"></line><line x1="0" y1="330.7149991989135" x2="1382.583999633789" y2="330.7149991989135" fill="rgb(0, 0, 0)" stroke="rgb(60, 60, 60)" stroke-width="1px" opacity="0.25"></line><line x1="0" y1="283.46999931335444" x2="1382.583999633789" y2="283.46999931335444" fill="rgb(0, 0, 0)" stroke="rgb(60, 60, 60)" stroke-width="1px" opacity="0.25"></line><line x1="0" y1="236.22499942779558" x2="1382.583999633789" y2="236.22499942779558" fill="rgb(0, 0, 0)" stroke="rgb(60, 60, 60)" stroke-width="1px" opacity="0.25"></line><line x1="0" y1="188.97999954223644" x2="1382.583999633789" y2="188.97999954223644" fill="rgb(0, 0, 0)" stroke="rgb(60, 60, 60)" stroke-width="1px" opacity="0.25"></line><line x1="0" y1="141.73499965667733" x2="1382.583999633789" y2="141.73499965667733" fill="rgb(0, 0, 0)" stroke="rgb(60, 60, 60)" stroke-width="1px" opacity="0.25"></line><line x1="0" y1="94.48999977111825" x2="1382.583999633789" y2="94.48999977111825" fill="rgb(0, 0, 0)" stroke="rgb(60, 60, 60)" stroke-width="1px" opacity="0.25"></line><line x1="0" y1="47.244999885559125" x2="1382.583999633789" y2="47.244999885559125" fill="rgb(0, 0, 0)" stroke="rgb(60, 60, 60)" stroke-width="1px" opacity="0.25"></line><line x1="0" y1="0" x2="1382.583999633789" y2="0" fill="rgb(0, 0, 0)" stroke="rgb(60, 60, 60)" stroke-width="1px" opacity="0.25"></line></g></g></g><g><g><line x1="0" y1="2173.2699947357173" x2="1382.583999633789" y2="2173.2699947357173" fill="rgb(0, 0, 0)" stroke="rgb(153, 153, 153)" stroke-width="1.5px"></line></g></g><g><g><line x1="115.21533330281575" y1="0" x2="115.21533330281575" y2="377.95999908447266" fill="rgb(0, 0, 0)" stroke="rgb(153, 153, 153)" stroke-width="1.5px"></line></g></g><g><g><g><g><g><path style="fill: none;" stroke="rgb(238, 51, 119)" stroke-width="2px" d="M115.21533330281575,250.07054891629983L138.2583999633789,166.8757012360276L161.30146662394205,146.228772871338L184.34453328450522,126.1891195292338L207.38759994506836,104.93491614195872L230.4306666056315,103.72036609678784L253.47373326619464,135.29796326587186L276.5167999267578,111.00752556674135L299.559866587321,94.61152236014979L322.6029332478841,119.50923508186574L345.64599990844727,106.75674120971505L368.68906656901044,110.40025054415591L391.73213322957355,127.40366957440469L414.7751998901367,121.93819437113572L437.81826655069983,94.00424733756435L460.861333211263,120.11651010445118L483.9043998718261,87.93163791278172L506.9474665323893,105.54219116454416L529.9905331929525,109.79297552157047L553.0335998535156,107.36401623230049L576.0766665140789,101.89854102903152L599.119733174642,95.21865658166345L622.1627998352051,87.93163791278172L645.2058664957682,92.18242226980803L668.2489331563314,87.93163791278172L691.2919998168945,109.79297552157047L714.3350664774578,79.42992839765733L737.3781331380209,100.07685676234698L760.4211997985841,83.0734377320982L783.4642664591471,89.14604715688083L806.5073331197103,83.68071275468364L829.5503997802734,76.39355328473013L852.5934664408367,94.61152236014979L875.6365331013997,103.72036609678784L898.6795997619629,103.1130910742024L921.722666422526,94.61152236014979L944.7657330830892,81.25175346541366L967.8087997436522,95.21865658166345L990.8518664042155,85.50253782243996L1013.8949330647786,99.46958173976154L1036.9379997253418,94.61152236014979L1059.981066385905,86.1098128450254L1083.024133046468,84.28798777726908L1106.0671997070312,83.0734377320982L1129.1102663675945,90.96787222463715L1152.1533330281577,94.61152236014979L1175.1963996887207,77.60810332990101L1198.239466349284,85.50253782243996L1221.282533009847,80.64447844282822L1244.3255996704102,100.68413178493242" fill="none"></path></g><g><path style="fill: none;" stroke="rgb(187, 187, 187)" stroke-width="2px" d="M115.21533330281575,250.67782393888527L138.2583999633789,148.657732160608L161.30146662394205,111.61480058932679L184.34453328450522,111.61480058932679L207.38759994506836,97.64775667200522L230.4306666056315,114.04390067966855L253.47373326619464,115.25830992376765L276.5167999267578,107.97115045381415L299.559866587321,129.22535384108923L322.6029332478841,124.97456948406293L345.64599990844727,114.04390067966855L368.68906656901044,132.26172895401643L391.73213322957355,116.47285996893854L414.7751998901367,118.29468503669486L437.81826655069983,108.57842547639959L460.861333211263,120.11651010445118L483.9043998718261,137.11978833362818L506.9474665323893,85.50253782243996L529.9905331929525,83.0734377320982L553.0335998535156,102.50581605161696L576.0766665140789,107.97115045381415L599.119733174642,89.14604715688083L622.1627998352051,80.03720342024278L645.2058664957682,95.21865658166345L668.2489331563314,89.75332217946627L691.2919998168945,94.61152236014979L714.3350664774578,97.04048164941977L737.3781331380209,94.00424733756435L760.4211997985841,85.50253782243996L783.4642664591471,87.32436289019628L806.5073331197103,97.04048164941977L829.5503997802734,84.28798777726908L852.5934664408367,92.78969729239347L875.6365331013997,101.29140680751786L898.6795997619629,90.36059720205171L921.722666422526,95.21865658166345L944.7657330830892,98.25503169459066L967.8087997436522,101.89854102903152L990.8518664042155,87.32436289019628L1013.8949330647786,89.14604715688083L1036.9379997253418,87.32436289019628L1059.981066385905,93.39697231497891L1083.024133046468,87.32436289019628L1106.0671997070312,82.46616270951276L1129.1102663675945,90.96787222463715L1152.1533330281577,91.57514724722259L1175.1963996887207,78.21537835248645L1198.239466349284,86.71708786761084L1221.282533009847,91.57514724722259L1244.3255996704102,99.46958173976154" fill="none"></path></g><g><path style="fill: none;" stroke="rgb(0, 119, 187)" stroke-width="2px" d="M115.21533330281575,312.0113340103688L138.2583999633789,202.09680773955253L161.30146662394205,154.12320736387696L184.34453328450522,137.72706335621362L207.38759994506836,140.15616344655538L230.4306666056315,119.50923508186574L253.47373326619464,175.98454497266565L276.5167999267578,118.9019600592803L299.559866587321,125.58184450664837L322.6029332478841,93.39697231497891L345.64599990844727,103.72036609678784L368.68906656901044,93.39697231497891L391.73213322957355,93.39697231497891L414.7751998901367,99.46958173976154L437.81826655069983,79.42992839765733L460.861333211263,100.07685676234698L483.9043998718261,95.21865658166345L506.9474665323893,83.68071275468364L529.9905331929525,91.57514724722259L553.0335998535156,72.75004395028927L576.0766665140789,77.00082830731557L599.119733174642,87.32436289019628L622.1627998352051,86.71708786761084L645.2058664957682,75.78627826214469L668.2489331563314,86.1098128450254L691.2919998168945,99.46958173976154L714.3350664774578,88.53877213429539L737.3781331380209,80.03720342024278L760.4211997985841,84.89526279985452L783.4642664591471,84.28798777726908L806.5073331197103,81.25175346541366L829.5503997802734,80.03720342024278L852.5934664408367,75.78627826214469L875.6365331013997,82.46616270951276L898.6795997619629,75.78627826214469L921.722666422526,80.64447844282822L944.7657330830892,80.03720342024278L967.8087997436522,77.60810332990101L990.8518664042155,75.17900323955925L1013.8949330647786,72.75004395028927L1036.9379997253418,71.53549390511839L1059.981066385905,72.14276892770383L1083.024133046468,76.39355328473013L1106.0671997070312,72.75004395028927L1129.1102663675945,74.57186901804559L1152.1533330281577,75.78627826214469L1175.1963996887207,73.35731897287471L1198.239466349284,77.00082830731557L1221.282533009847,70.92821888253295L1244.3255996704102,75.78627826214469" fill="none"></path></g><g><path style="fill: none;" stroke="rgb(0, 153, 136)" stroke-width="2px" d="M115.21533330281575,257.9649834088388L138.2583999633789,157.15944167573238L161.30146662394205,140.15616344655538L184.34453328450522,129.22535384108923L207.38759994506836,111.61480058932679L230.4306666056315,109.79297552157047L253.47373326619464,69.71366883736206L276.5167999267578,69.71366883736206L299.559866587321,69.10639381477662L322.6029332478841,67.89198457067752L345.64599990844727,92.78969729239347L368.68906656901044,61.819234344823116L391.73213322957355,70.92821888253295L414.7751998901367,64.85560945775032L437.81826655069983,61.212100123309455L460.861333211263,62.426509367408556L483.9043998718261,68.49911879219118L506.9474665323893,65.46288448033576L529.9905331929525,60.604825100724014L553.0335998535156,61.212100123309455L576.0766665140789,66.67743452550664L599.119733174642,65.46288448033576L622.1627998352051,63.033784389994L645.2058664957682,58.17572501038225L668.2489331563314,65.46288448033576L691.2919998168945,63.033784389994L714.3350664774578,61.212100123309455L737.3781331380209,62.426509367408556L760.4211997985841,64.85560945775032L783.4642664591471,63.64105941257944L806.5073331197103,64.85560945775032L829.5503997802734,63.033784389994L852.5934664408367,63.64105941257944L875.6365331013997,61.212100123309455L898.6795997619629,62.426509367408556L921.722666422526,61.212100123309455L944.7657330830892,63.033784389994L967.8087997436522,62.426509367408556L990.8518664042155,63.64105941257944L1013.8949330647786,62.426509367408556L1036.9379997253418,63.033784389994L1059.981066385905,63.64105941257944L1083.024133046468,62.426509367408556L1106.0671997070312,63.64105941257944L1129.1102663675945,63.033784389994L1152.1533330281577,61.212100123309455L1175.1963996887207,61.212100123309455L1198.239466349284,61.212100123309455L1221.282533009847,63.033784389994L1244.3255996704102,63.64105941257944" fill="none"></path></g><g><path style="fill: none;" stroke="rgb(204, 51, 17)" stroke-width="2px" d="M115.21533330281575,254.3214740743979L138.2583999633789,192.38068898032904L161.30146662394205,141.97784771323992L184.34453328450522,128.01080379591835L207.38759994506836,95.21865658166345L230.4306666056315,75.78627826214469L253.47373326619464,83.0734377320982L276.5167999267578,79.42992839765733L299.559866587321,83.0734377320982L322.6029332478841,70.92821888253295L345.64599990844727,67.28470954809208L368.68906656901044,71.53549390511839L391.73213322957355,62.426509367408556L414.7751998901367,59.39027505555313L437.81826655069983,66.67743452550664L460.861333211263,65.46288448033576L483.9043998718261,63.033784389994L506.9474665323893,56.35389994262593L529.9905331929525,59.99755007813857L553.0335998535156,58.78300003296769L576.0766665140789,58.17572501038225L599.119733174642,57.56844998779681L622.1627998352051,60.604825100724014L645.2058664957682,62.426509367408556L668.2489331563314,61.819234344823116L691.2919998168945,62.426509367408556L714.3350664774578,61.212100123309455L737.3781331380209,61.819234344823116L760.4211997985841,61.819234344823116L783.4642664591471,63.033784389994L806.5073331197103,61.212100123309455L829.5503997802734,61.819234344823116L852.5934664408367,60.604825100724014L875.6365331013997,61.212100123309455L898.6795997619629,60.604825100724014L921.722666422526,60.604825100724014L944.7657330830892,60.604825100724014L967.8087997436522,60.604825100724014L990.8518664042155,60.604825100724014L1013.8949330647786,60.604825100724014L1036.9379997253418,60.604825100724014L1059.981066385905,59.99755007813857L1083.024133046468,59.99755007813857L1106.0671997070312,59.99755007813857L1129.1102663675945,59.99755007813857L1152.1533330281577,59.99755007813857L1175.1963996887207,59.99755007813857L1198.239466349284,59.99755007813857L1221.282533009847,59.99755007813857L1244.3255996704102,59.99755007813857" fill="none"></path></g><g><path style="fill: none;" stroke="rgb(255, 112, 67)" stroke-width="2px" d="M115.21533330281575,260.39408349918057L138.2583999633789,223.958286149413L161.30146662394205,131.04717890884555L184.34453328450522,131.654453931431L207.38759994506836,121.33091934855028L230.4306666056315,143.79967278099625L253.47373326619464,111.61480058932679L276.5167999267578,87.32436289019628L299.559866587321,80.03720342024278L322.6029332478841,79.42992839765733L345.64599990844727,81.25175346541366L368.68906656901044,81.85888768692732L391.73213322957355,73.96459399546015L414.7751998901367,79.42992839765733L437.81826655069983,75.17900323955925L460.861333211263,70.92821888253295L483.9043998718261,71.53549390511839L506.9474665323893,72.14276892770383L529.9905331929525,76.39355328473013L553.0335998535156,63.033784389994L576.0766665140789,67.89198457067752L599.119733174642,67.28470954809208L622.1627998352051,67.89198457067752L645.2058664957682,66.67743452550664L668.2489331563314,64.85560945775032L691.2919998168945,70.92821888253295L714.3350664774578,66.0701595029212L737.3781331380209,68.49911879219118L760.4211997985841,66.67743452550664L783.4642664591471,66.67743452550664L806.5073331197103,66.67743452550664L829.5503997802734,67.28470954809208L852.5934664408367,65.46288448033576L875.6365331013997,66.0701595029212L898.6795997619629,64.85560945775032L921.722666422526,66.67743452550664L944.7657330830892,65.46288448033576L967.8087997436522,66.0701595029212L990.8518664042155,64.85560945775032L1013.8949330647786,64.85560945775032L1036.9379997253418,64.85560945775032L1059.981066385905,64.85560945775032L1083.024133046468,65.46288448033576L1106.0671997070312,64.85560945775032L1129.1102663675945,64.24833443516488L1152.1533330281577,63.64105941257944L1175.1963996887207,64.24833443516488L1198.239466349284,64.85560945775032L1221.282533009847,64.85560945775032L1244.3255996704102,64.85560945775032" fill="none"></path></g><g><path style="fill: none;" stroke="rgb(51, 187, 238)" stroke-width="2px" d="M115.21533330281575,258.57225843142425L138.2583999633789,176.5918199952511L161.30146662394205,144.4069478035817L184.34453328450522,139.54888842396994L207.38759994506836,111.61480058932679L230.4306666056315,117.08013499152398L253.47373326619464,94.61152236014979L276.5167999267578,120.11651010445118L299.559866587321,107.36401623230049L322.6029332478841,111.61480058932679L345.64599990844727,102.50581605161696L368.68906656901044,106.75674120971505L391.73213322957355,107.36401623230049L414.7751998901367,102.50581605161696L437.81826655069983,84.28798777726908L460.861333211263,72.75004395028927L483.9043998718261,69.10639381477662L506.9474665323893,64.85560945775032L529.9905331929525,64.85560945775032L553.0335998535156,67.28470954809208L576.0766665140789,70.3209438599475L599.119733174642,66.0701595029212L622.1627998352051,70.3209438599475L645.2058664957682,67.89198457067752L668.2489331563314,70.92821888253295L691.2919998168945,72.14276892770383L714.3350664774578,67.28470954809208L737.3781331380209,72.14276892770383L760.4211997985841,66.0701595029212L783.4642664591471,66.67743452550664L806.5073331197103,69.10639381477662L829.5503997802734,69.10639381477662L852.5934664408367,68.49911879219118L875.6365331013997,68.49911879219118L898.6795997619629,69.71366883736206L921.722666422526,70.92821888253295L944.7657330830892,69.71366883736206L967.8087997436522,69.71366883736206L990.8518664042155,69.71366883736206L1013.8949330647786,68.49911879219118L1036.9379997253418,68.49911879219118L1059.981066385905,67.89198457067752L1083.024133046468,66.67743452550664L1106.0671997070312,67.89198457067752L1129.1102663675945,67.89198457067752L1152.1533330281577,67.28470954809208L1175.1963996887207,67.89198457067752L1198.239466349284,67.89198457067752L1221.282533009847,67.28470954809208L1244.3255996704102,67.28470954809208" fill="none"></path></g></g></g></g></g></g><g transform="translate(51, 377)" clip-path="url(#clip_1)"><clipPath id="clip_1"><rect width="1382" height="22"></rect></clipPath><g><g><line x1="0" y1="0" x2="0" y2="5" style="visibility: inherit;" fill="rgb(0, 0, 0)" stroke="rgb(204, 204, 204)" stroke-width="1px"></line><line x1="115.21533330281575" y1="0" x2="115.21533330281575" y2="5" style="visibility: inherit;" fill="rgb(0, 0, 0)" stroke="rgb(204, 204, 204)" stroke-width="1px"></line><line x1="230.4306666056315" y1="0" x2="230.4306666056315" y2="5" style="visibility: inherit;" fill="rgb(0, 0, 0)" stroke="rgb(204, 204, 204)" stroke-width="1px"></line><line x1="345.64599990844727" y1="0" x2="345.64599990844727" y2="5" style="visibility: inherit;" fill="rgb(0, 0, 0)" stroke="rgb(204, 204, 204)" stroke-width="1px"></line><line x1="460.861333211263" y1="0" x2="460.861333211263" y2="5" style="visibility: inherit;" fill="rgb(0, 0, 0)" stroke="rgb(204, 204, 204)" stroke-width="1px"></line><line x1="576.0766665140789" y1="0" x2="576.0766665140789" y2="5" style="visibility: inherit;" fill="rgb(0, 0, 0)" stroke="rgb(204, 204, 204)" stroke-width="1px"></line><line x1="691.2919998168945" y1="0" x2="691.2919998168945" y2="5" style="visibility: inherit;" fill="rgb(0, 0, 0)" stroke="rgb(204, 204, 204)" stroke-width="1px"></line><line x1="806.5073331197103" y1="0" x2="806.5073331197103" y2="5" style="visibility: inherit;" fill="rgb(0, 0, 0)" stroke="rgb(204, 204, 204)" stroke-width="1px"></line><line x1="921.722666422526" y1="0" x2="921.722666422526" y2="5" style="visibility: inherit;" fill="rgb(0, 0, 0)" stroke="rgb(204, 204, 204)" stroke-width="1px"></line><line x1="1036.9379997253418" y1="0" x2="1036.9379997253418" y2="5" style="visibility: inherit;" fill="rgb(0, 0, 0)" stroke="rgb(204, 204, 204)" stroke-width="1px"></line><line x1="1152.1533330281577" y1="0" x2="1152.1533330281577" y2="5" style="visibility: inherit;" fill="rgb(0, 0, 0)" stroke="rgb(204, 204, 204)" stroke-width="1px"></line><line x1="1267.3686663309732" y1="0" x2="1267.3686663309732" y2="5" style="visibility: inherit;" fill="rgb(0, 0, 0)" stroke="rgb(204, 204, 204)" stroke-width="1px"></line><line x1="1382.583999633789" y1="0" x2="1382.583999633789" y2="5" style="visibility: inherit;" fill="rgb(0, 0, 0)" stroke="rgb(204, 204, 204)" stroke-width="1px"></line></g><g transform="translate(0, 8)"><text style="text-anchor: middle; visibility: hidden; font-family: Roboto, sans-serif; font-size: 12px; font-weight: 200;" x="0" y="0" dx="0em" dy="0.95em" fill="rgb(50, 49, 63)" stroke="none" stroke-width="1px">-5</text><text style="text-anchor: middle; visibility: inherit; font-family: Roboto, sans-serif; font-size: 12px; font-weight: 200;" x="115.21533330281575" y="0" dx="0em" dy="0.95em" fill="rgb(50, 49, 63)" stroke="none" stroke-width="1px">0</text><text style="text-anchor: middle; visibility: inherit; font-family: Roboto, sans-serif; font-size: 12px; font-weight: 200;" x="230.4306666056315" y="0" dx="0em" dy="0.95em" fill="rgb(50, 49, 63)" stroke="none" stroke-width="1px">5</text><text style="text-anchor: middle; visibility: inherit; font-family: Roboto, sans-serif; font-size: 12px; font-weight: 200;" x="345.64599990844727" y="0" dx="0em" dy="0.95em" fill="rgb(50, 49, 63)" stroke="none" stroke-width="1px">10</text><text style="text-anchor: middle; visibility: inherit; font-family: Roboto, sans-serif; font-size: 12px; font-weight: 200;" x="460.861333211263" y="0" dx="0em" dy="0.95em" fill="rgb(50, 49, 63)" stroke="none" stroke-width="1px">15</text><text style="text-anchor: middle; visibility: inherit; font-family: Roboto, sans-serif; font-size: 12px; font-weight: 200;" x="576.0766665140789" y="0" dx="0em" dy="0.95em" fill="rgb(50, 49, 63)" stroke="none" stroke-width="1px">20</text><text style="text-anchor: middle; visibility: inherit; font-family: Roboto, sans-serif; font-size: 12px; font-weight: 200;" x="691.2919998168945" y="0" dx="0em" dy="0.95em" fill="rgb(50, 49, 63)" stroke="none" stroke-width="1px">25</text><text style="text-anchor: middle; visibility: inherit; font-family: Roboto, sans-serif; font-size: 12px; font-weight: 200;" x="806.5073331197103" y="0" dx="0em" dy="0.95em" fill="rgb(50, 49, 63)" stroke="none" stroke-width="1px">30</text><text style="text-anchor: middle; visibility: inherit; font-family: Roboto, sans-serif; font-size: 12px; font-weight: 200;" x="921.722666422526" y="0" dx="0em" dy="0.95em" fill="rgb(50, 49, 63)" stroke="none" stroke-width="1px">35</text><text style="text-anchor: middle; visibility: inherit; font-family: Roboto, sans-serif; font-size: 12px; font-weight: 200;" x="1036.9379997253418" y="0" dx="0em" dy="0.95em" fill="rgb(50, 49, 63)" stroke="none" stroke-width="1px">40</text><text style="text-anchor: middle; visibility: inherit; font-family: Roboto, sans-serif; font-size: 12px; font-weight: 200;" x="1152.1533330281577" y="0" dx="0em" dy="0.95em" fill="rgb(50, 49, 63)" stroke="none" stroke-width="1px">45</text><text style="text-anchor: middle; visibility: inherit; font-family: Roboto, sans-serif; font-size: 12px; font-weight: 200;" x="1267.3686663309732" y="0" dx="0em" dy="0.95em" fill="rgb(50, 49, 63)" stroke="none" stroke-width="1px">50</text><text style="text-anchor: middle; visibility: hidden; font-family: Roboto, sans-serif; font-size: 12px; font-weight: 200;" x="1382.583999633789" y="0" dx="0em" dy="0.95em" fill="rgb(50, 49, 63)" stroke="none" stroke-width="1px">55</text></g><line x1="0" y1="0" x2="1382.583999633789" y2="0" fill="rgb(0, 0, 0)" stroke="rgb(204, 204, 204)" stroke-width="1px"></line></g></g></g></g></svg>