<svg viewBox="0 0 1434 400" xmlns="http://www.w3.org/2000/svg"><g><g><g><g><g><line x1="51.41600036621094" y1="377.95999908447266" x2="46.41600036621094" y2="377.95999908447266" style="visibility: inherit;" fill="rgb(0, 0, 0)" stroke="rgb(204, 204, 204)" stroke-width="1px"></line><line x1="51.41600036621094" y1="323.9657135009765" x2="46.41600036621094" y2="323.9657135009765" style="visibility: inherit;" fill="rgb(0, 0, 0)" stroke="rgb(204, 204, 204)" stroke-width="1px"></line><line x1="51.41600036621094" y1="269.9714279174804" x2="46.41600036621094" y2="269.9714279174804" style="visibility: inherit;" fill="rgb(0, 0, 0)" stroke="rgb(204, 204, 204)" stroke-width="1px"></line><line x1="51.41600036621094" y1="215.97714233398438" x2="46.41600036621094" y2="215.97714233398438" style="visibility: inherit;" fill="rgb(0, 0, 0)" stroke="rgb(204, 204, 204)" stroke-width="1px"></line><line x1="51.41600036621094" y1="161.98285675048825" x2="46.41600036621094" y2="161.98285675048825" style="visibility: inherit;" fill="rgb(0, 0, 0)" stroke="rgb(204, 204, 204)" stroke-width="1px"></line><line x1="51.41600036621094" y1="107.98857116699226" x2="46.41600036621094" y2="107.98857116699226" style="visibility: inherit;" fill="rgb(0, 0, 0)" stroke="rgb(204, 204, 204)" stroke-width="1px"></line><line x1="51.41600036621094" y1="53.994285583496115" x2="46.41600036621094" y2="53.994285583496115" style="visibility: inherit;" fill="rgb(0, 0, 0)" stroke="rgb(204, 204, 204)" stroke-width="1px"></line><line x1="51.41600036621094" y1="0" x2="46.41600036621094" y2="0" style="visibility: inherit;" fill="rgb(0, 0, 0)" stroke="rgb(204, 204, 204)" stroke-width="1px"></line></g><g transform="translate(41.41600036621094, 0)"><text style="text-anchor: end; visibility: hidden; font-family: Roboto, sans-serif; font-size: 12px; font-weight: 200;" x="0" y="377.95999908447266" dx="0em" dy="0.3em" fill="rgb(50, 49, 63)" stroke="none" stroke-width="1px">0.7</text><text style="text-anchor: end; visibility: inherit; font-family: Roboto, sans-serif; font-size: 12px; font-weight: 200;" x="0" y="323.9657135009765" dx="0em" dy="0.3em" fill="rgb(50, 49, 63)" stroke="none" stroke-width="1px">0.75</text><text style="text-anchor: end; visibility: inherit; font-family: Roboto, sans-serif; font-size: 12px; font-weight: 200;" x="0" y="269.9714279174804" dx="0em" dy="0.3em" fill="rgb(50, 49, 63)" stroke="none" stroke-width="1px">0.8</text><text style="text-anchor: end; visibility: inherit; font-family: Roboto, sans-serif; font-size: 12px; font-weight: 200;" x="0" y="215.97714233398438" dx="0em" dy="0.3em" fill="rgb(50, 49, 63)" stroke="none" stroke-width="1px">0.85</text><text style="text-anchor: end; visibility: inherit; font-family: Roboto, sans-serif; font-size: 12px; font-weight: 200;" x="0" y="161.98285675048825" dx="0em" dy="0.3em" fill="rgb(50, 49, 63)" stroke="none" stroke-width="1px">0.9</text><text style="text-anchor: end; visibility: inherit; font-family: Roboto, sans-serif; font-size: 12px; font-weight: 200;" x="0" y="107.98857116699226" dx="0em" dy="0.3em" fill="rgb(50, 49, 63)" stroke="none" stroke-width="1px">0.95</text><text style="text-anchor: end; visibility: inherit; font-family: Roboto, sans-serif; font-size: 12px; font-weight: 200;" x="0" y="53.994285583496115" dx="0em" dy="0.3em" fill="rgb(50, 49, 63)" stroke="none" stroke-width="1px">1</text><text style="text-anchor: end; visibility: hidden; font-family: Roboto, sans-serif; font-size: 12px; font-weight: 200;" x="0" y="0" dx="0em" dy="0.3em" fill="rgb(50, 49, 63)" stroke="none" stroke-width="1px">1.05</text></g><line x1="51.41600036621094" y1="0" x2="51.41600036621094" y2="377.95999908447266" fill="rgb(0, 0, 0)" stroke="rgb(204, 204, 204)" stroke-width="1px"></line></g></g><g transform="translate(51, 0)" clip-path="url(#clip_0)"><clipPath id="clip_0"><rect width="1382" height="377"></rect></clipPath><g><g><g><line x1="0" y1="0" x2="0" y2="377.95999908447266" fill="rgb(0, 0, 0)" stroke="rgb(60, 60, 60)" stroke-width="1px" opacity="0.25"></line><line x1="115.21533330281575" y1="0" x2="115.21533330281575" y2="377.95999908447266" fill="rgb(0, 0, 0)" stroke="rgb(60, 60, 60)" stroke-width="1px" opacity="0.25"></line><line x1="230.4306666056315" y1="0" x2="230.4306666056315" y2="377.95999908447266" fill="rgb(0, 0, 0)" stroke="rgb(60, 60, 60)" stroke-width="1px" opacity="0.25"></line><line x1="345.64599990844727" y1="0" x2="345.64599990844727" y2="377.95999908447266" fill="rgb(0, 0, 0)" stroke="rgb(60, 60, 60)" stroke-width="1px" opacity="0.25"></line><line x1="460.861333211263" y1="0" x2="460.861333211263" y2="377.95999908447266" fill="rgb(0, 0, 0)" stroke="rgb(60, 60, 60)" stroke-width="1px" opacity="0.25"></line><line x1="576.0766665140789" y1="0" x2="576.0766665140789" y2="377.95999908447266" fill="rgb(0, 0, 0)" stroke="rgb(60, 60, 60)" stroke-width="1px" opacity="0.25"></line><line x1="691.2919998168945" y1="0" x2="691.2919998168945" y2="377.95999908447266" fill="rgb(0, 0, 0)" stroke="rgb(60, 60, 60)" stroke-width="1px" opacity="0.25"></line><line x1="806.5073331197103" y1="0" x2="806.5073331197103" y2="377.95999908447266" fill="rgb(0, 0, 0)" stroke="rgb(60, 60, 60)" stroke-width="1px" opacity="0.25"></line><line x1="921.722666422526" y1="0" x2="921.722666422526" y2="377.95999908447266" fill="rgb(0, 0, 0)" stroke="rgb(60, 60, 60)" stroke-width="1px" opacity="0.25"></line><line x1="1036.9379997253418" y1="0" x2="1036.9379997253418" y2="377.95999908447266" fill="rgb(0, 0, 0)" stroke="rgb(60, 60, 60)" stroke-width="1px" opacity="0.25"></line><line x1="1152.1533330281577" y1="0" x2="1152.1533330281577" y2="377.95999908447266" fill="rgb(0, 0, 0)" stroke="rgb(60, 60, 60)" stroke-width="1px" opacity="0.25"></line><line x1="1267.3686663309732" y1="0" x2="1267.3686663309732" y2="377.95999908447266" fill="rgb(0, 0, 0)" stroke="rgb(60, 60, 60)" stroke-width="1px" opacity="0.25"></line><line x1="1382.583999633789" y1="0" x2="1382.583999633789" y2="377.95999908447266" fill="rgb(0, 0, 0)" stroke="rgb(60, 60, 60)" stroke-width="1px" opacity="0.25"></line></g><g><line x1="0" y1="377.95999908447266" x2="1382.583999633789" y2="377.95999908447266" fill="rgb(0, 0, 0)" stroke="rgb(60, 60, 60)" stroke-width="1px" opacity="0.25"></line><line x1="0" y1="323.9657135009765" x2="1382.583999633789" y2="323.9657135009765" fill="rgb(0, 0, 0)" stroke="rgb(60, 60, 60)" stroke-width="1px" opacity="0.25"></line><line x1="0" y1="269.9714279174804" x2="1382.583999633789" y2="269.9714279174804" fill="rgb(0, 0, 0)" stroke="rgb(60, 60, 60)" stroke-width="1px" opacity="0.25"></line><line x1="0" y1="215.97714233398438" x2="1382.583999633789" y2="215.97714233398438" fill="rgb(0, 0, 0)" stroke="rgb(60, 60, 60)" stroke-width="1px" opacity="0.25"></line><line x1="0" y1="161.98285675048825" x2="1382.583999633789" y2="161.98285675048825" fill="rgb(0, 0, 0)" stroke="rgb(60, 60, 60)" stroke-width="1px" opacity="0.25"></line><line x1="0" y1="107.98857116699226" x2="1382.583999633789" y2="107.98857116699226" fill="rgb(0, 0, 0)" stroke="rgb(60, 60, 60)" stroke-width="1px" opacity="0.25"></line><line x1="0" y1="53.994285583496115" x2="1382.583999633789" y2="53.994285583496115" fill="rgb(0, 0, 0)" stroke="rgb(60, 60, 60)" stroke-width="1px" opacity="0.25"></line><line x1="0" y1="0" x2="1382.583999633789" y2="0" fill="rgb(0, 0, 0)" stroke="rgb(60, 60, 60)" stroke-width="1px" opacity="0.25"></line></g></g></g><g><g><line x1="0" y1="1133.8799972534177" x2="1382.583999633789" y2="1133.8799972534177" fill="rgb(0, 0, 0)" stroke="rgb(153, 153, 153)" stroke-width="1.5px"></line></g></g><g><g><line x1="115.21533330281575" y1="0" x2="115.21533330281575" y2="377.95999908447266" fill="rgb(0, 0, 0)" stroke="rgb(153, 153, 153)" stroke-width="1.5px"></line></g></g><g><g><g><g><g><path style="fill: none;" stroke="rgb(204, 51, 17)" stroke-width="2px" d="M115.21533330281575,216.91036218280894L138.2583999633789,190.77980734525408L161.30146662394205,175.0481277326453L184.34453328450522,169.4487185270118L207.38759994506836,162.78276131708662L230.4306666056315,152.65049091011133L253.47373326619464,149.98412089938213L276.5167999267578,144.65138087792369L299.559866587321,144.3847116937486L322.6029332478841,139.58524567443604L345.64599990844727,134.7857152889192L368.68906656901044,132.65261928033578L391.73213322957355,130.7861280897232L414.7751998901367,130.2528540875774L437.81826655069983,129.45297526746074L460.861333211263,127.05321007470229L483.9043998718261,124.65344488194388L506.9474665323893,124.92011406611896L529.9905331929525,123.85356606182724L553.0335998535156,124.65344488194388L576.0766665140789,122.78701805753556L599.119733174642,121.18719605109804L622.1627998352051,121.18719605109804L645.2058664957682,118.52076167416458L668.2489331563314,119.58737404466046L691.2919998168945,117.72088285404791L714.3350664774578,117.72088285404791L737.3781331380209,117.72088285404791L760.4211997985841,116.1210608476104L783.4642664591471,110.78825645994768L806.5073331197103,114.52123884117282L829.5503997802734,115.85439166343532L852.5934664408367,116.1210608476104L875.6365331013997,113.72129565485194L898.6795997619629,113.45469083688114L921.722666422526,111.05492564412275L944.7657330830892,112.65474765056027L967.8087997436522,110.52165164197689L990.8518664042155,108.92182963553935L1013.8949330647786,110.52165164197689L1036.9379997253418,109.72170845565601L1059.981066385905,111.05492564412275L1083.024133046468,111.05492564412275L1106.0671997070312,108.3885556333935L1129.1102663675945,111.05492564412275L1152.1533330281577,109.98837763983103L1175.1963996887207,108.92182963553935L1198.239466349284,109.72170845565601L1221.282533009847,112.38807846638521L1244.3255996704102,109.18843445351015" fill="none"></path></g><g><path style="fill: none;" stroke="rgb(0, 119, 187)" stroke-width="2px" d="M115.21533330281575,324.10854210818974L138.2583999633789,193.736147106094L161.30146662394205,164.4851830530861L184.34453328450522,147.80300770243412L207.38759994506836,132.14914683075406L230.4306666056315,121.18005140242714L253.47373326619464,113.75309255974756L276.5167999267578,110.89652041548291L299.559866587321,103.58381158533307L322.6029332478841,100.84148945359813L345.64599990844727,92.72896616953585L368.68906656901044,91.70058732435974L391.73213322957355,87.92995071365297L414.7751998901367,83.01668524524032L437.81826655069983,82.33112080385764L460.861333211263,77.64641972670873L483.9043998718261,78.44623418062112L506.9474665323893,78.33198416809141L529.9905331929525,75.93247644014994L553.0335998535156,75.24691199876726L576.0766665140789,73.99003312853169L599.119733174642,73.41871869967876L622.1627998352051,70.33371089655888L645.2058664957682,68.04845318114717L668.2489331563314,68.84826763505956L691.2919998168945,68.84826763505956L714.3350664774578,68.16270319367688L737.3781331380209,66.79157431091157L760.4211997985841,67.59138876482395L783.4642664591471,67.47713875229424L806.5073331197103,66.56307428585207L829.5503997802734,66.10600986952889L852.5934664408367,66.79157431091157L875.6365331013997,64.96338101182303L898.6795997619629,63.24943772526424L921.722666422526,64.27781657044035L944.7657330830892,62.90668768767503L967.8087997436522,63.935066532851145L990.8518664042155,63.24943772526424L1013.8949330647786,64.3920665829701L1036.9379997253418,61.9926232212329L1059.981066385905,63.47800211652796L1083.024133046468,63.02093770020478L1106.0671997070312,61.42130879237997L1129.1102663675945,61.306994413645995L1152.1533330281577,61.878308842498924L1175.1963996887207,61.0784943885865L1198.239466349284,62.10687323376265L1221.282533009847,59.70736550582118L1244.3255996704102,60.621429972263314" fill="none"></path></g></g></g></g></g></g><g transform="translate(51, 377)" clip-path="url(#clip_1)"><clipPath id="clip_1"><rect width="1382" height="22"></rect></clipPath><g><g><line x1="0" y1="0" x2="0" y2="5" style="visibility: inherit;" fill="rgb(0, 0, 0)" stroke="rgb(204, 204, 204)" stroke-width="1px"></line><line x1="115.21533330281575" y1="0" x2="115.21533330281575" y2="5" style="visibility: inherit;" fill="rgb(0, 0, 0)" stroke="rgb(204, 204, 204)" stroke-width="1px"></line><line x1="230.4306666056315" y1="0" x2="230.4306666056315" y2="5" style="visibility: inherit;" fill="rgb(0, 0, 0)" stroke="rgb(204, 204, 204)" stroke-width="1px"></line><line x1="345.64599990844727" y1="0" x2="345.64599990844727" y2="5" style="visibility: inherit;" fill="rgb(0, 0, 0)" stroke="rgb(204, 204, 204)" stroke-width="1px"></line><line x1="460.861333211263" y1="0" x2="460.861333211263" y2="5" style="visibility: inherit;" fill="rgb(0, 0, 0)" stroke="rgb(204, 204, 204)" stroke-width="1px"></line><line x1="576.0766665140789" y1="0" x2="576.0766665140789" y2="5" style="visibility: inherit;" fill="rgb(0, 0, 0)" stroke="rgb(204, 204, 204)" stroke-width="1px"></line><line x1="691.2919998168945" y1="0" x2="691.2919998168945" y2="5" style="visibility: inherit;" fill="rgb(0, 0, 0)" stroke="rgb(204, 204, 204)" stroke-width="1px"></line><line x1="806.5073331197103" y1="0" x2="806.5073331197103" y2="5" style="visibility: inherit;" fill="rgb(0, 0, 0)" stroke="rgb(204, 204, 204)" stroke-width="1px"></line><line x1="921.722666422526" y1="0" x2="921.722666422526" y2="5" style="visibility: inherit;" fill="rgb(0, 0, 0)" stroke="rgb(204, 204, 204)" stroke-width="1px"></line><line x1="1036.9379997253418" y1="0" x2="1036.9379997253418" y2="5" style="visibility: inherit;" fill="rgb(0, 0, 0)" stroke="rgb(204, 204, 204)" stroke-width="1px"></line><line x1="1152.1533330281577" y1="0" x2="1152.1533330281577" y2="5" style="visibility: inherit;" fill="rgb(0, 0, 0)" stroke="rgb(204, 204, 204)" stroke-width="1px"></line><line x1="1267.3686663309732" y1="0" x2="1267.3686663309732" y2="5" style="visibility: inherit;" fill="rgb(0, 0, 0)" stroke="rgb(204, 204, 204)" stroke-width="1px"></line><line x1="1382.583999633789" y1="0" x2="1382.583999633789" y2="5" style="visibility: inherit;" fill="rgb(0, 0, 0)" stroke="rgb(204, 204, 204)" stroke-width="1px"></line></g><g transform="translate(0, 8)"><text style="text-anchor: middle; visibility: hidden; font-family: Roboto, sans-serif; font-size: 12px; font-weight: 200;" x="0" y="0" dx="0em" dy="0.95em" fill="rgb(50, 49, 63)" stroke="none" stroke-width="1px">-5</text><text style="text-anchor: middle; visibility: inherit; font-family: Roboto, sans-serif; font-size: 12px; font-weight: 200;" x="115.21533330281575" y="0" dx="0em" dy="0.95em" fill="rgb(50, 49, 63)" stroke="none" stroke-width="1px">0</text><text style="text-anchor: middle; visibility: inherit; font-family: Roboto, sans-serif; font-size: 12px; font-weight: 200;" x="230.4306666056315" y="0" dx="0em" dy="0.95em" fill="rgb(50, 49, 63)" stroke="none" stroke-width="1px">5</text><text style="text-anchor: middle; visibility: inherit; font-family: Roboto, sans-serif; font-size: 12px; font-weight: 200;" x="345.64599990844727" y="0" dx="0em" dy="0.95em" fill="rgb(50, 49, 63)" stroke="none" stroke-width="1px">10</text><text style="text-anchor: middle; visibility: inherit; font-family: Roboto, sans-serif; font-size: 12px; font-weight: 200;" x="460.861333211263" y="0" dx="0em" dy="0.95em" fill="rgb(50, 49, 63)" stroke="none" stroke-width="1px">15</text><text style="text-anchor: middle; visibility: inherit; font-family: Roboto, sans-serif; font-size: 12px; font-weight: 200;" x="576.0766665140789" y="0" dx="0em" dy="0.95em" fill="rgb(50, 49, 63)" stroke="none" stroke-width="1px">20</text><text style="text-anchor: middle; visibility: inherit; font-family: Roboto, sans-serif; font-size: 12px; font-weight: 200;" x="691.2919998168945" y="0" dx="0em" dy="0.95em" fill="rgb(50, 49, 63)" stroke="none" stroke-width="1px">25</text><text style="text-anchor: middle; visibility: inherit; font-family: Roboto, sans-serif; font-size: 12px; font-weight: 200;" x="806.5073331197103" y="0" dx="0em" dy="0.95em" fill="rgb(50, 49, 63)" stroke="none" stroke-width="1px">30</text><text style="text-anchor: middle; visibility: inherit; font-family: Roboto, sans-serif; font-size: 12px; font-weight: 200;" x="921.722666422526" y="0" dx="0em" dy="0.95em" fill="rgb(50, 49, 63)" stroke="none" stroke-width="1px">35</text><text style="text-anchor: middle; visibility: inherit; font-family: Roboto, sans-serif; font-size: 12px; font-weight: 200;" x="1036.9379997253418" y="0" dx="0em" dy="0.95em" fill="rgb(50, 49, 63)" stroke="none" stroke-width="1px">40</text><text style="text-anchor: middle; visibility: inherit; font-family: Roboto, sans-serif; font-size: 12px; font-weight: 200;" x="1152.1533330281577" y="0" dx="0em" dy="0.95em" fill="rgb(50, 49, 63)" stroke="none" stroke-width="1px">45</text><text style="text-anchor: middle; visibility: inherit; font-family: Roboto, sans-serif; font-size: 12px; font-weight: 200;" x="1267.3686663309732" y="0" dx="0em" dy="0.95em" fill="rgb(50, 49, 63)" stroke="none" stroke-width="1px">50</text><text style="text-anchor: middle; visibility: hidden; font-family: Roboto, sans-serif; font-size: 12px; font-weight: 200;" x="1382.583999633789" y="0" dx="0em" dy="0.95em" fill="rgb(50, 49, 63)" stroke="none" stroke-width="1px">55</text></g><line x1="0" y1="0" x2="1382.583999633789" y2="0" fill="rgb(0, 0, 0)" stroke="rgb(204, 204, 204)" stroke-width="1px"></line></g></g></g></g></svg>